<?xml version="1.0" encoding="utf-8"?>
<!DOCTYPE svg PUBLIC "-//W3C//DTD SVG 1.1//EN" "http://www.w3.org/Graphics/SVG/1.1/DTD/svg11.dtd">
<svg version="1.1" id="content_fields" xmlns="http://www.w3.org/2000/svg" xmlns:xlink="http://www.w3.org/1999/xlink" x="0px" y="0px"
	 width="184.6px" height="153.2px" viewBox="0 0 184.6 153.2" style="enable-background:new 0 0 184.6 153.2;" xml:space="preserve"
	>
<style type="text/css">
<![CDATA[
	.st0{fill:#010101;}
]]>
</style>
<g id="content_x5F_fields">
	<path class="st0" d="M156.4,27.4c-0.6,0-1.1,0-1.7,0c-0.5,0-0.9,0.1-1.3,0.1c-0.4,0.4-0.8,0.7-1.2,1c-0.1,0.1-0.3,0.2-0.3,0.3
		c-0.6,1.2-1.8,2-2.2,3.4c-0.2,1.1,0.1,2.3,0,3.3c0.1,0.3,0.3,0.5,0.4,0.7c0,0.2,0,0.3-0.1,0.5c-0.3,0.5-0.3,1.1,0,1.6
		c0,0.1,0.1,0.1,0.1,0.2c0.1,0.3,0,0.6-0.2,0.9c-0.2,0.2-0.3,0.3-0.5,0.5c-0.1,0.2-0.1,0.4,0,0.7c0.1,0.1,0.2,0.3,0.1,0.4
		c-0.4,0.6-0.3,1.4-0.7,2c-0.5,0.9-1,1.8-1.2,2.8c0,0.2-0.3,0.4-0.4,0.5c-0.6,0.4-0.8,0.9-0.9,1.6c0,0.2-0.3,0.3-0.6,0.3
		c-0.1-0.1-0.2-0.3-0.2-0.4c0-0.2-0.1-0.3-0.3-0.4c-0.4-0.2-0.9-0.1-1.4-0.4c-0.3,0.1-0.6,0.1-0.9,0.2c-0.1,0-0.2,0-0.2-0.1
		c0,0,0-0.1,0-0.2c1.2-1.2,1.9-2.7,3-4c0.3-0.7,0.7-1.4,1-2.2c0.2-1.8,0.1-3.6,0.1-5.3c-0.3-0.8-0.6-1.5-0.9-2.2
		c-0.4-1.1-0.8-2.2-1.3-3.3c-0.4-0.7-0.6-1.4-0.6-2.3c0-0.8-0.3-1.5-0.6-2.3c-0.1-0.4-0.2-0.8-0.2-1.2c0-0.4,0.3-0.8,0.2-1.1
		c-0.1-0.5-0.2-0.9-0.2-1.4c0-0.4,0-0.8,0-1.2c-0.3-0.6-0.6-1.1-0.9-1.7c-0.4-0.9-1-1.4-1.8-1.7c-0.1-0.1-0.3-0.2-0.4-0.2
		c-0.2-0.1-0.6,0.1-0.7,0.5c-0.1,0.2-0.1,0.5,0.1,0.7c0.2,0.3,0.5,0.6,0.7,0.9c-0.1,0.2-0.2,0.5-0.3,0.7c0,0.3-0.2,0.4-0.5,0.5
		c-0.3,0.1-0.6,0-0.9,0.2c0,0-0.1,0.1,0,0.2c0.2,0.7,0.8,1,1.1,1.5c0.1,0.3,0.2,0.3,0.2,1.2c-0.6,0.8-1.3,1.5-2.3,2.1
		c-0.6,0-1.2,0-1.9,0c-0.4-0.3-0.7-0.5-1.1-0.8c-0.1,0-0.3,0-0.4,0.1c-0.7,0.4-1.2,0.2-1.7-0.3c-0.2-0.2-0.3-0.4-0.4-0.6
		c0.2-0.6,0.4-1.2,0.3-1.9c0-0.4-0.1-0.8-0.1-1.2c0-0.5,0.2-1,0.5-1.3c0.4-0.4,0.8-0.8,1.2-1.1c0.5-0.3,1-0.7,1.5-1.1
		c0.4-0.3,0.8-0.5,1.2-0.7c0.7-0.2,1.5-0.3,2.3-0.6c0.2-0.1,0.5-0.1,0.7,0c0.7,0.2,1.4,0.4,2,0.7c0.3,0.1,0.5,0.4,0.7,0.6
		c0.5,0.9,1.3,1.6,1.4,2.7c0,0.1,0.2,0.2,0.3,0.4c0.2,0.2,0.4,0.2,0.6,0.1c0.1-0.1,0.2-0.2,0.3-0.3c0.4-0.5,0.8-0.9,1.2-1.5
		c0.3-0.5,0.8-0.8,1-1.3c0.3-0.5,0.6-1.1,0.9-1.6c0.2-0.5,0.6-0.9,0.9-1.4c0.5-0.9,0.9-1.8,0.9-2.9c0-0.6,0-1.3,0.4-1.8
		c0.1-0.2,0.1-0.5,0.1-0.7c0-0.4,0-0.8,0-1.2c0-0.8,0-0.8,0.7-2c0.5,0.2,0.7,0.6,0.7,1.1c0,1.2,0,2.4,0,3.6c0,0.5,0,0.9-0.1,1.5
		c-0.2,0.4-0.4,0.9-0.7,1.4c0,0.2,0.2,0.3,0.3,0.2c0.9-0.4,1.8-0.9,2.8-1.2c0.4-0.1,1,0.1,1.3,0.4c0,0.1,0.1,0.1,0.1,0.2
		c0.2,0.6,0.7,1,1.1,1.5c0.5,0.3,1.1,0.2,1.6,0.5c0.5,0.4,1.1,0.7,1.7,0.7c0.3,0.2,0.6,0.5,1,0.7c1.4,0.6,1.7,1.7,1.8,3.1
		c0,0.2,0,0.3,0,0.5c0,0.1-0.1,0.3-0.2,0.4c-0.1,0.1-0.3,0.2-0.4,0.2c-0.6,0.3-0.8,0.8-0.8,1.3c-0.3,0.4-0.8,0.5-1.1,0.8
		c-0.1,0-0.2,0.1-0.2,0.1c-0.9,0-1.7,0-2.6,0c-0.4,0-0.7-0.3-1-0.6c-0.1-0.2-0.2-0.4-0.3-0.6c-0.2-0.4-0.5-0.6-0.9-0.6
		c-0.2,0-0.3-0.1-0.5-0.1s-0.4-0.4-0.4-0.6c0-0.6,0-1.1,0.1-1.6c0.1-0.6,0.4-1.2,1-1.6c0.5-0.3,0.9-0.6,1.2-1.1
		c-0.3-1-0.9-1.7-1.8-2.2c-0.6,0-1.3,0.1-2,0.1c-0.5,0.4-0.9,0.9-1.6,1.1c-0.3,0.1-0.6,0.3-0.7,0.6c-0.1,0.4-0.4,0.7-0.6,1
		c-0.8,1.1-1.6,2.1-2.3,3.3c-0.8,1.1-1.4,2.3-1.8,3.6c-0.1,0.3-0.2,0.6-0.3,0.9c-0.3,0.5-0.3,1.1,0,1.6c0.2,0.4,0.3,0.9,0.3,1.4
		s0.1,0.9,0.1,1.4c0.3,0.4,0.6,0.8,0.9,1.1s0.3,0.9,0.8,1.1c0.9-0.2,1.6-0.7,2.4-1.1c0.4-0.5,1-0.9,1.4-1.5c0.6-0.8,1.5-1.2,2.3-1.6
		c0.7-0.3,1.4-0.4,2,0.2C155.7,27.1,156.3,26.9,156.4,27.4L156.4,27.4z M133.6,21.7L133.6,21.7c0,0.3,0,0.6-0.2,0.8
		c-0.2,0.3-0.3,0.6-0.3,0.9c0,0.2,0.2,0.5,0.3,0.6c0.6,0,1.3,0.1,1.9,0.1c0.5,0,0.9,0.2,1.3,0.3c0.2-0.2,0.4-0.5,0.5-0.7
		c0.4,0,0.7-0.1,1-0.1c0.4-0.1,0.5-0.3,0.5-0.6c-0.3-0.6-0.6-1.3-1-1.9c-0.3-0.6-0.8-1-1.4-1.2c-0.7-0.1-1.4-0.1-2.1,0.1
		c-0.4,0.2-0.8,0.5-1.1,0.7C133,21.2,133,21.6,133.6,21.7z M156.2,20.2c0.1-0.1,0.2-0.3,0.3-0.4c0-0.1,0.1-0.1,0.1-0.2
		c0.1,0,0.2,0,0.3,0.2c0,0.4,0,0.8,0,1.2c0,0.4,0.4,0.8,0.7,0.8c0.8,0,1.6-0.1,2.3-0.1c0.4,0,0.7-0.7,0.6-1.1c0-0.1-0.2-0.3-0.2-0.4
		c-0.1-0.4-0.1-0.6,0.3-0.7c0.1-0.1,0.3-0.1,0.5-0.1c0.3-0.1,0.4-0.4,0.4-0.7c-0.1-0.6-0.4-1-1-1.1c-0.3-0.1-0.6-0.1-0.9-0.2
		c-0.4-0.2-0.9-0.2-1.4-0.3c-0.8-0.1-1.5,0.2-2.1,0.8c-0.4,0.5-0.8,1-1.2,1.5c-0.1,0.1,0,0.4,0.1,0.4
		C155.5,19.8,155.8,20,156.2,20.2z"/>
	<path class="st0" d="M112.6,43.8c0.1-0.1,0.1-0.3,0.2-0.4c0.5-0.4,1.1-0.7,1.5-0.9c1.1-0.1,2-0.2,2.9,0.2c0.3-0.2,0.5-0.4,0.6-0.7
		c0.1-0.5,0.3-0.9,0.6-1.3c1-1.2,2.1-2.3,3.6-3c0.3-0.1,0.5-0.3,0.8-0.5s0.6-0.6,0.9-0.7c0.7-0.2,1.1-0.9,1.8-1.1
		c0.5-0.2,0.9-0.6,1.2-1.1c0.7-1,1.3-2,2-3c0.1-0.8,0.2-1.5,0.5-2.2c-0.1-0.2-0.2-0.3-0.2-0.5c-0.4-1-1.1-1.8-2-2.3
		c-0.1-0.1-0.3-0.2-0.4-0.3c-0.1-0.1-0.2-0.3-0.2-0.4c0-0.2,0.1-0.4,0.3-0.5c0.8,0.2,1.5,0.9,2.3,0.9c0.7,1,0.8,2,1.2,3
		c0,0.6,0.1,1.3-0.2,1.9c-0.2,0.4-0.2,0.9-0.1,1.4c0,0.1,0.2,0.3,0.3,0.3c0.1,0,0.3,0,0.5,0c0.3-0.1,0.6-0.2,0.9-0.3
		c0.3,0,0.6,0.1,0.9,0.2c2.2,1,2.2,1,3.7,2.1c0.6,0.4,1.3,0.6,1.9,0.9c0.8,0,1.4,0.4,2,0.7c0.4,0.4,0.5,1,0.8,1.5
		c0.2,0.4,0.5,0.8,0.8,1.2c0,0.3,0,0.7,0,1c-0.1,0.5-0.5,1-0.4,1.6c0.1,0.5,0,0.9,0,1.3c-0.4,0.7-0.5,1.5-1.2,1.8
		c-0.6,0-1.1-0.3-1.5-0.6c-0.5-0.4-1-0.3-1.5,0c-0.1,0.1-0.3,0.2-0.4,0.2c-0.6,0.1-1.1,0-1.6-0.3c-0.5-0.4-0.8-0.9-1.1-1.5
		c-0.3-0.2-0.6-0.4-1-0.7c-0.1-0.2-0.3-0.5-0.5-0.8c-0.2-0.4-0.2-0.8-0.1-1.2c0.2-0.4,0.3-0.9,0.7-1.2c0.2-0.2,0.4-0.3,0.5-0.5
		c0.3-0.3,0.5-0.8,0.9-1.1c0.4-0.3,0.9-0.2,1.3-0.5c0.2-0.1,0.3-0.5,0.2-0.6c-0.7-1-1.7-1.7-2.9-2c-0.4-0.1-0.9,0-1.5,0
		c-0.4,0.2-0.9,0.5-1.4,0.7c-0.3,0.1-0.6,0.2-0.8,0.4c-0.4,0.5-1,0.6-1.3,1c-0.6,0.7-1.3,1.2-2,1.6c-0.8,0.4-1.5,0.9-2.2,1.4
		c-0.7,0.4-1.2,1-1.7,1.6c-0.8,0.9-1.2,2-1.7,3.2c-0.2,1.3-0.3,2.6,0.1,4.2c0.2,0.5,0.5,1.2,1.1,1.8c0.1,0.6,0.7,0.9,0.9,1.4
		c0.2,0.4,0.3,0.9,0.4,1.3c0.1,0.4,0.3,0.7,0.5,1.1c0.2,0.5,0.2,0.9-0.1,1.3c-0.2,0.3-0.2,0.6-0.1,0.9c0.1,0.2,0.2,0.4,0.3,0.7
		c0.1,0.2,0.1,0.5-0.1,0.7c-0.5,0.5-0.4,1.4-1,1.9c-0.3-0.2-0.6-0.5-0.9-0.8c-0.1,0.1-0.3,0.2-0.3,0.3c-0.1,0.4-0.3,0.5-0.6,0.5
		c-0.2,0-0.3,0-0.5,0c-0.2-0.1-0.3-0.3-0.3-0.6c0-0.2,0.1-0.5,0.2-0.7c0.2-0.4,0.3-0.9,0.3-1.4c0-1.2,0-2.4,0-3.5
		c-0.4-0.9-0.9-1.6-1-2.5c-0.4-0.8-0.6-1.6-0.5-2.5c-1-1-1.3-2.4-2.1-3.5c-0.3-0.1-0.6-0.3-1-0.5c-0.3,0-0.6,0-0.9,0
		c-0.4,0-0.8,0.1-1.1,0.3C113.2,43.8,112.9,43.8,112.6,43.8L112.6,43.8z M136.2,41.6c0,0.1-0.1,0.2-0.1,0.2
		c-0.1,0.2-0.2,0.4-0.1,0.7c0.1,0.2,0.5,0.3,0.8,0.3c0.3-0.1,0.5-0.3,0.8-0.5c0.2-0.2,0.1-0.6,0.5-0.7c0.4,0.4,1,0.4,1.2,1
		c0.1,0.3,0.6,0.3,0.8,0c0.2-0.2,0.3-0.4,0.4-0.6c0-0.4,0.1-0.8,0-1.2c-0.3-0.7-0.4-1.3-0.4-2.1c0-0.4-0.2-0.8-0.5-1
		c-0.2-0.2-0.5-0.4-0.7-0.6c-0.6,0-1,0-1.5,0s-0.9-0.2-1.6,0.1c-0.3,0.4-0.9,0.6-1.4,0.9c-0.7,0.4-1.2,1-1.1,1.9
		c0.1,0.4,0.3,0.8,0.7,0.8c0.3,0,0.6,0,0.9,0C135.5,41.2,135.8,41.4,136.2,41.6z"/>
	<path class="st0" d="M116.7,26.5c-0.1,0.7-0.6,0.9-1.2,0.9c-0.6,0-1-0.4-1.2-0.9c0-0.1,0-0.2,0-0.2c-0.1-0.3-0.2-0.6-0.6-0.6
		c-0.2,0-0.5,0-0.7-0.1c-0.4-0.1-0.6-0.6-0.5-0.9c0.2-0.4,0.3-0.9,0.6-1.3c0.2-0.3,0.4-0.4,0.7-0.6c0.3-0.2,0.5-0.3,0.8-0.5
		c0.3-0.2,0.3-0.7,0-0.8c-0.3-0.2-0.6-0.3-0.8-0.4c-0.4-0.2-0.8-0.3-1.1-0.1c-0.6,0.3-1.2,0.3-1.8,0.5c-0.2,0.3-0.5,0.6-0.7,0.9
		c-0.1,0.2-0.3,0.4-0.3,0.6c0,0.8-0.5,1.3-0.9,1.9c-0.2,0.4-0.6,0.7-1,1c-0.3,0.2-0.7,0.4-0.9,0.7c-0.4,0.7-1.1,1.2-1.3,1.9
		c-0.1,0.2-0.2,0.4-0.3,0.7c0.3,0.8,0.4,1.7,0.8,2.4c0,0.6,0.4,1,0.9,1.3c0.1,0,0,0.3,0,0.4c-0.6-0.2-1.2-0.3-1.8,0
		c-0.3,0.2-0.6,0.1-0.9,0c-0.2-0.1-0.4-0.2-0.6-0.4c-0.7-0.7-0.8-1.7-1.1-2.6c-0.1-0.3-0.1-0.8-0.1-1.2c0.3-0.6,0.6-1.3,1-2
		c0.2-0.2,0.6-0.4,0.9-0.6c0.3-0.2,0.7-0.4,1-0.7c0.4-0.3,0.9-0.7,1.3-1c0.5-0.4,0.7-1.4,0.4-2c-0.2-0.4-0.3-0.7-0.5-1.1
		c-0.3-0.7-0.7-1.4-1-2.1c-0.1-0.2-0.2-0.4-0.2-0.7c0-1.2-0.5-2.3-1.3-3.6c-0.1-0.1-0.4-0.4-0.7-0.6c-0.5-0.2-0.9-0.1-1.3-0.2
		c-0.8,0.3-1.6,0.6-2.3,1.2c-0.2,0.1-0.4,0.1-0.6-0.1c0.5-0.5,0.9-1,1.6-1.4c0.6-0.3,1.4-0.3,2-0.7c0.4,0.1,0.7,0.3,1.1,0.4
		c0.4,0.1,0.7-0.1,0.8-0.5c0.2-0.9,0.7-1.8,1.4-2.5s1.4-1.3,2.3-1.7c0.1,0,0.2,0,0.2,0l-0.1-0.1c0.1,0.3,0,0.6-0.2,0.9
		c-0.5,0.6-1,1.2-1.5,1.8c-0.1,0.6-0.1,1.2-0.2,1.8c-0.1,0.2-0.2,0.3-0.3,0.4c-0.7,0.4-0.5,1.1-0.5,1.7c0,0.1,0.1,0.3,0.2,0.4
		c0.5,1.2,1.2,2.4,1.6,3.7c0.2,0.7,0.7,1.2,1.3,1.6c0.1,0.1,0.3,0,0.4,0c0.1-0.1,0.3-0.2,0.4-0.3c0.4-0.6,1-1,1.6-1.5
		c0.3,0,0.7-0.1,1.1-0.1c0.4,0,0.8,0,1.2,0.2c0.7,0.4,1.5,0.5,1.7,1.5c0.4,0.4,0.9,0.6,1.5,0.7c0.5,0.1,0.9,0.1,1.4,0.3
		c0.4,0.2,0.9,0.3,1.3,0.4c0.3,0.4,0.6,0.7,0.9,1c0,0.5,0,0.9,0,1.2c-0.5,0.5-1.2,0.8-1.6,1.4c-0.4,0.5-1,0.5-1.5,0.2
		C117.1,26.7,116.9,26.6,116.7,26.5c0-0.1,0.1-0.2,0.2-0.3c0.5-0.3,0.9-0.6,1.5-0.6c0.3,0,0.6-0.3,0.8-0.5c0.5-0.6,0.4-1.5-0.3-1.8
		c-0.9-0.3-1.8-0.7-2.7-0.5c-1.1,0.2-1.7,1-2.5,1.7c-0.1,0.1-0.1,0.3-0.1,0.4c0.2,0.1,0.4,0.1,0.7,0.2c0.4,0.1,0.7,0.2,1,0.6
		c0.1,0.1,0.2,0.3,0.3,0.4C115.8,26.5,116.2,26.6,116.7,26.5z"/>
	<path class="st0" d="M170.4,11.8c0.3-0.1,0.6,0,0.9,0.3c0.2,0.2,0.4,0.3,0.5,0.5c0.3,0.5,0.6,1.1,0.9,1.7c0.2,0.3,0.5,0.4,0.8,0.3
		c0.2-0.1,0.3-0.3,0.5-0.4c1.5-0.9,2.5-2.2,3-3.8c0-0.4-0.4-0.7-0.3-1.1c0.2-0.4,0.2-0.7,0-1.1c-0.1-0.4,0-0.8-0.1-1.2
		c-0.1-0.7,0.2-1,0.7-1.3c0.4,0.3,0.7,0.7,0.8,1.2c0,0.6,0,1.3,0.4,1.8c0,0.4,0,0.8,0.1,1.2c0,0.5,0,0.9,0,1.4
		c0,0.2,0.2,0.4,0.5,0.4c0.7,0,1.4,0,2.1,0c0.2,0,0.5,0.1,0.6,0.3c0.6,0.7,1.2,1.3,1.4,2.2c0.1,0.5,0.3,0.9,0.6,1.2
		c0.4,0.3,0.5,0.8,0.7,1.2c0.1,0.1,0.1,0.3,0.1,0.5c0.1,0.3-0.1,0.7-0.4,0.8c-0.3,0.1-0.6,0-0.9,0.2c-0.8,0.3-1.5,0.5-2.3,0
		c-0.4,0-0.8-0.1-1.2-0.1c-0.1,0-0.3-0.2-0.4-0.3c0-0.4,0-0.9,0-1.4c0.1-0.5,0.3-0.9,0.8-1.1c0.7-0.3,1.5-0.4,2.2-0.6
		c0-0.1,0.1-0.2,0.1-0.2c-0.3-0.5-0.6-0.9-0.9-1.4c-0.4-0.3-0.8-0.3-1.2-0.3c-0.3,0-0.6,0.1-0.9,0c-1.1,0-2,0.4-2.7,1.2
		c-0.6,0.7-1.4,1.1-2.1,1.5c-1,0.6-1.7,1.4-2.3,2.1c-0.3,0.6-0.2,1-0.3,1.4c-0.2,1.1,0.2,2,1.1,2.7c0.1,0,0.1,0.1,0.2,0.2
		c0.4,1.1,1.3,1.5,2.3,1.8s1.6,1,2,1.9c0.3,0.7,0.3,1.4,0.3,2.1c0,0.4-0.3,0.7-0.8,0.8c-0.5,0-0.9,0.1-1.4,0.1s-0.7-0.3-0.7-0.7
		c0-0.4,0-0.8,0-1.3c0-0.4-0.4-0.7-0.6-1.2c-0.2-0.4-0.6-0.7-1-1c-0.7-0.5-1.5-0.9-2.2-1.4c-0.8-0.5-1.4-1.3-1.7-2.2
		c0.1-0.3,0.2-0.7,0.3-1.1c0.1-0.4,0-0.8,0-1.1c0.3-0.8,0.7-1.5,1.3-2c0.3-0.3,0.5-0.6,0.7-1c0.1-0.2,0.2-0.4,0.2-0.7
		c-0.2-0.5-0.5-1-0.7-1.5s-0.5-0.8-0.9-1.1C170.5,12.1,170.4,11.9,170.4,11.8L170.4,11.8z M180.6,15.6c-0.2,0.2-0.4,0.4-0.5,0.6
		c-0.3,0.4,0.3,1.2,0.7,1.2c0.9,0,1.7,0,2.6,0c0.2,0,0.4-0.4,0.3-0.5c-0.3-0.7-0.8-1.2-1.5-1.2C181.7,15.6,181.2,15.6,180.6,15.6z"
		/>
	<path class="st0" d="M110.1,56.1c0.6-0.4,1.3-0.8,2-1.2c0.2-0.1,0.3,0,0.4,0.1c-0.1,0.2-0.2,0.4-0.3,0.6c-0.1,0.2,0.1,0.5,0.3,0.6
		c0.6,0.2,1.2,0.1,1.5-0.4c0.1-0.2,0.3-0.4,0.4-0.6c0.2-0.6,0.5-1.2,0.7-1.7c0.1-0.3,0.2-0.6,0.3-0.9c-0.2-1.1-1-1.9-1.6-2.8
		c-0.1,0-0.2-0.1-0.2,0c-0.2,0-0.5,0.1-0.7,0.2c-0.4-0.5-1-0.9-1.7-1.2c-0.6,0-1.2,0-1.8,0c-0.5,0-1.1,0-1.6-0.1
		c-0.2,0-0.3-0.5-0.2-0.6c0.2-0.2,0.4-0.5,0.6-0.7c0.5-0.3,1-0.5,1.4-0.8c0.3-0.6,0.8-0.7,1.3-1c0.8-0.5,1.7-0.2,2.1,0.4
		c0.4,0.7,1,1.2,1.7,1.6c0.5,0.3,0.9,0.6,1.4,0.9c0.4,0.3,0.4,0.8,0,1.2c-0.1,0.1-0.3,0.2-0.4,0.3c-0.1,0.1-0.2,0.3-0.1,0.4
		c0.4,0.5,0.4,1.2,0.7,1.8c0.2,0.4,0.2,0.9,0.2,1.4c0,0.4-0.1,0.8-0.4,1.1c-0.4,0.5-0.9,0.9-1.1,1.5c-0.1,0.2-0.3,0.4-0.4,0.5
		c-0.4,0.4-0.8,0.7-1.3,1c-0.3,0-0.5,0-0.8,0c-0.3-0.2-0.6-0.4-0.9-0.7c-0.5-0.3-1.1-0.4-1.6-0.1s-0.9,0.2-1.3-0.1
		c-0.2-0.2-0.5-0.4-0.6-0.7c-0.1-0.1-0.2-0.3-0.2-0.4c0-0.7,0-1.4,0.3-2.1c-0.3-0.1-0.6-0.2-0.8-0.4c-0.5-0.3-0.6-1.1-0.3-1.4
		c0.1-0.2,0.3-0.4,0.5-0.5c0.4-0.5,0.8-1,1.1-1.5c0.1-0.2,0.3-0.3,0.5-0.5c0.3,0.4,0.3,0.8,0.1,1.1s-0.5,0.6-0.7,1
		c-0.3,0.5-0.2,0.8,0.3,1.1c0.1,0.1,0.3,0.2,0.4,0.2c0.1,0.3,0.2,0.6,0.3,0.9c-0.1,0.5-0.3,0.9-0.3,1.4
		C109.2,55.4,109.4,55.9,110.1,56.1z M111.4,46.2c-0.3,0.2-0.6,0.4-0.9,0.6c-0.1,0.1-0.1,0.3-0.1,0.4c0,0.1,0.2,0.2,0.3,0.3
		c0.1,0.1,0.3,0.1,0.5,0c0.2,0,0.3-0.1,0.4-0.1c0.2-0.2,0.4,0,0.6,0.1c0.1,0,0.1,0,0.2,0c0.1,0,0.1-0.1,0.1-0.2
		C112.4,46.7,112.2,46.2,111.4,46.2z"/>
	<path class="st0" d="M156.8,27.9c0.3,0.1,0.6,0.1,0.9,0.2c0.4,0.2,0.9,0.4,1.2,0.6c0.2-0.1,0.4-0.2,0.5-0.2c0.8-0.2,1.2,0,1.6,0.6
		c0.1,0.1,0.1,0.3,0.2,0.4c0.5,0.2,0.9,0.5,1.4,0.8c0.3,0.4,0.6,0.9,0.7,1.5c0,0.1,0,0.2,0,0.2c-0.2,0.7-0.4,1.3-0.7,2
		c-0.2,0.5-0.6,0.7-1.1,0.9c-0.7,0-1.2,0.4-1.6,0.9c-0.2,0.2-0.4,0.4-0.6,0.6c-0.2,0-0.2,0-0.3,0c-0.6,0.1-1.1-0.2-1.2-0.8
		c-0.1-0.5-0.5-0.6-0.9-0.7c0.1-0.4,0.6-0.3,0.8-0.6c0.2-0.2,0.4-0.4,0.7-0.6c0.3,0.4,0.2,0.8,0.2,1.2c0,0.3,0.2,0.5,0.4,0.5
		c0.1,0,0.3,0,0.4-0.1c0.2-0.1,0.4-0.3,0.6-0.4c0.3-0.3,0.5-0.5,0.5-1c0-0.2,0.1-0.5,0.3-0.6c0.7-0.2,0.7-1,1.1-1.4
		c0.1-0.1,0-0.3-0.1-0.4c-0.3-0.3-0.5-0.6-0.8-0.8c-0.2-0.1-0.4-0.3-0.6-0.3c-0.4-0.1-0.7-0.2-1.1-0.4c-0.7-0.3-1.4,0.2-1.6,1
		c-0.1,0.3-0.1,0.6-0.1,1c-0.2,0.1-0.4,0.2-0.6,0.3c-0.2,0.1-0.4,0.3-0.5,0.5c-0.2,0.4-0.4,0.8-0.7,1.2c-0.1,0.2,0,0.5,0.1,0.7
		c0.1,0.2,0.2,0.4,0.4,0.6c-0.1,0.1-0.2,0.2-0.3,0.3c-0.2,0-0.5,0-0.7-0.1c-0.2-0.1-0.3-0.3-0.3-0.6c0-0.4-0.1-0.8,0.1-1.2
		c0.1-0.1,0.2-0.3,0.2-0.4c0.1-1.4,0.8-2.5,1.5-3.8C156.9,29,156.9,28.4,156.8,27.9L156.8,27.9z"/>
	<path class="st0" d="M99.1,23.6c-0.3,0.6-0.7,0.9-1.2,1c-0.4,0-0.8,0-1.2-0.1c-0.2,0-0.4-0.3-0.4-0.5c0-0.3-0.1-0.6-0.1-0.9
		c0-0.7-0.2-1.2-0.9-1.4c-0.1,0-0.2-0.2-0.4-0.3c0-0.5,0-1.1,0-1.6c0.3-0.5,0.6-0.9,0.9-1.4c0.4-0.8,1.2-1.1,1.9-1.2
		c0.6-0.1,1.3-0.1,1.9-0.1c0.1,0,0.3,0.1,0.4,0.2c0.1,0.1,0.1,0.3,0.1,0.5c-0.4,0.7-0.9,0.8-1.6,0.5c-0.1,0-0.2,0-0.2,0
		c-0.8,0.4-1.6,0.7-2.3,1.3c-0.1,0.1-0.2,0.3-0.2,0.4c0.1,0.4,0.2,0.8,0.3,1.1c0.2,0.6,0.5,0.7,1.3,0.5c0.1,0,0.3,0,0.4,0.1
		c0,0,0,0.1,0,0.2c-0.2,0.4-0.3,0.7-0.3,1.1c0,0.2,0,0.3,0,0.5c0.1,0.1,0.2,0.2,0.3,0.3C98.3,23.6,98.7,23.6,99.1,23.6L99.1,23.6z"
		/>
	<path class="st0" d="M100.1,23.2c0-0.3,0-0.6,0-0.9c0-0.4,0.1-0.5,0.6-0.5c0.1,0,0.2,0,0.2,0c0.4-0.1,0.7-0.5,0.6-0.8
		c-0.2-0.5-0.4-1-0.8-1.4c-0.2-0.2-0.4-0.2-0.6-0.3c0-0.3,0-0.5,0.2-0.6c0.1-0.1,0.3,0,0.4,0c0.4,0,0.8,0.2,1,0.6
		c0.3,0.4,0.6,0.9,0.7,1.5c0,0.4,0.2,0.7,0.3,1.2C102.1,22.6,101.3,23.3,100.1,23.2L100.1,23.2z"/>
	<path class="st0" d="M164.7,14.2c0,0.2,0,0.5,0.1,0.7c0.1,0.3,0.3,0.6,0.7,0.6c0.6,0.2,1.2,0.2,1.9,0.1c0.3,0,0.4-0.3,0.5-0.5
		c0.1-0.4,0.2-0.7,0.3-1.1c0-0.1,0.1-0.1,0.2-0.1c0.1,0,0.1,0.1,0.1,0.2c0.1,0.5,0.1,0.9,0,1.4c-0.1,0.3-0.2,0.6-0.3,0.9
		c-0.2,0.5-0.5,0.8-0.9,1.1c-0.9,0.2-1.1-0.7-1.7-1.2c-0.4-0.1-0.8-0.2-1.3-0.3c-0.1-0.1-0.2-0.2-0.3-0.4c-0.1-0.1-0.1-0.3-0.1-0.4
		c0-0.3,0.2-0.4,0.3-0.6C164.3,14.3,164.5,14.1,164.7,14.2L164.7,14.2z"/>
	<path class="st0" d="M170.5,11.8c-0.5,0.1-1.1,0-1.6,0.3c-0.3,0.2-0.7,0.1-1.2,0c0.4-0.2,0.6-0.4,0.9-0.5c0.5-0.3,1-0.3,1.5-0.1
		C170.3,11.5,170.3,11.7,170.5,11.8L170.5,11.8z"/>
	<path class="st0" d="M165.2,13.7c0-0.2,0-0.3,0.2-0.4c0.6-0.2,1.1-0.2,1.5,0.3c0.1,0.2,0.1,0.3,0,0.4c-0.1,0.1-0.1,0.1-0.2,0.1
		c-0.4,0-0.8,0-1.1-0.3C165.5,13.8,165.3,13.7,165.2,13.7L165.2,13.7z"/>
	<path class="st0" d="M24.2,113.3c-0.2,0.2-0.3,0.4-0.5,0.5c-0.3,0.2-0.5,0.4-0.6,0.8c0,0.3,0,0.7,0,1c0.2,0.9,0.4,1.8,0.3,2.8
		c-0.1,0.8,0.3,1.5,0.9,2c0.7,0.3,1.4-0.1,2.1-0.2c0.7-0.1,1.4-0.3,2-0.5c0.4,0.5,0.3,0.8-0.1,1s-0.8,0.3-1.2,0.5
		c-0.2,0.1-0.3,0.4-0.5,0.7c0.4,1,1,2,1.1,3.2c0,0.3,0.3,0.6,0.5,0.9c0.3,0.4,0.9,0.6,1.4,0.3c1.1-0.5,1.8-1.4,2.2-2.5
		c0.6-1.6,1.1-3.3,1-5.1c-0.4-0.2-0.7-0.4-1.1-0.7c-0.1-0.1-0.2-0.3-0.2-0.4c0-0.1,0.2-0.3,0.3-0.4c0.1-0.1,0.3-0.1,0.5-0.1
		c0.9,0,1.4-0.5,1.9-1.2c0.3-0.3,0.4-0.8,0.6-1.2c0.4-0.9,0.4-1.7-0.3-2.4c-0.4-0.5-0.2-1.4,0.4-1.6c1.4-0.5,1.7-1.7,2.1-2.8
		c0.3-1.1,0.3-2.2-0.3-3.3c-0.3-0.4-0.5-0.9-0.8-1.4c-0.2-0.3-0.4-0.5-1-0.5c-0.5,0.4-0.9,1-1.5,1.6c-0.2,0-0.5,0.1-0.7,0.1
		c-1-0.2-2.1-0.1-3.1,0.1c-1,0.1-1.6,0.6-1.8,1.6c-0.2,0.8-0.4,1.5-0.6,2.2c-0.6,0.4-1.1,0.7-1.5,1c-0.4-0.2-0.5-0.6-0.4-0.9
		c0.3-1,0-2.1,0-3.1c0-0.3-0.2-0.7-0.3-1c-0.2-0.5-0.6-0.8-1.2-0.8c-0.5,0-1,0.1-1.6,0.1c-0.4,0.1-0.8,0.2-1.3,0.3s-1-0.2-1-0.6
		c0-0.3,0.2-0.7,0.5-0.8c0.4-0.1,0.8-0.3,1.2-0.4c0.7-0.2,1.3-0.5,2-0.7c1.3-0.3,2.1-1.1,3-2c0-0.5,0-0.9,0-1.3
		c-0.2-1.9-0.1-3.9,0.7-5.7c0.6-1.5,1.4-3,2.8-3.9c0.3-0.2,0.6-0.3,1-0.4c1-0.2,2.1-0.3,3.1-0.4c0.7-0.1,1.4,0,2,0.4
		c0.6,0.4,1.2,0.7,1.9,1c0.1,0.1,0.3,0,0.5-0.1c0.2-0.6-0.2-1.2-0.3-1.7c-1-3.1-1.1-6.3-0.9-9.6c0.1-1.3,0.5-2.5,0.8-3.8
		c0.1-0.2,0.3-0.4,0.5-0.5c0.2-0.1,0.6,0,0.7,0.2c0.2,0.4-0.1,0.9,0.1,1.3c0.4,0.9,0.3,1.8,0.3,2.8s0.1,1.9,0,2.9
		c-0.1,0.8,0,1.6,0.1,2.3c0.6,3.4,1.1,4.9,2.6,8.2c0.7,1.7,1.4,3.4,2.1,5.1c0.1,0.3,0.3,0.7,0.6,0.8c0.1,0,0.4-0.1,0.4-0.2
		c1.5-2.2,3.4-4.2,5.3-6.1c0.9-0.9,2-1.4,3.1-1.8c0.6-0.2,1.2-0.1,1.8,0.1c1.2,0.5,2.4,1.1,3.3,2.1c0.6,0.6,1.2,1.3,1.7,1.9
		c0.9,0,1.4-0.5,1.9-1c0.4-0.4,0.5-1.1,1.1-1.4c0.3,0,0.5,0.1,0.6,0.4c0.2,0.6,0.3,1.2,0.5,1.6c0.5,0.6,1.1,0.2,1.6,0.4
		c0.5,0.3,1,0,1.5,0c2.3-0.4,3.1,0.4,3.8,2.3c0.5,1.3,0.5,2.7,0.6,4.1c0.1,0.9-0.1,1.7-0.7,2.4c-0.7,1-1.1,2.1-1.7,3.3
		c0.4,0.8,0.8,1.7,1.1,2.6c0.2,0.5,0.2,1,0.2,1.3c-0.2,0.9-0.9,1-1.3,1.4c-0.5,0.4-0.9,0.8-1.4,1.2c-0.4,1.3,0.3,2.8-0.3,4.1
		c-0.5,1.3-1,2.6-1.5,4c-0.8,0.5-1.7,1-2.6,1.5c-1.6-0.1-2.7-0.9-3.4-2.2c-0.3-0.6-0.4-1.1-0.3-1.8c0.1-0.6,0.2-1.2,0.2-1.8
		c0-0.3-0.1-0.5-0.1-0.9c-0.7-0.4-1.5-0.7-2.3-1.1c-0.7-0.3-1-0.9-1.3-1.6c-0.4-1.1-0.4-2.2-0.3-3.3c-0.3-0.5-0.6-0.4-1-0.3
		c-0.6,0.1-1-0.1-1.5-0.4c-2.1-1.4-2.6-2.3-2-4.8c0.1-0.7,0.3-1.3,0.8-1.9c1-1.3,2.1-2.6,3.1-3.8c0.2-0.3,0.6-0.4,0.8-0.6
		c0.7-0.6,1.5-1.2,2.2-1.8c-0.8-2.2-1.5-3-2.8-4c-0.6-0.5-1.3-0.5-2-0.4c-1,0.2-1.8,0.6-2.5,1.3c-1,1-2,2-2.9,3
		c-0.9,0.9-1.5,1.9-2.1,3c-0.3,0.6-0.6,1.2-0.7,2c0,0.3,0,0.6-0.2,0.7c-1,1-1,2.2-0.8,3.4c0.4,2.1,0.4,4.1,0.7,6.2
		c0.2,1.3,0.3,2.6,0.3,3.8c0,1.6-0.1,3.1,0.4,4.7c0.1,0.4,0.1,0.9,0.1,1.3c-0.2,1.4,0.2,2.8,0.7,4.1c0.6,1.7,1.3,3.4,1.8,5.2
		c0.3,1,0.8,1.9,1.1,2.8c-0.3,0.5-1,0.7-0.7,1.4c0.1,0.3,0.1,0.7,0.1,1c0,0.1-0.1,0.4-0.3,0.4c-1.1,0.6-2.2,1.4-3.6,0.6
		c-0.8-1-1-2.2-0.8-3.4c0.2-1.1,0.2-2.2,0-3.4c-0.2-1.1-0.1-2.3,0-3.4c0.1-0.7-0.1-1.4-0.2-2c-0.3-1.4-0.7-2.7-0.7-4.1
		c0-0.3,0-0.5-0.1-0.8c-0.2-1.4-0.8-2.7-0.8-4.1c0-1.5,0-2.9-0.2-4.4c-0.1-1.4,0-2.8,0-4.2c0-3.1-0.4-6.1-1.7-8.9
		c-0.1-0.3-0.3-0.6-0.4-1c-0.1-1.2-0.9-2-1.7-2.9c-1.5-1.6-3.5-2.2-5.6-2.6c-0.5-0.1-1,0-1.5,0.3c-0.4,0.3-0.8,0.7-1.3,0.9
		c-1.3,0.7-2,1.8-2.6,3.1c0,0.1,0,0.2,0,0.3c-0.2,0-0.2,0.2-0.1,0.1c0.3-0.1,0,0.2,0-0.2c0.2,0.2,0.5,0.5,0.7,0.8
		c-0.7,1.5-1,3,0.1,4.4c1.2-0.2,2-1.1,2.9-1.6c0.4-0.2,0.8-0.1,1.2,0.3c0.3,0.4,0.4,0.9,0.1,1.2c-0.4,0.4-1,0.7-1.2,1.3
		c0,0.1,0.1,0.4,0.1,0.4c0.6,0.1,1.2,0.2,1.8,0.2c1.5-0.1,2.5,0.6,3.2,1.8c1,1.8,1.4,3.7,1,5.9c-0.6,0.7-1.3,1.6-2,2.4
		c0,0.2-0.1,0.3,0,0.4c1,1.9,0.3,3.5-0.9,5c-0.5,0.6-1,1.2-1.5,1.7c0.1,0.8,0.3,1.6-0.1,2.3c-0.3,0.5-0.3,1.2-0.4,1.8
		c-0.2,0.8-0.4,1.5-0.7,2.2c-0.3,0.6-0.6,1.2-1.3,1.5c-0.5,0.2-0.9,0.6-1.2,0.9c-0.6,0.6-1.2,0.5-1.9,0.2c-0.9-0.4-1.4-1-1.6-1.9
		c-0.1-0.7-0.3-1.4-0.5-2c-0.2-0.6,0-1.2-0.4-1.7c-0.4-0.3-1-0.3-1.5-0.4c-0.8-0.2-1.5-0.7-1.7-1.5c-0.3-1-0.6-2-0.5-3.1
		c0.1-0.9,0.2-1.7,0-2.5c-0.5-0.6-1.2-0.6-1.8-0.7c-1.2-0.2-1.8-0.9-2-2.1c-0.3-1.8,0.3-3.4,1.1-5c0.2-0.4,0.6-0.6,1-0.8
		c0.5-0.3,1.1-0.5,1.6-0.7c0.5,0.4,0.2,0.7-0.1,0.8c-1.4,0.5-2.1,1.5-2.4,2.9c-0.1,0.4-0.2,0.8-0.3,1.3c0,0.2-0.1,0.4,0,0.5
		c0.4,1.1,0.9,2.1,2.2,2.4C22.1,113.4,23.2,113.3,24.2,113.3L24.2,113.3z M63.9,113.2c-0.5,0.4-1.3-0.1-1.7,0.6
		c-0.1,0.4-0.2,0.9-0.3,1.5c-0.1,0.4,0,0.9-0.1,1.3c-0.1,0.9,0.3,1.7,0.8,2.4c0.2,0.3,0.7,0.6,1.1,0.7c1.2,0.2,2.8-0.8,3.1-2
		c0.3-1.3,0.6-2.5,0.8-3.8c0.1-0.6,0.2-1.2-0.2-1.8c-0.3-0.1-0.7-0.2-1-0.3c-0.2-0.1-0.5-0.3-0.4-0.6c0-0.1,0.2-0.3,0.3-0.4
		c0.8,0,1.5-0.4,2.2-0.7c0.7-0.3,1.3-0.8,1.5-1.7c-0.4-1.7-0.4-1.6-1.6-2.9c-0.3-0.4-0.8-0.7-0.7-1.3c1.8-0.8,1.8-0.8,2.6-2.3
		c0.3-0.5,0.5-1.1,0.8-1.7c0.1-0.3,0.3-0.7,0.3-1c0.1-1.7-0.3-3.3-1.3-4.7c-0.4-0.6-1.3-0.9-2.1-0.6c-0.7,0.2-1.5,0.5-2.2,0.7
		c-0.1,0.3,0,0.6,0.3,0.7c0.4,0.2,0.8,0.3,1.2,0.4c-0.1,0.7,0,1.3-0.8,1.7c-1-0.3-2.2-0.3-3.3-0.1c-0.4,0.1-0.8,0.4-0.8,0.9
		c0,0.4,0,0.9,0,1.3c0,0.3,0.1,0.7,0.2,1c0.1,0.3,0.2,0.7,0.2,1c0.1,0.9-0.1,1.2-1.2,1.6c-0.1,0-0.2-0.1-0.2-0.1
		c-0.4-0.3-0.4-0.7-0.5-1.2c-0.3-1.6-1.3-2.6-2.4-3.6c-0.2-0.2-0.8-0.2-1,0c-0.2,0.2-0.6,0.5-0.7,0.8c-0.3,0.7-0.7,1.1-1.4,1.4
		c-0.8,0.3-1.5,0.8-2.1,1.5c-0.5,1.2-0.1,2.4-0.1,3.5c0.6,0.6,1.1,1,1.6,1.5c0.6,0,1.2,0.1,1.8,0.1s0.7-0.7,1.2-0.9
		c0.1,0,0.2-0.1,0.2-0.1c0,0.1,0.1,0.1,0.1,0.2c0,0.3,0,0.7,0,1c-0.3,1.3-0.2,2.6,0.3,3.9c0.1,0.1,0.3,0.3,0.5,0.5
		c0.6,0.7,1.4,1,2.3,1c0.7,0,1.4,0,2.1,0.1C63.6,112.9,63.7,113,63.9,113.2z M47,128.5l-0.1-0.2v0.2H47z"/>
	<path class="st0" d="M84.3,23.2c0.1,0.4-0.1,0.7-0.4,0.9c-0.9,0.5-1.8,1-2.9,1.5c-0.3,0-0.7-0.2-1.1-0.2c-0.5,0-1,0.3-1.4,0.6
		c-0.3,0.3-0.7,0.5-1,0.7c-0.3,0.8,0.1,1.5,0.3,2.1c0.2,0.6,0.7,0.8,1.2,0.4c0.3-0.2,0.5-0.4,0.9-0.6c0.2-0.1,0.5-0.2,0.8-0.1
		c0.2,0,0.5,0.2,0.6,0.3c0.1,0.2,0,0.5-0.1,0.7c-0.1,0.1-0.2,0.3-0.4,0.3c-1.2,0.4-1.6,1.5-2.2,2.5c-0.3,0.4-0.1,1,0.4,1.4
		c0.3,0.2,0.5,0.4,0.8,0.6c-0.1,0.2-0.2,0.4-0.3,0.4c-0.8,0.3-1.6,0.1-2.1-0.6c-0.4-0.7-0.4-1.5-0.1-2.3c0.2-0.5,0.7-0.8,0.7-1.3
		c-0.1-0.5-0.5-0.5-0.7-0.7c-1.1-0.7-1.4-1.8-0.9-2.9c0.6-1.4,1.6-2.5,3.1-3c0.3-0.1,0.7-0.1,0.9-0.5c-0.1-0.1-0.2-0.3-0.3-0.3
		c-1.2-0.2-2.4-0.3-3.6-0.4c-0.4,0-0.8,0.2-1.3,0.3c-0.3,0.4-0.6,0.8-1,1.2c-0.9,1-1.4,2.1-1.7,3.5c-0.3,1.8-1.1,3.5-1.9,5.1
		c-0.5,0.9-0.8,1.9-1.2,2.9c-0.5,1.2-1.1,2.4-1.6,3.6c-1,2.2-1.5,4.6-1.5,7.1c0,0.3,0.1,0.7,0.1,1c0.3,1.1,0.6,2.2,0.9,3.3
		c0.8,2.3,1.9,4.3,3.8,5.8c1,0.8,1.8,1.8,2.5,3c0.1,0.2,0.3,0.4,0.5,0.6c0.2,0.3,0.7,0.3,0.9,0c0.8-1.1,1.5-2.1,2.3-3.2
		c0.5-0.7,1-1.4,1.6-2.1c0.4-0.4,0.9-0.8,1.4-1.2c0.5-0.3,1-0.3,1.5-0.2c0.8,0.3,1.6,0.7,2.2,1.4c0.2,0.3,0.4,0.6,0.6,0.8
		c0.7,0.5,1,1.2,0.9,2c0,0.2,0.1,0.5,0.2,0.7c1.2,0.6,2.4,0.6,3.6,0.4c2.3-0.4,3.7,0.6,4.6,2.5c0.1,0.2,0.1,0.3,0.2,0.5
		c-0.1,0.5-0.1,1-0.2,1.5c-0.1,0.3-0.1,0.7-0.3,1c-1.2,1.5-1.8,3.3-2.6,5.1c-0.4,0.9-0.7,1.8-0.8,2.7c0,0.9-0.5,1.6-0.9,2.5
		c-0.7,0.3-1.4,0.7-2.1,1c-1.2,0.5-2.5,0.1-3.2-1c-0.6-0.8-0.8-1.6-1-3.3c-0.2-0.2-0.5-0.4-0.7-0.6c-1-0.7-1.2-1.6-0.9-2.8
		c0.1-0.5,0.2-1,0.4-1.5c-0.2-0.2-0.3-0.5-0.5-0.6c-1-0.8-0.8-1.9-0.4-2.9c0.5-1,1.3-1.9,2.3-2.4c0.3-0.2,0.6-0.3,0.8-0.5
		c0.4-0.4,0.4-0.9,0.5-1.3c0.1-0.9-0.1-1.7-0.8-2.4c-2.2-2.5-2.5-1.7-4.5-0.3c-0.2,0.1-0.4,0.4-0.4,0.6c-0.2,1.4-1.3,2.3-2.1,3.2
		c-0.7,0.8-1,1.6-1.1,2.6s-0.2,2.1,0.1,3.1c0.3,1,0.1,1.9-0.3,2.8c-1,2.4-2.2,4.7-4.5,6.2c-0.7,0.4-1.2,1-1.7,1.6
		c-1,1.3-1.9,2.7-2.8,4.1c-0.5,0.8-0.9,1.7-1.1,2.6c-0.1,0.3-0.2,0.7-0.3,1c-0.1,0.4-0.8,0.6-1.1,0.4c-1-0.9-2.3-1.6-3.4-2.4
		c-0.3-0.2-0.5-0.5-0.7-0.8c-0.2-0.2-0.1-0.8,0.1-1c0.4-0.3,0.8-0.7,1.2-1c1.3-0.7,2.6-1.4,4-2c1.2-0.5,2.1-1.1,2.9-2.1
		c0.7-0.9,1.5-1.7,2.3-2.5c1.6-1.5,2.5-3.6,2.9-5.7c0.3-1.7-0.1-3.5-1.2-4.9c-0.8-1-1.7-2-2.4-3.1c-0.4-0.6-0.9-1.1-1.1-1.8
		c-0.6-1.7-1.6-3.1-2.5-4.6c-0.8-1.4-1.5-2.9-1.6-4.6c-0.1-1.4-0.4-2.8-0.3-4.2c0.1-2.1-0.7-3.9-1.7-5.7c-0.4-0.8-1.1-1.3-2-1.7
		c-0.8-0.4-1.7-0.5-2.5-0.1c-0.2,0.9,0.9,1.2,1,2c0,0.8,0.2,1.5,0.3,2.3c0.1,0.8,0.1,1.6-0.3,2.4c-0.6,0.4-1.3,1-1.9,1.5
		c-0.9-0.2-1.1-0.9-1.2-1.6c-0.1-0.3,0.4-0.6,0.7-0.6c0.2,0,0.3,0.2,0.5,0.2c0.7,0.2,1.1,0,1.1-0.6c0.1-1.2-0.1-2.4-0.5-3.6
		c-0.1-0.4-0.6-0.8-0.9-0.8c-0.4,0-0.6,0.3-0.8,0.6c-0.1,0.1-0.1,0.1-0.2,0.1c-0.5,0.1-0.8-0.3-1-0.6c-0.3-0.5-0.7-0.8-1.2-0.9
		c-1.2-0.3-2.4,0.3-3,1.5c-0.1,0.3-0.2,0.7-0.2,1c-0.1,0.7,0.4,1.1,1.1,0.9c0.4-0.1,0.8-0.2,1.3-0.3c0.1,0,0.2,0.1,0.2,0.1
		c0,0.2,0.1,0.4,0,0.5c-0.2,0.2-0.4,0.3-0.6,0.5c-0.2,0.2-0.4,0.3-0.6,0.5c-0.3,0.7-0.3,1.4-0.2,2.1c0.1,0.5,0.8,0.9,1.2,0.7
		c0.5-0.2,0.9-0.4,1.4-0.6c0.1,0,0.3,0.2,0.3,0.3c0,0.3-0.1,0.5-0.1,0.8c-0.1,0.4-0.2,0.8-0.3,1.3c-0.1,0.6,0.5,1,1,0.8
		c0.3-0.1,0.6-0.3,1-0.3c0.1,0,0.2,0.2,0.4,0.4c-0.3,0.3-0.6,0.6-0.9,0.9c-0.9,0.6-2,0.5-2.5-0.5c-0.4-0.9-0.9-1.6-1.9-2
		s-1.3-1.3-1.4-2.3c0-0.2,0-0.4,0-0.5c0.1-0.6-0.1-1.2-0.5-1.7c-0.5-0.7-0.6-1.4-0.3-2.2c0.2-0.6,0.3-1.2,0.8-1.6
		c1.4-1.5,2.8-1.8,4.7-0.9c0.4,0.2,0.7,0.4,1,0.6c0.7,0,0.9-0.6,1.4-0.8c1.5-0.8,3-1,4.5-0.1c0.4,0.3,0.9,0.5,1.3,0.9
		c0.3,0.3,0.6,0.6,0.8,0.8c0.6,0.1,1-0.1,1.3-0.4c1.4-1.6,2.8-3.3,3.6-5.4c0.3-0.7,0.6-1.4,0.9-2.2c0.4-1.1,0.8-2.3,1.2-3.5
		c0.2-0.8,0.2-1.5,0-2.3c-0.4-1.2-0.7-2.3-1.1-3.5c-0.4-1.3-0.8-2.7-1.2-4c-0.6-1.7-0.5-3.4-0.2-5.2c0.4-2.3,0.8-4.6,1.4-6.9
		c0.1-0.4,0.3-0.8,0.4-1.2C70,1.6,70.4,0.7,71,0c0.5,0.1,0.7,0.5,0.7,0.9c0,0.3-0.1,0.7-0.2,1c-0.6,1.4-0.8,2.8-1.1,4.3
		c-0.2,1.2-0.3,2.4-0.3,3.6c0.1,1.6,0.2,3.1,0.3,4.7c0.2,2.3,1.1,4.3,2.1,6.3c0.2,0.1,0.3,0.1,0.4,0.1c1.1-0.1,2.3-0.4,3.3-0.3
		c1.1,0.1,2.2,0.3,3.4,0.3c0.9,0,1.7,0.2,2.4,0.9C82.8,23.2,83.6,23.4,84.3,23.2L84.3,23.2z M90.5,60.2c-0.4,0-0.7,0.5-1.1,0.6
		c-0.5,0.2-1,0.2-1.5,0.2c-1,0.1-2,0.6-3,0.8c-1.2,0.3-2,0.9-2.8,1.7c-0.4,0.5-0.5,1.1-0.1,1.7c0.3,0.4,0.7,0.5,1.1,0.5
		c0.6-0.1,1.1-0.5,1.8-0.2c0.1,0.1,0.3,0.2,0.3,0.4c0,0.1,0,0.4-0.1,0.5c-0.7,0.5-1.4,0.9-2.1,1.3c-0.3,0.9-0.4,1.6,0,2.3
		c0.9,0.4,1.6-0.8,2.6-0.3c-0.3,0.6-0.6,1.2-0.8,1.8c-0.4,1-0.2,1.9,0.3,2.7c0.5,0.9,1.8,1.1,2.5,0.4c0.3-0.3,0.6-0.7,0.8-1
		c0.3-0.4,0.1-1.1-0.4-1.3c-0.4-0.1-0.8-0.2-1.3-0.3c-0.1,0-0.2-0.3-0.2-0.4c0-0.2,0.1-0.4,0.2-0.4c0.5-0.2,1-0.3,1.4-0.6
		c1-0.7,1.7-1.7,2.4-2.7c0.1-0.1,0-0.4,0-0.5c-0.1-0.2-0.4-0.4-0.6-0.5c-0.6-0.5-0.7-0.8-0.5-1c0.3-0.4,0.8-0.3,1.2-0.2
		c0.2,0.1,0.5,0,0.8,0c0.2-0.2,0.3-0.4,0.4-0.6C93.3,62.3,93.2,61.8,90.5,60.2z"/>
	<path class="st0" d="M35,18.3c-0.1,0.2-0.3,0.4-0.4,0.6c-0.4,0.2-0.7-0.1-1-0.3c-0.7-0.4-1.5-0.4-2.3-0.2c-0.5,0.1-1,0.4-1.2,0.9
		c-0.4,0.8-0.8,1.5-1.1,2.3c-0.7,1.8-1.3,3.6-2,5.4c-0.1,0.2-0.2,0.5-0.2,0.7c0.1,1.4-0.6,2.7-0.8,4.1c-0.4,1.9-1.1,3.7-1.5,5.5
		c-0.4,1.9-1.4,3.5-2.1,5.3c-0.3,0.9-1.1,1.6-1.7,2.3c-0.7,0.9-1.6,1.6-2.2,2.6c-0.2,0.3-0.5,0.5-0.7,0.7c-1.1,1-2.3,1.9-3.3,3
		c-1.5,1.6-2.9,3.3-3.3,5.5c-0.4,1.8-0.6,3.6,0.2,5.4c0.3,0.7,0.5,1.5,0.7,2.2c0.6,1.8,1.4,3.3,2.5,4.8c1.2,1.6,2.6,3.1,4,4.4
		c0.3,0.3,0.6,0.6,0.9,0.9c0.9,0.9,1.5,1.9,1.5,3.2c0,0.5,0.1,1,0.2,1.6c-0.8,1.3-1.6,2.6-2.8,3.6c-0.5,0.4-0.7,1-0.9,1.5
		s-0.7,0.7-1,0.6c-0.4-0.2-0.7-0.6-0.7-1c0.3-1.7-0.2-3.3-0.1-4.9c0-0.5-0.2-1-0.3-1.5c-0.4-2.3-1.2-4.4-2.4-6.3
		c-1-1.7-1.8-3.6-2.9-5.2c-0.9-1.3-1.3-2.9-1.6-4.4c-0.6-2.7,0.3-5.2,1.7-7.4c0.7-1.1,1.4-2.2,2.4-3.1c0.9-0.8,1.5-2,2.6-2.5
		c1.4-1.5,2.7-3.2,3.8-5c0.2-0.4,0.4-0.9,0.4-1.2c-0.2-1,0.2-1.9,0.2-2.8c0-0.4,0-0.9,0-1.3c-0.6-2.8-1.1-5.6-2.5-8.2
		c-0.8-1.5-1.6-2.9-2.9-4c-0.3-0.2-0.5-0.5-0.8-0.6c-0.5-0.3-1-0.4-1.5-0.1s-0.7,0.8-0.7,1.3c0,0.7,0.1,1.4,0.2,2
		c0.1,0.7,0.2,1.4,0.1,2.1c0,0.4-0.1,0.9-0.2,1.3c-0.2,0.8,0.5,1.5,0.1,2.3c-0.3,0.7-0.8,1.3-1,2.1c-0.2,1.1-1,2-1.8,2.8
		c-0.5,0.5-1.1,0.7-1.7,0.4c-0.7-0.3-1.3-0.4-2-0.4c-0.2,0-0.5-0.1-0.7-0.2c-1.1-0.7-2.4-1.1-3.1-2.2c-0.4-1.1,0.5-1.8,0.6-2.7
		c-0.1-0.2-0.2-0.4-0.3-0.5c-1.5-1.1-1.6-2.6-1.2-4.2c0.3-1.1,1-2,1.6-2.9c-0.2-0.5-0.3-0.9-0.4-1.4c0.3-0.6,0.7-1.3,1.1-2
		C3,22.4,3.7,22,4.6,21.9c1.3-0.2,2.4,0,3.4,0.9c0.7,0.6,1.4,1.1,2,1.5c0.6,0.1,0.5-0.6,0.9-0.5c0.2,0,0.4,0.3,0.7,0.5
		c0.1,0,0.2,0.1,0.4,0.1c0.9-0.3,1.6-0.2,2.5,0.3c2.2,1.3,3.6,3.3,4.7,5.5c0.7,1.4,1.5,2.7,1.7,4.3c0.1,0.5,0.5,0.9,0.8,1.3
		c0.4,0.4,1,0.4,1.3-0.1c0.1-0.2,0.3-0.4,0.4-0.7c0.9-2.5,1.3-5.1,1.1-7.7c-0.2-2.3,0-4.7-0.4-7c-0.2-1.8,0.2-3.6,0.4-5.4
		c0.4-3.3,1.7-6.2,3.4-8.9c0.1-0.2,0.4-0.3,0.6-0.4c0.5,0.4,0.4,1,0.6,1.6c-0.1,0.3-0.2,0.6-0.3,0.9c-1,1.9-1.6,3.8-2.1,5.9
		c-0.3,1-0.6,2-0.7,3c0,1.1,0.2,2.2,0.4,3.3c0,0.2,0.3,0.4,0.4,0.6c1.2-0.5,2.1-1.1,2.6-2.4c0.4-1,1.3-1.6,2.3-2
		c0.7,0.2,1.5,0.3,2.3,0.5c0.2,0.3,0.4,0.7,0.7,1C34.5,18.3,34.8,18.3,35,18.3L35,18.3z M9.9,26.1c-1.1-0.4-1.7-1.2-2.5-1.9
		c-1.6-1.5-2.7-1.4-4,0c-0.1,0.1-0.1,0.1-0.2,0.2c-0.5,0.4-0.5,0.9-0.2,1.5c0.7,0.3,1.4,0.6,2.1,0.9c0.1,0.1,0.2,0.3,0.2,0.4
		c0,0.1-0.2,0.3-0.3,0.4c-0.4,0.1-0.8,0.2-1.2,0.3c-0.5,0.1-1,0.1-1.6,0.7c-0.2,1-0.9,2-1,3.3c0,0.2,0.1,0.5,0.1,0.8
		c0.4,0.2,0.8,0.3,1.2,0.5c0.7-0.3,1.1-1,1.8-1.1c0.1,0,0.2,0,0.2,0c0.1,0.1,0.2,0.4,0.1,0.4c-1,1-1.1,2.3-1.8,3.4
		c-0.3,0.6-0.2,1.1,0.4,1.6c1.2,1.2,1.3,1.2,2.1-0.3c0.1-0.1,0.2-0.3,0.3-0.4c0.2-0.3,0.7-0.2,0.9,0c0.4,0.5,0.1,1.2,0.9,1.6
		c0.8-0.2,1.4-0.8,2-1.4c0.2-0.2,0.2-0.8,0-1c-0.4-0.4-0.7-0.7-1.1-1.1C8,34.6,8.1,34,8.6,33.8c0.4-0.1,0.8-0.1,1.3-0.2
		C9.6,33.3,9.3,33,9,32.7c-0.2-0.3-0.4-0.7-0.1-0.9c0.7-0.5,0.9-1.3,1-2.1C10,28.6,10.3,27.5,9.9,26.1z"/>
	<path class="st0" d="M50.5,55.2c-0.6-0.1-1.2,0.2-1.8-0.2c-0.6-0.4-1.1-0.4-1.7-0.2c-1.2,0.4-2.3,0.9-2.8,2.1
		c-0.2,0.4-0.5,0.7-0.8,1c0,0.2-0.1,0.3-0.1,0.5c-0.3,1.6,0.2,2.8,1.2,4c2,2.3,3.2,4.9,3.9,7.8c0.2,1.1,0.8,1.9,1.5,2.7
		c0.2,0.3,0.4,0.5,0.7,0.8c-0.2,0.3-0.3,0.7-0.6,0.9c-1.2,1.1-2.4,2.3-3.6,3.3c-0.6,0.5-0.9,1-1.3,1.6c-0.2,0.3-0.5,0.5-0.8,0.7
		c-0.1,0.1-0.4,0-0.5,0c-0.1-0.1-0.3-0.3-0.2-0.4c0-0.3,0.1-0.7,0.2-1c0.6-1.3,0.9-2.6,1.3-3.9c0.2-0.7,0.2-1.4,0-2.1
		c-0.8-2.2-1.2-4.5-2.3-6.6c-0.5-1-0.8-2.1-1.3-3.1c-0.3-0.6-0.5-1.3-0.9-1.9c-1-1.4-1.6-3.1-2.3-4.6c-0.1-0.2-0.1-0.5-0.3-0.7
		c-0.6-0.5-0.7-1.2-0.6-1.9c0.1-1.2-0.2-2.2-0.6-3.3c-0.7-0.3-1.3-0.6-2-0.8c-0.4-0.1-0.8-0.2-1.3-0.2c-1.3-0.1-2.2,0.8-2.2,2
		c0,0.7-0.1,1.4,0.2,2.1c0.4,1.2,0.2,2.2-0.2,3.3V57c-1.7-0.5-3.2-0.1-4.7,1c-0.1,0.4-0.3,0.9-0.5,1.4c-0.4,1-0.1,1.9,0.2,2.8
		c0.3,0.7,1.2,1,2,0.7c0.2-0.1,0.3-0.2,0.4-0.3c0.4-0.1,0.8,0.1,0.8,0.4c0,0.6-0.1,1.2,0,1.8c0,0.3,0.1,0.7,0.1,1
		c0.1,0.5,0.7,0.9,1.2,0.8c0.8-0.2,1.7-0.4,2.5-0.6c0.4-0.1,0.8-0.5,1.1,0c0.2,0.4-0.3,0.6-0.5,0.8c-0.3,0.4-0.4,0.8-0.1,1.2
		c0.2,0.4,0.3,0.8,0.8,1c0.7,0.1,1.1-0.3,1.6-0.7c0.4-0.3,0.7-0.8,0.7-1.3c0.1-1,0.2-2.1-0.3-3.1c0-0.1-0.1-0.1-0.1-0.2
		c-0.1-0.2,0.1-0.6,0.3-0.6s0.3,0.1,0.4,0.2c0.4,0.3,0.5,0.9,0.7,1.4c0.2,0.6,0.5,1.1,0.8,1.8c-0.2,0.6-0.3,1.3-0.5,2
		c-0.2,0.7-0.7,1.2-1.5,1.4c-0.2,0.1-0.3,0.1-0.5,0.2c-2.3,0.5-2.8,0.9-4.2-1.7c-0.1-0.2-0.3-0.4-0.3-0.6c-0.6-0.5-1.1,0-1.6,0
		c-0.7,0-1.2-0.1-1.6-0.7c-0.5-0.6-0.9-1.2-0.9-2.1c0-0.7-0.4-1.2-1-1.4c-1-0.4-1.5-1.2-2.1-1.9c-0.7-0.8-0.7-2.1,0-2.9
		c1-1.3,2.1-2.5,3.9-2.7c0.8-0.1,1.4-0.9,1.3-1.7c-0.1-0.6-0.2-1.2-0.3-1.8c0-0.3-0.1-0.7,0-1c0.5-2.4,2.1-3.5,4.4-3
		c0.8,0.2,1.5,0.6,2.2,0.8c0.3,0.1,0.6,0.3,0.9,0.4c0.4-0.2,0.7-0.4,0.8-0.8c0.2-1.2,0.7-2.3,1.3-3.4c0.4-0.8,0.6-1.6,0.9-2.4
		c0.8-2.9,1.2-5.8,1.1-8.8c0-1,0-2.1,0.1-3.1c0-0.3,0.2-0.6,0.4-1c0.7,0.1,1.2,0.7,2,0.6c0.7,1.8,0.6,3.6,0.2,5.4
		c-0.3,1.3-0.6,2.5-0.9,3.8c-0.3,1.2-0.5,2.4-0.9,3.5c-0.3,0.9-0.6,1.8-0.6,2.8c0,0.3-0.1,0.7-0.3,1c-0.7,1.2-0.8,2.5-0.7,3.8
		c0.1,1.4,0.2,2.8,0.4,4.4c0.5,0.6,0.6,1.5,1.4,2.2c0.9-1.1,1.7-2,2.5-3c0.9-1.1,2-1.3,3.3-1.3c0.4,0,0.8,0.3,1.2,0.5
		C49.6,54.3,50,54.8,50.5,55.2L50.5,55.2z"/>
	<path class="st0" d="M35.1,18.4c0.6-0.4,0.6-1,0.6-1.6c0.1-1,0.7-1.5,1.6-1.8h-0.1c0.2-0.5,0.4-0.9,0.6-1.4
		c0.4-1.1,1.3-1.6,2.4-1.7c0.6,0,1.3,0,1.8,0.2c1.2,0.7,2.4,0.8,3.9,1c0.7-0.4,1.6-0.7,2.6-0.9c0.9-0.2,1.6,0,2.1,0.7
		c0.7,1.1,1.4,2.2,2.1,3.3c-0.2,0.3-0.4,0.6-0.6,0.8c-0.8,0.8-1.7,1.5-2.5,2.2c0.1,0.3,0.2,0.6,0.2,0.8c0,0.2,0,0.7-0.2,0.7
		c-1.2,0.4-1.8,1.3-2.1,2.5c-1.9,0.8-3.5,0.5-5-0.8c-0.7-0.2-1.2,0.2-1.8,0.3c-1.1,0.2-1.9-0.1-2.3-1.2c-0.3-0.6-0.6-1-1.2-1.2
		c-0.4-0.1-0.7-0.5-0.9-0.9C35.7,19.1,35.4,18.7,35.1,18.4L35.1,18.4z M48.6,13.6c-0.2,0.1-0.5,0.2-0.8,0.3
		c-0.8,0.4-1.6,0.7-2.5,0.5c-0.3-0.1-0.5-0.1-0.8-0.1c-1,0.3-1.9,0-2.7-0.6c-0.9-0.6-1.8-0.6-2.7-0.1c-0.2,0.5-0.5,1.1-0.7,1.7
		c-0.2,0.4,0.4,0.8,0.1,1.2c-0.3,0-0.7,0.1-1,0.1c-0.3,0.6-0.2,1.2-0.1,1.8c0.1,0.4,0.3,0.6,1,0.5c0.2,0,0.3,0,0.6,0
		c0.3,0.7,0.6,1.4,0.9,2.1c0.2,0.5,0.9,0.6,1.4,0.3c0.5-0.3,0.9-0.8,1.4-1.2c0.8,0.6,1,1.6,1.7,2.4c0.5,0,1,0.3,1,0.2
		c2.4-1.8,2.9-4.2,4.3-6.1c0.7,0,1.5,0.4,1.7-0.7c-0.2-0.7-0.9-0.7-1.4-1.1C49.4,14.6,49.4,13.8,48.6,13.6z"/>
	<path class="st0" d="M84.4,23.3c0.4-0.3,0.8-0.7,1.3-0.8c2.2-0.7,4.1,0.8,4.5,2.4c0.3,1.5,0.3,2.7-0.8,3.8
		c-0.2,0.2-0.4,0.5-0.6,0.7c0,0.2,0,0.3,0,0.4c0.9,1.3,1.1,2.5-0.1,3.8c-0.2,0.2-0.2,0.7-0.4,1c-0.6,1-1.3,2.1-2.6,2.4
		c-1.2,0.3-2.1,1.3-2.9,2.1c-0.5,0.2-0.9,0-1.3-0.1c-0.2,0-0.3-0.2-0.4-0.3c-0.5-0.9-1-1.9-0.8-2.9c0.2-1.2,0.7-2.3,1.6-3.2
		c0,0,0.2-0.1,0.2,0c0.1,0.1,0.3,0.2,0.3,0.3c0.1,0.8-0.5,1.3-1,1.7c0.3,0.7-0.4,1.6,0.4,2.1c0.1,0,0.3,0,0.3,0
		c0.3-0.3,0.5-0.7,0.7-1.1c0.2,0,0.3-0.1,0.5-0.1c0.3,0,0.7,0.1,1,0.2c0.9,0.3,1.7-0.1,2.3-0.6c0-0.5-0.4-0.6-0.6-0.8
		c-0.2-0.3-0.2-0.8,0.1-0.9c0.6-0.3,1.3-0.4,1.8-1c0.2-0.3,0.3-0.9-0.1-1.2c-0.2-0.2-0.4-0.3-0.6-0.5c-0.2-0.2-0.5-0.3-0.7-0.4
		c-0.8-0.6-0.8-1.3,0.1-1.5c1-0.3,1.6-1,2-1.9c0.8-1.5-0.3-3.4-1.9-3.5C86.1,23.3,85.2,23.3,84.4,23.3L84.4,23.3z"/>
	<path class="st0" d="M50.4,55.2c0.5,0,1-0.1,1.6-0.1c0.5,0,1.1,0.1,1.5,0.3c1.2,0.6,2.3,1.2,3.4,1.9c0.7,0.4,1,1.1,0.9,2
		c-0.1,0.4-0.1,1-0.3,1.2c-0.7,0.7-0.7,1.5-0.7,2.4c0,0.3-0.1,0.5-0.1,0.8c-0.2,0.9-1.3,1.4-2.1,1c-0.5-0.3-1-0.6-1.6-0.9
		c-0.6,0.1-1.1,0.3-1.7,0.3c-0.5,0-1-0.3-1.5-0.4c-0.7-0.3-0.9-0.7-0.9-1.6c0-0.3,0-0.5,0-0.7c-0.3-0.7-1-0.8-1.4-1.2
		c-0.5-0.5-0.6-1-0.4-1.7c0.1-0.3,0.2-0.7,0.5-0.9c0.7-0.8,1.3-1.6,2.5-1.8C50.1,55.6,50.3,55.3,50.4,55.2L50.4,55.2z M52.1,55.9
		c-0.8,0.3-1.5,0.6-2.2,1c-0.9,0.5-1.3,1.3-1.2,2.4c0,0.6,0.5,1,1,0.9c0.5-0.1,1-0.4,1.3,0.1c-0.2,0.7-0.5,1.3-0.7,2
		c-0.1,0.3,0.3,0.7,0.6,0.7s0.7,0,1-0.1s0.5-0.4,0.8-0.6c0.4,0.1,0.8,0.2,1.2,0.3c0.4,0.1,0.7,0.6,1.1,0.1c0.2-0.7-0.6-1.1-0.4-1.8
		c0.3-0.2,0.6-0.5,0.9-0.8c0.8-0.7,0.9-1.3,0.1-2s-1.6-1.3-2.5-1.9C53,56,52.5,56,52.1,55.9z"/>
	<path class="st0" d="M31.3,57.1c0.9-0.8,1.9-1.5,3.1-1.6c1-0.1,1.8,0.2,2.2,1.1c0.3,0.7,0.8,1.3,1.3,1.9c0.8,1,0.5,2.6-0.5,3.5
		c-0.2,0.2-0.4,0.3-0.6,0.5c-0.5,0.3-1,0.2-1.4-0.1c-0.2-0.2-0.4-0.4-0.3-0.7c0.1-0.1,0.2-0.3,0.4-0.3c0.3-0.1,0.7-0.1,1-0.1
		c0.5-0.5,0.7-1,0.5-1.7c-0.2-0.5-0.3-1-1-1.1c-0.6-0.1-0.8-0.4-1.1-1c-0.3-0.6-0.6-0.8-1.2-0.7c-0.3,0.1-0.7,0.2-1,0.3
		C32.3,57.5,31.8,57.2,31.3,57.1L31.3,57.1z"/>
	<path class="st0" d="M68.6,86.4c-0.3-0.3-0.3-0.5-0.2-0.7c0.3-0.3,0.6-0.6,0.9-0.9c1.6-1.4,3.1-3,5-4.1c0.8-0.5,1.7-0.8,2.6-1.2
		c0.3-0.1,0.7,0.1,0.7,0.6c-0.6,0.4-1.4,0.6-2.1,0.8c-0.5,0.1-1,0.4-1.2,0.9C74,82.4,73.6,82.7,73,83c-0.2,0.1-0.5,0.3-0.7,0.4
		c-1.2,0.6-2.2,1.3-3,2.4C69.2,86,68.9,86.2,68.6,86.4z"/>
	<path class="st0" d="M29.5,138.8c0.2-0.3,0.3-0.5,0.5-0.7c1.7-1.1,3.2-2.3,4.6-3.7c0.4-0.4,0.9-0.8,1.4-1.1
		c0.3-0.2,0.6-0.3,0.8-0.5c0.4,0.2,0.5,0.4,0.4,0.6c-0.1,0.3-0.3,0.7-0.6,0.8c-1.4,1-2.5,2.3-4.1,3.1c-0.8,0.4-1.6,1.1-2.4,1.5
		C30.1,139,29.8,138.8,29.5,138.8z"/>
	<path class="st0" d="M27.3,81.9c0,0.7-0.4,1.4-0.9,1.8c-1.4,1.2-2.5,2.6-3.5,4.4c-0.1-0.5-0.2-0.8-0.2-1c0.1-0.4,0.2-0.9,0.4-1.2
		c1-1.5,2.2-2.9,3.7-4C27,81.9,27.2,82,27.3,81.9L27.3,81.9z"/>
	<path class="st0" d="M52.8,138.2c0.1,0.3,0.2,0.7-0.1,0.9c-0.9,0.8-1.8,1.6-2.7,2.4c-0.9,0.7-1.7,1.4-2.6,2c-0.2,0.1-0.5,0-0.7,0
		l0.1,0.1C48.7,141.8,50.8,140,52.8,138.2L52.8,138.2z"/>
	<path class="st0" d="M33.6,143.7c0.1-0.5,0.4-0.7,0.7-1c0.7-0.5,1.6-0.9,2.3-1.6c0.1-0.2,0.5-0.1,0.7-0.2c0.1,0,0.2,0.1,0.2,0.1
		c0,0.1,0,0.2,0,0.2c-0.9,0.7-1.8,1.5-2.8,2.2C34.4,143.7,34,143.8,33.6,143.7L33.6,143.7z"/>
	<path class="st0" d="M58.8,133.7c0-0.6,0.4-0.9,0.8-1.3c0.4-0.3,0.8-0.6,1.2-0.9c0.3-0.3,0.5-0.7,0.9-0.8c0.1,0.1,0.3,0.3,0.2,0.4
		c-0.7,1.1-1.6,2-2.7,2.6C59.1,133.8,58.9,133.7,58.8,133.7L58.8,133.7z"/>
	<path class="st0" d="M48.3,79.8c-0.4,1.2-0.9,1.9-1.6,2.5c-0.1,0.1-0.3,0.1-0.5,0.1c-0.1,0-0.2,0-0.2-0.1c-0.1-0.1-0.1-0.3-0.1-0.4
		s0-0.2,0.1-0.2C46.6,80.9,47.3,80.2,48.3,79.8L48.3,79.8z"/>
	<path class="st0" d="M77.1,83.5c0.1-0.2,0.1-0.4,0.2-0.4c0.8-0.6,1.8-1.1,2.8-1.3L80,81.7c0,0.1,0,0.2,0,0.2
		c-0.7,0.6-1.5,1.3-2.5,1.5C77.4,83.5,77.2,83.5,77.1,83.5L77.1,83.5z"/>
	<path class="st0" d="M74.4,85c0-0.2,0-0.4,0.1-0.5c0.7-0.7,1.5-1.2,2.5-1v-0.1c0,0.1,0,0.2-0.1,0.2C76.3,84.4,75.5,84.9,74.4,85
		L74.4,85z"/>
	<path class="st0" d="M55.6,136.4c1-1.2,1.6-1.8,2.6-2.1l0.1,0.1c-0.1,0.2-0.1,0.5-0.3,0.7c-0.6,0.5-1.2,0.9-1.9,1.3
		C56,136.4,55.8,136.3,55.6,136.4L55.6,136.4z"/>
	<path class="st0" d="M27.4,77.8c-0.2-0.5,0-1,0.4-1.3c0.1-0.1,0.5-0.1,0.7-0.1c0.1,0,0.2,0.2,0.3,0.4c0.1,0.3,0,0.5-0.2,0.7
		C28.2,77.7,27.8,77.7,27.4,77.8L27.4,77.8z"/>
	<path class="st0" d="M55.1,136.9c-0.4,0.4-0.7,0.9-1.2,1.3c-0.3,0.3-0.8,0.3-1.2,0l0,0c0.4-0.3,0.9-0.5,1.2-0.9
		C54.4,137,54.7,136.8,55.1,136.9L55.1,136.9z"/>
	<path class="st0" d="M19.6,88.8c-0.1,0.7,0,1.4-0.9,1.7c-0.4-0.4-0.3-0.8-0.1-1.1C18.9,89,19.1,88.6,19.6,88.8L19.6,88.8z"/>
	<path class="st0" d="M21.6,85.6c-0.1,1-0.5,1.8-1.6,2.1h0.1C20.2,86.7,20.7,85.9,21.6,85.6L21.6,85.6z"/>
	<path class="st0" d="M23.2,83.5c-0.2,0.9-0.7,1.7-1.6,2h0.1C21.7,84.6,22.3,83.9,23.2,83.5L23.2,83.5z"/>
	<path class="st0" d="M52.1,76.3c0-0.2-0.1-0.4-0.1-0.5c0.3-0.6,0.7-1.2,1.5-1.1l-0.1-0.1c0,0.5-0.2,0.8-0.6,1.1
		C52.6,75.8,52.3,76,52.1,76.3L52.1,76.3z"/>
	<path class="st0" d="M54,74c0.1-0.4,0.5-0.6,0.8-0.8c0.1-0.1,0.3,0.1,0.4,0.1c0,0,0,0.1,0,0.2C54.9,73.8,54.5,74.2,54,74L54,74z"/>
	<path class="st0" d="M26.3,79.2c0.2-0.6,0.4-1.3,1.2-1.5l-0.1-0.1c-0.1,0.5-0.4,1-0.7,1.3C26.6,79.1,26.3,79.1,26.3,79.2L26.3,79.2
		z"/>
	<path class="st0" d="M23.2,83.6c0-0.7,0.5-1.2,0.9-1.7H24C24.3,82.6,23.6,83,23.2,83.6L23.2,83.6z"/>
	<path class="st0" d="M74.5,85.1c-0.1,0.7-0.4,1-1.1,1l0,0C73.5,85.3,73.5,85.2,74.5,85.1L74.5,85.1z"/>
	<path class="st0" d="M50.4,77.7c-0.2,1-0.2,1-1,1v0.1c-0.1-0.3,0-0.5,0.2-0.6C49.8,78,50.1,77.7,50.4,77.7L50.4,77.7z"/>
	<path class="st0" d="M48.3,79.8c0.1-0.9,0.2-0.9,1.1-1v-0.1C49,79.4,48.8,79.6,48.3,79.8L48.3,79.8z"/>
	<path class="st0" d="M26.2,79.2c0,0.2,0,0.4,0,0.6c0,0.1-0.2,0.1-0.3,0.1c0-0.1-0.1-0.2,0-0.2C26,79.6,26.1,79.4,26.2,79.2
		L26.2,79.2z"/>
	<path class="st0" d="M52.8,79.1c0.2,0.9,0.2,1-0.9,1.2l0,0C51.9,79.7,52.5,79.5,52.8,79.1L52.8,79.1z"/>
	<path class="st0" d="M80.1,81.8c0.3-0.1,0.6-0.2,0.9-0.3c0.1,0,0.2,0,0.2,0.1c0.1,0.2,0,0.3-0.2,0.3C80.7,81.8,80.3,81.8,80.1,81.8
		L80.1,81.8z"/>
	<path class="st0" d="M49.9,83c-0.1,0.2-0.3,0.4-0.4,0.5c-0.1,0.1-0.2,0-0.4-0.1c0.1-0.1,0.1-0.3,0.2-0.4C49.5,83,49.7,83,49.9,83
		L49.9,83z"/>
	<path class="st0" d="M33.6,143.6c0.2,0.3,0.1,0.6-0.2,0.9c-0.1,0.1-0.3,0-0.5,0c0,0,0-0.1,0-0.2C33,143.9,33.2,143.7,33.6,143.6
		L33.6,143.6z"/>
	<path class="st0" d="M45.5,144.5c0.4-0.3,0.7-0.6,1.1-0.9l-0.1-0.1C46.6,144.4,46.5,144.5,45.5,144.5L45.5,144.5z"/>
	<path class="st0" d="M45.5,144.5c0,0.2,0,0.5-0.1,0.7c-0.1,0.4-0.4,0.6-0.9,0.5l0.1,0.1c0.2-0.2,0.4-0.4,0.5-0.6
		C45.3,144.9,45.4,144.7,45.5,144.5L45.5,144.5z"/>
	<path class="st0" d="M54.3,79c-0.5,0-1,0.5-1.5,0.1l0,0C53.3,78.8,53.8,79.1,54.3,79L54.3,79z"/>
	<path class="st0" d="M27.8,81.3c0-0.1,0.1-0.2,0.1-0.2c0.1-0.2,0.3-0.2,0.4-0.1c0,0,0.1,0.2,0,0.2c0,0.1-0.1,0.2-0.2,0.1
		C28.1,81.4,27.9,81.3,27.8,81.3L27.8,81.3z"/>
	<path class="st0" d="M49.9,83c-0.2-0.5,0-0.8,0.4-1.1l-0.1-0.1C50.3,82.3,50.4,82.7,49.9,83L49.9,83z"/>
	<path class="st0" d="M72.9,86.6c0,0.2,0,0.3,0,0.5c-0.1,0.2-0.2,0.3-0.3,0.1c-0.1-0.1-0.1-0.1-0.1-0.2
		C72.4,86.7,72.6,86.6,72.9,86.6L72.9,86.6z"/>
	<path class="st0" d="M19.7,88.9c-0.2-0.8-0.2-0.8,0.4-1.2H20C20.1,88.1,20,88.5,19.7,88.9L19.7,88.9z"/>
	<path class="st0" d="M53.6,74.6c-0.1-0.4,0.1-0.5,0.5-0.6L54,73.9C54.1,74.4,53.9,74.5,53.6,74.6L53.6,74.6z"/>
	<path class="st0" d="M52,76.2c-0.2,0.2-0.4,0.3-0.6,0.5l0.1,0.1C51.5,76.3,51.7,76.2,52,76.2L52,76.2z"/>
	<path class="st0" d="M50.9,77.2c0-0.4,0.1-0.6,0.6-0.5l-0.1-0.1C51.4,77,51.3,77.2,50.9,77.2L50.9,77.2z"/>
	<path class="st0" d="M50.9,77.2c0,0.4-0.2,0.5-0.5,0.6l0.1,0.1C50.4,77.4,50.6,77.2,50.9,77.2L50.9,77.2z"/>
	<path class="st0" d="M54.3,79C54.3,78.9,54.3,78.7,54.3,79C54.2,78.8,54.2,78.9,54.3,79L54.3,79z"/>
	<path class="st0" d="M51.5,80.9c-0.1-0.4,0.1-0.6,0.5-0.5l0,0C52,80.7,51.8,80.8,51.5,80.9L51.5,80.9z"/>
	<path class="st0" d="M24.8,81.4c0-0.1,0.1-0.2,0.1-0.2C25.1,81.2,25,81.3,24.8,81.4L24.8,81.4z"/>
	<path class="st0" d="M51.4,80.8c0,0.3-0.2,0.5-0.5,0.5l0.1,0.1C51,81.1,51.1,80.9,51.4,80.8L51.4,80.8z"/>
	<path class="st0" d="M24.7,81.3c-0.1,0.4-0.3,0.5-0.7,0.5h0.1C24.3,81.7,24.6,81.5,24.7,81.3L24.7,81.3z"/>
	<path class="st0" d="M27.4,81.9c-0.1-0.4,0.2-0.5,0.5-0.6l-0.1-0.1C28,81.7,27.7,81.9,27.4,81.9L27.4,81.9z"/>
	<path class="st0" d="M50.9,81.3c-0.1,0.3-0.3,0.5-0.6,0.5l0.1,0.1C50.5,81.6,50.6,81.4,50.9,81.3L50.9,81.3z"/>
	<path class="st0" d="M73.4,86.1c0,0.3-0.2,0.5-0.5,0.5l0,0C72.9,86.3,73,86.1,73.4,86.1L73.4,86.1z"/>
	<path class="st0" d="M24.2,113.3c0-0.1,0.1-0.1,0.1-0.2C24.5,113.2,24.4,113.3,24.2,113.3L24.2,113.3z"/>
	<path class="st0" d="M58.2,134.2c0-0.4,0.2-0.5,0.6-0.5l0,0C58.9,134.1,58.6,134.3,58.2,134.2L58.2,134.2z"/>
	<path class="st0" d="M55.2,136.9c-0.1-0.4,0.1-0.6,0.5-0.6h-0.1C55.7,136.7,55.4,136.8,55.2,136.9L55.2,136.9z"/>
	<path class="st0" d="M44.1,146.3c0.2-0.2,0.3-0.4,0.5-0.6l-0.1-0.1C44.5,146,44.5,146.2,44.1,146.3L44.1,146.3z"/>
	<path class="st0" d="M43.6,146.8c0-0.4,0.2-0.5,0.5-0.5l-0.1-0.1C44.1,146.6,43.9,146.8,43.6,146.8L43.6,146.8z"/>
	<path class="st0" d="M43.6,146.8c0.1,0.4-0.1,0.5-0.4,0.6l0.1,0.1C43,147,43.2,146.8,43.6,146.8L43.6,146.8z"/>
	<path class="st0" d="M42.7,148c0-0.3,0.1-0.6,0.5-0.5l-0.1-0.1C43,147.5,42.8,147.7,42.7,148L42.7,148z"/>
	<path class="st0" d="M42.6,147.9c-0.2,0.2-0.4,0.3-0.6,0.5l0,0C42.1,148,42.4,147.9,42.6,147.9L42.6,147.9z"/>
	<path class="st0" d="M42,148.4h-0.1C42,148.5,42,148.5,42,148.4L42,148.4z"/>
	<polygon class="st0" points="40.6,150 40.6,149.8 40.5,150 	"/>
	<path class="st0" d="M40.5,150c-0.3-0.2-0.6-0.2-0.7,0.3v0.1C40.1,150.4,40.4,150.2,40.5,150L40.5,150z"/>
	<path class="st0" d="M39.8,150.3L39.8,150.3L39.8,150.3z"/>
	<path class="st0" d="M38.5,152.1l0.1-0.2L38.5,152.1z"/>
	<path class="st0" d="M38,152.7c0-0.3,0.2-0.5,0.5-0.6h-0.1C38.3,152.3,38.1,152.5,38,152.7L38,152.7z"/>
	<path class="st0" d="M37.2,153c0.2-0.3,0.5-0.4,0.8-0.3h-0.1C37.7,152.8,37.5,152.9,37.2,153L37.2,153z"/>
	<path class="st0" d="M37.2,153c-0.2,0.3-0.2-0.2-0.1,0.1C37.2,153.2,37.3,153.2,37.2,153L37.2,153z"/>
</g>
</svg>
