<?xml version="1.0" encoding="utf-8"?>
<!-- Generator: Adobe Illustrator 16.0.0, SVG Export Plug-In . SVG Version: 6.00 Build 0)  -->
<!DOCTYPE svg PUBLIC "-//W3C//DTD SVG 1.1//EN" "http://www.w3.org/Graphics/SVG/1.1/DTD/svg11.dtd">
<svg version="1.1" id="Layer_1" xmlns="http://www.w3.org/2000/svg" xmlns:xlink="http://www.w3.org/1999/xlink" x="0px" y="0px"
	 width="250.2px" height="84.9px" viewBox="0 0 250.2 84.9" style="enable-background:new 0 0 250.2 84.9;" xml:space="preserve">
<style type="text/css">
<![CDATA[
	.st0{fill:#010101;}
]]>
</style>
<g id="content">
	<path class="st0" d="M61.4,9.8c0.5-0.1,1,0,1.5,0.4c0.4,0.3,0.9,0.6,0.9,1.2l0.1-0.1C62.7,11.2,62,10.8,61.4,9.8L61.4,9.8z"/>
	<path class="st0" d="M56.6,4.2c0.8,0,1.6,0,2.4,0.1c0.4,0,0.7,0.3,0.8,0.7l0.1-0.1c-1.1,0.3-2.2,0-3.3,0L56.7,5
		C56.7,4.7,56.7,4.4,56.6,4.2L56.6,4.2z"/>
	<path class="st0" d="M70.3,11.3c-0.9-0.2-1.5-0.7-1.6-1.6l-0.1,0.1c1.5,0.1,1.5,0.2,1.6,1.6L70.3,11.3z"/>
	<path class="st0" d="M80.8,14.5c-0.4,0-0.7,0-1.1,0s-0.6-0.3-0.6-0.7l0,0c0.7,0,1.3,0,1.5,0.9L80.8,14.5z"/>
	<path class="st0" d="M75.1,13.8c0.4,0,0.7,0.1,1.1,0.1c0.1,0,0.3,0.2,0.3,0.2c-0.1,0.3-0.3,0.3-0.6,0.3
		C75.5,14.3,75.2,14.1,75.1,13.8L75.1,13.8z"/>
	<path class="st0" d="M75.1,13.7c-0.4,0-0.7,0-1.1,0c-0.4-0.1-0.5-0.4-0.5-0.8L73.4,13c0.4,0,0.7,0,1.1,0c0.4,0.1,0.5,0.4,0.5,0.8
		L75.1,13.7z"/>
	<path class="st0" d="M79.1,13.8c-0.7-0.1-0.7-0.1-0.7-0.9L78.3,13C78.8,13,79.1,13.2,79.1,13.8L79.1,13.8z"/>
	<path class="st0" d="M78.4,12.9c-0.7-0.1-0.7-0.1-0.8-0.8l0,0C78.1,12.1,78.3,12.5,78.4,12.9L78.4,12.9z"/>
	<path class="st0" d="M71.9,7.3c-0.3,0.1-0.5,0-0.6-0.2c-0.1-0.2,0-0.4,0.3-0.3C71.9,6.9,72,7.1,71.9,7.3L71.9,7.3z"/>
	<path class="st0" d="M11.8,69.1c0-0.7,0.5-1.1,0.7-1.7l0,0c1.1-0.5,2.2-1,3-1.4c1.3-0.1,2.4-0.2,3.5-0.3c1.2-0.7,2.8-0.9,3.9-2
		c0-0.5,0.1-1,0.1-1.5c0-0.9-0.1-1.9-0.1-2.8c0.1-1-0.1-1.8-0.6-2.7c-0.2-0.4,0-1.1,0.4-1.4c0.2-0.2,0.4-0.4,0.6-0.5
		c1-0.5,1.7-1.2,2.2-2.2c0.3-0.6,0.9-1,1.2-1.6c0.6-0.8,1.5-1,2.2-1.6c0.3-0.7,0.9-1.3,0.9-2.1c-0.1-0.5-0.4-1-0.2-1.6
		c0.5-1.1,0.5-2.4,0.4-3.5c-0.2-1.7,0.1-3.5-0.6-5.1c-0.2-0.3-0.1-0.8-0.1-1.2c0-1.2-0.1-2.4-0.1-3.6c0-1.5,0-2.9,0-4.3
		c0.5-0.7,1-1.1,1.2-1.7c0.1-0.3-0.2-0.8-0.2-1.1c0-0.2,0.3-0.4,0.5-0.6c2.4-1.4,5-2.6,7.6-3.4c1.5-0.5,3.1-0.6,4.6,0.3
		c0.5,0.3,1,0.4,1.5,0.4c0.7,0,1.3,0.1,1.8,0.6c0.6,0.6,1.1,1.2,1.2,2c0.1,0.7,0.1,1.3,0.4,1.9c0.1,0.2,0.2,0.6,0.1,0.7
		c-0.7,1.2-0.2,2.7-0.8,3.9c-0.3,0.8-0.5,1.5-0.5,2.3c0,1.1-0.1,2.1-0.1,3.2c0,0.4,0,0.8-0.1,1.2c0,0.2-0.2,0.4-0.4,0.6
		c-0.1,0.1-0.3,0.1-0.4,0.1c-0.3-0.1-0.5-0.7-0.4-1c0.1-0.4,0.3-0.7,0.6-1.2c0-0.3,0-0.7,0-1.1c0-0.4-0.1-0.8,0-1.2
		c0.1-1.6-0.2-3.2,0.6-4.7c0.1-0.2,0.1-0.5,0.1-0.8c0-1.1,0-2.1,0-3c-0.5-1-1.1-1.8-2.1-2c-0.8-0.2-1.5-0.7-2.1-1
		c-1.3-0.7-2.5-0.8-3.8-0.2c-0.7,0.3-1.5,0.4-2.2,0.8c-0.7,0.3-1.6,0.5-1.8,1.4c-0.8,0.9-1.6,1.8-2.4,2.7c-0.5,0.5-0.6,1.1-0.3,1.8
		c0.3,0.7-0.3,1.5,0.2,2.2c0.1,0.1,0.1,0.3,0,0.4c-0.7,1.4-0.6,2.8-0.6,4.3c0,0.6-0.4,1-0.6,1.4c0.4,0.8,0.9,1.5,0.8,2.5
		c-0.1,1.1-0.1,2.1-0.1,3.2c0,0.3,0.1,0.5,0.1,0.8c0.4,0.6,0.7,1.1,1.1,1.7c1,0.6,2,1.2,2.8,1.8c0.7,0,1.2,0.1,1.9,0.1
		c0.2,0.3,0.4,0.6,0.6,0.9c0.2,0.4,0.6,0.6,1,0.5c0.5-0.1,0.9-0.4,1.5-0.1c0.5,0.2,1,0.2,1.6,0.2c1.9,0,3.7,0,5.6-0.1
		c0.5,0,0.5-0.5,0.4-0.9c-0.5-0.5-1.3-0.8-1.6-1.7c-0.3-1-0.9-1.9-1.3-2.8c0-1.2,0-2.3,0-3.3c0-0.5,0.5-0.7,1.1-0.4
		c-0.3,0.7-0.6,1.5,0,2.2c-0.1,0.4-0.1,0.7-0.2,1.1c3.5,3.8,3.5,3.8,4.8,6.3c0.1,0,0.3,0.1,0.3,0.1c1-0.6,2-0.5,3.1-0.4
		c0.1,0,0.3,0.1,0.4,0.1c0.3,0.1,0.7,0.6,0.6,0.9c-0.7,1.5-0.6,3.1-0.6,4.7c0,0.5,0.1,1,0.4,1.5c0.2,0.3,0.3,0.7,0.3,1.1
		c0,0.5,0,1.1,0.2,1.5c0.1,0.2,0.4,0.4,0.6,0.4c0.7,0.1,1.3,0.1,1.9,0.1c1,0.5,2,1,3,1.5c0.6-0.1,1.2-0.2,1.9-0.4
		c0.8,0.4,1.5,0.6,2.1,0.5c0.5-0.1,1.1-0.1,1.6-0.2c0.9-0.1,1.5-0.8,1.5-1.6c0-1.2,0-2.4-0.1-3.6c-0.1-1.3,0.2-2.7-0.5-3.9
		c-0.2-0.3-0.1-0.8-0.1-1.2c-0.1-1.6-0.1-3.2-0.2-4.8c0-2.3,0.1-4.5,0.1-6.8c0-0.3,0-0.6,0.1-0.8c0.5-1,0.4-2.1,0.5-3.1
		c0.2-4.2-0.1-3.4,0.9-8.7c0.1-0.3,0.1-0.5,0.2-0.8c0.6-0.7,1.5-1.1,1.4-2.2c0-0.5,0.2-1,0.4-1.5s-0.1-1-0.6-1.2
		c-0.1-0.1-0.2-0.2-0.4-0.2c-2.3-0.6-4.5-1.5-6.7-2.5c-0.8-0.4-1.8-0.6-2.6-0.9c-1.1-0.4-2.2-0.8-3.2-1.5c-1.4-1-2.8-2-4.3-2.9
		c-1.5-0.8-3.1-1.5-4.5-2.5c-0.2-0.1-0.5-0.2-0.7-0.3c-1.5-0.2-2.7-1.1-4-1.8s-2.6-1.4-3.9-2c-0.7-0.3-1.5-0.5-2.3-0.7
		c-1.1-0.4-2.3-0.6-3.5-0.4c-1.1,0.6-2.1,1.1-2.5,2.4c-0.1,0.3-0.5,0.6-0.9,0.7c-0.5,0.2-1,0.3-1.2,0.9c-0.2,0.7-1,0.8-1.4,1.4
		c-0.4,0.7-0.7,1.4-1.2,2.1c-0.4,0.5-0.9,1-1.4,1.4c-1.5,1.1-3,2.3-3.9,3.9c-0.3,0.5-0.7,0.8-1.2,1.1c-0.6,0.3-1.1,0.7-1.4,1.4
		c-0.1,0.2-0.3,0.5-0.5,0.6c-1.4,0.6-2.3,1.8-3.4,2.8c-1.1,1.1-2.4,2.1-3.7,3c-0.6,0.4-1.1,0.7-1.6,1.2C9.4,28,9,28.5,8.5,29
		c-1.1,1.1-2,2.4-3,3.6c0.1,0.4,0,0.9,0.2,1.2c0.7,0.9,0.7,2,0.6,3.1l0.1-0.1c-0.1,0-0.3,0-0.4-0.1c-0.6-1-1.1-2-1.7-3.1
		c-0.4,0.2-0.8,0.2-1.1,0.4c-0.6,0.3-1.1,0.8-1.6,1.1c-0.4,0.3-1.2,0-1.4-0.4c-0.3-0.5-0.3-1.2,0.1-1.5c0.7-0.6,1.5-1.1,2.2-1.7
		c0.6-0.5,1.1-1.2,1.7-1.7c0.9-0.8,1.7-1.7,2.7-2.4c1.2-0.8,2.2-2,3.5-2.6c1.3-0.7,2.2-1.9,3.4-2.7c0.8-0.5,1.5-1,1.9-1.9
		c0.1-0.3,0.5-0.6,0.8-0.9c1-0.9,1.7-2,2.5-3.1c1.1-1.6,2.5-3.1,3.8-4.6c0.4-0.5,1.2-0.5,1.6-1.1c0.3-0.5,0.5-0.9,0.9-1.3
		C26.2,8,27.2,7,28.5,6.3C29.4,5.8,30.1,5,30.6,4c0.6-1.3,1.4-2.6,2-3.8c0.6-0.1,1.1,0.1,1.5,0.4c0.2-0.1,0.5-0.2,0.7-0.4
		c0.4-0.2,0.8-0.3,1.1-0.1c0.8,0.4,1.6,0.9,2.3,1.3c0.5-0.4,0.9-0.7,1.3-1.1c0.8,0.2,1.6,0.4,2.3,0.4c0.8,0.1,1.5,0.4,2.3,0.6
		c0.6,0.2,1.3,0.2,2,0.2c0.8,0,1.6,0.1,2.3,0.5c0.2,0.1,0.5,0.3,0.8,0.2c1.6-0.2,3.1,0.7,4.7,0.7c0.7,0,1.3,0.1,2,0.3
		c0.2,0,0.3,0.4,0.4,0.6l0.1-0.1c-0.5,0.2-1,0-1.4,0.5c0.4,0.4,1,0.3,1.4,0.5l-0.1-0.1c0,0.4,0.2,0.8,0.5,1c0.6,0.5,1.2,1,1.7,1.6
		c0.1,0.1,0.1,0.5,0.2,0.7l0.1-0.1c-0.4-0.1-0.9,0-1.2-0.2c-1.4-1-2.9-1.9-4.6-2.3c-0.5-0.1-0.9-0.5-1.4-0.8c-0.5-0.4-1-0.9-1.4-1.2
		c-1-0.4-2-0.1-2.8-0.7c-0.4-0.4-1-0.2-1.5-0.2c-1.2-0.1-2.4,0-3.5-0.6c-0.8-0.4-1.8-0.4-2.7,0c0.1,0.2,0.2,0.5,0.4,0.6
		c0.2,0.2,0.4,0.4,0.6,0.5c2.1,0.8,4,2,5.8,3.4c1.7,1.3,3.4,2.5,5.4,3.4c1.6,1.6,3.8,2.4,5.6,3.8c1.5,1.1,3.1,2,4.9,2.6
		c3.1,1.1,6.1,2.5,9.3,3.5c1,0.3,2,0.7,3,1c1.6,0.5,3.3,1.1,4.9,0.9c1.1,0.5,2.1,1,3,1.4c1.5,0,3,0.1,4.5,0.1c0.7,0,1.3,0.1,1.9,0.4
		c0.5,0.3,1,0.3,1.5,0.4c0.4,0,0.8,0.1,1.2,0.2c0.5,0.1,0.9,0.6,1.5,0.4c0.1,0,0.3-0.1,0.3-0.2c0.1-0.2,0.2-0.5,0.1-0.7
		c-0.1-0.2-0.3-0.5-0.5-0.6c-0.7-0.8-1.5-1.5-2.3-2.3c-0.2-0.2-0.2-0.5-0.3-0.7l0.1-0.1c0.7,0,1.3,0.1,1.8,0.6
		c0.7,0.7,1.3,1.3,1.8,1.9c0.7,1.4,1.2,2.6,1.8,4c0,1.8,0,3.8,0,5.8c-0.4,0.7-0.9,1.4-1.3,2.1c-0.1,0.8,0.6,1.5,0,2.3
		c-0.2,1.5-0.3,2.9,0.2,4.3c0.3,0.9,0.1,1.5-0.2,2.3c-0.2,0.6-0.2,1.3,0.5,1.7c0.2,0.1,0.4,0.3,0.6,0.5c0.1,0.1,0.1,0.2,0.2,0.3
		c0.3,0.7-0.1,1.4-0.8,1.5c-0.7,0-1.3,0.2-1.7,0.8c-0.5,0.7-1.1,1.1-2,1c-0.2,0-0.5,0.1-0.7,0.3c-0.7,0.6-1.6,1-2.4,1.4
		c-1.6,0.9-3.3,1.6-4.8,2.8c-1.2,1-2.8,1.4-4.1,2.4c-0.5,0.4-1.3,0.4-1.9,0.3c0.1-0.2,0.1-0.5,0.3-0.7c0.4-0.3,1-0.4,1.4-0.7
		c0.7-0.7,1.5-1.1,2.3-1.5c0.8-0.5,1.6-0.9,2.4-1.4c1.4-1,3-1.7,4.4-2.7c1.5-1.1,3.2-1.9,4.8-2.8c0.1-0.1,0.2-0.2,0.3-0.3
		c0.3-0.6,0.2-1.3,0.2-1.9c-0.1-1.1,0.1-2.1-0.3-3.2c-0.1-0.3-0.2-0.5,0-0.8c0.4-0.7,0.3-1.6,0.3-2.4c0-2.3,0-4.5,0-6.8
		c0-0.5,0.1-1.1-0.1-1.6c-0.2-0.7-0.2-1.2,0-1.9c0.2-0.6-0.3-1.5-0.8-1.7c-1-0.4-1.9-0.9-3-0.9c-0.9,0-1.9,0-2.8-0.3
		c-1.3-0.5-2.6-0.6-3.9-0.6c-0.5,0-1.1,0-1.6-0.2c-1.1-0.6-2.3-0.6-3.5-0.6s-2.4-0.1-3.5-0.6c-0.5-0.2-1.1-0.1-1.6-0.1
		c-0.2,0-0.6,0.2-0.6,0.4c-0.2,0.8-0.3,1.5-0.8,2.2c-0.4,0.8-0.4,1.8-0.8,2.6c-0.3,0.6-0.1,1.3-0.1,2c0,0.9,0,1.9-0.1,2.8
		c0,0.8-0.2,1.6-0.6,2.3c-0.3,0.6-0.3,1.3,0,1.9c0.2,0.5,0.4,1,0.5,1.5c0.1,1.6,0.3,3.2-0.5,4.7c-0.1,0.3,0.1,0.8,0.2,1.1
		c0,0.1,0.2,0.3,0.1,0.4c-0.5,0.9-0.1,1.8,0,2.7c0.2,1.4,0.3,2.9,0.2,4.4c-0.2,2.4-0.1,4.8,0,7.2c0,0.3,0.7,0.6,0.9,0.4
		c1.6-1.2,3.4-2.1,5.2-3c0.3-0.2,0.8-0.1,1.2-0.2c-0.1,0.2-0.1,0.6-0.3,0.7c-0.5,0.4-1.1,0.7-1.7,1c-0.3,0.2-0.8,0.4-0.9,0.7
		c-0.4,0.8-1,1.5-1.8,1.9c-0.8,0.5-1.4,1.2-2,1.9c-0.3-0.1-0.6-0.3-0.8-0.2c-1,0.5-2,0.5-3,0.4c-1.2-0.2-2.4,0-3.5,0.7
		c-1.2,0.1-2.2,0.9-3.4,1.1c-2,0.4-3.6,1.7-5.1,2.9c-0.8,0.6-1.6,1.5-2.2,2.3c-0.6,0.7-1.1,1.5-1.6,2.2c-0.1,0.1-0.2,0.2-0.3,0.2
		c-0.1,0-0.3,0-0.3-0.1c-1.1-1.1-2.5-1.5-4-1.4c-3.3,0.2-6.7,0.2-10,0.1c-0.8,0-1.6,0-2.4,0c-0.1,0-0.2-0.1-0.3-0.3
		c-0.1-0.2,0.1-0.4,0.4-0.4c1.5-0.1,2.9-0.1,4.4-0.1c1.2,0,2.4,0,3.6-0.1c1.2-0.1,2.3-0.5,3.5-0.7c0.8-0.2,1.5-0.5,2.3-0.7
		c0.6-0.2,1.3,0,1.9-0.3c0.7-0.9,1.1-1.8,1.2-2.9c0.1-1.1-0.3-1.6-1.2-1.6c-0.8,0-1.6,0-2.4-0.1c-0.1,0-0.3,0-0.4,0
		c-0.3,0-0.6,0.3-0.7,0.8c-0.1,0.4-0.1,0.8-0.2,1.1c-0.1,0.3-0.3,0.4-0.6,0.3c-0.3,0-0.5-0.1-0.6-0.4c-0.1-0.4-0.1-0.8-0.2-1.2
		c-0.1-0.2-0.3-0.5-0.5-0.6c-0.8-0.3-1.6-0.2-2.3,0.1c-0.2,0.1-0.4,0.4-0.4,0.6c-0.1,0.5,0,1.1-0.1,1.6c0,0.2-0.3,0.4-0.4,0.6
		c-0.7-0.7-0.8-1.6-1.2-2.5c-0.2-0.4-0.9-0.6-1.4-0.3c-0.5,0.3-0.9,0.6-1,1.2c-0.1,0.5-0.2,1-0.3,1.6c-0.1,0.3-0.8,0.9-0.9,0.8
		c-0.1-0.2-0.3-0.4-0.3-0.7c-0.1-0.5-0.1-1.1-0.1-1.6c0-0.3-0.6-0.7-0.9-0.6c-0.6,0.2-1.2,0.5-1.8,0.7c-0.5,0.2-0.8,0.7-1,1.2
		c0.1,0.2,0.3,0.5,0.3,0.7c0.1,0.5,0,1-0.3,1.1s-0.8-0.2-0.9-0.6c-0.1-0.4-0.1-0.8-0.3-1.2c-0.1-0.2-0.4-0.4-0.6-0.4
		c-0.8,0-1.6-0.2-2.4,0.3c0.1,0.3,0.3,0.7,0.4,1c0,0.2-0.1,0.5-0.2,0.7c-0.2,0.3-0.8,0.4-1.1,0c-0.3-0.4-0.7-0.8-0.9-1.3
		c-0.3-0.6-0.7-0.7-1.3-0.7c-0.8,0-1.2,0.4-1.4,1.1c-0.1,0.5-0.5,0.9-1.1,1.1c-0.2-0.2-0.4-0.4-0.5-0.6c-0.1-0.4-0.4-0.7-0.8-0.8
		c-0.6-0.1-1.1,0-1.5,0.4c-0.9,0.9-1.5,1.9-1.6,3.1c-0.1,0.9-0.1,1.9-0.1,2.8l0,0c-0.3,0-0.6-0.1-0.6-0.4c-0.1-0.9-0.2-1.8-0.3-2.8
		c0-0.4-0.4-0.7-0.8-0.7c-0.8,0-1.6-0.1-2.4-0.1c-1.1,0-2.1,0.2-3.2-0.1L11.8,69.1z M27.5,63.5c0.5-0.1,0.8,0,1,0.4
		c0.1,0.2,0.1,0.5,0.2,0.7c0.1,0.3,0.7,0.4,1.1,0.2c0.7-0.4,1.5-0.6,2.3-0.7c0.8-0.1,1.6-0.1,2.3-0.4c0.8-0.4,1.9-0.3,2.7-0.7
		c1.5-0.8,3.2-0.3,4.6-1c0.2-0.1,0.5-0.1,0.8-0.1c1.7-0.1,3.4-0.3,5.1,0.5c0.6,0.3,1.3,0.2,2,0.2c0.9,0,1.9-0.1,2.9-0.2
		c0.7-0.5,1.5-1,2.2-1.5c0.4-0.3,0.3-0.7,0.3-1.2c-0.8-0.4-1.6-0.7-2.4-1.1c-0.4,0.1-0.6,0.2-0.8,0.3c-0.7,0.5-1.3,0.9-1.9,1.4
		c-0.2,0.2-0.5,0.3-0.7,0.4c-0.4,0.3-1.3-0.1-1.3-0.5c-0.1-1.7-0.1-3.4-0.2-5.2c-0.7-0.8-1.7-0.7-2.6-0.4c-0.9,0.3-1.2,0.9-1.3,1.8
		c0,0.3-0.1,0.5-0.2,0.8c-0.1,0.3-0.3,0.2-0.6,0c-0.5-0.3-0.6-0.8-0.8-1.3c-0.2-0.4-0.6-0.6-1-0.5c-0.4,0.1-0.8,0.2-1.1,0.3
		c0.1,0.3,0.2,0.6,0.3,0.8c0.3,0.7,0,1.3-0.5,1.8c-0.2,0.2-0.5,0.2-0.7,0c-0.4-0.3-0.7-0.8-0.8-1.3c-0.2-0.7-0.7-1.1-1.3-1.4
		c-0.5-0.2-1.1,0-1.2,0.6c-0.1,0.7-0.2,1.3-0.5,1.9c-0.3,0.6-0.4,1.2-0.6,1.9c-1-1-0.3-2.3-0.9-3.5c-0.3-0.2-0.8-0.4-1.2-0.7
		c-0.5-0.3-1-0.1-1.5,0.2c-0.3,0.2-0.6,0.5-0.9,0.8c-0.7,0.8-0.9,1.6-0.4,2.6c0.2,0.4,0.3,0.7,0.3,1.1c0,0.1-0.1,0.3-0.2,0.3
		s-0.2,0-0.3-0.1c-0.5-0.3-0.7-0.8-0.8-1.3c-0.1-0.5,0-1-0.7-1.4c-0.8,0.6-1.6,1.2-2.5,1.9c-0.3,0.5-0.5,1-0.7,1.5
		c-0.3,0.5-0.3,1-0.2,1.5c0.6,0.6,0.9,1.6,1.9,1.9C26.9,64.4,27.2,63.9,27.5,63.5z M46.7,53.6c0.6-0.3,1.3-0.4,1.8-0.8
		c1.2-1,2.5-1.4,4-1.4c0.2,0,0.5-0.1,0.7-0.3c0.1-0.2,0.1-0.5,0.1-0.7c0-0.1-0.2-0.2-0.3-0.2c-1.9,0.8-3.9,0.8-5.9,0.2
		c-0.2-0.1-0.5-0.2-0.7-0.2c-1.3,0.6-2.6,0.4-3.9,0.5c-0.5,0-1.1,0-1.6-0.2c-1.6-0.8-3.4-0.7-5.1-0.7c-0.4,0-0.8,0-1.2,0.2
		c-0.9,0.4-1.8,0.5-2.7,0.7c-1.9,0.2-3.6,0.9-5.1,2.1c-0.3,0.2-0.5,0.6-0.6,1c0,0.3,0.2,0.6,0.3,0.5c1.3-0.7,2.9-0.3,4.2-1.1
		c0.9,0,1.8-0.2,2.7,0.4c0.5,0.3,1.3,0.3,1.9,0.6c0.6,0.3,1.2,0.5,1.9,0.4c0.9,0,1.9,0,2.8-0.1c1.2-0.1,2.3-0.7,3.5-0.7
		c0.4,0,0.8-0.3,1.1-0.5C45.5,53,46.1,53.3,46.7,53.6z M31,34.4c0-0.2-0.1-0.5-0.1-0.7c0-0.1-0.1-0.2-0.2-0.3
		c-0.2-0.1-0.3,0-0.4,0.3c-0.1,0.2-0.1,0.5-0.1,0.7c0,0.4,0.3,0.8,0.6,0.6C31,34.9,31.1,34.7,31,34.4z M37.9,2.9
		c-0.2-0.3-0.4-0.4-0.7-0.3c-0.1,0-0.2,0.2-0.3,0.2C37.1,3,37.3,3.1,37.6,3C37.7,3.2,37.8,3,37.9,2.9z M24.2,64.8l0.1-0.2h-0.2
		L24.2,64.8z"/>
	<path class="st0" d="M12.6,67.4c-1.1,0.1-1.7-0.5-2.3-1.4c0-0.4-0.1-0.9-0.1-1.5c0-2,0-4,0-5.9c0-0.7-0.2-1.3-0.4-1.9
		c-0.3-1-0.7-2-0.9-3c-0.3-1.1-0.2-2.4-0.2-3.5c0-0.8,0-1.6-0.4-2.3c-0.2-0.4-0.2-1-0.2-1.5c0-1.1,0-2.1-0.1-3.2
		c0-0.5,0-1.1-0.2-1.6c-0.7-1.5-0.7-3.1-0.6-4.6l-0.1,0.1c0.1,0,0.3,0,0.4,0.1c0.1,0.1,0.2,0.1,0.3,0.2c0.3,0.9,0.5,1.8,0.8,2.6
		c0.3,0.8,0.1,1.8,0.2,2.7c0,0.4,0.1,0.8,0.2,1.1c0.5,0.9,0.5,1.8,0.5,2.7c0,1.1,0,2.1,0.1,3.2c0.1,1,0.6,2,0.7,3.1
		c0.1,1.1,0.8,2,0.8,3c0,1.1,0,2.1,0.1,3.2c0.1,0.8,0.5,1.5,0.6,2.3c0.1,0.9,0.2,1.8,0.3,2.8c0,0.3,0.1,0.5,0.3,0.7
		C12.8,65.6,12.7,66.5,12.6,67.4L12.6,67.4z"/>
	<path class="st0" d="M71.9,7.4c1.7-0.2,3.4-0.1,4.9,0.7c1.6,0,3,0.7,4.4,1.2c1.2,1.1,1.7,2.8,3.2,3.1c0.4,0.9,0.4,1.6,0.3,2.2l0,0
		c-0.6,0-0.9-0.4-1.3-0.8c-1.8-2.1-4.3-3.4-6.6-4.7C76.5,8.9,76,9,75.7,9c-0.1,0-0.2,0.1-0.3,0.2c-0.1,0.1-0.1,0.2,0,0.3
		c0.6,0.7,1.2,1.3,1.8,2c0.2,0.2,0.2,0.5,0.3,0.7l0,0c-0.5,0.1-1.1,0.1-1.5-0.3c-1.1-1-2.3-1.8-2.7-3.3c-0.3-0.2-0.7-0.4-1-0.6
		C72.1,7.8,72,7.6,71.9,7.4L71.9,7.4z"/>
	<path class="st0" d="M19,73.1c0.4-0.1,0.8-0.2,1.1-0.3c0.3-0.4,0.7-0.8,1-1.2c0.8,0,1.6,0,2.4-0.1c0.5,0,1.1,0,1.5-0.3
		c0.9-0.5,1.8-0.5,2.7-0.5c1.5-0.1,2.9-0.2,4.3-0.7c0.3-0.1,0.8,0.1,1.2,0.2c-0.2,0.7-0.7,1.1-1.4,1.2c-0.4,0-0.8,0.1-1.2,0
		c-1.7-0.1-3.4,0.3-5,0.8c-1.6,0.6-3.3,1-4.6,2.2c-0.1,0.1-0.2,0.1-0.4,0.2c-0.6,0.3-1.4-0.1-1.6-0.8C19,73.6,19,73.3,19,73.1
		L19,73.1z"/>
	<path class="st0" d="M59.8,5c1.2,0,2.4-0.3,3.5,0.4c0.1,0.1,0.5-0.1,0.7-0.2c0.4-0.2,0.8-0.1,1.2,0c0.5,0.2,1,0.5,1.5,0.5
		C68,5.6,69,6.3,70.1,6.8c-0.1,0.1-0.3,0.4-0.4,0.4c-0.5,0.1-1,0-1.5-0.3c-0.5-0.2-1-0.4-1.5-0.5c-0.2,0-0.5,0.2-0.7,0.3
		c0,0,0,0.2,0,0.3c0.9,0.8,1.8,1.5,2.7,2.3c0.1,0.1,0,0.3,0,0.4l0.1-0.1c-0.3,0-0.6,0.1-0.8,0c-1.4-0.7-2.7-1.4-4.1-2.2
		c-0.1-0.1-0.2-0.1-0.3-0.2c-0.8-1.2-2-1.5-3.3-1.8C60.1,5.3,60,5.1,60,4.8L59.8,5z"/>
	<path class="st0" d="M91.1,20.2c-0.4-0.1-0.8-0.1-1.1-0.3c-0.3-0.2-0.6-0.4-0.9-0.7c-1.4-1.4-2.9-2.9-4.3-4.3c-0.1-0.1,0-0.2,0-0.4
		l0,0c0.4,0,0.8-0.1,1.2,0.1c0.6,0.3,1.1,0.7,1.7,1c0.5,1,1.6,1.3,2.2,2.2c0.5,0.7,1.2,1.4,1.4,2.3L91.1,20.2z"/>
	<path class="st0" d="M74.3,71.7c-0.3,0.5-0.7,0.8-1.2,1.1s-1.1-0.1-1.2-0.7c-0.1-0.8,0.4-1.8,1-2c0.1,0,0.2,0,0.3,0.1
		C73.9,70.5,74.3,71,74.3,71.7z"/>
	<path class="st0" d="M89.4,62.1c0,1-0.3,1.6-1.2,1.9c-1-0.6-1.5-1.4-0.8-2.5C88.2,61.5,88.8,62,89.4,62.1z"/>
	<path class="st0" d="M85.4,72.1c0.1,0.3-0.2,0.8-0.5,0.9c-0.4,0.1-0.8,0.1-1.1,0.1c-0.5-0.1-0.7-0.8-0.5-1.2
		c0.1-0.2,0.3-0.4,0.5-0.6c0.5-0.4,0.8-0.4,1.2,0.1C85.2,71.6,85.3,71.8,85.4,72.1z"/>
	<path class="st0" d="M97.2,63.6c0.3-0.1,0.9,0.2,0.9,0.5c0.1,0.4,0.1,0.8,0.1,1.2c0,0.3-0.6,0.6-0.9,0.4c-0.7-0.3-1-1.2-0.5-1.9
		C97,63.7,97.1,63.6,97.2,63.6z"/>
	<path class="st0" d="M94.3,62.7c0,0.3,0,0.5-0.1,0.7c-0.1,0.2-0.3,0.4-0.4,0.6c-0.2,0.2-0.9-0.1-0.9-0.4c-0.1-0.3-0.1-0.7-0.1-1.1
		c0-0.3,0.6-0.6,0.9-0.5C94.1,62.1,94.3,62.3,94.3,62.7z"/>
	<path class="st0" d="M103,39.6c0,0.1,0.1,0.3,0,0.4c-0.3,0.4-0.7,0.7-1.2,0.6c-0.5,0-1-0.2-1.2-0.6c-0.1-0.2,0-0.6,0.1-0.8
		c0.3-0.5,0.8-0.4,1.3-0.4S102.8,39,103,39.6z"/>
	<path class="st0" d="M87.1,68.9c-0.2,0.3-0.3,0.5-0.5,0.7c-0.2,0.2-0.9-0.1-1-0.4c-0.1-0.4-0.2-0.7-0.2-1.1c0-0.2,0.2-0.4,0.4-0.6
		c0.2-0.1,0.9,0.1,1,0.4C87,68.3,87,68.6,87.1,68.9z"/>
	<path class="st0" d="M65.3,71.1c-0.3,0.4-0.6,0.9-1.1,1c-0.2,0.1-0.5,0-0.7-0.1c-0.3-0.1-0.3-0.4-0.3-0.7c0.1-0.7,0.5-1.2,1.1-1.4
		C64.9,70.2,65.1,70.6,65.3,71.1z"/>
	<path class="st0" d="M58.7,75.1c-0.2,0.5-0.3,1-0.5,1.4c-0.1,0.2-0.7,0.4-1,0.3c-0.3-0.1-0.6-0.8-0.4-1c0.3-0.4,0.6-0.8,1-1.1
		C58.1,74.7,58.5,74.7,58.7,75.1z"/>
	<path class="st0" d="M105.4,42.5c0,0.3,0,0.5-0.1,0.7c-0.1,0.2-0.3,0.4-0.5,0.6c-0.2,0.2-0.5,0.2-0.7,0.1c-0.3-0.2-0.6-0.6-0.5-0.9
		c0.2-0.5,0.5-0.9,1.1-1C104.9,41.8,105.3,42.1,105.4,42.5z"/>
	<path class="st0" d="M80.8,64.2c0.1,0.6-0.1,1.1-0.5,1.4c-0.3,0.3-1.2,0.1-1.2-0.3c-0.1-0.5-0.1-1,0.3-1.4c0.2-0.2,0.4-0.3,0.7-0.3
		C80.5,63.7,80.8,63.9,80.8,64.2z"/>
	<path class="st0" d="M103.8,51.7c0,0.1,0,0.2-0.1,0.3c-0.3,0.4-0.7,0.8-1.2,0.9c-0.4,0.1-0.8-0.2-0.8-0.6c-0.1-0.5,0.5-1.3,1-1.5
		C102.9,50.7,103.7,51.3,103.8,51.7z"/>
	<path class="st0" d="M78.9,72.5c-0.1,0.2-0.2,0.5-0.5,0.8c-0.1,0.1-0.4,0.1-0.6,0.1c-0.1,0-0.2-0.2-0.2-0.3c0-0.4,0-0.7,0-1.1
		c0.1-0.3,0.6-0.5,1-0.3C78.8,71.8,78.9,72,78.9,72.5z"/>
	<path class="st0" d="M73.6,12.9c-1.3,0.2-2.1-0.6-3.1-1.2c-0.1,0-0.1-0.2-0.1-0.4l-0.1,0.1c1.3-0.2,2.4,0.1,3.1,1.2
		c0.1,0.1,0.1,0.3,0.1,0.4L73.6,12.9z"/>
	<path class="st0" d="M47.5,77.4c0.4,0.4,0.3,1,0.3,1.5c0,0.3-0.5,0.6-0.8,0.5c-0.5-0.1-0.7-0.4-0.6-0.8
		C46.5,77.9,46.9,77.6,47.5,77.4z"/>
	<path class="st0" d="M66.6,80.3c-0.4,0-0.8-0.1-1-0.5c-0.1-0.2,0-0.5,0.1-0.7c0.2-0.4,0.8-0.6,1.3-0.4c0.4,0.1,0.6,0.5,0.3,0.8
		C67.1,79.8,66.9,80.1,66.6,80.3z"/>
	<path class="st0" d="M106,58c0.5,0.5,0.4,1.1,0.2,1.7c-0.1,0.3-0.3,0.3-0.6,0.4c-0.3,0-0.5,0-0.7-0.2c-0.2-0.3-0.3-0.7-0.1-1
		C105.1,58.4,105.5,58.1,106,58z"/>
	<path class="st0" d="M100.6,23.6c0.6,0.2,1,0.6,1.3,1.2c0.2,0.3-0.2,0.9-0.6,1.1c-0.4,0.1-1.1-0.2-1.1-0.5
		C100,24.7,100.1,24.1,100.6,23.6z"/>
	<path class="st0" d="M61.5,9.7c-1.3,0.2-2-0.5-2.4-1.6L59,8.2c1.1-0.2,1.8,0.4,2.4,1.2C61.5,9.5,61.4,9.7,61.5,9.7L61.5,9.7z"/>
	<path class="st0" d="M75.1,80.1c0,0.4-0.2,0.7-0.6,0.8c-0.3,0.1-0.6,0-0.7-0.2c-0.1-0.2-0.1-0.5,0-0.7c0.1-0.2,0.4-0.3,0.6-0.4
		C74.7,79.4,75.1,79.7,75.1,80.1z"/>
	<path class="st0" d="M51,84.3c0,0.6-0.2,0.7-0.7,0.6c-0.5,0-0.7-0.2-0.7-0.7c0.1-0.5,0.3-0.7,0.8-0.7S51.1,83.8,51,84.3z"/>
	<path class="st0" d="M99.2,41.9c0.2,0.1,0.5,0.2,0.6,0.4c0.1,0.2,0,0.5,0,0.7c-0.1,0.3-0.6,0.4-1,0.1c-0.3-0.2-0.3-0.4-0.3-0.7
		C98.5,42,98.8,41.8,99.2,41.9z"/>
	<path class="st0" d="M91.4,71c0.2-0.3,0.4-0.6,0.7-0.9c0.2-0.2,0.5-0.1,0.7,0.1c0.4,0.3,0.5,0.8,0.3,1c-0.3,0.3-0.7,0.5-1.1,0.3
		C91.8,71.4,91.7,71.2,91.4,71z"/>
	<path class="st0" d="M102.3,46.5c0.1,0.4-0.1,0.7-0.6,0.8c-0.5,0.1-0.6-0.1-0.8-0.6c-0.1-0.5,0-0.7,0.6-0.8
		C101.9,45.8,102.1,46,102.3,46.5z"/>
	<path class="st0" d="M110.4,50.5c-0.5,0.1-0.7-0.2-0.7-0.7c0-0.3,0-0.5,0.3-0.7c0.4-0.2,0.9-0.1,1,0.2c0.2,0.4,0.1,0.9-0.2,1
		C110.6,50.4,110.5,50.4,110.4,50.5z"/>
	<path class="st0" d="M104.1,36.2c-0.1,0-0.3,0-0.4,0c-0.2-0.1-0.4-0.3-0.6-0.5c-0.2-0.2,0.1-1,0.4-1c0.2,0,0.5,0,0.8,0.1
		c0.2,0.1,0.5,0.8,0.4,1C104.6,35.9,104.3,36,104.1,36.2z"/>
	<path class="st0" d="M95.5,51.7c0.4-0.1,0.7-0.3,1.1-0.3c0.2,0,0.6,0.1,0.7,0.3c0.1,0.1-0.1,0.5-0.2,0.7c-0.4,0.6-0.9,0.6-1.2,0.1
		C95.7,52.3,95.6,52,95.5,51.7z"/>
	<path class="st0" d="M89.3,57.1c0.4-0.1,0.8,0.2,0.9,0.5c0.1,0.4-0.2,0.8-0.6,0.8c-0.3,0-0.5-0.1-0.7-0.4S88.9,57.2,89.3,57.1z"/>
	<path class="st0" d="M100.6,58.5c0.1,0.4-0.2,0.8-0.5,0.8c-0.5,0-0.9-0.3-0.9-0.9c0-0.3,0.4-0.6,0.8-0.6
		C100.4,57.9,100.6,58,100.6,58.5z"/>
	<path class="st0" d="M70.8,67.2c-0.1,0.3-0.7,0.8-0.8,0.7c-0.2-0.1-0.3-0.4-0.4-0.6c-0.1-0.2,0-0.5,0-0.8c0-0.1,0.1-0.3,0.2-0.3
		C70.1,66.2,70.8,66.8,70.8,67.2z"/>
	<path class="st0" d="M64.6,12.2c0.5,0,1.1,0,1.4,0.4c0.1,0.1,0.1,0.3,0.1,0.4c0,0.4-0.2,0.5-0.4,0.3c-0.3-0.3-0.6-0.5-0.8-0.8
		c-0.1-0.1-0.1-0.2-0.1-0.4L64.6,12.2z"/>
	<path class="st0" d="M89.2,55.8c-0.1,0.1-0.2,0.3-0.3,0.3c-0.8,0.2-1.2-0.2-1-1c0-0.1,0.2-0.3,0.2-0.3
		C88.6,54.8,89.2,55.4,89.2,55.8z"/>
	<path class="st0" d="M94.1,58.4c-0.2-0.1-0.3-0.1-0.3-0.2c-0.3-0.5-0.1-1,0.4-1.1c0.3-0.1,0.5,0,0.7,0.2c0,0.1,0,0.2,0,0.3
		C94.6,57.9,94.3,58.1,94.1,58.4z"/>
	<path class="st0" d="M82.8,59.5c0.2,0.2,0.5,0.5,0.7,0.8c0.1,0.1,0.1,0.3,0.1,0.3c-0.1,0.2-0.4,0.3-0.6,0.3
		c-0.6-0.1-0.8-0.5-0.5-1.1C82.5,59.8,82.6,59.7,82.8,59.5z"/>
	<path class="st0" d="M74.7,63.4c-0.1-0.1-0.3-0.2-0.3-0.3c-0.2-0.6,0-1,0.6-1.1c0.3-0.1,0.5,0,0.6,0.3c0,0.1,0,0.3-0.1,0.4
		C75.3,62.9,75,63.1,74.7,63.4z"/>
	<path class="st0" d="M83.2,79.5c0.3,0.1,0.5,0.2,0.4,0.4c0,0.5-0.6,0.9-1,0.8c-0.1,0-0.2-0.2-0.2-0.3
		C82.3,79.8,82.7,79.4,83.2,79.5z"/>
	<path class="st0" d="M37.4,79.2c0.1,0.4-0.2,1.1-0.4,0.9c-0.2-0.1-0.3-0.4-0.4-0.6c-0.1-0.3,0-0.5,0.2-0.6
		C37,78.8,37.2,78.9,37.4,79.2z"/>
	<path class="st0" d="M11.7,69c0,0.4-0.2,0.7-0.6,0.8c-0.3,0.1-0.5,0-0.6-0.3c0,0,0.1-0.2,0.2-0.2C11.1,69.2,11.4,69.2,11.7,69
		L11.7,69z"/>
	<path class="st0" d="M103.9,64.9c-0.1,0-0.3-0.1-0.3-0.2c-0.1-0.2,0-0.4,0.4-0.4c0.3-0.1,0.5,0,0.6,0.3c0,0-0.2,0.2-0.3,0.2
		C104.2,64.9,104,64.9,103.9,64.9z"/>
	<path class="st0" d="M96.7,77.9c0.1,0.3,0,0.6-0.2,0.7c-0.3,0.1-0.4-0.1-0.4-0.3C96.2,77.9,96.4,77.8,96.7,77.9L96.7,77.9z"/>
	<path class="st0" d="M80.6,14.6c0.7,0.3,0.8,0.3,0.6,0.5c-0.1,0-0.2,0-0.2,0c-0.1-0.2-0.1-0.4-0.2-0.6L80.6,14.6z"/>
	<path class="st0" d="M64.8,12.1C64.3,12,64,11.9,64,11.3l-0.1,0.1c0.5,0.1,0.8,0.3,0.8,0.8L64.8,12.1z"/>
	<path class="st0" d="M59.1,25c0-0.5,0-1.1,0-1.6c0-0.2,0.3-0.5,0.4-0.5c0.2,0,0.5,0.2,0.7,0.3c0.8,1.1,1.1,2.4,1.7,3.5
		c0.1,0.2-0.3,0.9-0.5,1c-1,0.4-2,0.5-2.9,1.2c-0.7,0-1.3,0.1-2,0.1s-1.3,0.2-2,0.5c-0.1-0.4-0.3-0.7-0.4-1.1
		c-0.1-0.6,0-1.3-0.2-1.9s0.1-0.8,0.8-0.7c0.2,0,0.5,0.2,0.7,0.3c0,0.4,0,0.7,0,1.1c0.8,0.3,1.6,0.2,2.3,0c0.2-0.1,0.3-0.4,0.5-0.6
		l0,0c0.2,0.1,0.5,0.1,0.7,0.2c0.6,0.2,0.9,0.1,0.8-0.6c0-0.6-0.2-1-0.8-1.3L59.1,25z"/>
	<path class="st0" d="M15.6,42.7c0,1.4,0.1,2.9,0.1,4.9c-0.8-1.2-0.7-2-0.7-2.8s0-1.6-0.5-2.3c-0.2-0.4-0.2-1-0.2-1.6
		c-0.1-1.2-0.2-2.3-0.6-3.5c-0.4-1.2-0.5-2.6-0.2-3.9c0-0.1,0.1-0.2,0.2-0.3c0.4,0.6,0.3,1.3,0.4,2c0,0.4-0.1,0.9,0.1,1.2
		c0.8,1.3,0.7,2.8,0.7,4.3C15,41.3,15.4,41.9,15.6,42.7z"/>
	<path class="st0" d="M58.3,26.6c-0.3,0-0.5-0.1-0.6-0.4s-0.1-0.5-0.1-0.8c0-0.3-0.1-0.5-0.1-0.8c-0.5-0.8-1.5-0.3-2.1-0.9
		c0.3-0.9,1-1.2,1.9-1.2c0.5,0,1,0.3,1.1,0.9c0.1,0.4,0.1,0.8,0.3,1.1c0.1,0.2,0.4,0.3,0.6,0.4l-0.1-0.1c-0.1,0.2-0.1,0.5-0.2,0.7
		C58.7,25.9,58.4,26.3,58.3,26.6L58.3,26.6z"/>
	<path class="st0" d="M88.5,31.3c0.5,0.1,1.1,0,1.5,0.4c-0.3,0.6-0.6,1.2-0.6,1.9c0,0.9,0.1,1.9,0.1,2.8c0,1.1-0.1,2.1-0.1,3
		c-0.5,0.9-0.9,1.5-1.6,2c-0.4,0.2-0.7,0.2-1.1,0.1c-0.3-0.1-0.4-0.8-0.2-1c0.1-0.1,0.2-0.2,0.3-0.2c0.5-0.2,1-0.4,1.1-1
		c0.1-0.5,0.2-1,0.4-1.5c0.2-0.4,0.3-0.8,0.1-1.1c-0.6-1-0.6-2-0.1-3.1c0-0.1-0.1-0.2-0.1-0.3c-0.1-0.1-0.2-0.2-0.3-0.2
		c-2.5-0.4-4.5,0.1-5.7,2.5c-0.4,0.9-1.3,1.3-2,1.9s-0.3,1.8-1.1,2.5c-0.2,0.2-0.3,0.4-0.5,0.6c0.1,0.2,0.2,0.5,0.3,0.7
		c0.3,0.5,0.8,0.6,1.4,0.6c0.9-0.1,1.7-0.8,2.7-0.7c0.5,0,1-0.1,1.4,0.4c-0.6,0.3-1.2,0.8-1.8,0.9c-1.6,0.3-3,1.1-4.4,1.7
		c-0.1,0-0.3,0-0.3-0.1c-0.1-0.1-0.1-0.2-0.1-0.3c0.4-0.6,0.5-1.2,0-1.8c-0.2-0.3-0.4-0.7-0.4-1.1c-0.1-0.8,0-1.6-0.1-2.4
		c-0.1-0.8-0.4-1.5-0.5-2.3c-0.1-1,0.3-1.7,1.2-2.3c1-0.7,2.3-0.7,3.3-1.3c3.1-0.8,3.2-0.8,5.4-2.2c0.2-0.2,0.8,0,1,0.3
		c0.2,0.2,0.3,0.5,0.4,0.7C88.3,31.2,88.4,31.2,88.5,31.3z"/>
	<path class="st0" d="M226,45.7c0.5,0.3,0.9,0.3,1.3,0.2c1.6-0.4,3.2-0.9,4.8-1.4c1.7-0.5,3.5-1,5.3-1.4c1.5-0.4,3-0.8,4.5-1.3
		c1.7-0.7,3.5-0.9,5.2-1.6c0.5-0.2,1.2-0.4,2,0c0.4,0.6,0.6,1.4,1,2.2c0.2,0.6-0.2,1.3-0.8,1.4c-0.7,0.1-1.4,0.1-2.1,0
		c-2.5-0.3-4.8,0.2-7.2,0.9c-0.6,0.2-1.2,0.3-1.8,0.4c-2,0.2-3.9,0.9-5.8,1.4c-0.5,0.1-1,0.3-1.5,0.4c-1,0.2-1.9,0.4-2.6,1.1
		c-0.5,0.5-1.3,0.4-1.8,1.2c-0.3,0.5,0.2,1.2,0.1,1.9c0.5,1.9,0,3.6-1.3,5.1c-0.2,0-0.5,0.1-0.7,0.1c-0.7,0-1.4,0.2-1.9,0.7
		c-0.3,0.3-0.6,0.7-1,0.8c-1,0.2-1.5,0.9-1.7,1.7c-0.4,1.5-1.1,3-0.9,4.6c0.1,1.1-0.6,2-0.8,2.9c-0.9,0.7-1.8,1.1-2.9,0.9
		c-0.2-0.1-0.6,0-0.7,0.1c-0.9,1-2.3,0.5-3.3,1.3c-0.5,0.4-1.4,0.1-2-0.2c-0.5-0.2-0.9-0.6-1.4-0.7c-0.5-0.1-1-0.1-1.6,0
		c-2.3,0.2-4.2-0.8-6.2-1.6c-0.6-0.3-1-0.7-1.3-1.3c-0.4-1-1-2-0.9-3.2c0-0.3-0.1-0.7-0.2-1c-0.3,0-0.6-0.2-0.8-0.1
		c-1,0.4-2.2,0.7-2.9,1.6c-1.5,0.8-3,1.8-4.6,2.3c-1.6,0.6-3.4,0.8-5.1-0.2c-2.5-0.6-3.6-2.6-4.2-4.9c-0.3-1-0.3-2.1-1.2-2.8
		c-0.2-0.1-0.2-0.5-0.3-0.7c-0.3-1.5-0.2-2.9,0.1-4.4c0.1-0.4,0.3-0.8,0.4-1.2c0.6-2.2,1.1-4.4,1.5-6.6c0.3-1.3,1-2.4,2.2-3.1
		c0.3-0.2,0.6-0.5,0.9-0.4c1,0.1,1.6-0.7,2.4-0.9c0.8-0.2,1.6-0.6,2.4-0.9c0.1-0.2,0.3-0.3,0.3-0.4c0.5-2.4,2.3-3.6,4-4.7
		c0.9,0,1.2,1,2.2,0.7c0.7-0.8,1.5-1.7,2.5-2.4c-0.1-0.7-0.2-1.4-0.1-2.1c0.1-0.7,0.5-1.3,0.7-1.9c1.5-1,2.9-2.1,4.7-2.4
		c0.4-0.6,0.9-1.3,1.3-1.9c1.4-1.9,3.3-2.5,5.5-1.8c0.7,0.2,1.3,0.4,1.9,0.8c0.9,0.5,1.8,0.6,2.8,0.4c0.7-0.1,1.4-0.1,2.1,0
		c0.8,0.1,1.5,0.5,1.8,1.4c0.5,1.3,1,2.6,1,4c0,0.6,0.3,1.2,0.9,1.5c1.4,0.8,2.4,2,2.9,3.5c0.3,0.8,0.8,1.3,1.7,1.4
		c0.2,0,0.3,0.1,0.5,0.1c1.4,0.3,1.9,0.3,1.8,2.2c0,0.2,0.1,0.3,0.2,0.5c0.9,0.2,1.8-0.2,2.7-0.5c3.8-1.3,7.5-2.7,11.1-4.5
		c0.9-0.5,2-0.6,2.8-1.2c0.8,0.9,1.4,1.7,2.1,2.5c0.1,0.6-0.4,0.9-0.7,1c-0.9,0.5-1.9,0.8-2.9,1.2c-0.2,0.1-0.5,0.1-0.8,0.1
		c-4.3,0.6-8.4,2-12.4,3.9c-0.7,0.3-1.5,0.5-2.2,0.7c-0.4,0.1-0.8,0.4-0.9,0.8C226,43.2,225.7,44.4,226,45.7z M204.8,66.8
		c-0.1,0.3,0.1,0.4,0.3,0.4c0.1,0,0.1,0,0.2-0.1c0.1-0.1,0.1-0.2-0.1-0.3C205.1,66.8,204.9,66.8,204.8,66.8c0-0.5-0.3-1-0.5-1.4
		c-0.4-0.7-1.1-1.1-1.9-1.1c-0.3,0-0.7,0-1,0c-0.5,0-0.8,0.3-1.1,0.7c0.1,0.2,0.3,0.5,0.5,0.5c0.9,0.4,1.7,0.8,2.6,1.1
		C203.7,66.8,204.3,66.9,204.8,66.8z M185.3,49.5c-0.7-1.3-1.1-1.7-2.5-2.5c-0.5,1.3-0.6,2.7-0.8,4c0.5,0.7,1.2,1.3,2,1.6
		c0.3-0.2,0.6-0.4,0.9-0.6c-0.1,0.6,0,1.2,0.4,1.7c0.1,0.1,0.3,0.2,0.4,0.2s0.3-0.2,0.4-0.3c0.1-0.1,0.1-0.1,0.1-0.2
		c0.2-1.2,0.3-2.4,0.1-3.5c0-0.3-0.3-0.4-0.6-0.4C185.7,49.6,185.5,49.6,185.3,49.5z M186.9,55.3c-0.2,0.2-0.4,0.4-0.5,0.6
		c-0.3,0.9-0.2,1.9,0,2.8c0,0.2,0.3,0.5,0.5,0.6c1,0.4,2.1,0.9,3.1,1.3c0.3,0.1,0.7,0.2,1.1-0.2c0-0.2,0-0.6,0.1-0.9
		c0.6-1.3,0.5-2.7,0.7-4.1c0.1-1,0.1-2.1-0.4-3c-0.2-0.4-0.3-0.9-0.2-1.3c0.6-2.5,0-4.8-0.5-7.2c-1.1-0.2-2.1-0.4-3.1-0.6
		c-0.1,0-0.3,0.1-0.6,0.2c-0.1,0.5-0.1,1.1-0.3,1.7c-0.2,0.7-0.5,1.3-0.7,1.9c-0.1,0.4,0.1,0.8,0.6,1c0.4-0.4,0.5-0.9,0.6-1.4
		c0.1-0.3,0.2-0.7,0.3-1c0.1-0.1,0.3-0.3,0.4-0.3c0.2,0.1,0.5,0.2,0.6,0.4c0.1,0.2,0.1,0.5,0.1,0.7c-0.2,0.5-0.4,1-0.6,1.4
		c-0.2,0.4-0.1,1,0.3,1.2c0.2,0.1,0.5,0.2,0.7,0.4c0.5,0.3,1,0.7,1.4,1.1c0,0,0,0.2,0,0.3c0,0.1-0.1,0.2-0.2,0.2
		c-0.7-0.2-1.3-0.3-2-0.5c-0.3-0.1-0.7-0.1-1.1,0.2C187,52.3,187,53.8,186.9,55.3L186.9,55.3z M207.7,44.9c0.5-0.4,1-0.9,1.6-1.4
		c0-0.5,0.1-1.1,0.1-1.7c0-0.1-0.1-0.3-0.2-0.4c-2.2-0.6-2.5,0.5-2.4,2c0,0.4,0.2,0.8,0.2,1.2C207.3,44.7,207.6,44.8,207.7,44.9
		c0.1,0.3,0,0.6,0,1c0,0.1,0,0.2,0,0.3c-0.1,0.3-0.2,0.5-0.5,0.5c-0.2,0-0.5-0.1-0.7-0.3c-0.4-0.5-0.6-1.1-0.6-1.7
		c0-0.8,0.1-1.6-0.4-2.3c-0.5-0.3-1,0-1.5,0.2c-0.7,0.2-1.2,0.7-1.4,1.4c-0.1,0.2-0.2,0.5-0.3,0.7c-0.2,0.6-0.1,1.3,0.2,1.5
		c0.4,0.3,0.8-0.1,1.2-0.1c0.2,0,0.3,0.1,0.5,0.1c-0.3,0.6-0.9,0.6-1.5,0.8c-0.3,0.2-0.5,0.5-0.6,0.8c0,0.3-0.1,0.5-0.4,0.7
		c-0.2-0.1-0.4-0.2-0.6-0.3c-0.2-0.1-0.4-0.4-0.7-0.4c-2,0-3.2,1.3-2.9,3.1c0.1,0.7,0.4,1.3,0.5,2c0.1,0.5-0.1,0.7-1,0.8
		c-0.2-1.5-0.3-3.1-0.5-4.7c-0.7,0.3-1.3,0.5-1.8,0.7c-0.6,0.3-0.9,0.8-0.9,1.5c0,1.1,0.2,2.3-0.1,3.4c0,0.2,0.1,0.5,0.2,0.7
		c0.3,0.6,0.7,1.2,1,1.8c0.8,0.4,1.6,0.9,2.4,1.2c0.1,0.1,0.3,0,0.5,0c0.5-0.3,0.6-0.8,0.9-1.3c0.5-1,0.9-2.1,1.4-3.1
		c0.6-1.1,1.3-2.1,1.9-3.1c0.3-0.6,0.8-1,1.3-1.2c1.8-0.5,3.7-0.9,5.6-0.3c1.1,0.3,2.4,0.3,3.2,1.4c0.1,0.2,0.5,0.1,0.7,0.3
		c0.9,0.5,1.9,0.9,2.8,1.4c0.7,0.4,1.5,0.9,1.7,1.9c0.1,0.2,0.3,0.4,0.4,0.6c0.4,0.6,1,0.8,1.6,0.5c1.3-0.5,2.6-1,3.9-1.5
		c0.6-1.1,0.6-2.3,0.6-3.5c0-0.3-0.5-0.5-0.8-0.4c-1.1,0.5-2.2,0.9-3.4,1.4c-1-0.2-1.9-0.7-2.4-1.8c-0.3-0.6,0-1.3,0.6-1.4
		c1.6-0.4,3.2-0.8,4.8-1.2c0.4-0.1,0.9-0.2,1.2-0.8c0-0.3,0-0.7,0-1.1c-0.1-1-0.3-2.1-0.4-3.1c-0.2-1.2,0.5-2.2,0.5-3.3
		c0-0.4-0.1-0.7-0.4-0.9c-1.4,0-2.7,0.3-4.1,0.8c-0.9,0.3-1.8,0.7-2.8,0.5c-0.3-0.1-0.7,0.1-1,0.1c-1.5,0.2-3,0.8-4.6,0.9
		c-0.2,0-0.6,0.2-0.7,0.4c-0.4,0.8-0.7,1.6-0.5,2.5c0.8,0.6,0,1.7,0.7,2.4c0.2,0.2-0.1,0.6-0.3,0.6s-0.3,0-0.5-0.1
		c-0.5-0.2-0.4-1-1.2-1.1C208.6,44.8,208.2,44.9,207.7,44.9z M216.6,63.9c1-2.5,1-5,0-7.4c-0.5-1.3-1.3-2.5-2.7-3
		c-0.7-0.3-1.4-0.7-2.1-1c-0.5-0.2-1.1-0.5-1.5-0.2c-0.5,0.5,0.4,0.8,0.5,1.3c0,0.1,0,0.2,0,0.2c-0.2,0.3-0.5,0.2-0.7,0.1
		c-0.7-0.3-1.4-0.1-2,0.3c-1.2,0.8-1.9,2-2.7,3.1c-0.5,0.8-0.8,1.5-0.6,2.4c0.1,0.4,0.2,0.8,0,1.3c-0.6,1.9,0.6,3.2,1.6,4.4
		c1,1.1,2.4,1.6,4,1.5c1.8-0.1,3.4-0.7,4.7-1.9C215.7,64.8,216.1,64.4,216.6,63.9z M203.3,27.8c-0.4-0.3-0.9-0.3-1.3-0.2
		c-0.9,0.3-1.9,0.4-2.6,1.3c-0.1,0.4-0.3,0.9-0.4,1.4c-0.1,0.7,0.1,1,0.7,1.1c0.6,0.1,1.2,0.1,2.1,0.7c0.3,0.1,0.1,1.1,0.8,1.4
		c0.8,0,1.4-0.4,2.1-0.8c0.8-0.4,1.7-0.1,2.5-0.2c0.7-0.6,1.4-1,2-1.6c1-1.1,2.1-1.8,3.4-2.1c1.5,0.2,2.7,0.9,3.7,1.7
		c0.7-0.2,1.2-0.5,1.6-1c0.3-1.2,0-2.4-0.3-3.6c-0.3-0.9-0.9-1.5-1.8-1.6c-0.7-0.1-1.4-0.1-2,0.2c-0.5,0.5,0,1.5-1,1.7
		c-0.6-0.1-0.8-0.6-1.1-1c-0.4-0.6-0.8-1.1-1.5-1.4c-0.9-0.4-1.7-0.9-2.7-0.9c-1.1,0-2.1,0.6-2.4,1.6c-0.3,0.9-0.5,1.8-0.8,2.8
		c0.3,0.6,0.7,1.2,1,1.8c0.1,0.2-0.1,0.6-0.3,0.6s-0.4,0-0.5-0.1C204.2,29.2,203.7,28.5,203.3,27.8z M209.4,33.6
		c0.2,0.3,0.3,0.6,0.5,0.9c0.3,0.4,0.7,0.7,1.1,1.1c0.1,0.1-0.1,0.3-0.1,0.5l-0.2,0.1c-0.4-0.2-0.9-0.3-1.2-0.5
		c-1.2-1.1-2.7-1.5-4.4-1.7c-0.6,1.1-2.1,1.1-3,2c-0.3,1.8-1.1,3.6-0.2,5.5c2.3-0.2,4.3-1.3,6.4-2.1c1.5-0.5,2.9-1,4.4-1.5
		s2.9-1.1,4.5-1.2c0.7-0.1,1.3-0.2,2-0.6c0.7-0.4,1.4-0.6,2.3-0.4c0.3,0,0.5,0,0.8,0s0.6-0.5,0.4-0.8c-0.5-1.1-1.3-2-1.9-2.9
		c-2.5-0.3-2.8-0.2-4,1.7c-0.2,0.3-0.4,0.8-0.9,0.9c-0.5-1.1-0.2-2.4-0.8-3.5c-1.1-0.7-2.1-0.5-3.2,0.1
		C210.8,31.6,210.1,32.5,209.4,33.6z M200.2,36.8c0.3-0.3,0.5-0.6,0.7-0.9c0.3-0.4,0.5-0.7,0.7-1.1c0.2-0.3,0.1-0.7,0-1
		c-0.5-1-1.7-1.4-2.6-0.9c-0.3,0.2-0.6,0.4-0.8,0.6c-1.1,1-1.8,2.3-2.4,3.7c-0.1,0.2-0.2,0.5-0.4,0.7c0,0.1-0.2,0.1-0.2,0.1
		c-0.1,0-0.2,0-0.2-0.1c-0.1-0.3-0.2-0.6-0.3-1c-0.3-1.3-0.5-1.5-2.1-1.8c-0.6,0.6-1.1,1.2-1.7,1.8c-0.1,1.1-0.4,2.1,0.3,3
		c0,0.1,0.1,0.2,0.1,0.2c0.1,0.7-0.1,1.3-0.9,1.6c0.8,1.1,2.4,0.7,3,1.8c1-0.9,2.2-1.6,3.6-1.5c0.9,0,1.7-0.2,2.6-0.3
		c0.6-0.1,1-0.5,0.8-1.1C200,39.6,200.1,38.4,200.2,36.8z M202.9,53.3c-0.2,0.3-0.5,0.6-0.7,0.9c-0.8,1.4-1.5,2.9-2.1,4.5
		c-0.1,0.2-0.1,0.4-0.1,0.5c0,0.1,0.2,0.3,0.3,0.3c0.8-0.2,1.7-0.4,2.5-0.6c0.2,0,0.3-0.2,0.4-0.3c0.3-0.2,0.4-0.5,0.4-0.9
		c0-0.3-0.3-0.6-0.8-0.6c-0.2,0-0.3,0-0.5,0c-0.2,0-0.3,0-0.5,0c-0.3-0.1,0,0.1-0.1-0.2c0-0.1,0.1-0.3,0.2-0.4
		c0.8-0.3,1.8,0.4,2.5-0.4c0.6-0.7,1-1.4,1.5-2.2c-0.2-0.2-0.3-0.5-0.5-0.5C204.6,53.3,203.8,53.3,202.9,53.3z M190.3,63.1
		c0-0.7-0.3-1.1-0.8-1.4c-1.2-0.6-2.4-1.1-3.6-1.6c-0.4-0.2-0.8-0.3-1.2-0.5c-0.2-0.1-0.8,0.4-0.7,0.6c0.1,0.8,0.3,1.7,0.4,2.6
		c0.3,0.2,0.7,0.5,1.1,0.7c0.2,0.1,0.5,0.2,0.8,0.2C187.7,63.8,189,63.6,190.3,63.1z M199.9,60.3c-0.4,0.6-0.4,1.3-0.4,2
		c0,0.4,0,0.9,0.6,1.2c0.9,0,1.9,0,3.1,0c-0.3-1-0.3-1.9-0.3-2.8c0-0.3-0.4-0.7-0.7-0.6C201.4,60.1,200.7,60.2,199.9,60.3z
		 M201.2,43.8c-1.5,0.2-2,0.3-2.7,0.8c-0.2,0.2-0.5,0.6-0.5,0.9c-0.1,0.6-0.2,1.3,0.2,1.7c0.6,0.5,1.3,0.2,1.9-0.1
		c0.3-0.2,0.6-0.3,0.9-0.5C201,45.7,201.9,44.8,201.2,43.8z M185.3,47.2c0.7-1.2,0.9-2.5,0.8-3.8c0-0.5-0.5-0.7-1.1-0.6
		c-0.4,0.6-1,1.3-1.4,2c-0.4,0.7-0.2,1.4,0.5,1.8C184.4,46.9,184.8,47,185.3,47.2z M181.9,52.4c-0.7,0.6-0.7,1.4-0.6,2.3
		c0.3,0.2,0.6,0.5,0.9,0.8s0.5,0.7,0.8,1c0.2-0.1,0.5-0.1,0.5-0.2c0.7-1.9,0.6-2.2-0.9-3.5C182.4,52.6,182.2,52.5,181.9,52.4z
		 M209.3,50.8c-0.7-0.5-1.3-0.7-2.1-0.5c-0.6,0.2-1.2,0.3-1.8,0.4c-0.3,0.1-0.7,0.5-0.6,0.7c0.1,0.2,0.3,0.5,0.5,0.6
		c0.5,0.3,1,0.6,1.7,0.6C207.9,52.2,208.7,51.9,209.3,50.8z M196.8,46.2c-0.4-0.4-0.7-0.3-1,0c-0.8,0.7-1,1.7-1.4,2.6
		c1.2,0.1,2.1-0.2,2.4-0.8c0-0.2,0-0.5,0-0.8C196.9,46.7,196.9,46.4,196.8,46.2z M184.3,56.5c0.1,0.4,0.1,0.7,0.3,1
		c0,0.1,0.3,0.2,0.4,0.2c0.1,0,0.2,0,0.2-0.1c0.4-0.5,0.6-1.2,0.7-1.9c0.1-0.3-0.4-0.8-0.8-0.9c-0.1,0-0.4,0.1-0.4,0.2
		C184.5,55.5,184.4,56,184.3,56.5z M182.3,60.6c-0.1-0.4-0.1-0.9-0.2-1.4c0-0.1-0.2-0.3-0.3-0.4c0,0-0.1-0.1-0.2-0.1
		c-0.1,0-0.2,0.1-0.2,0.1c-0.1,0.9,0,1.7,0.4,2.4c0,0,0.1,0,0.2,0c0.1,0,0.2-0.1,0.2-0.1C182.2,61,182.2,60.8,182.3,60.6z M181,48.1
		c-0.1,0-0.1,0.1-0.1,0.1s0.1,0.1,0.1,0.2c0.1,0,0.1-0.1,0.1-0.1C181.1,48.2,181,48.1,181,48.1z"/>
	<path class="st0" d="M238,69.2c0.3-0.8,0.9-1.2,1.7-1.4c0.1,0,0.3,0.1,0.4,0.2c0.2,0.2,0.2,0.6,0,0.7
		C239.4,69.1,238.8,69.6,238,69.2z"/>
	<path class="st0" d="M211.8,73.6c0.2,0.1,0.4,0.1,0.6,0.2c0.1,0,0.1,0.1,0.1,0.2s0,0.3-0.1,0.4c-0.4,0.3-0.9,0.3-1.4,0.2
		c-0.1,0-0.2-0.2-0.3-0.3c-0.1-0.2,0.1-0.5,0.3-0.6C211.2,73.6,211.5,73.6,211.8,73.6z"/>
	<path class="st0" d="M230.9,73.8c-0.1-0.1-0.3-0.1-0.4-0.2c-0.1-0.1,0-0.3,0-0.4c0.1-0.2,0.3-0.4,0.5-0.5c0.3-0.3,0.7-0.1,0.8,0.2
		c0.2,0.7,0,0.9-0.7,1C231.1,73.8,231,73.8,230.9,73.8z"/>
	<path class="st0" d="M226.9,69.7c-0.3,0.3-0.7,0.5-1.1,0.1c-0.3-0.3-0.3-0.6-0.2-1c0.1-0.3,0.6-0.5,0.8-0.3
		C226.9,68.8,227,69.2,226.9,69.7z"/>
	<path class="st0" d="M225.4,72.2c0.2-0.3,0.5-0.4,0.9-0.3c0.6,0.1,1,0.5,0.8,0.7c-0.2,0.3-0.6,0.4-1.1,0.3
		C225.7,72.9,225.7,72.9,225.4,72.2z"/>
	<path class="st0" d="M234.4,72.8c-0.2-0.2-0.5-0.3-0.6-0.5c-0.1-0.2,0.3-0.6,0.6-0.6c0.2,0,0.6,0.3,0.5,0.5
		C234.8,72.4,234.6,72.6,234.4,72.8z"/>
	<path class="st0" d="M219.2,71.9c0.1,0.1,0.2,0.3,0.2,0.4c-0.2,0.5-0.5,0.7-1,0.6c-0.1,0-0.2-0.1-0.2-0.2
		C218.2,72.3,218.7,71.8,219.2,71.9z"/>
	<path class="st0" d="M231.2,66.3c0.2,0,0.3,0.1,0.5,0.1c0.1,0.1,0.2,0.3,0.2,0.4c0,0.1-0.1,0.3-0.2,0.4c-0.3,0.2-0.6,0.3-0.9,0.1
		c-0.2-0.1-0.3-0.4-0.3-0.6c0-0.1,0.2-0.3,0.3-0.3C230.9,66.3,231.1,66.3,231.2,66.3z"/>
	<path class="st0" d="M227.7,62.9c0,0.1-0.1,0.2-0.1,0.2c-0.3,0.2-0.6,0.3-0.9,0.2c-0.3-0.1-0.5-0.7-0.3-0.9
		c0.2-0.1,0.5-0.3,0.7-0.2C227.4,62.3,227.7,62.5,227.7,62.9z"/>
	<path class="st0" d="M234.6,61.4c-0.5,0.2-0.9,0.3-1.4,0.1c-0.2-0.1-0.3-0.2-0.2-0.4c0-0.3,0.2-0.5,0.5-0.4
		C234,60.7,234.4,60.9,234.6,61.4z"/>
	<path class="st0" d="M222.2,65.4c0.4,0,0.6,0.2,0.7,0.6c0,0.3,0,0.5-0.3,0.6c-0.3,0.1-0.6-0.2-0.6-0.6
		C222,65.9,222.1,65.6,222.2,65.4z"/>
	<path class="st0" d="M234.4,65.8c-0.2,0.1-0.3,0.3-0.4,0.3c-0.1,0-0.4,0-0.5-0.1c-0.1-0.2-0.3-0.4-0.2-0.6c0.1-0.2,0.4-0.3,0.6-0.1
		C234.2,65.4,234.3,65.6,234.4,65.8z"/>
	<path class="st0" d="M221.4,77c-0.2,0.3-0.4,0.6-0.6,0.8c-0.1,0.1-0.3,0.1-0.4,0c-0.1-0.1-0.2-0.3-0.2-0.4
		C220.3,76.9,220.6,76.8,221.4,77z"/>
	<path class="st0" d="M238.9,65.6c0.1,0.1,0.2,0.2,0.3,0.3c-0.1,0.1-0.2,0.2-0.3,0.3l-0.2-0.1C238.8,65.9,238.9,65.8,238.9,65.6z"/>
	<path class="st0" d="M217.1,42.3c-0.8-0.2-1.4,0.6-2.1,0.5c-0.6,0.7-0.6,1.4-0.5,2.1c0.1,0.8,0.3,1.7,0.5,2.5
		c0.1,0.3,0.1-0.1-0.2,0.2c0,0-0.4-0.1-0.4-0.2c-0.8-2-0.8-2.8-0.6-5.9c0.5,0.3,0.9,0.5,1.3,0.7c1.3,0,2.3-1.1,3.5-0.9
		c1.5,0.2,2.8-0.9,4.3-0.4c-0.6,1-1.6,0.5-2.4,0.8c-0.7,0.3-1.6-0.1-2.2,0.5c-0.1,0.2-0.2,0.3-0.1,0.5c0.2,0.8,0.1,1.6,0.6,2.2
		c0.2,0.3,0.1,0.5-0.1,0.7c-0.2,0.2-0.5,0.3-0.7,0.1c-0.2-0.1-0.4-0.3-0.5-0.5c-0.1-0.6,0-1.2,0-1.8
		C217.4,42.9,217.4,42.6,217.1,42.3z"/>
	<path class="st0" d="M211.9,43.4c-0.1,0.1-0.2,0.2-0.3,0.2c-0.2,0-0.3-0.1-0.2-0.2c0.1-0.1,0.3-0.1,0.4-0.2
		C211.8,43.2,211.8,43.3,211.9,43.4z"/>
	<path class="st0" d="M212.9,42.9c0.1,0.1,0.2,0.1,0.2,0.2c-0.1,0.1-0.1,0.3-0.2,0.4c0-0.1-0.1-0.3-0.1-0.4
		C212.7,43,212.8,42.9,212.9,42.9z"/>
	<path class="st0" d="M211,57.9c0.8,0,1.6,0.6,1.7,1.3c0.2,0.9-0.4,2.1-1.3,2.3c-0.6,0.1-1.2,0.1-1.8,0.1c-0.5,0-1.3-0.8-1.4-1.4
		c-0.1-0.8,0.3-1.6,1-1.9C209.8,57.9,210.4,57.9,211,57.9z"/>
	<path class="st0" d="M186.9,55.4c1.1,0,2.2,0.2,3,1.2C188.8,56.5,188.8,56.5,186.9,55.4L186.9,55.4z"/>
	<path class="st0" d="M185.4,49.5c0,0.6,0,1.2-0.1,1.8c-0.1,0.3-0.3,0.6-0.4,0.9c0-0.6,0.1-1.3,0.1-1.9
		C185,49.9,185.1,49.6,185.4,49.5z"/>
</g>
</svg>
