<?xml version="1.0" encoding="utf-8"?>
<!DOCTYPE svg PUBLIC "-//W3C//DTD SVG 1.1//EN" "http://www.w3.org/Graphics/SVG/1.1/DTD/svg11.dtd">
<svg version="1.1" id="header_mountains" xmlns="http://www.w3.org/2000/svg" xmlns:xlink="http://www.w3.org/1999/xlink" x="0px" y="0px"
	 width="289.1px" height="125.1px" viewBox="0 0 289.1 125.1" style="enable-background:new 0 0 289.1 125.1;" xml:space="preserve"
	>
<style type="text/css">
<![CDATA[
	.st0{fill:#010101;}
]]>
</style>
<g>
	<path class="st0" d="M42.6,92.3c0-0.4,0.2-0.8,0.6-0.9c0.7-0.4,1.4-0.7,2.1-1c1-0.5,2-0.5,3,0.1c0.2,0.1,0.5,0.2,0.7,0.3
		c0.5,0.2,1.1,0,1.4-0.4c0.5-0.6,0.9-1.3,1.4-1.9c0.1-0.1,0.1-0.2,0.1-0.4c-0.8-1.2-0.8-1.2-4.2-2.7c-0.9,0.4-1.8,0.9-2.7,1.4
		l0.1,0.1c-0.2-0.7-0.1-1.3,0.5-1.8c0.3-0.2,0.7-0.5,1-0.6c1.1-0.1,2.1,0,3.3,0c1.6,0.8,3,2,4.5,3c0.8-0.1,1.6-0.2,2.5-0.3
		c0.4,0.2,0.9,0.4,1.4,0.7c0.2,0.1,0.5,0.9,0.3,1c-0.2,0.2-0.4,0.3-0.7,0.3c-1.1,0-2.1-0.1-3.2-0.1c-0.8,0-1.5,0.3-2.2,0.9
		c-0.3,0.7-0.6,1.4-0.9,2.1c-0.3,0.8,0,1.5,0.8,2c0.3,0.2,0.7,0.3,1.1,0.5c0.8-0.4,1.7-0.9,2.5-1.3c1-0.1,2-0.2,3-0.3
		c1.3-0.7,1.3-2.3,2.5-3.1c1.1-0.7,2-1.7,3.5-2.3c0.8,0,1.8,0,2.9,0c0.4,0,0.8-0.2,1-0.6c0.3-0.5,0.3-1,0-1.5
		c-0.5-0.7-1.1-1.2-1.9-1.2c-1.3,0-2.7,0-4,0c-1.2,0.5-2.4,1.1-3.6,1.6l0.1,0.1c0-0.4,0.1-0.8,0.1-1.2c0.8-0.5,1.7-0.9,2.5-1.4
		c0.5-0.3,0.7-0.8,0.6-1.4c0-0.1-0.1-0.3-0.1-0.5c-0.6-0.2-1.2-0.4-1.8-0.6c-0.2-0.2-0.4-0.4-0.5-0.6c-0.2-0.6-0.7-0.8-1.3-0.8
		c-0.5,0-1.1,0-1.5,0.1c-1.7,0.9-2.6,2.4-3.9,3.6c-0.1,0.1-0.3,0.1-0.3,0.1c-0.3-0.2-0.3-0.4-0.2-0.7c0.2-0.4,0.3-0.7,0.5-1.1
		c0.8-1.5,1.7-2.7,3.5-2.9c1.2-0.7,2.5-0.7,3.9-0.6c0.7-0.5,1.5-1.1,2.2-1.6c0.7-0.4,1.4-0.7,2.1-1.1c1-0.6,2-0.6,3.2-0.4
		c1.1,0.6,2,1.6,3.4,2c0.5-0.3,1.2-0.5,1.7-0.9c0.7-0.5,1.5-0.6,2.3-0.3c1.9,0.7,4,1.3,5.5,2.7c-0.5,0.4-1,0.3-1.5,0.1
		c-0.9-0.3-1.7-0.8-2.5-1.2c-1.7-0.6-3.1,0.3-4.5,0.9c-0.3,0.4-0.5,0.8-0.7,1.1c-0.6,0.9-1.1,1.8-1.2,2.9c0,0.3-0.3,0.4-0.6,0.3
		S70,82.2,70,81.9c0-0.3,0.1-0.5,0.2-0.8c0.4-1.2,0.5-2.3,0.2-3.5c-0.7-0.4-1.3-0.8-2-1.3c-0.9,0-1.8,0-2.6,0
		c-0.4,0.3-0.9,0.5-1.1,0.8c-0.7,0.9-1.5,1.5-2.5,2c-0.3,0.2-0.3,0.9,0,1c0.6,0.3,1.1,0.6,1.1,1.4c0.1,1,0.4,1.3,1.1,1.2
		c0.3,0,0.5-0.1,0.8-0.1c2-0.1,3.6,0.4,4.9,2.1c0.4,0.5,0.9,0.2,1.3-0.7c0-0.1,0.2-0.2,0.2-0.3c0.4,0.1,0.7,0.2,1.1,0.3
		c1-0.6,2-0.6,3.1-0.3c0.9,0.2,1.8,0.5,2.7,0.8c0.8,0.7,1.5,1.4,2.3,2.1c0.7,0,1.4,0.1,2,0.1c1-0.1,1.8,0.2,2.7,0.6
		c0.3,0.2,0.9-0.1,1-0.4c0.1-0.8,0.3-1.6,0.6-2.3c0.1-0.3-0.1-0.8-0.3-1.1c-0.3-0.6-0.8-1-1.1-1.4c-1.8-0.4-3.3-0.3-4.9-0.1
		c-0.7,0.4-1.3,0.9-2,1.3c-0.3-0.3-0.6-0.6-0.8-0.9c0.3-1,1-1.5,1.7-2c1.7-0.3,3.3-0.2,4.9-0.2c1.3,0,2.3,0.5,2.8,1.8
		c0.2,0.6,0.8,0.8,1.3,0.7c0.8-0.1,1.6-0.2,2.3-0.4c1.4-0.5,2.9-0.5,4.3-0.3c0.2,0,0.5,0.3,0.6,0.5c0.3,0.9,0.6,1.8,0.8,2.7
		c0.1,0.4,0.1,0.8,0.1,1.2c0.1,0.8-0.8,1.4-0.3,2.3c-0.4,1-1.1,1.8-2.2,2.1c-0.4,0.1-0.8,0.2-1.1,0.3c-0.7,0.3-1.2,1.3-1,2
		c0.4,1,0.6,2,0.6,3.1c0,0.7,0.2,1.3,0.5,1.9c0.2,0.6-0.3,0.9-0.8,1.2c-0.7-1-1.4-1.9-1.3-3.2c0.1-0.8-0.5-1.5-0.6-2.3
		c-0.1-0.7-0.1-1.3-0.3-2c-0.1-0.4-0.4-0.7-0.8-0.9c-0.3-0.1-0.5-0.1-0.6,0.3c-0.1,0.4,0,0.8,0,1.2c0,1.1-0.5,1.8-1.4,2.3
		c-0.8,0.4-1.6,0.9-2.3,1.2c-0.6,1-0.3,2-0.3,2.9c0,0.9-0.1,1.8-0.6,2.7c-0.3,0.6-0.2,1.3,0.1,1.9c0.2,0.3,0.2,0.5,0,0.7
		c-0.1,0.2-0.8,0.2-1.1-0.1c-0.2-0.1-0.4-0.4-0.6-0.5c-0.5-2.5,0-5-0.5-7.6c-0.5,0.4-0.1-0.5-0.3,0c-0.4,1,0.1,2.1-0.4,3.1
		c-1,1-2.7,1.1-3.6,2.4c0.7,1.4,0.7,2.8,0.2,4.3c-0.2,0.6-0.3,1.3-0.4,1.9c-0.1,0.4-0.5,0.5-0.9,0.2c-0.4-0.3-0.7-0.7-0.7-1.3
		c0-1.1-0.1-2.1-0.2-3.2c0-0.3,0-0.3-1-0.6c-0.4,0.4-0.9,0.9-1.4,1.4s-1,0.9-1.7,1c-0.9,0.2-1.7,0.7-2.5,1.1
		c-0.4,0.2-0.8,0.7-1.1,1.1c0,1,0,1.9,0,2.8c0.1,0.5,0.6,0.9,0.6,1.5c0,0.3-0.1,0.5-0.4,0.6c-0.9,0.3-1.6,0-1.9-0.9
		c-0.1-0.5-0.2-1.1-0.4-1.5c-0.4-0.9-0.3-1.8,0.2-2.7c-0.4-0.6-0.8-1-1.5-1.1c-0.8-0.1-1.6-0.1-2.3-0.5c-0.3-0.2-0.7-0.3-1.1-0.4
		c-1.6-0.1-3.2-0.2-4.7,0.4c-0.3,0.2-0.4,0.4-0.4,0.7c0,1.1-0.1,2.1-0.2,3.2c0,0.2-0.4,0.3-0.6,0.4c-0.3,0.1-0.6,0-0.7-0.3
		c-0.1-0.4-0.2-0.8-0.3-1.1c-0.1-0.4,0-0.8-0.1-1.2c-0.1-1-0.5-1.7-1.6-2c-0.8-0.2-1.3-0.8-1.5-1.7c-0.1-0.5-0.2-1-0.4-1.5
		c-0.3-0.8-0.3-1.5,0-2.3c0.2-0.6,0.3-1.3,0.4-1.9c0.2-0.6,0.5-1.2,0.7-1.8c0.1-0.2-0.1-0.5-0.3-0.7c-0.3-0.3-0.8-0.4-0.9-0.8
		C50.4,93,49,92.6,47.9,92c-1.1-0.5-2.3-0.5-3.5-0.1C43.9,92.1,43.4,92.5,42.6,92.3L42.6,92.3z M78.7,88.4c0-0.4,0-0.8,0.1-1.3
		c-0.3-0.3-0.6-0.7-1-1.1c-0.6-0.6-1.3-0.9-2.1-0.8c-0.5,0.1-1.1,0-1.5,0.2c-0.7,0.3-1.5,0.5-2.3,0.6c-0.7,0-1.2,0.5-1.6,1
		c-0.3,0.3-0.5,1.1-0.3,1.5c0.3,0.6,0.6,1.2,0.9,1.8c0.2,0.3,0.8,0.6,1,0.4c1.6-1,3.4-1.2,5.1-2.1c0.6-0.3,1.3-0.2,1.9-0.3
		c-0.1,0.2-0.2,0.5-0.4,0.6c-0.3,0.2-0.7,0.4-1,0.6c0.6,0.6,1.5,0.7,2,1.4c0.5,0.6,1.1,1.2,1.5,1.8c0.4,0.7,0.7,1.4,1.5,1.8
		c1.7,0.6,3-0.3,4.3-1.1c0.2-0.5,0.4-1,0.6-1.3c-0.5-2.4-2.4-3.1-4.3-3.8C81.5,88.3,80.1,88.4,78.7,88.4z M73,102.4
		c0.1-0.7,0.1-1.4,0.2-2c0.1-0.7-0.3-1.3-0.7-1.8c-0.2-0.2-0.4-0.5-0.6-0.5c-1.2-0.3-1.8-1.6-3.1-1.8c-0.6,0.6-1.1,1.1-1.6,1.6
		c-0.7,0.1-1.1-0.2-1.6-0.4c-0.2-0.1-0.6-0.2-0.7-0.1c-0.8,0.6-1.8,0.4-2.6,1c-0.3,0.9-0.6,1.9-0.9,2.9c-0.2,0.8,0.3,1.8,1,2
		c2,0.7,4,1.3,6.2,1.1C70.2,104.4,71.8,103.8,73,102.4z M52.3,102.4c1.4,0.7,2.5,1.4,3.8,1.8c1.2,0.4,2.7-0.3,2.7-1.5s1-2.1,0.9-3.4
		c0.6-0.7,1.1-1.4,1.7-2.2c0.2-0.2,0.3-0.4,0.4-0.7c0.1-0.1,0.1-0.3,0-0.4c-0.4-0.6-0.8-1.1-1.5-1.2c-1.3-0.2-2.6-0.2-3.9,0
		c-0.4,0.1-0.7,0.3-0.9,0.7c-0.2,0.4-0.4,0.7-0.8,0.8c-0.7,0.2-1.1,0.6-1.4,1.3c-0.3,0.7-0.7,1.4-1,2
		C52.3,100.5,52.3,101.3,52.3,102.4z M71,95.2c0.4,0.7,1,1.3,1.7,1.7c1.1,0.5,1.9,1.3,2.4,2.5c0.4,0.9,1.5,1.2,2.3,0.8
		c1-0.6,2-1.2,2.8-2.1c0.6-1.7,0-3.2-0.8-4.6c-0.7-1.2-1.8-2-3.1-2.3c-0.4-0.1-0.8-0.2-1.1-0.3c-0.7,0.3-1.3,0.5-2,0.8
		c-0.5,0.5-1.1,1.1-1.5,1.7C71.4,94,71.2,94.6,71,95.2z M64.5,96.1c0.8-0.2,1.3-0.3,1.8-0.4c0.9-0.1,1.8-0.1,2.8-0.2
		c0.3,0,0.8-0.5,0.8-0.8c0.2-1.2,0-2.4-0.2-3.5c-0.1-0.4-0.4-0.7-0.7-0.9c-0.3-0.2-0.7-0.3-1-0.5c-1.1-0.7-2.1-0.7-3.3,0
		c-1.5,0.8-2.6,1.8-3.4,3.2c-0.1,0.2,0,0.6,0.1,0.7C62.3,94.4,63.4,95.2,64.5,96.1z M93.6,89.9c0.4-0.5,1.4-0.5,1.9-1.3
		c0.2-1.1,0.2-2.3,0.1-3.5c0-0.1,0-0.3-0.1-0.4c0-0.5-0.5-1-1-1c-1.1,0-2.1,0-3.2,0c-0.8,0.4-1.6,0.9-2.4,1.4
		c-0.9,0.6-0.5,1.7-1,2.5c-0.2,0.3-0.2,0.7-0.3,1c0.3,0.7,0.9,1.1,1.6,1.3C90.5,89.9,92,89.9,93.6,89.9z"/>
	<path class="st0" d="M42.7,92.4c0.1,0.6-0.2,1-0.4,1.5c-0.7,1.3-0.5,2.2,0.6,3.2c0.4,0.4,0.8,0.7,1.4,0.8c0.9,0.2,1.9-0.2,2.8,0.2
		c0.7,0.4,1.4,0.7,2.2,0.8c0.1,0,0.3,0.1,0.3,0.2c0.1,0.2-0.1,0.3-0.4,0.4c-0.3,0-0.5,0-0.8,0c-0.7,0.1-1.5,0.9-1.6,1.6
		c-0.1,1.5-0.1,2.9-0.2,4.4c0,0.3-0.3,0.4-0.6,0.4c-0.8-0.2-1.6-0.9-1.6-1.5c0-0.9,0.1-1.9,0.2-2.8c0.2-1.5,0.2-1.7-1-2.1
		s-1.9-1.5-2.9-1.9c-0.4-0.8-0.4-1.6-0.3-2.4c0-0.7,0.3-1.3,0.8-1.8C41.5,93,41.8,92.3,42.7,92.4L42.7,92.4z"/>
	<path class="st0" d="M41.9,89.2c0-0.3,0-0.5-0.1-0.8c-0.2-1.2-1.1-1.8-2.2-1.3c-0.2,0.1-0.5,0.3-0.7,0.3c-1.1,0-2,0.6-2.7,1.4
		c-0.3,0.3-0.5,0.6-0.8,0.9c0,1.2,0,2.3,0,3.5l0.1-0.1c-0.3,0-0.5,0.1-0.8,0c-0.2-0.1-0.5-0.2-0.6-0.4c-0.4-0.7-0.3-1.5-0.4-2.3
		c-0.1-1.3,0.5-2.3,1.7-2.8c0.8-0.4,1.6-0.8,2.5-1.2c1.5-0.7,3-0.7,4.5,0c0.6,0.3,1.2,0.3,1.9,0.3c0.3,0,0.5,0.1,0.8,0.1L45,86.7
		c0,0.1,0,0.3-0.1,0.4c-0.5,0.4-1.1,0.7-1.6,1c-0.4,0.3-0.8,0.7-1.2,1c-0.1,0.1-0.3,0-0.4,0L41.9,89.2z"/>
	<path class="st0" d="M35.4,93.2c0.3,0,0.5-0.1,0.8-0.1c1.1,0,2.1,0.6,2.4,1.7c0.1,0.2,0.1,0.5,0,0.8c-0.2,0.5-0.4,1-0.7,1.6
		c0,1.1,0,2.4,0,3.8c0,0.7,0.1,1.3,0.4,1.9c0.1,0.3,0.1,0.5-0.3,0.6c-0.2,0-0.5,0-0.7-0.1c-0.5-0.3-0.8-0.7-0.9-1.2
		c-0.1-0.9-0.2-1.8-0.2-2.8c0-1.1-0.1-2.1,0-3.2C36.3,95,35.8,94.1,35.4,93.2L35.4,93.2z"/>
	<path class="st0" d="M49.2,108c0.4-0.4,0.9-0.6,1.4-0.4c0.6,0.2,0.8,0.8,0.4,1.3c-0.2,0.3-0.5,0.5-0.8,0.7
		C49.6,109.3,49.1,108.8,49.2,108z"/>
	<path class="st0" d="M93.5,105.4c0.2-0.3,0.4-0.6,0.7-0.9c0.2-0.1,0.5-0.1,0.7,0c0.3,0.1,0.6,0.7,0.4,1c-0.2,0.2-0.4,0.3-0.6,0.4
		c-0.4,0.2-0.8,0.1-1.1-0.2C93.6,105.7,93.5,105.6,93.5,105.4z"/>
	<path class="st0" d="M31.4,65.1c0,0.8,0.2,1.5,0.7,2.2c0.2,0.2,0.1,0.5-0.2,0.7c-0.1,0-0.2,0-0.3-0.1c-1-0.7-1.1-1.7-0.4-2.6
		c0.1-0.1,0.3-0.1,0.4-0.1L31.4,65.1z"/>
	<path class="st0" d="M102.7,79.5c0.2,0.3,0.4,0.7,0.5,1c0.1,0.4-0.2,0.7-0.4,0.9c-0.3,0.3-0.6,0.2-1-0.2c-0.1-0.1-0.2-0.2-0.2-0.3
		c-0.1-0.1-0.1-0.2-0.2-0.4c0.2-0.3,0.4-0.6,0.7-0.9C102.3,79.6,102.6,79.6,102.7,79.5L102.7,79.5z"/>
	<path class="st0" d="M61.4,114.6c-0.6-0.5-0.5-1.1-0.2-1.7c0.1-0.3,0.4-0.4,0.7-0.3c0.4,0.1,0.7,0.5,0.5,0.8
		C62.2,113.9,62,114.3,61.4,114.6z"/>
	<path class="st0" d="M99.3,97.6c-0.2,0.3-0.5,0.6-0.7,0.8c-0.3,0.3-0.7,0.3-1,0c-0.1-0.1-0.2-0.2-0.2-0.3c-0.1-0.3,0.2-0.7,0.5-0.9
		C98.4,97,98.8,97.2,99.3,97.6z"/>
	<path class="st0" d="M67.3,124.6c-0.1,0.4-0.4,0.6-0.8,0.5c-0.4-0.1-0.6-0.3-0.5-0.8c0.1-0.5,0.4-0.7,0.8-0.6
		C67.2,124,67.4,124.2,67.3,124.6z"/>
	<path class="st0" d="M34.6,60.3c0.1,1-0.5,1.8-1.2,2.4c-0.1,0.1-0.3,0-0.4,0.1l0.1,0.1c-0.1-0.5-0.1-1,0.3-1.4c0.4-0.4,0.6-1,1.3-1
		L34.6,60.3z"/>
	<path class="st0" d="M56.8,119.2c-0.2,0.1-0.4,0.3-0.6,0.4c-0.4,0.1-0.8,0.1-1.1-0.3c-0.2-0.4,0.1-0.7,0.4-0.9
		c0.3-0.3,0.7-0.3,1,0.1C56.6,118.7,56.7,119,56.8,119.2z"/>
	<path class="st0" d="M80.1,113.8c0,0.3,0,0.5-0.3,0.7c-0.3,0.2-0.9,0.1-1-0.2c-0.1-0.4,0-0.9,0.3-1C79.6,113.3,80,113.5,80.1,113.8
		z"/>
	<path class="st0" d="M56.7,115.4c-0.3-0.3-0.6-0.5-0.8-0.8c-0.2-0.4,0.3-1.2,0.8-1.1c0.2,0,0.4,0.3,0.5,0.4
		C57.2,114.3,57.2,114.4,56.7,115.4z"/>
	<path class="st0" d="M106.9,98.9c0.5,0,0.7,0.2,0.6,0.7c-0.1,0.5-0.4,0.6-0.7,0.3c-0.2-0.2-0.3-0.4-0.4-0.6
		C106.5,99.1,106.7,99,106.9,98.9z"/>
	<path class="st0" d="M99.1,99.9c0.4-0.1,1.1,0.6,1,0.9c-0.1,0.2-0.4,0.3-0.6,0.4c-0.3,0.1-0.5,0-0.6-0.3
		C98.8,100.5,98.9,100,99.1,99.9z"/>
	<path class="st0" d="M47.3,110.9c0,0.3,0,0.6-0.3,0.7c-0.2,0.1-0.5,0-0.7-0.1c-0.3-0.1-0.2-0.5,0.3-0.9c0.3-0.2,0.5-0.2,0.6,0
		C47.3,110.6,47.3,110.8,47.3,110.9z"/>
	<path class="st0" d="M105.8,110.8c0.1,0.3,0,0.6-0.2,0.7c-0.3,0.2-1.1,0-1-0.2c0.1-0.2,0.2-0.5,0.4-0.7c0.2-0.1,0.4-0.1,0.7-0.2
		C105.7,110.4,105.7,110.7,105.8,110.8z"/>
	<path class="st0" d="M41.6,112.3c-0.3,0-0.5-0.2-0.5-0.4c0-0.2,0.1-0.5,0.2-0.7c0.1-0.1,0.5,0,0.6,0.2c0.2,0.2,0.2,0.4,0.3,0.7
		C42.1,112.1,41.8,112.2,41.6,112.3z"/>
	<path class="st0" d="M51,113.8c-0.1-0.2-0.3-0.3-0.3-0.4c-0.1-0.6,0.2-1,0.7-0.9s0.6,0.4,0.3,0.7C51.5,113.4,51.2,113.6,51,113.8z"
		/>
	<path class="st0" d="M93.1,118.2c-0.1,0.3-0.2,0.5-0.4,0.3c-0.3-0.2-0.5-0.5-0.8-0.7c-0.1-0.1-0.1-0.2,0-0.3
		c0.2-0.2,0.4-0.3,0.7-0.2C92.9,117.5,93.1,117.7,93.1,118.2z"/>
	<path class="st0" d="M64.7,118.3c0,0.5-0.4,1-0.8,1.1c-0.1,0-0.2-0.1-0.2-0.2c-0.2-0.4-0.2-0.8,0.1-1c0.2-0.1,0.5-0.1,0.7-0.1
		C64.5,118.1,64.6,118.2,64.7,118.3z"/>
	<path class="st0" d="M77.6,120.7c0.2,0.2,0.3,0.4,0.2,0.7c-0.1,0.4-0.4,0.6-0.9,0.5c-0.1,0-0.3-0.2-0.3-0.2
		C76.6,121.2,77.2,120.6,77.6,120.7z"/>
	<path class="st0" d="M70.3,123.5c-0.2-0.5-0.4-0.8-0.4-1.2c0-0.2,0.2-0.4,0.3-0.6c0.1-0.1,0.6,0.4,0.6,0.7
		C70.7,122.7,70.5,123,70.3,123.5z"/>
	<path class="st0" d="M85.9,108.2c0,0.1,0,0.3,0,0.4c0,0.1-0.1,0.2-0.2,0.3c-0.3,0.2-0.6-0.3-0.5-0.7c0-0.1,0.2-0.2,0.3-0.3
		C85.7,107.8,85.8,107.9,85.9,108.2z"/>
	<path class="st0" d="M102.8,79.6c0-0.3,0-0.7,0.1-1c0.1-0.4,0.4-0.5,0.7-0.6l-0.1-0.1c0,0.2,0,0.5,0,0.7
		C103.6,79.2,103.3,79.5,102.8,79.6L102.8,79.6z"/>
	<path class="st0" d="M37.8,108.5c-0.1,0.2-0.3,0.4-0.4,0.5c-0.1-0.2-0.3-0.4-0.4-0.6c-0.1-0.3,0-0.5,0.3-0.6
		C37.6,107.7,37.9,108.1,37.8,108.5z"/>
	<path class="st0" d="M32.3,64.4c0-0.4-0.1-0.7,0-1.1c0.1-0.4,0.4-0.6,0.8-0.6L33,62.6c0.1,0.7,0.1,1.4-0.8,1.6L32.3,64.4z"/>
	<path class="st0" d="M85.9,121.4c0,0.1-0.1,0.2-0.2,0.3c-0.2,0.1-0.4,0-0.5-0.3c0-0.1,0-0.3,0.1-0.4c0.1-0.1,0.2-0.3,0.3-0.2
		C85.8,120.9,86,121.1,85.9,121.4z"/>
	<path class="st0" d="M72.9,117.2c-0.1-0.1-0.4-0.3-0.3-0.4c0.1-0.3,0.3-0.3,0.6-0.2c0.3,0.1,0.5,0.2,0.4,0.4
		C73.4,117.1,73.2,117.2,72.9,117.2z"/>
	<path class="st0" d="M100.4,116.2c0.1,0.4-0.2,1-0.4,0.9c-0.2-0.1-0.3-0.3-0.4-0.5c-0.1-0.3,0-0.5,0.3-0.6
		C100,115.8,100.2,115.9,100.4,116.2z"/>
	<path class="st0" d="M87.9,113.4c0.1,0,0.2,0,0.2,0c0,0.2,0.1,0.5,0.1,0.7c-0.1,0.3-0.3,0.3-0.5-0.1c0-0.1-0.1-0.3,0-0.4
		C87.7,113.6,87.8,113.5,87.9,113.4z"/>
	<path class="st0" d="M41.8,89.1c0,0.4,0,0.7-0.1,1.1c0,0.1-0.2,0.3-0.2,0.3c-0.2-0.1-0.3-0.3-0.3-0.5c0.1-0.4,0.3-0.6,0.7-0.7
		L41.8,89.1z"/>
	<path class="st0" d="M84.2,113.3c-0.1,0.3-0.3,0.4-0.4,0.3c-0.1-0.1-0.2-0.4-0.2-0.6c0-0.3,0.3-0.4,0.4-0.3
		C84.3,112.8,84.3,113,84.2,113.3z"/>
	<path class="st0" d="M88.4,112c0.2-0.3,0.6-0.4,0.9-0.3c0.3,0.1,0.4,0.3,0.3,0.5c-0.1,0.1-0.2,0.2-0.3,0.2c-0.1,0-0.3,0.1-0.4,0
		C88.8,112.3,88.6,112.1,88.4,112z"/>
	<path class="st0" d="M59.4,85.9c-0.2,0.2-0.3,0.5-0.5,0.6c-0.2,0.2-0.5,0.1-0.7-0.1l0.1-0.2c0.1-0.1,0.2-0.1,0.4-0.1
		c0.3,0,0.5,0,0.8,0L59.4,85.9z"/>
	<path class="st0" d="M97.7,110.5c-0.2,0.2-0.4,0.3-0.6,0.2c-0.3-0.1-0.4-0.2-0.4-0.4c0.1-0.3,0.3-0.3,0.6-0.3
		c0.1,0,0.2,0.1,0.3,0.2C97.7,110.3,97.7,110.4,97.7,110.5z"/>
	<path class="st0" d="M73.8,110.2c-0.1,0.3-0.3,0.5-0.5,0.4c-0.3-0.1-0.4-0.4-0.3-0.7c0.1-0.3,0.3-0.5,0.5-0.4
		C73.9,109.6,74,109.9,73.8,110.2z"/>
	<path class="st0" d="M31.5,65.2c0.1-0.7,0.1-0.7,0.8-0.8l-0.1-0.1c-0.1,0.5-0.3,0.8-0.8,0.8L31.5,65.2z"/>
	<path class="st0" d="M73.1,30.7c0.1,0.1,0.1,0.3,0.2,0.4c0.6,0.6,1.2,0.6,1.8,0.2c0.8-0.6,1.7-1.3,2.4-2.1c0.6-0.6,1.1-1.1,2-1.1
		c-0.3-0.8-0.7-1-1.2-1.2c-0.4-0.1-0.8-0.1-1.2-0.1c-1.1-0.1-2.1-0.1-3.3-0.2c-0.5-0.6-0.9-1.2-1.4-1.8c-0.4-0.5-0.9-1-1.4-1.4
		c-1.3-1.4-3-2.1-4.7-2.9c-0.1-0.1-0.3-0.1-0.4-0.1c-0.7,0-1.3,0-2.1,0c-0.8,0.9-2.3,1.2-2.9,2.5c-0.5,0.4-1,0.9-1.6,1.1
		c-1.3,0.5-2.3,1.3-3.1,2.4c-0.6,0.7-1.1,1.5-1.7,2.2c-0.4,0.5-0.9,0.5-1.4,0.4l0.1,0.1c0.4-1.8,1.7-2.9,2.9-4.2
		c0.4-0.4,0.8-0.8,1.2-1c1.5-0.9,2.7-2.1,3.9-3.4c0.9-1,1.9-1.8,2.9-2.7c0.8,0.3,1.5,0.7,2.2,0.8c0.9,0.2,1.7,0.7,2.5,1.1
		c0.7,0.4,1.3,0.9,2,1.3c1,0.5,1.8,1.2,2.2,2.2c0.5,1,1.3,1.7,2.1,2.4c0.2,0.1,0.5,0.1,0.7,0.1c0.1-0.1,0.2-0.2,0.3-0.3
		c0.6-0.8,1.4-1.2,2.4-1.2c1.5,0,2.9,0,4.4,0c0.4,0.1,0.7,0.3,1.1,0.4c0.6-0.2,1.2-0.5,1.8-0.8c0.5-0.3,0.9-0.6,1.5-0.5
		c1.3,0.2,2.3-0.7,3.4-0.8c0.8-0.5,1.5-1.1,2.3-1.6c0.9-0.5,1.4-1.5,2.4-2c0.9-0.5,1.6-1.4,2.1-2.4c0.4-0.7,1-1.2,1.6-1.8
		c0.9-1,1.9-1.9,2.5-3.1c0.2-0.5,0.6-0.9,1-1.2c0.8-0.6,1.1-1.5,1.5-2.3c0.2-0.4,0.6-0.9,1.2-0.9l-0.1-0.1c0.2,0.3,0.4,0.7,0.6,1
		c0,0.1,0.1,0.3,0,0.4c-0.5,0.8-0.7,1.8-1.6,2.3c-1.2,0.6-2.1,1.5-2.7,2.8c-0.1,0.2-0.3,0.4-0.5,0.6c-0.7,0.9-1.7,1.6-2.4,2.7
		c-0.6,1-1.4,1.9-2.2,2.8c0.2,0.4,0.6,0.9,0.1,1.4c-0.7,0.8-1.6,1.4-2,2.4c-0.3,0.7-1,1.2-1.8,1.4c-0.4,0.1-0.6,0.5-0.8,0.9
		c-0.1,0.3-0.1,0.5,0.3,0.6c1.1,0.2,2.1,0.1,2.7-1.1c1.2-0.9,2.3-1.8,3.5-2.7c0.7-0.1,1.5-0.1,2.3-0.2c0.5,0,1.1,0.5,1.1,0.9
		c0,0.4,0.1,0.8,0.1,1.2c0,1.1,0,2.1-0.1,3.2c0.7,1.6,1.5,3.1,1.9,4.8c0.1,0.4,0.4,0.7,0.7,1c0.2,0.2,0.5,0.3,0.7,0.1
		c0.3-0.2,0.7-0.4,1-0.6c1.5-1.5,3-3,3.9-5c0.3-0.6,0.7-1.1,1.2-1.6c0.4-0.5,0.9-0.9,1.4-1.4c0.7,0.7,1.4,0.7,2.1,0.2
		c0.2-0.2,0.5-0.3,0.6-0.5c0.3-0.3,0.5-0.6,0.7-1c-0.3-0.6-0.9-0.4-1.4-0.5l0.1,0.1c0-0.1,0-0.3,0-0.4c0.6-1,1.5-1.8,2.4-2.5
		c0.5-0.4,1.2-0.6,1.7-0.8c1,0.3,2,0.7,2.4,1.7c0.8,0.4,1.6,0.9,2.5,1.4c0.3,0.5,0.8,1.2,1.1,1.8c0.2,0.3,0.1,0.8,0.1,1.1l0.1-0.1
		c-0.4,0-0.7-0.3-1-0.5c-0.5-0.4-1-0.2-1.5,0.1c-0.1,0.1-0.2,0.1-0.3,0.2c-0.6-0.3-1.2-0.7-1.9-0.3c-0.6,0.3-1.2,0.6-1.9,0.6
		c-2.4,0-4.4,1.2-6.1,2.6c-1.5,1.3-3,2.7-4.1,4.4c-0.8,1.3-2,2.1-2.7,3.2c-0.5,0-0.8,0.1-1,0c-0.8-0.5-1.5-1.1-2.3-1.7
		c-0.5-1-1.1-2-1.4-3.2c-0.2-0.9-0.8-1.7-1.3-2.5c-0.4-0.5-0.9-0.9-1.3-1.4c-0.4,0.1-0.7,0-0.9,0.2c-1.4,0.7-2.8,1.5-4.2,2.2
		c-0.8,0.4-1.6,0.8-2.6,0.9c-1.2,0.2-2.3,0.6-3.6,1c-0.5,0.4-1.1,0.9-1.6,1.5c-1.6,1.6-3.2,3.2-4.9,4.7c-0.7,0.6-1.6,1-2.4,1.5
		c-0.3,0.2-0.9-0.2-0.9-0.5s0-0.6,0.3-0.7c1-0.4,1.7-1.1,2.2-2.1c0.3-0.7,1-1.3,1.5-1.9c1.2-1.3,2.4-2.5,3.6-3.8
		c0.2-0.2,0.1-0.5-0.2-0.7s-0.6-0.5-1-0.6c-0.8-0.2-1.6-0.3-2.4-0.2c-0.3,0.1-0.5,0.2-0.7,0.3c-1,0.9-2.1,1.6-2.9,2.8
		c-0.6,0.2-1.2,0.4-1.7,0.6c-0.5-0.2-0.8-0.4-1.2-0.5c-1.4,0.5-2.6,1.3-3.8,2.1c-0.5,0.4-1.1,0.8-1.4,1.4c-0.9,1.4-2,2.5-3.1,3.6
		c-1,1-1.5,2.2-2,3.4c-0.2,0.5-0.1,1.1-0.2,1.6c-0.1,0.4-0.3,0.7-0.7,0.8c-0.1-0.2-0.2-0.4-0.3-0.6c-0.1,0.1-0.1,0.1-0.2,0.2
		c0.2,0.1,0.4,0.2,0.7,0.3c-0.2,0.9-0.4,1.8-1.3,2.3c-0.3-0.3-0.7-0.7-1.1-1.1c0.2-0.5,0.3-1,0.5-1.6c-0.2-0.6-0.7-1.2-0.5-2
		l-0.1,0.1c1.4-0.6,2.3-1.8,3.1-3c1.2-1.8,2.3-3.6,3.8-5.2c0.9-1.9,2.8-2.8,4.4-3.8C72.5,30.5,72.8,30.6,73.1,30.7L73.1,30.7z"/>
	<path class="st0" d="M153.2,24.3c0-0.7,0-1.3,0-1.9c0.3-0.2,0.5-0.5,0.7-0.5c0.4-0.1,0.8-0.1,1.1,0c0.4,0.1,0.7,0.4,0.9,0.7
		c0.8,0.8,1.8,1,2.8,1.5c0.4-0.2,0.8-0.3,1.1-0.5c0.7-0.6,1.4-1.2,2-1.9c0.7-0.8,1.5-1.4,2-2.2c1.3-0.1,2.1,1,3.2,0.9
		c1,0.4,1.9,0.9,2.9,1.3c1,0.4,1.9,0.9,2.9,1.2c1,0.3,1.9,0.8,2.9,1.2c1.1,0.1,2.1,0.2,3.1-0.3s2.2-0.1,3.1-0.7
		c0.8-0.6,1.8-0.5,2.6-0.9c0.6-0.3,1.3-0.3,1.9-0.4c0.4-0.1,0.7-0.3,1.1-0.5c0.4-0.3,0.8-0.8,1.2-0.9c0.8-0.2,1.3-0.9,2.1-0.9
		l-0.1-0.1c0.1,0.3,0.2,0.7,0.6,0.5c0.1,0,0.2-0.4,0.3-0.6l-0.1,0.1c0.3,0,0.6,0.1,0.6,0.4c0,0.2,0.1,0.6-0.1,0.7
		c-0.7,0.6-1.5,1.1-2.2,1.7c-1.2,0.9-2.1,2.1-3,3.2c-0.3,0.4,0.1,1,0.7,1.1c0.3,0,0.5,0,0.8,0.1l-0.1-0.1c-0.1,0.5,0.4,0.1,0,0.4
		c-0.8,0.7-1.8,1-2.6,1.7c-0.1,0.1-0.5-0.1-0.7-0.1c-1.2,0.2-2.3,0.5-3,1.6c-0.4,0.6-0.7,1.1-1,1.7c-0.3,0.6-0.5,1.2-0.8,1.8
		c-0.3,0.4-0.8,0.7-1,1.2c-0.9,2-2.4,3.4-4.1,4.8c-0.2,0.2-0.3,0.4-0.2,0.7c-0.6,0.1-0.8,0.2-0.6,0.5c0.1,0.1,0.2,0.1,0.3,0.1
		c0.3-0.1,0.4-0.3,0.3-0.6c0.5,0,1.1,0.1,1.6-0.1c1.5-0.5,2.9-1.3,4.4-1.8c0.6-0.2,1.1-0.7,1.6-1.1c0.3,0.1,0.6,0.2,0.9,0.3
		c0.5-0.5,0.9-1.3,1.8-1.4c0.5,0,1-0.3,1.5-0.5c0.4,0.3,0.8,0.7,1.2,1c0.1,0.1,0.3,0.1,0.4,0.1c0.3-0.1,0.4-0.4,0.3-0.7
		c-0.1-0.4-0.4-0.7-0.6-1.1c0.3-0.2,0.5-0.5,0.9-0.7c0.4-0.2,0.9-0.2,1.1,0.1c0.6,1,1.3,2,1.8,3.1c0.7,1.4,1.4,2.9,2.3,4.2
		c0.2,0.3,0.1,0.8,0.2,1.2l0.1-0.1c-1-0.1-1.6-0.8-2.4-1.2c-0.9-1-1.2-2.4-2.2-3.3c-1.1-0.2-2.1-0.4-3.1,0.4
		c-1.4,0.3-2.6,1.3-4.2,1.1c-1.7,0.6-3.6,0.9-5.2,1.9c-0.7,0.4-1.4,0.8-2.1,1.1c-0.7,0.1-1.3,0.2-2.1,0.3c-0.3,0.2-0.6,0.4-0.9,0.7
		c-0.7,0.6-1.3,1.3-2.2,1.6c-0.9,0.3-1.6,0.9-2.5,1.2c-1,0.4-2,0.7-2.9,1.2c-0.8,0.4-1.7,0.8-2.5,1.2c-0.5,0.2-1,0.3-1.6,0.3
		c-0.2,0-0.3-0.3-0.5-0.4c0.3-0.6,0.7-1.1,1.1-1.8c1.3-0.1,2.6-0.4,3.8-1c1.3-0.7,2.6-1.4,3.6-2.4c0.6-0.5,1.2-1.1,1.8-1.5
		c2.3-1.7,4.2-3.6,5.8-6c0.2-0.3,0.5-0.6,0.7-0.9c0.8-0.9,1.6-1.7,2.5-2.6c0.7-0.8,0.9-1.9,1.8-2.6c0.4-0.3,0.5-0.9,0.7-1.4
		c0.2-0.4,0.1-0.8-0.3-0.9c-0.7,0-1.3,0-2-0.1c-0.8-0.1-1.2-0.5-1.3-1.3c0-0.3-0.2-0.5-0.3-0.7c-0.1,0-0.2,0-0.3,0.1
		c-0.8,0.3-1.5,0.5-2.3,0c-1.2-0.7-2.4-1-3.7-1.4c-1.2-0.4-2.3-0.7-3.5-0.7c-1.6,0-3.2,0-4.8,0c-0.8,0.3-1.5,0.6-2.2,1
		c-0.5,0.2-0.9,0.6-1.1,1.1c-0.3,0.8-0.7,1.4-1.4,1.9c-0.3,0.2-0.6,0.5-0.9,0.8c-0.9,0.9-1.8,2-2.3,3.2c-0.3,0.8-0.9,1.6-1.3,2.4
		c0,1,0,1.9-0.1,2.9c0,0.3-0.3,0.4-0.6,0.4c-0.3,0-0.6,0-0.7-0.3c-0.1-0.4-0.2-0.7-0.3-1.1c-0.2-0.8-0.5-1.5-1.4-1.8
		c-1.2-0.4-1.7-1.2-1.6-2.4l-0.1,0.1c1,0,1.4,1.1,2.3,1.3c0.3,0.1,0.5,0,0.7-0.3c0.4-0.9,0.3-1.8,0.3-2.7c0.1-1.6,0-3.2,0.1-4.8
		C152.6,24.6,152.9,24.3,153.2,24.3c0.1,0.3,0.1,0.6,0.1,1c0,0.1,0.1,0.2,0.2,0.3c0.2,0.1,0.4,0,0.5-0.3c0.1-0.3,0-0.7,0-1.1
		c0.3,0.1,0.5,0,0.6-0.3c0-0.1-0.2-0.2-0.2-0.2c-0.3,0.1-0.4,0.3-0.3,0.6C153.8,24.3,153.5,24.3,153.2,24.3z"/>
	<path class="st0" d="M17.7,72.4c0.1-0.7,0.7-1.1,1.3-1.4c0.6-0.3,1.1-0.7,1.3-1.4c0.2-0.5,0.5-1,1-1.2c0.7-0.3,1.2-0.7,1.3-1.4
		c0.2-1,0.7-1.8,1.4-2.3c1.1-0.9,1.7-2,2.3-3.2c0.3-0.6,0.7-1.1,1.1-1.6c1.3-1.5,2.3-3.3,3.7-4.7c0.3-0.3,0.6-0.6,0.7-1
		c0.5-1.3,1.5-2.2,2.4-3.1c1.1-1,2-2,2.9-3.3c0.9-1.4,2-2.8,3.2-4.1c1.3-1.4,2.2-3,3.5-4.4c1.3-1.4,2.2-3,3.3-4.5
		c1.5-2.2,3.4-4.1,5.4-5.8c0.1-0.1,0.3,0,0.4-0.1l-0.1-0.1c0,0.4,0,0.8,0,1.1c-1.6,1.9-3.6,3.3-4.8,5.4c-1.2,2-2.8,3.8-3.8,6
		c0.2,0.1,0.3,0.3,0.4,0.2c0.3,0,0.6,0,0.8-0.2c1.6-1.3,3.5-1.9,5.4-2.6c0.2-0.1,0.4,0.1,0.5,0.4c0.1,0.3,0,0.6-0.3,0.7
		c-0.5,0.2-1,0.4-1.4,0.6c-0.6,0.3-1.2,0.6-1.7,1c-1.3,1.2-2.7,2.1-4.3,2.8c-1.4,0.6-2.3,1.7-3.7,2.3c-0.4,0.2-0.8,0.7-1.1,1.2
		c-1.1,1.9-2.4,3.5-3.8,5.1c-0.4,0.5-0.9,1-1.4,1.5c-1.2,0.9-1.9,2.2-2.8,3.3c-0.9,1.2-1.5,2.5-2.6,3.5c-0.4,0.4-0.7,0.8-0.9,1.3
		c-0.4,1-1.4,1.6-1.6,2.7c-0.7,1-1.1,2.2-1.8,3.1c-0.6,0.8-1.7,1.3-2.4,2.1c-0.6,0.7-1.3,1.3-1.7,2.2c-0.3,0.7-1,1.2-1.6,1.8
		c-1.3,1.3-2.6,2.7-4,4c-1.3,1.2-2.5,2.4-4,3.2c-1,0.6-1.9,1.4-2.9,2.1c-0.5,1.4-1.9,1.8-2.9,2.6c-1.1,0.9-2.5,1.4-4,1.7
		c-0.3,0-0.4-0.3-0.4-0.5c0.1-0.8,0.6-1.2,1.2-1.4c0.8-0.3,1.5-0.5,2.2-0.9c1.2-0.8,2.4-1.6,3.5-2.7c0.7-0.8,1.6-1.4,2.2-1.9
		c0.6-0.8,0.4-1.8,1.2-2.3c1.1-0.7,2.2-1.5,3.2-2.4c1-0.9,1.9-1.9,2.9-2.8c0.4-0.4,0.7-0.8,1.3-0.9c-0.1,0.3,0,0.5,0.3,0.6
		c0.2,0.1,0.4,0,0.3-0.2C18.3,72.4,18,72.3,17.7,72.4z"/>
	<path class="st0" d="M243.1,34.7c-0.1-0.7,0.1-1.3,0.6-1.8s1-0.9,1.3-1.3c0.7-0.2,1.1,0.1,1.6,0.4c0.3-0.2,0.4-0.4,0.2-0.7
		c-0.2-0.4-0.4-0.7-0.5-1c-0.1-0.2,0-0.5,0.1-0.7c0.1-0.2,0.4-0.3,0.6-0.4l-0.1-0.1c0.1,0.2,0.3,0.5,0.5,0.6c0.3,0.2,0.9,0.1,1-0.3
		c0.1-0.2,0.1-0.5,0-0.7c-0.1-0.2-0.4-0.3-0.6-0.5l0.1,0.1c0-0.1,0-0.3,0-0.4c0.2-0.9,0.6-1.3,1.3-1c0.5,0.2,1,0.4,1.5,0.6
		s1.1-0.2,1.2-0.7c0.1-0.3,0-0.5,0.1-0.8c0.1-0.8,0.8-1.2,1.4-0.9c1.4,0.5,2.6,1.2,3.6,2.4c1,1.1,2.4,1,3.7,0.7
		c0.2-0.1,0.5-0.2,0.7-0.4c1-1,2-2.2,2.5-3.5c0.3-0.7,0.8-1.1,1.4-1.5c2-0.3,4.2,0,6.4-0.2c1.5-0.5,3-1.6,4.8-1.7
		c-0.6-0.8-1.3-0.5-1.9-0.8c-0.5-0.2-0.9-0.5-0.8-1.1c0.5-0.2,1-0.5,1.5-0.8c0.9,0.4,1.9,0.8,2.8,1.1c2.5,0,4.9,0.1,7.2,0.1
		c0.4,0.2,0.8,0.4,1.2,0.5c1.5,0.5,2.4,1.6,2.6,3.2c-0.6,0.3-1.3,0.2-2,0.1c-0.4-0.1-0.7-0.3-0.9-0.7c-0.2-0.5-0.5-0.3-0.9-0.2
		c-0.9,0.4-1.1,0.3-1.5-0.6c-0.3-0.6-0.3-0.6-0.8-0.4c-0.6,0.3-1.2,0.6-1.9,0.5c-0.7,0-1.3-0.1-2-0.1c-0.9,0.1-1.8,0.1-2.7,0.6
		c-0.8,0.5-1.7,0.6-2.3,1.4c-0.2,0.3-0.6,0.5-0.9,0.7c-0.6,0.4-1.2,0.6-1.8,0.1c-0.6-0.4-1.2-0.5-1.8-0.1c-0.4,0.3-1,0.4-1.5,0.4
		c-0.4,0-0.8,0-1.1,0c-1.4,0.7-2.8,1.2-3.4,2.7c-0.1,0.2-0.4,0.3-0.7,0.4c-0.5,0.2-0.9,0.5-1.6,0.8c-1,0-2.2,0-3.4,0
		c-0.4,0-0.8-0.1-1.2-0.2c-0.7-0.4-1.2-0.3-1.9,0c-0.6,0.3-1.3,0.4-1.9,0.5c-0.7,0.8-1.6,1.3-2.6,1.8c-0.2,0.1-0.5,0.3-0.6,0.6
		c-0.6,1.3-1.8,1.9-3.1,2.4c-0.5,0.8-1,1.7-1.6,2.3c-1.4,1.2-1.8,2.9-2.7,4.3c0.6,0.8-0.1,1.5-0.2,2.2c-0.1,1.2-0.2,2.4-0.3,3.6
		c-0.3-0.1-0.5-0.2-0.8-0.3c-0.4-0.2-0.6-0.6-0.6-0.9c0-1.2,0.1-2.4,0.2-3.6c0.9-0.7,0.5-2,1.2-2.9c0.3-0.3,0.4-0.7,0.7-1
		c0.5-0.7,0.5-1.5,0.5-2.3l-0.1,0.1c0.5-0.1,0.9-0.3,0.8-0.9c0.6-0.1,0.8-0.2,0.6-0.4c0-0.1-0.2-0.1-0.3-0.1
		c-0.2,0.1-0.3,0.3-0.2,0.6C243.6,34.7,243.3,34.6,243.1,34.7L243.1,34.7z M265.6,23.8l0.3,0.2v-0.3L265.6,23.8z"/>
	<path class="st0" d="M118.8,49.9c0-0.1,0-0.3,0.1-0.4c1.2-1.2,2-2.8,2.7-4.4c1.2-1.2,2.5-2.4,3.5-3.3c1.1-0.8,2.1-0.5,2.9-0.9
		c1-0.5,2.1-0.5,3.1-0.6c0.9-0.1,1.9-0.1,2.8-0.1c1.3,0,2.7,0,3.8,0.1c2.5,0.7,3.9,2.5,5.5,4.1c0.2,0.2,0.3,0.4,0.4,0.7
		c0.5,1.4,1.4,2.5,2.4,3.6c0.5,0.5,0.8,1.1,0.9,1.8c0.1,0.4,0.3,0.7,0.6,1c0.8,0.5,1.4,1.2,1.9,2c1.2,1.8,2.8,3.2,4.5,4.5
		c0.9,0.6,1.8,1.2,3,0.9c0.3-0.1,0.9,0.1,1.1,0.3c1.2,1.2,2.7,1.7,4.1,2.4c0.5,0.2,1,0.4,1.4,0.7c0.6,0.3,1.2,0.6,1.9,0.6
		c0.4,0,0.8,0.1,1.2,0.2c1,0.3,2,0.7,3,1c1,0.4,2.1,0.1,3.1,0.5c0.1,0,0.3,0.1,0.3,0.2c0.1,0.2,0.3,0.5,0.2,0.7
		c-0.1,0.2-0.4,0.4-0.6,0.4c-0.5,0-1.1,0-1.5-0.3c-1.3-0.8-2.9-0.3-4.2-1.2c-2.2,0.1-4.1-0.8-6.1-1.5c-0.1,0-0.3-0.1-0.4-0.1
		c-1.4,0-2.5-0.7-3.6-1.5c-0.2-0.1-0.5-0.1-0.8-0.2c-0.5,0.4-1,0.8-1.6,1.3c-0.3-0.1-0.7-0.3-1-0.4c-0.5-0.2-1-0.3-1.6-0.1
		c-0.5,0.2-1,0.4-1.5,0.6c-0.6,0.2-1.3,0.3-2,0.2l0,0c0.1-0.2,0.1-0.6,0.2-0.7c0.4-0.3,0.9-0.7,1.3-0.8c1.3-0.3,2.5-0.9,3.6-1.6
		c0.3-0.2,0.3-0.6,0.1-0.6c-1.4-0.6-2.4-1.5-3.4-2.7c-0.7-0.8-1.4-1.6-2.2-2.3c-1.2-1.1-2.2-2.4-2.8-3.8c-0.4-0.9-1-1.5-1.6-2.2
		c-0.7-0.8-1-1.8-1.8-2.6c-0.7-0.6-1.2-1.4-1.6-2.2c-0.3-0.6-0.9-1-1.5-1.2c-0.4-0.1-0.8-0.2-1.1-0.4c-0.7-0.4-1.5-0.5-2.3-0.5
		c-1.5,0-2.9,0.1-4.4,0.1c-1.2,0-2.3,0.8-3.5,0.9c-0.2,0-0.5,0.3-0.7,0.4c-2,1.9-4.2,3.7-5.7,6.1c-0.2,0.3-0.5,0.6-0.8,0.9
		C119.9,49.8,119.4,50,118.8,49.9L118.8,49.9z"/>
	<path class="st0" d="M116.3,63.5c0.1,0.8,0.7,1.1,1.3,1.3c0.7,0.3,1.5,0.3,2.3,0c0.2-0.1,0.4-0.4,0.5-0.5l-0.1,0.1
		c1.3,0.4,2.3,1.2,3.2,2.1c0,0.3,0.1,0.6,0.1,0.9c-0.1,0.8-0.7,1.2-1.4,0.9c-0.2-0.1-0.5-0.3-0.7-0.4c-0.3-0.2-0.6-0.5-0.9-0.7
		c-0.5-0.1-1.1-0.3-1.6-0.3c-1.7,0.2-3.1-0.7-4.7-0.8c-1.3-1-2.8-0.8-4.2-0.7c-0.4,0-0.8,0.1-1.2,0.1c-1.3,0.5-1.8,2-3.2,2.4
		c-0.1-0.2-0.1-0.5-0.2-0.7c-0.1-0.2-0.4-0.2-0.7-0.1c-0.1,0.1-0.3,0.2-0.3,0.2c0,0.2,0.2,0.4,0.5,0.4s0.5,0,0.8,0
		c-0.1,0.4-0.1,0.8-0.2,1.1c-0.9,1.1-2.5,1.1-3.2,2.4c-1,0.9-2,1.7-3.1,2.6c-0.4,0.3-0.8,0.7-1.2,1c-0.5-0.3-0.5-0.7-0.4-1.1
		c0.1-0.4,0.3-0.7,0.5-1.1c0.4-0.7,1-1.2,1.3-2c0.2-0.6,0.8-1,1.5-1.3c1.2-0.6,1.6-1.7,1.6-3c0-0.1,0.1-0.3,0.1-0.4
		c0.4-0.6,1.1-0.6,1.7-0.8c0.2-0.1,0.3-0.2,0.4-0.3c1-1.4,1.7-3,3-4.2c1.3-1.2,2.3-2.6,3.6-3.8c2.3-2.2,4.6-4.4,6.8-6.7
		c0.1-0.1,0.3,0,0.4,0l0,0c0,0.4,0.1,0.9-0.2,1.1c-1,1.1-1.9,2.3-2.9,3.3c-1.9,1.7-3.6,3.6-5.3,5.4c-0.4,0.4-0.6,0.9-0.5,1.5
		c0,0.3,0.1,0.5,0.4,0.6c0.4,0.1,0.8,0.2,1.1,0.2c0.9,0,1.8-0.1,2.7-0.1c0.9,0.5,1.4,1.4,2.4,1.7L116.3,63.5z"/>
	<path class="st0" d="M105.2,7.4c0-0.4-0.1-0.8,0.1-1.1c0.6-0.8,1.3-1.5,1.9-2.2c0.1-0.1,0.2-0.1,0.4-0.1c0.1,0.2,0.2,0.4,0.3,0.6
		c0.1-0.1,0.1-0.1,0.2-0.2c-0.2-0.1-0.4-0.2-0.6-0.3c0.6-1.5,1.6-2.7,2.8-3.8c0.4-0.3,1.5-0.4,1.9-0.1c0.2,0.1,0.4,0.3,0.6,0.5
		c0.5,0.5,1,0.9,1.7,1c0.4,0.1,0.8,0.2,1.1,0.4c1.1,0.4,2.2,0.9,3.4,1.1c1.4,0.2,2.9,0.1,4.4,0.1c1.2,0,2.4-0.1,3.6-0.2
		c1.4-0.7,2.9-1.4,4.3-2c0.8-0.3,1.6-0.4,2.3,0c1,0.4,1.9,0.9,3,1.4c1.2,0.1,2.6,0.1,4,0.2c0.4,0.3,1,0.7,1.5,1.1
		c1.4,1.5,3.4,2.2,4.6,3.8c0.9,0.5,1.9,1,3,1.6c0.6,0.6,0.9,2,2.3,2.2c0.6,0.6,1.1,1.1,1.7,1.7c0.2,0.2,0.1,0.4-0.3,0.6
		c-0.1,0-0.3,0-0.4,0c-0.1,0-0.3,0-0.4-0.1c-1.8-1.6-3.9-2.8-5.8-4.1c-1.5-1-2.8-2-4-3.3c-0.6-0.7-1.3-1.3-2.1-2
		c-1.3-0.4-2.8-0.2-4.1-0.1c-1.2-0.6-2.3-1.2-3.4-1.6c-1.1-0.4-2.3-0.4-3.5,0.2c-1.4,0.8-2.8,1.5-4.4,2c-0.5-0.2-1-0.4-1.5-0.5
		c-0.2-0.1-0.6-0.1-0.8,0c-1.2,0.8-2.6,0.4-4,0.4c-0.7-0.3-1.5-0.5-2.1-0.9c-0.7-0.5-1.6-0.3-2.3-0.5c-0.6-0.2-1.2-0.5-1.9-0.7
		c-0.1,0-0.3,0-0.4,0c-0.3,0-0.5,0.1-0.8,0.2c-0.2,0.1-0.5,0.3-0.7,0.4c-1.1,1-2,2.1-3.3,2.9c-0.3,0.2-0.4,0.7-0.6,1
		c-0.6-0.2-1.2-0.3-1.8,0.2C105.4,7.4,105.3,7.4,105.2,7.4L105.2,7.4z"/>
	<path class="st0" d="M217.3,16.3c0.4-0.1,0.8-0.1,1.1-0.3c1.4-0.8,2.9-0.8,4.2-0.2c1.4,0.6,2.9,0.4,4.2,1.1
		c1.1,0.1,2.1,0.1,3.1-0.2c0.4-0.1,0.8-0.3,1.1-0.3c0.7-0.1,1.3-0.1,1.5,0.9c0,0.2,0.3,0.4,0.5,0.5c0.2,0.1,0.5,0,0.7-0.1
		c0.2-0.1,0.1-0.3-0.1-0.6c-0.3-0.4-0.1-0.7,0.3-0.7c2.3,0,4.5-0.1,6.6-0.1c0.7-0.3,1.2-0.7,1.6-0.6c1.6,0.2,3.2-0.4,4.7-0.1
		l-0.1-0.1c0,0.3-0.1,0.6-0.3,0.6c-0.5,0.1-1,0.2-1.6,0.2c-0.6,0-1,0.1-1.5,0.4c-0.2,0.1-0.5,0.3-0.7,0.3c-1.2,0-2.3,0.3-3.1,1.4
		c-0.6,0.3-1.2,0.5-1.8,0.8c-1,0.4-2,0.7-2.9,1.1c-0.7,0.3-1.6,0.2-2.3,0.7c-1.6,0.1-3.2,0.5-4.7-0.4c-1.9-0.2-3.6-0.9-5.2-1.8
		c-0.9-0.5-1.9-0.8-3-1c-0.9-0.1-1.7-0.5-2.4-1.1C217.4,16.5,217.4,16.3,217.3,16.3L217.3,16.3z M231.5,17.2l-0.2,0.2h0.3
		L231.5,17.2z"/>
	<path class="st0" d="M216.6,40.2c-0.7,0.2-1.3-0.1-1.9-0.5c-0.6-0.4-1-0.3-1.4,0.1c-1.1,1.2-2.4,2.1-3.3,3.5
		c-0.4,0.6-0.7,1.1-1.1,1.7c-0.4,0.6-0.6,1.2-0.6,1.9c0,0.5,0,1.1,0.1,1.6c0.1,1.6,0.2,3.2-0.6,4.7c-0.4,0.7-0.1,1.6-0.1,2.4l0,0
		c-0.1,0-0.3,0-0.4-0.1c-0.6-0.4-0.4-1.2-0.9-1.7c-0.2-0.3-0.3-0.7-0.3-1.1c-0.1-1.1,0-2.1-0.6-3.1c-0.1-0.2-0.1-0.5-0.1-0.8
		c0-2.1,0-4.2,0-6.2c0.8-0.7,1.5-1.2,2.4-1.5c0.9-0.3,1.7-0.6,2.6-0.8c0.7-0.2,1.3-0.9,2.1-1.2c1.3-0.5,2.6-0.5,3.7,0.6
		c0.2,0.2,0.2,0.5,0.3,0.7L216.6,40.2z"/>
	<path class="st0" d="M60.3,41c-0.5,0.1-0.9,0.5-1.3,0.9c-0.3,0.4-0.3,1.1,0.2,1.4c0.3,0.2,0.6,0.5,0.9,0.7c0.2,0.2-0.1,0.9-0.4,1
		c-0.5,0.1-1,0.2-1.5,0c-0.8-0.4-1.6-0.9-2.4-1.4c-0.5,0.4-0.9,0.7-1.3,1c-0.8,0.5-1.4,1.2-1.9,1.9c-0.2,0.3-0.5,0.6-0.8,0.9
		c-0.3,0.4-0.8,0.6-0.9,0.4s-0.3-0.5-0.3-0.7c0.1-1.2,0.2-2.4,0.7-3.5c0.7-1.7,1.2-3.5,1-5.4c0-0.2,0.1-0.5,0.2-0.7
		c0.1-0.3,0.3-0.4,0.7-0.3c0.3,0,0.6,0.1,0.6,0.4c0.1,1.4,0.1,2.9,0.2,4.3c0,0.2,0.3,0.3,0.5,0.4c0.1,0,0.3,0,0.4-0.1
		c0.3-0.3,0.5-0.6,0.8-0.9c0.1-0.2,0.1-0.5,0.3-0.7c0.2-0.3,0.5-0.7,0.8-0.8c0.8-0.5,1.6-0.8,2.5-1.2c0.2-0.1,0.5,0,0.8,0
		c0.6,0,0.9,0.5,0.8,1C60.5,40.1,60.4,40.6,60.3,41L60.3,41z"/>
	<path class="st0" d="M126,26.7c0.6-0.1,1.3-0.1,1.9-0.2c0.9-1.4,1.6-2.9,2.6-4.1c0.5-0.6,1.5-0.8,2.2-0.4c0.5,0.3,0.9,0.6,1.3,0.9
		c0.3,0.2,0.7,0.3,1.1,0.5c0.6-0.5,1.3-1,2-1.6c0.9,0,1.8,0.1,2.6,0.1c1.2,0.5,1.9,1.7,3.1,1.8c0,0.6,0,1,0,1.4l0.1-0.1
		c-0.2-0.1-0.5,0-0.7-0.2c-1.2-0.9-2.5-0.9-3.7-0.1c-0.1,0.1-0.2,0.1-0.6,0.2c-0.5,0-1.1,0-1.8,0c-0.7,0-1.3,0.1-2,0
		c-0.6-0.1-1.2-0.4-2-0.6c-0.4,0.3-0.8,0.6-1.2,1c-0.2,0.2-0.2,0.5-0.3,0.7c-0.5,1.2-1.4,1.9-2.6,2.2c-0.9-0.1-1.4-0.6-1.9-1.2
		C126,26.9,126,26.7,126,26.7L126,26.7z"/>
	<path class="st0" d="M217.9,49.6c-0.2,0.4-0.4,0.7-0.7,1c-0.5,0.5-0.7,1.1-0.7,1.8c0,0.3,0,0.5-0.1,0.9c-0.5,0.9-1,1.8-1.5,2.9
		c0,0.2,0,0.6,0,1c0,1.9-0.2,3.7,0,5.6c0.1,0.9,0.1,1.9,0.5,2.7c0.1,0.1-0.2,0.4-0.4,0.6c-0.1,0.1-0.2,0.2-0.3,0.2
		c-0.2,0.1-0.5,0-0.5-0.4c-0.1-0.9-0.1-1.8-0.2-2.8c-1.1-2-0.4-4.2-0.5-6.3c0.4-0.8,0.6-1.7,0.7-2.7c0.2-1.2,0.9-2.2,0.8-3.4
		c0.4-0.7,0.7-1.4,1.1-2.1c0.1-0.3,0.8-0.3,1.1,0C217.4,48.9,217.6,49.2,217.9,49.6z"/>
	<path class="st0" d="M231.1,39.4c-0.9,0.1-1.8,0-2.7-0.5c-0.5-0.3-1.1-0.2-1.5-0.1c-1.4,0.4-2.8,0.8-4,1.5c-0.3,0.2-0.7,0.4-1,0.6
		c-1,0.4-1.8,1.1-2.3,2.1c-0.2,0.3-0.3,0.3-1,0c0.1-0.2,0.2-0.5,0.3-0.7c0.2-0.5,0-1-0.3-1s-0.5,0.2-0.8,0.3c-0.6-0.3-1-0.7-1.2-1.4
		l-0.1,0.1c0.9,0,1.8,0,2.7,0c0.7-0.6,1.3-1.1,1.8-1.5c0.2,0,0.3-0.1,0.4-0.1c1.2-0.1,2-0.5,2.3-1.7c0-0.1,0.2-0.2,0.2-0.2
		c1.4,0.1,2.7,0.3,3.9,0.4c1,0.7,1.9,1.4,2.9,2.1c0.1,0.1,0.1,0.2,0.1,0.4L231.1,39.4z"/>
	<path class="st0" d="M147.6,63.5c-0.1,0.2-0.1,0.5-0.2,0.7c-0.5,0.5-1,0.9-2,1.8c-0.3,0.1-1.3,0.6-2.3,1c-0.2,0.2-0.5,0.5-0.7,0.8
		c-0.5,0.8-0.8,1.6-1.3,2.4c-0.1,0.2-0.5,0.3-0.7,0.3s-0.5-0.1-0.6-0.3c-0.3-0.6-0.6-1.2-0.8-1.8c-0.2-0.7-0.9-1-0.9-1.7l-0.1,0.1
		c0.8-0.3,1.3-0.9,1.6-1.6c0.2-0.6,0.7-0.8,1.2-0.8c0.8,0,1.6,0,2.4,0.2c0.6,0.1,1.2,0.3,1.9,0.4c0.4-0.3,0.7-0.7,1.1-1.1
		C146.6,63.5,147.1,63.4,147.6,63.5L147.6,63.5z"/>
	<path class="st0" d="M81.1,44.3c0-0.1,0-0.3,0-0.4c0.8-0.9,1.7-1.7,2.3-2.7s1.8-1.6,2-2.9c0.1-0.3,0.5-0.6,0.8-0.8
		c0.5-0.4,1.1-0.7,1.7-1.1c0.5,0.2,0.8,0.6,0.8,1.2c-0.3,0.2-0.8,0.4-1,0.7c-0.6,1.1-1.4,1.9-2.3,2.8c-0.5,0.5-0.8,1.1-1.2,1.6
		c-0.7,1-1.3,2-2.5,2.5l0.1,0.1C81.8,44.7,81.5,44.4,81.1,44.3L81.1,44.3z"/>
	<path class="st0" d="M81.9,45c-0.2,0.8-0.7,1.3-1.3,1.8c-1.2,1-2.2,2.1-2.8,3.6c-0.1,0.2-0.3,0.4-0.5,0.6c-0.2,0.2-0.4,0.3-0.6,0.4
		c-0.7,0-1.4,0-2,0l0.1,0.1c0.1-0.2,0.1-0.5,0.3-0.7c0.3-0.2,0.7-0.3,1-0.5c-0.1-0.2-0.2-0.5-0.3-0.7c0-0.1,0-0.3,0.1-0.3
		c1.6-1.7,3.2-3.4,4.9-5c0.1-0.1,0.3,0,0.4,0l0,0C81.3,44.7,81.5,45,81.9,45L81.9,45z"/>
	<path class="st0" d="M136.5,65c-0.9,0.1-1.8,0.1-2.7,0.2c-0.5,0.4-1,0.8-1.6,1.2c-0.4,0.3-0.9,0.4-1.5,0.3l0.1,0.1
		c0-0.3-0.1-0.6-0.1-0.9c0.2-0.1,0.4-0.2,0.6-0.3c0,0,0-0.2-0.1-0.2c-0.5,0-0.4,0.3-0.4,0.6c-0.3,0-0.6-0.1-0.9-0.1L130,66
		c0-0.5,0-1.1,0.1-1.6c0.2-1.1,1.3-1.8,2.3-1.5c0.6,0.2,1.1,0.7,1.8,0.2c0.1,0,0.3,0,0.3,0.1c0.7,0.6,1.5,1.1,1.7,2L136.5,65z"/>
	<path class="st0" d="M75.4,53c0,0.1,0.1,0.3,0,0.4C75,54,75,54.6,75.3,55.1c-0.8,1.1-1.5,2.2-2.3,3.3c-0.1,0.2-0.9,0.2-1.1,0
		c-0.6-0.7-0.7-1.5-0.4-2.2c0.6-1.3,1.2-2.6,2.1-3.8c0.1-0.1,0.3-0.1,0.4-0.1l-0.1-0.1c0.2,1,1,0.8,1.7,0.9L75.4,53z"/>
	<path class="st0" d="M219.9,59.1c-0.1-1.3,0-2.3,0.5-3.3c0.3-0.6,0.2-1.3,0.4-1.9c0.1-0.4,0.4-0.7,0.6-1c0.1-0.1,0.3-0.2,0.3-0.2
		c0.2,0.1,0.4,0.3,0.4,0.5c0,0.8,0.1,1.6-0.2,2.3c-0.6,1.6-0.8,3.3-0.7,5c0,0.1-0.4,0.3-0.6,0.4c-0.3,0.1-0.9-0.3-0.9-0.6
		C219.9,59.9,219.9,59.4,219.9,59.1z"/>
	<path class="st0" d="M126.7,70c0.2,0.1,0.5,0.2,0.6,0.4c0.2,0.3,0.4,0.6,0.7,1c0.1-0.6,0.3-0.9,0.3-1.3c0.1-0.4,0-0.9,0.2-1.2
		c0.7-0.9,0.4-2.1,1.1-2.9c0.1-0.1,0.2-0.1,0.4-0.1l-0.1-0.1c0.1,0.5,0.4,0.8,0.9,0.9l-0.1-0.1c0.1,0.6-0.4,0.9-0.7,1.4
		c-0.2,0.5-0.4,0.9-0.6,1.4c-0.1,0.2-0.2,0.6-0.1,0.7c0.7,1-0.2,1.7-0.4,2.5c0,0.2-0.3,0.4-0.5,0.6c-0.2,0.1-0.4,0.2-0.6,0.2
		c-0.8-1.1-1.2-2.3-1-3.7L126.7,70z"/>
	<path class="st0" d="M206.2,12.2c-0.8,0.2-1.6,0.1-2.3-0.3c-0.9-0.4-1.8-0.5-2.7-0.5c-0.5,0-1,0.1-1.5,0.5
		c-0.4,0.3-0.9,0.5-1.5,0.4l-0.1-0.1c0-0.1,0-0.3,0.1-0.4c0.4-0.4,0.7-0.7,1.1-1c1.2-1.1,2.5-1.2,3.9-0.5c0.9,0.5,2.1,0.4,2.7,1.3
		C206,11.8,206,12,206.2,12.2L206.2,12.2z"/>
	<path class="st0" d="M183.4,51c-0.1,0.2-0.1,0.5-0.3,0.6c-0.3,0.2-0.6,0.5-1,0.6c-1.8,0.6-3.1,1.9-4.7,2.9
		c-0.2,0.1-0.3,0.5-0.4,0.7c-0.3,0.3-0.8,0.3-1,0s-0.3-0.9,0-1.1s0.6-0.6,0.9-0.7c0.5-0.2,1-0.4,1.4-0.8c1.4-1.3,3-2.1,4.8-2.5
		C183.2,50.8,183.3,51,183.4,51z"/>
	<path class="st0" d="M249.5,51.4c-0.4,0-0.8-0.1-1.2-0.1c-0.7-1-0.3-2.1-0.3-3.1c0.7-1.4,0.7-3.1,1.7-4.4c0.2-0.1,0.4,0,0.5,0.3
		c0.1,0.2,0.1,0.5,0,0.8c-0.2,0.8-0.6,1.5-0.7,2.2c-0.3,1.3-0.2,2.7-0.1,4C249.4,51.2,249.4,51.4,249.5,51.4L249.5,51.4z"/>
	<path class="st0" d="M63.1,26.1c0.4,0.2,0.5,0.7,0.3,1c-0.3,0.6-0.8,1-1.2,1.5c0.1,0.7,0.8,0.5,1.2,0.9c-0.2,0.3-0.4,0.7-0.7,0.8
		c-0.7,0.4-1.4,0.6-2.2,0.9c-0.3,0.1-0.6,0-0.7-0.2c-0.1-0.2-0.2-0.6-0.1-0.7c0.5-0.9,1.1-1.8,1.7-2.6C61.9,27,62.4,26.4,63.1,26.1z
		"/>
	<path class="st0" d="M190.2,25.9c0.1-0.2,0.2-0.5,0.4-0.6c0.9-0.5,2.1,0,2.9-0.8c0.7,0.3,1.3,0.5,1.7,0.7c0.5,0.6,0.3,1.1,0.5,1.6
		c0.4,0.8,0.8,1.6,1.2,2.4c0.1,0.2,0.1,0.4-0.3,0.5c-0.1,0-0.3,0-0.4,0c-0.7-0.2-1.1-0.7-1.3-1.3c-0.2-0.6-0.1-1.3-0.2-1.9
		c0-0.3-0.5-0.7-0.9-0.7c-1.3,0-2.6,0-3.9-0.1L190.2,25.9z"/>
	<path class="st0" d="M264.7,15.4c-0.4,0-0.8,0-1.1-0.1c-0.4-0.1-0.7-0.5-1-0.6c-0.9-0.2-1.7-0.7-2.6-0.8c-1-0.2-2.1-0.1-3.1-0.1
		c-0.9,0-1.8,0-2.7-0.1l0.1,0.1c0.1-0.2,0.2-0.5,0.4-0.6c0.2-0.1,0.5-0.2,0.7-0.2c0.9,0,1.8,0.1,2.7-0.1c2.1-0.4,3.8,0.6,5.6,1.3
		C264.2,14.5,264.6,14.8,264.7,15.4L264.7,15.4z"/>
	<path class="st0" d="M202.9,31.5c0.3,0,0.5-0.1,0.8-0.1c0.5-0.1,0.8-0.3,0.9-0.6c0.1-0.9,0.1-1.8,0.2-2.7c0-0.3,0.3-0.4,0.6-0.4
		s0.5,0.1,0.6,0.4c0,0.1,0,0.3,0.1,0.4c0,0.7,0,1.3,0,2s-0.3,1.3-0.8,1.7c-0.3,0.2-0.6,0.5-1,0.7c-0.5,0.3-1.1,0-1.2-0.6
		c-0.1-0.3,0-0.5,0-0.8H202.9z"/>
	<path class="st0" d="M214.9,25c0.1,0.6-0.6,0.8-0.8,1.3c-0.1,0.5-0.4,1-0.7,1.4c-0.3,0.4-0.5,0.9-0.8,1.4c-0.2,0.4-0.4,0.5-1.3,0.7
		c-0.7-0.6-1.3-1.4-1.2-2.4l-0.1,0.1c0.6-0.1,0.9,0.5,1.3,0.7c0.5-0.3,0.8-0.7,1-1.2c0.2-0.5,0.5-0.9,0.8-1.3
		C213.7,25,214.3,24.9,214.9,25L214.9,25z"/>
	<path class="st0" d="M175.7,49.1c0-0.1,0-0.3,0-0.4c0.3-0.3,0.5-0.6,0.8-0.8c1.6-0.9,3.3-1.6,4.7-2.8c0.2-0.1,0.5,0,0.8,0
		c0.1,0,0.2,0.1,0.3,0.2c0.2,0.2,0.2,0.4-0.1,0.6c-0.1,0.1-0.1,0.2-0.3,0.3c-1.9,1-3.7,1.9-5.6,2.8
		C176.2,49.2,175.9,49.1,175.7,49.1L175.7,49.1z"/>
	<path class="st0" d="M86,48.3c0.1-0.2,0.1-0.6,0.2-0.7c0.3-0.2,0.7-0.4,1-0.5c-0.1-0.3-0.1-0.5-0.2-0.8c0.4-0.8,1.1-1.5,1.9-1.9
		c0.2-0.1,0.5,0,0.7,0.1c0.3,0.1,0.4,0.4,0.2,0.7c-0.3,0.4-0.5,0.9-0.9,1.3c-0.5,0.5-0.5,1.2-0.7,1.8c0,0.1-0.1,0.2-0.2,0.4
		C87.3,48.8,86.6,48.4,86,48.3L86,48.3z"/>
	<path class="st0" d="M104.4,77.2c0-0.3-0.1-0.6,0-0.8c0.8-1.4,2.9-3.6,4.5-4.8c0.1-0.1,0.3-0.1,0.4,0c0.1,0,0.3,0.1,0.3,0.2
		c0,0.5,0.4-0.1,0,0.3c-1.7,1.7-3.3,3.3-5,5C104.6,77.1,104.5,77.1,104.4,77.2L104.4,77.2z"/>
	<path class="st0" d="M131.3,9c0.2,0.2,0.4,0.5,0.7,0.8c0.3,0.3,0.1,0.8-0.3,0.8c-1.2-0.1-2,0.4-2.5,1.5c-0.1,0.2-0.2,0.5-0.4,0.7
		c-0.2,0.2-0.3,0.4-0.5,0.6c-0.1,0.1-0.2,0.1-0.3,0.1c-0.3-0.1-0.4-0.4-0.3-0.7c0.2-0.9,1.2-1.4,0.9-2.4
		C129.4,9.7,130.1,9.1,131.3,9z"/>
	<path class="st0" d="M93.8,46.5c-0.7,0.6-1.3,1.1-1.9,1.7c-0.6,0.6-1.1,1.2-1.6,1.7c-1.1-0.2-1.1-0.2-0.6-0.9
		c0.3-0.4,0.8-0.8,0.9-1.3c0.2-1,0.9-1.6,1.5-2.3c0.4-0.4,0.7-0.4,1.2,0.3C93.5,45.8,93.6,46,93.8,46.5z"/>
	<path class="st0" d="M111.2,15.3c-1.3-0.8-1.4-1.1-0.9-2.1c0.1,0.1,0.2,0.1,0.3,0.2c0.6,0.4,1.3,0.6,1.8,0c0.7-0.8,1.8-1,2.7-1.6
		c0,0,0.2,0.1,0.3,0.2c0,0.1,0,0.3-0.1,0.4c0,0.1-0.1,0.3-0.2,0.3c-1.1,0.2-1.6,1.4-2.5,1.9C112.2,14.8,111.7,15,111.2,15.3z"/>
	<path class="st0" d="M209.4,25.8c-0.4,0.1-0.7-0.2-1-0.4c-0.6-0.4-1-0.5-1.4-0.1c-0.4,0.3-0.7,0.7-1.1,1.1c-0.1,0-0.2,0-0.3,0
		c-0.1-0.1-0.2-0.2-0.1-0.3c0.1-1,0.7-1.6,1.5-2.2c0.4-0.3,1-0.2,1.5,0.1C209.2,24.3,209.4,25,209.4,25.8L209.4,25.8z"/>
	<path class="st0" d="M224.5,57.9c0.1-0.8,0.1-1.5,0.2-2.2c0-0.1,0-0.3,0.1-0.4c0-0.2,0.8-0.7,1-0.6c0.2,0.1,0.4,0.4,0.4,0.6
		c0.1,1.4-0.3,2.6-1,3.8c0,0.1-0.2,0.1-0.2,0.1c-0.1-0.1-0.2-0.2-0.2-0.3C224.6,58.5,224.5,58.2,224.5,57.9z"/>
	<path class="st0" d="M41,58.7c0,0.3,0.1,0.6,0,0.8c-0.6,1.3-1.2,2.6-1.9,3.9c-0.1,0.1-0.5,0.2-0.7,0.1c-0.3,0-0.6-0.7-0.5-0.9
		c0.7-1.1,1.4-2.2,2.1-3.3C40.3,58.9,40.6,58.7,41,58.7L41,58.7z"/>
	<path class="st0" d="M231,28.2c0,0.3,0,0.5-0.1,0.8c-0.1,0.2-0.3,0.5-0.5,0.6c-0.5,0.2-1,0.2-1.5,0.3c-1.2,0.2-2-0.4-1.8-1.9
		c0-0.1,0.1-0.2,0.2-0.3h0.2c0.1,0.2,0.2,0.5,0.4,0.7c0.6,0.7,1.2,0.9,2.1,0.4c0.2-0.1,0.4-0.3,0.6-0.5
		C230.7,28.3,230.9,28.3,231,28.2L231,28.2z"/>
	<path class="st0" d="M252.7,37.9c0.1-0.4,0-0.9,0.2-1.1c0.7-0.8,1.3-1.7,1.8-2.6c0.1-0.1,0.6-0.1,0.7-0.1c0.2,0.5,0.3-0.2,0.1,0.3
		c-0.5,1.2-1.1,2.4-2.2,3.3C253.1,37.8,252.8,37.8,252.7,37.9L252.7,37.9z"/>
	<path class="st0" d="M140.1,13.5c-0.5-0.1-0.9-0.6-1-1c-0.3-0.7-0.5-1.5-0.7-2.2c0,0,0.2-0.2,0.3-0.2s0.3,0,0.4,0
		c0.7,0.6,1,1.5,1.3,2.3c0.1,0.2,0,0.5,0,0.8C140.3,13.3,140.2,13.4,140.1,13.5z"/>
	<path class="st0" d="M201.1,38.2c-0.2,0.3-0.4,0.6-0.7,0.8c-0.5,0.4-1.2,0.5-1.8,0.3c-0.4-0.1-0.6-0.8-0.4-1.7
		c0.1-0.3,0.3-0.5,0.5-0.3C199.3,38,200.3,37.8,201.1,38.2z"/>
	<path class="st0" d="M170.9,52.3c-0.1,0.2-0.1,0.5-0.2,0.7c-0.5,0.5-0.6,1.1-0.6,1.8c0,0.5-0.2,0.7-0.7,0.6
		c-0.5-0.1-0.7-0.3-0.8-0.7c-0.1-0.4-0.1-0.8,0.1-1.1C169.2,52.8,169.8,52.1,170.9,52.3L170.9,52.3z"/>
	<path class="st0" d="M130,51.7c-0.1-0.8-0.1-1.5,0.4-2.2c0.1-0.2,0.5-0.3,0.7-0.2c0.2,0,0.5,0.3,0.5,0.4c0,0.6,0,1.3-0.1,1.9
		c0,0.3-0.6,0.6-0.9,0.5C130.4,52.1,130.2,51.9,130,51.7z"/>
	<path class="st0" d="M182.4,56.1c0-0.5-0.2-0.9-0.1-1c0.4-0.5,0.8-1,1.3-1.5c0.4-0.4,0.8-0.3,1.2,0.4c0.1,0.1,0.1,0.2,0.1,0.4
		C184.2,54.9,183.4,55.4,182.4,56.1z"/>
	<path class="st0" d="M256.6,43.5c0.2,0.9,0,1.8-0.2,2.7c-0.1,0.3-0.3,0.4-0.6,0.4c-0.3,0-0.5-0.1-0.6-0.4
		C254.9,44.9,255.4,44,256.6,43.5L256.6,43.5z"/>
	<path class="st0" d="M127.5,54.6c-0.1,0.4-0.4,0.7-0.8,0.7c-0.4,0-0.8,0-1.1-0.2c-0.2-0.1-0.4-0.4-0.4-0.6c0-0.5,0-1,0-1.6
		c0-0.4,0.1-0.7,0.2-1.1c0.5,0.2,0.4,0.6,0.4,0.9c0,0.7,0.1,1.3,0.6,1.8c0.3,0.1,0.7,0.1,1.1,0.2V54.6z"/>
	<path class="st0" d="M207.8,55.5c0.4,0,0.7,0.3,0.8,0.7c0.1,0.7,0,1.3,0,2c0,0.3-0.6,0.6-0.9,0.4c-0.5-0.3-0.9-0.5-1.2-1.1
		c0.4-0.3,0.8-0.5,1.2-0.8C207.7,56.3,207.7,55.9,207.8,55.5L207.8,55.5z"/>
	<path class="st0" d="M251.1,41.9c-0.4-1.5,0.5-2.7,1.2-3.9c0.1-0.1,0.2-0.1,0.4-0.1l-0.1-0.1c0.3,1.5-0.3,2.8-1.2,3.9
		c-0.1,0.1-0.2,0.1-0.4,0.1L251.1,41.9z"/>
	<path class="st0" d="M112.7,76.5c0.4,0.5,0.5,0.8,0.3,1c-0.6,0.5-1.3,0.9-1.7,1.6c-0.3,0.4,0.3,0-0.3,0c-0.1,0-0.1-0.2-0.2-0.3
		c-0.1-0.4,0-0.8,0.3-1.1C111.6,77.2,112.2,76.8,112.7,76.5z"/>
	<path class="st0" d="M138.4,55.2c-0.6,0.4-1.2,0.4-1.8,0.3c-0.4-0.1-0.7-0.3-0.8-0.7c-0.2-0.3-0.1-0.5,0.1-0.6
		c0.1-0.1,0.2-0.1,0.3-0.1C137.1,54.2,137.9,54.5,138.4,55.2z"/>
	<path class="st0" d="M34.7,60.4c-0.1-0.5,0-1,0.4-1.5c0.5-0.6,1.1-1.1,1.6-1.7c0.1-0.1,0.3-0.1,0.4-0.1L37,57c0,0.3,0.1,0.5,0,0.8
		c-0.4,1.2-1,1.8-2.4,2.4L34.7,60.4z"/>
	<path class="st0" d="M267.8,17.1c1.5-0.3,2.7,0.4,3.8,1.3c0.1,0.1,0.1,0.2,0.1,0.4l0.1-0.1c-1.9,0.2-1.7-0.1-3.9-1.2
		C267.9,17.3,267.9,17.1,267.8,17.1L267.8,17.1z"/>
	<path class="st0" d="M243.8,24.2c-0.1,0.2,0,0.5-0.2,0.7c-0.3,0.3-0.6,0.5-0.9,0.7c-0.8-0.1-1.2-0.6-1.3-1.3
		c-0.1-0.5-0.1-1,0.4-1.3c0.3,0.4,0.6,0.8,0.8,1.2C243.1,24.2,243.5,24.3,243.8,24.2L243.8,24.2z"/>
	<path class="st0" d="M237.4,33c0,0.3-0.1,0.5-0.3,0.6c-0.5,0.3-1,0.2-1.5,0.1c-0.1,0-0.2-0.2-0.3-0.3c-0.3-0.9-0.5-1.8,0.1-2.6
		c0.7,0.5,0.1,1.6,0.9,2.1C236.6,33,237,33,237.4,33L237.4,33z"/>
	<path class="st0" d="M250.3,14.7c0-0.4,0.3-0.7,0.7-0.8c1.1-0.2,2.2-0.2,3.4,0l-0.1-0.1c0,0.4-0.3,0.7-0.7,0.7
		C252.4,14.5,251.3,14.5,250.3,14.7L250.3,14.7z"/>
	<path class="st0" d="M203,31.4c-0.9-0.2-1.7-0.7-2.3-1.4c-0.1-0.1-0.1-0.3,0-0.4c0-0.1,0.2-0.2,0.3-0.2c0.6,0.3,1.3,0.5,1.8,1
		C202.8,30.7,202.9,31.1,203,31.4L203,31.4z"/>
	<path class="st0" d="M204.6,53.8c-0.1,0-0.3,0-0.4-0.1c-0.6-0.7-0.8-1.5-1.2-2.3c-0.1-0.2,0-0.5-0.1-0.7l-0.1,0.1
		c0.2,0.1,0.5,0,0.7,0.2c0.7,0.6,1.1,1.3,0.9,2.3c0,0.2,0,0.5,0,0.7L204.6,53.8z"/>
	<path class="st0" d="M41.1,58.7c-0.1-1.2,0.5-1.9,1.6-2.3c0.3-0.1,0.5,0.1,0.6,0.3c-0.4,0.9-1.1,1.4-1.8,1.9
		C41.3,58.7,41.1,58.7,41.1,58.7L41.1,58.7z"/>
	<path class="st0" d="M126.1,13c-0.4,0-0.8-0.2-0.8-0.6c-0.1-0.6-0.1-1.3,0-1.9c0-0.1,0.3-0.2,0.5-0.3c0,0,0.2,0.2,0.2,0.3
		c0,0.9,0,1.8,0,2.7L126.1,13z"/>
	<path class="st0" d="M209.4,13.8c0.8,0,1.6-0.1,2.2,0.5c0.1,0.1,0.1,0.3,0,0.4c0,0.1-0.1,0.3-0.1,0.3c-0.7-0.1-1.4-0.3-2-0.8
		C209.4,14.1,209.4,14,209.4,13.8L209.4,13.8z"/>
	<path class="st0" d="M250.2,14.6c0,0.4-0.3,0.7-0.6,0.7c-0.9,0.1-1.7,0.1-2.6,0.1l0.1,0.1c0.1-0.4,0.3-0.7,0.7-0.7
		C248.6,14.7,249.4,14.7,250.2,14.6L250.2,14.6z"/>
	<path class="st0" d="M214.1,15.5c0.9,0,1.7,0,2.6,0.1c0.4,0,0.6,0.4,0.6,0.8l0.1-0.1c-0.8,0-1.7,0-2.5-0.1
		C214.5,16.2,214.3,15.9,214.1,15.5L214.1,15.5z"/>
	<path class="st0" d="M162.1,18.6c-1.3,0.1-1.3,0-2.1-1.1c0.2-0.1,0.5-0.3,0.6-0.3C161.4,17.4,161.9,17.8,162.1,18.6L162.1,18.6z"/>
	<path class="st0" d="M215,25.1c0.2-1.1,0.8-1.6,1.8-1.6c0.3,0,0.5,0.3,0.4,0.5c-0.3,0.6-0.8,1-1.5,1.1
		C215.5,25.1,215.2,25,215,25.1L215,25.1z"/>
	<path class="st0" d="M256.7,43.5c-0.2-1,0.3-1.7,1.2-2.1c0.2,0.2,0.4,0.4,0.3,0.6C257.9,42.7,257.5,43.4,256.7,43.5L256.7,43.5z"/>
	<path class="st0" d="M173.3,50.7c0.1-1,0.8-1.4,1.7-1.6c0.2-0.1,0.5,0,0.7,0l0,0C175.1,50.3,174.7,50.6,173.3,50.7L173.3,50.7z"/>
	<path class="st0" d="M170.9,52.3c0-0.1,0-0.3,0-0.4c0.6-0.7,1.3-1.4,2.4-1.2l-0.1-0.1C172.8,52,172.4,52.2,170.9,52.3L170.9,52.3z"
		/>
	<path class="st0" d="M40.3,53.9c-0.1-0.5-0.1-1,0.3-1.4c0.4-0.4,0.6-1.1,1.3-1l-0.1-0.1c0.1,0.9-0.3,1.6-0.9,2.2
		C40.7,53.8,40.4,53.8,40.3,53.9L40.3,53.9z"/>
	<path class="st0" d="M197.3,13c-0.2,0.9-0.7,1.4-1.6,1.6l0.1,0.1C195.9,13.2,195.9,13.1,197.3,13L197.3,13z"/>
	<path class="st0" d="M194.9,15.4c0,0.3,0,0.5-0.1,0.8c-0.1,0.4-0.3,0.7-0.8,0.8c-0.3,0-0.5,0-0.8,0l0.1,0.1
		C193.5,16.1,194.1,15.7,194.9,15.4L194.9,15.4z"/>
	<path class="st0" d="M243.9,24.3c0-0.6,0.5-0.8,0.8-1.2c0.2-0.3,0.5-0.3,0.6,0c0.1,0.2,0,0.5-0.1,0.7
		C244.8,24.2,244.3,24.2,243.9,24.3L243.9,24.3z"/>
	<path class="st0" d="M146.5,28.8c-0.1,0.1-0.2,0.2-0.3,0.1c-0.2-0.1-0.5-0.2-0.6-0.3c-0.1-0.2-0.1-0.5-0.1-0.7
		c0.1-0.3,0.3-0.2,0.5,0c0.2,0.2,0.3,0.4,0.5,0.6C146.6,28.6,146.5,28.7,146.5,28.8z"/>
	<path class="st0" d="M237.4,33.1c0-0.7,0.5-1.1,1-1.4c0.1,0,0.2,0,0.3,0c0.3,0.1,0.3,0.4,0.1,0.6C238.6,33,238,33.1,237.4,33.1
		L237.4,33.1z"/>
	<path class="st0" d="M85.9,48.2c0,0.4,0,0.8-0.1,1.1c-0.1,0.4-0.6,0.4-1.2,0.1C84.9,49,85.3,48.4,85.9,48.2L85.9,48.2z"/>
	<path class="st0" d="M41.9,51.5c-0.1-0.6,0.4-0.9,0.8-1.2c0.3-0.2,0.5-0.2,0.5,0.2c0,0.1,0,0.3,0,0.4
		C42.9,51.5,42.3,51.5,41.9,51.5L41.9,51.5z"/>
	<path class="st0" d="M38.6,55.5c-0.1,1.4-0.2,1.5-1.6,1.6l0.1,0.1C37.3,56.3,37.8,55.7,38.6,55.5L38.6,55.5z"/>
	<path class="st0" d="M45,60.3c0,0.4,0,0.8-0.1,1.2c-0.1,0.3-0.3,0.4-0.6,0.4c-0.1,0-0.3,0-0.4-0.1c-0.3-0.1-0.3-0.4-0.1-0.6
		c0.3-0.4,0.6-0.9,1.2-0.8V60.3z"/>
	<path class="st0" d="M138.1,66.7c-0.2,0-0.5,0-0.7,0c-0.6-0.1-0.8-0.3-0.9-0.9c0-0.2,0-0.5,0-0.7l-0.1,0.1c0.5,0.3,1,0.6,1.4,1
		C137.9,66.3,137.9,66.6,138.1,66.7L138.1,66.7z"/>
	<path class="st0" d="M61.1,42.6c-0.4,0-0.7-0.2-0.7-0.6c-0.1-0.3,0-0.7-0.1-1l-0.1,0.1c0.4,0,0.7,0.2,0.7,0.6
		C61.1,42,61,42.4,61.1,42.6L61.1,42.6z"/>
	<path class="st0" d="M249.4,51.5c0.4,0,0.7,0,1.1,0.1c0.1,0,0.2,0.1,0.3,0.2c0.1,0.2-0.1,0.4-0.4,0.4
		C249.9,52.3,249.7,52.1,249.4,51.5L249.4,51.5z"/>
	<path class="st0" d="M45.1,60.4c0-0.4,0-0.7,0.1-1.1c0-0.1,0.2-0.3,0.2-0.3c0.3,0.1,0.3,0.3,0.3,0.5c-0.1,0.4-0.3,0.6-0.7,0.7
		L45.1,60.4z"/>
	<path class="st0" d="M235.9,42.6c-0.4,0-0.7,0-1.1,0c-0.4-0.1-0.6-0.4-0.5-0.8l-0.1,0.1c0.7,0,1.3,0,1.6,0.8L235.9,42.6z"/>
	<path class="st0" d="M198.1,46.8c0.7-0.1,1.4-0.1,1.6,0.8l0.1-0.1c-0.3,0-0.7,0-1,0C198.4,47.4,198.3,47.1,198.1,46.8L198.1,46.8z"
		/>
	<path class="st0" d="M236.5,43.5c0.4,0,0.8,0,1.2,0.1c0.1,0,0.3,0.2,0.3,0.2c-0.1,0.2-0.3,0.4-0.5,0.3c-0.4,0-0.7-0.3-0.8-0.7
		L236.5,43.5z"/>
	<path class="st0" d="M120.4,64.3c-0.4,0-0.8,0-1.1-0.1c-0.1,0-0.3-0.2-0.3-0.2c0.1-0.3,0.3-0.4,0.6-0.3
		C120.1,63.7,120.3,63.9,120.4,64.3L120.4,64.3z"/>
	<path class="st0" d="M205.4,55.4c-0.4-0.1-0.6-0.4-0.7-0.8c0-0.3-0.1-0.5-0.1-0.8l-0.1,0.1c0.4,0.1,0.6,0.4,0.7,0.8
		C205.2,55,205.3,55.2,205.4,55.4L205.4,55.4z"/>
	<path class="st0" d="M234.3,41.8c-0.3,0-0.7,0-1-0.1c-0.3-0.1-0.5-0.4-0.6-0.7l-0.1,0.1c0.7-0.1,1.4-0.1,1.6,0.8L234.3,41.8z"/>
	<path class="st0" d="M109.7,79.9c0.1,0.1,0.2,0.2,0.2,0.3c0,0.2-0.1,0.5-0.2,0.6c-0.1,0.2-0.3,0.1-0.4-0.2c0-0.2,0.1-0.4,0.2-0.6
		C109.5,80,109.6,80,109.7,79.9z"/>
	<path class="st0" d="M240.6,37.8c0,0.5,0,1-0.3,1.4c-0.4-1-0.4-1,0.4-1.3L240.6,37.8z"/>
	<path class="st0" d="M240.7,37.9c0-0.2-0.1-0.5-0.1-0.7c0-0.5,0.3-0.9,0.9-0.9l-0.1-0.1c0,0.2,0,0.5,0,0.7c0,0.6-0.2,0.9-0.8,0.9
		L240.7,37.9z"/>
	<path class="st0" d="M210.2,27.4c-0.4,0-0.7-0.2-0.8-0.6c-0.1-0.3,0-0.7,0-1l-0.1,0.1c0.5,0.1,0.8,0.4,0.8,0.9
		C210.2,27,210.1,27.3,210.2,27.4L210.2,27.4z"/>
	<path class="st0" d="M188.6,26.7c0.3-0.8,1-0.8,1.6-0.8l-0.1-0.1c0,0.4-0.2,0.7-0.6,0.7c-0.3,0.1-0.7,0-1.1,0.1L188.6,26.7z"/>
	<path class="st0" d="M267.9,17c-0.4,0-0.7,0-1.1,0c-0.4-0.1-0.6-0.4-0.6-0.8l-0.1,0.1c0.4,0,0.7,0,1.1,0
		C267.7,16.4,267.8,16.7,267.9,17L267.9,17z"/>
	<path class="st0" d="M266.3,16.2c-0.4,0-0.7,0.1-1.1,0c-0.4-0.1-0.6-0.4-0.5-0.8l-0.1,0.1c0.3,0,0.7,0,1,0.1
		C266,15.6,266.2,15.9,266.3,16.2L266.3,16.2z"/>
	<path class="st0" d="M214.2,15.4c-0.4,0-0.8,0.1-1.1,0c-0.3-0.1-0.4-0.3-0.3-0.5c0.1-0.1,0.2-0.2,0.3-0.2
		C213.7,14.6,213.8,14.7,214.2,15.4L214.2,15.4z"/>
	<path class="st0" d="M155.6,14.7c0.4,0,0.7-0.1,1.1,0c0.3,0.1,0.4,0.3,0.3,0.4c-0.1,0.2-0.4,0.3-0.6,0.2
		C156,15.2,155.7,15,155.6,14.7L155.6,14.7z"/>
	<path class="st0" d="M207.7,13.1c0.4,0,0.7,0,1.1,0c0.4,0.1,0.6,0.4,0.6,0.7l0,0c-0.3,0-0.7,0-1-0.1
		C207.9,13.7,207.8,13.4,207.7,13.1L207.7,13.1z"/>
	<path class="st0" d="M125.9,13.1c0.2,0.1,0.5,0.2,0.7,0.3c0.1,0.2,0.1,0.5,0.1,0.7c0,0.1-0.2,0.2-0.3,0.3c-0.1-0.2-0.3-0.4-0.4-0.7
		c-0.1-0.3,0-0.5,0-0.8L125.9,13.1z"/>
	<path class="st0" d="M206.1,12.3c0.2,0,0.5,0,0.7,0c0.6,0,0.9,0.3,0.9,0.8l0.1-0.1c-0.3,0-0.7,0-1-0.1
		C206.4,12.8,206.2,12.6,206.1,12.3L206.1,12.3z"/>
	<path class="st0" d="M147.7,63.5c0.1-0.7,0.1-0.7,0.8-0.8l0,0C148.5,63.3,148.2,63.5,147.7,63.5L147.7,63.5z"/>
	<path class="st0" d="M116.4,63.6c-0.1-0.3,0-0.5,0.2-0.6l0.2,0.1c-0.2,0.1-0.4,0.2-0.6,0.3L116.4,63.6z"/>
	<path class="st0" d="M205.3,55.6c0.2,0.1,0.4,0.1,0.6,0.2V56c-0.5,0.1-0.4-0.3-0.4-0.6L205.3,55.6z"/>
	<polygon class="st0" points="172,55.3 171.9,55.1 172.2,55.1 	"/>
	<path class="st0" d="M38.7,55.5c0-0.5,0.2-0.9,0.8-0.8l-0.1-0.1C39.3,55.4,39.3,55.4,38.7,55.5L38.7,55.5z"/>
	<path class="st0" d="M128.3,53.8c0,0.5-0.3,0.8-0.8,0.8l0.1,0.1c0.1-0.7,0.1-0.7,0.8-0.8L128.3,53.8z"/>
	<path class="st0" d="M40.2,53.9c-0.1,0.7-0.1,0.7-0.8,0.8l0.1,0.1C39.6,54,39.6,54,40.2,53.9L40.2,53.9z"/>
	<path class="st0" d="M128.5,54c0.2-0.7,0.2-0.8,0.4-0.6c0,0,0.1,0.2,0,0.2c-0.2,0.1-0.4,0.2-0.6,0.2L128.5,54z"/>
	<path class="st0" d="M75.6,53.2c0.1-0.2,0.1-0.5,0.3-0.7s0.3-0.1,0.2,0.2C76,53,75.8,53.1,75.5,53L75.6,53.2z"/>
	<path class="st0" d="M74.7,51.4c-0.1,0.7-0.1,0.7-0.8,0.8l0.1,0.1C74,51.7,74,51.7,74.7,51.4L74.7,51.4z"/>
	<path class="st0" d="M203,50.7c-0.5,0-0.8-0.3-0.8-0.8l-0.1,0.1C202.8,50,202.8,50,203,50.7L203,50.7z"/>
	<path class="st0" d="M202.2,49.8c-0.5-0.1-0.7-0.3-0.8-0.8l-0.1,0.1c0.5,0,0.8,0.2,0.8,0.8L202.2,49.8z"/>
	<path class="st0" d="M201.4,49c-0.5,0-0.8-0.3-0.8-0.8l-0.1,0.1C201,48.3,201.3,48.6,201.4,49L201.4,49z"/>
	<path class="st0" d="M199.7,47.5c0.5,0.1,0.7,0.4,0.8,0.8l0.1-0.1c-0.4-0.1-0.9-0.2-0.8-0.8L199.7,47.5z"/>
	<path class="st0" d="M197.3,46c0.5,0,0.8,0.3,0.8,0.8l0.1-0.1C197.8,46.6,197.5,46.3,197.3,46L197.3,46z"/>
	<path class="st0" d="M197.4,45.8c-0.5-0.1-0.7-0.3-0.8-0.8l-0.1,0.1c0.5,0,0.8,0.3,0.8,0.8L197.4,45.8z"/>
	<path class="st0" d="M239.4,44.5c0.1,0.1,0.2,0.1,0.2,0.2c-0.1,0.1-0.2,0.2-0.3,0.2C239.1,44.7,239.1,44.6,239.4,44.5z"/>
	<path class="st0" d="M196.6,45c-0.5-0.1-0.8-0.2-0.8-0.8l-0.1,0.1c0.7,0.1,0.7,0.1,0.8,0.8L196.6,45z"/>
	<path class="st0" d="M195.8,44.2c-0.5,0-0.8-0.3-0.8-0.8l-0.1,0.1c0.7,0.1,0.7,0.1,0.8,0.8L195.8,44.2z"/>
	<path class="st0" d="M236.7,43.4c-0.5-0.1-0.8-0.3-0.8-0.8l-0.1,0.1C236.2,42.8,236.7,42.9,236.7,43.4L236.7,43.4z"/>
	<path class="st0" d="M195,43.4c-0.5-0.1-0.8-0.3-0.8-0.8l-0.1,0.1C194.6,42.7,194.9,43,195,43.4L195,43.4z"/>
	<path class="st0" d="M251,41.8c-0.1,0.3,0,0.7-0.5,0.6c0,0-0.1-0.2,0-0.2c0.2-0.1,0.4-0.2,0.6-0.3L251,41.8z"/>
	<path class="st0" d="M232.6,41c-0.5,0-0.8-0.2-0.8-0.8l-0.1,0.1c0.7,0.1,0.7,0.1,0.8,0.8L232.6,41z"/>
	<path class="st0" d="M230.9,39.5c0.5,0.1,0.8,0.3,0.8,0.8l0.1-0.1C231.3,40.2,231,39.9,230.9,39.5L230.9,39.5z"/>
	<path class="st0" d="M222,37.4c0.1,0.2,0,0.3-0.2,0.3c-0.1,0-0.2-0.2-0.2-0.2s0.1-0.2,0.2-0.2C221.8,37.2,221.9,37.3,222,37.4z"/>
	<path class="st0" d="M242.2,35.4c0,0.6-0.3,0.8-0.8,0.8l0.1,0.1c0.1-0.7,0.1-0.7,0.8-0.8L242.2,35.4z"/>
	<path class="st0" d="M243.1,35.4c-0.3,0-0.6,0-0.9,0l0.1,0.1c0.1-0.7,0.1-0.7,0.8-0.8l-0.1-0.1c0,0.3,0,0.6,0,0.9L243.1,35.4z"/>
	<path class="st0" d="M149.3,31.4c-0.7-0.1-0.9-0.3-0.6-0.5c0.1-0.1,0.2-0.1,0.3-0.1C149.2,31,149.3,31.2,149.3,31.4L149.3,31.4z"/>
	<polygon class="st0" points="147.4,30.2 147.2,30.3 147.2,30.1 	"/>
	<path class="st0" d="M73.1,30.6c-0.1-0.3,0-0.5,0.3-0.6s0.4,0.1,0.3,0.3C73.6,30.6,73.4,30.7,73.1,30.6L73.1,30.6z"/>
	<path class="st0" d="M247.1,29.1c0.1-0.4,0.4-0.7,0.8-0.8l-0.1-0.1c-0.1,0.5-0.3,0.8-0.8,0.8L247.1,29.1z"/>
	<path class="st0" d="M231,28.3c-0.1-0.3,0-0.5,0.2-0.6c0.3-0.1,0.4,0.1,0.3,0.3C231.5,28.2,231.3,28.3,231,28.3L231,28.3z"/>
	<path class="st0" d="M143.6,25.9c0.3-0.1,0.5,0,0.6,0.2c0.1,0.2-0.1,0.4-0.3,0.3c-0.2-0.1-0.3-0.3-0.2-0.6L143.6,25.9z"/>
	<path class="st0" d="M125.2,25.9c0.7,0.1,0.7,0.1,0.8,0.8l0.1-0.1C125.4,26.5,125.4,26.5,125.2,25.9L125.2,25.9z"/>
	<path class="st0" d="M142.8,25.1c0.6,0,0.8,0.3,0.8,0.8l0.1-0.1C143.2,25.8,142.9,25.6,142.8,25.1L142.8,25.1z"/>
	<path class="st0" d="M114.7,23.4c0,0.3-0.1,0.5-0.3,0.6c-0.3,0.1-0.4,0-0.2-0.2c0.1-0.2,0.4-0.3,0.6-0.3L114.7,23.4z"/>
	<path class="st0" d="M271.8,18.7c0.2,0.1,0.4,0.2,0.6,0.3c-0.1,0.1-0.1,0.1-0.2,0.2c-0.1-0.2-0.2-0.4-0.3-0.6L271.8,18.7z"/>
	<path class="st0" d="M191.7,18.6c0,0.3,0,0.6,0,0.9l0.1-0.1c-0.3,0-0.6,0-0.9,0l0.1,0.1c0-0.5,0.3-0.8,0.8-0.8L191.7,18.6z"/>
	<path class="st0" d="M162,18.7c0.7,0.2,0.8,0.3,0.6,0.5c-0.1,0.1-0.2,0.1-0.3,0C162.1,19.1,162,18.9,162,18.7L162,18.7z"/>
	<path class="st0" d="M192.5,17.8c-0.2,0.7-0.2,0.7-0.8,0.8l0.1,0.1C191.9,17.9,191.9,17.9,192.5,17.8L192.5,17.8z"/>
	<path class="st0" d="M192.6,17.9c0.1-0.6,0.1-0.6,0.8-0.8l-0.1-0.1C193.3,17.5,193,17.7,192.6,17.9L192.6,17.9z"/>
	<path class="st0" d="M195,15.5c0.1-0.7,0.1-0.7,0.8-0.8l-0.1-0.1C195.6,15.3,195.6,15.3,195,15.5L195,15.5z"/>
	<path class="st0" d="M155.7,14.6c-0.2-0.1-0.5-0.1-0.6-0.3c-0.1-0.2,0.1-0.4,0.3-0.3C155.6,14.2,155.7,14.4,155.7,14.6L155.7,14.6z
		"/>
	<path class="st0" d="M197.4,13c0.1-0.7,0.1-0.7,0.7-0.9l0.1,0.1C198.2,12.9,197.8,13,197.4,13L197.4,13z"/>
	<path class="st0" d="M117.1,12.3c0.2,0.1,0.5,0.1,0.6,0.2c0.1,0.2,0,0.3-0.3,0.3C117.2,12.7,117.2,12.4,117.1,12.3L117.1,12.3z"/>
	<path class="st0" d="M117.2,12.2c-0.3,0-0.7,0.1-0.6-0.4c0,0,0.2-0.1,0.3,0C117.1,11.8,117.2,12,117.2,12.2L117.2,12.2z"/>
	<path class="st0" d="M110.6,11.9c-0.1,0.1-0.2,0.2-0.2,0.2c-0.3-0.2-0.3-0.4,0-0.5C110.4,11.6,110.5,11.8,110.6,11.9z"/>
	<polygon class="st0" points="95.4,113.7 95.1,113.8 95.1,113.5 	"/>
	<path class="st0" d="M103.4,105.5c0,0.1,0,0.2,0,0.2c-0.2,0.2-0.4,0.1-0.5-0.1c0,0,0.2-0.2,0.3-0.2
		C103.2,105.4,103.3,105.4,103.4,105.5z"/>
	<path class="st0" d="M104.4,96.4c0,0.3-0.1,0.5-0.3,0.6c-0.3,0-0.4-0.1-0.4-0.3c0.1-0.3,0.3-0.4,0.6-0.3H104.4z"/>
	<path class="st0" d="M104.3,96.3c0-0.3,0.1-0.5,0.3-0.6c0.3,0,0.4,0.1,0.4,0.4c-0.1,0.3-0.3,0.4-0.6,0.3L104.3,96.3z"/>
	<path class="st0" d="M103.6,78c0.1-0.7,0.1-0.7,0.8-0.8l-0.1-0.1C104.2,77.8,104.2,77.8,103.6,78L103.6,78z"/>
</g>
</svg>
