<?xml version="1.0" encoding="utf-8"?>
<!DOCTYPE svg PUBLIC "-//W3C//DTD SVG 1.1//EN" "http://www.w3.org/Graphics/SVG/1.1/DTD/svg11.dtd">
<svg version="1.1" id="index_valley" xmlns="http://www.w3.org/2000/svg" xmlns:xlink="http://www.w3.org/1999/xlink" x="0px" y="0px"
	 width="296.9px" height="319.5px" viewBox="0 0 296.9 319.5" style="enable-background:new 0 0 296.9 319.5;" xml:space="preserve"
	>
<style type="text/css">
<![CDATA[
	.st0{fill:#010101;}
]]>
</style>
<g id="index_x5F_valley">
	<path class="st0" d="M154.3,94.3c-0.1-0.4-0.4-0.8-0.8-0.8c-1.9-0.2-3.6-0.9-5.2-1.9c-1.1-0.6-1.9-1.4-2.7-2.6
		c-0.2-1-0.5-2.2-0.7-3.4c0.2-0.5,0.4-1,0.5-1.5s0.1-1,0.2-1.5c0.4-0.5,0.8-0.9,1.1-1.3c1.7-2,3.5-3.6,6-4.4
		c0.5-0.2,0.9-0.5,1.4-0.8c0.8-1.1,1.8-2.3,2.6-3.5c1.3-1.9,2.7-3.6,4.8-4.7c0.8-0.4,0.9-1.1,0.6-2.1c-0.1-0.3-0.2-0.5-0.3-0.7
		c-0.4-0.8-0.3-1.5-0.2-2.5c0.3-0.4,0.8-0.9,1.1-1.5c1.2-2.4,3.4-3.6,5.6-4.8c1.3-0.7,2.5-0.8,3.8-0.1c0.6,0.4,1.2,0.4,1.8,0
		c0.3-0.2,0.7-0.5,1-0.6c0.7-0.1,1.3-0.2,1.9-0.5c0.6-0.2,1.3-0.3,1.9-0.4c0.7-0.5,1.3-1.2,1.6-1.9c0.4-0.8,0.4-1.8,1-2.6
		c0-0.7,0-1.3,0-2.2c-0.8-1.1-1.8-2.3-3.4-3c-1.2-0.5-2.3-1.2-3.6-1.6c-1.5-0.4-2.4-1.6-2.5-3.3c-0.1-1.3-0.1-2.7,0.4-3.9
		c0.4-0.8,0.4-1.5,0-2.3c-0.4-0.9-0.3-1.7,0.1-2.7c1.2-3,3.4-5.1,5.8-6.9c0.4-0.3,0.9-0.6,1.3-0.9c0.5-0.4,1-0.9,1.1-1.6
		c0.3-0.1,0.7,0,0.6-0.5c0,0-0.2-0.1-0.3,0c-0.1,0.2-0.2,0.4-0.3,0.6c-0.6,0-1.1-0.1-1.7-0.1l0.1,0.1c0.1-0.2,0.2-0.5,0.3-0.7
		c1.2-0.8,2.4-1.7,3.5-2.5c1-0.2,1-1.5,2.1-1.7c0.7-0.2,1.4-0.7,2-1.2c1.4-1.1,2.7-2.2,4-3.3c0.4-0.3,0.8-0.7,1.2-1.1
		c0.8-0.8,1.8-1,2.9-0.8l-0.1-0.1c0,0.1,0,0.3,0,0.4c-0.1,0.2-0.3,0.4-0.5,0.6c-1.1,0.9-2.3,1.8-3.4,2.8c-0.9,1-1.9,1.9-3,2.6
		c-0.6,0.4-0.9,1-1.4,1.3c-1,0.7-1.6,1.7-2.6,2.4c-1.1,0.7-1.9,1.8-2.9,2.7c-0.9,0.8-1.7,1.7-2.7,2.4c-0.8,0.7-1.7,1.2-2.7,1.9
		c-0.9,1.7-2.3,3.1-2.8,5.1c0.3,0.4,0.7,0.8,1,1.3s0.4,1,0.6,1.4c0.5,1,1,1.8,2.1,2.3c0.9,0.5,1.9,1,2.7,1.7
		c1.6,1.4,3.3,2.7,4.3,4.4c0.5,2.2-0.3,4.1-0.5,6.1s-1,3.8-1.6,5.6c0.2,0.6,0.5,1.1,1,1.3c0.2,0.1,0.6,0.2,0.8,0.1
		c1.2-0.6,2.3-1.3,3.2-2.3c0.9-1,2.1-1.6,3.3-2.3c0.9-0.5,1.8-0.4,2.7,0.1c0.7,0.4,1.3,1,1.7,1.7c0.3,0.5,0.4,1.1,0.7,1.4
		c1.4,1.3,2.1,3.1,3.6,4.4c0.5,0.2,1.1,0.3,1.8,0.5c0.5,0.9,0.9,1.9,1.5,2.8c0.6,0.8,0.8,1.7,1.2,2.5c0.1,1.5-0.1,2.9-0.6,4.3
		c-0.3,0.8-0.1,1.9-0.7,2.6c0,0.5,0,1.1,0.1,1.6s0.4,1,0.5,1.5s0,1.1-0.4,1.5c-0.5,0.5-1,0.9-1.5,1.4c-0.6,0.1-1.3,0.2-1.9,0.5
		c-1.1,0.5-2.1,0.3-3.1-0.1c-0.7,0.3-1.1,0.8-1.1,1.5c0,2.3,0,4.5,0,6.8c0,1.1,0,2.1-0.1,3.2c0,0.2-0.2,0.5-0.3,0.7
		c-1-0.8-2.4-0.4-3.4-1.3c-0.2-0.4-0.4-0.9-0.6-1.4c-0.1-0.2-0.2-0.6-0.1-0.7c0.4-0.9,0.4-1.8,0.5-2.7c0.1-0.8,0.1-1.6,0.1-2.2
		c0.5-1.1,0.9-2.1,1.2-3.1c0.1-0.3,0-0.6-0.3-0.7c-0.2-0.1-0.6-0.1-0.7,0c-0.6,0.3-1.1,0.8-1.7,1.2c-1.4,0-2.8,0-4.3,0
		c-0.4-0.2-0.9-0.4-1.4-0.6c-0.3-0.1-0.8,0.2-0.9,0.5c-0.1,0.4-0.2,0.8-0.2,1.2c-0.4,0.5-0.8,1-1.2,1.5c-0.1,0.3-0.2,0.5-0.2,0.8
		c-0.1,2.1-0.1,4.3-0.1,6.4c0,0.7,0.1,1.3,0.1,2c0,0.8,0.6,1.1,1.3,1.5c-0.2,0.3-0.4,0.6-0.6,0.9c-1.4,0.2-2.8,0.6-4.1,1.2
		c-0.4,0.2-1.2-0.4-1.2-0.8c0-0.4-0.1-0.8,0-1.2c0.1-0.8,0.5-1.6,0.4-2.3c-0.1-0.8-0.4-1.5-0.5-2.3c0-0.4,0-0.8-0.3-1.1
		c-0.1-0.1-0.2-0.1-0.3-0.1c-1.1,0.5-2.1,1-3.2,1.6c-0.3,0.2-0.7,0.5-0.9,0.7c-0.6,0.6-1.1,1.2-1.4,1.5c-1.6,1.1-3.4,1-4.3,2.6
		c0.1,0.2,0.3,0.5,0.5,0.8c-0.3,0.5-0.7,1-1.1,1.5c-0.1,0.3-0.2,0.5-0.2,0.8c0,2.3,0,4.5,0,6.8c0,0.7,0.4,1.3,0.9,1.7
		c0.6,0.4,0.8,1,0.6,1.7c-0.1,0.7-1,1.5-1.6,1.6c-0.9,0.1-1.9,0.1-2.8-0.2c-0.5-0.2-1-0.5-1.2-1c-0.2-0.6-0.4-1.2-0.7-2
		c0.2-0.4,0.4-0.9,0.6-1.5c0-0.3,0-0.9,0-1.4c0.1-1.3-0.1-2.7,0.6-3.9c0-0.8,0-1.6,0.1-2.4c0.1-0.5,0.4-1,0.6-1.5
		c-0.7-0.7-1.7-0.8-2.5-1.4c-0.9-0.6-1.4-1.6-2.5-2c-0.6,0.6-1.3,1.3-2,1.9c-0.2,0.2-0.5,0.2-0.7,0.3L154.3,94.3z M166.2,72.6
		L166.2,72.6c0-0.7,0.1-1.3,0.1-2.1c-0.8-1.3-1.9-2.1-3.7-1.7c-1,0.7-2.1,1.5-3.1,2.3c-0.3,0.2-0.5,0.7-0.4,1.1
		c0.1,0.4,0.2,0.7,0.3,1c-0.9,1.3-1.7,2.5-2.6,3.7c-0.4,0.6-0.4,0.9,0.3,1.7c0.2,0.3,0.4,0.6,0.6,0.9c-0.7,0.4-1.3,0.5-2,0.1
		c-0.2-0.1-0.4-0.3-0.7-0.4c-2.2-0.5-4.2-0.3-6,1.2c-0.8,0.7-1.6,1.4-2.1,2.5c-0.3,1.2,0,2.6-0.8,3.8c0.4,0.5,0.8,0.9,1,1.3
		c0.3,0.4,0.5,0.9,0.7,1.4c0.6,0,1.1,0,1.6,0.1c0.6,0.1,1.2,0.4,1.8,0.6c0.4-0.2,0.8-0.4,1.1-0.6c0.5-0.3,0.9-0.6,1.4-0.7
		c0.8-0.3,1.3-0.9,1.8-1.5c0.4-0.5,0.8-1.1,1.1-1.6c0.9,0.1,0.9,0.1,1,0.4c1,2.8,1,2.8,2.4,4.9c0.5,0.1,1,0.2,1.6,0.4
		c-0.4,0.6-0.7,1.1-1.1,1.6c0.2,0.1,0.4,0.4,0.6,0.4c0.5,0,1.1,0.1,1.6,0c1.5-0.5,3-1,4.5-1.7c0.9-0.4,1.9-1,1.9-2.3
		c0.4-0.8,0.8-1.7,1.2-2.5c0.1-0.2,0.1-0.5,0.1-0.8c-0.2-0.6-0.5-1.2-0.6-1.9c-0.1-0.3,0.1-0.7,0.3-1.2c0.5,0.8,0.9,1.4,1.3,2
		c0.3,0.1,0.5,0.3,0.8,0.4c0.8,0.1,1.4,0.8,2.2,0.8c0.8,0,1.6,0.1,2.4,0.1c0.9,0,1.8-0.9,1.8-1.8c0.3-3.3,0.4-6.6-1.1-9.9
		c-0.9-0.6-1.8-1.3-2.9-1.9c-0.9-0.5-1.9-0.9-3-0.9c-1.2,0.1-2.4,0-3.1,0C167.7,72.1,167.1,72.8,166.2,72.6z M188.7,67.9
		c-0.5,0-1.2-0.1-1.9-0.1c-0.5,0-1.1,0-1.6-0.1c-0.2,0-0.4-0.3-0.5-0.5c-0.1-0.3,0.1-0.5,0.3-0.7c0.5-0.4,1.3-0.1,1.6-0.9
		c-0.4-0.8-0.8-1.7-1.1-2.5c-0.7-1.6-2-2.4-3.4-3.2c-0.2-0.1-0.5-0.1-0.8-0.1c-0.4-0.1-0.8-0.1-1.2-0.2c-1.4-0.7-2.8-0.6-4.2,0.1
		c-0.3,0.2-0.7,0.3-0.9,0.3c-1,0.6-1.2,1.7-2.2,2c-0.1-0.1-0.2-0.2-0.2-0.3c-0.1-0.2-0.2-0.5-0.2-0.8c0-0.5,0.1-1,0.1-1.4
		c-0.3-0.4-0.5-0.8-0.8-1.1c-0.2-0.3-0.4-0.7-0.6-1c-0.7,0-1.4-0.1-2,0c-0.8,0.2-1.5,0.6-2.2,1c-0.8,0.5-1.5,1.1-2.2,1.7
		c-0.6,0.8-1.3,1.7-1.8,2.6c-0.3,0.6-0.2,1.3,0.2,1.9c0.3,0.4,0.7,0.8,1.3,0.9c0.3,0,0.5,0.2,0.9,0.3c0.7,0.7,1.4,1.5,2.1,2.3
		c1.2,1.4,2.8,2,4.6,2.2c0.8,0.1,1.6,0.2,2.3,0.5c0.8,0.4,1.7,0.8,2.6,1.1c1.3,0.3,2,1.2,2.5,2.4c0.2,0.5,0.3,1,0.4,1.5
		c0.1,0.6,0.5,1,0.9,1.3c1.5,1.1,3,2.2,5.2,2.4c0.8-0.1,2-0.3,3.2-0.5c0.8-0.8,1.7-1.6,2.5-2.5c0.2-0.2,0.3-0.4,0.5-0.6
		c0.3-0.5,0.5-0.9,0.1-1.5c-0.2-0.3-0.4-0.7-0.4-1.1c0.1-1.5-0.8-2.5-1.4-3.7C190.3,68.8,189.6,68.3,188.7,67.9z M186.5,62.6
		c0.5,0.4,0.9,0.6,1.2,0.8c1.4,1,2.6,2.3,3.2,4c0.2,0.6,0.7,1.1,1.1,1.6c0.9,1,1.4,2.3,1.5,3.6c0.1,1.3,0.1,2.7,0.1,4
		c0,0.6,0.6,1.3,1.2,1.4c1.3,0.3,2.7,0.4,3.9,0c1.4-0.4,2.5-0.7,1.7-2.8c-0.1-0.4-0.4-0.7-0.4-1.1c0-1.3-0.5-2.3-1.3-3.3
		c-0.4-0.5-0.3-1,0.4-1.3c0.7-0.3,1.4-0.8,1.9-1.4c0.4-0.4,0.6-0.9,0.6-1.4c0-1.3-0.5-2.3-1.7-2.9c-0.4-0.2-0.7-0.4-1.1-0.5
		c-1-0.3-2-0.6-2.9-0.8c-1.1,0.4-2,1.2-3.1,0.3c0.2-0.7,0.7-1.1,1.4-1.2c1.9-0.5,1.9-0.5,1-2.3c-0.7-1.3-1.3-2.6-2-3.9
		c-0.3-0.5-0.7-0.8-1.2-1s-1-0.4-1.4-0.5c-1.7,1.2-3.5,2-4.7,3.8c-0.4,0.7-1.5,0.4-1.8,1.3C185,59.9,185.9,61,186.5,62.6z
		 M161.8,106.8c0.4-0.4,0.5-0.8,0.3-1.3c-0.1-0.3-0.3-0.4-0.4-0.3c-0.1,0.1-0.2,0.2-0.2,0.3C161.3,105.9,161.4,106.4,161.8,106.8z"
		/>
	<path class="st0" d="M53.1,196.1c0-0.1,0-0.3,0.1-0.4c1.5-1.3,3.1-2.5,4.9-3.4c0.1-0.1,0.2,0,0.4-0.1c0.2,0.1,0.5,0.3,0.7,0.4
		c0.4-0.1,0.7-0.5,1.1-0.3c0.8,0.4,1.5,0.5,2.3,0.2c0.9-0.4,1.7-0.5,2.7-0.5c0.8,0.1,1.6,0,2.4,0c1.7-1.2,3.2-2.7,4.7-4.2
		c1-1,2.1-2,2.7-3.4c0.3-0.7,1-1.2,1.5-1.8c0.7-0.9,2.1-1.2,2.4-2.5c0.8-0.8,1.7-1.7,2.5-2.5c0.8-0.8,1.7-1.7,2.5-2.5
		c0.2-0.2,0.4-0.4,0.5-0.6c0.5-1.1,1.7-1.7,2.3-2.7c0.8-1.4,2.1-2.4,3.2-3.5c0.2-0.2,0.5-0.2,0.7-0.3l-0.1-0.1
		c0,0.1,0.1,0.2,0.1,0.3c0.3,0.5,0.6,0.6,1.2,0.2c0.2-0.1,0.3-0.4,0.4-0.6l-0.1,0.1c1-0.4,1.7-1.1,2.2-2c0.1-0.2,0-0.5-0.3-0.5
		c-0.4-0.1-0.7,0-1.1-0.1l0.1,0.1c0.1-0.7,0.7-0.7,1.1-1c0.8-0.7,1.6-1.4,2.3-2.2c1.8-2,4.1-3.4,6.2-5.1c0.5-0.4,1.1-0.8,1.7-1
		c1.3-0.4,2.2-1.5,3.4-2.1c0.4-0.2,0.9-0.7,1.1-1.1c0.3-0.9,1.2-1,1.7-1.7c0.2-0.9,0.2-1.8-0.2-2.7c-0.2-0.4-0.3-0.8-0.3-1.1
		c-0.1-1.5-0.7-2.8-1.7-4c-0.4-0.5-0.9-1-1.2-1.6c-0.3-0.6-0.4-1.2-0.6-1.9c-0.1-0.4-0.5-0.6-0.5-1.1c0-0.4,0.2-0.7,0.7-0.7
		c0.1,0,0.3,0,0.4,0c1,0.7,1.8,1.5,2.2,2.8c0.3,1,0.9,1.9,1.5,2.8c0.4,0.7,0.8,1.4,1,2.1c0.3,1.2,1.2,2,1.9,3
		c-0.6,1.1,0.3,2.1,0.2,3.1c0,1.1,0.3,2.1,0.7,2.9c-0.4,1.1-0.6,2-1,2.8c-0.4,0.7-0.6,1.5-0.6,2.3c0,0.7-0.3,1.3-0.5,1.9
		c-0.4,1.1-1.2,1.9-2.4,1.8c-2.5-0.3-4.7,0.9-6.9,1.7c-0.9,0.3-1.6,0.9-2.6,0.8c-0.4,0-0.8,0.2-1.1,0.4c-1.2,1.1-2.7,1.8-4,2.6
		c-1.1,0.7-2.1,1.6-3.2,2.3c-0.4,1-1.6,0.9-2.1,1.6c-0.4-0.1-0.7-0.2-0.9-0.3c-0.3,0.6-0.5,1.2-1.1,1.6c-1.8,1.1-3.4,2.5-4.5,4.4
		c-0.6,1-1.5,1.9-2.6,2.4c-1,0.5-1.7,1.2-2.3,2.2c-0.4,0.6-0.8,1-1.5,1.3c-0.3,0.2-0.6,0.5-0.8,0.8c-0.5,0.9-1.1,1.8-1.2,2.9
		c-0.1,0.5-0.1,0.5-1.2,1.1c-0.2,0.7-0.4,1.4-0.7,2.2c-0.2,0.8-0.4,1.6-0.8,2.2c-0.5,0.8-1.3,1.4-1.9,2c-0.5,0.5-1.1,0.7-1.8,0.7
		c-0.7,0-1.3-0.1-2,0c-0.8,0-1.6,0-2.4,0.1c-1.1,0.1-2,0.7-3.1,0.6c-0.9-0.1-1.9,0-2.8,0c-0.8,0-1.6,0.1-2.4,0.2
		c-0.2,0-0.6,0.2-0.6,0.4c-0.4,1-1.3,1.3-2.1,1.7c-0.6,0.3-1.4,0.3-1.8,0.7c-1,0.9-2.3,1.3-3.2,2.3c-0.4,0.5-1.1,0.8-1.5,1.3
		c-1.2,1.3-2.8,2-4.1,3.1c-2.4,1.1-4.2,2.8-5.6,5c-0.6,0.9-1.5,1.5-1.9,2.5c-0.1,0.2-0.3,0.4-0.6,0.5c-1.5,0.6-1.9,1.8-1.8,3.2
		c-0.5,1.1-0.8,2.3-0.6,3.5c0.1,0.6,0.3,1.3,0.5,2.2c-0.2,0.8-0.5,1.8-0.8,2.8c-0.3,0.9-0.9,1.6-1.8,2c-1.2,0.5-2.4,1.1-3.8,1.7
		c-1.4,0-3,0-4.6,0c-0.4,0.4-0.7,0.8-1.1,1.2c-1,0.6-2.4,0-3.3,1.1c-1.1,0-2,0.7-3,0.9c-2,0.5-3.7,1.5-5.3,2.7
		c-0.9,0.8-1.9,1.4-2.9,2.2c-0.9,0.8-1.8,1.6-2.6,2.3c-1.1,0.1-2.2,0.3-3.3,0c-0.2,0-0.3-0.3-0.5-0.5c0-0.1,0.1-0.3,0.2-0.3
		c0.3-0.2,0.6-0.5,1-0.6c0.4-0.1,0.8-0.1,1.1-0.2c1.2-0.8,2-1.8,3.2-2.5c0.5-0.3,0.8-1.1,1.3-1.5c1.7-1.3,3.3-2.8,5.2-3.7
		c0.7-0.4,1.3-0.9,1.8-1.5c0.2-0.3,0.7-0.3,1.1,0c-0.1,0.1-0.1,0.2-0.2,0.3c-0.1,0.2-0.2,0.4-0.3,0.6c0,0,0.2,0.2,0.3,0.2
		c0.5,0,0.8-0.2,0.9-0.6c0-0.1,0-0.3,0-0.4c0-0.3,0-0.5,0-0.9c0.4-0.3,0.7-0.8,1.2-1c1.5-0.8,3.1-1.5,4.7-2.3
		c0.7-0.4,1.5-0.4,2.3-0.4c0,0.3,0,0.6,0,0.9c-0.4,0-0.7,0.1-1.1,0.1c-0.1,0-0.2,0.1-0.3,0.2c0.2,0.1,0.4,0.3,0.6,0.2
		c0.4,0,0.6-0.3,0.6-0.7c0.2-0.1,0.6-0.1,0.6-0.2c0.1-0.5-0.3-0.4-0.6-0.5c0.1-0.2,0.2-0.5,0.3-0.7c1.6-1,3.2-1.9,4.8-2.8
		c0.8-0.9,1.2-2.1,1.7-3.1c0.5-1.1,1.3-2,1.3-3.3c0.6-0.9,0.8-2.1,1.7-2.6c1-0.5,1.4-1.5,2.2-2.2c0.5-0.5,0.9-1.1,1.4-1.4
		c1.6-1,3-2.3,4.4-3.5c0.1-0.1,0.2-0.2,0.3-0.2c2.5-0.9,4.1-2.9,5.9-4.7c1-1,1.9-2.3,3.1-3.1c0.4-0.3,0.7-0.8,0.9-1.3
		c0.4-0.7,0.9-0.9,1.6-0.9c0.1,0.2,0.3,0.4,0.4,0.6c0.1-0.1,0.1-0.2,0.2-0.2C53.6,196.3,53.4,196.2,53.1,196.1z"/>
	<path class="st0" d="M90.1,63.8c-0.4,0-0.9,0-1.1-0.2c-0.9-0.6-1.6-1.3-2.5-2c-1.8-0.3-3.5-0.1-5.1-0.2c-1.2,0.7-2.4,1.4-3.5,2.1
		c-0.1,0-0.3,0-0.3,0c-0.2-0.2-0.3-0.4-0.1-0.7c0.3-0.6,0.7-1.1,1.4-1.4c0.9-0.3,1.6-0.9,2.6-0.9c0.7,0,1.3-0.3,1.9-0.5
		c0.6-0.1,1.3-0.2,2-0.1c0.6,0.1,1.3,0.7,1.9,0.4c0.7-0.3,1.4-0.6,2.3-0.7c0.2,0,0.5-0.2,0.7-0.3c1.2-1.1,2.6-1.8,4.1-2.4
		c0.4-0.2,0.7-0.4,1-0.6c0.5-0.4,1-0.8,1.2-1.5c0.5-2,1.6-3.6,3.1-5c0.7-0.6,1.3-1.4,2.1-1.9c0.7-0.4,1.3-0.9,2-1.3
		c0.7-0.4,1.5-0.6,2.3-0.1c1.2,0.6,2.3,1.3,3.6,1.5c0.6,0.1,1.1,0.7,1.6,1c1-0.6,2.1-0.6,3.2-0.6c0.3,0,0.6,0,0.8,0.2
		c0.9,0.8,2.2,0.8,3,1.9c0.5,0.6,1.1,1.1,1.7,1.7c0.9,1,1.7,2.1,2.2,3.3c0.2,0.5,0.3,1.1,0.7,1.4c1.2,1.2,1.6,2.7,2.1,4.2
		c0.3,0.9,0.5,1.8,0.1,2.7c-0.4,0.9-0.2,1.8-0.5,2.7c-0.4,0.6-0.7,1.1-1.2,1.8c-1,0.6-2.2,1.2-3.1,1.7c-1.1,0.2-1.9,0-2.6,0.4
		c-0.4,0.7-0.8,1.4-1.2,2c-0.6,0.8-0.7,1.6-0.2,2.6c0.6,1.3,0.4,2.6-0.5,3.7c-0.4,0.5-1,0.9-1.4,1.3c0.3,0.7,0.6,1.2,0.6,1.9
		c0,1.1,0,2.1,0,3.2c0,0.6-0.3,1-0.9,1.1c-0.7,0.1-1.2,0.4-1.5,1c-0.2,0.5-1.1,0.5-1.4,0.2s-0.5-0.6-0.7-1c0.4-1.4,0.7-2.8,0.6-4.3
		c0-0.3-0.4-0.7-0.8-0.7c-0.5,0-1.1,0-1.6-0.1c-0.1,0-0.3-0.1-0.3-0.2c-0.1-0.2,0-0.4,0.3-0.5c0.8-0.2,1.3-0.8,2.2-1
		c0.6-0.1,1.2-0.4,1.8-0.7c0.5-0.2,0.9-0.5,1.4-0.8c0.3-0.6,0.6-1.2,0.9-1.8c0.2-0.4,0.2-0.8-0.2-1.1c-0.5-0.4-0.9-0.8-1.3-1.5
		c-0.5-1-1.5-1.5-2.7-1.4c-0.3,0-0.5,0-0.8-0.1c-0.3-0.1-0.4-0.3-0.4-0.6s0.1-0.5,0.4-0.6c0.5-0.1,1-0.2,1.5-0.3
		c0.5-0.1,1-0.8,0.8-1.2c-0.5-1.1-0.5-2.3-0.5-3.5c0.4,0.1,0.8,0.3,1,0.6c0.3,0.6,0.6,1.1,1,1.8c1.2,0.1,2.4,0.1,3.6,0.2
		c0.4,0,0.8,0,1.2,0c0.3,0,0.5,0,0.8,0s0.5,0,0.8-0.1c1.4-0.8,2.9-1.3,3.7-3.1c0.1-1.3,0.1-2.8,0-4.2c-0.1-0.7-0.8-1.4-1.6-1.5
		c-0.5-0.1-1,0-1.5-0.3c-0.8-0.4-1.7-0.8-2.5-1.3c-0.3-0.2-0.4-0.4-0.3-0.6c0.1-0.1,0.2-0.2,0.3-0.2c0.7-0.1,1.3-0.1,2-0.1
		c0.1-0.1,0.2-0.1,0.3-0.3c0.5-1.1,0.4-2.1-0.3-3c-1.3-1.7-3-3-5.3-3.8c-0.7,0.7-1.8,0.6-2.8,1.1c-1.1,0.6-1.7,1.6-2.6,2.4
		c-0.6,0.5-1.1,1.1-1.7,1.7c-0.1,0.1-0.2,0.1-0.3,0.1c-0.1,0-0.2-0.2-0.3-0.3c-0.1-0.4,0-0.8,0.3-1.1c0.6-0.7,1.3-1.4,1.8-2.1
		c0.1-0.2,0.1-0.6,0-0.7c-1.4-2.3-1.4-2.8-4.3-2.8c-0.4,0-0.8,0-1,0c-1.7,0.7-3,1.6-4.1,2.8c-0.8,0.8-1,1.9-1.5,2.7
		c-0.2,1.6-0.4,3.2-0.6,4.9c0.2,0.2,0.4,0.5,0.6,0.8c0.3,0.4,0.8,0.7,1.1,1.2c0.3,0.6,0.5,1.2,1,1.7c0.5,0.6,1,1.2,1.5,1.9
		c1-0.4,1.9-0.8,3-1.2c0.3,0.1,0.7,0.2,1,0.3c0.5,0.1,1.1,0.1,1.6,0.2c1.6,0.2,2.1,0.3,4.1,1.3c0.1,0.4,0.1,0.8,0.2,1.2
		c-1.1,0.1-1.9-0.8-3-0.9c-0.9-0.1-1.9-0.1-2.5-0.7c-1.2,0.4-2.2,0.7-3.4,1c-0.6,0.6-1.2,1.3-1.8,1.9c-0.3,0.3-0.3,0.4,0,1.5
		c-0.4,0.6-0.9,0.9-1.5,1.2c-1.2,0.6-1.5,1.8-1.9,2.9c0.5,0.7-0.2,1.5,0.2,2.3c0,0-0.2,0.2-0.3,0.2c-0.2,0-0.5,0-0.7-0.2
		s-0.2-0.5-0.3-0.7c-0.1-0.6,0.1-1.3-0.4-1.9c-0.5,0.2-1,0.3-1.5,0.5c-1-0.8-2.2-1-3.3-0.9c-0.8,0.1-1.3,0.6-1.9,0.9
		c-0.2,0.1-0.5,0.2-0.7,0.4c-0.2,0.2-0.3,0.5-0.5,0.6c-0.4,0.3-0.9,0.5-1.2,0.9C86.7,76,86.1,77,85.5,78c0,0.7-0.1,1.5-0.1,2.3
		s0.1,1.6,0.6,2.3c0.4,0.7,0.2,1.6,0.8,2.2c0.7,0.6,1.4,1.2,2.1,1.8c0.1,0.1,0.2,0.1,0.3,0.2c0.8,0.5,2.2,0.3,2.9-0.5
		c0.4-0.4,0.7-0.8,1-1.2c-0.2-0.6-0.3-1.1-0.4-1.6c-0.1-0.7,0.1-1.2,0.6-1.2c0.4-0.1,0.7,0.1,0.8,0.7c0.3,1,0.7,2,1,3
		c2,1.6,4,1.1,5.6,0.2c1.3-1.3,2.4-2.4,3.9-4c0.2-0.4,0.6-1.5,1.2-2.5c0.5-0.9,0.1-2.1,0.8-3.1c0.2,0.3,0.5,0.5,0.5,0.7
		c0,0.9,0,1.9,0,2.8c0,0.5-0.3,1-0.5,1.5s-0.4,1-0.5,1.5c-1.6,1.1-3,2.5-4.5,4c-0.2,0.4-0.3,0.9-0.6,1.3c-0.5,0.8-0.3,1.8-0.8,2.6
		c-0.5,0.7-0.1,1.6-0.2,2.4c-0.1,0.9,0,1.8,0.4,2.7c-0.5,0.6,0.2,1.2-0.1,1.8c-0.7,0.2-1.3,0.3-2,0.2c-0.3,0-0.8-0.4-0.8-0.7
		c0-1.7,0-3.5,0-5.2c0-1.1,0-2.1,0-3c-0.5-0.8-1.3-0.6-1.9-1c-0.6-0.3-1.1-0.7-1.6-1.1c-0.8,0.4-1.5,0.7-2.2,1.1
		c-0.5,0.2-1,0.3-1.5,0.3c-0.7-0.1-1.2,0.2-1.6,0.9c-0.2,0.3-0.6,0.5-0.9,0.7c-0.7,0.4-1.1,1-1.4,1.8c-0.5,1.5-0.9,3.1-0.8,4.7
		c0.1,0.9,0,1.9,0,2.8c0,0.4-0.3,0.7-0.4,1c-1.1,0.2-2.2,0.3-3.3,0.5c0,0-0.1-0.1-0.2-0.3c-0.1-1.2-0.2-2.4-0.3-3.6
		c-0.7-1,0.1-2,0.1-3.1c-0.1-1.2,0-2.4-0.4-3.5c-0.3-1-0.4-2.1-0.6-3.1c-0.1-0.2-0.2-0.5-0.4-0.7c-0.3-0.4-0.7-0.8-1-1.1
		c-1.3-0.4-2.4-0.7-3.6-1c-1.1-0.3-1.9-1-2.3-2.1c-0.1-0.4-0.4-0.7-0.6-1.2c0-0.7,0-1.5,0-2.3c0-0.9,0.2-1.8,0.6-2.7
		c0.5-1,0.3-2-0.1-3.1c-0.4-1-1.2-1.8-1.2-2.9c0-0.5,0.2-0.7,0.6-0.7c0.2,0,0.5,0.1,0.9,0.1c0.4-0.4,0.9-0.9,1.3-1.3
		c0.1-0.4,0.3-0.6,0.3-0.9c0-0.9,0-1.9,0.3-2.8c0.1-0.2,0.3-0.4,0.6-0.4l-0.1-0.1c0,1.7,0,3.5,0.1,5.2c0,0.5,0,1,0.1,1.6
		c0.4,0.2,0.7,0.4,1.1,0.5c0.7,0.3,1.5,0.5,2.3,0.8c0.2,0.1,0.3,0.4,0.4,0.6c0.1,0.4-0.2,0.7-0.7,0.8s-1.1,0.1-1.7,0.2
		c-0.9,0.6-1.8,1.3-2.7,2c-0.5,1.1-0.2,2.2-0.9,3.1c0.6,1.2,1,2.5,1.9,3.5c0.6,0.3,1.2,0.5,1.8,0.8c0.4,0,0.8,0,1.2,0
		c1.6,0.2,3.1-0.4,4.7-0.7c0.3-0.1,0.6-0.6,0.6-1c0-0.1,0-0.3,0-0.4c-0.1-0.5-0.3-1-0.4-1.3c0.2-1.7,0.6-3.1,1.5-4.2
		c1.2-1.6,2.5-3.1,4.5-3.8c0.5-0.2,0.9-0.5,1.4-0.8c1.1-0.6,2.3-0.8,3.4-0.1c0.9,0.5,1.6,0.1,2.2-0.4c1.3-1.1,2.5-2.4,3.1-4.1
		c0.2-0.6,0.6-1.2,0.8-1.8c-0.3-1-0.6-1.8-1.2-2.5c-0.8-0.9-1.5-1.8-2.2-2.9c-0.5-0.8-1.9-1.2-2.9-0.7s-2.2,0.8-3,1.8
		c-0.3,0.4-0.8,0.7-1.1,1.1c-0.3,0.3-0.2,0.7,0,1.1C90,63.3,90,63.6,90.1,63.8L90.1,63.8z"/>
	<path class="st0" d="M146.9,153.6c0.3-2-0.1-4-0.1-6c-0.8-0.9-1.7-1.8-2.4-2.7c-0.6-0.7-1-1.5-1.6-2.3c-0.3-0.4-0.6-0.9-0.7-1.4
		c-0.1-0.9-0.6-1.5-1.3-2c-1.7-1.3-3.4-2.6-5.4-3.3c-0.6-0.2-1.3-0.4-1.8-0.8c-0.6-0.5-1.1-1.2-1.8-1.5c-0.6-0.3-1.3-0.3-1.9-0.6
		c-1.1-0.5-2.2-1-3.1-1.4c-1.6-1.5-1.9-3-1.1-4.9c0.4-1,0.4-2.1,0.6-3.3c0.4-0.6,0.9-1.4,1.4-2.2c0.5-0.8,1.5-1.1,1.9-2
		c0.5-0.2,1-0.3,1.5-0.5c0.8-0.8,1.1-1.8,1.6-2.7c0.7-1.3,1.5-2.5,2.6-3.5c0.7-0.6,1.3-1.3,1.9-2c0.6-0.7,1.1-1.5,1.7-2.2
		c0.2-0.3,0.5-0.7,0.8-0.9c2.3-1.6,4.3-3.5,6.8-4.9c0.5-0.2,1-0.3,1.5-0.5c0.9-1.2,1.8-2.3,2.5-3.6c0.4-0.7,1-1.2,1.6-1.8
		c0.1-0.1,0.3,0,0.4,0l0,0c0.1,0.5,0.1,1.1-0.3,1.5c-1,1.1-1.6,2.4-2.3,4c-0.2,0.2-0.7,0.5-1,0.9c-1.6,2-3.7,3.5-5.8,4.8
		c-1.8,1.2-3.2,2.8-5,3.9c-0.4,0.3-0.9,0.7-1.1,1.1c-0.9,1.7-2.4,2.9-3.5,4.5c0,0.5-0.1,1.2-0.1,1.9c0,0.3,0.4,0.7,0.8,0.7
		c0.9,0,1.8-0.1,2.7-0.5c0.2-0.1,0.4,0.2,0.4,0.5c0,0.3-0.1,0.6-0.4,0.6c-0.6,0.1-1.3,0.1-2,0.2c-1.3,1-2.8,1.9-4.4,2.4
		c-0.3,0.4-0.7,0.8-1,1.2c-0.1,0.1-0.1,0.3-0.1,0.4c-0.1,1.2-0.3,2.3-1.3,3.2c-0.4,0.4-0.4,1-0.3,1.5c0.1,0.2,0.3,0.6,0.4,0.6
		c1.1,0.1,2,0.7,2.8,1.3c1.3,0.9,2.7,1.7,4.1,2.5c0.9,0.6,1.8,1.2,2.9,1.3c0.3,0,0.5,0.1,0.7,0.3c1.4,1.1,3.2,1.4,4.5,2.5
		c0.4,0.3,1,0.3,1.7,0.5c0.7,0.6,1.5,1.2,2.3,1.9c1.3,1.3,2.7,2.5,3.5,4.3c0.4,0.8,1,0.9,2,0.8c1.3-0.2,2.5-1.1,3.9-0.8
		c0.1,0,0.2,0.1,0.3,0.2c0.1,0.1,0.1,0.2,0,0.3c-0.6,0.5-1.2,1-2,1.2c-0.9,0.3-1.6,0.9-2.2,1.6c-0.2,0.2-0.3,0.5-0.5,0.6
		c-1.6,0.3-1.9,1.5-2.3,2.9c-0.2,0.8-0.5,1.5-0.6,2.3c-0.2,0.3-0.5,0.6-0.8,0.9c-1.1,1-1.7,2.3-2.3,3.7c-0.1,0.4-0.1,0.8-0.3,1.1
		c-0.9,1.3-0.6,2.5-0.1,3.8c0,0.1,0.1,0.2,0.2,0.4c0.5,1.1,1.2,2.1,1.5,3.2c0.3,1,0.7,2,1.2,2.9c0.5,1.1,0.8,2.2,0.7,3.5
		c-0.1,1.7,0,3.5,0,5.2c0,2-0.8,5-2.1,7.1c-1.1,1.7-2.2,3.3-3.3,5c-0.4,0.6-0.9,1.3-1.8,1.4l0.1,0.1c0-0.5,0-1.1,0.4-1.5
		c1.4-1.5,1.7-3.6,3.2-5c0.1-0.5,0.2-1,0.3-1.5c1.1-3.9,0.9-3,0-6.1c-0.3-0.9-0.8-1.7-0.8-2.7c0.1-0.8-0.1-1.6-0.1-2.6
		c-0.4-0.7-0.8-1.7-1.3-2.7c-0.2-0.5-0.5-0.9-1-1.2c-0.9-0.5-1.2-1.3-1.6-2.3c0.2-0.4,0.4-0.9,0.5-1.4c-0.5-0.7,0-1.2,0.2-1.8
		c0.2-0.5,0.2-1.1,0.4-1.5c0.2-0.6,0.4-1.2,0.5-1.9c0-0.5,0.1-1.1,0.1-1.7c0.5-0.4,1-0.7,1.5-1.2c0.3-0.4,0.5-0.9,0.8-1.4
		c0.4-0.7,0.8-1.3,1.3-2c0.1-0.1,0.2-0.1,0.4-0.2c0.1,0.2,0.2,0.4,0.3,0.7c0.1-0.1,0.2-0.2,0.2-0.2
		C147.4,153.8,147.2,153.7,146.9,153.6z"/>
	<path class="st0" d="M135.7,200.8c0,0.9,0.1,1.9-0.2,2.9c-0.4,0.5-1,1-1.5,1.6c-0.2,0.3-0.4,0.7-0.5,1.1c-0.3,1-0.3,2.1-0.7,3.1
		c0.1,0.9,0.3,1.8-0.1,2.7c-0.3,0.7-0.2,1.6-0.2,2.4c0,0.4,0.2,0.7,0.3,1c0.3,0.1,0.6,0.3,0.8,0.3c3.6,0.3,7.2,0.2,10.8,0
		c0.4,0,0.8-0.2,1.1-0.3c0.5-0.1,1-0.3,1.5-0.4c0.8-0.2,1.5-0.4,2.3-0.6c0.1,0,0.3,0,0.4,0.1c0.1,0.1,0.3,0.2,0.3,0.2
		c0,0.2-0.1,0.5-0.2,0.7c0,0.1-0.2,0.2-0.3,0.2c-0.4,0.1-0.8,0.1-1.2,0.1c-0.8,0-1.6,0.1-2.3,0.5c-0.9,0.5-2.1,0.4-3,0.9
		c-0.2,0.1-0.5,0.1-0.8,0.1c-1.5,0.1-2.9,0.2-4.4,0.2c-1.3,0-2.7-0.1-4-0.1c-0.4,0-0.9-0.1-1.2,0.1c-1.5,1-3.4,0.5-4.9,1.5
		c-1.6,0.2-2.9,1.2-4.4,1.9c-1.1,0.5-1.9,1.4-2.6,2.4c-0.2,0.3-0.3,0.7-0.6,1c-0.9,1-1.5,2.2-2.1,3.4c-0.6,1.2-1.8,2-2.3,3.5
		c0,0.4-0.1,1.1-0.2,1.8c-0.7,1.4-1.5,2.8-2.3,4.3c0,0.8,0,1.8,0,2.6c0.3,0.9,0.8,1.5,1.5,2c0.3,0.2,0.7,0.4,1.1,0.4
		c0.8,0,1.6,0,2.3,0.5c0.6,0.4,1.3,0.4,1.9,0c1-0.5,2-0.7,3-1c0.7,0,1.1,0.6,1.7,0.9c0.4-0.1,0.7-0.3,1.1-0.3c0.2,0,0.5,0.1,0.7,0.2
		c0.2,0.1,0.5,0.3,0.6,0.5c0.6,1.4,2,2.2,2.6,3.5c0.7,1.4,1.9,2.2,2.8,3.3c1,1.1,2.1,2.1,3.1,3.1c1.4,1.4,2.7,3,4.4,4
		c0.8,0.5,1,1.6,1.9,2c0.7,0.4,1.5,0.7,2.1,1.2c0.8,0.6,1.6,1.4,2.3,2.2c0.1,0.1,0.1,0.3,0.1,0.3c-0.1,0.1-0.2,0.2-0.3,0.2
		c-0.4,0-0.9,0.1-1.2-0.1c-0.8-0.5-1.7-0.7-2.4-1.4c-1-1-2.5-1.4-3.5-2.5c-1.5-1.7-3.1-3.3-5.1-4.5c-2.5-2.2-4.9-4.5-6.6-7.3
		c-1-0.6-1.9-1.2-2.8-1.8c-1.5,0-3,0-4.3-0.7c-1.3-0.1-2.7-0.2-3.9-0.8c-1,0-1.7-0.4-2.5-1.1c-0.8-0.7-1.8-1.1-2.7-1.6
		c-0.9-0.5-1.3-1.3-1.3-2.3c0-0.9-0.1-1.9-0.1-2.8c-0.1-1.4,0.2-2.6,1.2-3.7c0.8-0.9,1.5-1.9,2-3c0.8-1.5,1.8-2.6,3.2-3.4
		c0.6-1,1.2-1.9,1.6-2.8c0.3-0.6,0.6-1.2,1.1-1.6c2.2-2.4,3.2-3,6.6-4.3c0.7-0.3,1.5-0.6,2.3-0.9c0.5-0.9,0.9-1.8,1.4-2.7
		c0.5-0.8,0.9-1.6,1.4-2.3c0-0.9,0-1.7,0-2.8c1.1-2.1,2.3-4.5,3.5-6.9c0.2-0.4,0.7-0.8,1-1.2C135.5,200.8,135.7,200.9,135.7,200.8
		L135.7,200.8z"/>
	<path class="st0" d="M155.8,16.5c0.2,1.1,0,2-0.9,2.9c-0.9,0.8-1.2,2.1-1.7,3.2c-0.5,0.6-1.2,1-1.9,1.4c-0.7,0.4-1.2,1.1-1.3,1.9
		c0,1.2-0.1,2.4-0.6,3.5c0,1.6,0,3.2,0,4.8c0,0.5,0.4,1,0.6,1.5c0.1,0.3-0.1,0.5-0.3,0.6c-1.2-0.5-2.4-1-3.6-1.9
		c0-0.6-0.1-1.3-0.1-1.9c0-0.9-0.1-1.8-0.5-2.7c-0.4-1-0.3-2.1,0.2-3.1c-0.5-0.8-1.4-0.3-2.3-0.7c-0.5-0.4-1.2-0.8-1.8-1.3
		c-0.6,1-1.3,2-1.3,3.3c0,1.1-0.6,2-1.2,2.9c-0.8,1.2-1.9,2.2-3.3,2.8c-0.6,0.2-1.2,0.4-1.9,0.6c-0.4,0.1-0.7,0.4-0.7,0.8
		c-0.1,0.9,0,1.8-0.6,2.7c-0.2,0.3-0.1,0.8-0.1,1.2c0,0.8,0,1.6,0,2.3c0.5,1.1,0.9,2,1.3,3c-0.5,0.5-1,0.4-1.5,0.2
		c-0.5-0.2-0.9-0.6-1.3-0.9c-0.5-0.4-0.9-1-1-1.7c-0.1-0.9-0.4-1.8-0.6-2.7c-0.2-0.9-0.1-1.9-0.2-2.8c0-0.3-0.1-0.5-0.1-0.8
		c-0.5-1.2-1.8-1.5-2.8-2.3c-0.3,0-0.7-0.1-1.1,0c-0.9,0-1.8,0.1-2.8-0.2c-0.3-0.1-0.5-0.7-0.2-1c0.1-0.1,0.2-0.2,0.3-0.2
		c0.7-0.1,1.3,0.4,1.9,0.5c0.7,0.2,1.3,0.1,1.8-0.5c0.3-0.3,0.4-0.6,0.2-1c-0.4-0.7-0.2-1.3,0.4-1.7c0.2-0.2,0.5-0.3,0.6-0.2
		c0.1,0.1,0.2,0.2,0.2,0.3c0.1,0.7,0,1.4,0.7,1.8c1.1,0.7,2.2,1.4,3.6,1.4c0.9,0,1.9,0,2.9,0c0.8-0.5,1.7-1.1,2.6-1.6
		c1.4-0.8,2-2.1,2.3-3.6c0.2-0.9,0.3-1.8,0.6-2.7c0.3-0.9,0.2-1.8,0.4-2.8c0.1-0.4,0.3-0.7,0.5-1.2c-0.1-0.3-0.3-0.7-0.3-1.1
		c-0.3-2-1.4-3.4-3.2-4.5c-1.2-0.3-2.5-0.3-3.9,0c-0.4,0.3-0.9,0.8-1.5,1.2c-0.4,0.3-0.9,0.5-1.3,0.8c-0.2,1.5-0.8,2.8-1.3,4.1
		c-0.8,0.4-1.4,0.3-2.1,0.2c-0.9-0.2-1.5,0.3-2.1,0.7c-0.6,0.2-1-0.3-1.6-0.5c-0.4,0.3-0.8,0.6-1.2,1c-0.9,0.9-1.8,1.9-2.8,2.8
		c-0.1,0.1-0.3,0-0.4,0l0.1,0.1c0.1-0.4,0-0.9,0.2-1.1c0.8-1,1.7-2,2.6-2.9c0.4-0.4,0.9-0.6,1.3-0.8c1.1-0.6,2.3-1.3,3.6-1.6
		c0.5-0.1,1-0.4,1.3-0.8c0.6-0.7,1.1-1.5,1.8-2.1s1.5-1,2.2-1.7c0.4-0.4,0.8-0.7,1.1-1.1c0.6-0.6,1-1.2,1.2-2c0.5-1.3,1-2.7,1.6-4
		c0.1-0.2,0.3-0.3,0.6-0.3l0,0c0.1,3.4,0.1,3.4-0.6,5.9c0.9,1,2.4,1.2,3.5,2.4c0.5,1,1.2,2.3,1.9,3.7c0,0.9,0,1.9,0.1,2.8
		c0,0.4,0.2,0.8,0.5,1c0.5,0.4,1,0.9,1.3,1.5c0.2,0.4,0.6,0.5,1,0.5c1.2,0,2.4-0.1,3.6-0.2c0.2,0,0.6-0.2,0.6-0.4
		c0.3-0.7,0.8-1,1.5-1.2c0.5-0.2,0.9-0.7,1-1.2c0.2-0.6,0.2-1.3,0.6-1.9c0.2-0.5-0.1-1-0.6-1.2c-0.5-0.2-1-0.2-1.5-0.4
		c-0.3-0.1-0.5-0.3-0.4-0.5c0-0.1,0.1-0.2,0.3-0.3c1.1-0.4,2.2-1,3.5-0.8C154.2,16.6,155,16.5,155.8,16.5L155.8,16.5z M147.4,29.6
		c-0.1,0.2-0.3,0.5-0.3,0.7c0,0.8,0,1.6,0,2.4c0,0.1,0.1,0.2,0.2,0.3c0.1,0.1,0.4,0,0.4-0.3C147.9,31.6,148.1,30.6,147.4,29.6z
		 M131.4,34.4l-0.1,0.2h0.2L131.4,34.4z"/>
	<path class="st0" d="M175,24.5c0.1,0.3,0,0.5-0.2,0.7c-0.5,0.4-1.1,0.7-1.6,1.1c-0.4,0.3-0.6,0.8-1.1,1.2c-0.3,0.2-0.7,0.3-1.5,0.6
		c-0.5,0.2-0.7,1.3-1.4,1.9c-0.6,0.5-1.2,1.1-1.8,1.6c-1.2,1.1-1.9,2.5-2.7,3.9c-0.5,1-0.3,2.1,0.1,3.1c0.5,1.2,1.2,2.4,2.2,3.4
		c0,0.9,0.1,1.8,0.1,2.7c0,0.8-0.2,1.6-0.6,2.3c-0.6,1.1-1,2.1-1.6,3.4c-1.3,0.9-2.4,2.3-3.9,3.2c-0.7,0.4-1.2,1.1-1.8,1.6
		c-1.1,1.1-2.3,2.2-3.7,3c-1.4,0.8-2.5,2-3.5,3.2c-1.8,2.2-4.1,3.8-6.4,5.3c-1.1,0.7-2.2,1.5-3,2.5c-1.1,1.2-2.3,2.3-3.4,3.4
		c-1.9,1.8-3.6,3.9-5.9,5.3c-0.7,0.4-1.1,1.1-1.8,1.6c-1.3,1.1-2.2,2.7-3.8,3.4c-1.2,1-2.4,2.1-3.6,3.1c-1.3,1.1-4.7,4.7-5.9,6.3
		c-0.2,0.3-0.5,0.7-0.7,1c-1.1,1.3-2.4,2.4-3.4,3.9c-0.8,1.3-1.9,2.6-2.8,3.8c-0.1,0.1-0.2,0.1-0.4,0.1l0.1,0.1
		c-0.1-0.5-0.5-0.7-0.9-0.9l0.1,0.1c0.1-1.1,1.4-1.6,1.6-2.7c1.6-2.3,3.2-4.6,4.7-6.9c1.1-1.7,2.4-3.2,4.1-4.3
		c1.1-0.8,2.2-1.5,3.1-2.5c2-1.1,3.5-2.8,5.2-4.3c1.5-1.5,3.2-2.8,4.8-4.2c2.9-2.5,6-4.8,8.6-7.7c0.3-0.3,0.6-0.6,0.9-0.8
		c1.8-1.2,3.3-2.6,4.9-4.1c0.5-0.4,1.1-0.8,1.6-1.1c0.6-0.4,1.1-0.8,1.4-1.4c0.4-0.9,1.1-1.5,1.8-2.1c1.2-1.3,2.4-2.4,3.3-3.9
		c0.3-0.4,0.7-0.8,1.1-1.1c1.8-1,2.9-2.7,4.4-4c0.4-0.3,0.5-0.9,0.8-1.4c0.1-0.2,0.4-0.3,0.6-0.4c0.1,0.3,0.1,0.6,0.5,0.5
		c0.1,0,0.1-0.3,0.2-0.5c0.6,0.1,0.8-0.3,0.8-0.8c0.4,0,0.7-0.3,0.7-0.7c0-0.3-0.1-0.5-0.3-0.6c0,0-0.2,0.2-0.2,0.3
		c0,0.4-0.1,0.7-0.1,1.1c-0.7,0.1-0.7,0.1-0.8,0.8c-0.3,0-0.6,0-0.9,0c0.1-0.5,0.2-1,0.4-1.5c0.4-0.9,0.8-1.7,1.1-2.5
		c0.1-0.3,0.1-0.8,0-1.2c-0.3-0.7-0.6-1.5-1.1-2.1c-1.4-1.5-2-3.3-2.5-5.4c1.4-1.8,2.9-3.7,4.8-5.5c0.7-0.3,1.7-0.8,2.6-1.3
		c0.9-0.5,1.7-1.2,2.6-1.8c1-0.7,2-1.3,3-1.9C174.2,24.5,174.7,24.6,175,24.5L175,24.5z"/>
	<path class="st0" d="M95.7,111.1c0-0.4,0.2-0.8,0.6-1c0.7-0.4,1.4-0.8,2-1.3c0.6-0.5,1.2-1.1,1.7-1.6c1.4-1.4,3.2-2.4,4.8-3.4
		c1.4-0.8,2.7-1.6,3.9-2.7c0.4-0.4,0.9-0.5,1.5-0.4l-0.1-0.1c0.1,0.5,0.4,0.8,0.9,0.9l-0.1-0.1c-0.1,1-0.7,1.5-1.6,1.7
		c-0.1-0.2-0.2-0.4-0.3-0.6h-0.2c-0.1,0.5,0.3,0.4,0.6,0.4c-0.2,0.7-0.6,1.2-1.2,1.5c-1.1,0.7-2.1,1.6-3.3,2.2s-1.9,1.9-3.3,2.1
		c-0.6,0.6-1.1,1.1-1.7,1.7c-0.8,0.7-1.7,1.3-2,2.4c-0.1,0.5-0.6,0.9-1,1.2c-1.1,1-2,2.1-2.6,3.4c-0.8,0.7-1.2,1.7-1.5,2.7
		c-0.4,1.4-1.1,2.7-1.8,4.1c0,0.4,0,0.9-0.1,1.5c-0.2,1.6,0.5,2.8,1.5,4c1.2,1.4,2.7,2.5,4.5,3.1c0.3,0.1,0.4,0.3,0.4,0.6l0.1-0.1
		c-0.4,0-0.8,0-1.2,0.1c-0.2,0-0.4,0.3-0.4,0.5s0.1,0.5,0.3,0.7c0.5,0.5,1.2,0.5,1.8,0.2c0.2-0.1,0.2-0.4,0.3-0.6l-0.1,0.1
		c1.3-0.1,2.5,0.2,3.6,0.9c0.5,0.4,1.1,0.6,1.7,0.8c0.6,0.2,1,0.8,1.1,1.4l0.1-0.1c-1.5,0-2.9-0.1-4.4,0c-1,0.1-1.7-0.7-2.7-0.6
		c-1,0.1-1.8-0.3-2.5-1c-0.9-1-1.8-2-3-2.6c-0.2-0.1-0.4-0.3-0.6-0.5c-1.6-2-3.1-3.9-4.4-6.1c-0.1-0.2-0.3-0.5-0.2-0.7
		c0-1-0.4-1.8-0.7-2.7c-0.2-0.9-0.2-1.8,0.4-2.7c0.8-1.2,1.6-2.4,2.4-3.7c0.5-0.7,1.1-1.1,2-1c-0.2,0.3-0.5,0.6-0.6,1
		c-0.1,0.2-0.1,0.5-0.2,0.7c-0.2,0.1-0.5,0.2-0.6,0.3c-0.2,0.2-0.1,0.3,0.2,0.2c0.2-0.1,0.3-0.3,0.3-0.6c0.7,0.2,1.3-0.1,1.8-0.6
		s0.8-1,0.7-1.7c0.3,0.1,0.5,0,0.6-0.2c0.1-0.2-0.1-0.4-0.3-0.3c-0.2,0.1-0.3,0.3-0.2,0.6c-0.2,0.1-0.5,0.1-0.7,0.2
		c-0.3,0.2-0.6,0.4-1,0.6c0-0.7,0.1-1.3,0.7-1.7c0.8-0.6,1.6-1.3,2.6-1.6c0,0.3,0,0.5,0.1,0.8c0,0.1,0.1,0.3,0.1,0.4
		c0,0.1,0.2,0.1,0.2,0.1c0.2-0.2,0.3-0.5,0.1-0.7c-0.2-0.2-0.4-0.3-0.6-0.4C94.3,111.8,95,111.4,95.7,111.1c0.1,0.3,0,0.5,0,0.8
		s0.1,0.5,0.4,0.6c0.1,0,0.2-0.2,0.3-0.3c0-0.2,0.1-0.5,0-0.7C96.2,111.3,95.9,111.2,95.7,111.1z"/>
	<path class="st0" d="M84,224.1c1.1,0,2.2,0,3.2,0c0.4,0,0.9,0.1,1.1,0.3c0.8,0.7,1.8,0.4,2.9,0.7c0.4,0.3,0.9,0.7,1.4,1.1
		c0.5-0.1,1-0.3,1.5-0.3c0.5,0.1,1,0.4,1.5,0.6c0.5,0.3,0.9,0.6,1.3,0.9c0.6,0.5,1.1,1.2,1.8,1.5c0.9,0.5,0.9,1.2,1,2
		c0,0.1,0,0.3-0.1,0.5c-0.4,0.6-0.8,1.2-1.2,1.9c-0.2,0.1-0.5,0.3-0.7,0.4c-1.5,0.1-2.9,0.6-4,1.6c-0.8,0.7-1.8,1.1-2.9,1.7
		c-0.7,0-1.5,0-2.3,0c-1.6,0-3.2-0.1-4.8-0.1c-1.1,0-2.1,0-3.1-0.5c-0.6-0.3-1.3-0.2-2-0.2c-1.2,0-2.4,0-3.6,0
		c-0.8-0.3-1.5-0.7-2.2-0.9c-1-0.3-1.4-1.2-2-1.9c-0.1-0.1-0.1-0.6,0.1-0.7c1.7-1.3,3.3-2.7,5-4C78.4,226.8,80.9,225.3,84,224.1z
		 M79.6,235.2c1-0.3,1-0.3,2.1-0.1c1.4,0.3,2.9,0.1,4.4,0.1c1.5,0.1,2.9-0.1,4.2-0.7c0.9,0,1.5-0.5,2.2-0.8c0.6-0.3,0.8-0.8,0.4-1.3
		c-0.7-1-1.5-1.9-1.9-3c-0.3-1-0.9-1.6-1.8-2c-1.1-0.5-2.1-1-3.4-1.6c-0.7,0.7-1.7,0.6-2.5,0.9c-1,0.4-1.8,1.1-2.7,1.7
		c-0.5,0.4-1.1,0.7-1.5,1.1c-0.6-0.3-1.1-0.6-1.6-0.2c-1.1,0.7-2.4,1.1-3.3,2.2c-0.3,0.4-0.3,0.7-0.2,1.2
		C75.9,233.4,77.7,234.3,79.6,235.2z"/>
	<path class="st0" d="M52.6,223.7c0.5-0.6,1.2-0.3,1.8-0.6c0.1,0,0.2-0.2,0.2-0.3s-0.1-0.3-0.2-0.4c-0.3-0.2-0.7-0.6-1-0.6
		c-1.2-0.1-2.4-0.1-3.6-0.1c-0.1,0-0.2,0.1-0.3,0.2c0.1,0.2,0.2,0.4,0.4,0.4c0.4,0.1,0.8,0.1,1.2,0.2c0.2,0.1,0.4,0.3,0.5,0.5
		c0.1,0.3,0,0.5-0.3,0.6c-0.8,0.3-1.5,0.3-2.3,0.1c-0.3-0.1-0.4-0.2-1-1.1c0.2-0.2,0.3-0.4,0.5-0.7c-0.2-0.3-0.3-0.7-0.5-1
		c0-0.1,0-0.3,0-0.4c1.2-1.7,2.2-3.6,3.1-5.5c0.3-0.6,0.7-1.1,1.2-1.6c0.8-0.9,1.7-1.7,2.5-2.6c0.7-0.8,1.7-1.3,2.7-1.7
		c0.9-0.3,1.8-0.5,2.7-0.4c0.8,0.1,1.6,0.1,2.4,0.2c0.5,0.7,0.9,1.4,1.4,2c0.5,0.6,1.1,1.2,1.7,1.7c2,1.6,3.6,3.6,5.2,5.4
		c0.1,0.2,0.1,0.3,0.1,0.5c0.1,1.1-0.4,1.9-1.3,2.1c-0.4,0.1-0.8,0.1-1.2,0.2c-0.5,0.1-1.1,0.1-1.7,0.2c-1.8,1.3-4.2,1.3-6.3,2.2
		c-0.4,0.1-0.8,0.1-1.2,0.1c-1.1,0-2.1,0.2-3.1,0.6c-0.9,0.3-1.8,0.3-2.8,0.2C53,224,52.8,223.8,52.6,223.7z M50,220
		c1.4,0.2,2.9,0.3,4.2,0.9c1.2,0.6,2.5,0.8,3.9,0.8c1.1,0,2.1-0.1,3.2-0.1c0.7,0,1.6-0.9,1.6-1.6c0-1.9,0-3.7,0-5.6
		c0-0.4-0.3-0.8-0.5-1.1c-0.4-0.5-0.9-1-1.6-1.3c-0.4,0-1,0-1.5-0.1c-1.8-0.2-3.4,0.1-4.8,1.4c-1.1,0.3-1.8,1.1-2.4,1.9
		c-0.9,1.2-1.5,2.5-1.9,3.9c-0.1,0.2,0,0.5,0,0.8c-0.2,0.1-0.4,0.2-0.6,0.3c0.1,0.1,0.1,0.1,0.2,0.2C49.8,220.4,49.9,220.2,50,220z"
		/>
	<path class="st0" d="M223.2,316.3c-0.4-0.1-0.8-0.1-1.1-0.3c-0.8-0.5-1.7-0.7-2.6-0.7c-2.5,0-5,0-7.5,0.1c-1.2,0-2.3-0.2-3.3-1
		c-0.5-0.4-1-0.9-1.7-0.8c-1.2-0.6-2.2-1.5-2.8-2.7c-0.6-1.2-1.3-2.3-1.5-3.6c0.1-0.6,0.5-1.1,1.1-1.5c0.1-0.1,0.3,0,0.4,0h-0.1
		c0,0.8,0,1.6,0,2.4c0.5,0.9,1,1.9,1.5,2.8c0.1,0.2,0.4,0.2,0.7,0.2c0.1,0,0.2-0.2,0.2-0.3c0.3-0.6,0.1-1.3,0-2
		c-0.1-0.8-0.2-1.6,0.1-2.4c0.1-0.3,0.3-0.5,0.6-0.3c0.2,0.1,0.4,0.3,0.5,0.5c0.2,0.2,0.1,0.5-0.1,0.7c-0.4,0.9-0.6,1.8-0.3,2.7
		c0.2,0.5,0.5,0.9,0.3,1.5c-0.1,0.1,0.1,0.5,0.3,0.6c0.9,0.8,2,1.3,2.9,2c0.6-0.3,1.2-0.6,1.9-0.2c0.5,0.3,1,0.4,1.5,0.4
		c1.1,0,2.1,0,3.2,0.1c0.9,0.1,1.8-0.5,2.7-0.3c0.6,0.1,0.8-0.2,0.7-0.6c0-0.1,0-0.3-0.1-0.4c-0.7-1.3-0.8-2.8-1.9-3.9
		c-0.2-0.2-0.2-0.5-0.2-0.7c-0.1-0.9-0.6-1.5-1.3-1.9c-0.2-0.2-0.4-0.3-0.6-0.5c-0.8-0.5-1.7-0.8-2.2-1.6c-0.5-0.6-0.9-1.3-1.3-1.9
		c-0.9-0.4-1.9,0.3-2.6-0.6c0-0.7-0.1-1.3-0.1-2c-0.2-0.4-0.5-0.7-0.9-0.7c-0.5,0-1.1,0-1.6,0c-0.4,0-0.6-0.4-0.4-0.8
		c0.3-0.4,0.6-0.9,0.9-1.3c2.1,0.9,4.1,2,5.7,3.6c1.2,0.2,2.2,0.4,2.9,1.3c0.1,0.2,0.5,0.3,0.7,0.3c0.6,0,1,0.1,1.5,0.5
		c0.7,0.6,1.5,1.1,2.2,1.7c0.1,0.2,0.2,0.4,0.4,0.7c0.4,0.7,0.4,0.7,0.2,1.8c1.1,1.2,2.1,2.5,2.1,4.2c0,2,0.8,3.6,2.1,5
		c0.2,0.2,0.2,0.5,0.3,0.7c0,0.1,0.1,0.3,0,0.4c-0.2,0.1-0.5,0.3-0.7,0.3c-0.9-0.1-1.7-0.6-2.4-1.2c-0.1-0.1-0.1-0.2-0.1-0.4
		c0.3-0.1,0.7,0,0.6-0.5c0,0-0.2-0.1-0.2,0C223.3,315.9,223.3,316.1,223.2,316.3z"/>
	<path class="st0" d="M280.1,311.4c0,0.1,0,0.3,0,0.4c-0.1,0.3-0.1,0.5-0.2,0.8c-0.7,0.5-1.5,0.5-2.3,0.4c-0.9-0.2-1.7-0.6-2.6-0.8
		c-0.6-0.1-1.2-0.5-1.8-0.8c-0.9-0.5-1.9-0.9-2.8-1.5c-1.1-0.8-2.5-0.8-3.6-1.5c-0.9-0.1-1.8-0.1-2.8-0.2c-0.4,0-0.8,0-1.2,0
		c-0.7-0.4-1.4-0.8-2.1-1.2c-1.2-0.8-2.2-1.9-2.7-3.3c-0.7-1.6-1.5-3.1-2-4.7c-0.5-1.5-0.9-3-1.3-4.5c-0.1-0.5-0.2-1-0.2-1.6
		c-0.2-1.8,0-3.7-0.7-5.5c-0.4-1.1,0-2.4-0.4-3.5c-0.7,0.2-0.6,1.2-1.4,1.2l0.1,0.1c0-0.7-0.1-1.3,0-2c0-0.5,0.2-1,0.5-1.5
		c0.4-0.5,0.8-0.7,1.5-0.3c0.3,0.7,0.6,1.6,0.9,2.5c0.2,0.5,0.2,1.1,0.2,1.6c-0.2,1.7,0.2,3.5,0.3,5.2c0,1,0.6,2,0.6,3.1
		c0,1.1,0.5,2.1,1,3c0.5,1,0.4,2.1,1,3c0.6,0.9,1.1,1.8,1.6,2.7c0.6,0.2,1.2,0.4,1.7,0.6c-0.1,0.3-0.2,0.5-0.3,0.8
		c0.4,0.8,0.8,1.6,1.2,2.4c0.8,0.4,1.5,0.8,2.2,1.2c0.3,0,0.5,0,0.8,0.1c0.8,0.1,1.6,0.1,2.4,0.2c0.9,0.6,2,0.5,3,1.1
		c1,0.6,2.1,1.1,3.2,1.6c0.9,0.4,1.8,0.5,2.7,0c1.5-0.8,3.2-1.3,4.6-2.3c0.6-0.4,1-0.8,1.3-1.5c0.3-0.9,0.6-1.7,1-2.6
		c0.2-0.5,0.6-0.9,1.1-1c0.6,0.4,0.9,0.9,1,1.6c0.2,2.7,0.2,2.7,1.4,5.5c0.5,0.4,1.2,0.8,1.8,1.2c1,0.1,1.9,0.2,2.9,0.2
		c0.9,0,1.9,0,2.7,0c1,0.2,1.9,0.4,2.5,1.2c-0.2,0.2-0.3,0.4-0.5,0.6c-0.4,0.3-0.9,0.5-1.5,0.3c-0.6-0.3-1.2-0.5-1.9-0.5
		c-1.9,0.1-3.7-0.2-5.6,0c-0.5,0.1-0.6-0.3-0.2-1c0-0.1,0-0.2,0-0.4c-0.4-0.3-0.8-0.6-1.3-0.9c-1.3-0.6-1.9-1.4-1.2-2.8
		c0-0.1-0.1-0.3-0.1-0.3c-0.2-0.1-0.7-0.1-0.7,0c-0.5,1-1.4,1.5-2.3,2.2c-0.5,0.3-0.6,0.8-0.8,1.3c-0.1,0.2-0.4,0.3-0.6,0.5
		c-0.1-0.2-0.2-0.4-0.2-0.6c-0.1,0.1-0.2,0.1-0.2,0.2C279.7,311.2,279.9,311.3,280.1,311.4z"/>
	<path class="st0" d="M195.8,277c0-1.2,0.2-2.3,0.6-3.5c0.6-1.6,1-3.3,1.6-4.9c0.3-0.7,0.3-1.5,0.2-2.3c0-0.1-0.1-0.2-0.2-0.3
		c-2,1.5-2,1.5-3.2,3.3c-0.3,0.4-0.6,0.8-1,1.2c-0.1,0.1-0.3,0-0.4,0l0,0c0-0.3-0.1-0.6,0-0.8c0.5-1.2,1.2-2.4,2.2-3.3
		c1-1,2.2-1.9,2.7-3.4c0.8-1,1.7-2.1,2.8-2.8c0.2-0.1,0.5,0,0.7,0c0.1,0,0.2,0.2,0.2,0.3c0,0.4,0.2,0.8,0,1.2
		c-0.3,0.7-0.5,1.6-1,2.1c-0.8,0.9-1.3,2-1.4,3.2c-0.6,0.8-0.7,1.6-0.6,2.6c0.1,1.3,0.1,2.7,0,4c-0.1,1.4,0.5,2.6,1,4
		c0.3-0.5,0.5-0.8,0.7-1.1c0.3-0.4,0.6-0.4,1.1-0.4c0.4,2.2,1.3,4.3,1.1,6.6c0,0.7,0.1,1.3,0.1,2s0.7,1.1,0.6,1.8l0.1-0.1
		c-0.3,0.2-0.7,0.4-1,0.6c-0.2,0.1-0.5,0-0.7-0.2c-0.3-0.4-0.6-0.9-0.6-1.4c0-1.1-0.1-2.1-0.2-3.2c0-0.7-0.3-1.3-0.7-1.8
		c-0.1-0.1-0.2-0.2-0.3-0.2s-0.2,0-0.3,0.1c-0.7,1.7-1.7,3.3-2.2,5.1c-0.1,0.4-0.3,0.8-0.7,0.9c-0.7,0-0.4-0.9-0.9-1
		c-0.3-0.1-0.7,0.2-1,0.3c-0.3,0.1-0.9-0.3-0.9-0.6c-0.1-1.6-0.3-3.2,0.6-4.6c0.1-0.9,0.1-1.8,0.2-2.8c0-0.4,0.3-0.7,0.8-0.8
		c0,1.3-0.3,2.6,0.2,3.9c0.4-1,0.7-1.8,1-2.6C196.9,277.6,196.5,277.3,195.8,277z M195.5,281.9c-0.1,0.1-0.3,0.2-0.2,0.2
		c0.1,0.4,0.3,0.4,0.5,0C195.7,282.1,195.6,282,195.5,281.9z"/>
	<path class="st0" d="M214.4,274.6c0-0.4-0.1-0.9,0.1-1.2c0.5-0.8,0.6-1.8,1-2.6c0.4-0.7,0.4-1.5,0.7-2.2s0.5-1.5,0.8-2.2
		c0.2-0.6,0.7-1.1,1-1.7c0.7-1.2,1.1-2.4,1.2-3.7c0-0.2,0.2-0.5,0.3-0.7c0.3,0,0.6-0.1,0.7,0c0.2,0.1,0.3,0.4,0.3,0.7
		c0,1.2,0,2.4-0.1,3.6c-0.1,0.8-0.5,1.5-0.6,2.3c-0.1,1-0.1,2.1-0.2,3.2c-0.1,0.6-0.3,1.3-0.3,1.9c0,0.5,0.3,1,0.3,1.5
		c0.1,0.8,0,1.6,0,2.4c0,1.5,0,2.9,0.1,4.4c0.8,1.5,1.6,3,2.3,4.6c0.3,0.6,0.7,1.1,1.2,1.6c0.8,0.7,1.6,1.4,2.6,1.6
		c0.8-0.3,1.1-1.3,2-1.3l-0.1-0.1c0,0.3,0.1,0.5,0,0.8c-0.4,0.9-0.9,1.8-1.2,2.8c-0.1,0.3-0.5,0.5-0.8,0.8c0,0.3,0,0.7,0,1
		c-0.3,0.2-0.7,0.5-1,0.7c-0.3,0.7-0.7,1.4-1.1,2.1l0.1-0.1c-0.4,0.1-0.8,0.1-1.1-0.2c-0.6-0.6-1.2-1.3-1.4-2.3c0.3,0,0.5,0,0.8,0
		c0.6,0,1-0.5,0.8-1c-0.3-0.6-0.5-1.2-0.9-1.8c-0.1-0.2-0.4-0.2-0.6-0.3c-0.1-0.3,0-0.7-0.5-0.6c0,0,0,0.2,0,0.3
		c0.1,0.2,0.3,0.3,0.6,0.2c-0.3,1.1,0,2.2,0,3.3c-0.1,0-0.3,0-0.4-0.1c-0.7-1-1.4-2-1.3-3.2c0-0.8-0.5-1.5-0.6-2.3
		c-0.1-0.8,0.1-1.7-0.2-2.4c-0.8-1.9-0.7-3.9-0.7-5.9c0-1.2,0-2.4-0.1-3.6c0-0.7-0.2-1.3-0.4-1.9c-0.2-0.6-0.2-1.3-0.3-1.9
		c-0.1-0.5,0-1.1-0.4-1.6c-0.2,0.6-0.4,1.2-0.7,1.8s-0.5,1.2-0.6,1.9c-0.1,0.7-0.5,1.2-1.1,1.6c-0.1,0.1-0.3,0-0.4,0L214.4,274.6z
		 M219,267.1c0-0.2,0-0.5-0.1-0.7c0-0.1-0.1-0.2-0.2-0.2c-0.1,0.1-0.2,0.2-0.2,0.3c0,0.2-0.1,0.5,0,0.7c0,0.2,0.1,0.5,0.2,0.7
		C218.7,268,219,267.6,219,267.1z"/>
	<path class="st0" d="M171.9,296.2c-0.8,0.1-1.6,0.3-2.3-0.2c-2.4-1.5-5.1-2.1-7.5-3.5c-0.3-0.2-0.8-0.2-1.1-0.3
		c-1.7-0.5-2.1-1.1-1.9-2.9c0-0.1,0.1-0.3,0.2-0.5c1.4-0.9,2.8-1.8,4.5-2.8c1.2-0.2,2.7-0.2,4.1-0.8c0.5-0.2,1-0.1,1.5,0.2
		c0.8,0.4,1.7,0.8,2.4,1.4c0.8,0.7,1.9,1,2.8,1.4c1.4-0.2,2.5,0.8,3.8,1c0.8,0.1,1.4,0.7,1.5,1.6c0.1,0.7,0.3,1.3,0.6,1.9
		c0.3,0.6,0.3,1.3,0.1,2c-0.2,0.6-0.5,1.2-0.7,1.9c-0.2,0.6-0.1,1.3-0.4,1.9c-1.4,0.3-1.4,0.3-2.7-0.3c-0.4,0.1-0.9,0.2-1.4,0.4
		c-1.3-0.7-1-1.7-0.5-2.7c0-1.1-0.8-2-1-3.1c0.1-0.2,0.3-0.6,0.4-1c0.3-1.1-0.1-1.8-1-2.3c-0.8-0.4-1.7-0.8-2.5-1.2
		c-0.7-0.4-1.2-1-2-1.2c-0.9,0-1.7,0.7-2.7,0.6c-0.8-0.1-1.6,0.1-2.5,0.1c-0.8,0.6-1.6,1.2-2.5,1.9c0.2,0.3,0.3,0.8,0.6,0.9
		c1,0.4,1.8,1.1,2.6,1.7c0.7,0.5,1.7,0.7,2.5,1c0.4,0.1,0.8,0.2,1.1,0.4c1,0.6,2.1,1.1,3.2,1.5c0.2,0.1,0.4,0.4,0.5,0.6
		c0.1,0.2,0.2,0.5,0.3,0.7V296.2z"/>
	<path class="st0" d="M172.1,270.9c-0.1-0.8-0.3-1.6-0.4-2.5c-0.6-0.6-1.2-1.3-1.8-2c-0.5-0.7-1-1.6-1.7-2.2c-0.7-0.6-1.3-1.3-1.9-2
		c-0.6-0.7-1.2-1.4-1.7-2.2s-1.1-1.5-2-2.1c-0.3,0.4-0.5,0.8-0.8,1.3c-0.2-0.6-0.2-1.1-0.4-1.5c-0.3-0.7-0.6-1.5-1-2.1
		c-0.7-1.1-1.5-2.1-2.3-3.2c-0.3-0.4-0.7-0.8-1-1.2c-0.3-0.5-0.4-1-0.2-1.5c0-0.1,0.1-0.3,0.2-0.3c0.1,0,0.2,0,0.3,0
		c1,0.5,1.6,1.4,2.1,2.5c0.7,0.4,1.5,0.9,2.4,1.4c0.4,0.6,1,1.2,1.3,1.9c0.5,1.2,1.4,1.9,2.4,2.6c0.7,0,1.3,0.1,2,0.1
		c0.2,0.3,0.4,0.7,0.6,1c0.5,0.7,1,1.2,1.9,1.3c1.1,0.1,2.1,0,3.1,0.6c1.2-2.1,2.5-4.1,3-6.5c0.1-0.6,0.6-1.2,0.9-1.7
		c0-0.1,0.2-0.1,0.3-0.1c0.1,0.1,0.2,0.2,0.2,0.3c0.1,1.2,0.2,2.4-0.4,3.5c-0.1,0.2-0.2,0.5-0.2,0.8c-0.1,0.8-0.1,1.6-1.2,1.7
		c-0.1,0-0.2,0.1-0.3,0.2c-0.5,0.9-0.9,1.9-1.4,2.8c-0.4,0.7-0.5,1.5-0.5,2.3s0,1.6,0.1,2.4c0.1,0.6,0.5,1.2,0.6,1.9
		c0.1,0.6-0.4,1-0.8,1.2C172.7,269.9,172.8,270.7,172.1,270.9z M171.8,263c-0.1-0.1-0.2-0.2-0.3-0.3c-0.1,0.1-0.2,0.2-0.3,0.3
		c0.1,0.1,0.2,0.3,0.3,0.3C171.6,263.2,171.7,263.1,171.8,263z"/>
	<path class="st0" d="M228,286.7c-0.1-1,0.4-1.7,1.1-2.4c0.2-0.2,0.9-0.1,1,0.2c0.4,0.7,0.7,1.4,1.5,1.6c0.8,0.2,1.2,1,1.6,1.5
		c0,0.6-0.6,0.9-0.4,1.5c-0.4,0.1-0.7,0.3-0.8,0.7c-0.2,0.5-0.1,1,0.4,1.4c0.3-0.3,0.6-0.5,0.8-0.8c-0.2-0.5-0.3-1-0.5-1.4
		c1.4,0.1,2.4,1.1,3.8,1.4c0.5-0.2,0.9-0.7,1.1-1.3c0.2-0.8,0.7-1.4,1.4-1.9c0.5-0.4,1.3-0.4,1.8,0c0.5,0.4,0.7,1.1,1.1,1.6
		c0.3,0.4,1.4,0.4,1.8,0c0.4-0.5,0.5-1.2,1.1-1.6c0.1-0.1,0.3-0.1,0.4-0.1c0.1,0,0.2,0.1,0.2,0.2c0,1,0.1,2.1,0.1,3.1
		c0.1,1.4-0.1,2.9,0.3,4.4c0.2,0.7,1.3,0.8,1.5,1.6c0,0.1,0.2,0.2,0.3,0.3c0.2-0.1,0.4-0.3,0.4-0.5c0.1-0.4,0.2-0.8,0.3-1.1
		c0.1-0.3,0.3-0.4,0.6-0.4l-0.1-0.1c0,0.8,0,1.6,0.1,2.4c0.1,0.6,0.3,1.3,0.5,2c-0.2,0.7-1.4,0.6-1.3,1.7c0,0.3-0.3,0.7-0.5,1.1
		c-0.4,0.7-1.2,0.7-1.5,0.1c-0.5-0.9-1.1-1.8-1.1-2.9c0-1.2-0.8-2.2-0.8-3.5c0-1.1-0.1-2.1-0.2-3.2c0-0.5-0.3-1.1-0.8-1.3
		c-1.2-0.4-2-1.3-2.8-2.1c-0.2-0.2-0.5-0.2-0.7-0.3c-0.6,0.7-1,1.5-1.3,2.4c-0.3,0.7-0.7,1.4-1.1,2c-0.8,0.3-1.3-0.4-1.8-0.6
		c-1.1-0.1-2.1-0.1-3,0.6c-0.2,0.2-0.9-0.1-1-0.4c-0.2-0.7-0.8-1.4-0.8-2.2c0-0.7,0-1.3-0.2-2c-0.2-0.7-0.6-1.4-0.9-2.1
		C228.8,286.1,228.5,286.7,228,286.7L228,286.7z M246.7,300.2c0.5-0.4,0.6-0.9,0.2-1.3c-0.2-0.3-0.6-0.5-0.8-0.7
		c-0.5,0.5-0.5,0.7-0.3,0.9C246,299.4,246.4,299.8,246.7,300.2z"/>
	<path class="st0" d="M181.5,271.4c0-0.4-0.1-0.8,0.1-1.2c0.4-0.8,1.1-1.5,1.4-2.4c0.4-1.2,1.4-1.9,1.8-3c0.4-1.1,1.1-2.1,1.6-3.2
		c0.2-0.5,0.6-0.9,1.1-1.1c0.1,0.2,0.3,0.4,0.4,0.6c0.2,0.9,0.1,1.9-0.3,2.7c-0.5,1.1-0.6,2.3-0.6,3.5c0,1.5,0,2.9,0,4
		c0.3,1.7,1.8,2.3,1.8,3.8c0.4-0.2,0.7-0.2,0.9-0.4c0.9-1.4,2.1-2.7,3.2-4c0.1-0.2,0.5-0.2,0.7-0.2l0,0c-0.1,0.4,0,0.8-0.2,1.1
		c-0.4,0.7-1,1.2-1.5,1.9c-1,1.4-2.1,2.7-2.5,4.5c-0.1,0.5-0.5,0.9-1,1.2c-0.5-0.4-1-0.8-1.6-1.2c-0.2,0.6-0.4-0.1-0.3,0.4
		c0.1,0.4,0.2,0.7,0.3,1.1c0.4,1.1,1.2,2.1,1.2,3.3c0.7,0.8,1.4,1.6,2,2.4c0.1,0.1,0.1,0.2,0,0.3c-0.2,0.2-0.4,0.3-0.7,0.2
		c-0.1,0-0.3-0.1-0.3-0.2c-1.9-1.8-3.1-3.9-3.5-6.5c0-0.3,0-0.5-0.1-0.8c-0.2-0.6-0.7-1.2-0.3-1.9c0.3-0.7-0.1-1.3-0.1-1.9
		c0-0.4,0-0.8,0.1-1.2c0.5-1.1,0.4-2.3,0.4-3.5c0-0.5-0.2-0.8-1.1-1.5c-0.9,0.5-1,1.5-1.6,2.2C182.3,270.9,182,271.4,181.5,271.4
		L181.5,271.4z"/>
	<path class="st0" d="M150.3,266.2c0.3,0.3,0.7,0.7,1.1,1c1.4,0.8,2.5,2,3.6,3.2c0.4,0.5,0.7,1.1,1.2,1.5c0.8,0.7,1.7,1.2,2.7,1.9
		c0.8,0,1.7,0,2.7,0c0.7-0.4,1.4-0.7,2.1-1.1c0.3-0.6,0.5-1,0.7-1.6c-0.6-1.2-0.6-2.5-0.6-3.8c0-0.5-0.1-1-0.4-1.5
		c-0.4-1-0.8-2-1.1-3c-0.2-0.7-0.4-1.6,0.2-2.3c0.6,1.6,1.1,3.2,1.7,4.9c0.1,0.2,0.2,0.5,0.2,0.8c0.2,1.2,0,2.4,0.7,3.5
		c0.2,2.3,0.5,4.5,0.1,6.8c-0.1,0.4-0.5,0.6-0.9,0.5c-0.3-0.4-0.6-0.8-0.9-1.2c-0.7,0.2-1.3,0.3-2,0.5c-0.3-0.1-0.7-0.3-1.1-0.4
		c-3.9-1.4-4.2-1.5-7-4.3c-0.3-0.3-0.6-0.6-0.8-0.9c-1.2-1.8-2.8-3.2-4.7-4.3c-0.4-0.2-0.8-0.7-1.1-1.1c-0.2-0.2-0.2-0.5-0.1-0.7
		c0.1-0.1,0.2-0.2,0.3-0.2c0.4,0,0.8,0,1.2,0c0.8,0.1,1.6,0,2.3-0.5c0,0,0.2,0.1,0.3,0.1c0.1,0.1,0.1,0.2,0.1,0.4
		C150.8,264.9,150,265.3,150.3,266.2z"/>
	<path class="st0" d="M203.9,286.7c0.4-0.1,0.7-0.4,0.8-0.8c0.1-0.4,0.1-0.8,0.1-1.2c-0.1-1.5,0.7-2.8,1.1-4.2
		c0.3-1.1,1.1-2.1,1.7-3.1c0.1-0.1,0.5-0.1,0.7-0.1c0.1,0,0.2,0.2,0.2,0.3c0,0.3-0.1,0.5-0.1,0.8c0.9,0.9,1.8,1.9,2.2,3.2
		c0.1,0.2,0.3,0.4,0.5,0.6c0.1,0.1,0.2,0.1,0.4,0.2c0.2,0.1,0.5-0.1,0.5-0.4c0.1-0.5,0.1-1.1,0.2-1.6s0.5-1,0.6-1.5
		c0.1-0.4,0-0.8,0.1-1.2c0.1-0.5,0.4-1,0.6-1.5s0.2-1.1,0.6-1.4c0.1-0.1,0.2-0.1,0.4-0.2l-0.1-0.1c0,1.3,0.3,2.7-0.7,3.8
		c-0.4,1.5-1.2,3-0.9,4.6c0,0.1,0,0.3,0,0.4c-0.6,1.2-0.8,2.5-0.8,4.2c-1-1.4-0.3-2.7-1-3.9c-0.5-0.2-1.1-0.5-1.7-0.8
		c-0.2,0.1-0.5,0.2-0.7,0.3c-0.2,0-0.4-0.1-0.4-0.5c-0.1-0.7,0.1-1.3-0.3-2c-0.1-0.1-0.2-0.2-0.3-0.2c-0.1,0-0.3,0.1-0.4,0.1
		c-0.4,0.4-0.7,0.8-0.8,1.4c-0.1,0.7-0.1,1.3-0.2,2c-0.1,0.4-0.1,0.8-0.3,1.1c-0.3,0.5-0.3,1,0,1.5c0.6,1.1,0.7,2.3-0.1,3.4
		c-0.2,0.3-0.4,0.7-0.6,1c-0.2,0.3-0.9,0.3-1,0.1c-0.3-0.6-0.6-1.2-0.9-1.7c-0.1-0.3,0.1-0.7,0.5-1c0.2-0.1,0.4-0.3,0.7-0.4
		C204.3,287.5,204.1,287,203.9,286.7L203.9,286.7z"/>
	<path class="st0" d="M76.5,50.2c0.1-1,0.7-1.4,1.5-1.5c1.9-0.2,3.7-0.5,5.3-1.5c1.4-0.1,2.5-0.9,3.3-1.8c0.7,0,1.2-0.1,1.7-0.1
		c3,0,3.7-0.5,6.9,1.4c0.6,0.3,1.4,0.2,1.8,0.7c0.4,0.6,0.8,1,1.4,1.4c0.2,0.1,0.2,0.4-0.1,0.7c-0.2,0.2-0.4,0.3-0.6,0.5
		c-0.9-0.6-1.8-1.1-2.6-1.7c-1.3-1.1-2.9-1.3-4.3-1.9c-0.6-0.3-1.3-0.1-1.9,0.1c-0.2,0.2-0.4,0.4-0.5,0.6c-0.4,0.9-1,1.6-2.1,1.6
		c-0.3,0-0.7,0.2-1.1,0.4c0.6,1,1.3,1.8,2.3,2.2c0.3,0.1,0.4,0.3,0.4,0.5s-0.7,0.4-1.1,0.2c-0.4-0.1-0.7-0.3-1.1-0.4
		c-1-0.4-1.9-0.9-2.9-1.2c-0.8-0.2-1.5-0.4-2.3-0.6c-0.5-0.2-1-0.1-1.5,0.2C78.3,50.2,77.4,50.2,76.5,50.2L76.5,50.2z"/>
	<path class="st0" d="M181.4,271.3c0,0.4,0.1,0.9-0.1,1.2c-1.2,2.1-2,4.3-2.9,6.5c-0.1,0.3-0.4,0.7-0.6,1c-0.2-0.3-0.4-0.5-0.4-0.6
		c0-0.7,0.1-1.3,0.1-2c0-0.8-0.2-1.6-0.6-2.3c-0.3-0.5,0-1,0.2-1.5c0.4-0.8,0.3-0.9-0.5-1.6l0.1,0.1c0-0.4,0-0.8-0.1-1.2
		c0-0.7-0.3-1.3-0.8-1.7c-0.2-0.2-0.3-0.4-0.6-0.7c-0.1-1.6,0-3.3,0-5c0-0.7,0.4-1.2,1.1-1.5c0.4,0.4,0.5,0.9,0.4,1.4
		c-0.1,1.1,0.3,2.1,0.5,3.1c0.2,0.9,0.6,1.7,1.1,2.5c0.4,0.7,0.7,1.4,1,2.1c0.2,0.3,0.5,0.6,0.8,0.8
		C180.7,272,180.9,271.3,181.4,271.3L181.4,271.3z"/>
	<path class="st0" d="M138.2,6.1c0-0.1,0-0.3,0-0.4c0.8-1.1,1.8-1.8,3.3-2c1.4-0.3,2.8-0.9,4.2-1.3c0.4-0.1,0.8-0.2,1.3-0.3
		c1,0.5,2.1,1.1,3.2,1.4c1,0.3,2,0.8,3,1.2c1.4,0.6,2.5,1.5,3.5,2.6c0.1,0.1,0,0.3,0,0.4l0,0c-0.8,0.1-1.5-0.1-2.3-0.4
		c-1.9-0.8-2.5-0.7-3.4,1.3l0.1-0.1c-0.1,0-0.3,0-0.4-0.1c-0.7-0.8-1.3-1.7-1.4-2.8c0-0.2-0.2-0.5-0.3-0.7c-0.3-0.2-0.7-0.3-1-0.5
		c-0.4-0.2-0.7-0.3-1-0.5c-0.9,0-1.7,0-2.5,0c-1.8,1-3.7,1.4-5.5,2.3C138.7,6.2,138.4,6.1,138.2,6.1L138.2,6.1z"/>
	<path class="st0" d="M67.7,59c0-0.4,0-0.8,0-1.1c0.9-0.9,1.7-1.8,2.5-2.6c1-0.9,2.1-1.6,2.9-2.6s1.9-1.4,2.7-2.3
		c0.1-0.2,0.5-0.1,0.7-0.2l-0.1-0.1c0,0.1,0.1,0.3,0.1,0.4c0.1,0.3,0.5,0.7,0.3,1.1c-0.2,0.3-0.4,0.7-0.7,0.9
		c-0.5,0.4-1.1,0.7-1.7,1.1c-0.3,0.2-0.4,0.7-0.4,1.1c0,0.6,0.4,1.1,0.9,1.1c0.5,0.1,1.1,0.1,1.6,0.2c0.1,0,0.2,0.1,0.3,0.2
		c-0.2,0.1-0.3,0.4-0.5,0.4c-1.9,0.1-3.7,0.1-5.4,0.1c-1.1,0.5-1.8,1.3-2.6,2C68.2,58.9,67.9,58.9,67.7,59L67.7,59z"/>
	<path class="st0" d="M119.7,25.3c0.3,0.7,0.8,1.3,0.7,2.2c0,0.9,0.1,1.8,0.1,2.6c0.3,0.6,0.5,1,0.7,1.5c0.2,0.4-0.1,0.7-0.6,0.8
		c-0.1,0-0.3,0-0.4,0c-0.4-0.6-0.8-1.3-1.2-1.9c-0.2-1.6-0.2-3.2,0.2-4.7C119.2,25.6,119.6,25.5,119.7,25.3L119.7,25.3z"/>
	<path class="st0" d="M157.4,8.5c0.6,0,1,0.3,1.2,0.8c0.4,1.1,0.7,2.2,1,3.3c-0.3,0.7-0.5,1.3-0.8,2.1c-0.6,0.5-1.2,1.1-2,1.7
		c-0.3,0.2-0.7,0.1-1.1,0.2l0,0c0-0.4,0.2-0.7,0.5-1c0.6-0.7,1.5-1.1,1.9-2c0.2-1.5,0.1-2.9-0.7-4.2C157.3,9.1,157.4,8.8,157.4,8.5
		L157.4,8.5z"/>
	<path class="st0" d="M67.7,67.8c-0.2-0.1-0.5-0.1-0.7-0.2c-0.9-0.9-1.3-2-1.6-3.2c-0.1-0.2-0.1-0.6,0-0.8c0.6-0.9,0.5-2,0.7-3.1
		c0.1-0.7,0.6-1.2,1.2-1.5c0.1-0.1,0.3,0,0.4,0l-0.1-0.1c0,0.1,0,0.3,0,0.4c-0.2,0.8-0.6,1.5-0.7,2.2c-0.1,1.1,0,2.1,0,3.2
		c0,0.3,0,0.5,0,0.8C67.1,66.3,67.9,66.9,67.7,67.8L67.7,67.8z"/>
	<path class="st0" d="M146.1,132.4c-0.3-0.4-0.7-0.8-1-1.2c-0.3-0.4-0.2-0.8,0.2-0.8c1-0.2,1.6,0.2,1.6,1.1
		c-0.1,0.9-0.1,1.8-0.6,2.6c-0.3,0.4-0.5,0.9-1.1,0.9c-0.6-0.1-0.9-0.5-1.1-0.9c-0.2-0.3,0-0.9,0.3-1c0.2-0.1,0.5-0.1,0.7-0.2
		c0.2-0.1,0.5-0.1,0.7-0.2C145.9,132.6,146,132.5,146.1,132.4z"/>
	<path class="st0" d="M142.1,192c0,0.4,0.1,0.9-0.1,1.1c-1.1,1.3-2.1,2.6-3,4c-0.2,0.4-0.7,0.8-1,1.1c-0.2,0.1-0.5,0.1-0.7,0.2
		l0.1,0.1c0-0.4,0-0.8,0.2-1.1c1.3-1.7,2.4-3.6,4-5.1C141.7,192.1,142,192.1,142.1,192L142.1,192z"/>
	<path class="st0" d="M210.3,309.2c0,0.8,0,1.6,0,2.4c0,0.1-0.1,0.2-0.2,0.3c-0.2,0.1-0.4,0-0.4-0.4c-0.1-0.9-0.1-1.8-0.6-2.7
		c-0.4-0.7-0.3-1.6-0.1-2.3c0-0.2,0.4-0.3,0.6-0.4c0.3-0.1,0.5,0,0.6,0.3c0.1,0.3,0.1,0.5,0.1,0.8
		C210.3,307.9,210.3,308.5,210.3,309.2C210.2,309.2,210.3,309.2,210.3,309.2z"/>
	<path class="st0" d="M201.5,6.1c0-0.1,0-0.3,0-0.4c1.4-1.4,2.8-2.4,4.4-3.3c0,0,0.3,0.2,0.3,0.3c0,0.2,0.1,0.6-0.1,0.7
		c-1.1,0.9-2.3,1.8-3.5,2.6C202.4,6.2,201.9,6.1,201.5,6.1L201.5,6.1z"/>
	<path class="st0" d="M153.2,40.9c-0.2,0.5-0.2,0.7,0.1,1.7c0.1,0.4-0.1,0.9-0.4,1c-0.2,0.1-0.5,0.1-0.7,0.1c-0.5-0.1-1-0.8-0.8-1.1
		c0.2-0.5,0.3-0.9,0-1.4c-0.2-0.4,0.1-0.7,0.4-1c0.3-0.3,0.7-0.3,1,0.1C152.9,40.4,153,40.6,153.2,40.9z"/>
	<path class="st0" d="M94.1,243.3c-0.2-1.2,0.7-1.9,1.1-2.9c0.3-0.7,1-1.2,1.6-1.6c0.1-0.1,0.2-0.1,0.4-0.1c0.1,0,0.3,0,0.4,0.1
		c0.3,0.1,0.3,0.4,0.1,0.6c-1,1.1-1.9,2.1-2.5,3.4C94.9,243.2,94.6,243.4,94.1,243.3L94.1,243.3z"/>
	<path class="st0" d="M160.6,301.8c-0.2,0.5,0.4,0.1,0,0.4c-1.1,0.7-2.3,1.3-3.6,1.3c-1,0-2.1,0.1-3-0.2c-0.2-0.2-0.2-0.4,0.2-0.4
		c0.8-0.1,1.6-0.1,2.4-0.1c0.7,0,1.3-0.2,1.9-0.5c0.7-0.4,1.5-0.3,2.3-0.3L160.6,301.8z"/>
	<path class="st0" d="M85.6,160.4c0.2-0.6,0.5-1.3,0.6-1.9c0.1-0.5,0.3-1,0.6-1.4c0.2-0.3,0.8-0.3,1.3,0.1c-0.5,1-1.2,2-0.8,3.3
		C86.7,161,86.1,160.9,85.6,160.4z"/>
	<path class="st0" d="M152.5,210.1c0,0.4,0,0.8-0.4,1c-0.3,0.1-0.8,0.2-1.1,0.1c-0.4-0.2-0.8-0.6-1.2-0.9c-0.3-0.3-0.3-0.8,0-1
		c0.2-0.1,0.5-0.2,0.7-0.1C151.2,209.4,151.9,209.7,152.5,210.1z"/>
	<path class="st0" d="M183.4,102.5c0,0.1,0.1,0.2,0.1,0.3c-0.2,0.5-0.4,1-0.7,1.4c-0.2,0.4-0.6,0.5-1,0.4c-0.7-0.1-1.2-0.4-1.5-1
		c-0.1-0.2,0-0.5,0.3-0.5c0.8,0,1.5-0.2,2.1-0.7C182.8,102.3,183.1,102.5,183.4,102.5z"/>
	<path class="st0" d="M93.2,244.1c0.1,1,0.1,2-0.6,2.9c-0.5,0.7-0.8,1.6-1.2,2.4c-0.1,0.2-0.4,0.2-0.6,0.3l0.1,0.1
		c0-0.8,0-1.6,0.4-2.3c0.6-1,1.1-2.1,1.6-3.2C93,244.2,93.2,244.2,93.2,244.1L93.2,244.1z"/>
	<path class="st0" d="M198.4,312.4c0.7,0.3,1.2,0.6,1.8,0.9c0.1,0,0.1,0.2,0.1,0.3c-0.1,0.1-0.2,0.2-0.3,0.3c-0.3,0-0.6,0.1-0.8,0
		c-1.3-0.7-2.8-0.8-4.2-0.9c-0.2,0-0.5-0.3-0.4-0.4c0.1-0.3,0.4-0.3,0.7-0.3C196.4,312.3,197.5,312.4,198.4,312.4z"/>
	<path class="st0" d="M141.3,122.9c0.2,0.4,0.4,0.8,0.6,1.3c0.1,0.2-0.1,0.4-0.4,0.4c-0.1,0-0.3,0-0.4-0.1c-0.2-0.2-0.4-0.4-0.4-0.6
		c-0.1-0.7-0.2-1.3-0.5-1.8c-0.4-0.8,0.1-1.2,0.8-1.3c0.6-0.1,1,0.4,0.7,0.9c-0.1,0.2-0.2,0.5-0.3,0.7
		C141.4,122.5,141.3,122.6,141.3,122.9z"/>
	<path class="st0" d="M199.1,7.7c0,0.1,0,0.3-0.1,0.4c-0.8,0.8-1.7,1.6-2.5,2.4c-0.4,0.4-1,0.4-1.5,0.3l0.1,0.1c0-0.1,0-0.3,0.1-0.4
		c0.8-0.8,1.6-1.7,2.5-2.5C198,7.7,198.5,7.6,199.1,7.7L199.1,7.7z"/>
	<path class="st0" d="M85.7,111.1c0.8,1.2,0.7,1.9-0.3,2.7c-0.1,0.1-0.2,0.1-0.4,0.1c-0.2,0-0.5-0.1-0.5-0.4c0-0.5-0.1-1.1,0-1.6
		C84.6,111.3,85.1,111.1,85.7,111.1z"/>
	<path class="st0" d="M129.1,232.4c0,0.1-0.1,0.2-0.1,0.3c-0.6,0.2-1.3,0.3-1.8,0.6c-0.5,0.2-0.8,0.7-1.2,1
		c-0.2,0.1-0.4-0.1-0.5-0.4c0-0.2,0-0.6,0.2-0.7c0.9-0.9,1.9-1.4,3.2-1C128.9,232.2,129,232.3,129.1,232.4z"/>
	<path class="st0" d="M67.6,67.8c0.7,0,1,0.7,1.7,0.8c0.5,0.1,1,0.2,1.4,0.2c0.1,1.2,0,1.3-0.9,1c-0.7-0.3-1.4-0.6-2.1-0.9
		C67.7,68.5,67.7,68.2,67.6,67.8L67.6,67.8z"/>
	<path class="st0" d="M207.5,319c-0.8,0.7-2.4,0.7-4.2,0.1C204.8,318.6,204.8,318.6,207.5,319z"/>
	<path class="st0" d="M103.5,100.6c-0.1-0.1-0.2-0.1-0.3-0.2c-0.4-0.5-0.4-1.2,0.1-1.7c0.3-0.3,0.8-0.3,1,0c0.4,0.5,0.4,1.3-0.1,1.7
		C104,100.5,103.7,100.5,103.5,100.6z"/>
	<path class="st0" d="M157.2,34.6c-0.2,0.3-0.4,0.6-0.7,0.9c-0.2,0.2-0.7,0.2-1,0c-0.3-0.2-0.4-0.7-0.2-1c0.1-0.2,0.3-0.4,0.5-0.6
		c0.3-0.3,0.6-0.3,1,0.1C156.9,34.2,157,34.4,157.2,34.6z"/>
	<path class="st0" d="M268,296.8c0,0.1,0,0.3,0,0.4c-0.1,0.2-0.3,0.4-0.5,0.5c-0.3,0.2-0.9-0.2-0.9-0.5c-0.1-0.4-0.1-0.8-0.1-1.2
		c0-0.3,0.6-0.7,0.9-0.5c0.2,0.1,0.4,0.3,0.5,0.5C268.1,296.2,268,296.5,268,296.8z"/>
	<path class="st0" d="M139.3,251.3c0.5,0.1,1,0.2,1.2,0.8c0.1,0.3,0,0.6-0.3,0.6c-0.5,0.1-1.1,0-1.4-0.5c-0.1-0.2-0.2-0.5-0.2-0.6
		C138.7,251.5,139.1,251.4,139.3,251.3z"/>
	<path class="st0" d="M193.5,311.8c-1.5,0.7-2.7,0.4-4.4,0.3C190.9,311.2,192.1,311.5,193.5,311.8z"/>
	<path class="st0" d="M89.7,104.1c0.1,0.2-0.1,0.5-0.3,0.5c-0.4,0-0.8,0-1.1-0.1c-0.3-0.1-0.4-0.3-0.3-0.6c0-0.4,0.3-0.7,0.7-0.7
		C89.2,103.2,89.5,103.6,89.7,104.1z"/>
	<path class="st0" d="M175.5,104.2c0,0.1-0.1,0.2-0.1,0.3c-0.6,0.4-1.3,0.3-1.7-0.3c-0.1-0.2,0-0.5,0-0.7c0-0.1,0.2-0.2,0.3-0.2
		C174.6,103.2,175.2,103.6,175.5,104.2z"/>
	<path class="st0" d="M158.6,41.9c-0.5-0.5-0.5-1-0.1-1.6c0.2-0.2,0.4-0.3,0.7-0.2s0.6,0.6,0.5,0.8
		C159.4,41.3,159.1,41.7,158.6,41.9z"/>
	<path class="st0" d="M17,222.1c-0.2,0.6-0.6,1.1-1.4,1.1c-0.4,0-0.7-0.2-0.8-0.6c-0.1-0.3,0.2-0.9,0.5-0.9
		C15.9,221.6,16.5,221.5,17,222.1z"/>
	<path class="st0" d="M108.9,97.3c-0.6-0.5-0.5-1.1-0.2-1.7c0.2-0.3,0.4-0.4,0.7-0.3c0.4,0.1,0.7,0.6,0.5,0.9
		C109.7,96.6,109.5,97.1,108.9,97.3z"/>
	<path class="st0" d="M38.1,232.2c0-0.1,0-0.3,0.1-0.4c0.7-0.5,1.5-0.9,2.3-1.1c0.2,0,0.4,0.2,0.6,0.3c-0.4,0.3-0.8,0.7-1.3,1
		c-0.6,0-1.3,0.1-1.9,0.1L38.1,232.2z"/>
	<path class="st0" d="M155.6,153.1c-0.3,0.5-0.7,0.8-1.2,1c-0.2,0.1-0.5,0-0.7-0.1c-0.3-0.1-0.4-0.4-0.2-0.7
		c0.1-0.2,0.2-0.5,0.4-0.6C154.5,152.7,155.1,152.7,155.6,153.1z"/>
	<path class="st0" d="M22.6,219c0.1,0.7-0.2,1.2-0.8,1.5c-0.3,0.2-0.5,0.1-0.6-0.2c-0.3-0.7,0-1.2,0.4-1.7
		C21.9,218.6,22.6,218.8,22.6,219z"/>
	<path class="st0" d="M141.9,205.9c0.6,0.3,1,0.9,0.8,1.6c-0.1,0.3-0.3,0.4-0.6,0.4s-0.5-0.1-0.6-0.4c-0.1-0.4-0.1-0.8-0.1-1.2
		C141.5,205.9,141.7,205.8,141.9,205.9z"/>
	<path class="st0" d="M121.9,73.8c-0.2,0.3-0.4,0.7-0.7,0.9c-0.3,0.3-0.7,0.2-1.1,0c-0.3-0.1-0.3-0.4-0.2-0.7
		c0.1-0.2,0.3-0.4,0.5-0.5c0.2-0.1,0.5-0.2,0.8-0.1C121.5,73.5,121.7,73.7,121.9,73.8z"/>
	<path class="st0" d="M60.4,240.9c0,0.1,0,0.3-0.1,0.4c-0.7,0.4-1.3,0.7-2,1c-0.3,0.1-0.8,0.1-1.1,0.1l0.1,0.1
		c0.1-0.2,0.1-0.5,0.3-0.7C58.4,241.1,59.3,240.8,60.4,240.9L60.4,240.9z"/>
	<path class="st0" d="M141,39.3c0.5,0.2,0.8,0.6,1,1.1c0.1,0.4-0.1,0.7-0.6,0.8c-0.3,0.1-0.5,0-0.7-0.3
		C140.3,40.3,140.5,39.8,141,39.3z"/>
	<path class="st0" d="M82.2,109.4c-0.6,0.1-0.9-0.2-1.2-0.7c-0.2-0.3-0.1-0.7,0.3-0.8c0.4,0,0.7,0,1.1,0.1c0.2,0.1,0.3,0.3,0.4,0.6
		C82.9,108.9,82.6,109.4,82.2,109.4z"/>
	<path class="st0" d="M105.6,91.3c0.1,0,0.2,0,0.3,0.1c0.5,0.2,0.8,0.6,0.9,1.1c0,0.2-0.1,0.5-0.3,0.6c-0.3,0.3-0.8,0.1-1-0.1
		c-0.3-0.4-0.4-0.9-0.2-1.4C105.4,91.5,105.5,91.4,105.6,91.3z"/>
	<path class="st0" d="M270.4,301.3c0.4,0,0.7,0.5,0.6,0.8c-0.1,0.2-0.3,0.5-0.5,0.6c-0.2,0.1-0.5,0.3-0.6,0.3
		c-0.2-0.2-0.3-0.4-0.3-0.7C269.6,301.6,269.9,301.2,270.4,301.3z"/>
	<path class="st0" d="M92.8,98.9c-0.1,0-0.3,0-0.4,0c-0.7-0.3-0.9-1-0.5-1.4c0.3-0.2,0.6-0.4,0.9-0.6C93.4,97.9,93.4,97.9,92.8,98.9
		z"/>
	<path class="st0" d="M203.9,305.9c-0.3-1.2,0.2-2.2,1-3c0.1-0.1,0.4-0.1,0.7-0.2l-0.1-0.1c0,0.4,0,0.8-0.1,1.1
		c-0.2,0.6-0.5,1.2-0.8,1.8C204.4,305.7,204.1,305.7,203.9,305.9L203.9,305.9z"/>
	<path class="st0" d="M92,143.5c0.2-0.5,0.5-0.9,1.1-1c0.3-0.1,0.5,0,0.7,0.3c0,0.1,0,0.2-0.1,0.3c0,0.1-0.1,0.2-0.2,0.3
		C93,144.1,92.8,144.1,92,143.5z"/>
	<path class="st0" d="M199.9,88.7c-0.1,0.5-0.6,0.8-1,0.7c-0.3-0.1-0.5-0.6-0.4-0.9c0.1-0.3,0.4-0.5,0.9-0.5
		C199.7,88,200,88.3,199.9,88.7z"/>
	<path class="st0" d="M102,144.8c0,0.5-0.1,0.6-0.6,0.7c-0.5,0.1-0.6-0.1-0.7-0.6c0-0.4,0.1-0.6,0.6-0.7
		C101.7,144,102,144.3,102,144.8z"/>
	<path class="st0" d="M94.7,147.3c-0.1,0.4-0.5,0.6-0.8,0.5c-0.3-0.1-0.5-0.6-0.4-0.9c0.1-0.3,0.6-0.4,1-0.2
		C94.7,146.7,94.8,147,94.7,147.3z"/>
	<path class="st0" d="M161.1,147.7c-0.1,0-0.3,0-0.4-0.1c-0.4-0.2-0.7-0.8-0.5-0.9c0.2-0.2,0.4-0.3,0.7-0.4c0.1,0,0.3-0.1,0.4,0
		c0.2,0.1,0.5,0.1,0.7,0.3c0.1,0.1-0.1,0.5-0.2,0.6C161.6,147.4,161.3,147.5,161.1,147.7z"/>
	<path class="st0" d="M35.6,203.5c0.4,0.1,0.7,0.4,0.6,0.8c-0.1,0.3-0.6,0.6-0.9,0.5c-0.3-0.1-0.5-0.6-0.3-1
		C35.1,203.5,35.4,203.4,35.6,203.5z"/>
	<path class="st0" d="M75.8,177c0.4,0,0.6,0.4,0.5,0.8c-0.1,0.3-0.6,0.6-0.9,0.4c-0.3-0.1-0.4-0.6-0.3-1
		C75.2,177,75.5,176.9,75.8,177z"/>
	<path class="st0" d="M136.8,247.7c0.4-0.4,0.9-0.5,1.4-0.3c0.2,0.1,0.5,0.3,0.5,0.4c0,0.2-0.2,0.5-0.4,0.6
		c-0.2,0.2-0.4,0.2-0.6,0.4C137.2,248.6,136.9,248.2,136.8,247.7z"/>
	<path class="st0" d="M88.1,151.2c0.1,0.2,0.3,0.4,0.4,0.6c0.1,0.4-0.2,0.8-0.5,0.8c-0.2,0-0.5-0.1-0.7-0.2c-0.3-0.2-0.2-0.8,0.1-1
		C87.6,151.3,87.8,151.3,88.1,151.2z"/>
	<path class="st0" d="M166.9,152.1c-0.1,0.4-0.5,0.6-0.8,0.5c-0.3-0.1-0.5-0.6-0.4-1c0.1-0.3,0.3-0.4,0.6-0.3
		C166.7,151.3,167,151.6,166.9,152.1z"/>
	<path class="st0" d="M120.6,80.6c0,0.6-0.2,0.7-0.7,0.7s-0.7-0.3-0.7-0.7c0.1-0.5,0.3-0.7,0.8-0.7
		C120.4,79.9,120.6,80.1,120.6,80.6z"/>
	<path class="st0" d="M162.4,157.8c0.4,0.1,0.6,0.3,0.5,0.8c-0.1,0.4-0.3,0.6-0.8,0.5s-0.7-0.3-0.5-0.7
		C161.8,157.8,162,157.7,162.4,157.8z"/>
	<path class="st0" d="M132.9,242.8c0,0.1,0.1,0.2,0,0.2c-0.4,0.3-0.9,0.6-1.4,0.8c-0.2,0.1-0.5-0.1-0.5-0.4c0-0.1,0-0.3,0.1-0.4
		c0.4-0.5,0.8-0.6,1.4-0.4C132.6,242.7,132.8,242.8,132.9,242.8z"/>
	<path class="st0" d="M155.7,161.5c-0.1,0.5-0.3,0.7-0.8,0.6c-0.3-0.1-0.4-0.2-0.5-0.5c-0.1-0.4,0.1-0.7,0.6-0.8
		C155.5,160.8,155.8,161,155.7,161.5z"/>
	<path class="st0" d="M42.5,189.1c0.4,0.4,0.4,0.9,0.3,1.4c-0.1,0.3-0.3,0.4-0.5,0.4c-0.8-0.3-1-0.9-0.4-1.4
		C42,189.4,42.3,189.3,42.5,189.1z"/>
	<path class="st0" d="M131.6,71.9c-0.2,0.5-0.6,0.7-1.1,0.5c-0.2-0.1-0.3-0.4-0.2-0.6c0.1-0.6,0.5-0.7,1.1-0.5
		C131.6,71.4,131.7,71.6,131.6,71.9z"/>
	<path class="st0" d="M131.6,237.9c0.1,0,0.3,0,0.4,0.1c0.5,0.3,0.7,0.8,0.5,1.3c-0.1,0.2-0.3,0.4-0.4,0.5c-0.1-0.1-0.2-0.2-0.3-0.3
		c-0.2-0.5-0.4-0.9-0.6-1.4C131.3,238,131.5,237.9,131.6,237.9z"/>
	<path class="st0" d="M121.2,236.9c0,0.5-0.3,0.7-0.7,0.6c-0.5-0.1-0.6-0.3-0.6-0.7s0.3-0.6,0.7-0.6
		C121.1,236.3,121.3,236.4,121.2,236.9z"/>
	<path class="st0" d="M28.6,207.6c0.3-0.2,0.5-0.5,0.8-0.8c0.4-0.3,1-0.3,1-0.1s-0.1,0.4-0.3,0.6c-0.3,0.2-0.6,0.5-0.9,0.6
		C29,208.1,28.7,207.9,28.6,207.6z"/>
	<path class="st0" d="M42.8,196.8c0,0.5-0.2,0.8-0.5,0.8c-0.4,0-0.7-0.2-0.8-0.6c-0.1-0.4,0.1-0.7,0.6-0.8
		C42.5,196.1,42.8,196.3,42.8,196.8z"/>
	<path class="st0" d="M199.1,7.7c0-0.1,0-0.3,0.1-0.3c0.6-0.7,1.3-1.4,2.4-1.2l0,0C201,7.3,200.5,7.6,199.1,7.7L199.1,7.7z"/>
	<path class="st0" d="M38.5,186.4c0,0.4-0.2,0.7-0.7,0.7s-0.7-0.2-0.6-0.7c0.1-0.6,0.2-0.7,0.6-0.7C38.3,185.7,38.5,186,38.5,186.4z
		"/>
	<path class="st0" d="M272.7,302.8c0.5-0.1,0.7,0.1,0.8,0.6c0.1,0.5-0.1,0.6-0.6,0.8c-0.4,0.1-0.7-0.1-0.8-0.6
		C272,303.2,272.2,302.9,272.7,302.8z"/>
	<path class="st0" d="M36.2,192.9c0.1,0.4-0.1,0.7-0.6,0.7c-0.3,0-0.5,0-0.7-0.3c-0.2-0.4-0.1-0.9,0.2-1c0.4-0.2,0.9-0.1,1,0.2
		C36.2,192.6,36.2,192.8,36.2,192.9z"/>
	<path class="st0" d="M153.2,199.6c-0.1,0.2-0.3,0.4-0.4,0.6c-0.5,0.5-0.8,0.5-1.3-0.1c-0.3-0.3-0.2-0.7,0.3-0.8
		C152.3,199.1,152.8,199.2,153.2,199.6z"/>
	<path class="st0" d="M144.4,115.2c-0.1,0.5-0.3,0.6-0.8,0.5c-0.5-0.1-0.6-0.3-0.6-0.8c0.1-0.5,0.3-0.7,0.7-0.6
		C144.4,114.6,144.5,114.7,144.4,115.2z"/>
	<path class="st0" d="M178.5,108.3c0.2-0.5,0.4-0.9,1-0.9c0.4,0.7,0.6,1.3-0.1,1.9C178.9,109.2,178.7,108.7,178.5,108.3z"/>
	<path class="st0" d="M276.8,300.3c0.5,0,0.9,0.4,0.8,1c0,0.2-0.3,0.4-0.5,0.5c-0.5,0.1-1-0.3-1-0.8
		C276.2,300.5,276.4,300.3,276.8,300.3z"/>
	<path class="st0" d="M188.2,107.5c0.1-0.2,0.3-0.5,0.4-0.7c0.2-0.3,0.4-0.3,0.7-0.2c0.4,0.2,0.7,0.4,0.8,0.9c0,0.1-0.1,0.2-0.2,0.3
		C189.3,108.1,188.7,108.1,188.2,107.5z"/>
	<path class="st0" d="M146.3,44.5c-0.4,0.1-0.8-0.2-0.9-0.5c-0.1-0.5,0.3-1,0.8-1s0.5,0,0.7,0.7C147,44.1,146.7,44.4,146.3,44.5z"/>
	<path class="st0" d="M137.3,198.4c0.2,1.3-0.5,2-1.6,2.4l0.1,0.1C135.9,199.5,136.2,198.9,137.3,198.4L137.3,198.4z"/>
	<path class="st0" d="M139.2,129.7c0.3,0.1,0.5,0.6,0.4,1c-0.1,0.3-0.6,0.4-1,0.2c-0.3-0.1-0.4-0.4-0.3-0.7
		C138.5,129.8,138.9,129.6,139.2,129.7z"/>
	<path class="st0" d="M93.8,106.1c-0.2-0.1-0.5-0.2-0.6-0.3c-0.5-0.4-0.5-0.8,0-1.3c0.2-0.2,0.4-0.3,0.6-0.4
		C94.3,105,94.3,105,93.8,106.1z"/>
	<path class="st0" d="M188.9,98.5c0.3,0.1,0.5,0.7,0.3,1c-0.1,0.2-0.8,0.5-1,0.4c-0.2-0.1-0.4-0.7-0.3-1
		C188.1,98.6,188.6,98.4,188.9,98.5z"/>
	<path class="st0" d="M185.3,97.4c-0.4,0-0.6-0.2-0.6-0.7s0.2-0.7,0.7-0.6s0.7,0.3,0.6,0.7C186,97.2,185.8,97.4,185.3,97.4z"/>
	<path class="st0" d="M126.4,230.2c0.1-0.2,0.2-0.4,0.4-0.6c0.5-0.5,0.8-0.5,1.2,0.1c0.3,0.4,0.2,0.7-0.2,0.8
		C127.2,230.7,126.8,230.6,126.4,230.2z"/>
	<path class="st0" d="M137.4,46.9c0.1,0.4-0.2,0.7-0.6,0.8c-0.4,0.1-0.7-0.1-0.8-0.6c-0.1-0.5,0.1-0.7,0.6-0.8
		C137,46.2,137.3,46.4,137.4,46.9z"/>
	<path class="st0" d="M144.3,48.3c-0.2,0-0.4-0.2-0.4-0.5c-0.1-0.6,0.3-0.9,0.7-1.2c0.1-0.1,0.3-0.2,0.3-0.2
		c0.2,0.1,0.4,0.3,0.4,0.5C145.4,47.6,144.9,48.2,144.3,48.3z"/>
	<path class="st0" d="M201.4,90.8c0.1,0.4-0.1,0.7-0.6,0.8c-0.4,0.1-0.7-0.1-0.8-0.6c-0.1-0.4,0.1-0.7,0.6-0.8
		C201,90.2,201.3,90.4,201.4,90.8z"/>
	<path class="st0" d="M146,203.4c-0.1,0.4-0.6,0.5-0.9,0.3c-0.2-0.1-0.3-0.4-0.3-0.7c0.1-0.3,0.5-0.5,0.9-0.3
		C146,202.9,146,203.1,146,203.4z"/>
	<path class="st0" d="M33.1,197.5c0,0.5-0.1,0.6-0.6,0.8c-0.3,0.1-0.5,0.1-0.6-0.2c-0.1-0.2-0.1-0.5,0-0.7c0.1-0.2,0.4-0.3,0.6-0.4
		C32.8,196.8,33.1,197.1,33.1,197.5z"/>
	<path class="st0" d="M152,48c0.3,0.1,0.4,0.3,0.4,0.6s-0.1,0.6-0.3,0.7c-0.2,0.1-0.5,0.1-0.7,0c-0.3-0.1-0.4-0.4-0.2-0.7
		C151.4,48.1,151.6,47.9,152,48z"/>
	<path class="st0" d="M179,22.1c0,1.1-0.8,1.4-1.7,1.6c-0.2,0.1-0.5,0-0.7,0l0,0c0-0.1,0-0.3,0-0.4C177.3,22.7,178,22,179,22.1
		L179,22.1z"/>
	<path class="st0" d="M145.8,254c-0.1,0.1-0.2,0.3-0.2,0.3c-0.4,0.1-0.7,0.2-1.1,0.1c-0.1,0-0.4-0.3-0.4-0.4
		c0.1-0.3,0.3-0.4,0.6-0.3C145.1,253.8,145.4,253.9,145.8,254z"/>
	<path class="st0" d="M152.3,258.9c0,0.1,0,0.2,0,0.3c-0.4,0.4-0.9,0.4-1.4,0.3c-0.3-0.1-0.4-0.4-0.2-0.5
		C150.9,258.4,152,258.4,152.3,258.9z"/>
	<path class="st0" d="M248.8,294.7c0-0.6,0-1.3,0-1.9c0-0.1,0.3-0.2,0.4-0.3c0.1,0.1,0.2,0.2,0.2,0.3c0,0.5-0.1,1-0.2,1.5
		c0,0.2-0.4,0.2-0.6,0.3L248.8,294.7z"/>
	<path class="st0" d="M163.1,301.1c0-0.4,0.3-0.7,0.6-0.7c0.6-0.1,1.2,0,1.8-0.1l-0.1-0.1c0,0.4-0.2,0.7-0.6,0.7
		C164.2,301,163.6,301,163.1,301.1L163.1,301.1z"/>
	<path class="st0" d="M160.7,301.9c0.1-0.4,0.4-0.7,0.8-0.7c0.5-0.1,1.1-0.1,1.6-0.1L163,301c0,0.4-0.2,0.7-0.6,0.8
		c-0.6,0.1-1.2,0-1.9,0L160.7,301.9z"/>
	<path class="st0" d="M208.1,0.7c0.1-0.2,0.1-0.5,0.3-0.6s0.5-0.1,0.7,0c0.2,0.1,0.1,0.4-0.2,0.6c-0.2,0.2-0.4,0.3-0.6,0.4
		C208.2,0.9,208.1,0.8,208.1,0.7z"/>
	<path class="st0" d="M186.2,25.3c0.1,0.3-0.1,0.5-0.3,0.6c-0.2,0.1-0.5,0-0.7,0c-0.3,0-0.3-0.5,0.1-0.9c0.2-0.2,0.4-0.2,0.6-0.4
		C186.1,24.9,186.2,25.1,186.2,25.3z"/>
	<path class="st0" d="M180.5,28.6c-0.1,0.2-0.1,0.5-0.3,0.6c-0.2,0.1-0.5,0-0.7,0c-0.3-0.1-0.2-0.4,0.3-0.8c0.2-0.2,0.4-0.3,0.6-0.1
		C180.5,28.4,180.5,28.5,180.5,28.6z"/>
	<path class="st0" d="M189.7,27.9c0.1,0.1,0.3,0.2,0.3,0.2c-0.1,0.2-0.2,0.5-0.3,0.7c-0.2,0.1-0.4,0.2-0.7,0.2s-0.4-0.8,0-1
		C189.1,27.9,189.4,28,189.7,27.9z"/>
	<path class="st0" d="M184.7,34.3c0.3-0.1,0.5,0,0.6,0.3c0.2,0.4-0.1,0.9-0.4,0.9s-0.5-0.2-0.6-0.4
		C184.1,34.6,184.2,34.3,184.7,34.3z"/>
	<path class="st0" d="M185.6,37.4c0.1-0.5,0.4-0.6,0.8-0.3c0.1,0.1,0.3,0.1,0.3,0.2c0.1,0.2,0.2,0.4,0.1,0.6
		c-0.1,0.3-0.4,0.3-0.7,0.2C185.6,38,185.4,37.8,185.6,37.4z"/>
	<path class="st0" d="M158.8,46.9c-0.3,0-0.5-0.2-0.5-0.5c0-0.2,0.1-0.5,0.2-0.7c0.2,0.1,0.5,0.1,0.6,0.2c0.2,0.2,0.2,0.4,0.3,0.7
		C159.3,46.7,159,46.8,158.8,46.9z"/>
	<path class="st0" d="M90.1,63.8c0.9,0.2,1.4,0.8,1.6,1.6l0.1-0.1c-0.1,0-0.3,0-0.4,0C90.3,65.2,90.2,65.1,90.1,63.8L90.1,63.8z"/>
	<path class="st0" d="M124.7,74c0.3-0.4,0.4-0.8,0.7-1c0.2-0.2,0.5-0.2,0.6-0.1c0.1,0.1,0.2,0.2,0.2,0.3c0.1,0.4-0.1,1-0.4,1
		C125.5,74.2,125.1,74,124.7,74z"/>
	<path class="st0" d="M203.4,85.8c0.2-0.3,0.5-0.6,0.7-0.8c0.1-0.1,0.2-0.1,0.3-0.1c0.1,0.2,0.2,0.4,0.3,0.6c0,0.5-0.2,0.7-0.6,0.7
		C203.8,86.1,203.6,86,203.4,85.8z"/>
	<path class="st0" d="M110.6,91.3c0,0.3-0.5,0.5-0.9,0.3c-0.3-0.1-0.4-0.3-0.3-0.7c0.1-0.3,0.2-0.5,0.4-0.5c0.1,0,0.3,0,0.4,0.1
		C110.3,90.8,110.4,91.1,110.6,91.3z"/>
	<path class="st0" d="M192.2,95.3c0.4,0,1,0.4,1,0.9c0,0.1-0.1,0.2-0.2,0.3c-0.2,0.1-0.5,0.2-0.7,0.1c-0.3-0.2-0.5-0.6-0.4-0.9
		C192,95.5,192.1,95.4,192.2,95.3z"/>
	<path class="st0" d="M197.4,96.1c-0.2,0.6-0.5,1-1,1.1c-0.2,0.1-0.4-0.1-0.5-0.4c0-0.4,0.1-0.8,0.5-0.9
		C196.7,95.9,197.1,96.1,197.4,96.1z"/>
	<path class="st0" d="M193.2,99.6c-0.1-0.1-0.3-0.1-0.3-0.2c0-0.2,0-0.6,0.1-0.7c0.1-0.1,0.5-0.2,0.7-0.2c0.3,0.1,0.4,0.3,0.1,0.6
		C193.6,99.3,193.4,99.4,193.2,99.6z"/>
	<path class="st0" d="M195.7,103.4c-0.2,0.3-0.4,0.6-0.6,0.8c-0.2,0.2-0.5,0.3-0.6,0.1c-0.1-0.2-0.2-0.5-0.1-0.7
		c0.1-0.4,0.5-0.5,0.9-0.5C195.4,103.1,195.5,103.2,195.7,103.4z"/>
	<path class="st0" d="M188,104.7c0.3,0.1,0.5,0.2,0.5,0.4c0,0.1-0.1,0.3-0.2,0.4c-0.2,0.2-0.4,0.3-0.6,0.4c-0.2,0.1-0.5,0-0.6-0.3
		C187,105,187.4,104.7,188,104.7z"/>
	<path class="st0" d="M175.5,109.2c-0.2,0-0.3-0.3-0.4-0.6c-0.1-0.3,0-0.5,0.3-0.7c0.1,0,0.2,0,0.4,0c0.3,0,0.5,0.2,0.5,0.4
		C176.3,108.8,175.8,109.2,175.5,109.2z"/>
	<path class="st0" d="M177.2,112.7c-0.3-0.1-0.4-0.3-0.3-0.5c0.1-0.2,0.3-0.4,0.5-0.5c0.2-0.2,0.4-0.2,0.6-0.1
		c0.2,0.3,0.2,0.8-0.1,1C177.7,112.6,177.4,112.7,177.2,112.7z"/>
	<path class="st0" d="M145.9,121.9c-0.5,0.1-1.1-0.4-1.1-0.8c0-0.1,0.1-0.2,0.2-0.3c0.5-0.2,0.8-0.2,1,0.1c0.1,0.2,0.1,0.5,0.1,0.7
		C146.1,121.7,145.9,121.8,145.9,121.9z"/>
	<path class="st0" d="M134.7,128.7c-0.2-0.1-0.4-0.2-0.5-0.4c-0.1-0.3,0.2-0.9,0.4-0.9c0.2,0.1,0.5,0.2,0.6,0.4
		c0.1,0.2,0.2,0.5,0.1,0.6C135.3,128.7,135,128.8,134.7,128.7z"/>
	<path class="st0" d="M107.7,149.3c0,0.1,0,0.3-0.1,0.4c-0.2,0.5-0.4,0.6-0.9,0.5c-0.1,0-0.3-0.2-0.3-0.2c0.1-0.5,0.7-1,1-0.9
		C107.6,149,107.6,149.2,107.7,149.3z"/>
	<path class="st0" d="M93.4,155.4c0.1-0.2,0.1-0.5,0.2-0.7c0.3-0.3,1.1-0.3,1,0c-0.1,0.2-0.2,0.5-0.4,0.7s-0.5,0.3-0.7,0.3
		C93.6,155.7,93.5,155.5,93.4,155.4z"/>
	<path class="st0" d="M97.5,155.2c0.1,0.1,0.3,0.2,0.3,0.3c-0.1,0.5-0.6,1.1-1,1c-0.1,0-0.2-0.2-0.2-0.3c0-0.1,0-0.3,0-0.4
		C96.7,155.3,97,155.2,97.5,155.2z"/>
	<path class="st0" d="M150.7,161.1c0,0.1-0.1,0.2-0.1,0.3c-0.3,0.2-0.8,0.2-1-0.1s-0.2-1,0.1-1c0.2,0,0.5,0.1,0.6,0.2
		C150.5,160.6,150.6,160.9,150.7,161.1z"/>
	<path class="st0" d="M89.8,161.2c-0.2,0.3-0.4,0.6-0.7,0.9c-0.2,0.3-0.5,0.2-0.6-0.1c-0.2-0.7-0.1-1,0.5-1
		C89.4,160.9,89.6,161.1,89.8,161.2z"/>
	<path class="st0" d="M90.9,168c0.2-0.8,0.7-1.5,1.6-1.6l-0.1-0.1c0,0.6,0,1.1,0,1.7l0.1-0.1c-0.6,0-1.2,0-1.7,0L90.9,168z"/>
	<path class="st0" d="M83.9,168.5c0-0.4,0.3-0.7,0.6-0.9c0.1-0.1,0.3-0.2,0.4-0.1c0.3,0.1,0.3,0.4,0.2,0.6c-0.2,0.4-0.4,0.6-0.9,0.6
		C84.1,168.7,84,168.6,83.9,168.5z"/>
	<path class="st0" d="M78.7,169.6c-0.1-0.1-0.2-0.1-0.3-0.2c-0.1-0.4,0.3-0.9,0.8-1c0.1,0,0.2,0.1,0.3,0.1c0.2,0.3,0.2,0.8-0.1,0.9
		C79.1,169.5,78.9,169.5,78.7,169.6z"/>
	<path class="st0" d="M154.1,172.3c0,0.1-0.1,0.3-0.2,0.3c-0.4,0.1-1-0.6-0.9-1c0-0.1,0.2-0.2,0.3-0.2
		C153.9,171.2,154.2,171.5,154.1,172.3z"/>
	<path class="st0" d="M47.3,188.6c-0.2,0.3-0.5,0.5-0.7,0.8c-0.1,0.1-0.2,0.1-0.3,0c-0.1-0.1-0.2-0.2-0.2-0.3c0-0.6,0.4-0.9,1-0.8
		C47.1,188.3,47.2,188.4,47.3,188.6z"/>
	<path class="st0" d="M48.8,195.7c-0.5-0.5-0.7-1-0.4-1.6c0.1-0.1,0.2-0.2,0.3-0.2c0.1,0,0.2,0.1,0.3,0.2
		C49.4,194.7,49.2,195.2,48.8,195.7z"/>
	<path class="st0" d="M142.9,212.8c-0.3-0.1-0.5-0.2-0.4-0.4c0.1-0.2,0.3-0.4,0.4-0.6c0.2-0.2,0.5-0.2,0.6,0
		c0.1,0.1,0.1,0.2,0.1,0.3C143.6,212.6,143.4,212.8,142.9,212.8z"/>
	<path class="st0" d="M8.6,226.9c-0.1-0.1-0.1-0.2-0.2-0.3c0-0.5,0.1-0.7,0.5-0.8c0.2,0,0.4,0.2,0.6,0.2c-0.1,0.1-0.1,0.2-0.2,0.3
		c-0.2,0.2-0.3,0.3-0.5,0.5C8.9,227,8.7,226.9,8.6,226.9z"/>
	<path class="st0" d="M146.8,57.4c-0.2-0.1-0.4-0.3-0.6-0.4c0.2-0.1,0.4-0.3,0.6-0.4c0.3-0.1,0.5,0,0.6,0.3
		C147.7,57.1,147.3,57.5,146.8,57.4z"/>
	<path class="st0" d="M146.5,200.4c0.2-0.2,0.4-0.3,0.7-0.2c0.3,0.1,0.4,0.2,0.4,0.4c-0.1,0.3-0.4,0.4-0.6,0.2
		C146.7,200.7,146.6,200.5,146.5,200.4z"/>
	<path class="st0" d="M43.3,230c-0.2,0.1-0.3,0.3-0.5,0.3c-0.3,0.1-0.5,0-0.7-0.2c0.2-0.1,0.3-0.3,0.5-0.4
		C42.9,229.7,43.1,229.8,43.3,230z"/>
	<path class="st0" d="M36.2,196.5c-0.2,0.3-0.4,0.4-0.7,0.3c-0.3-0.1-0.4-0.3-0.4-0.5c0.1-0.3,0.4-0.4,0.7-0.3
		c0.1,0,0.2,0.1,0.3,0.2C36.1,196.3,36.1,196.4,36.2,196.5z"/>
	<path class="st0" d="M251.9,284.9c0,0.4,0,0.8-0.1,1.2c0,0.1-0.1,0.2-0.2,0.3c-0.1-0.2-0.3-0.4-0.3-0.6c0-0.4,0.2-0.7,0.7-0.8
		L251.9,284.9z"/>
	<path class="st0" d="M181.4,35.1c-0.2,0.1-0.3,0.4-0.5,0.4c-0.3-0.1-0.3-0.4-0.2-0.6s0.3-0.4,0.4-0.4
		C181.5,34.5,181.5,34.8,181.4,35.1z"/>
	<path class="st0" d="M251,288c0,0.2-0.1,0.5-0.2,0.7h-0.2c0-0.2-0.1-0.5-0.1-0.7c0-0.1,0.2-0.2,0.2-0.3
		C250.9,287.7,251,287.9,251,288z"/>
	<path class="st0" d="M155.5,193.4c-0.1,0.1-0.2,0.2-0.3,0.2c-0.2,0-0.5,0-0.6-0.2c-0.2-0.1-0.1-0.4,0.2-0.5c0.2,0,0.4,0.1,0.6,0.2
		C155.5,193.1,155.5,193.3,155.5,193.4z"/>
	<path class="st0" d="M164.9,290.2h0.2c0,0.2,0.1,0.5,0.1,0.7c0,0.1-0.1,0.3-0.2,0.3C164.7,291.1,164.7,290.4,164.9,290.2z"/>
	<path class="st0" d="M250.1,290c0.2,0.2,0.3,0.4,0.2,0.7c-0.1,0.2-0.3,0.4-0.4,0.4c-0.3-0.1-0.3-0.4-0.2-0.6S249.9,290.2,250.1,290
		z"/>
	<path class="st0" d="M175.1,24.5c0-0.4,0.2-0.7,0.6-0.8c0.3-0.1,0.7,0,1,0l0,0c0,0.4-0.2,0.7-0.6,0.8
		C175.7,24.6,175.4,24.5,175.1,24.5L175.1,24.5z"/>
	<path class="st0" d="M150.7,193.2c-0.1,0.3-0.3,0.4-0.6,0.4s-0.5-0.2-0.4-0.4c0-0.1,0.2-0.2,0.3-0.2c0.1,0,0.3,0,0.4,0
		C150.5,192.9,150.6,193.1,150.7,193.2z"/>
	<path class="st0" d="M274.3,295.8c-0.2,0.1-0.3,0.3-0.6,0.4c-0.3,0.1-0.5,0-0.6-0.3c0-0.1,0-0.2,0-0.3c0.2-0.4,0.5-0.4,1-0.2
		C274.2,295.6,274.2,295.7,274.3,295.8z"/>
	<path class="st0" d="M208.5,319.1c0.6-0.2,1-0.3,1.3-0.3c0.1,0,0.2,0.1,0.3,0.2c0.1,0.1,0,0.4-0.3,0.4
		C209.4,319.4,209.1,319.2,208.5,319.1z"/>
	<path class="st0" d="M151.2,215.6c0.2-0.1,0.5-0.3,0.7-0.3s0.4,0.2,0.7,0.3c-0.2,0.1-0.4,0.3-0.7,0.3S151.4,215.8,151.2,215.6z"/>
	<path class="st0" d="M165.5,300.3c0-0.3,0.1-0.5,0.3-0.6c0.2-0.1,0.5-0.1,0.7,0c0.1,0,0.2,0.2,0.3,0.2c-0.2,0.1-0.4,0.3-0.6,0.3
		C165.9,300.3,165.6,300.2,165.5,300.3L165.5,300.3z"/>
	<path class="st0" d="M57.1,228.8c-0.1,0-0.2-0.1-0.3-0.2v-0.2c0.2-0.1,0.5-0.1,0.7-0.1c0.1,0,0.2,0.2,0.3,0.2
		C57.5,228.6,57.3,228.7,57.1,228.8z"/>
	<path class="st0" d="M206.3,301c0.1,0.7,0,1.4-0.8,1.6l0.1,0.1c0-0.2,0-0.5,0-0.7C205.5,301.4,205.8,301.1,206.3,301L206.3,301z"/>
	<path class="st0" d="M146.1,196.7c-0.3,0.1-0.5-0.1-0.5-0.4c0-0.1,0.4-0.3,0.6-0.3c0.2-0.1,0.5,0.1,0.5,0.4
		C146.8,196.5,146.4,196.7,146.1,196.7z"/>
	<path class="st0" d="M264.5,302.9c0,0.1,0,0.2,0,0.3c-0.2,0.3-0.5,0.4-0.9,0.1c-0.1,0-0.2-0.2-0.2-0.2c0.2-0.1,0.4-0.3,0.6-0.4
		C264.1,302.6,264.3,302.7,264.5,302.9z"/>
	<path class="st0" d="M138,233.8c0.2,0.1,0.4,0.2,0.6,0.2v0.2c-0.3,0.3-0.8,0.3-0.9-0.1c0-0.1,0-0.2,0-0.2
		C137.8,233.9,137.9,233.8,138,233.8z"/>
	<path class="st0" d="M149.6,191.3c0.1,0.1,0.2,0.1,0.3,0.2c0.1,0.3-0.3,0.6-0.7,0.5c-0.1,0-0.2-0.2-0.3-0.3
		C148.8,191.4,149.1,191.2,149.6,191.3z"/>
	<path class="st0" d="M62.9,239.3c0-0.4,0.2-0.7,0.6-0.7c0.3-0.1,0.5,0,0.6,0.3c0,0-0.1,0.2-0.2,0.2
		C63.5,239.2,63.2,239.3,62.9,239.3L62.9,239.3z"/>
	<path class="st0" d="M62,240.1c0,0.4-0.2,0.7-0.5,0.8c-0.3,0.1-0.7,0-1,0.1l0,0c0-0.4,0.2-0.7,0.6-0.7
		C61.3,240.1,61.7,240.2,62,240.1L62,240.1z"/>
	<path class="st0" d="M140.2,242v0.2c-0.2,0.1-0.5,0.2-0.7,0.1c-0.4-0.1-0.4-0.4,0-0.5C139.7,241.8,139.9,241.9,140.2,242z"/>
	<path class="st0" d="M55.7,243.4c0-0.4,0.2-0.7,0.6-0.7c0.3-0.1,0.7,0,1,0l-0.1-0.1C57,243.5,56.3,243.5,55.7,243.4L55.7,243.4z"/>
	<path class="st0" d="M55.6,243.3c0,0.4-0.2,0.6-0.6,0.7c-0.3,0.1-0.5,0-0.6-0.3c0,0,0.2-0.2,0.3-0.2c0.4-0.1,0.7-0.1,1.1-0.2H55.6z
		"/>
	<path class="st0" d="M135.5,243.6c0.1,0.2,0,0.4-0.3,0.4c-0.2,0-0.5-0.1-0.6-0.2c-0.1-0.1,0-0.3,0.3-0.4
		C135.2,243.3,135.4,243.4,135.5,243.6z"/>
	<path class="st0" d="M159.7,153.3c-0.1,0.1-0.2,0.2-0.3,0.3c-0.5,0.1-0.9-0.2-0.8-0.4c0-0.1,0.2-0.2,0.3-0.3
		c0.3-0.1,0.5-0.1,0.7,0.1C159.6,153,159.7,153.2,159.7,153.3z"/>
	<path class="st0" d="M101.2,150.1c-0.1,0.1-0.2,0.2-0.3,0.3c-0.5,0.1-0.9-0.2-0.8-0.4c0-0.1,0.2-0.2,0.3-0.3
		c0.3-0.1,0.5-0.1,0.7,0.1C101.1,149.8,101.1,150,101.2,150.1z"/>
	<path class="st0" d="M90.8,249.7c0,0.5,0,1-0.3,1.4C90.1,250.3,90.1,250.3,90.8,249.7L90.8,249.7z"/>
	<path class="st0" d="M142.8,131.6c-0.1,0.3-0.4,0.4-0.6,0.4c-0.3,0-0.5-0.1-0.5-0.4c0-0.1,0.4-0.2,0.6-0.3c0.1,0,0.2,0,0.3,0.1
		C142.7,131.4,142.7,131.5,142.8,131.6z"/>
	<path class="st0" d="M176.5,260.2c-0.1,0.2-0.2,0.4-0.3,0.6c-0.1-0.1-0.2-0.2-0.2-0.3c0-0.2,0-0.4,0-0.7c0-0.1,0.2-0.2,0.2-0.3
		C176.3,259.8,176.4,260,176.5,260.2z"/>
	<path class="st0" d="M167.9,115.4c-0.1,0.1-0.2,0.2-0.3,0.3c-0.2,0.1-0.4,0-0.6-0.3c-0.1-0.4,0.2-1,0.4-1c0.1,0,0.2,0.2,0.3,0.3
		C167.8,114.9,167.8,115.1,167.9,115.4z"/>
	<path class="st0" d="M170.9,107.9c-0.2,0.1-0.5-0.1-0.5-0.4c0-0.1,0.4-0.3,0.5-0.3c0.2,0,0.4,0.2,0.6,0.4
		C171.3,107.6,171.1,107.8,170.9,107.9z"/>
	<path class="st0" d="M153.3,95c0,0.4,0.1,0.7,0,1.1c-0.1,0.4-0.4,0.6-0.7,0.6l0,0c-0.1-0.7,0-1.4,0.9-1.5L153.3,95z"/>
	<path class="st0" d="M125.3,78.4c0,0.2-0.2,0.4-0.3,0.6c-0.1-0.2-0.3-0.4-0.3-0.6s0.2-0.4,0.3-0.6
		C125.1,77.9,125.3,78.2,125.3,78.4z"/>
	<path class="st0" d="M53.9,231.8c-0.1,0.1-0.2,0.2-0.2,0.2c-0.3-0.2-0.3-0.3,0-0.4C53.7,231.5,53.8,231.7,53.9,231.8z"/>
	<path class="st0" d="M37.9,232.1c0.1,0.3,0,0.5-0.3,0.6c-0.1,0-0.2,0-0.3-0.1C37.1,232.4,37.2,232.3,37.9,232.1L37.9,232.1z"/>
	<polygon class="st0" points="51.9,234.1 52.1,234 52.1,234.3 	"/>
	<path class="st0" d="M157.3,30.5c-0.1,0.2-0.2,0.3-0.3,0.5c-0.1-0.1-0.2-0.2-0.2-0.2c0-0.2,0.2-0.3,0.2-0.5
		C157.1,30.3,157.2,30.4,157.3,30.5z"/>
	<path class="st0" d="M192.4,22.4c0,0.1,0.1,0.2,0.1,0.3c0,0.1-0.2,0.2-0.2,0.3c-0.1-0.1-0.2-0.2-0.2-0.3
		C192,22.4,192.2,22.3,192.4,22.4z"/>
	<path class="st0" d="M62.1,240.1c0.1-0.7,0.1-0.7,0.8-0.8l0,0C62.8,240,62.8,240,62.1,240.1L62.1,240.1z"/>
	<path class="st0" d="M171.8,296.3c0.5,0,0.8,0.3,0.8,0.8l0.1-0.1c-0.7-0.1-0.7-0.1-0.8-0.8L171.8,296.3z"/>
	<path class="st0" d="M92.5,166.4c0-0.5,0.3-0.8,0.8-0.8l-0.1-0.1C93.1,166.3,93.1,166.3,92.5,166.4L92.5,166.4z"/>
	<path class="st0" d="M172.6,297.1c0.2,0.1,0.4,0.2,0.6,0.3c0,0,0,0.2-0.1,0.2C172.6,297.6,172.7,297.3,172.6,297.1L172.6,297.1z"/>
	<path class="st0" d="M94.1,243.4c-0.2,0.7-0.2,0.7-0.9,0.7l0.1,0.1C93.4,243.5,93.4,243.5,94.1,243.4L94.1,243.4z"/>
	<path class="st0" d="M206.3,301.1c0.1-0.3,0-0.7,0.5-0.6c0,0,0.1,0.2,0,0.3C206.7,301,206.5,301.1,206.3,301.1L206.3,301.1z"/>
	<polygon class="st0" points="64.9,244.7 64.8,244.5 65,244.5 	"/>
	<polygon class="st0" points="85.6,244.5 85.8,244.4 85.8,244.7 	"/>
	<path class="st0" d="M156.6,7.7c0.7,0.1,0.7,0.1,0.8,0.8l0,0C156.7,8.4,156.7,8.4,156.6,7.7L156.6,7.7z"/>
	<path class="st0" d="M62.9,245.8c0.1-0.2,0.2-0.4,0.3-0.6c0.1,0.1,0.1,0.1,0.2,0.2c-0.2,0.1-0.4,0.2-0.6,0.2L62.9,245.8z"/>
	<path class="st0" d="M62.1,246.6c0-0.5,0.3-0.7,0.8-0.8l-0.1-0.1c0,0.5-0.3,0.7-0.8,0.8L62.1,246.6z"/>
	<path class="st0" d="M61.3,247.4c0.1-0.5,0.4-0.7,0.8-0.8l-0.1-0.1c-0.1,0.4-0.3,0.8-0.8,0.8L61.3,247.4z"/>
	<path class="st0" d="M61.2,247.3c0,0.3,0.1,0.6-0.4,0.6c0,0-0.1-0.2,0-0.2c0.2-0.1,0.4-0.2,0.6-0.3L61.2,247.3z"/>
	<path class="st0" d="M60.2,249.3c-0.1,0.1-0.2,0.2-0.2,0.3c-0.1-0.1-0.2-0.2-0.2-0.3C59.9,248.9,60.1,249,60.2,249.3z"/>
	<path class="st0" d="M137.4,6.9c0.1-0.7,0.1-0.7,0.8-0.8l0,0C138,6.8,138,6.8,137.4,6.9L137.4,6.9z"/>
	<path class="st0" d="M104.4,137.6c0.1,0,0.2,0.1,0.3,0.1s0.3,0.1,0.3,0.2c-0.1,0.3-0.3,0.3-0.4-0.1
		C104.6,137.7,104.5,137.6,104.4,137.6L104.4,137.6z"/>
	<path class="st0" d="M97.3,133.6c0.5,0,0.7,0.4,0.8,0.8l0.1-0.1C97.7,134.2,97.4,134,97.3,133.6L97.3,133.6z"/>
	<polygon class="st0" points="197.3,318.3 197,318.4 197.1,318.2 	"/>
	<path class="st0" d="M169.9,116.6c-0.1,0-0.2-0.1-0.2-0.1c-0.1-0.2,0-0.3,0.2-0.3c0.1,0,0.2,0.2,0.2,0.2S169.9,116.5,169.9,116.6z"
		/>
	<path class="st0" d="M153.5,95.1c0-0.5,0.3-0.8,0.8-0.8l-0.1-0.1C154.2,94.7,153.9,95,153.5,95.1L153.5,95.1z"/>
	<path class="st0" d="M176.6,272.1c-0.1,0.2-0.2,0.4-0.3,0.6c-0.1-0.1-0.2-0.1-0.2-0.2c0.2-0.1,0.4-0.2,0.6-0.3L176.6,272.1z"/>
	<path class="st0" d="M91.7,65.4c0.3-0.1,0.5,0,0.6,0.2c0.1,0.2,0,0.4-0.3,0.3C91.7,65.9,91.7,65.6,91.7,65.4L91.7,65.4z"/>
	<path class="st0" d="M75.7,64.7c0.1-0.2,0.2-0.4,0.2-0.6c0,0,0.2,0,0.2,0.1C76.4,64.3,76.2,64.4,75.7,64.7L75.7,64.7z"/>
	<path class="st0" d="M165.4,73.4c0.1,0.3,0,0.5-0.3,0.6c-0.1,0-0.3-0.2-0.2-0.2C164.9,73.5,165.1,73.4,165.4,73.4L165.4,73.4z"/>
	<path class="st0" d="M166.2,72.6c-0.1,0.7-0.1,0.7-0.8,0.8l0,0C165.5,72.8,165.5,72.8,166.2,72.6L166.2,72.6z"/>
	<path class="st0" d="M150.9,8.6c0.3-0.1,0.5,0,0.6,0.3C150.9,9.3,151.1,8.7,150.9,8.6L150.9,8.6z"/>
	<path class="st0" d="M82.1,230.6c0-0.3,0-0.5,0-0.8s0.1-0.5,0.4-0.6c0.5-0.2,1-0.2,1.5,0c0.3,0.1,0.4,0.3,0.4,0.6s-0.1,0.5-0.4,0.6
		c-0.7,0.1-1.3,0.1-2,0.1L82.1,230.6z"/>
	<path class="st0" d="M82,230.5c-0.1,0.4-0.3,0.7-0.8,0.8c-0.3,0.1-0.5,0-0.6-0.3c0-0.1,0.2-0.2,0.3-0.3c0.4-0.1,0.8-0.1,1.2-0.1
		L82,230.5z"/>
	<path class="st0" d="M54.8,216.9c-0.1-0.4,0-0.8,0.2-1.1c0.1-0.1,0.2-0.2,0.3-0.2c0.3,0,0.9,0.5,0.8,0.8c-0.1,0.2-0.3,0.4-0.5,0.4
		C55.3,216.9,55.1,216.9,54.8,216.9L54.8,216.9z"/>
	<path class="st0" d="M54.8,216.9c-0.1,0.4-0.1,0.8-0.2,1.2c0,0.1-0.2,0.3-0.3,0.2c-0.3-0.1-0.4-0.4-0.3-0.7
		C54.2,217.2,54.4,216.9,54.8,216.9L54.8,216.9z"/>
</g>
</svg>
