<?xml version="1.0" encoding="utf-8"?>
<!DOCTYPE svg PUBLIC "-//W3C//DTD SVG 1.1//EN" "http://www.w3.org/Graphics/SVG/1.1/DTD/svg11.dtd">
<svg version="1.1" id="index" xmlns="http://www.w3.org/2000/svg" xmlns:xlink="http://www.w3.org/1999/xlink" x="0px" y="0px"
	 width="120.4px" height="189.9px" viewBox="0 0 120.4 189.9" style="enable-background:new 0 0 120.4 189.9;" xml:space="preserve"
	>
<style type="text/css">
<![CDATA[
	.st0{fill:#FF0000;}
	.st1{fill:#010101;}
]]>
</style>
<polygon class="st0" points="0,101.2 21.1,88.1 37.9,55.9 37.9,20.6 67.6,42.9 96.3,50.9 83.7,74.4 96.3,102 108.5,174 2.9,184.7 
	"/>
<g id="index_2_">
	<path class="st1" d="M9.8,150c0,0.4,0.1,0.8-0.1,1.2c-0.2,0.5-0.5,0.9-0.8,1.4c-1.1,2-2.1,4-2.6,6.2c-0.2,0.8-0.4,1.5-0.4,2.3
		c0.1,3.2-0.2,6.4,0,9.6c0.1,1.9-0.1,3.7-0.2,5.6c0,0.5-0.3,1-0.4,1.5c0.5,0.9,0.5,2.2,1.6,2.4c0.9-0.2,1.7-0.4,2.4-0.6
		c0.2-0.1,0.5-0.4,0.5-0.6c0.1-1.3,0.1-2.7,0.1-4c0.2-0.7,1-1.3,0.2-2.1c0.8-1.5,0.3-3.1,0.6-4.7c0.1-0.4,0.2-0.7,0.3-1.2
		c0.2,0.4,0.3,0.6,0.3,0.8c0,2.8,0,5.6,0,8.4c0,1.3,0,2.6,0.6,3.9c0.3,0.6,0.1,1.3,0.1,2c0,0.2-0.2,0.5-0.4,0.7
		c-0.4,0.3-0.9,0.6-1.4,0.7c-1.4,0.4-2.9,0.4-4.3,0.1c-0.4-0.1-0.7-0.4-0.8-0.8c-0.1-0.4-0.2-0.8-0.3-1.2c-0.1-0.4-0.3-0.7-0.6-1.3
		c0-2.1,0-4.4,0-6.6c0-1.2,0.2-2.4-0.6-3.5c0.1-0.4,0.1-0.8,0.2-1.1c0.2-0.4,0.3-0.8,0-1.1c-0.4-0.6,0.1-1.3-0.2-1.9
		c-0.3-0.6-0.4-1.3-0.4-1.9c0-0.7,0-1.3-0.1-2c0-1.1-0.1-2.1-0.4-3.1c-0.4-1-0.3-2.1-0.5-3.1c-0.1-0.5-0.1-1,0-1.5
		c0.1-0.6,0.3-1.4,0.1-2c-0.9-2.7-0.6-5.5-0.7-8.3c0-0.8-0.1-1.6-0.5-2.3c-0.2-0.3-0.2-0.8-0.2-1.2c-0.1-3.5-0.1-6.9-0.1-10.4
		c0-0.7-0.1-1.3-0.4-1.9c-0.5-1.1-0.6-1,0.4-2.9c0.2-1.3,0-2.6,0.5-3.9c0.2-0.6,0.1-1.3,0.2-2c0.1-0.8-0.6-1.5-0.3-2.3
		c0.3-0.6,0.3-1.3,0.3-2c0-0.8,0-1.6,0.1-2.4c0-0.4,0.1-0.8,0.3-1.2c0.5-1.2,0.4-2.3,0-3.5c-0.1-0.2-0.1-0.5-0.1-0.8
		c0.3-1.5,1.5-2.5,2.4-3.6c0.4-0.5,1-0.9,1.7-0.9c0.9-0.1,1.8-0.4,2.6-0.8c2.4-1.2,4.8-2.3,7-3.4c0.6-0.8,1-1.5,1.9-1.6
		c1.3-0.6,2.7-1.2,4-1.8c1.7-0.8,3.3-1.7,5-2.6c0.3-0.4,0.6-0.8,0.8-1.2c-0.1-1.3-1.1-2.2-1.3-3.4c0.1-0.2,0.1-0.5,0.2-0.7
		c0.7-1.3,1.4-2.6,2.3-3.8c1.4-1.8,2.4-3.8,3.3-5.9c0.4-0.8,0.8-1.7,1.3-2.5c2.3-3.4,3.8-7.3,5.8-10.9c0.2-0.3,0.3-0.7,0.4-1.1
		c0.2-1.2,0.7-2.3,1.4-3.3c0.4-0.6,0.8-1.1,0.9-1.8c0.2-0.8,0.4-1.5,0.7-2.3c0.5-1,0.1-2.1,0.7-3.1c0.5-0.9,0.4-2.1,0.4-3.1
		c0-0.1,0.1-0.2,0.2-0.3c0.1,0.2,0.3,0.3,0.3,0.5c0,1.1,0,2.1,0,3.3c-0.1,0.2-0.3,0.6-0.4,1c-0.1,0.1-0.1,0.2-0.1,0.4
		c0,0.3,0,0.5,0.1,0.8c0.2,0.4,0.3,0.7,0.1,1.1c-0.2,0.3-0.1,0.5,0.1,0.7c0.4,0.4,0.4,0.9,0,1.5c-0.1,0.2-0.2,0.4-0.3,0.7
		c0.5,1.1,1.3,2,1.5,3.3c0,0.4,0.3,0.7,0.5,1.1c0.3,0.4,0.8,0.8,0.9,1.3c0.8,2.3,2.2,4.2,3.4,6.3c0.6,1.2,1.5,2.2,2.2,3.4
		c0.6,1.2,1.2,2.4,2,3.4c0.7,1.8,2.3,2.9,3.3,4.5c0.2,0.3,0.6,0.5,0.9,0.7c0.3,0.3,0.6,0.5,0.8,0.9c0.4,0.5,0.2,1.4,0.8,1.8
		c0.5,0.4,1.2,0.6,1.6,1.1c0.2,0.3,0.4,0.7,0.6,1c0.2,0.2,0.4,0.3,0.7,0.2c0.4-0.1,0.6-0.5,0.6-0.9c0-0.7-0.5-1.2-0.7-1.8
		c-0.2-0.6-0.2-1.3-0.6-1.9c-0.1-0.2-0.3-0.5-0.3-0.7c-0.1-0.8,0-1.6-0.1-2.4c-0.1-0.6-0.7-1.1-0.6-1.9c0.1-1.3-0.4-2.6,0.2-4.4
		c0.4-0.9,1.1-2.2,2.2-3.2c0.2-0.2,0.5-0.2,0.7-0.2l0,0c0.2,0.4,0.4,0.7,0.5,1.1c-0.1,0.9-1,1.2-1.5,1.7c-0.4,0.5-0.8,1-1.2,1.6
		c0.2,0.5,0.5,0.9,0.5,1.5c0,0.5,0.1,1.1,0,1.6c0,0.8,0.2,1.5,0.6,2.3c0.5,1.3,0.9,2.8,1.3,4.3c0.7,0.5,1.6,1.2,2.3,1.7
		c1.2,0.4,2.3,0.3,3.3,0.2c0.3-0.3,0.6-0.6,0.6-1c0-1.7,0-3.5,0-5.2c0-0.7,0.2-1.3,0.5-1.9c0.6-1.3,1-2.7,1.7-4c1-1.7,1.9-3.5,3-5.2
		c0.8-1.2,1.9-2.3,3.2-2.8c0.6-0.7,0.5-1.6,1-2.2c0.4-0.5,0.6-1.2,0.8-1.8c0.3-0.7,0.6-1.5,0.9-2.3c0.1-1.4,0.1-2.8,0.2-4.3
		c0-0.6,0.2-1,0.5-1.5c0.1-0.2,0.2-0.6,0.1-0.7c-1-1-0.4-2.3-0.9-3.4c-0.8-1.8-0.6-3.7-0.6-5.5c0-0.9,0.7-1.4,0.9-2.2L81.5,43
		c0.3,0,0.5,0,0.8,0.1c0.5,0.1,0.7,0.4,0.7,0.8c0,0.5,0,1.1,0,1.6c0.4,0.5,0.8,0.8,1,1.3c0.2,0.7,0.8,1,1.3,1.4
		c0.2,0.1,0.5,0.3,0.7,0.4c0.8,0,1.3-0.4,1.7-1c0.5-0.8,1-1.6,1.3-2.5c0.3-0.7,0.7-1.4,1-2.1c1.1,0.3,1.1,0.3,1.1,0.9
		c0,0.4,0,0.8,0,1.2c0,0.8,0.2,1.6,0.6,2.1c-0.2,0.8-0.4,1.4-0.4,2.1c-0.1,1.1-0.1,2.1-0.1,3.2c0,0.5-0.1,1-0.4,1.5
		c-0.5,1-0.4,2.1-0.2,3.1c0.1,0.3,0.2,0.5,0.3,0.7c0.1,0.4,0,0.8-0.3,1.1c-0.9,0.8-2,1.4-2.5,2.5c-0.1,0.3-0.5,0.6-0.8,0.9
		c-2.3,1.9-4,4.2-5.6,6.7c-0.4,0.6-0.6,1.2-1.2,1.6c-1.6,1.2-2.3,2.8-2.7,4.9c0.2,0.5,0.4,1.1,0,1.7c-0.4,0.7-0.4,1.5-0.1,2.3
		c0.1,0.2,0.3,0.5,0.3,0.7c0.1,0.9,0.1,1.9,0.4,2.8c0.3,0.9,0.7,1.7,0.9,2.8c0.8,0.9,1.7,1.9,2.6,2.8c0.5,0.5,1.1,0.7,1.8,0.4
		c0.1-0.1,0.3-0.2,0.4-0.1c1.6,0.7,3.4,0.3,5.1,0.5c0.5,0.1,1,0.5,1,1.1c-0.1,1.4,0.3,2.6,0.8,3.8c0.4,1.2,1,2.5,0.9,3.8
		c0.5,1.1,0.8,2.2,0.8,3.5c0,0.8,0.4,1.5,0.6,2.3c0.2,0.8-0.1,1.6,0.4,2.3c0.2,0.2,0.2,0.5,0.1,0.7c-0.1,0.2-0.1,0.5-0.2,0.8
		c0,0.1,0,0.3,0,0.4c0.9,1.1,0.5,2.6,1,3.8c0.7,1.6,1.2,3.2,1.3,5c0.1,0.8,0.4,1.5,0.6,2.2c-0.3,0.5-0.5,1-0.7,1.5
		c0,1.1,0,2.1,0,3.2c0,1.1-0.1,2.1-0.1,3.2c0,1.1,0,2.1,0.4,3.1c0.3,0.6,0.2,1.3,0.3,2c0.1,0.7,0.1,1.3,0.4,1.9
		c0.4,0.9,0.3,1.8,0.4,2.7c0.1,0.8-0.7,1.5-0.5,2.3c0.2,0.7,0.8,1.4,0.7,2.2c0.5,2,1.5,4,1.6,6.1c0,0.2,0.3,0.5,0.3,0.7
		c0.4,1.5,1.3,2.9,1.2,4.6c0,0.4,0.3,0.7,0.4,1.1c0.2,0.6,0,1-0.3,1.6c0.2,0.3,0.3,0.6,0.6,0.9c0.4,0.4,0.8,0.7,0.9,1.3
		c0,1,0.6,1.7,0.9,2.6c0.2,0.5,0.5,1,0.5,1.5c0.4,2.7,1.8,5,3.3,7.2c0.2,0.3,0.5,0.6,0.7,1c-0.2,0.6-0.5,1-1.1,1.1
		c-0.9,0.2-1.8,0.3-2.6,0.9c-0.9,0.6-1.8,1.1-2.9,1c-1.1,0.7-2.5,0.9-3.8,1.2c-1.3,0.3-2.7,0.1-4,0.2c-0.3,0-0.5,0-0.8,0
		c-0.9,0.3-1.6,0.8-2.6,0.8c-1.2,0-2.4,0-3.5,0.6c-0.4,0.2-1,0.1-1.6,0.1c-0.9,0-1.9,0-2.7,0c-0.5,0.2-0.8,0.4-1.2,0.5
		c-0.5-0.2-1-0.5-1.5-0.3c-0.4,0.1-0.7,0.5-1.1,0.5c-1.1,0.1-2.1,0.2-3.1,0.6c-1,0.4-2,0.6-3.1,1c-0.4-0.1-0.9-0.3-1.4-0.4
		c-0.9,0.7-2,0.5-3,0.9c-0.8,0.4-1.7,0.7-2.6,1.1c-0.6-0.1-1.2-0.3-1.8-0.4c-1.1,0.5-2.4,0.2-3.5,0.6c-1.2,0.4-2.3,0.5-3.5,0.5
		c-1.2,0-2.4,0-3.3,0c-0.9,0.3-1.6,0.5-2.2,0.8c-0.9-0.7-1.7,0.3-2.6,0.2c-0.8-0.1-1.6,0-2.4,0c-0.9,0-1.9-0.1-2.8-0.1
		c-1.2,0-2.4-0.1-3.6,0.1c-1.8,0.2-3.4,0-5.1-0.6c-0.4-0.2-0.8,0.2-1.1,0.2c-0.2,0-0.5-0.1-0.7-0.3c-0.2-0.2-0.4-0.4-0.5-0.6
		c-0.8-1.4-1-3-1.7-4.4c-0.1-0.2,0-0.5,0-0.8l-0.1,0.1c0.9,0.2,1.5,0.8,1.5,1.6c0.1,1.2,1,1.4,1.9,1.7c0.1,0,0.2,0.2,0.3,0.2
		c-0.1,0.3-0.2,0.5-0.2,0.8c0,0.2,0.4,0.3,0.6,0.3c1.3,0,2.7,0,4,0c0.3,0,0.7-0.6,0.6-0.9c-0.8-1.7-1.4-3.4-2.7-4.9
		c-0.2-0.3-0.3-0.7-0.4-1.1c-0.1-0.5-0.1-1.1-0.2-1.6c-0.4-1.2-1.3-2.3-1.4-3.7c-0.1-1.2-0.6-2.3-1-3.4c-0.2-0.6-0.4-1.3-0.7-1.8
		c-0.4-0.6-0.5-1.2-0.7-1.8c-0.2-0.5-0.5-0.9-0.9-1.3c-0.3-0.4-0.6-0.9-0.6-1.4c-0.1-0.6-0.3-1-0.7-1.4c-0.5-0.5-0.9-1-1.3-1.5
		c-0.5-0.7-0.6-1.5-0.5-2.3c0-0.2,0.2-0.4,0.4-0.7c0.3,0.2,0.8,0.4,0.9,0.7c1.2,2.4,2.6,4.6,4.1,6.8c0.6,0.9,1.2,1.8,1.1,2.9
		c0.4,0.8,0.9,1.6,0.9,2.6s0.9,1.6,0.8,2.6c0,0.2,0.1,0.5,0.2,0.7c0.5,0.9,1,1.9,1.6,2.8c0.6,0.9,0.6,2,1.1,3
		c0.4,0.7,0.8,1.4,1.4,1.9c0.6,0.6,1.2,1.1,1.8,1.6c0.5,0.4,0.9,0.9,1.4,1.3c2.4,0.3,4.4,0.2,6.4-0.3c0.4-0.1,0.8-0.2,1.2-0.2
		c0.5,0,1.1,0,1.6,0c3.1-0.1,3.8-0.1,6.7-1c1.4-0.5,2.8-0.8,4.3-0.6c1.3,0.2,2.7,0,3.9-0.6c2-0.2,3.8-1,5.8-1c1.7,0,3.5,0.1,5.1-0.7
		c0.3-0.2,0.8-0.1,1.2-0.1c0.5-0.1,1.1,0,1.6-0.2c1.5-0.7,3.1-0.6,4.6-1.2c1.5-0.1,2.9-0.2,4.4-0.3c0.8,0,1.6-0.2,2.3-0.5
		c0.3-0.1,0.8-0.1,1.2-0.1c1.3,0,2.7,0,4-0.1c1.3-0.1,4.1-1,5.2-1.8c0.3-0.2,0.6-0.5,0.9-0.8c0.1-0.2,0.1-0.5,0.1-0.7
		c0-0.1-0.1-0.3-0.2-0.3c-1.2-1.2-1.3-2.9-1.9-4.3c0-1.2-0.6-2.3-0.8-3.5c-0.2-1.1-0.5-2.1-1-3c-1.2-2.4-1.9-4.9-2.8-7.4
		c-0.1-0.2-0.1-0.5-0.2-0.8c-0.2-1.4,0-2.9-0.6-4.3c0.6-0.9-0.1-1.8-0.2-2.7c-0.1-0.8-0.1-1.6-0.5-2.3c-0.3-0.6-0.4-1.3-0.4-1.9
		c-0.1-1.5,0.1-2.9-0.6-4.3c-0.1-0.2-0.1-0.5-0.1-0.8c0-0.7,0-1.3-0.1-2c0-0.8-0.1-1.6-0.4-2.3c-0.2-0.6,0.3-1.2-0.1-1.9
		c-0.5-1-0.2-2.1-0.3-3.2c-0.1-1-0.6-1.8-1.4-2.3s-1.6-1.1-2.5-1.2c-0.9-0.2-1.8-0.5-2.6-0.8c-0.9-0.3-1.8-0.6-2.8-0.9
		c-0.4,0.1-0.9,0.3-1.4,0.4c-0.5,0.2-1.1,0.3-1.6,0.1c-2-0.8-3.9-0.5-5.9-0.3c-0.6,0.4-1.3-0.2-1.9,0.1c-0.6,0.3-1.3,0.3-2,0.3
		s-1.3,0.1-2,0.1s-1.3,0-2,0c-1.1,0-2.1,0-3.1,0.5c-0.5,0.2-1,0.3-1.6,0.3c-1.7-0.2-3.1,0.7-4.7,0.9c-1.1,0.6-2.2,0.8-3.5,0.7
		c-2.7-0.1-5.3,0.1-8,0.1c-0.8,0-1.6,0-2.4,0.3c-0.4,0.2-0.8,0.2-1.2-0.1c-0.6-0.3-1.3-0.4-1.9-0.2c-1.3,0.4-2.6,0.6-3.9,0.5
		c-1.5-0.1-2.9,0-4.3,0.6c-0.5,0.2-1,0.2-1.6,0.2c-1.5,0.1-2.9,0.1-4.3,0.7c-0.7,0.3-1.6,0.2-2.4,0.2c-0.1,0-0.3,0-0.4,0.1
		c-1.1,0.7-2.3,0.6-3.5,0.9c-0.9,0.3-1.7,0.6-2.6,0.9c-0.2,0.1-0.5,0.3-0.7,0.4c-1.9,0.1-3.6,0.8-5.3,1.5c-2.3,0-4.2,1.6-6.4,1.9
		c-0.3,0.1-0.7,0.4-1,0.7c-0.4,0.4-0.6,0.8-0.9,1.2c0.1,0.4,0.2,0.6,0.3,0.9c-0.2,0.7-0.7,1.4-0.5,2.3c0.1,0.5,0.1,1.2-0.1,1.6
		c-0.7,1.1-0.5,2.3-0.6,3.5c-0.1,1.3-0.1,2.7-0.1,4c0,1.3,0,2.7,0.2,4c0.2,1.2,0.6,2.3,1.1,3.4c0.3,0.8,0.3,1.5,0.4,2.3
		c0,0.5,0.5,0.9,1.1,1c0.5,0,1.1,0,1.4-0.6c0.4-0.7,0.6-1.5,1-2.2C8.8,150.8,9.2,150.3,9.8,150L9.8,150z M33.1,101.9
		c0.6-0.1,0.8-0.7,1.2-0.9c0.3-0.2,0.7-0.5,1-0.5c1.3-0.1,2.7-0.4,4,0.2c0.9,0.4,1.8,0.5,2.7,0.5c2.7,0,5.3,0,7.9,0
		c0.8-0.4,1.6-0.5,2.3-1.2c0-1.4,0.1-2.8,0.1-4.3c0-0.8,0.3-1.5,0.7-2.2c0.1-1.8,0.2-3.5,0.3-5.2c1-1.9,1.1-3.8,0.2-5.8
		c-0.7-1.6-1.5-3.1-1.9-4.8c-0.2-0.9-1-1.2-1.5-1.8c-0.1-0.7-0.2-1.5-0.4-2.4c-1.5-1.9-2.5-4.2-3.7-6.5c-0.5-0.9-1-1.9-1.4-2.9
		c-0.5-1.1-0.7-2.3-1.4-3.3c0-0.1-0.2-0.1-0.3-0.1c-0.1,0.1-0.2,0.2-0.3,0.3c-0.1,0.7-0.2,1.3-0.6,1.9c-1.2,1.5-2,3.1-2.7,4.8
		c-0.8,1.8-2,3.5-2.4,5.4c-1,1.8-1.6,3.9-3.2,5.4c-0.4,0.4-0.6,0.9-0.7,1.4c-0.4,1.1-0.6,2.3-1.1,3.4c-0.6,1.2-1.4,2.3-2.1,3.4
		c-0.3,0.5-0.5,0.9-0.8,1.4c0,0.5-0.1,1-0.1,1.6c0,0.5,0.1,1.1,0.3,1.6c0.3,0.8,0.4,1.5,0.5,2.3c0,0.9,0.1,1.9,0.1,2.8
		c-0.7,0-0.8-0.5-1-1c-0.2-0.6-0.7-0.7-1.3-0.7c-0.4,0-0.8,0.1-1.2,0.3c-1,0.6-1.9,1.4-3.2,1.6c-0.6,0.1-1.1,0.7-1.7,1.1
		c-0.7,0.4-1.5,0.3-2.2,0.9c-1.3,1.1-3.1,1.6-4.5,2.5c-1.1,0.1-2,0.7-2.8,1.4c-1,0.7-2.2,1-3.1,1.8c-0.7,0.6-1.6,0.9-2.5,1.2
		c-0.5,0.1-0.8,0.6-1.3,0.9c-0.1,1-0.3,1.9-0.3,2.8c0,1-0.5,1.8-0.7,2.7c-0.1,0.7-0.1,1.3-0.2,2c0,0.4,0.1,0.9-0.1,1.2
		c-0.7,1.5-0.6,3.1-0.7,4.7c0,0.5-0.1,1.1-0.3,1.6c-0.4,1.3-0.5,2.6-0.2,3.8c0.6,0.6,1.1,1.3,1.9,1.7c0.4-0.1,0.9-0.3,1.4-0.5
		c1.2,0.8,2.3-0.1,3.4-0.3c1.6-0.2,3.1-0.6,4.6-1.1c0.9-0.3,1.8-0.3,2.7-0.6c1-0.4,2-0.7,3.1-0.7c0.4,0,0.8-0.2,1.1-0.3
		c1.7-0.4,3.3-1.2,5-1.2c1.6-0.1,3.1-0.6,4.7-1c1-0.3,2-0.6,3.1-0.6c0.7,0,1.3-0.1,2-0.1c1.5-0.9,3.1-0.7,4.7-0.7
		c0.8,0,1.6-0.2,2.3-0.4c1.3-0.3,2.6-0.4,3.9,0.1c1.1,0.4,2.4,0.3,3.5,0c0.9-0.3,1.8-0.3,2.8-0.3c1.9-0.1,3.7-0.1,5.6-0.3
		c1-0.1,2.1-0.4,3.1-0.5c1.6-0.2,3.2,0,4.7-0.8c0.2-0.1,0.5-0.1,0.8-0.1s0.5,0,0.8,0c2.2,0,4.5,0.3,6.7-0.7c0.5-0.2,1.1-0.1,1.6-0.1
		c1.3,0,2.7,0,4,0c2,0,4,0,6,0.1c1.1,0,2.1,0,3.1,0.5c0.3,0.2,0.8,0.1,1.2,0.2c0.9,0,1.9,0,2.7,0c0.2-0.2,0.5-0.4,0.5-0.6
		c0.1-0.5,0.1-1.1,0.1-1.6c0-2-1.1-3.8-0.9-5.9c0-0.1-0.1-0.2-0.2-0.4c-0.1-0.1-0.1-0.2-0.2-0.4c-0.3-0.5-0.4-1-0.4-1.5
		c-0.1-0.9,0.1-1.9-0.5-2.7c-0.6-0.8-0.3-1.8-0.6-2.7c-0.4-1.1-0.9-2.2-1.1-3.4c-0.3-1.3-1-2.5-1.1-3.8c0-0.5-0.4-1-0.6-1.5
		c-0.5-1.2-1.3-2-2.7-2c-0.5,0-0.9-0.5-1.5-0.6c-0.4-0.1-0.8-0.1-1.2,0c-0.5,0.1-1,0.4-1.4,0.6c-1.1-0.6-2.1-0.8-3.2-0.6
		c-0.6,0.1-1.3,0.3-1.9,0.4c-0.9-0.5-1.8-0.2-2.7,0.1c-0.1,0-0.3,0-0.4,0c-2.4,0.1-4.8,0.2-7.2,0.3c-0.9,0-1.8,0.1-2.7,0.4
		c-0.5,0.2-1,0.1-1.6-0.1c-0.5-0.2-1-0.4-1.5-0.5c-1.5-0.1-2.9-0.1-4.3-0.7c-0.3-0.1-0.8,0-1.2,0.1c-0.6,0.2-1.2,0.8-1.3,1.4
		c-0.1,1.3,0,2.7-0.7,3.9c-0.2,0.3-0.1,0.8-0.1,1.2c0,1.2,0,2.4,0,3.6c0,0.7,0.2,1.3,0.6,1.9c0.1,0.1,0,0.2,0,0.3
		c0,0.2-0.7,0.8-0.9,0.7c-0.1,0-0.3-0.1-0.3-0.2c-0.4-0.8-0.8-1.3-1.8-1.2c-2.8,0.3-5.6,0.3-8.4,0.2c-1.6-0.1-3.2,0-4.4,0.1
		c-1.2,0.5-2,0.8-2.9,1.1C34.5,102.7,33.5,102.8,33.1,101.9z M60,87.2l0.1-0.2h-0.2L60,87.2z"/>
	<path class="st1" d="M33.5,19.6c0.3,0.2,0.7,0.4,0.9,0.7c0.7,1.3,1.4,2.6,2,3.9c0.2,0.5,0.5,1,0.9,1.3c1,0.9,1.9,1.9,2.6,3
		c0.1,0.1,0.2,0.2,0.3,0.3c1.3,0.5,1.9,1.9,3.1,2.5c0.2,0.1,0.5,0,0.9,0c0.8-1.1,2-2,2.7-3.3c0.7-1.2,1.8-2.3,2.8-3.5
		c0.3-0.1,0.6,0.2,0.8,0.5c0.2,0.5,0.4,1,0.4,1.5c0,0.8-0.1,1.6-0.4,2.3c-0.2,0.5-0.2,1-0.4,1.5c-0.2,0.8,0.1,1.5,0.4,2.2
		c-0.3,0.6-0.9,0.9-0.9,1.7c0.4,0.5,1.1,0.2,1.5,0.4c2.4,1.4,5,1.6,7.7,1.6c1.5,0,2.9-0.1,4.4,0.3c0.3,0.1,0.7-0.3,1.1-0.3
		c0.4-0.1,0.8-0.1,1.2,0c0.2,0,0.4,0.3,0.5,0.5c0.1,0.3,0,0.6-0.2,0.7c-2.1,1.2-3.9,2.8-6.1,3.7c-0.7,0.7-1.7,0.7-2.6,0.8
		c-0.4,0-0.6,0.4-1.1,0.3c-1.4-0.4-2.8-0.4-4.3,0c-0.7,0.2-1.5-0.3-2.3-0.3c-1.3,0-2.7,0-4-0.4c-0.5-0.1-0.7,0-0.7,0.5
		c0,0.4,0.1,0.8,0.2,1.2c0.1,0.5,0.3,1,0.4,1.3c-0.1,1.2-1,1.8-0.7,3c-0.4-0.2-0.5-0.3-0.6-0.3c-0.1-0.1-0.2-0.2-0.2-0.3
		c0-1.2-0.8-2.3-0.9-3.5c0-0.5-0.3-1-0.4-1.5c-0.5-1.7-1.2-3.2-3-4c-0.3-0.2-0.7-0.4-0.9-0.8c-0.7-1-1.4-1.9-2.1-2.9
		c-0.6-0.9-1-1.9-1.5-2.8c-0.6-1.2-1.2-2.4-1.1-3.8c-0.9-2.3-0.6-4.7-0.7-7.1C33.1,20.1,33.3,19.9,33.5,19.6z M55.3,40.3
		c0.9-0.4,1.6-0.7,2.2-0.9c0.1-0.1,0.3-0.1,0.3-0.3c0.1-0.2,0.1-0.5,0.1-0.7c0-0.1-0.1-0.2-0.2-0.3c-1-0.2-2.1-0.5-3.1-0.7
		c-0.5-0.1-1-0.2-1.6-0.2c-0.7-0.1-1.3-0.1-2-0.4c-3.2-1.3-6.5-2.3-9.1-4.8c-0.3-0.3-0.7-0.5-1-0.7c-1.3-0.8-2.4-1.7-3-3.1
		c-0.4-0.9-1.1-1.5-1.8-2.2c-0.2-0.2-0.5-0.2-0.7-0.1c-0.4,0.1-0.7,0.6-0.6,0.9c0.5,1.1,0.9,2.2,1.4,3.3c0.4,1,0.7,2.1,1.3,2.9
		c1,1.3,1.7,2.7,2.9,3.8c0.5,0.4,1,0.9,1.7,1c1.1,0.2,2,0.8,2.9,1.3c0.9,0.5,2.1,0.4,2.9,1.2C50.5,40.3,52.9,40.3,55.3,40.3z"/>
	<path class="st1" d="M64.4,70.7c0.1-0.4,0-0.9,0.2-1.1c0.6-0.9,1.4-1.6,1.9-2.6c0.5-0.8,1-1.5,1.7-2.1c1.4-1.3,2.4-2.8,2.7-4.8
		c0.7-1.1,0.6-2.3,0.1-3.4c-0.3-0.6-0.4-1.2-0.7-1.9c-0.5-1.4-1.4-2.6-2.8-3.3c-0.7-0.4-1.3-1-2.1-1.1c-1.8-1-3.6-0.9-5.3,0
		c-1,0.5-2,0.9-2.2,2.1c-0.1,0.2-0.3,0.5-0.4,0.7c-0.1,0.1-0.2,0.2-0.3,0.3c-0.9,0.7-1.3,1.7-1.5,2.7c0.1,0.7,0.5,1.3,0.4,1.9
		C56,58.8,56,59.3,56.2,60c0.3,1,0.8,2,1.1,3c0.1,0.3,0.5,0.6,0.8,0.9c0.3,0.3,0.7,0.3,1.1,0.3c0.1,0,0.3-0.1,0.4-0.2
		c0.8-0.5,1.9-0.2,2.6-0.9c0.8-0.7,1.5-1.6,2.1-2.4c0.1-0.2,0.1-0.6,0-0.7c-0.7-1-1.5-1.8-2.5-2.6c-0.4-0.3-1-0.2-1.4,0.3
		c-0.4,0.5-0.8,1.1-1.2,1.6c-0.5-0.4-0.5-1-0.3-1.4c0.3-0.6,0.7-1.1,1.1-1.7c0.4-0.6,1.1-0.8,1.8-0.4c0.8,0.4,1.6,0.9,2.5,1.2
		c0.9,0.4,1.5,1.1,2.2,1.7c0.4,0.4,0.5,1,0.3,1.5c-0.2,0.6-0.5,1.2-0.8,1.9c-0.8,0.6-1.6,1.3-2.5,2c-0.3,0.1-0.7,0.2-1.1,0.2
		c-0.7,0-1.3,0-1.9,0.4c-1,0.5-2.1,0.4-3.1,0.3c-0.7-0.1-1.2-0.5-1.5-1.1c-0.1-0.2-0.1-0.6-0.3-0.7c-0.9-0.8-1.5-1.9-2.1-2.9
		c-0.4-0.7-1-1.2-1.5-1.9c-0.3-0.5-0.3-1-0.2-1.5c0.8-0.9,1.5-1.9,2.4-2.6c0.9-0.8,1.8-1.6,2.6-2.5c1.2-1.5,2.7-2.6,4.5-3.3
		c0.4,0,1-0.1,1.5-0.1c0.7,0,1.3,0.1,1.8,0.2c1.1,0.5,1.8,1.4,2.9,1.5c0.5,0.1,1,0.5,1.3,0.8c1.1,1,2.2,2,3.3,3
		c0.6,1.3,1.2,2.7,1.9,4.1c0.1,0.8,0.2,1.7,0.2,2.6c0,1.1-0.4,2.1-1.1,2.9c-0.4,0.4-0.8,0.7-1.3,0.9c-0.6,0.1-0.9,0.5-0.9,1.1
		c0,0.3-0.1,0.5-0.2,0.9c-0.7,0.8-1.5,1.7-2.3,2.5c-0.9,1-2.2,1.5-3.4,1.8C64.6,70.7,64.5,70.7,64.4,70.7L64.4,70.7z"/>
	<path class="st1" d="M72.5,15.7c-0.8,0.7-1.3,1.3-1.9,1.8c-0.2,0.2-0.5,0-0.6-0.2c-0.3-0.4-0.5-0.9-0.6-1.5c0-1.5-0.1-2.9-0.2-4.5
		c-0.2-0.4-0.5-0.8-0.7-1.3c-0.2-0.6-0.6-1.2-1.1-1.7c-0.8-0.8-1.5-1.5-2.3-2.2c-1.4-1.2-3.1-2-4.9-2.7c-0.2-0.1-0.5-0.1-0.8-0.1
		c-0.7-0.1-1.4,0-2-0.3c-0.7-0.3-1.3,0.1-1.9,0.1c-1-0.1-2.1-0.4-3-0.8c-0.3-0.1-0.6-0.5-0.8-0.9c-0.3-0.5,0-1.2,0.5-1.2
		c2.9-0.2,5.9-0.3,9.4,0.3C62.7,0.7,64,2,65.5,2.7c1.2,0.6,1.7,2.1,3,2.5c0.5,0.6,1,1.2,1.5,1.9c0.3,0.4,0.5,0.9,0.7,1.4
		c0.5,1.1,1,2.2,1.2,3.3C72.5,13,72.4,14.2,72.5,15.7z"/>
	<path class="st1" d="M56.3,10.7c-1.3,0.1-2.8-0.2-4.2,0.4c-0.4,0.1-1-0.3-1.2-0.8s-0.2-1,0.1-1.5c0.1-0.2,0.4-0.4,0.7-0.4
		c0.8-0.1,1.6-0.1,2.4-0.1c1.3,0,2.7,0,4,0c1.4,0.6,2.7,1.2,4.1,1.9c0.7,0.8,1.5,1.7,2.2,2.5c0.2,1.5,0.4,2.8,0.1,4.1
		c-0.1,0.2-0.2,0.5-0.3,0.7c-0.2,0.2-0.5,0.2-0.7,0.2c-0.1,0-0.2-0.1-0.3-0.2c-0.5-0.5-0.1-1.4-0.7-1.8c-1.1-0.8-1.6-2.1-2.5-3
		c-0.8-0.8-1.6-1.3-2.7-1.7C56.9,10.9,56.7,10.8,56.3,10.7z"/>
	<path class="st1" d="M58.8,142.1c0.1-0.2,0.1-0.6,0.3-0.6c0.5-0.1,1-0.1,1.5-0.2c0.6-0.1,1.1-0.9,1-1.5c-0.2-0.5-0.3-1-0.3-1.5
		c0-1.3-0.1-2.6-0.1-4c0-0.8-0.2-1.5-0.6-2.2c-0.1-0.2,0-0.5,0-0.8c1.4-0.9,2.8-1.8,4.3-2.7c0.4,0,0.8,0,1.2,0l-0.2-0.3
		c0,0.6-0.6,0.9-0.6,1.4c-0.1,1.5-1,2.7-1.7,4.1c0,1.2,0,2.5-0.1,3.6c-0.3,0.5-0.6,0.8-0.8,1.1c0,0.4,0,0.8,0.1,1.1
		c0.1,0.4,0.3,0.7,0.8,0.7c0.3,0,0.5,0.1,0.8,0.1l-0.1-0.1c0,0.4-0.3,0.7-0.7,0.8c-0.8,0.3-0.9,0.9-0.9,1.6c0,0.5,0,1,0.3,1.5
		c0.5,0.8,0.5,1.7,0.4,2.6l0.1-0.1c-0.2-0.1-0.5-0.2-0.6-0.4c-0.6-1.2-1.1-2.3-1.2-3.7c0-0.3-0.5-0.7-0.8-0.7c-0.8,0-1.5,0-2.3-0.1
		L58.8,142.1z M62.4,132.2c0.1-0.1,0.2-0.2,0.3-0.3c-0.1-0.1-0.2-0.2-0.3-0.3c-0.1,0-0.3,0.1-0.3,0.2
		C62.2,132.1,62.3,132.1,62.4,132.2z"/>
	<path class="st1" d="M79.7,146.8c-0.3,0-0.5-0.1-0.6-0.4c-0.1-0.4-0.1-0.8-0.2-1.1c-0.1-0.5-0.8-0.9-1.1-0.7
		c-0.7,0.3-1.4,0.7-2.1,1c-1,0.6-2,0.4-2.9-0.2c-0.1-0.1-0.2-0.1-0.4-0.1l0.1,0.1c0.3-0.6,0.5-1.1,0.8-1.7l-0.1,0.1
		c0.6-0.1,0.9,0.4,1.5,0.6c1.1-0.3,2.2-0.6,3.4-0.9c0.2-0.3,0.5-0.6,0.6-1c0.1-1.3,0.3-2.6,0-4c0-0.2-0.3-0.4-0.5-0.6
		c-0.5-0.5-1.2-0.5-1.9-0.5c-0.4,0-0.8,0.1-1.1-0.2c0-0.1-0.1-0.2,0-0.2c0.1-0.1,0.2-0.2,0.3-0.2c1.3-0.1,2.6-0.2,4-0.2
		c0.5,0,1,0.1,1.4,0.5c-0.1,0.4-0.2,0.8-0.3,1.2c0.1,0.4,0.3,0.7,0.4,1.1c0.8,1.4,1.1,3,1,4.6c0,1.1-0.1,1.2-1.4,1.5
		c-0.1,0-0.3,0-0.4,0.1c-0.4,0.2-0.7,0.4-0.7,0.9c0,0.3,0,0.5-0.1,0.8L79.7,146.8z"/>
	<path class="st1" d="M70,126.8c0-0.3,0.1-0.6,0.3-0.6c0.6-0.1,1.3-0.1,2-0.1c0.4,0,0.8,0.4,0.8,0.7c0,0.7,0,1.3-0.1,2
		c0,0.6-0.1,4.8,0,5.3c0.1,0.5,0.1,1,0.2,1.5c-0.2,0.3-0.3,0.5-0.4,0.7c-0.4,0.6-0.4,0.5,0.4,1c0.2,0.1,0.4,0.2,0.6,0.4
		c-0.4,0.4-0.8,0.7-1.2,1.1c-0.3,0.3-0.4,0.6-0.3,1.1c0.1,0.5,0.3,1,0.5,1.5c0.4,0.7,0.4,1.5,0.3,2.3l0.1-0.1c-0.1,0-0.3,0-0.4-0.1
		c-1.1-1.2-1-3-1.9-4.3c-0.1-0.1-0.1-0.3-0.1-0.4c0-0.3,0.1-0.5,0.2-0.7c0.1-0.2,0.3-0.5,0.2-0.7c-0.7-1.3-0.2-2.6-0.3-3.9
		c0.9-1.8,0.5-3.7,0.6-5.5c0-0.3-0.3-0.7-0.4-1C70.7,126.9,70.3,126.8,70,126.8L70,126.8z"/>
	<path class="st1" d="M72.3,145.1c-0.3,1-1.1,1.5-2,1.7c-2,0.5-4,1.2-5.8,2.2c-0.6,0.3-1.2,0.6-1.8,0.8c-0.2,0.1-0.5,0.1-0.8,0.1
		L62,150c0.1-0.2,0-0.5,0.2-0.7c0.6-0.5,1.2-0.9,1.8-1.3c-0.1-0.4-0.3-0.8-0.4-1.3l-0.1,0.1c0.7,0,1.3,0.1,2,0.1
		c0.5,0,1.1,0,1.6-0.1c0.3,0,0.5-0.2,0.7-0.2c0.3-0.1,0.5-0.8,0.4-1c-1-1.4-2.1-2.7-2.2-4.6c0-0.4-0.4-0.6-0.9-0.6
		c-0.3,0-0.5,0-0.8-0.1l0.1,0.1c0-0.4,0.2-0.7,0.6-0.7c0.6-0.1,1.2,0,1.8-0.1l-0.1-0.1c0.8,1.1,0.8,2.5,0.9,3.6
		c0.7,1,1.4,1.8,2.2,2.4c0.2,0.1,0.5,0.2,0.7,0.1c0.6-0.4,1.2-0.3,1.9-0.3L72.3,145.1z"/>
	<path class="st1" d="M49.3,16.5c0.8-0.4,1.5-0.8,2.2-1.1c1.4,0.1,2.5,0.8,3.9,0.9c0.8,0.1,1.4,0.7,1.8,1.4c0.2,0.4,0.3,0.7,0.5,1.1
		c0.3,0.8,0.1,1.2-1,1.8c-0.6-1-1.5-1.8-2.6-2.4c-0.9-0.5-1.7-0.5-2.6,0c-0.6,0.3-1.1,0.2-1.4-0.3C49.8,17.5,49.6,17,49.3,16.5z"/>
	<path class="st1" d="M15.5,146.1c0-0.3,0.1-0.6,0.4-0.6c1.2-0.1,2.4-0.2,3.6-0.2c0.5,0,1,0.2,1.5,0.4c0.7,0.3,1.4,0.6,2.2,0.9
		c0.3-0.1,0.5-0.2,0.7-0.3c0.2,0.1,0.5,0.3,0.7,0.4c1.6,0.6,2.3,1.7,2,3.4l0.1-0.1c-0.4,0.1-0.8-0.1-1-0.4c-0.3-0.4-0.5-0.9-0.8-1.4
		c-0.2-0.3-0.5-0.6-1-0.6c-0.8,0-1.6-0.1-2.3-0.1c-0.9,0-1.8,0-3,0c-1-0.4-2.1-1-3.3-1.6L15.5,146.1z"/>
	<path class="st1" d="M67.7,161.2c1.3-0.5,1.4-1.6,1.8-2.6c0.1-0.3,0.4-0.4,0.7-0.4s0.5,0.2,0.3,0.5c-0.1,0.2-0.2,0.5-0.3,0.7
		c0,0.1-0.1,0.3,0,0.4c0.1,0.2,0.3,0.5,0.4,0.6c1.5,0.1,2.9,0.1,4.4,0.2c0.1,0,0.3,0.2,0.3,0.2c-0.1,0.2-0.2,0.5-0.4,0.5
		c-0.4,0.1-0.8,0-1.2,0.1c-0.8,0-1.6,0-2.4,0c-1,0.4-1.2,1.4-1.7,2.1c-0.2-0.2-0.4-0.3-0.5-0.5c-0.2-0.8-0.8-1-1.5-1
		c-0.9,0-1.9,0.1-2.8,0.1c-0.4,0-0.8,0-1.1-0.3c-0.1-0.1,0.4-0.4,0.9-0.4c0.7,0,1.3,0,2,0C67.1,161.2,67.4,161.2,67.7,161.2z"/>
	<path class="st1" d="M14.7,154.1c0-0.1,0-0.3,0-0.4c0.8-1.1,2.1-1.6,3.3-1.9c1.6-0.4,3.1,0,4.5,1c1.1,0.8,1.9,1.8,2.5,3
		c0.1,0.2,0,0.5,0.1,0.8l0.1-0.1c-0.2-0.1-0.5-0.1-0.7-0.2c-0.9-0.8-1.7-1.6-2.6-2.5c-0.9-0.4-1.9-0.7-2.9-1.1
		c-0.2,0-0.5,0.1-0.7,0.2c-0.8,0.4-1.6,0.9-2.5,1.2C15.5,154.1,15,154,14.7,154.1L14.7,154.1z"/>
	<path class="st1" d="M58.8,162.9c0-0.1,0-0.3,0.1-0.4c0.3-0.2,0.7-0.3,1-0.5c1.1-0.4,1.2-0.5,1.2-1.7c0-0.5,0-1.1,0.1-1.6
		c0-0.2,0.3-0.3,0.4-0.4c0.1,0.1,0.2,0.2,0.2,0.3c0,1.2,0,2.4,0,3.7c-0.2,0.3-0.4,0.7-0.7,1.3c0,0.5,0,1,0,1.5s0,1,0.3,1.5
		c0.6,0.8,0.5,1.7,0.4,2.7l0.1-0.1c-0.3,0-0.6-0.1-0.6-0.4c-0.1-1-0.9-1.2-1.6-1.5c0.9-1.2,0.7-2.5,0.6-3.8c0-0.3-0.4-0.6-0.9-0.6
		c-0.3,0-0.5,0-0.8-0.1L58.8,162.9z"/>
	<path class="st1" d="M58.8,150.8c-0.2-0.1-0.5-0.2-0.6-0.4c-0.2-0.5-0.2-1-0.3-1.5c-0.1-0.5,0.1-1.1-0.2-1.5
		c-0.6-1.1-0.3-2.3-0.9-3.4c-0.2-0.3-0.5-0.7-0.4-1.1c0.1-0.2,0.2-0.5,0.4-0.6c0.6-0.3,1.3-0.2,1.9-0.1l-0.1-0.1
		c-0.2,0.4-0.5,0.9-0.8,1.4c0.5,1.1,0.7,2.3,0.7,3.6C58.7,148.3,58.7,149.6,58.8,150.8L58.8,150.8z"/>
	<path class="st1" d="M90.4,147.2c0.3,0.4,0.6,0.8,0.9,1.1c0.3,0.2,0.7,0.3,1.1,0.5c-0.5,0.7-1.3,0.8-2,1c-0.2-0.1-0.5-0.2-0.8-0.4
		c-1.3,0.6-2.6,1.3-3.9,1.9c-0.2,0.1-0.4-0.1-0.5-0.4c0-0.1,0-0.3,0-0.4c0.4-0.6,0.9-1.1,1.5-1.1c1-0.1,1.7-0.7,2.6-1
		C90,148.2,90,147.6,90.4,147.2z"/>
	<path class="st1" d="M29.2,167.6c-0.3,0-0.6,0-0.6-0.3c-0.4-1.5-1.2-3-1.1-4.6c0-0.7-0.4-1.3-0.5-1.9c-0.2-0.6-0.1-1.3-0.2-2
		l-0.1,0.1c0.1,0,0.3,0,0.4,0.1c0.7,0.9,1.3,1.9,1.3,3.1c0,0.4,0,0.8,0.1,1.1c0.8,1.4,0.6,3,0.6,4.5L29.2,167.6z"/>
	<path class="st1" d="M41.1,131c-0.1-0.5-0.2-1-0.4-1.5c0.2-0.2,0.3-0.4,0.5-0.6c0.1-0.1,0.2-0.2,0.4-0.1c0.1,0,0.2,0.1,0.2,0.2
		c0.1,0.8,0.2,1.6,0.2,2.3c0,0.6,0.3,1,0.6,1.4c-0.4,0.6-0.7,1.2-1.1,1.9c-0.3-0.8-0.5-1.6-1.6-1.7C40.3,132.3,40.7,131.7,41.1,131z
		"/>
	<path class="st1" d="M30.8,174.8c-0.2-0.1-0.5-0.2-0.6-0.3c-0.4-1.1,0-2.4-0.9-3.4c0-1.2-0.1-2.3-0.1-3.5l-0.1,0.1
		c0.2,0.1,0.5,0.3,0.6,0.4c0.4,1.1,0.1,2.3,0.9,3.3c0,1.2,0.1,2.3,0.1,3.5L30.8,174.8z"/>
	<path class="st1" d="M80.9,163.9c-0.1,0.3-0.2,0.5-0.4,0.7c-0.2,0.2-0.5,0.4-0.6,0.3c-0.6-0.4-1.2-0.5-1.9-0.5
		c-1.1,0-2.1,0-3.2-0.1c-0.2,0-0.4-0.2-0.6-0.3c1.6-0.4,2.8-0.5,5.5-0.4C80.1,163.6,80.5,163.8,80.9,163.9z"/>
	<path class="st1" d="M12.2,159.6c0,1.4,0,2.8,0,4.1c-0.4,0.8-0.7,1.4-0.9,1.9c-0.2,0.2-0.3,0.1-0.4-0.3c0-0.3-0.1-0.6,0-0.8
		c0.6-1.3,0.7-2.7,0.7-4.2c0-0.4,0.3-0.7,0.8-0.7L12.2,159.6L12.2,159.6z"/>
	<path class="st1" d="M68.8,166.1c-1.2-0.4-2.3,0.2-3.3-0.4c0.8-0.7,1.7-0.1,1.7-0.1c1.3-0.5,1.5-1.1,2.1-1.1c0.1,0,0.2,0.1,0.3,0.2
		c0.1,0.1,0.1,0.2,0.1,0.3C69.5,165.2,69.2,165.5,68.8,166.1z"/>
	<path class="st1" d="M89.1,153.6c-3.2,1.3-3.2,1.3-4.4,0.8C86,153.6,87.4,152.8,89.1,153.6z"/>
	<path class="st1" d="M54,163.7c0.1-0.2,0.2-0.4,0.4-0.6c0.1-0.1,0.2-0.1,0.3-0.1c1.4,0,2.7,0,4.1-0.1l-0.1-0.1
		c0,0.4-0.3,0.7-0.7,0.7C56.7,163.6,55.3,163.6,54,163.7L54,163.7z"/>
	<path class="st1" d="M119.5,173.5c-0.6-1.3-0.7-1.9-0.6-2.6c0.1-0.4,0.3-0.7,0.8-0.7s0.8,0.3,0.7,0.7
		C120.3,171.8,119.5,172.2,119.5,173.5z"/>
	<path class="st1" d="M17.4,181.5c0.2-0.4,0.5-0.9,0.7-1.3c0.1-0.1,0.2-0.2,0.3-0.2c0.3,0.2,0.7,0.4,0.9,0.8c0.1,0.2,0.1,0.6,0,0.7
		c-0.2,0.3-0.6,0.5-1,0.6C18,182.2,17.6,182,17.4,181.5z"/>
	<path class="st1" d="M113.6,164.7c0.1,0,0.2,0,0.3,0.1c0.8,0.5,0.8,1,0.1,1.5c-0.2,0.2-0.4,0.3-0.7,0.4c-0.3,0.1-0.6,0.1-0.7-0.2
		c-0.1-0.2-0.2-0.5-0.1-0.7C112.7,165.3,113.1,165,113.6,164.7z"/>
	<path class="st1" d="M62,150c-0.1,0.2-0.1,0.5-0.3,0.7c-0.6,0.7-1.5,1-2.4,1.4c-0.1,0-0.3-0.1-0.3-0.1c-0.1-0.4-0.1-0.8-0.2-1.1
		l-0.1,0.1c0.8-0.2,1.5-0.1,2.2-0.7C61.2,150,61.6,150.1,62,150L62,150z"/>
	<path class="st1" d="M84,185c-0.5-0.5-0.5-1.1-0.1-1.7c0.1-0.2,0.4-0.2,0.7-0.2c0.3,0,0.6,0.5,0.5,0.9
		C84.9,184.4,84.6,184.9,84,185z"/>
	<path class="st1" d="M87.3,128.7c0.3,0.5,0.3,1,0.1,1.5c-0.1,0.3-0.3,0.4-0.6,0.4c-0.4,0-0.7-0.4-0.6-0.8
		C86.4,129.2,86.7,128.8,87.3,128.7z"/>
	<path class="st1" d="M54.4,184c-0.3,0.7-0.8,1.2-1.4,1.7c-0.1,0.1-0.2,0.1-0.3,0s-0.2-0.2-0.2-0.3c0-1,0.7-1.7,1.6-1.6
		C54.2,183.8,54.3,184,54.4,184z"/>
	<path class="st1" d="M109.9,177.6c-0.1,0.2-0.3,0.5-0.6,0.8c-0.2,0.2-0.5,0.3-0.6,0.1c-0.1-0.1-0.2-0.2-0.2-0.3
		c0-0.4,0.1-0.8,0.2-1.2c0.1-0.3,0.6-0.5,1-0.3C109.9,176.9,110,177.1,109.9,177.6z"/>
	<path class="st1" d="M31.8,135.2c-0.5-0.3-0.8-0.6-1-1.1c-0.1-0.3,0-0.6,0.2-0.7c0.2-0.1,0.5-0.1,0.7,0
		C32.4,133.8,32.5,134.5,31.8,135.2z"/>
	<path class="st1" d="M43.3,187.4c-0.4,0.5-0.9,1-1.3,1.5c-0.2,0.2-0.5,0.3-0.6,0c-0.1-0.2-0.2-0.5-0.1-0.7c0.1-0.4,0.4-0.7,0.6-1
		C42.2,186.9,42.6,186.9,43.3,187.4z"/>
	<path class="st1" d="M23.9,172.3c-0.1,0.2-0.2,0.5-0.4,0.7c-0.2,0.3-0.8,0.4-1,0.2c-0.2-0.1-0.3-0.4-0.3-0.6c0-0.5,0.2-0.7,0.7-0.8
		c0.2,0,0.5,0,0.8,0C23.9,171.8,24,172,23.9,172.3z"/>
	<path class="st1" d="M107.2,160.3c-0.5-0.6-0.4-1.2-0.1-1.8c0.1-0.3,0.4-0.3,0.6-0.3c0.4,0.1,0.7,0.4,0.6,0.8
		C108.3,159.7,107.8,160.1,107.2,160.3z"/>
	<path class="st1" d="M115.5,173.2c0,0.3-0.1,0.5-0.4,0.6c-0.2,0.1-0.5,0.2-0.7,0.2s-0.5-0.1-0.7-0.3c-0.1-0.1,0-0.4,0.1-0.6
		c0.3-0.6,0.8-0.6,1.3-0.5C115.5,172.7,115.6,172.9,115.5,173.2z"/>
	<path class="st1" d="M79,182.9c-0.2-0.1-0.5-0.2-0.6-0.3c-0.1-0.1,0.1-0.4,0.2-0.6c0.2-0.3,0.6-0.5,1-0.5c0.5,0,0.8,0.3,0.6,0.7
		C80,182.7,79.7,182.9,79,182.9z"/>
	<path class="st1" d="M26.8,158.8c-0.9-0.3-1.4-0.9-1.6-1.7c-0.1-0.2,0-0.5,0-0.7l-0.1,0.1C26.2,156.9,26.9,157.6,26.8,158.8
		L26.8,158.8z"/>
	<path class="st1" d="M112.4,159.6c-0.5-0.1-0.7-0.3-0.6-0.8c0.1-0.5,0.3-0.7,0.8-0.6s0.7,0.3,0.6,0.8S112.9,159.7,112.4,159.6z"/>
	<path class="st1" d="M20.6,186.4c-0.1-0.1-0.2-0.2-0.2-0.3c-0.2-0.5-0.1-1.1,0.4-1.4c0.2-0.1,0.5,0,0.7,0.1c0.2,0.1,0.2,0.4,0,0.6
		c-0.2,0.3-0.4,0.7-0.7,1C20.8,186.4,20.7,186.4,20.6,186.4z"/>
	<path class="st1" d="M12,137.6c-1.5,0.4-1.5,0.4-2.5-0.1C10.9,137.1,10.9,137.2,12,137.6z"/>
	<path class="st1" d="M31.9,137.5c0.4,0.3,0.8,0.6,1.2,0.9c-0.4,0.4-0.8,0.7-1.2,1C31.5,138.8,31.4,138.2,31.9,137.5z"/>
	<path class="st1" d="M61.8,186.6c-0.1,0.2,0,0.5-0.2,0.7c-0.1,0.2-0.4,0.2-0.7,0.2s-0.4-0.2-0.4-0.5s0.1-0.5,0.3-0.7
		C61.2,186.1,61.7,186.2,61.8,186.6z"/>
	<path class="st1" d="M18.6,175.6c0,0.5-0.3,0.7-0.8,0.6c-0.4-0.1-0.7-0.5-0.5-0.8c0.1-0.3,0.6-0.6,0.9-0.4
		C18.4,175.1,18.5,175.4,18.6,175.6z"/>
	<path class="st1" d="M103.8,176.5c0.1-0.5,0.3-0.7,0.8-0.6c0.5,0.1,0.7,0.3,0.6,0.8c0,0.4-0.3,0.7-0.8,0.6
		C103.9,177.1,103.7,176.9,103.8,176.5z"/>
	<path class="st1" d="M112.1,180.9c-0.3-0.3-0.3-0.7-0.1-1s0.5-0.5,0.8-0.7c0,0,0.2,0.1,0.3,0.1c0.2,0.3,0.2,0.7-0.1,1
		c-0.1,0.1-0.2,0.2-0.3,0.2C112.5,180.7,112.3,180.8,112.1,180.9z"/>
	<path class="st1" d="M101.8,180.5c-0.2,0.4-0.6,0.6-0.9,0.4c-0.3-0.1-0.4-0.4-0.4-0.6c0-0.3,0-0.5,0.3-0.6c0.2-0.1,0.5,0,0.7,0.1
		C101.9,180,102,180.2,101.8,180.5z"/>
	<path class="st1" d="M88.4,179.5c-0.2,0.3-0.3,0.6-0.6,0.8c-0.1,0.1-0.4,0-0.7,0c-0.1,0-0.2-0.2-0.2-0.3c-0.1-0.8,0.4-1.2,1.1-0.9
		C88.2,179.2,88.2,179.3,88.4,179.5z"/>
	<path class="st1" d="M30.8,182.2c0.1,0,0.2,0,0.3,0.1c0.2,0.1,0.2,0.4,0,0.6c-0.3,0.2-0.6,0.5-0.9,0.6c-0.3,0.1-0.5,0-0.7-0.3
		c0-0.1,0-0.2,0.1-0.3C29.9,182.5,30.2,182.2,30.8,182.2z"/>
	<path class="st1" d="M74,183c0,0.4-0.3,0.7-0.8,0.6c-0.6-0.1-0.7-0.1-0.7-0.7c-0.1-0.5,0.5-1,1-0.8C73.8,182.2,74,182.6,74,183z"/>
	<path class="st1" d="M45.9,166.8c0,0.1,0,0.3,0,0.4c-0.3,0.6-0.8,0.9-1.4,1.1c-0.3,0.1-0.5,0-0.6-0.3
		C44.3,167.2,45,166.7,45.9,166.8L45.9,166.8z"/>
	<path class="st1" d="M96.3,178c0.1,0.3,0,0.5-0.3,0.7c-0.4,0.2-0.9,0.1-1-0.2c-0.2-0.4-0.1-0.9,0.2-1c0.2-0.1,0.5-0.2,0.7-0.1
		C96,177.5,96.1,177.8,96.3,178z"/>
	<path class="st1" d="M67.6,127.6c0.1-0.5,0.4-0.8,1-0.8c0.5,0,0.9,0,1.4,0l-0.1-0.1c-0.1,0.4-0.3,0.6-0.7,0.7
		c-0.6,0.1-1.2,0.1-1.8,0.1L67.6,127.6z"/>
	<path class="st1" d="M31.1,130.1c0.5,1.1,0.5,1.1,0,2.1C30.7,131.1,30.7,131.1,31.1,130.1z"/>
	<path class="st1" d="M88,136.9c-0.4-0.3-0.4-0.8-0.4-1.3c0-0.2,0.2-0.3,0.4-0.5c0.1,0.1,0.2,0.2,0.2,0.3
		C88.3,136,88.4,136.5,88,136.9z"/>
	<path class="st1" d="M18.9,140.8c0.7-0.5,1.4-0.5,2,0C20.2,141.3,19.6,141.3,18.9,140.8z"/>
	<path class="st1" d="M91.7,153.4c0.2,0,0.5,0.1,0.6,0.3c0.1,0.2,0.1,0.5,0,0.7c-0.1,0.4-0.5,0.3-0.9-0.1c-0.2-0.2-0.3-0.4-0.4-0.6
		C91.3,153.6,91.5,153.4,91.7,153.4z"/>
	<path class="st1" d="M12.3,159.7c0-0.5,0-1.1,0.1-1.6c0.1-0.4,0.3-0.7,0.7-0.8l-0.1-0.1c0,0.6,0,1.2-0.1,1.8
		C12.9,159.4,12.6,159.6,12.3,159.7L12.3,159.7z"/>
	<path class="st1" d="M94.8,162.1c0.5,0.1,1,0.4,1.2,0.9c0,0.1,0.1,0.3,0,0.3c-0.1,0.1-0.2,0.1-0.3,0.1c-0.3,0.1-0.6,0-0.6-0.3
		c-0.1-0.4-0.1-0.8-0.1-1.1L94.8,162.1z"/>
	<path class="st1" d="M53.9,163.6c0,0.4-0.2,0.7-0.6,0.8c-0.6,0.1-1.2,0-1.8,0l0.1,0.1c0-0.4,0.2-0.7,0.6-0.8
		C52.8,163.7,53.4,163.7,53.9,163.6L53.9,163.6z"/>
	<path class="st1" d="M110.8,164.4c-0.1,0.2-0.3,0.5-0.4,0.5c-0.2,0-0.4-0.2-0.6-0.3c-0.1-0.1-0.1-0.2-0.2-0.3c0-0.1-0.1-0.3,0-0.3
		c0.1-0.3,0.4-0.3,0.7-0.3C110.8,163.8,111,164,110.8,164.4z"/>
	<path class="st1" d="M51.5,164.4c0,0.3-0.2,0.5-0.4,0.6c-0.6,0.3-1.3,0.3-2,0.2l0.1,0.1c0-0.4,0.2-0.7,0.6-0.8
		C50.4,164.4,51,164.5,51.5,164.4L51.5,164.4z"/>
	<path class="st1" d="M55.6,168.5c0.1-0.2,0.2-0.5,0.4-0.6c0.7-0.3,0.7-0.3,1.7,0.1c-0.7,0.5-1.4,0.2-2.2,0.3L55.6,168.5z"/>
	<path class="st1" d="M115.4,170.7c-0.2,0-0.5-0.1-0.5-0.4c0-0.2,0.1-0.5,0.2-0.7c0.2-0.3,0.9-0.3,1,0c0.1,0.2,0,0.5-0.1,0.6
		C115.8,170.4,115.6,170.5,115.4,170.7z"/>
	<path class="st1" d="M18.3,171.8c0.1,0.3-0.1,0.4-0.4,0.5c-0.6,0.1-0.9-0.2-0.8-0.9c0-0.3,0.2-0.4,0.4-0.4c0.1,0,0.3,0.1,0.3,0.1
		C18.1,171.4,18.2,171.6,18.3,171.8z"/>
	<path class="st1" d="M25,175.6c-0.1,0.2-0.1,0.5-0.2,0.6c-0.1,0.1-0.4,0.1-0.7,0.1c-0.4-0.1-0.3-0.5,0.1-0.9
		c0.1-0.1,0.4-0.1,0.6-0.1C24.9,175.3,24.9,175.5,25,175.6z"/>
	<path class="st1" d="M117.4,176.5c0.1,0,0.2,0.1,0.3,0.1c0.2,0.1,0.2,0.4-0.1,0.6c-0.2,0.2-0.4,0.3-0.6,0.4c-0.2,0.1-0.5,0-0.6-0.3
		c0-0.1,0-0.3,0-0.4C116.8,176.6,117,176.6,117.4,176.5z"/>
	<path class="st1" d="M91.6,182.7c-0.3,0-0.5-0.2-0.5-0.4c0-0.1,0.1-0.3,0.1-0.3c0.2-0.2,0.4-0.3,0.6-0.4c0.1-0.1,0.2-0.1,0.3,0
		c0.3,0.1,0.3,0.4,0.2,0.6C92.2,182.7,92,182.8,91.6,182.7z"/>
	<path class="st1" d="M34.5,186.5c-0.2,0.3-0.4,0.6-0.6,0.8c-0.1,0.1-0.3,0.2-0.3,0.1c-0.1-0.2-0.3-0.3-0.3-0.5
		c-0.1-0.6,0.3-0.9,0.9-0.8C34.3,186.2,34.3,186.3,34.5,186.5z"/>
	<path class="st1" d="M28,187.2c0.1,0.1,0.2,0.2,0.2,0.3c0.1,0.5,0,0.9-0.3,1c-0.3,0.1-1.1-0.1-1-0.3c0.1-0.2,0.2-0.5,0.4-0.7
		C27.5,187.3,27.7,187.3,28,187.2z"/>
	<path class="st1" d="M24.6,180.9c0,0,0.2,0,0.2,0.1c0,0.2,0,0.4,0,0.6c0,0.1-0.2,0.2-0.2,0.1c-0.1-0.1-0.2-0.2-0.2-0.3
		C24.3,181.2,24.4,181,24.6,180.9z"/>
	<path class="st1" d="M51.6,170.1c0.4-0.8,0.4-0.8,1.3-0.4c-0.4,0.3-0.9,0.2-1.4,0.3L51.6,170.1z"/>
	<path class="st1" d="M117.3,160.5c-0.1,0.3-0.3,0.4-0.5,0.3c-0.1,0-0.2-0.2-0.2-0.3c-0.1-0.3,0-0.5,0.2-0.6c0.1,0,0.2-0.1,0.3,0
		C117.3,160,117.4,160.2,117.3,160.5z"/>
	<path class="st1" d="M51.5,189.7c-0.1,0.1-0.2,0.2-0.2,0.2c-0.2-0.1-0.4-0.3-0.4-0.4c-0.1-0.3,0-0.5,0.3-0.7c0.1,0,0.2,0,0.3,0.1
		c0.1,0.1,0.1,0.2,0.2,0.3C51.6,189.4,51.5,189.5,51.5,189.7z"/>
	<path class="st1" d="M21.1,178.2c0.3,0,0.5,0.2,0.4,0.3c-0.1,0.2-0.4,0.2-0.6,0.3c-0.1,0-0.2-0.2-0.3-0.2
		C20.6,178.3,20.8,178.1,21.1,178.2z"/>
	<path class="st1" d="M55.5,168.4c-0.1,0.4-0.4,0.7-0.8,0.7c-0.3,0-0.5-0.1-0.6-0.3c0,0,0.2-0.2,0.3-0.2
		C54.8,168.5,55.2,168.5,55.5,168.4L55.5,168.4z"/>
	<path class="st1" d="M51.5,170c0,0.4-0.2,0.7-0.6,0.8c-0.3,0.1-0.7,0-1.1,0l0.1,0.1c0.1-0.5,0.4-0.8,0.9-0.8c0.2,0,0.5,0,0.7,0
		L51.5,170L51.5,170z"/>
	<path class="st1" d="M72.1,164.8c-0.2,0.1-0.4,0.2-0.6,0.3c-0.3,0-0.4-0.2-0.4-0.3c0-0.1,0.2-0.1,0.3-0.2c0.1,0,0.2,0,0.4,0
		C72,164.6,72,164.8,72.1,164.8z"/>
	<path class="st1" d="M47.5,166c0,0.4-0.2,0.7-0.6,0.7c-0.3,0.1-0.7,0-1.1,0l0.1,0.1c0-0.4,0.2-0.7,0.6-0.7
		C46.9,166.1,47.2,166.1,47.5,166L47.5,166z"/>
	<path class="st1" d="M61.9,169.3c0.4,0,0.7,0.2,0.8,0.6c0.1,0.3,0,0.5-0.3,0.6c0,0-0.2-0.1-0.2-0.2c-0.1-0.4-0.1-0.7-0.1-1.1
		L61.9,169.3z"/>
	<path class="st1" d="M64.1,166.5c-0.4,0.3-0.8,0.4-1.2,0C63.3,166.1,63.7,166,64.1,166.5z"/>
	<path class="st1" d="M49.1,165.2c0,0.4-0.2,0.7-0.5,0.8c-0.3,0.1-0.7,0-1,0.1l0,0c0-0.4,0.2-0.7,0.6-0.8
		C48.5,165.2,48.8,165.3,49.1,165.2L49.1,165.2z"/>
	<path class="st1" d="M13.8,155.6c0,0.3,0,0.7-0.1,1c-0.1,0.3-0.4,0.5-0.7,0.6l0.1,0.1c0-0.4,0-0.7,0.1-1.1s0.4-0.6,0.7-0.5
		L13.8,155.6z"/>
	<path class="st1" d="M13.9,155.7c0-0.2-0.1-0.5,0-0.7c0-0.5,0.3-0.9,0.8-0.9l-0.1-0.1c0,0.2,0.1,0.5,0,0.7c0,0.5-0.3,0.9-0.9,0.9
		L13.9,155.7z"/>
	<path class="st1" d="M11.5,148.5c0.2-0.9,0.9-0.9,1.6-0.8l-0.1-0.1c0,0.4-0.2,0.7-0.6,0.8c-0.3,0.1-0.7,0-1.1,0L11.5,148.5z"/>
	<path class="st1" d="M15.4,146c0,0.4-0.2,0.7-0.6,0.7c-0.3,0.1-0.7,0-1.1,0.1l0.1,0.1c0.1-0.5,0.4-0.7,0.9-0.8c0.2,0,0.4,0,0.7,0
		L15.4,146L15.4,146z"/>
	<path class="st1" d="M88.8,141.5c0.1,0,0.2,0.1,0.2,0.1c0,0.2,0,0.4,0,0.7c0,0.1-0.1,0.1-0.2,0.2c-0.1-0.1-0.2-0.2-0.2-0.3
		C88.7,142,88.7,141.8,88.8,141.5z"/>
	<path class="st1" d="M41.6,137.5c0,0.1,0,0.3,0,0.3c-0.2,0.1-0.4,0.1-0.7,0.1c-0.1,0-0.2-0.2-0.3-0.3c0.2-0.1,0.4-0.2,0.7-0.3
		C41.3,137.3,41.5,137.5,41.6,137.5z"/>
	<path class="st1" d="M16,136.7c0,0.1-0.1,0.2-0.1,0.2c-0.2,0-0.5,0-0.7,0c-0.1,0-0.1-0.1-0.2-0.2c0.1-0.1,0.2-0.2,0.3-0.2
		C15.5,136.6,15.7,136.7,16,136.7z"/>
	<path class="st1" d="M28.8,134.3v0.2c-0.2,0-0.5,0.1-0.7,0.1c-0.1,0-0.3-0.1-0.3-0.2C27.7,134.1,28.5,134.1,28.8,134.3z"/>
	<path class="st1" d="M21.7,187.7c0.1,0,0.3,0,0.4,0c0.1,0,0.2,0.1,0.3,0.2c0.1,0.2-0.3,0.5-0.7,0.5c-0.1,0-0.2-0.2-0.2-0.3
		C21.3,188,21.4,187.8,21.7,187.7z"/>
	<path class="st1" d="M87.1,132h0.2c0,0.2,0.1,0.4,0.1,0.7c0,0.1-0.1,0.3-0.2,0.3C87,133,86.9,132.2,87.1,132z"/>
	<path class="st1" d="M66,128.4c0-0.4,0.2-0.6,0.6-0.7c0.3-0.1,0.7-0.1,1-0.1l-0.1-0.1c0,0.4-0.2,0.7-0.6,0.7
		c-0.3,0.1-0.7,0.1-1,0.1L66,128.4z"/>
	<path class="st1" d="M67.6,187.7c-0.1,0.2-0.2,0.4-0.4,0.6c-0.1-0.2-0.3-0.4-0.3-0.6s0.2-0.4,0.3-0.6
		C67.4,187.3,67.5,187.5,67.6,187.7z"/>
	<path class="st1" d="M12.7,187.3c-0.1,0-0.2-0.1-0.3-0.2c-0.1-0.3-0.1-0.5,0.1-0.7c0.1-0.1,0.2-0.1,0.3-0.1
		c0.3,0.1,0.3,0.4,0.2,0.7C12.9,187.1,12.8,187.3,12.7,187.3z"/>
	<path class="st1" d="M65.7,184.1c-0.2,0.1-0.4,0.3-0.6,0.3c-0.2,0-0.4-0.2-0.6-0.3c0.2-0.1,0.4-0.3,0.6-0.3
		C65.3,183.7,65.5,183.9,65.7,184.1z"/>
	<path class="st1" d="M94.9,162c-0.2-0.1-0.4-0.2-0.6-0.3c0.1-0.1,0.1-0.1,0.2-0.2c0.1,0.2,0.2,0.4,0.3,0.6L94.9,162z"/>
	<path class="st1" d="M26.7,150.1c0.3,0.1,0.6,0,0.6,0.5h-0.2c-0.1-0.2-0.2-0.4-0.2-0.6L26.7,150.1z"/>
	<path class="st1" d="M10.6,149.2c0,0.8,0,0.8-0.8,0.8l0.1,0.1C10,149.4,10,149.4,10.6,149.2L10.6,149.2z"/>
	<path class="st1" d="M11.4,148.4c-0.1,0.7-0.1,0.7-0.8,0.8l0.1,0.1C10.7,148.8,11,148.5,11.4,148.4L11.4,148.4z"/>
	<path class="st1" d="M79.5,146.9c0.2,0.1,0.4,0.2,0.6,0.3c-0.1,0.1-0.1,0.1-0.2,0.2c-0.1-0.2-0.2-0.4-0.3-0.6L79.5,146.9z"/>
	<path class="st1" d="M13.8,146.7c-0.1,0.7-0.1,0.7-0.8,0.8l0.1,0.1c0.1-0.6,0.1-0.6,0.8-0.8L13.8,146.7z"/>
	<polygon class="st1" points="89.6,145.8 89.5,145.5 89.7,145.6 	"/>
	<polygon class="st1" points="12.7,142.5 12.6,142.3 12.9,142.3 	"/>
	<path class="st1" d="M14.3,141.4c0.1,0.1,0.2,0.1,0.3,0.2c-0.1,0.1-0.2,0.2-0.3,0.2C13.9,141.7,13.9,141.5,14.3,141.4z"/>
	<polygon class="st1" points="41.7,140 41.4,140.1 41.5,139.8 	"/>
	<polygon class="st1" points="23.9,139.9 24,140.1 23.7,140 	"/>
	<polygon class="st1" points="19.1,135.9 19.2,136.1 18.9,136 	"/>
	<path class="st1" d="M46.6,132.8c-0.1,0.1-0.2,0.2-0.3,0.2c-0.1,0-0.3-0.2-0.3-0.2C46.2,132.5,46.5,132.5,46.6,132.8z"/>
	<path class="st1" d="M49.9,170.8c0.1,0.3,0.1,0.5-0.2,0.6c-0.2,0.1-0.4-0.1-0.3-0.2c0.1-0.2,0.4-0.2,0.6-0.3L49.9,170.8z"/>
	<path class="st1" d="M66.3,106.1c1.3,0.8,2.6,0.9,4.1,0.2c1-0.5,1.8-1.2,2.7-1.7c0.3-0.2,0.5-0.1,0.7,0.2c0,0.1,0,0.3-0.1,0.3
		c-0.6,0.7-1.3,1.3-2.2,1.7c-0.9,0.5-1.9,1-2.9,1.4c-0.6,0.3-1.3,0.1-1.8-0.4c-0.3-0.3-0.5-0.6-0.7-0.9
		C65.9,106.5,66,106.3,66.3,106.1z"/>
	<path class="st1" d="M14.7,109.9c0,0.4-0.2,0.8-0.6,0.8c-0.6,0-1.3,0-2-0.1c-1.1-0.9-2.3-1.8-3.4-2.7c-0.1-0.1-0.1-0.2-0.2-0.3
		c0-0.1,0-0.3,0-0.4s0.2-0.2,0.3-0.2c0.6,0.3,1.2,0.5,1.8,0.9c0.8,0.5,1.6,1,2.3,1.5C13.4,109.9,14.1,109.8,14.7,109.9L14.7,109.9z"
		/>
	<path class="st1" d="M8.2,117.2c-1.5-1.2-1.6-1.3-1.1-3.1c0.3,0.5,0.5,1,0.8,1.3c0.2,0.3,0.6,0.6,0.9,0.7c1.5,0.3,3.1,0.5,4.6-0.2
		c0.2-0.1,0.4,0.2,0.3,0.5c0,0.1-0.1,0.2-0.1,0.3c-0.1,0.1-0.2,0.2-0.3,0.2C11.5,117.1,9.8,117.1,8.2,117.2z"/>
	<path class="st1" d="M78,112.3c-0.2,0.5,0.3,0,0,0.4c-0.5,0.5-1.1,0.6-1.7,0.9c-1.2,0.6-2,0.4-2.8-0.6c-0.3-0.3-0.5-0.7-0.7-1
		c0.1-0.4,0.3-0.7,0.4-1.1c0.1-0.3,0.2-0.6,0.4-0.6c0.1,0,0.3,0.3,0.4,0.5c0.1,0.2,0.1,0.5,0.1,0.8c0.1,0.4,0.4,0.7,0.8,0.7
		C75.9,112.3,77,112.4,78,112.3L78,112.3z"/>
	<path class="st1" d="M60.3,99.6c1.5,0,2.9,0,4.4,0c0.5,0,1-0.2,1.5-0.5c0.2-0.2,0.4,0,0.5,0.3c0,0.1,0,0.3-0.1,0.4
		c-0.1,0.1-0.2,0.2-0.3,0.3c-1,0.4-2,0.7-3,1.1c-0.8-0.3-1.7-0.6-2.5-1C60.5,100.1,60.5,99.7,60.3,99.6L60.3,99.6z"/>
	<path class="st1" d="M15.9,118.5c-0.4-0.8-0.7-1.3-1-1.9c-0.1-0.3-0.1-0.5,0.2-0.7c0.1,0,0.2,0,0.3,0.1c0.3,0.3,0.7,0.5,0.8,0.8
		c0.2,0.7,0.5,1.1,1.2,1.4s1.4,0.7,2.2,0.7c0.1,0,0.2,0.1,0.3,0.2c-0.2,0.1-0.3,0.3-0.5,0.3C17.9,119.5,17.9,119.5,15.9,118.5z"/>
	<path class="st1" d="M81.9,107.5c-0.1,0.2-0.1,0.6-0.3,0.7c-2.1,0.9-4.3-0.7-4.3-3.1c0-0.1,0.1-0.3,0.2-0.3c0.1-0.1,0.2-0.1,0.3,0
		c0.2,0.1,0.5,0.3,0.6,0.5c0.3,0.4,0.5,1,0.8,1.4c0.4,0.6,0.9,0.9,1.7,0.9c0.4,0,0.8,0,1.2,0L81.9,107.5z"/>
	<path class="st1" d="M83.6,98.7c0,0.3-0.1,0.5-0.4,0.6c-0.5,0.2-1,0.2-1.5,0.1c-0.6-0.2-1.2-0.5-1.8-0.8c-0.3-0.8-0.5-1.5-0.8-2.2
		c-0.1-0.3-0.2-0.5,0.1-0.6c0.2-0.1,0.6,0,0.7,0.1c0.3,0.4,0.5,0.9,0.8,1.3c0.7,1,1.6,1.7,2.9,1.7V98.7z"/>
	<path class="st1" d="M67.2,112c-1,0.6-2,1.3-3.3,1.3c-0.4,0-0.8-0.1-1.2-0.2c-0.7-0.2-1-1.4-0.6-2c0-0.1,0.2-0.1,0.3-0.1
		c0.3,0.2,0.6,0.5,0.9,0.8c0.4,0.4,0.9,0.6,1.4,0.4c0.6-0.2,1.2-0.6,1.9-0.5C66.8,111.7,67,111.9,67.2,112z"/>
	<path class="st1" d="M17.9,112.4c0.2,0.1,0.5,0.1,0.7,0.2c0.8,0.6,1.7,0.7,2.6,0.7c0.8,0,1.6-0.1,2.4-0.1l-0.1-0.1
		c-0.1,0.2-0.1,0.6-0.3,0.6c-1,0.3-2,0.6-3,0.9c-0.5-0.2-1-0.5-1.4-0.7c-0.7-0.3-0.9-0.9-0.8-1.6L17.9,112.4z"/>
	<path class="st1" d="M49.1,108.3c-0.1,0.2-0.1,0.5-0.3,0.6c-0.4,0.3-0.9,0.4-1.5,0.7c-1.4-0.5-2.8-1-3.5-2.5
		c0.2-0.2,0.5-0.3,0.7-0.2c0.7,0.4,1.3,0.8,2,1.3C47.4,108.3,48.3,108.3,49.1,108.3L49.1,108.3z"/>
	<path class="st1" d="M56.6,108c0.7-0.6,1.4-0.4,2.1,0c0.6,0.4,1.2,0.3,1.8,0c0.2-0.1,0.5-0.2,0.7-0.2c0.1,0,0.2,0.1,0.3,0.2
		c0,0.1,0,0.2,0,0.3c-0.3,0.4-0.6,0.9-1.2,0.9c-0.8,0.1-1.6,0.1-2.3,0S56.9,108.6,56.6,108z"/>
	<path class="st1" d="M87.1,110.3c0.1-0.1,0.2-0.3,0.3-0.3c1.3-0.1,2.5,0,3.8,0c0.1,0,0.2,0.1,0.3,0.2c0,0-0.1,0.2-0.2,0.3
		c-0.7,0.3-1.4,0.7-2.1,0.9c-0.5,0.2-1.1,0.1-1.5-0.2C87.4,111,87.2,110.6,87.1,110.3z"/>
	<path class="st1" d="M74.8,99.1c-1.2,0.3-1.6,0.4-1.9,0.4c-1.2-0.1-2.2-0.7-3.1-1.4c-0.4-0.3-0.4-0.7-0.1-1.4
		C71,97.5,72.2,98.7,74.8,99.1z"/>
	<path class="st1" d="M60.4,99.5c-0.1,0-0.3,0-0.4-0.1c-0.6-0.7-1.2-1.3-1.8-2c-0.2-0.2,0-0.9,0.3-0.9c0.2,0,0.6,0,0.7,0.2
		C59.8,97.6,60.5,98.4,60.4,99.5L60.4,99.5z"/>
	<path class="st1" d="M20.3,106c1.6-0.1,3.3-0.3,4.9,0l-0.1-0.1c-0.1,0.2-0.1,0.5-0.3,0.6c-0.3,0.2-0.7,0.3-1.1,0.3
		c-0.9,0-1.8,0-2.7-0.1C20.6,106.6,20.4,106.3,20.3,106L20.3,106z"/>
	<path class="st1" d="M42.1,114.8c-0.9-0.1-1.8-0.2-2.4-1.1c0-0.1,0-0.2,0-0.3c0.1-0.1,0.2-0.2,0.3-0.2c1,0.2,1.9,0.9,3,0.9
		c0.1,0,0.2,0.2,0.3,0.3c-0.2,0.2-0.3,0.4-0.5,0.5C42.6,114.9,42.3,114.8,42.1,114.8z"/>
	<path class="st1" d="M37.1,109.9c-0.1,0.2-0.2,0.6-0.4,0.6c-1.3,0.4-2.6,0.3-3.9,0c-0.3-0.1-0.4-0.3-0.4-0.6l-0.1,0.1
		C33.9,110,35.6,110,37.1,109.9L37.1,109.9z"/>
	<path class="st1" d="M51.5,112.4c0.8,0,1.3,0.8,2.1,0.7c0.6-0.1,1.3,0.1,1.9,0.1l-0.1-0.1c-0.1,0.2-0.2,0.5-0.4,0.6
		c-0.9,0.4-1.8,0.3-2.7,0.2c-0.4-0.1-0.7-0.3-0.8-0.8C51.6,112.9,51.6,112.6,51.5,112.4L51.5,112.4z"/>
	<path class="st1" d="M30.7,99.5c1.1,0.5,1.9,1.4,2.5,2.5c-0.1,0-0.2-0.1-0.3-0.1C31.2,101.5,30.9,101.2,30.7,99.5z"/>
	<path class="st1" d="M29.9,96.2c0.4,0.2,0.7,0.4,0.7,0.8c0.1,0.9,0.2,1.7,0.2,2.6c-0.4-0.1-0.7-0.3-0.8-0.7
		C29.9,98,29.9,97.1,29.9,96.2z"/>
	<path class="st1" d="M27.9,116.9c-0.5-0.2-0.9-0.3-1.4-0.6c-0.3-0.1-0.4-0.3-0.3-0.5c0.2-0.3,0.4-0.3,0.7-0.2
		c0.4,0.1,0.7,0.2,1.1,0.3C28.3,116,28.3,116.4,27.9,116.9z"/>
	<path class="st1" d="M83.7,98.8c0.1-0.2,0.2-0.5,0.4-0.6c0.4-0.3,1-0.3,1.5-0.3c0.1,0,0.2,0.1,0.3,0.3c0.1,0.2,0,0.4-0.3,0.5
		C85,98.8,84.3,98.7,83.7,98.8L83.7,98.8z"/>
	<path class="st1" d="M32.4,109.9c-0.2-0.1-0.5-0.1-0.6-0.3c-0.3-0.6-0.3-1.2,0.2-1.7c0.6,0.6,0.4,1.4,0.3,2.2L32.4,109.9z"/>
	<path class="st1" d="M23.5,113.2c0-0.6,0.5-0.8,0.8-1.1c0.3-0.2,0.5-0.3,0.6,0c0.1,0.2,0,0.5-0.1,0.7
		C24.5,113.2,24,113.2,23.5,113.2L23.5,113.2z"/>
	<path class="st1" d="M78,112.4c0-0.3,0.2-0.5,0.4-0.6c0.4-0.1,0.8-0.1,1.2-0.1c0.1,0,0.3,0.1,0.3,0.2c0.1,0.2-0.1,0.3-0.4,0.4
		C79,112.3,78.5,112.3,78,112.4L78,112.4z"/>
	<path class="st1" d="M55.6,113.2c0-0.1,0-0.3,0.1-0.4c0.6-0.6,1.3-0.7,1.9-0.1c-0.7,0.6-1.4,0.3-2.2,0.3L55.6,113.2z"/>
	<path class="st1" d="M30.7,116.3c0,0.5-0.3,0.7-0.7,0.7c-0.2,0-0.4-0.2-0.6-0.3c0.2-0.2,0.4-0.3,0.7-0.3c0.3,0,0.5,0,0.8,0
		L30.7,116.3z"/>
	<path class="st1" d="M30.8,116.4c0-0.4,0.2-0.7,0.6-0.7c0.3-0.1,0.7,0,1-0.1l-0.1-0.1c0,0.4-0.2,0.7-0.6,0.7c-0.3,0.1-0.7,0-1,0
		L30.8,116.4z"/>
	<path class="st1" d="M51.6,112.3c-0.2-0.1-0.5-0.2-0.6-0.3c-0.1-0.2-0.1-0.5-0.1-0.7c0-0.1,0.1-0.2,0.2-0.3
		c0.1,0.2,0.3,0.4,0.4,0.6C51.6,111.9,51.5,112.1,51.6,112.3L51.6,112.3z"/>
	<path class="st1" d="M37.2,110c0-0.4,0.2-0.7,0.6-0.7c0.3-0.1,0.7,0,1-0.1l-0.1-0.1c-0.1,0.5-0.4,0.7-0.8,0.7
		C37.6,109.8,37.4,109.8,37.2,110L37.2,110z"/>
	<path class="st1" d="M83.5,106.7c-0.1,0.5-0.4,0.7-0.8,0.7c-0.3,0-0.5,0.1-0.8,0.1l0.1,0.1c0.1-0.4,0.3-0.6,0.6-0.7
		C82.9,106.8,83.3,106.8,83.5,106.7L83.5,106.7z"/>
	<path class="st1" d="M25.1,106c0-0.4,0.2-0.7,0.6-0.7c0.3-0.1,0.7,0,1,0l-0.1-0.1C26.4,105.9,25.8,106,25.1,106L25.1,106z"/>
	<path class="st1" d="M76.5,98.1c0.3,0,0.5,0.2,0.4,0.3c-0.2,0.2-0.5,0.2-0.7,0.2c-0.1,0-0.2-0.2-0.3-0.3c0,0,0.1-0.2,0.2-0.2
		C76.2,98.1,76.3,98.1,76.5,98.1z"/>
	<path class="st1" d="M32.4,115.6c-0.1-0.3,0-0.5,0.3-0.6c0.2-0.1,0.3,0,0.2,0.2c-0.1,0.2-0.3,0.3-0.6,0.3L32.4,115.6z"/>
	<path class="st1" d="M18,112.3c-0.2-0.1-0.4-0.2-0.6-0.2c0.1-0.1,0.1-0.1,0.2-0.2c0.1,0.2,0.2,0.4,0.3,0.6L18,112.3z"/>
	<path class="st1" d="M69,111.2c-0.1,0.1-0.2,0.2-0.3,0.2c-0.4-0.1-0.3-0.3,0-0.4C68.8,111,68.9,111.1,69,111.2z"/>
	<path class="st1" d="M14.7,110c0-0.3,0-0.5,0.3-0.6c0.1,0,0.2,0,0.3,0.1C15.4,109.7,15.3,109.8,14.7,110L14.7,110z"/>
	<path class="st1" d="M38.8,109.2c-0.1-0.3,0-0.5,0.3-0.6c0.3-0.1,0.4,0,0.2,0.2C39.2,109,38.9,109,38.8,109.2L38.8,109.2z"/>
	<path class="st1" d="M49.2,108.4c-0.1-0.3,0-0.5,0.3-0.6c0.1,0,0.3,0.2,0.3,0.2C49.7,108.3,49.4,108.4,49.2,108.4L49.2,108.4z"/>
	<path class="st1" d="M84.4,105.9c-0.1,0.6-0.1,0.6-0.8,0.8l0.1,0.1C83.8,106.3,84,106,84.4,105.9L84.4,105.9z"/>
	<path class="st1" d="M84.5,106c0.1-0.2,0.2-0.5,0.4-0.6c0.3-0.2,0.4,0,0.2,0.2C85,105.8,84.7,105.8,84.5,106L84.5,106z"/>
	<path class="st1" d="M20.3,105.9c-0.3,0-0.5,0-0.6-0.3c0-0.1,0-0.2,0.1-0.3C20,105.2,20.1,105.4,20.3,105.9L20.3,105.9z"/>
	<polygon class="st1" points="86.2,104.7 86.5,104.6 86.5,104.9 	"/>
	<path class="st1" d="M27.5,104.3c0,0.5-0.3,0.8-0.8,0.8l0.1,0.1c0.1-0.7,0.1-0.7,0.8-0.8L27.5,104.3z"/>
	<path class="st1" d="M27.6,104.4c-0.1-0.3,0-0.5,0.2-0.6c0.2-0.1,0.4,0.1,0.3,0.2c-0.1,0.1-0.4,0.2-0.6,0.3L27.6,104.4z"/>
	<path class="st1" d="M47.6,84.3c-0.1-0.7-0.1-1.3-0.3-2c0-0.2-0.4-0.3-0.6-0.5c-0.1-0.1-0.3-0.1-0.4-0.1c-1.7-0.2-3.1,0.7-4.6,1.1
		c-0.2,0-0.4,0.4-0.4,0.6c-0.1,0.6-0.5,0.9-0.9,1.3c-0.5,0.4-1,0.9-1.4,1.2c-0.6,1.3,0,2.6-0.9,3.6C38,90,38,90.6,37.9,91.1
		c0,0.6,0.2,1,0.8,1.2c1.6,0.6,3.2,1.2,4.9,1.7c0.4,0.1,0.7,0.3,1.1,0.5c0.3-0.2,0.7-0.3,1-0.5c0.4-0.2,0.7,0.1,0.8,0.6
		c0.1,0.3,0,0.6-0.3,0.7c-0.4,0.1-0.8,0.1-1.2,0.1c-1.1,0.1-2-0.6-3.1-0.6c-1.1,0-2.1-0.1-3.2-0.2c-0.1,0-0.3-0.1-0.4-0.1
		c-0.9-0.4-1.5-1.5-2.5-1.5c0.8-2.8,0.2-5.5,0.6-8.3c0.3-0.3,0.7-0.7,1.1-1c1.7-1,3.6-1.6,5.5-2.2c0.7-0.2,1.6-0.3,2.4-0.3
		s1.6,0,2.3-0.4c0.3-0.2,1.1,0.6,1,0.9c-0.2,0.8-0.5,1.5-0.7,2.3C48,84.1,47.8,84.3,47.6,84.3L47.6,84.3z"/>
	<path class="st1" d="M46.7,87.5c0.1,1.5,0,2.9-0.2,4.3c-0.2,0.3-0.4,0.2-0.5-0.2c-0.1-1.2-0.2-2.4,0.2-3.6
		C46.3,87.8,46.6,87.7,46.7,87.5L46.7,87.5z"/>
	<path class="st1" d="M47.5,84.3c0,0.9,0,1.7-0.1,2.6c0,0.4-0.4,0.6-0.8,0.6l0.1,0.1c0-0.9,0-1.7,0.1-2.6
		C46.9,84.6,47.2,84.4,47.5,84.3L47.5,84.3z"/>
	<path class="st1" d="M66.8,139.7c0-0.1,0-0.3,0.1-0.4c0.9-0.6,1.8-0.7,2.8-0.1C68.7,139.8,67.7,139.6,66.8,139.7L66.8,139.7z"/>
</g>
</svg>
