<?xml version="1.0" encoding="utf-8"?>
<!-- Generator: Adobe Illustrator 16.0.0, SVG Export Plug-In . SVG Version: 6.00 Build 0)  -->
<!DOCTYPE svg PUBLIC "-//W3C//DTD SVG 1.1//EN" "http://www.w3.org/Graphics/SVG/1.1/DTD/svg11.dtd">
<svg version="1.1" id="Layer_1" xmlns="http://www.w3.org/2000/svg" xmlns:xlink="http://www.w3.org/1999/xlink" x="0px" y="0px"
	 width="127.2px" height="102.8px" viewBox="0 0 127.2 102.8" style="enable-background:new 0 0 127.2 102.8;" xml:space="preserve"
	>
<style type="text/css">
<![CDATA[
	.st0{fill:#010101;}
]]>
</style>
<g id="kanban_2_">
	<path class="st0" d="M85,55.4c1.3,0,2.6,0.2,3.9,0.8c1.1,0.5,2.1,1,3.4,1c0.8,0,1.6,0.4,2.2,0.8c1.1,0.7,2.3,1.2,3.6,1.6
		c1,0.3,1.9,0.9,3,1.4c0.9,0,1.8-0.1,2.7-0.1c1.1-0.7,2.6-0.7,3.6-1.7c0.9-0.8,2.1-1.2,3.1-1.6c-0.1-0.3-0.1-0.6-0.3-0.8
		c-0.2-0.4-0.3-0.8,0-1.1c1.1-1.2,1.6-2.7,2.1-4.2c0.1-0.4,0.3-0.7,0.5-1.1c0.4-0.6,0.9-1.1,1.6-1.2c1.6-0.3,3.2-0.4,4.7,0.2
		c0.6,0.3,1.2,0.4,1.9,0.5c1.5,0.1,2.8,0.8,3.8,2c0.1,0.2,0.1,0.6,0,0.7c-0.1,0.2-0.5,0.3-0.7,0.3s-0.5-0.1-0.7-0.2
		c-0.2-0.1-0.4-0.3-0.7-0.5c-0.3-0.2-0.4-0.3-0.8-0.6c-1.2-0.2-2.5-0.3-4-0.6c-1,0.6-2.1,1.3-3.2,2.1c-0.6,0.4-0.9,1-1,1.7
		c-0.1,0.9-0.1,1.9-0.2,2.8c-0.1,1.1-0.6,2-1.5,2.7c-0.5,0.4-1.1,0.8-1.5,1.3c-1,1-2.5,1.5-3.6,2.5c-0.3,0.2-0.8,0.2-1.1,0.3
		c-1.5,0.6-3.2,0.6-4.8,2c-0.3,0.4-0.8,1.2-1.5,1.8c-1,1-1.5,2.2-2,3.4c-0.2,0.5-0.3,1-0.6,1.5c-0.3,0.7-0.5,1.5-0.4,2.3
		c0,0.9,0.1,1.9,0.1,2.8c0,0.9,0.2,1.8,0.6,2.7c0.2,0.5,0.3,1.1-0.1,1.5c-0.8,1-0.7,2,0,2.9c0,0-0.1,0.2-0.1,0.3
		c-0.1,0.1-0.2,0.1-0.3,0.1c-0.1,0-0.3,0-0.4-0.1c-0.4-0.8-1.2-3.1-1.2-3.7c-0.1-1.1-0.1-2.1-0.2-3.5c-0.2-0.5-0.6-1.2-0.9-1.9
		c-0.5-1-1.1-1.8-2.1-2.3c-0.3-0.2-0.6-0.6-0.9-0.8c-0.6-0.4-1.3-0.5-1.9-0.2c-0.7,0.4-1.3,0.9-1.9,1.3c-0.3,0.9-0.6,1.6-1,2.4
		c0,1.9,0,3.9,0,5.9c1,1,1.5,2.2,1.9,3.5c-0.7,0.4-1.1,0.4-1.3,0c-0.7-1.1-1.4-2.3-2.2-3.3c-0.4-3.1,0-6.1-0.2-9.1
		c-0.5-1-1.2-1.5-2.2-1.6c-0.8-0.1-1.6-0.2-2.4-0.3c-0.2,0-0.5-0.1-0.7,0c-1.4,0.6-2.9,0.4-4.3,0.4c-0.8,0-1.6,0.1-2.3,0.4
		C72,73,71.5,73,70.9,73c-2,0-4,0.1-5.6,0.1c-1.3,0.4-1.6,1.4-2.6,1.7c-0.7,0.2-1.4,0.7-2.1,1.1c-0.5,0.5-0.9,1.1-1,1.8
		c-0.1,0.5,0,1.1-0.2,1.6C59,80.2,58.9,81.1,59,82c0.1,1.6,0,3.2-0.1,4.7c0.3,0.5,0.5,0.9,0.7,1.3c-0.2,0.2-0.4,0.5-0.6,0.6
		c-0.4,0.4-1,0.3-1.3-0.2c-0.1-0.2-0.3-0.4-0.4-0.7c-0.2-0.5-0.4-1-0.7-1.6c-0.1-1.4-0.1-2.8-0.7-4.2c-0.2-0.5,0-1,0.2-1.5
		c0.4-0.9,0.5-1.8,0-2.7c-0.4-0.7,0-1.3,0.1-1.9c-0.4-0.9-1.2-1.4-2.1-1.8c-0.5-0.2-1-0.2-1.6,0.1c-1.6,0.7-2.4,2.1-2.9,3.7
		c-0.1,0.2-0.2,0.5-0.1,0.7c0.5,1.1,0.3,2.4,0.4,3.6c0.1,1.1,0,2.1,0,3.1c-0.9,1-0.7,2.3-1,3.5c0,0.1-0.2,0.2-0.2,0.2
		c-0.1,0-0.3-0.1-0.4-0.1c-0.4-0.3-0.8-0.8-0.8-1.3c0-0.9,0-1.9,0-2.8c0-1.5,0-2.9-0.8-4.3c-0.1-0.8-0.3-1.6-1.2-1.9
		c-0.1,0-0.2-0.2-0.3-0.3c-0.4-0.7-0.3-1.6-1-2.1c-0.5-0.4-0.7-1.1-1-1.7c-0.3-0.6-0.8-1.1-1.5-1.3c-1.8-0.4-3.5-1.2-5.2-2
		c-0.8-0.3-1.5-0.5-2.3-0.5c-1.2-0.1-2.4-0.1-3.6-0.2c-1.8-0.9-3.6-0.6-5.5-0.6c-1.2,0-2.4,0.1-3.6,0.2c-0.4,0-0.8,0.1-1.2,0.2
		c-0.9,0.4-1.8,0.4-2.8,0.4c-2.5,0-5.1,0.1-7.6,0c-1.1,0-2.1,0.2-3.1,0.6c-1.1,0.5-2.4,0.3-3.5-0.1c-0.6-0.3-1.3-0.4-1.9-0.6
		c-1-0.4-1.5-1-1.4-2.1c0-0.4,0-0.8,0-1.1c0.6-1.3,1.8-1.7,2.9-2.1C3.4,65,4,65,4.5,65.2c0.9,0.5,1.9,1,2.6,1.4
		C8.3,66.8,9,66,9.9,65.7c1.1-0.3,2-1.2,3.2-1.5s2.1-1.1,3.3-1.5c1.1-0.4,2.2-1,3.2-1.6c2.5-1.5,5.1-2.9,7.5-4.5
		c0.3-0.2,0.5-0.6,0.7-0.9c-0.1-0.3-0.2-0.6-0.3-0.9c0.8-1.3,2-2.4,3.3-3.3c0.6-0.4,1.4-0.8,2.2-0.9c1.7-0.3,3.4-0.5,5.1,0.5
		c0.5,0.3,1-0.2,1.1-0.8c0.3-1-0.1-2.2,0.5-3.1c0.5-0.8,0.2-1.8,0.8-2.7c0.3-0.4,0.3-1,0.4-1.5c0.1-0.9,0.1-1.9,0.2-2.8
		c0-0.4,0.3-0.7,0.7-0.9c0.4-0.2,0.8-0.1,1.1,0.2c-0.1,0.9-0.3,1.8-0.3,2.7c0,0.9,0,1.9,0,2.8c0,0.9,0,1.9,0,3
		c0.3,0.7,0.7,1.5,1.1,2.3c0.4,0.8,1.2,1.2,2,0.8c1-0.5,2-0.7,3-0.1c0.3,0.2,0.9-0.3,0.9-0.6c0-0.4,0-0.8,0-1.2c0-1.1,0-2.1,0.1-3.2
		c0.1-1.1,0.2-2.1,0.5-3.1c0.3-1.1,0.3-2.4,0.5-3.6c0-0.2,0.2-0.5,0.4-0.7c0.2-0.1,0.6-0.2,0.7-0.1c0.7,0.8,1.2,1.8,1,2.9
		c-0.1,0.4-0.2,0.8-0.3,1.1c-0.1,0.7-0.1,1.3-0.2,1.8c0.3,1.7,1.3,2.8,1.6,4.3c0.1,0.5,0.5,0.9,0.8,1.4c0.4,0.6,0.6,1.2,0.6,1.9
		c0,0.8,0.6,1.1,1.1,1.3c0.9-0.2,1.6-0.4,2.4-0.5c2,0,4,0,6,0c0.4,0,0.8,0,1.2,0.1c1.7,0.7,3.4,0.6,5.1,0.5c1.3,0,2.7,0,4,0
		c4.3,0,4.3,0,8.7,1.1c0.2,0,0.3,0.4,0.5,0.6c-0.7-0.1-1.5-0.2-2.2,0.4c0.4,0.1,0.7,0.3,1.1,0.3C84.6,56.3,84.9,56,85,55.4z
		 M57.6,58.4c-0.4,1.7-1.4,3.1-2.6,4.3c-1.3,1.3-2.7,2.6-4.1,3.8c-1,0.9-2.1,1.6-3.2,2.3c-0.7,0.1-1.3,0.2-2,0.3
		c-0.5,0.7-1,1.3-1.5,1.9c0.1,1.4,1.2,2,2.1,2.8c0.4-0.1,0.8,0,1.1-0.2c1.6-1.2,3.4-2,5.2-3c0.6-0.3,1.1-0.7,1.6-1.1
		c1.5-1.3,1.6-1.4,3.3-3.9c0.3-0.4,0.7-0.8,0.9-1.3c0.3-0.5,0.6-0.8,1.1-1.1c0.2-0.1,0.4-0.4,0.4-0.6c0.1-1.6,0.9-3,1.5-4.5
		c0.1-0.3,0-0.8-0.3-1.1c-0.3-0.2-0.8-0.4-0.9-0.7c-0.4-0.9-1.2-1-2-0.9C56.9,56.7,56.9,56.8,57.6,58.4z M46,59.2
		c1-1.3,1.7-2.9,2.7-4.3c0.3-0.4-0.3-1.1-0.8-1.1c-1-0.1-1.8-0.1-2.3,1c-0.3,0.6-0.8,0.6-1.3,0.2c-0.1-0.1-0.2-0.1-0.3-0.2
		c-0.5-0.4-1-0.4-1.5-0.2c-1,0.5-1.7,1.2-2.3,2.2c0,0.1-0.1,0.3,0,0.4c0,1.3,0.7,2.1,1.8,2.1C43.3,59.4,44.6,59.6,46,59.2z
		 M37.4,56.6c1.3-0.5,1.9-1.7,3-2.1c0.3-0.1,0.3-0.4,0.4-0.6c0-0.4-0.2-0.7-0.7-0.8c-0.6-0.2-1.3-0.3-1.9-0.5
		c-0.2,0.2-0.3,0.4-0.5,0.6c-0.2,0.3-0.5,0.7-0.9,0.6c-0.4,0-0.7-0.2-1.1-0.3c0.1-0.2,0.1-0.3,0.1-0.5c0.1-0.5-0.1-0.9-0.4-0.9
		c-1.1,0-2.1-0.1-3.3,0.3c-0.5,0.6-1.1,1.3-1.8,2c-0.3,0.4-0.3,0.7,0,1.1c0.2,0.2,0.4,0.4,0.6,0.5c0.4,0.1,0.8,0.2,1.2,0.2
		c1.1,0,2.1,0,3.2,0C35.9,56.3,36.5,56.5,37.4,56.6z M19.1,69.4c-0.9-0.3-1.6-0.3-2.3-0.2c-0.3,0-0.4,0.3-0.3,0.4
		c0.1,0.1,0.2,0.2,0.3,0.2C17.5,69.8,18.3,69.9,19.1,69.4z"/>
	<path class="st0" d="M71.8,17.4c-1.1,0.3-2.1,0.6-3.1,0.8c-0.1,0-0.2-0.1-0.3-0.2c-0.1-0.1-0.1-0.3,0-0.4c0.1-0.2,0.2-0.5,0.3-0.7
		c1.1-1.2,2.2-2.3,3.3-3.5c0.5-0.6,1.1-1.2,1.9-1.4c0.1,0,0.2-0.1,0.3-0.2c1.9-1.9,4.3-3.2,6.4-4.7c1.5-1.1,3-2.1,4.5-3.2
		s3.1-2.1,4.6-3.2c1.1-0.8,2.2-0.8,3.4-0.4C94,0.6,94.8,1,95.6,1.6c2.2,1.7,4.6,3.2,6.7,5c0.7,0.6,1.4,1.2,2.2,1.7
		c1.7,1.1,3.2,2.3,4.9,3.4c1.2,0.8,2.3,1.8,3.3,2.9c0.5,0.5,0.5,1.7-0.2,2.2c-1.5,1.1-2,2.8-2.7,4.3c-0.2,0.5-0.1,1.1-0.5,1.5
		c-0.3,0.4-0.7,0.8-1,1.3c-0.1,0.9-0.2,1.8-0.2,2.8c0,1.3,0,2.7-0.1,4c-0.1,1.9,0,3,0.5,5.3c0.8-0.2,1.3-0.9,1.7-1.6
		c0.5-0.9,0.9-1.9,1.4-2.9c0.2-0.3,0.6-0.5,0.9-0.7c0.3,0.3,0.6,0.6,0.8,0.9c0.1,0.2,0.3,0.6,0.2,0.7c-0.6,1.2-0.8,2.5-0.7,3.9
		c0,0.4-0.1,0.8-0.1,1c-0.2,0.4-0.5,0.5-0.8,0.5c-1.1,0-2.1,0.2-3.1,0.7c-0.5,0.3-0.9,0.6-1.4,0.6c-0.5,0.1-1.1-0.3-1.5-0.2
		c-0.8,0.3-1.5,0.2-2.3-0.1c-0.5-0.2-1-0.2-1.6-0.2c-0.8,0-1.6,0-2.4-0.1c-1.3-0.2-2.6-0.2-3.9,0.4c-0.2,0.1-0.5,0.2-0.8,0.2
		c-0.5,0.1-1.1,0.1-1.6,0.1c-2.3,0-4.5,0.5-6.5,1.4c-0.3-0.1-0.6-0.3-0.8-0.2c-0.8,0.4-1.8,0.5-2.6,0.8c-1.1,0.5-2.3,0.5-3.5,0.4
		c-0.4,0-0.7-0.2-0.8-0.7c-0.1-1.1-1.1-1.4-1.9-1.8c-0.7-1.3-1.4-2.6-2.1-3.9c-0.8-1.4-1-3-1.5-4.5c-0.2-0.5-0.3-1-0.5-1.5
		c0.5-1.1-0.4-2-0.3-3.1c0.1-0.8-0.1-1.6-0.1-2.4C72.7,21.6,72.1,19.5,71.8,17.4C72,17.5,71.8,17.4,71.8,17.4z M83.8,6.8
		c-0.2,0.3-0.4,0.7-0.6,1c-0.4,0.5-0.9,1-1.3,1.5c-0.7,0.7-1.3,1.3-2,1.9c-0.8,0.6-1,1.5-1.6,2.3c-1.2,0.4-1.4,1.6-1.8,2.5
		c-0.9,1.8-0.9,3.9-1.7,5.7c-0.1,0.2-0.1,0.5-0.1,0.8c0,1.3,0.2,2.6,0.6,3.9c0.4,1.1,0.8,2.3,1.3,3.3c0.2,0.5,0.5,1,0.5,1.5
		c0,2.4,1.2,4.6,1.8,6.9c0.1,0.5,0.5,0.9,1.1,1.1c0.5-0.5,0.7-1.1,0.8-1.8c-0.1-0.3-0.2-0.5-0.3-0.8c0.2-0.3,0.4-0.6,0.7-0.9
		c0.1-0.1,0.2-0.1,0.3-0.1c1,0.7,1.7,1.7,2.3,2.7c0.1,0.2,0.6,0.3,0.7,0.2c0.9-0.7,2-0.7,3-0.7c1-0.7,2-1.3,2.9-2
		c0.4-0.9,1-1.6,1.1-2.6c0.1-0.9,0.5-1.8,1.2-2.4c0.6,0,1.1,0.2,1.1,0.9c0,0.8,0,1.6,0,2.3c0.2,0.2,0.4,0.5,0.6,0.6
		c1.7,0.4,3.1,0,4.3-1.4c0.2-0.2,0.3-0.5,0.5-0.6c0.3-0.2,0.7-0.4,1.1-0.2c0.4,0.2,0.7,0.4,0.7,0.9c0,0.8,0.1,1.6,0.1,2.4
		c0,0.3,0.6,0.7,0.9,0.5c0.9-0.5,2-0.5,2.9-1.3c0-0.4,0.1-1,0.1-1.5c0.1-0.8,0.1-1.6,0.3-2.4c0.3-1.2,0.5-2.3,1-3.4
		c0.3-0.8,0.5-1.5,0.5-2.3c-0.1-1.2,0.2-2.3,0.6-3.5c0.5-1.5,0.9-3,1.5-4.5c0.4-0.9,0.4-1.8,0-2.8c-0.6-0.5-1.4-1.1-2.1-1.7
		c-0.7-0.6-1.4-1.3-2.3-1.6c-1.3-1.2-2.8-2-4.1-3.2c-1.4-1.3-2.9-2.4-4.6-3.2c-1.6-0.7-3-1.6-4.2-2.9c-1.1,0.3-2.1,0.7-3.1,1
		C87.7,4.9,85.7,5.8,83.8,6.8z"/>
	<path class="st0" d="M126.3,31.4c0.2,0.1,0.5,0.1,0.7,0.3c0.2,0.1,0.1,0.4-0.1,0.6c-0.2,0.2-0.4,0.4-0.6,0.5
		c-0.3,0.2-0.9,0.1-1-0.2c-0.2-0.5-0.1-0.9,0.2-1C125.8,31.5,126.1,31.5,126.3,31.4z"/>
	<path class="st0" d="M102.2,50.1c0.5,0.4,0.5,1,0.4,1.5c-0.1,0.2-0.3,0.4-0.6,0.5c-0.4,0.2-0.7-0.1-0.9-0.5
		c-0.1-0.3-0.1-0.5,0.2-0.7C101.6,50.5,101.9,50.3,102.2,50.1z"/>
	<path class="st0" d="M119.1,32.7c-0.7-0.1-1.1-0.5-1.1-1.2c0-0.4,0.1-0.6,0.6-0.7c0.4-0.1,0.8,0.2,0.8,0.5
		C119.5,31.7,119.5,32.2,119.1,32.7z"/>
	<path class="st0" d="M113.4,42.3c-0.1-0.4-0.3-0.8-0.4-1.1c-0.1-0.4,0.2-0.8,0.6-0.8c0.2,0,0.5,0.1,0.7,0.2c0.3,0.2,0.3,0.7,0,1
		C114,41.8,113.7,42,113.4,42.3z"/>
	<path class="st0" d="M104.2,43.5c0.5,0.1,0.7,0.3,0.6,0.7c-0.1,0.5-0.3,0.7-0.7,0.6c-0.4-0.1-0.6-0.3-0.6-0.8
		C103.6,43.6,103.8,43.5,104.2,43.5z"/>
	<path class="st0" d="M126.4,38.1c-0.1,0.2-0.3,0.4-0.4,0.6c-0.2,0.2-0.5,0.3-0.6,0.2c-0.2-0.2-0.3-0.5-0.3-0.7
		c0-0.4,0.3-0.9,0.6-0.8c0.3,0.1,0.4,0.3,0.6,0.4C126.3,37.8,126.3,38,126.4,38.1z"/>
	<path class="st0" d="M83.4,92.9c-0.4,0.1-0.7-0.1-0.7-0.6s0.1-0.7,0.6-0.7s0.6,0.1,0.7,0.6C84.1,92.6,83.9,92.8,83.4,92.9z"/>
	<path class="st0" d="M66.8,90.1c0.4,0.1,0.6,0.4,0.6,0.8s-0.4,0.6-0.8,0.5C66,91.3,65.9,91,66,90.6C66.1,90.1,66.3,90,66.8,90.1z"
		/>
	<path class="st0" d="M106.7,87.3c-0.3,0-0.5-0.2-0.5-0.4c0.1-0.2,0.2-0.5,0.4-0.7c0.1-0.1,0.2-0.1,0.4-0.1s0.4,0.2,0.4,0.5
		C107.4,87.1,107.2,87.3,106.7,87.3z"/>
	<path class="st0" d="M98.5,93.8c-0.3,0-0.4-0.2-0.5-0.4c0-0.1,0.1-0.3,0.1-0.4c0.4-0.4,0.9-0.5,0.9-0.3c0.1,0.2,0.1,0.5,0,0.7
		C99.1,93.8,98.8,93.9,98.5,93.8z"/>
	<path class="st0" d="M91.3,94.3c-0.4,0.4-0.9,0.4-1.5,0.3c-0.1,0-0.3-0.1-0.3-0.2c-0.1-0.2,0-0.3,0.4-0.4
		C90.4,93.8,90.4,93.8,91.3,94.3z"/>
	<path class="st0" d="M93.9,100.6c0,0.6-0.2,1.1-0.4,1c-0.4-0.2-0.5-0.6-0.5-0.9c0-0.1,0-0.3,0.1-0.4c0.1-0.3,0.3-0.4,0.5-0.3
		c0.1,0.1,0.2,0.2,0.3,0.3C93.9,100.3,93.9,100.4,93.9,100.6z"/>
	<path class="st0" d="M103.9,102.3c-0.3,0.2-0.6,0.4-0.9,0.5c-0.4,0.1-1-0.3-0.9-0.4c0.1-0.2,0.4-0.3,0.6-0.4c0.2-0.1,0.5,0,0.7,0
		C103.7,102,103.7,102.1,103.9,102.3z"/>
	<path class="st0" d="M95.4,46.5c-0.1,0.2-0.1,0.5-0.2,0.6c-0.2,0.3-0.9,0.3-0.9,0c0-0.2,0-0.4,0.2-0.6c0.1-0.2,0.3-0.4,0.5-0.4
		C95.2,46,95.4,46.2,95.4,46.5z"/>
	<path class="st0" d="M120.6,38.5c-0.4-0.9-0.4-1.1,0.4-1.4c0.3-0.1,0.5-0.1,0.7,0.2c0.1,0.2,0,0.4-0.1,0.6c0,0.1-0.2,0.2-0.3,0.3
		C121,38.3,120.8,38.4,120.6,38.5z"/>
	<path class="st0" d="M120.4,44.1c0-0.2,0.2-0.5,0.4-0.6c0.2-0.1,0.5,0,0.7,0c0.3,0.1,0.2,0.6-0.2,0.9c-0.2,0.2-0.5,0.2-0.7,0.3
		C120.5,44.6,120.3,44.3,120.4,44.1z"/>
	<path class="st0" d="M126.2,44.9c-0.1-0.2-0.3-0.4-0.3-0.7c-0.1-0.5,0.2-0.7,0.7-0.7c0.3,0,0.5,0.1,0.6,0.3c0,0.1-0.1,0.3-0.1,0.3
		c-0.2,0.2-0.3,0.4-0.5,0.6C126.4,44.8,126.3,44.8,126.2,44.9z"/>
	<path class="st0" d="M109.1,45.9c0.3,0.1,0.5,0.2,0.4,0.5c-0.1,0.2-0.2,0.5-0.4,0.7c-0.1,0.1-0.5,0.2-0.6,0.1
		c-0.3-0.1-0.3-0.4-0.2-0.7C108.4,46,108.6,45.9,109.1,45.9z"/>
	<path class="st0" d="M59.2,95.4c-0.1-0.2-0.3-0.3-0.3-0.5c0-0.3,0.3-0.3,0.6-0.2c0.3,0.1,0.4,0.2,0.3,0.4
		C59.7,95.4,59.5,95.5,59.2,95.4z"/>
	<path class="st0" d="M105.1,95c0.4-0.1,0.7-0.2,1-0.3c0.1,0,0.2,0.2,0.2,0.3c0,0.2-0.1,0.5-0.3,0.5c-0.2,0.1-0.4-0.1-0.7-0.1
		C105.3,95.3,105.3,95.2,105.1,95z"/>
	<path class="st0" d="M79.4,97.4c-0.1,0.1-0.2,0.2-0.3,0.2c-0.2,0.1-0.4,0-0.5-0.3c-0.1-0.3,0.2-1,0.4-0.9c0.1,0,0.2,0.2,0.3,0.3
		C79.3,97,79.4,97.2,79.4,97.4z"/>
	<path class="st0" d="M68.7,97.2c0.1,0.4,0.2,0.7,0.3,1.1c0,0.1-0.2,0.3-0.3,0.2c-0.2-0.1-0.5-0.2-0.5-0.3c-0.1-0.2,0-0.5,0.1-0.7
		C68.3,97.4,68.5,97.3,68.7,97.2z"/>
	<path class="st0" d="M83.2,99.2c-0.1,0.3-0.4,0.4-0.7,0.3c-0.3-0.1-0.4-0.3-0.4-0.5c0.1-0.3,0.4-0.4,0.6-0.3
		C83,98.8,83.1,99.1,83.2,99.2z"/>
	<polygon class="st0" points="126.3,52.5 126.4,52.7 126.1,52.7 	"/>
	<path class="st0" d="M75.2,92.5c0,0.1,0,0.2,0,0.2c-0.2,0.2-0.4,0.2-0.5-0.1c0,0,0.2-0.2,0.3-0.2C75,92.4,75.1,92.5,75.2,92.5z"/>
	<path class="st0" d="M98.3,13.2c0.4,0.8,0.7,1.4,0.9,2c-0.1,1-0.7,1.8-0.7,2.7c0,1-0.6,1.7-0.8,2.7c-0.2,1.4-1.2,2.4-2.6,2.7
		c-1,0.2-1.9,0.9-3,0.9c-1.2,0-2.4,0-3.6-0.1c-0.7,0-1.3-0.1-2-0.1c-0.9-0.6-1.8-1.1-2.7-1.6s-1.3-1.3-1.3-2.3c0-0.8,0-1.6,0-2.5
		c1.7-2.2,3.4-4.4,6.3-5.5c1.2,0,2.5,0,3.8,0c0.9,0,1.9,0,2.8,0.2C96.4,12.5,97.3,12.9,98.3,13.2z M97,15.2
		c-0.6-1.2-1.5-1.6-2.7-1.2c-0.9,0.3-1.8,0.4-2.7,0.6c-1.2,0.2-2.3,0.7-3,1.8c-0.5,0.7-1.1,1.5-1.2,2.5c-0.1,0.9-0.4,1.8-0.7,2.7
		c-0.1,0.3,0.3,0.9,0.5,1c1.7,0,3.4,0.1,5.2,0.1c0.4,0,0.8-0.2,1.1-0.3c1.4-0.6,2.6-1.4,3.4-2.8C97.1,18.1,97.2,16.6,97,15.2z"/>
</g>
</svg>
