<?xml version="1.0" encoding="utf-8"?>
<!-- Generator: Adobe Illustrator 16.0.0, SVG Export Plug-In . SVG Version: 6.00 Build 0)  -->
<!DOCTYPE svg PUBLIC "-//W3C//DTD SVG 1.1//EN" "http://www.w3.org/Graphics/SVG/1.1/DTD/svg11.dtd">
<svg version="1.1" id="Layer_1" xmlns="http://www.w3.org/2000/svg" xmlns:xlink="http://www.w3.org/1999/xlink" x="0px" y="0px"
	 width="286.5px" height="192.4px" viewBox="0 0 286.5 192.4" style="enable-background:new 0 0 286.5 192.4;" xml:space="preserve"
	>
<style type="text/css">
<![CDATA[
	.st0{fill:#010101;}
]]>
</style>
<g>
	<path class="st0" d="M201,59.1c-0.1,0.4-0.1,0.8-0.2,1.2c-0.1,0.4-0.3,0.7-0.5,0.9c0,1.1,0,2,0,2.9c0,0.9,0.1,1.9,0.5,2.7
		c-0.1,1.9,1.3,3.5,1,5.4c0.3,1.3,0.8,2.5,1.8,3.5c0.6,0.6,0.7,1.4,0.4,2.2c-0.2,0.5-0.6,0.8-1.2,0.8c-0.4,0-0.8-0.1-0.9,0.3
		c-0.3,0.8-0.9,1-1.6,0.8c-1.1-0.4-2.2-0.8-3.5-0.9c-0.2,0-0.4-0.4-0.5-0.6c-0.1-0.8-0.3-1.6-0.1-2.4c0.3-1.5-0.2-2.9-0.1-4.4
		c0-0.3,0-0.6-0.2-0.8c-0.8-1.5-0.4-3.1-0.5-4.7c-0.1-0.9,0.1-1.8,0.4-2.7c-0.2-0.5-0.4-1-0.6-1.5c-0.2-0.1-0.5-0.3-0.7-0.3
		c-1.6,0-3.2,0-4.8,0.1c-0.4,0-0.8,0.2-1.2,0.3c-0.5-0.2-1-0.3-1.5-0.5c-0.7-0.4-1.4-0.6-2.2-0.7c-1.2-0.2-2.3-0.7-3.4-1
		c-1.2-0.7-2-1.9-3.3-2.4c-0.8-0.9-1.5-1.9-2.3-2.8c-0.1-0.1-0.2-0.1-0.3-0.1c-1.1,1-2.1,2-3.2,3.1c-0.3,0.9-0.5,1.8-0.8,2.6
		c-0.3,0.8-0.3,1.6-0.3,2.4c0,0.7,0.3,1.3,0.7,1.8c0.5,0.6,1.1,1.1,1.6,1.6c-0.1,0.8-0.1,1.4,0.4,2c0.4,0.4,0.5,1,0.3,1.5
		c-0.1,0.4-0.2,0.8-0.4,1.1c-0.3,0.8-0.2,1.6,0.1,2.3c-0.4,0.7-0.9,1.3-1.2,2c-0.3,0.7-0.4,1.5-0.5,2.4c0.2,0.4,0.3,0.9,0.6,1.4
		c0.2,0.4,0.4,0.7,0.6,1.1c0.2,1.5-0.2,3.1,0.7,4.6c0,1.8,0.9,3.3,1.7,4.8c0.5,0.8,0.5,1.8-0.5,2.5c-0.7,0.1-1.3,0.2-2.1,0.3
		c-0.9,0.8-2,1.5-3.4,1.9c-0.2-0.1-0.3-0.3-0.4-0.5c-0.3-0.5-0.6-0.6-0.8-0.3c-0.6,0.9-1.3,1.6-2.5,1.8c-0.4,0.1-0.8,0.2-1.1,0.4
		c-1.1,0.5-2.1,1.2-3.1,1.8c-0.9,0.5-2,0.6-2.9,1.2c-1.5,0.9-3,1.7-4.1,2.8c-1.2,0.3-2.4,0-3.2,0.8c-0.7,0-1.1-0.7-1.7-0.9
		c-0.5-0.2-1-0.2-1.6-0.3c-0.6-0.5-1.1-1-1.4-1.9c-0.8-2.9-0.9-3.1-0.3-6.6c-0.2-0.5-0.5-1-0.7-1.5c-0.2-0.2-0.4-0.2-0.7,0
		c-0.7,0.4-1.5,0.5-2.3,0.4l0,0c0-0.1,0-0.3,0.1-0.4c2.6-1.6,2.6-1.6,4.9-2.4c0.4-0.1,1.2,0.3,1.2,0.7c0.1,0.4,0.1,0.8,0.1,1.2
		c0,0.9,0,1.9,0,2.8c0,1.1,0,2.1,0.1,3.2c0.1,0.9-0.1,1.9,0.3,2.7c0.3,0.5,0.6,0.9,1.4,1.1c0.6-0.7,1.7-0.8,2.6-1.3
		c1-0.6,2.2-0.9,3.3-1.4c1.1-0.5,2.2-0.9,3.1-1.7c0.8-0.7,1.7-1.2,2.6-1.8c1.4-0.1,2.3-1.2,3.5-1.8c0.7-0.3,1.3-0.8,2.2-0.9
		c0.4,0,0.8-0.3,1.1-0.5c0.8-0.5,1.5-1.1,2.3-1.7c0-0.8,0.1-1.6-0.2-2.4c-0.3-0.6-0.4-1.3-0.4-1.9c-0.1-3.2-0.2-6.4-0.1-9.6
		c0-0.9,0.2-1.8,0.5-2.7c0.1-0.2-0.3-0.4-0.6-0.4c-0.6,0-0.9,0.5-1.6,0.7c-0.4,0-1.1,0-1.8,0c-0.9-0.1-1.5,0.5-2.2,0.7
		c-0.1,0-0.3,0.1-0.4,0.1c-1.2,0.1-2.3,0.4-3.5,0.7c-1.2,0.3-2.3,0.6-3.4,0.9c-0.5,0.1-1,0.1-1.5,0.1c-0.5-0.4-0.9-0.7-1.3-1.1
		c-0.8-0.8-1.6-1.7-2.5-2.6c0-0.5-0.1-0.8-0.1-1.2l-0.1,0.1c0.9-0.1,1.6,0.2,2.1,0.9c0.3,0.4,0.6,0.9,0.9,1.4
		c2.1,0.2,4.3,0.2,6.4-0.1c1.4-0.2,2.8-0.7,4.2-1.1c0.6-0.2,1.3-0.2,1.9-0.4c0.6-0.2,1.2-0.5,1.8-0.7c1.6-0.4,1.8-0.7,2.6-2.7
		c-0.4-0.6-1-1.2-1.3-1.9c-0.6-1.1-1.5-1.9-2.3-2.8c-0.9-1-2.1-1.6-2.9-2.7c-0.8-1.1-1.8-1.9-2.7-2.9c-0.5-0.5-0.9-1-1.1-1.6
		c-0.4-1-1.4-1.6-2-2.5c-0.6-0.9-1.1-1.8-1.7-2.7c-0.1-0.2-0.6-0.2-0.7-0.1c-0.7,0.6-1.4,0.6-2.2,0.6c-0.9,0.1-1.8,0.2-2.7,0.6
		c-1.6,0.6-3.3,1.1-5,1.1c-1.5,0.1-2.8,0.9-4.3,0.9c-1.3,0.8-2.8,0.7-4.3,0.7c-1.1,0-2.1-0.1-3.1,0.5c-0.4,0.2-1,0.2-1.6,0.2
		c-1.5,0.1-2.9,0.1-4.2,0.1c-1.1,0.2-1.8,0.8-2.8,0.8c-2.4-0.1-4.8-0.1-7.1-0.1c-0.7-0.3-1.3-0.5-2-0.8c-0.7,0.2-1.4,0.6-2.2,0.7
		c-0.6,0.1-1.3,0.1-2,0.2c-1,0.2-2,0.7-3,1c-0.9,0.3-1.8,0.5-2.7,0.5c-1.3,0-2.7,0.1-4,0c-1.1,0-2.1,0.1-3.1,0.7
		c-0.5,0.3-1,0.3-1.5,0c-0.7-0.4-1.4-0.7-2.3-0.7c-0.4,0-0.9-0.1-1.2,0.1C95.4,58,94.2,58,93,58.2c-1,0.9-2.2,0.7-3.4,0.7
		c-0.5,0-1.1,0.1-1.6,0.1c-0.4,0.3-0.7,0.5-1,0.7c-0.5,0.5-1.1,0.8-1.8,0.8c-0.9,0.1-1.5,0.6-1.8,1.4c-0.2,0.5-0.5,1-0.6,1.5
		c-0.1,0.4-0.1,0.8,0,1.2c0.6,1.3,1.3,2.6,1.6,4.1c0,0.2,0.4,0.4,0.6,0.5c1,0.4,0.9,1.2,0.8,2c0,0.1-0.1,0.3-0.2,0.3s-0.2,0-0.3,0
		c-0.5-0.5-1.1-0.9-1.3-1.4c-1.4-2.9-3.4-5.4-5.3-8c-0.2-0.2-0.3-0.4-0.6-0.7c-0.3,0.1-0.8,0.1-1,0.3c-1.8,1.8-3.7,3.4-5.1,5.6
		c-0.9,1.5-2.3,2.6-3.2,4c-0.1,0.2-0.4,0.3-0.7,0.4c-0.8,0.5-1.5,1.1-2,1.9c-0.9,1.5-2.1,2.8-3.3,4c-1.2,1.1-2.1,2.4-3,3.7
		c-0.7,1.2-1.5,2.2-2.5,3.1c-0.6,0.6-1.1,1.2-1.7,1.7c-0.9,0.9-1.5,1.9-1.7,3.1c-0.1,0.7-0.3,1.3-0.8,1.8c-1,0.9-1.5,2.2-2.2,3.3
		c-0.6,1-1.2,2.1-1.1,3.3c0.1,0.9-0.7,1.7-0.1,2.7c0.1,0.2,0,0.5-0.1,0.8c-0.7,2.3-0.4,4.7-0.3,7.1c0,0.3,0.2,0.5,0.3,0.7
		c-0.2,0.4-0.3,0.7-0.5,1.1c0,3.8,0,7.7,0,11.6c0,1.3,1.1,2.6,2.4,2.8c0.6,0.1,1.3,0.2,2,0.2c1.2,0,2.4,0,3.6,0
		c0.2,0,0.3,0.2,0.5,0.4c-0.1,0.1-0.2,0.2-0.3,0.2c-2.9,0-5.8,0.1-8.9,0.1c-1-0.5-2.1-1-3-1.5c-0.5,0-0.9,0-1.3-0.1
		c-0.2-0.1-0.4-0.4-0.4-0.6c0.2-1.2,0.8-2.3,0.7-3.5c0.9-1.7,0.8-3.6,0.7-5.5c-0.1-0.7,0.2-1.3,0.9-1.6c0.1-0.1,0.2-0.1,0.3-0.2
		c0.1-0.1,0.2-0.2,0.1-0.3c-0.8-1.7-0.3-3.4-0.4-5.2c0.4-0.4,0.8-0.7,1.2-1.1c-0.1-0.5-0.4-1-0.4-1.5c0-1.6,0-3.2,0.6-4.7
		c0.2-0.7-0.1-1.3-0.9-1.5c-0.1,0-0.2-0.2-0.3-0.3c0.4-0.7,0.9-1.3,1.2-2c0.3-0.6,0-1.3,0.5-1.9c0.3-0.4,0.5-0.9,0.7-1.4
		c0.4-0.4,0.8-0.8,1.1-1.1c0.8-0.7,1.7-1.4,2.3-2.2c0.6-0.9,1.2-1.7,1.8-2.6c0.4-0.7,0.8-1.4,1.4-1.9c1.6-1.6,2.9-3.5,4.2-5.3
		c0.6-0.9,1.1-1.8,2.1-2.3c1.5-1.7,3-3.4,4.3-5.2c0.7-1,1.7-1.8,2.2-2.8c0.5-1.1,1.3-2,2.1-2.9c0.3-0.3,0.5-0.7,0.7-1
		c1.2-1.7,2.4-3.5,3.9-5.1c0.6-0.7,1.1-1.5,1.6-2.2c0.3-0.4,0.9-0.8,1.4-0.7c2.5,0.4,5.1-0.2,7.6,0.1c0.6,0.1,1.3-0.1,2-0.3
		c1.2-0.4,2.3-0.5,3.5-0.4c0.8,0,1.6,0,2.3-0.4c0.4-0.2,0.8-0.2,1.1,0c0.8,0.4,1.5,0.2,2.3-0.2c0.3-0.2,0.7-0.4,1-0.5
		c0.4-1.7,0.5-3,0.1-4.3c-0.2-0.8-0.5-1.5-0.4-2.3c0.1-2-0.5-2.2-2.4-2c-1.2,0.1-2.4,0.1-3.5,0.6c-0.6,0.3-1.3,0.3-1.9,0.3
		c-0.8,0-1.5,0.3-2.3,0.7c-0.3,0.2-0.8,0.1-1.2,0.1l0.1,0.1c0-0.3-0.1-0.6-0.1-0.9c0.2-0.1,0.4-0.2,0.6-0.3
		c-0.1-0.1-0.1-0.1-0.2-0.2c-0.1,0.2-0.2,0.4-0.2,0.6c-1.1,0-2.1-0.1-3.2-0.1c-0.2,0-0.4-0.2-0.7-0.4c0.9-0.3,1.8-0.7,2.7-0.9
		c0.8-0.2,1.6-0.3,2.4-0.3c1.4,0,2.6-0.3,3.9-0.8c1.8,0,3.4-0.7,5.1-0.8c0.2,0,0.5-0.2,0.7-0.3c0.5-1.8,0.5-1.9,0.1-5.5
		c-1.1-1-2.2-0.4-3.4-0.1c-0.8-0.3-1.7-0.3-2.5-0.9c0.2-0.7,0.6-1.2,1.4-1.1c0.7,0.1,1.3,0.2,1.9,0.3c0.6-0.1,1.1-0.2,1.6-0.3
		c0.9-0.2,1.1-0.7,0.9-1.4c-0.1-0.3-0.3-0.6-0.2-0.7c0.4-0.9,0.3-1.8,0.5-2.7c0.2-0.8,0.6-1.4,0.9-2.1c0.7-0.1,1,0.4,1.1,0.9
		c0.2,0.9,0.2,1.8,0.3,2.8c0,0.9,0,1.9,0,2.8c0,0.6,0.3,0.8,0.9,0.7c0.4-0.1,0.8-0.1,1.2-0.2c0.8,0,1.6,0,2.3,0.4
		c0.6-0.2,1.2-0.5,1.9-0.5c0.4,0,0.8,0,1.2,0.1c0.2,0,0.4,0.3,0.5,0.5c0.1,0.3-0.3,0.9-0.5,0.9c-1.9,0-3.7,0.1-5.6,0.1
		c-0.4,0-0.8,0.1-1.1,0.1c-0.8,0.4-1.3,1-1.4,1.9c0,0.7,0,1.3,0,2c0,0.9,0.2,1.6,1.1,1.9c0.4,0.2,0.4,0.8,0.9,1.1
		c0.4-0.5,0.5-1.2,1.1-1.2c1.5-0.1,2.8-0.8,4.3-0.9c1.3-0.1,2.7-0.1,4-0.2c0.4,0,0.8,0,1.2-0.2c1.6-0.7,2.8,0,4,0.9
		c-0.1,1-0.2,1.1-0.8,1.1c-1.6,0-3.2-0.2-4.8-0.1c-1.4,0.1-2.9-0.1-4.3,0.7c-0.3,0.2-0.8,0.2-1.2,0.2c-1.5-0.1-2.8,0.8-4.3,0.9
		c-0.1,0-0.4,0.4-0.4,0.6c0,0.4,0,0.8,0.1,1.2c0.5,1.4,1.1,2.7,1.8,4c0.2,0.3,0.3,0.7,0.4,1.1c0.2,1.2,1.1,1.8,1.9,2.4
		c0.2,0.1,0.5,0.1,0.8,0c0.9-0.4,1.8-0.6,2.7-0.5c1,0.1,1.8-0.8,2.7-0.4c1.2,0.5,2-0.4,3.1-0.4c0.9,0,1.8-0.2,2.7-0.5
		c0.5-0.2,1-0.2,1.6-0.2c0.5-0.1,1.1,0.1,1.6-0.1c2.3-0.9,4.7-0.6,7.1-0.7c0.1,0,0.3,0.3,0.4,0.4c-0.1,0.1-0.2,0.2-0.3,0.2
		c-0.4,0.1-0.8,0.1-1.2,0.2c-0.1,0-0.2,0.1-0.3,0.2c-0.1,0.1,0,0.3,0.4,0.4c0.4,0.1,0.8,0.1,1.2,0.1c0.9,0.1,1.5-0.4,1.9-1.2
		c-0.1-0.2-0.2-0.5-0.3-0.8c0.8-0.5,1.8-0.3,2.6-0.4c0.6-0.1,0.9-0.3,0.9-0.5c-0.1-0.5-0.4-0.6-0.8-0.9c-0.2-0.1-0.5-0.2-0.8-0.4
		c-0.6-0.9-1.3-1.9-1.9-2.8c-0.2-0.9-0.3-1.7-0.6-2.4c-0.2-0.5-0.2-1,0-1.5c0.1-0.2,0.1-0.5,0.1-0.8c0.2-2.3,0.2-2.9-2.1-4.3
		c-3.2-1.9-5-4.6-5.9-8.2c-0.6-1.1-0.5-2.3-0.6-3.5c-0.1-1.2-0.1-2.4-0.2-3.6c0-0.5-0.6-1-0.4-1.5c0.4-0.8,0.3-1.9,1-2.6
		c1.3-2.2,3-4.1,4.8-5.9c1.7-1.7,3.8-2.9,6.1-3.7c2.4-0.8,2.4-0.8,4.6-0.8l0,0c-0.1,0.2-0.2,0.6-0.3,0.6c-0.5,0.2-1.1,0.2-1.5,0.4
		c-0.6,0.2-1.2,0.5-1.9,0.7c-0.9,0.3-1.8,0.5-2.5,1.1c-1.4,1-3,1.8-4.2,3.1c-1.5,1.5-3,3-3.9,5c-1,0.6,0,1.8-0.8,2.5
		c-0.1,0.1,0,0.5,0,0.7c0.2,0.5,0.4,1,0.7,1.4c0.6,0.9,0.8,1.9,0.7,3c0,0.3,0,0.5,0,0.8c-0.1,1.7,0.7,3.1,1.2,4.6
		c0.3,0.8,1.3,0.9,1.9,1.4c0.4,0.3,0.8,0.7,1.2,1.1c0.9,0.9,2,1.3,3.1,1.7c1.1-0.4,1.6-1.4,2.5-2c0.4-0.3,1-0.2,1.3,0.4
		c0.2,0.3,0.4,0.7,0.6,1c0.3,0.5,0.2,1.2-0.2,1.4c-0.9,0.4-1.7,0.8-2.4,1.5c-0.2,1.1-0.9,2.1-1,3.4c-0.1,1.2-0.2,2.4-0.7,3.5
		c0.4,0.5,0.8,1.1,1.2,1.6c0.9,1.2,2,2.2,3.4,2.7c1.2,0.4,2,1.4,3.1,1.8c1.1-0.3,2.2-0.6,3.4-0.6c1.2,0,2.4,0,3.5-0.5
		c0.3-0.2,0.8-0.2,1.2-0.2c1.9,0,3.7,0.2,5.5-0.7c0.3-0.2,0.8-0.1,1.2-0.1c0.8-0.1,1.6-0.1,2.5-0.2c1.4-1.2,3.3-1.4,5-2.2
		c0.5-0.2,1.1,0.1,1.3,0.6c0.1,0.2,0.3,0.5,0.4,0.7c0.3,2.1,1.4,3.9,2.2,5.8c1.1,0.9,2.4,1.4,3.2,2.4c0.2,0.3,0.6,0.5,1,0.7
		c0.2,0.1,0.5,0.1,0.8,0.1s0.5-0.1,0.8-0.2c2.8-1,4.9-3.1,7.2-4.9c1.5-1.2,2.5-2.7,3.7-4.2c1.3-1.7,2.4-3.5,3.2-5.6
		c-0.1-1.4-0.1-2.9-0.2-4c-0.9-1.6-1.7-3-2.5-4.4c-0.3-0.5-0.6-0.9-1-1.3c-0.2-0.2-0.4-0.3-0.6-0.5c-0.5-0.5-0.9-1-1.3-1.5
		c-0.1-0.1-0.1-0.2,0-0.3c0.2-0.2,0.5-0.3,0.7-0.1c1.7,0.9,2.8,2.4,4.3,3.7c0.8-0.6,1.7-1.2,2.5-1.9c0.7-1.5,2.2-2.3,3-3.7
		c0.4-0.7,0.7-1.4,1.1-2.2c0-0.8,0-1.6,0-2.4c0.1-1.3,0-2.7,0-4c0-1.5-0.6-2.8-0.9-4.3c-0.7-3.7-2.4-7-5.2-9.7
		c-1.5-1.4-3.1-2.5-4.8-3.7c-0.6-0.1-1.2-0.2-1.9-0.3c-0.9-0.2-1.8-0.6-2.7-0.6c-0.9,0-1.9,0-2.8-0.3c-1-0.4-1.8,0.3-2.7,0.3
		c-1.3-0.1-2.7,0.1-4,0.2c-1.6,0.8-3.4,0.5-5.1,0.9c-1.5,0.7-3.1,1.4-4.7,2.2c-0.9,0.5-1.7,1.2-2.6,1.8c-0.7,0.4-1.3,0.9-2,1.3
		c-0.2,0.1-0.5,0-0.8,0l0,0c0.1-0.2,0.1-0.6,0.3-0.7c2.6-2.3,5.6-4,8.7-5.5c0.3-0.2,0.8-0.2,1.2-0.2c0.7-0.1,1.3-0.1,1.9-0.4
		s1.3-0.4,1.9-0.5c1.2-0.2,2.4,0.2,3.5-0.6c0.2-0.1,0.5-0.1,0.8-0.1c1.9,0,3.7-0.1,5.6-0.1c1,0,2.1-0.2,3.1,0.2
		c0.8,0.4,1.8,0.5,2.6,0.9c0.9,0.5,2,0.7,2.7,1.6c1.6,0.7,2.8,2,3.9,3.2c0.6,0.7,1.2,1.4,2.1,1.8c1.9,0.5,3.9,0.2,5.9,0.2l-0.1-0.1
		c0,0.4,0,0.8,0,1.1c-0.3,0.2-0.5,0.4-0.7,0.5c-0.9,0.1-1.7,0.5-2.4,1.1c-0.3,0.2-0.6,0.4-0.9,0.6c-0.2-0.7-0.3-0.8-0.4-0.6
		c-0.1,0.1-0.1,0.2,0,0.3c0.1,0.2,0.3,0.3,0.6,0.2c-0.3,1.3-0.1,2.6,0.3,3.9c0.6,1.6,1.1,3.3,1.9,5c0,2.1,0,4.3,0,6.6
		c-0.5,0.8-1.1,1.5-1.5,2.3c-0.7,1.3-2.2,2-2.6,3.4c0,0.1-0.2,0.2-0.3,0.3c-0.2,0.1-0.5,0.2-0.7,0.4c-0.4,0.3-0.9,0.7-1.1,1.1
		c-0.3,0.7-0.8,1-1.4,1.3c-0.3,0.1-0.4,0.4-0.3,0.7c0,0.3,0,0.6,0.1,0.8c1.1,2,1,4.1,0.6,6.2c-0.3,1.4-0.9,2.8-1.8,3.9
		c-1.2,1.4-1.9,3.2-3.3,4.5c-0.5,0.4-0.7,1.1-1,1.7c0.5,0.8,1,1.6,1.5,2.4c0.6,0.9,1.3,1.7,2.3,2.1c1.3,0.6,2.6,1.3,3.9,1.9
		c0.7,0.9,1.8,0.4,2.6,0.9c0.3,0.2,0.7,0.4,1.1,0.3c2.1-0.1,4.2,0.2,6.3-0.4c1.4-0.4,2.8-0.6,4.2-1.1C200.2,59,200.7,59.2,201,59.1
		L201,59.1z M47.6,118.8c-0.4,0.7-0.8,1.3-1.1,1.9c-0.3,0.7-0.3,1.5,0.2,2.2c0.6-0.3,1.1-0.7,1.1-1.4
		C47.9,120.6,48,119.7,47.6,118.8z M198.3,60.9c-0.8,0.6-0.5,1.3,0,1.9C198.8,62.2,199.1,61.5,198.3,60.9z M171.1,57.9
		c-0.1-0.1-0.2-0.3-0.3-0.2c-0.3,0.1-0.8-0.1-0.5,0.5c0,0.1,0.4,0,0.6,0C171,58.1,171.1,58,171.1,57.9z M135.5,53.1l0.3,0.1V53
		L135.5,53.1z"/>
	<path class="st0" d="M185.9,126.5c-0.1-0.1-0.1-0.3-0.2-0.4c-1-0.7-2-0.6-3,0c-0.3,0.2-0.7,0.5-0.7,0.9c0,0.2,0.1,0.5,0.2,0.7
		c-0.2,0.1-0.5,0.3-0.7,0.3c-0.7,0.1-1.1-0.1-1.2-0.7c-0.1-0.3-0.1-0.5-0.1-0.8c0-0.3-0.1-0.6-0.3-0.7c-0.7-0.3-1.4-0.7-2.2-0.8
		c-0.3,0-0.5,0.2-0.6,0.4c-0.1,0.4,0.1,0.8,0.2,1.1c0.3,0.6,0.4,1.3,0.1,1.9c-0.4,0.8-0.5,1.5,0,2.3c0,0-0.1,0.3-0.2,0.3
		c-0.2,0-0.6,0-0.7-0.1c-0.4-0.5-0.6-1.1-1-1.8c-0.1-1.2-0.1-2.4-0.2-3.6c0-0.4-0.7-0.9-1.2-0.8c-0.4,0.1-0.8,0.1-1.1,0.3
		c-0.4,0.3-0.7,0.8-1.1,1.2c-0.3,0.3-0.3,0.7-0.1,1.1c0.1,0.2,0.2,0.6,0.1,0.8c-0.6,1.4-0.5,2.9-0.7,4.3c-0.6,0.3-1.2,0.7-1.8,0.9
		c-0.2,0.1-0.5-0.1-0.6-0.3c-0.2-0.2-0.3-0.4-0.4-0.7c-0.1-0.4-0.1-0.8-0.2-1.2c-0.2-2.6-0.2-2.6-1.4-5.7c-0.1-0.4-0.3-0.8-0.3-1.1
		c0-1.5-0.8-2.8-0.9-4.3c0-0.6-0.5-1.2-0.5-1.9c-0.1-1.1,0-2.1,0-3.1c0.5-1.1,1.2-2,2.2-2.4c1.2-0.5,2.1-1.7,3.5-1.8
		c0.3,0,0.6-0.5,0.9-0.7c0.3-0.2,0.7-0.5,1-0.6c1.9-0.1,3.5-1.1,5.3-1.7c1.1-0.4,2.2-0.9,3.5-1.5c1.4,0.1,2.9-0.5,4.5,0
		c0.1,0,0.2,0.2,0.3,0.3c0,0.1-0.1,0.2-0.2,0.3c-1.1,0.3-2.4,0.1-3.4,0.9c-2.3,0.4-4.2,1.6-6,3c-0.3,0.7-0.7,1.4-1,2.2
		c-0.4,0.8-0.4,1.5,0.1,2.3c0.2,0.3,0.4,0.7,0.5,1.1c0.9,0.6,1.7,1.2,2.7,1.8c0.1,0,0.3,0.1,0.6,0.2c0.7,0.1,1.4-0.1,2,0.2
		c1.8,0.8,3.6,0.6,5.5,0.5c2.5-0.1,5.1,0,7.6,0c0.7-0.4,1.4-0.6,2.3-0.6c1.5,0,2.9-0.1,4.4-0.1c0.8,0,1.6,0,2.3-0.5
		c0.2-0.1,0.5-0.2,0.8-0.2c1.2-0.1,2.4-0.1,3.5-0.6c0.6-0.3,1.3-0.1,2-0.2c1.3-0.2,2.7,0,3.9-0.5s2.7-0.2,3.8-1
		c0.3-0.2,0.8-0.3,1.2-0.2c1.4,0.2,2.6-0.7,3.9-0.8c0.9-0.5,2-0.8,3.1-0.8c0.3,0,0.6,0,0.8-0.1c2.2-1.3,4.9-1.4,7.1-2.5
		c0.5-0.3,1-0.4,1.5-0.5c0.9-0.2,1.7-0.7,2.6-0.8c0.9-0.2,1.6-0.9,2.5-1.2c2.8-0.9,5.3-2.4,8-3.5c1-0.4,1.9-0.9,2.6-1.7
		c0.6-0.7,1.5-1.1,1.8-2c-0.2-0.5-0.4-1-0.6-1.7c-0.9-0.8-1.9-1.7-2.9-2.6c-0.7,0-1.4-0.1-2-0.1c-0.9,0-1.5-0.7-2.3-0.6
		c-0.8,0-1.5,0.4-2.3,0.5c-0.5,0.1-1.1,0.1-1.5-0.3c2.8-1.2,2.8-1.2,4.8-1.3c0.7,0,1.3,0,2.1,0c0.3-0.1,0.6-0.3,1-0.5
		c0.2-0.1,0.5-0.2,0.8-0.2c0.8,0,1.4,0.6,2.3,0.7c0.8,0,1.6,0.2,2.4,0.3c0.3,0,0.5,0.2,0.9,0.3c0.4-0.1,0.9-0.3,1.4-0.4
		s1.1-0.2,1.5,0.2c1.1,1,2.4,1.7,3.9,2c1.1,0.3,1.9,1,2.5,1.8c0.2,0.3,0.4,0.7,0.4,1.1c-0.1,1.2,0,2.4-0.4,3.6
		c-0.2,0.4,0.1,0.8,0.1,1.2c-0.4,0.5-0.7,1.1-1,1.6c0.1,0.4,0.2,0.6,0.2,0.8c-0.2,0.4-0.5,0.7-0.5,1.1c-0.1,1.7-0.1,3.5-0.1,5.2
		c0,0.3,0.1,0.5,0.2,0.8c0.4,0.3,0.9,0.5,1.3,0.8c0.4,0.3,0.8,0.8,1.3,1c1.1,0.5,1.6,1.4,2,2.3c0,0.6-0.2,1-0.6,1.4
		c-0.1,0.1-0.2,0.2-0.3,0.3c-2.6,1.6-5.5,2.7-8.2,4.1c-0.3,0.2-0.8,0.2-1.2,0.2c-0.7,0-1.3,0.2-1.8,0.7c-0.3,0.3-0.7,0.4-1.1,0.7
		c-0.9,0.1-1.8,0.2-2.7,0.3c-1.6,1.4-3.5,1.9-5.4,2.3c-0.7,0.1-1.3,0.3-1.9,0.6c-1.5,0.7-2.9,1.4-4.6,1.2c-1.4,0.8-3.2,0.4-4.6,1.3
		c-0.2,0.1-0.5,0.1-0.8,0.2c-1.4,0.1-2.9-0.1-4.3,0.7c-0.3,0.2-0.8,0.1-1.2,0.1c-1.6,0.1-3.2,0.1-4.8,0.2c-0.8,0-1.6,0-2.3,0.5
		c-0.1,0.1-0.2,0.1-0.4,0.2c-1.4,0.2-2.9-0.1-4.3,0.5c-1.3,0.5-2.6,0.3-4,0.4c-0.5,0-1.1,0.1-1.5,0.3c-0.5,0.3-1-0.2-1.5,0.1
		c-1.2,0.7-2.7,0.2-3.8,1c-0.7,0-1.3,0.1-2,0.1c-1.3,0.1-2.7,0.1-4,0.2c-1.1,0.6-2.2,0.8-3.4,0.2c-0.6,0.2-1.2,0.4-1.9,0.4
		c-4.3,0-8.5,0.4-12.8,0.2c-2.1-0.1-4.3-0.1-6.4-0.1c-0.7,0-1.3,0.2-1.9,0.6c-0.6,0.4-1.3,0.3-1.9,0.2c-0.4,0-0.8-0.2-1.1-0.4
		c-0.5-0.4-1-0.9-1.4-1.4c-0.1-0.2-0.2-0.5-0.1-0.7c0.1-0.2,0.4-0.3,0.6-0.4c0.2-0.1,0.6-0.1,0.8,0c1.1,0.6,2.3,0.6,3.5,0.6
		c2.3,0,4.5,0,6.8,0c0.9,0,1.9-0.1,2.7,0.4c0.1,0.1,0.3,0.1,0.4,0c1-0.6,1.8,0,2.6,0.2c1,0.2,1.8-0.5,2.7-0.6
		c0.9-0.1,1.9-0.1,2.8-0.2c0.4,0,0.7-0.3,1.1-0.4c0.4-0.1,0.8,0,1.2,0.1c0.4,0.1,0.9,0.3,1.1,0.2c1.7-0.7,3.4-0.4,5.1-0.6
		c0.9-0.1,1.9,0.1,2.8-0.3c0.3-0.1,0.5-0.1,0.8,0c0.8,0.3,1.5,0.3,2.3,0c0.7-0.3,1.5-0.4,2.3-0.7c0.8-0.3,1.5-0.4,2.3-0.4
		s1.6,0,2.4,0c0.7,0,1.3-0.1,1.9-0.4c0.2-0.1,0.5-0.2,0.7-0.3c0.8-0.1,1.6-0.1,2.4-0.2c0.6-0.1,1.2-0.5,1.9-0.6
		c1.4-0.2,3-0.1,4.3-0.5c1.3-0.3,2.6-0.5,3.9-0.5c0.5,0,1.1,0,1.6-0.3c0.9-0.4,1.8-0.5,2.7-0.5c0.3,0,0.5,0,0.8,0
		c1.6,0.1,3.2-0.3,4.6-1c0.7-0.4,1.4-0.6,2.3-0.7c0.4,0,0.8-0.1,1.1-0.3c0.8-0.5,1.8-0.4,2.6-0.9c1.6-1,3.3-1.7,5.1-2.2
		c0.9-0.7,2-0.5,3-0.8c1.3-0.8,2.3-1.9,3.6-2.6c0.9-0.6,1.6-1.4,1.8-2.5c0-0.3,0.1-0.6,0.3-0.7c1-0.9,1.5-2.2,2.1-3.4
		c0.4-0.7,0.8-1.4,1.2-2.1c-0.2-0.5-0.5-1.1-0.5-1.8c0-1.2,0-2.4-0.1-3.6c0-0.3-0.3-0.4-0.5-0.3c-0.1,0.1-0.3,0.2-0.3,0.3
		c0,1.1,0,2.1,0,3.2c0,0.2-0.2,0.5-0.3,0.7c-0.6-0.1-0.9-0.5-1.1-1s-0.2-1-0.3-1.5c-0.1-0.3-0.3-0.4-0.6-0.3
		c-0.9,0.2-1.6,0.6-1.7,1.5c-0.2,1.4-0.7,2.6-1.4,3.7c0.7,0.9,0.6,2,0.5,3c0,0.1-0.1,0.2-0.2,0.3c-0.1-0.1-0.4-0.3-0.4-0.4
		c0.2-1.1-0.9-2-0.7-3.1c0.1-0.9,0.4-1.8,0.6-2.7c0-0.1-0.2-0.4-0.4-0.5c-0.1,0-0.3,0-0.4,0.1c-0.3,0.3-0.6,0.6-0.9,0.9
		c-0.3,0.1-0.7,0.2-1.1,0.2c-0.7,0.1-1.2,0.5-1.6,1c-0.2,0.3-0.4,0.8-0.2,1.1c0.4,0.5,0.8,1.1,1.1,1.6c-0.5,0.5-1,0.4-1.5,0.2
		c-0.2-0.1-0.4-0.4-0.4-0.6c-0.1-0.5,0-1.1-0.1-1.6c0-0.2-0.2-0.6-0.4-0.6c-0.2,0-0.5,0.2-0.7,0.3c-0.2,0.2-0.3,0.4-0.4,0.7
		c0.3,0.7,0.6,1.5,0.3,2.3c-0.1,0.3-0.3,0.4-0.6,0.4s-0.6,0-0.6-0.3c-0.1-0.8-0.2-1.6-0.3-2.3c-0.1-0.3-0.3-0.4-0.6-0.3
		c-0.1,0-0.3,0-0.4,0.1c-0.7,0.9-1.1,1.8-1.2,2.9c0,0.5,0,1.1-0.5,1.5c-0.2,0.1-0.5,0.1-0.7,0c-0.2-0.1-0.3-0.4-0.3-0.7
		c-0.1-0.8-0.5-1.5-1.2-2c-0.2-0.1-0.5-0.1-0.7-0.1c-0.2,0.1-0.4,0.3-0.6,0.5c-0.7,0.6-1.4,1.3-2,1.9c-0.3,1.2-0.5,2.4-0.7,3.5
		c0.1,0.8,0.4,1.5,0.4,2.3c0.1,0.9-0.4,1.4-1.4,1.7c-0.1-0.5-0.2-1.1-0.2-1.6c0-1.9,0.1-3.7,0.1-5.6c0-0.4-0.2-0.7-0.3-1.1
		c-1.5,0.8-3.1,1-4.6,1.7c-0.2,0.4-0.5,0.9-0.6,1.4c-0.2,1.2-0.9,2.2-0.9,3.5c0,0.2-0.2,0.5-0.4,0.7c-0.4,0.5-0.3,1,0,1.5
		c0.2,0.3,0.2,0.6-0.2,0.6c-0.2,0-0.6-0.1-0.7-0.3c-0.2-0.5-0.3-1-0.3-1.5c0-1.5-0.1-2.9,0.6-4.3c0.1-0.3-0.3-0.8-0.6-0.9
		c-1.3-0.2-2.4,0.1-3.2,1.1c-0.2,0.2-0.3,0.4-0.5,0.6c0.5,1-0.2,1.7-0.4,2.2c0,1.3,0,2.2,0,3.1l0.1-0.1c-0.3,0-0.6-0.1-0.6-0.4
		c-0.1-0.4-0.2-0.8-0.2-1.2c0-1.5,0-2.9,0-4.3c-0.4-0.5-0.9-0.5-1.5-0.4c-0.4,0.1-0.8,0.4-0.9,0.7c-0.1,0.7-0.2,1.3-0.3,2
		c0,0.1-0.1,0.3-0.2,0.3c-0.2,0.1-0.5,0.1-0.7,0c-0.3-0.1-0.3-0.3-0.1-0.6c0.1-0.2,0.2-0.5,0.3-0.7c0.1-0.3-0.3-0.8-0.6-0.9
		c-1.5-0.1-2.9-0.1-4.3,0.5c-1.2,0.5-2.6,0.4-3.8,1c-0.3,0.2-0.8,0.2-1.2,0.2c-1.2,0-2.4,0-3.5,0.5c-0.3,0.2-0.8,0.1-1.2,0.1
		c-1.3,0-2.6,0.2-3.9,0.8c-0.3,0.2-0.8,0.2-1.2,0.2c-0.8,0-1.4,0.7-2.2,0.8c-0.4,1.1-0.9,2-1.2,3c-0.2,0.8-0.1,1.6-0.2,2.4
		c0,0.4,0,0.8-0.1,1.2c0,0.1-0.1,0.2-0.2,0.3c-0.8-1-0.4-2.3-1.1-3c0.3-0.9,0.5-1.5,0.7-2.2c0.1-0.4-0.2-0.7-0.6-1
		c-0.3,0-0.7,0-1.1,0c-0.9,0-1.5,0.4-2.1,1c-0.2,0.3-0.4,0.7-0.6,1s-0.9,0.2-1-0.1c-0.2-0.7-0.5-1.2-1.3-1.2c-0.5,0-1.1,0.1-1.6,0
		c-1.1-0.2-2,0.4-3,0.8L185.9,126.5z M174.6,111.3c-0.4,0-0.8,0-1.2,0.1c-0.8,0.4-1.6,0.9-2.5,1.3c-0.5,0.2-1,0.4-1.3,0.8
		c-0.6,0.9-1.8,1.2-2.2,2.4c0,0.5,0,1.2,0,1.9c0,0.7-0.1,1.3,0.2,1.9c0.6,0.8,1.1,1.5,2,2c0.8,0.4,1.6,1,2.4,1.5
		c1.1,0.1,2.1,0.2,3.2,0.3c0.5,0,1.1,0,1.6,0.2c1,0.4,2.1,0.5,3.1,0.5c0.9,0,1.9,0,2.8,0.4c0.2,0.1,0.5,0,0.7-0.1
		c1.2-0.3,2.4-0.3,3.5,0.3c0.4,0.2,0.8,0.1,1.1-0.1c0.4-0.2,0.8-0.1,1.1,0.1c0.4,0.2,0.8,0.2,1.1,0c0.6-0.4,1.2-0.5,1.9-0.5
		c0.8,0,1.6,0.1,2.4-0.2c2.4-0.7,4.9-1.3,7.4-1.6c0.3,0,0.5-0.3,0.7-0.3c1.4-0.3,2.9-0.5,4.2-1.1c1.8,0.1,3.4-0.5,5.1-0.7
		c0.9-0.1,1.8-0.7,2.7-0.7c1.5-0.1,2.9-0.5,4.3-0.8c0.3-0.1,0.5-0.2,0.8-0.1c1.9,0.1,3.6-0.6,5.4-1.3c1.1-0.4,2.3-0.8,3.4-1
		c0.9-0.2,1.9,0,2.7-0.5c0.9-0.5,2.1-0.4,3-0.9c0.8-0.4,1.7-0.7,2.6-0.9c1-0.2,2.1-0.2,3.1-0.8c0.9-0.5,2.1-0.2,3.1-0.8
		c1.5-0.2,2.8-0.7,4.1-1.4c0.6-0.3,1.2-0.5,1.9-0.5c0.7,0,1.3-0.2,1.9-0.5c1.8-0.9,3.6-1.8,5.3-2.7c0.5-0.2,1-0.5,1.3-0.9
		c0.7-0.9,1.6-1.4,2.5-2c0.9-0.6,1.6-1.4,1.8-2.6c0.1-0.5,0.3-1,0.4-1.5c-0.2-0.3-0.5-0.7-0.8-0.9c-1.1-1-2.6-1.3-3.9-1.8
		c-0.1,0-0.3,0-0.4,0c-0.9,0.1-1.4,0.7-1.8,1.4c0.2,1-0.5,1.8-0.7,2.7c-0.1,0.8-0.6,1.5-1.1,2.1c-0.5,0.6-1.1,1.2-1.7,1.7
		c-0.6,0.6-1.2,1-2.1,1c-1.2,0-2.2,0.7-3.3,1.2c-1.1,1.3-2.6,1.8-4.2,1.9c-0.4,0-0.8,0.1-1.1,0.3c-1.6,0.8-3.1,1.4-4.9,1.5
		c-0.9,0-1.9,0.4-2.7,0.8c-1,0.5-2,0.8-3,1.1c-1.4,0.5-2.7,1.1-4.2,1.3c-1.4,0.8-3.1,0.7-4.6,1.4c-0.8,0.4-1.8,0.1-2.7,0.6
		c-1,0.5-2.1,0.3-3.1,0.4c-0.5,0-1.1,0.1-1.5,0.4c-0.7,0.4-1.6,0.3-2.3,0.4c-0.9,0.2-1.8,0.6-2.7,0.6c-2,0.1-4,0.4-5.9,0.8
		c-1.3,0.3-2.7,0.1-4,0.2c-0.5,0-1.1,0-1.6,0.2c-0.9,0.4-1.8,0.4-2.7,0.5c-4,0-8,0.1-12,0.1c-0.7,0-1.4,0-2-0.3
		c-0.8-0.3-1.5-0.4-2.3-0.5c-0.9-0.2-1.7-0.6-2.6-0.9c-2.1-0.7-2.6-1.4-2.7-3.4c-0.1-1,0-1.8,0.7-2.6
		C174.7,112,174.7,111.6,174.6,111.3c0.1-0.2,0.3-0.3,0.5-0.3c-0.1-0.1-0.1-0.2-0.2-0.2C174.8,110.9,174.7,111.1,174.6,111.3z
		 M168.2,123.9c0.4,0,0.7-0.3,0.6-0.7c-0.1-0.4-0.4-0.6-0.8-0.5c-0.3,0.1-0.4,0.3-0.4,0.5C167.5,123.6,167.8,123.9,168.2,123.9z"/>
	<path class="st0" d="M44.8,150.5c-0.1,0.2-0.1,0.5-0.3,0.7c-1.3,1.3-2.6,2.6-3.9,3.9c-0.5,0.5-0.9,1-1.2,1.4
		c-0.1,0.9-0.2,1.7-0.3,2.4c-0.7,0.3-1.3,0.6-1.8,0.9c-0.4-0.1-0.7-0.3-1.1-0.3c-0.2,0-0.6,0-0.7,0.2c-0.4,0.7-0.7,1.4-1.1,2.1
		l0.1-0.1c-0.6,0.1-0.9,0.4-0.9,0.9l0.1-0.1c-0.5,0.1-0.8,0.4-0.9,0.9l0.1-0.1c-0.4,0.2-0.8,0.4-0.9,0.9l0.1-0.1
		c-0.6,0.1-1.3,0.1-1.5,0.8c0,0.1-0.1,0.2,0,0.4c0.1,0.4,0.3,0.4,0.6,0.2c0.3-0.2,0.7-0.3,1-0.5l-0.1-0.1c0.2,0.9,0.1,1.8-0.5,2.6
		c-0.2,0.3-0.2,0.3,0.1,1.1c0.7-0.2,1.1-0.6,1.5-1.1c0.8-0.7,1.1-1.8,1.8-2.5c1.4-1.6,3-2.9,4.5-4.4c1.7-0.8,2.8-2.3,4.1-3.6
		c0.4-0.4,0.8-0.7,1.3-0.7l-0.1-0.1c0,0.3,0,0.5,0.1,0.8c0.2,0.7-0.1,1.3-0.6,1.8c-0.6,0.7-1.6,0.9-2.2,1.7
		c-0.6,0.7-1.4,1.2-2.3,1.6c-1.6,0.8-2.5,2.3-3.8,3.6c-0.8,0.8-1.3,2-1.8,3.1c-0.4,1-0.8,2-0.7,3.1c0,0.8-0.2,1.6-0.3,2.4
		c-0.3,1.4-0.3,2.9-0.3,4.4c-0.1,2.1,0,4.3-0.1,6.4c0,0.2-0.2,0.5-0.3,0.8c-0.7-0.8-0.3-1.7-0.4-2.6c-0.1-0.9,0.3-1.9-0.5-2.7
		c-0.1,0.1-0.2,0.2-0.3,0.3c-0.4,1.1,0,2.4-0.9,3.4c0,1.2-0.1,2.4-0.1,3.6s0.1,2.4,0.8,3.5c0.2,0.3-0.2,1-0.5,1
		c-0.2,0-0.5-0.1-0.7-0.2c-0.1,0-0.2-0.2-0.3-0.3c-0.2-0.2-0.3-0.4-0.4-0.7c-0.2-0.1-0.5-0.2-0.7-0.3c-0.3-0.1-0.5-0.1-0.8-0.1
		c-0.7-1.4-1.2-2.9-1.2-4.5c-0.1-3.1-0.1-6.1-0.2-9.2c-0.2-0.2-0.4-0.4-0.6-0.5c-0.5-0.2-1-0.2-1.5-0.4c-1-0.4-1.9-1.1-2.9-1.3
		s-2-0.6-3.1-0.7c-1.2-0.1-2.4-0.1-3.6-0.2c-0.7,0-1.3,0-2.1,0.1c-0.2,0.4-0.4,0.7-0.5,1c-0.3,1-0.7,2-1.3,2.8
		c-0.1,0.1-0.2,0.1-0.4,0.1c0-1.8-0.1-3.7,0.8-5.4c0.1-0.3-0.2-0.8-0.6-0.9c-0.3-0.1-0.6,0-0.7,0.2c-0.3,0.5-0.5,0.9-0.8,1.6
		c0.7,1.1,0.4,2.4,0.5,3.7c0,0.4,0.4,0.6,0.8,0.7c-0.1,2.1-0.1,4.3-0.2,6.4c0,0.2-0.2,0.4-0.3,0.6c-0.5-1-0.2-2.1-0.4-3.2
		c-0.2-0.9,0.3-1.9-0.4-2.7c-0.1,0.4-0.3,0.8-0.3,1.2c-0.1,2-0.1,4-0.1,6c0,0.2-0.3,0.5-0.5,0.5c-0.2,0.1-0.5,0-0.7,0
		c-0.1,0-0.3-0.1-0.3-0.2c-0.2-0.3-0.5-0.7-0.5-1c-0.1-1.9-0.1-3.7-0.1-5.6c0-1.3,0-2.7,0-4c0-0.4,0-0.8-0.2-1.2
		c-0.3-0.8-0.7-1.5-1.7-1.5s-1.8-0.4-2.6-1c-0.8-1.1-1.3-2.3-1.3-3.7c0-0.1,0-0.3,0-0.4C0.6,167-0.1,166.2,0,165
		c0.1-1.1,0-2.1,0-3.1c1-0.9,2-1.5,2.5-2.6c0.2-0.4,0.7-0.8,1.1-1.1c0.4-0.3,1-0.5,1.3-0.9c1.9-2.1,4.3-3.6,6.6-5.1c1-0.7,2-1.3,3-2
		c0.9-0.8,1.9-1.5,2.9-2.1c0.8-0.5,1.6-1,2.4-1.5c0.5-0.3,0.9-0.5,1.4-0.8c0.3-0.2,0.7-0.5,1-0.7c0.8-0.7,1.5-1.4,2.5-1.8
		c-1.9-2.3-3.3-3.6-5.2-4.7c-1-0.6-2.1-1.1-2.9-2.1c-0.3-0.4-0.8-0.7-1.3-0.9c-1-0.4-1.7-1.2-2.4-2.1c-0.1-0.1,0-0.3-0.1-0.4
		l-0.1,0.1c0.4,0,0.8-0.1,1.2,0c0.5,0.2,1,0.5,1.4,0.7c1.1,0.7,2.1,1.5,3.5,1.8c0.6,0.1,1.2,0.5,1.7,1c1.6,1.3,3.4,2,5.4,2.3
		c0.1,0,0.3,0.1,0.4,0.1c1.2,0.5,2.3,0.4,3.7,0.1c0.7-0.6,1.4-1.4,2.3-1.9c1-0.5,1.7-1.2,2.6-1.9c0.6-0.5,1.3-0.9,2-1.3
		c0.6-0.3,1.3-0.3,1.9,0c-0.1,0.3-0.1,0.6-0.3,0.7c-0.5,0.6-1.1,1.1-1.9,1.4c-1.5,0.6-2.8,1.5-3.9,2.7c-0.6,0.6-1.2,1-1.9,1.4
		c-1.1,0.7-2.2,1.6-2.8,2.8c-0.4,0.7-0.9,0.8-1.5,1c-1.1,0.4-2.1,1-3.1,1.8c-0.4,0.3-0.9,0.6-1.4,0.7c-0.7,0-1.2,0.4-1.6,1
		c-0.3,0.4-0.9,0.6-1,1.1c0.1,0.2,0.3,0.5,0.4,0.7c-0.4,0.5-0.9,1-1.6,1.1c-1.6,0.3-2.9,1.4-4.4,1.9c-0.6,0.2-1,0.9-1.6,1.2
		c-0.6,0.3-1,0.8-1.3,1.4c-0.3,0.6-0.8,1.1-1.3,1.5c-1.2,0.9-2.2,1.9-3,3.2c0.4,1.1,0.4,1.1-0.7,1.8c-0.4-0.4-0.7-0.8-1.2-1.1
		c-0.2-0.2-0.5-0.2-0.7-0.3c-0.3-0.1-0.8,0.3-0.9,0.6s0,0.6,0.2,0.7c0.5,0.3,0.9,0.5,1.5,0.8c1.1,0.1,2.3,0.2,3.4,0.4
		c1,0.2,1.9,0.9,3,0.8c1.2-0.1,2.2,0.9,3.3,1.3c0.8,0,1.6,0,2.4,0.1c0.8,0,1.6,0.2,2.3,0.6c0.3,0.2,0.8,0.3,1.1,0.3
		c1.3-0.1,2.1,1,3.3,1.1c-0.5,0.6-0.9,0.5-1.2,0.4c-0.8-0.2-1.5-0.6-2.3-0.7c-0.8-0.1-1.6-0.3-2.3-0.5c-1-0.4-2.1-0.4-3.2-0.2
		c-0.3,0.4-0.5,0.8-0.9,1.2c-0.1,0.2-0.5,0.2-0.7,0.2c-0.2-0.1-0.3-0.4-0.3-0.7c0-0.4,0.2-0.8,0.3-1.2c-0.2-0.1-0.3-0.3-0.5-0.4
		c-0.7-0.2-1.4,0.3-1.4,0.9c0,0.5,0,1.1,0,1.6c0,0.2-0.3,0.5-0.5,0.5s-0.5-0.2-0.6-0.4c-0.2-0.3-0.3-0.7-0.1-1.1
		c0.2-0.3,0.2-0.8,0.3-1.1c0-0.5-0.4-1.1-0.9-1.1c-0.4,0-0.8-0.1-1.2-0.1c-0.6,0-1.1,0.4-1.1,0.9c-0.2,1.5-0.1,2.9,0,4.1
		c0.6,0.7,1.1,0.7,1.6,0.8s0.9,0.7,1.5,0.4c0.6-0.3,1,0.2,1.5,0.2c0.5,0.1,1.1,0.1,1.6,0.1c1.1,0,2.1-0.1,3.2,0.3
		c-0.3,0.8-1.4,0.1-1.7,1c1,0.4,2.1,0.2,3.1,0.1c0.2-0.1,0.4-0.3,0.7-0.4c1-0.4,3.3-0.9,4.2-0.9c0.3,0,0.5,0.1,0.8,0.1
		c0.3,0.1,0.4,0.3,0.4,0.6l0.1-0.1c-0.7,0.3-1.6-0.3-2.3,0.4c0.2,0.3,0.4,0.7,0.8,0.8c0.7,0.3,1.5,0.5,2.2,0.8
		c0.6,0.2,0.9,1,1.6,1.1c0.3,0,0.5,0,0.7-0.3c0.1-0.4,0.2-0.8,0-1.1c-0.3-0.4-0.7-0.8-1-1.2c0.4-0.3,0.7-0.6,1.2-0.9
		c-0.1-0.3-0.1-0.8-0.3-1.1c-0.5-0.7-1.2-1.4-1.8-2.1c1.7-0.7,3-1.8,4.2-3c0.6-0.7,1.3-1.3,2-1.9c0.5-0.4,1-0.9,1.4-1.4
		c1.5-2.3,3.4-4,5.6-5.5c1.1-0.8,1.9-1.8,2.9-2.7c0.9-0.8,1.7-1.6,2.7-2.4C43.9,150.5,44.4,150.6,44.8,150.5L44.8,150.5z
		 M28.8,179.4c0.8-1.7,1.6-3.3,2.4-4.9c0.2-0.5,0.4-1,0.6-1.4c0.1-0.3,0-0.6-0.3-0.7c-0.2-0.1-0.6-0.1-0.7,0.1
		c-0.4,0.8-0.8,1.6-1.6,2.2c-0.2,0.1-0.3,0.4-0.4,0.7c-0.1,0.9-0.3,1.8-0.6,2.7c-0.4,1.2-0.5,2.6-0.2,3.9c0.1,0.4,0.3,0.5,0.4,0.3
		C28.8,181.2,28.7,180.3,28.8,179.4z M3.2,169.1c0.2,0.3,0.3,0.6,0.4,0.8c0.7,0.7,1.3,0.7,2.1,0.1c0.2-0.1,0.3-0.6,0.3-0.6
		c-0.7-0.8-0.7-1.7-0.6-2.6c0-0.2-0.1-0.5-0.2-0.7c-0.5,0.2-0.9,0.5-1.2,1C3.7,167.6,3.4,168.4,3.2,169.1z M29.1,171.8
		c0.7-0.2,1.1-0.6,1.1-1.3c0-0.3,0-0.5-0.3-0.6c-0.2-0.1-0.5-0.1-0.7,0c-0.1,0-0.2,0.2-0.3,0.3C28.5,170.7,28.6,171.3,29.1,171.8z
		 M28.6,185.6c0-0.2,0-0.5,0-0.7c-0.1-0.3-0.2-0.4-0.4-0.3c-0.1,0.1-0.2,0.2-0.2,0.3c0,0.2-0.1,0.5-0.1,0.7c0,0.4,0.3,0.9,0.4,0.7
		C28.5,186,28.6,185.8,28.6,185.6z M30,166.8c-0.1-0.1-0.2-0.2-0.2-0.2c-0.2,0-0.4,0.1-0.6,0.2c0.1,0.1,0.1,0.2,0.2,0.2
		c0.2,0,0.4,0,0.6,0C29.9,167,30,166.9,30,166.8z M3.6,163.7c-0.1-0.1-0.2-0.2-0.3-0.3c-0.3-0.1-0.5,0-0.7,0.2
		c0.1,0.1,0.2,0.2,0.3,0.3C3.2,164.1,3.4,164,3.6,163.7z M13.3,171.7l-0.3-0.1v0.2L13.3,171.7z"/>
	<path class="st0" d="M83.2,128.1c1.9,0,3.7,0.1,5.6,0.1c0.5,0,1.1,0.1,1.6,0.3c0.6,0.3,1.3,0.4,1.9,0.4c1.5,0,2.9,0,4.4,0
		c0.5,0,1,0.2,1.5,0.4c0.5,0.2,1,0.4,1.5,0.4c1.1,0,2.1,0,3.2-0.1c0.3-0.5,0.5-1,0.7-1.4c0.3-0.5,0.6-0.9,0.9-1.3
		c0.2-0.2,0-0.9-0.3-1c-0.7-0.3-1.1-0.6-1.1-1.5c0-0.3,0-0.5-0.1-0.8c-0.3-0.7-0.8-1.4-0.2-2.2c-0.9-2.2-0.5-4.4-0.5-6.7
		c0-2.1,0-4.3,0.2-6.4c0.1-1.7,0-3.5-0.1-5.3c-1-0.9-1.5-2.1-2.1-3.3c-0.8-1.7-1.3-3.5-2.4-5c-0.1-1.4-1.2-2.3-1.7-3.5
		c-0.4-0.8-1-1.6-1-2.6c-1.1-2.1-1.7-4.5-3.4-6.3c-0.4-0.4-0.4-0.9-0.5-1.5c0-0.3-0.1-0.6-0.3-0.7c-1.3-1.3-1.7-3.3-3-4.7
		c-0.5-0.6-1.2-1.1-1.4-1.9c-0.1-0.3,0-0.5,0.3-0.7c0.1-0.1,0.3-0.1,0.4,0c0.2,0.1,0.5,0.1,0.7,0.3c0.3,0.3,0.6,0.6,0.8,0.9
		c0.5,0.8,0.9,1.6,1.3,2.5c0.4,0.8,0.6,1.8,1.5,2.3c0.6,1.2,1.2,2.3,1.8,3.6c0.4,0.9,0.7,1.7,1.4,2.4c0.2,0.2,0.4,0.4,0.4,0.7
		c0.1,1.2,0.8,1.9,1.4,2.8c0.4,0.7,0.7,1.4,1.2,2.1c0.7,1,0.4,2.4,1.3,3.3c1,1,1.4,2.2,2,3.4c0.6,1.1,1,2.2,1.6,3.2
		c0.3,0.6,0.7,1.2,1.4,1.4c1.4,0,2.6-0.2,3.6-1.3c1-0.4,2-0.7,2.8-1.4c0.8-0.7,1.8-1,2.8-1.5c0.9-0.5,1.9-1,2.8-1.4
		c0.7-0.3,1.3-0.8,2-1.3c1.4-1.1,2.8-2.5,4.7-2.8c2.3-1.6,4.9-2.8,7.3-4.1c0.3-0.2,0.4-0.6,0.6-0.9c-1-2-1.7-4-3.1-5.6
		c0-1-0.1-1.9-0.1-2.8l0,0c0.2,0.1,0.6,0,0.7,0.2c0.4,0.6,0.7,1.3,1.1,1.9c0.1,0.2,0.4,0.1,0.7,0.2c-0.2,1.2,0.5,2,1.1,2.9
		c0.9,0.5,1.5,1.4,2.6,1.6c0.3-0.9,0.3-1.8,0-2.7c-0.1-0.4-0.2-0.7,0-1.1c0.4-0.8,0.3-1.8,0.8-2.6c0.5-0.8,0.6-1.7,0.9-2.6
		c0.4-1,0.6-2,1-3c0-1.8,0.9-3.3,1.6-4.7c-0.1-0.7-0.3-1.1-0.9-1.2c-1.4-0.1-2,0.4-2.2,1.7c-0.1,0.7,0,1.3-0.4,1.9
		c-0.6,0.9-0.5,2.1-1.2,2.9c-0.3,0.3-0.5,0.6-0.9,0.6c0-1.3,0-2.6,0.8-3.8c0.4-0.7,0.6-1.5,0.8-2.2c0.1-0.2-0.3-0.9-0.5-1
		c-1.1-0.5-2.2-0.2-2.5,0.9c-0.2,0.5-0.3,1-0.6,1.5c-0.5,0.5-0.3,1.3-0.5,1.9c-0.3,0.6-0.7,1.1-1.4,1.3c0.1-1.4-0.2-2.9,0.5-4.3
		c0.2-0.3-0.2-0.6-0.7-0.6c-0.4,0-0.8,0-1.2,0.1c-0.7,0.1-1,0.3-1,0.9c-0.1,0.7-0.2,1.3-0.6,1.9c0.3,0.9,1.4,1.3,1.4,2.3
		c-0.3,0.4-0.5,0.9-0.8,1.3l0.1-0.1c-0.1,0-0.3,0-0.4-0.1c-0.5-1.1-1.2-2-1.2-3.3c0-0.4-0.2-0.8-0.4-1.1c-0.9-2.4-0.7-2.6,1.9-2.7
		c0.7,0,1.3-0.1,1.9-0.5c0.6-0.4,1.3-0.4,1.9-0.4c0.9-0.1,1.7-0.7,2.7-0.7c0.9,0,1.9-0.1,2.8-0.1c2.2,0,4.2-0.6,6.3-1.2
		c0.9,0.5,1.6,1.7,3,1.5c0.7,0.3,1.4,0.6,2.2,1c0.4,0.2,0.7,0.5,1.1,0.4c1.4,0,2.5,0.6,3.8,1.2c0.5,0.6,1.1,1.1,1.6,1.7
		c0.1,0.1,0,0.3,0,0.4l0.1-0.1c-0.5,0.2-0.9,0.4-1.3,0.5c-1.1-0.5-1.7-1.5-2.9-1.4c-0.7-0.3-1.5-0.6-2.2-1c-0.5-0.3-1-0.3-1.5-0.4
		s-1-0.2-1.5-0.4c-0.4-0.1-0.7-0.3-1.1,0c-0.6,0.7-1.2,1.4-1.5,2.3c-0.4,1.1-0.9,2.2-1.6,3.2c-1.7,2.6-2.7,5.1-3.3,8
		c-0.2,0.8-0.5,1.5-0.7,2.3c-0.2,0.9,0,1.9-0.5,2.9c-0.2,0.2-0.4,0.5-0.7,0.8c-0.8,0.9-1.7,1.7-2.9,1.9c-0.4,0.1-0.7,0.3-1,0.6
		c-0.6,0.4-1.1,0.7-1.8,0.9c-2.7,1.1-5.3,2.4-7.7,4.1c-0.7,0.5-0.9,1.3-1.8,1.6c-2,1.6-4.3,2.6-6.3,4.2c-0.3,0.2-0.7,0.4-1.1,0.5
		c-2,0.4-3.6,1.7-5.2,2.9c-0.3,0.2-0.6,0.6-0.7,1c-0.1,0.8-0.6,1.4-1,2.2c-0.4,1-1,1.9-0.7,3.1c-0.2,1.9,0.1,3.7-0.1,5.6
		c0,0.3,0,0.6,0.1,0.8c0.8,1.8,0.6,3.6,0.5,5.5c0,0.5,0,1.1,0,1.6c0.1,1,0.5,1.7,1.5,2.2c0.6-0.4,1.3-0.8,2-1.3
		c1.5-1.1,3-2.3,4.5-3.3c1.6-1,3-2.1,4.6-3.1c1.7-1,3-2.6,4.8-3.5c1.2-1.3,2.8-2,4.4-2.7c1.4-0.6,2.6-1.2,3.7-2.2
		c1.2-1,2.8-1.6,4.4-1.5c1.5-0.9,3-1.8,4.4-2.6c0.1-0.3,0.2-0.5,0.2-0.8c0.1-2,0.1-4,0.1-6c0-1.7,0-3.4,0.1-5.2
		c0-0.2,0.2-0.5,0.4-0.7c1-1,2.1-1.7,3.5-1.5l0,0c-0.1,0.2-0.1,0.6-0.2,0.7c-0.6,0.7-1.3,1.3-2.1,1.9c-0.2,0.7-0.4,1.5-0.6,2.3
		c-0.1,0.4-0.3,0.8-0.1,1.1c0.6,1.2,0.5,2.6,0.6,3.9c0.1,1.3,0.1,2.7,0,4c0,0.8-0.2,1.6-0.3,2.2c-0.8,0.8-1.6,1.4-2.5,1.3
		c-1.4-0.1-2.5,0.9-3.8,1c-1.7,0.8-3.4,1.6-5,2.5c-1.5,0.9-2.9,1.9-4.3,2.9c-2.1,1.4-4.3,2.6-6.4,4c-0.7,0.5-1.3,0.9-1.9,1.5
		c-2.1,2-4.2,4.1-6.4,6.1c-0.9,0.8-1.5,1.8-1.9,2.7c-1.6,0.9-3.2,1.3-4.8,1.2c-1.9-0.1-3.7,0.1-5.6-0.2c-1.2-0.2-2.3-0.7-3.5-0.7
		c-1.1,0-2.1-0.1-3.2-0.1c-0.8,0-1.6-0.1-2.3-0.5c-0.3-0.2-0.8-0.1-1.2-0.1c-1.5-0.1-2.9,0.1-4.4-0.3
		C83.4,128.6,83.3,128.3,83.2,128.1L83.2,128.1z"/>
	<path class="st0" d="M221.8,6.3c0.1-0.2,0.1-0.6,0.3-0.7c0.9-0.8,1.8-1.6,2.4-2.2c1.3-0.6,2.4-0.1,3.4-0.8c0.3-0.2,0.7-0.2,1.1-0.3
		c1-0.1,2.2,0.1,3.1-0.6c0.7,0,1.4-0.2,2,0c1.1,0.3,2.3,0.8,3.4,1.2c0.9,0.3,1.6,0.9,2.1,1.8c0.2,0.3,0.5,0.6,0.8,0.9
		c0.6,0.6,1.2,1.1,1.7,1.7c0.4,0.5,0.8,1,1.2,1.5c0.6,0,1.1,0,1.6,0c0.8,0.1,1.6-0.1,2.3-0.4c1-0.5,2.1-0.6,3.1-0.1
		c1,0.4,2,0.7,3.1,0.7c0.7,0,1.3,0.4,1.9,0.6c1.3,0.3,1.7,1.7,2.9,2c0.3,0.4,0.7,0.8,0.9,1.3c0.7,1,1.3,2,1.9,2.9
		c0.1,1,0.2,2,0.3,2.9c0.1,0.2,0.2,0.5,0.4,0.6c1,0.5,1.2,1.4,1,2.3c-0.1,0.6-0.4,1.3-0.6,1.9c-0.1,0.6-0.2,1.3-0.3,2
		c-1.9,1.5-3.1,3.6-4.5,5.6c-0.5,1.4-0.4,2.9-0.4,4.4c-0.3,0.8-0.7,1.6-1,2.5c-0.1,0.3,0.1,0.7,0.1,1.1c-0.5,1.1-0.9,2.2-1.5,3.2
		c-0.7,1.1-1.8,2-2.7,3c-0.7,0.8-1.5,1.5-2.5,2c-1.4,0.8-2.5,2-4.8,2.5c-0.9,0-2.5,0.1-4.1,0.1c-0.7,0-1.2,0.7-1.9,0.3
		c-0.5-0.3-1,0.2-1.5,0s-1.1,0.2-1.2,0.7c-0.1,0.3-0.2,0.5-0.2,0.8c0,0.5-0.1,1.1,0,1.6c0.2,0.6,0.2,1.2,0.1,1.9
		c-0.3,1.6-0.5,3.2,0.3,4.7c0,1.3,0.6,2.6,1,3.7c-0.6,1.2-1.3,2.1-2.6,2.5c-0.5,0.2-0.8,0.6-1.3,0.9c0.2,0.4,0.4,0.7,0.6,1
		c-0.4,0.4-0.8,0.3-1.1,0c-0.4-0.5-0.9-1-1.1-1.6c-0.4-1.5-0.9-3-0.9-4.7c0-2.1,0-4.3,0-6.2c0.4-0.9,0.9-1.6,0.4-2.4
		c-0.3-0.4,0-0.8,0.1-1.3c-0.3-0.6-0.6-1.3-1-2c-0.3-0.6-0.6-0.7-1.3-0.3c-0.2,0.1-0.5,0.2-0.8,0.4c-0.9,0-2,0-3.1,0
		c-1,0.4-1.9,0.9-2.9,1.3c-0.8-0.6-1.8-0.4-2.7-0.5l0,0c0-0.1,0-0.3,0.1-0.4c0.5-0.3,1.1-0.6,1.7-1c0.6-0.5,1.2-1.1,1.8-1.6
		c0.3-0.3,0.5-0.7,0.9-0.8c1.3-0.5,2.1-1.6,2.8-2.7c0.4-0.6,0.6-1.2,0.9-1.7c0.6-1.1,0.9-2.2,0.7-3.5c-0.1-0.9-0.1-1.9-0.1-2.8
		c-0.6-1.3-1.2-2.6-1.9-3.9c-0.2-0.5-0.3-1-0.5-1.5c-0.2-1-0.8-1.6-2-1.6c-0.8,0-1.6-0.1-2.4,0.1c-1.5,0.7-2.6,1.8-3.9,2.8
		c-0.1,0-0.2,0-0.3,0c-0.1-0.1-0.2-0.2-0.2-0.3c0.2-0.7,0.5-1.5,0.8-2.2c0.7-1.7,0.9-3.6,1.4-5.4c-0.2-0.3-0.4-0.7-0.5-1.1
		c-0.4-2.4-1-4.7-2.5-6.6c0-1-0.7-1.7-1.2-2.4c-0.3-0.4-0.6-0.9-0.8-1.2c-2.9-2.3-6.1-3.6-9.1-5.2c-2.3,0-4.6,0-6.8,0
		c-0.4,0-0.9,0-1.2,0.2c-0.7,0.4-1.2,0-1.8-0.3l0.1,0.1c0-0.3,0.1-0.6,0.4-0.6c1.2-0.2,2.4-0.1,3.4-0.9c1.7,0,3.5-0.5,5.1,0.3
		c1.1,0.5,2.4,0.1,3.4,1c1.2,0.4,2.1,1.1,3.2,1.6c0.7,0.3,1.5,0.6,2.4,1c1.4-0.1,3-0.1,4.5-0.2c1.4-0.7,2.2-2,3.3-2.9
		c0.2-0.1,0.5-0.2,0.7-0.2c0.1,0.6-0.1,1-0.3,1.5c-0.1,0.2-0.3,0.5-0.2,0.7c0.2,0.6,0,1-0.5,1.3c-0.2,0.2-0.4,0.3-0.7,0.4
		c-0.8,0.3-1.3,0.9-1.6,1.7c-0.2,0.4-0.3,0.7-0.5,1.1c-0.6,1.2-0.5,2.3,0,3.5c0.7,1.4,1.5,2.8,1.5,4.5c0.7,0.9,0.6,2,0.8,3
		c0,0.2,0.3,0.4,0.5,0.5c0.2,0.1,0.5,0.1,0.8,0.1c1.2,0,2,0.5,2.8,1.4c0.9,1.1,1.7,2.3,2.3,3.7c0.6,1.5,1.1,3,1.9,4.4
		c0.3,0.6,0.5,1.2,0.5,1.9c0,0.7,0.3,1.3,0.5,1.9c0.1,0.5,0,1,0,1.6c-0.9,1-0.3,2.4-0.9,3.4c-0.2,0.2-0.3,0.4-0.5,0.6
		c-0.2,0.2-0.3,0.4-0.5,0.6c-0.6,0.8-0.4,1.6,0.4,2c2,1,4.1,1.8,6.5,1.7c1.5,0,2.9,0,4.4,0.1c1.1,0.1,2.1,0.3,3.1,0.4
		c2-0.6,3.8-1.3,5.7-2.1c0.6-0.3,1.2-0.5,1.7-1c2-1.8,3.5-4,5.1-6c0.2-1,0.1-2,0.6-2.8c0.2-0.5,0.3-1,0.3-1.5c0-0.7,0-1.3,0-2
		c0-0.8,0.1-1.6-0.2-2.4c-0.4-0.3-0.7-0.6-1.1-0.8c0.3-0.7,1-1,1.1-1.7c-1.3-1.8-1.3-1.8-3.2-2.9c-0.9-0.5-1.6-1.3-2.7-1.7v-0.2
		c0.1-0.1,0.2-0.2,0.3-0.2c0.5,0,1.1,0,1.6,0.2c1,0.4,1.9,0.8,2.9,1.2c0.6,0.3,1.2,0.6,1.9,0.7c1,0.3,2.1,0.4,3.1,0
		c1-0.4,1.1-1.4,1.5-2.3c0.1-0.1,0.1-0.2,0.2-0.4c0.1-0.7,0.3-1.4,0.1-2c-0.6-1.9-1-3.8-2.3-5.5c-1-1.3-1.9-2.6-2.9-4
		c-1.1-0.5-2.3-1.1-3.3-1.6c-2.4-0.4-4.7-0.1-7-0.1c-0.3,0-0.6,0-0.8,0.2c-0.8,0.5-1.8,0.5-2.7,0.7c-1,0.2-2,0.6-3,1
		c-1.2,1-2.5,2-3.5,3.2c-0.2,0.2-0.4,0.3-0.7,0.4c-0.1,0.1-0.3,0.1-0.4,0c-0.3-0.1-0.3-0.3-0.2-0.6c0.4-1.4,0.9-2.8,1.6-4.1
		c0.4-0.8,0.8-1.7,1.1-2.5c0-0.6,0-1.1,0.1-1.7c0.1-1-0.3-1.8-1.2-2.3c-0.8-0.4-1.6-0.9-2.4-1.3c-0.2,0.2-0.4,0.3-0.7,0.5
		c-0.3,0.2-0.7,0.4-0.9,0.5c-0.5-0.2-0.9-0.3-1.3-0.4c-0.4-0.1-0.8-0.1-1.2-0.1c-1,0.4-1.9,0.9-2.9,1.2c-0.3,0.1-0.7-0.1-1.1-0.1
		c-0.8,0.7-1.6,1.4-2.4,2.1C222.6,6.2,222.2,6.3,221.8,6.3z"/>
	<path class="st0" d="M223.4,88c1.5-0.3,2.9-0.1,4.4,0c1.3,0.1,2.5,0.8,3.9,0.8c1.7,0.7,3.3,1.7,4.4,3.3c0.2,0.3,0.3,0.8,0.3,1.1
		c-0.1,1.3,0,2.7-0.6,3.9c-0.2,0.4-0.2,1-0.2,1.6c0,0.8,0,1.6-0.1,2.4c-0.1,0.8-0.4,1.6-1.3,1.9c-0.7-0.7-0.3-1.5-0.5-2.3
		c-0.1-0.2-0.2-0.5-0.4-0.6c-0.2-0.1-0.5,0-0.7,0.1c-0.1,0-0.2,0.2-0.2,0.3c-0.1,1.2-0.1,2.4-0.2,3.6c0,0.3-0.3,0.5-0.5,0.4
		c-0.1-0.1-0.2-0.2-0.3-0.3c-0.1-0.7-0.1-1.3-0.2-2.1c-0.3-0.4-0.6-0.8-0.9-1.2c-0.9,0.2-1.2,1.1-1.8,1.3c-0.5,0.8-0.5,1.4-0.5,2.1
		c0,0.4,0,0.8-0.4,0.9c-0.2,0-0.3-0.4-0.4-0.6c-0.1-0.4-0.4-0.7-0.6-1c-0.2-0.2-0.5-0.3-0.6-0.1c-0.1,0.2-0.3,0.5-0.2,0.7
		c0.1,0.4,0.4,0.7,0.5,1c0.1,0.3,0,0.5-0.3,0.7c-0.3,0.2-0.9,0.2-1.1-0.1c-0.1-0.2-0.2-0.5-0.3-0.7c-0.1-0.3-0.4-0.4-0.6-0.4
		c-0.3,0-0.5,0-0.6,0.3c-0.2,0.5-0.3,1-0.4,1.5c-0.1,0.3-0.6,0.5-1,0.3c-0.2-0.1-0.4-0.4-0.6-0.5c-0.9-0.5-1.9-0.2-2.2,0.8
		c-0.2,0.6-0.3,1.3-0.8,1.8c-0.1,0.1-0.2,0.2-0.4,0.2c-0.1,0-0.2-0.2-0.2-0.2c0-0.5,0-1.1-0.1-1.6c-0.1-0.4-0.4-0.7-0.6-1.1
		c-0.8,0.1-1.6,0-2.4,0.2c-1.4,0.5-2.9,0.6-4.3,0.6c-3.1,0-6.1,0-9.2-0.1c-0.5,0-1-0.2-1.5-0.5c-0.9-0.5-1.8-0.6-2.7-0.4
		c-0.8,0.1-1.3,1.2-0.8,1.9c0.5,0.8,1.1,1.5,2,2c1.8,0.4,3.7,0,5.5,0.1c0.2,0,0.5,0.2,0.7,0.3c0.2,0.1,0.2,0.2,0,0.2
		c-0.1,0-0.2,0.2-0.3,0.2c-1.3,0.1-2.7,0.2-4.2,0.3c-0.8,0.3-1.7,0.8-2.7,1.2c-0.5-0.3-1.2-0.5-1.7-0.9c-0.3-0.2-0.7-0.5-0.8-0.8
		c-0.4-1-0.9-1.9-1.4-2.8c-1.1-1.8-1.5-3.7-1.2-5.7c0.1-0.5,0-1.1,0-1.5c1-1.7,2-3.3,2.9-4.9c0.4-0.6,1-0.8,1.7-0.7l0.1,0.1
		c0,0.4-0.1,0.8-0.1,1.2c-1.1,0.9-1.4,2.2-2,3.4c-0.4,1-0.5,2-0.1,3.1c1.6,0.8,3.2,1.6,4.9,2.5c0.1,0.1,0.3,0.1,0.4,0.1
		c0.1,0,0.3,0,0.4,0c0.6-0.3,0.9-1,1.6-1.1c0.1,0.1,0.2,0.2,0.2,0.3c0.2,1.1,1,1.6,2,1.6c2.1,0.1,4.3,0,6.4,0.1
		c0.5,0,1.1-0.1,1.5-0.3c0.6-0.3,1.3-0.3,1.9-0.3c0.7,0,1.3,0,1.9-0.4c0.6-0.3,1.3-0.4,1.9-0.4c1.6-0.1,3.1-0.6,4.6-1.3
		c3.3-1.6,6.7-3.2,9.4-5.8c0.3-0.3,0.6-0.5,0.8-0.7c0.2-0.8,0.3-1.7,1-2.2c0.2-0.1,0.4-0.4,0.5-0.6c0.2-0.3,0.2-0.9,0-1.1
		c-0.7-1-1.6-1.7-2.5-2.4c-0.2-0.1-0.3-0.2-0.4-0.2c-2.5-0.8-5-1.8-7.7-2c-0.1,0-0.2-0.1-0.3-0.2c-0.1-0.1-0.1-0.3-0.1-0.4L223.4,88
		z"/>
	<path class="st0" d="M77.6,161.7c0.3,0,0.5-0.1,0.8,0c0.9,0.2,1.8,0.5,2.7,0.7s1.9,0.2,2.7,0.5c1,0.3,2,0.5,3.1,0.5
		c0.5,0,1.1,0,1.6,0.2c1.1,0.6,2.3,0.5,3.5,0.5c2,0,4,0.1,6,0.1c1.2,0,2.4,0,3.5,0.6c0.5,0.3,1.3,0.1,2,0.2c0.1,0,0.2,0.1,0.3,0.2
		c0.1,0.1,0,0.4-0.4,0.4c-2,0.1-4,0.1-6,0.1c-0.5,0-1.1,0-1.6-0.1c-1.4-0.6-2.9-0.5-4.3-0.5c-1.5,0-2.9-0.1-4.4-0.1
		c-0.9,0-1.8-0.1-2.7-0.5c-0.5-0.2-1,0.2-1.5,0.2c-0.4,0-0.7-0.4-1.1-0.4c-1,0.1-1.7-0.6-2.6-0.9c0-0.3,0-0.5-0.3-0.6
		c-0.1,0-0.2,0-0.3,0.1c-0.2,0.2,0,0.4,0.6,0.4c-0.2,0.6-0.7,0.9-1.2,0.7c-0.9-0.4-1.7-0.7-2.6-0.8c-0.5,0-1-0.4-1.5-0.5
		c-1.1-0.3-2.1-1.1-3.4-1.1c-0.5,0-1-0.4-1.4-0.6c-1.2-0.6-2.5-1-3.7-1c-0.8-0.4-1.5-0.8-2.2-1.1c-1.1-0.5-2.1-1-3.3-1.3
		c-1.5-0.4-2.9-1.2-4.3-1.9c-1.2-0.6-2.2-0.6-3.2,0.2c-0.6-0.3-1.1-0.5-1.6-0.7c-0.5,0.2-1,0.5-1.5,0.7c-0.8,0.3-1.5,0.3-2.3-0.2
		c-0.4-0.3-1-0.3-1.5-0.5l0.1,0.1c0.4-1.3,0.9-1.6,2.4-1.6l-0.1-0.1c0.2,0.4,0.5,0.7,0.9,0.7c0.8,0,1.6,0,2.3,0
		c0.6,0,1.1-0.9,0.8-1.5c-0.3-0.7-0.8-1.3-1.6-1.6l0.1,0.1c0.2-1.1,0.9-1.5,2-1.5c0.7,1.6,2,2.8,3.6,3.6c1.7,0.9,3.6,1.7,5.3,2.6
		c2,0.1,3.5,1.8,5.5,2c1.7,0.8,3.4,1.3,5.1,2.1c0.5,0.2,1,0.4,1.6,0.7c1.1,0.1,2.4,0.3,3.7,0.5c0.2,0,0.3,0.4,0.5,0.6
		c-0.4,0-0.7,0-1.1,0.1c-0.1,0-0.2,0.2-0.3,0.3c0.1,0.1,0.2,0.2,0.3,0.3C77.2,162.5,77.2,162.5,77.6,161.7z"/>
	<path class="st0" d="M69,98.5c0.7,0.6,1,1.4,1.4,2.1c0,1.7,0.1,3.4,0,5.1c-0.1,1.9,0.1,3.7,0.2,5.6c0,0.5,0.1,1.1,0.3,1.5
		c0.7,1.4,0.4,2.9,0.1,4.3c-0.1,0.4-0.8,1-1.1,1c-1.7,0-3.5,0.1-5.2,0.1c-1.2,0-2.4-0.1-3.5-0.4c-1.1-0.3-2.4-0.2-3.6-0.3
		c-0.3,0-0.8-0.4-0.7-0.8c0.1-0.9-0.8-1.7-0.3-2.7c-0.8-2.2-0.3-4.5-0.4-6.7c0-0.4,0.2-0.8,0.3-1.1c0.4-1.3,0.8-2.5,1.1-3.8
		c0.1-0.6,0.5-1,0.9-1.2c1-0.6,2-1.2,3.3-1.3c0.9-0.1,1.8-0.5,2.7-0.7c0.8-0.1,1.6,0,2.4-0.1C67.6,99,68.3,98.7,69,98.5z M70,115.9
		c-0.2-1.1-0.3-2.2-0.5-3.2c-0.1-0.7,0-1.4-0.2-2c-0.4-1-0.4-2.1-0.4-3.1c0-1.7,0-3.5,0-5.2c0-0.5,0-1.1-0.1-1.6
		c0-0.3-0.4-0.7-0.8-0.7c-1.1,0-2.1-0.1-3.3,0.4c-0.7,0.9-1.6,2-2.8,2.6c-1.1,0.6-1.9,1.5-2.5,2.3c-0.3,1.3-0.7,2.4-0.9,3.6
		c-0.2,1.5-0.1,2.9-0.1,4.4c0,0.8,0.4,1.5,1.3,1.9c1.2,0.5,2.5,0.9,3.9,0.9c0.5,0,1,0.1,1.4,0.1c0.4,0.2,0.6,0.4,0.8,0.5
		c0.3,0.2,0.6,0.5,0.9,0.7c0.7,0.1,1.4,0.1,2-0.2C69.4,116.9,69.8,116.4,70,115.9z"/>
	<path class="st0" d="M82.1,121.6c-0.6-0.4-1-0.9-1.3-1.5c-0.1-0.2-0.1-0.5,0-0.8c0-0.4,0.4-0.8,0.8-0.7c1.4,0.5,2.8,0.7,4.3,0.6
		c0.8,0,1.6,0.1,2.3,0.4c0.9,0.3,1.8,0.5,2.7,0.4c0.5,0,0.9-0.5,0.9-1.1c0-0.3,0.1-0.6,0-0.8c-0.8-1.1-0.6-2.3-0.6-3.5
		c0-2.7,0-5.3-0.1-8c0-0.7-0.6-1.2-1.3-1.1c-0.3,0-0.5,0-0.8,0.1c-1.8,0.4-3.5,1.2-5.3,1.6c-0.4,0.1-0.6,0.4-0.9,0.7
		s-0.6,0.5-0.9,0.9c-0.3,0.8-0.5,1.7-0.8,2.6c-0.3,0.9-0.3,1.8-0.8,2.6c-0.3,0.5-0.3,1.3-0.3,1.9c0,1.5,0.2,2.9-0.2,4.3
		c-0.1,0.3-0.3,0.4-0.6,0.3c-0.1,0-0.2-0.1-0.3-0.1c-0.1-0.1-0.2-0.2-0.2-0.3c-0.1-0.9-0.2-1.9-0.3-2.8c0-0.7,0-1.3,0-2
		c0-2.5,0.1-5,0.1-7.5c0.3-0.4,0.5-0.8,0.9-1c1.2-0.6,2.4-1.1,3.7-1.4c0.3,0,0.5-0.1,0.8-0.1c1,0.1,2-0.7,3.1-0.2
		c0.8-0.5,1.8-0.4,2.7-0.6c0.6-0.1,1.3-0.4,1.8-0.6c0.7,0.3,1.2,0.8,1.2,1.5c0.1,1.7,0.2,3.5,0.2,5.2c0,1.3-0.1,2.7-0.1,4
		c0.1,2-0.1,4,0.7,5.9c0.3,0.8-0.9,2-1.7,1.7c-1.4-0.5-2.8-0.8-4.2-1.1c-0.9-0.2-1.8-0.3-2.7-0.3c-0.7,0-1.3,0.2-1.9,0.6
		C82.7,121.7,82.4,121.6,82.1,121.6z"/>
	<path class="st0" d="M135.3,8.7c0.1-0.2,0.2-0.6,0.3-0.6c1.2-0.1,2.3-0.1,3.5-0.1c0.2,0,0.5,0.1,0.7,0.2c1.3,0.7,2.8,0.4,4.1,1.1
		c0.4,0.2,1,0.2,1.5-0.1c0.8-0.4,1.7-0.7,2.6-0.5l0,0c0.1,0.5,0.1,1-0.3,1.5c-0.6,0.6-1.1,1.1-1.6,1.7c-0.6,0.6-0.4,1.5-0.8,2.2
		c-0.3,0.7-0.6,1.4-1,2.2c0,0.1,0.1,0.2,0.1,0.3c0.2,0.7,0.1,1.1-0.3,1.3c-0.7,0.4-1.4,0.6-2.2,0.1c0.5-1.1,0.5-2.2-0.2-3.3
		c-0.9-1.4-1.8-2.8-3-4.2c-0.3,0-0.7-0.1-1.1-0.1c-0.9,0-1.5-0.4-1.8-1.3C135.8,8.9,135.5,8.8,135.3,8.7L135.3,8.7z"/>
	<path class="st0" d="M219.5,50.3c-0.1,0.2-0.2,0.6-0.3,0.6c-1.7,0.6-3.5,1-5.2,1.6c-0.8,0.3-1.8,0.2-2.8,0.3
		c-1.2,0.4-2.2,1.3-3.6,1.5c-0.5,0.1-0.9,0.4-1.3,0.8c-0.8,0.7-1.5,1.4-2.3,2.1c-0.4,0.3-0.8,0.8-1.2,1c-0.6,0.3-1,0.9-1.7,0.9
		l0.1,0.1c-0.2-0.6-0.4-1.3-0.6-2.1c1-0.9,1.7-2.1,2.1-3.5c0.4-1.3,0.2-2.6-0.8-3.8c-0.2-0.2,0-0.7,0.3-0.9c1.9,0.9,3.8,1.9,5.7,2.8
		c0.8-0.4,1.6-0.6,2.4-0.3s1.5,0.4,2.3,0c0.6-0.3,1.3-0.2,1.9-0.3c0.5-0.1,1,0,1.5-0.3C217.1,50.1,218.3,50.2,219.5,50.3L219.5,50.3
		z M204.6,51.8c0.1-0.1,0.2-0.2,0.2-0.2c0-0.1-0.1-0.2-0.2-0.3c-0.1,0.1-0.2,0.2-0.2,0.2C204.4,51.6,204.6,51.7,204.6,51.8z"/>
	<path class="st0" d="M72.1,78.9c0.6-0.8,1.2-1.7,1.8-2.6c0.1-0.1,0.2-0.2,0.3-0.2c0.8-0.1,1.6-0.1,2.4-0.2s1.5-0.4,2.3-0.6
		c0.3-0.1,0.9,0.3,0.9,0.6c0.1,0.4,0.1,0.8,0.1,1.2c0,0.9,0,1.9,0,2.8c0,0.7,0.1,1.3,0.4,1.9c0.1,0.3-0.1,0.4-0.4,0.4
		s-0.6-0.1-0.6-0.4c-0.1-0.5-0.2-1-0.2-1.6C79,79.3,79,78.3,79,77.4c0-0.2-0.3-0.5-0.5-0.6c-0.8-0.2-1.6-0.1-2.3,0.2
		c-0.2,0.1-0.5,0.3-0.6,0.5c-0.6,1-1.1,2.1-1.7,3.2c-0.5,0.9-0.5,1.8-0.4,2.8c0.3,0.3,0.7,0.6,1.2,1c1.3,0.2,2.6,0.2,3.9,0.2
		c0.5,0,1-0.3,1.3-0.8c0.1-0.2,0.3-0.4,0.5-0.6c0.1,0.1,0.2,0.2,0.2,0.3c0.5,1.5-0.4,2.8-1.9,2.6c-0.4,0-0.8-0.2-1.1-0.3
		c-0.4-0.1-0.8-0.2-1.2-0.2c-0.2,0-0.5,0.3-0.7,0.3c-1-0.2-2.1-0.4-3.1-0.6c-0.2-0.1-0.4-0.3-0.5-0.6c-0.1-0.4-0.2-0.8-0.2-1.2
		C72,82.1,71.9,80.5,72.1,78.9z"/>
	<path class="st0" d="M98.4,64.7c0.1,0.5,0,1.1-0.4,1.5c-0.6,0.6-1.1,1.1-1.8,1.7c-1.7,0.3-3.4,0.3-5,0.1c-1.9-1.2-1.9-1.2-3-3.6
		c0.1-0.2,0.2-0.5,0.4-0.7s0.5-0.3,0.6-0.1c0.6,0.9,1.2,1.7,2,2.4c0.8,0.5,1.9,0.2,2.5,0.9c0.9-0.2,1.6-0.7,2.4-0.5
		c0.6-0.5,1-1,1.6-1.4C97.9,64.8,98.2,64.8,98.4,64.7L98.4,64.7z"/>
	<path class="st0" d="M197,95.1c0-0.5,0.1-1.1,0.6-1.3c0.9-0.3,1.6-0.6,2.4-1.1c1.9-1.2,3.9-2.1,6.1-2.4c0.5-0.1,1-0.2,1.5-0.4
		c0.7-0.4,1.5-0.4,2.3-0.3l0,0c0,0.1,0,0.3-0.1,0.4c0,0.1-0.1,0.2-0.2,0.3c-0.9,0.3-1.7,0.7-2.6,0.9c-1.6,0.2-3,0.8-4.3,1.8
		c-0.8,0.6-1.8,1.1-2.8,1.4c-1.2-0.3-1.9,0.6-2.9,1V95.1z"/>
	<path class="st0" d="M209.9,89.6c0-0.1,0-0.3,0.1-0.4c0.2-0.2,0.4-0.3,0.6-0.4c0.6-0.1,1.3-0.1,1.9-0.5c0.4-0.3,0.8-0.6,1.3-1
		c3.1-0.2,6.2-0.2,9.3,0.2c0.2,0,0.3,0.4,0.4,0.6l0.1-0.1c-1.5,0-2.9,0-4.4,0c-0.7,0-1.3,0.1-1.9,0.4c-0.9,0.6-2.1,0.3-3,1
		c-0.2,0.1-0.5,0.1-0.8,0.1C212.2,89.6,211,89.6,209.9,89.6L209.9,89.6z"/>
	<path class="st0" d="M49.6,146.5c0-0.1,0-0.3,0-0.4c1.6-2,3.5-3.6,5.7-4.9c0.6-0.4,1.2-0.4,1.9-0.1c0.3,0.1,0.4,0.4,0.3,0.7
		c0,0.1-0.1,0.2-0.2,0.3c-0.1,0.1-0.2,0.2-0.3,0.2c-1.4,0-2.5,0.9-3.5,1.7c-1,0.7-1.8,1.5-2.8,2.3C50.3,146.5,49.9,146.6,49.6,146.5
		L49.6,146.5z"/>
	<path class="st0" d="M112,61.5c0,0.4,0,0.9-0.2,1.2c-0.6,0.9-1.3,1.7-2.1,2.3c-0.6,0.4-1.2,0.6-1.9,0.6c-1.4,0-2.7-0.2-3.1-1.9
		c-0.1-0.5-0.8-0.8-0.6-1.4c0-0.1,0.1-0.3,0.2-0.3c0.1-0.1,0.2-0.1,0.3,0c0.3,0.3,0.6,0.5,0.9,0.8c0.3,0.4,0.5,0.9,0.8,1.4
		s1.6,0.8,2.2,0.4c0.4-0.3,0.9-0.6,1.3-1c0.8-0.7,1.4-1.6,2.4-2L112,61.5z"/>
	<path class="st0" d="M128.5,59.2c0.2,0.2,0.4,0.5,0.7,0.9c0.6,0.7,1.4,0.7,2.2,0.5c0.5-0.1,0.9-0.6,1.5-0.5c0.3,0,0.5,0.2,0.5,0.5
		c-0.4,0.3-0.8,0.7-1.2,0.9c-0.8,0.2-1.5,0.6-2.2,0.8c-1.4,0.5-2.6-0.5-2.6-2.1C127.4,59.6,127.5,59.4,128.5,59.2z"/>
	<path class="st0" d="M142.9,60.5c0.5-0.1,1-0.3,1.5-0.4c0.1,0,0.3,0.1,0.3,0.2c0,0.1,0,0.2-0.1,0.3c-0.3,0.6-0.9,1-1.6,1
		c-0.6,0-1.3,0-1.9,0c-0.7,0-1.3-0.3-1.6-0.9c-0.3-0.4-0.6-0.8-0.8-1.3c-0.1-0.2,0.1-0.5,0.3-0.7c0.2-0.1,0.5-0.1,0.7,0
		c1.3,1.1,1.3,1.1,2.5,1.5c0.1,0,0.2,0.1,0.4,0.2C142.7,60.4,142.8,60.4,142.9,60.5z"/>
	<path class="st0" d="M115.2,69.5c0,0.4,0,0.8,0,1.2c-0.6,0.6-1.1,1.2-1.6,1.8c-0.4,0.1-0.7,0.2-1.1,0.3c-2,0.3-2.7-0.1-3.4-2.3
		c-0.1-0.2,0.2-0.5,0.2-0.7c0.7,0.6,1.4,1.2,2.1,1.7c0.4,0.4,0.8,0.2,1.4,0c1-0.4,1.4-1.6,2.5-1.9L115.2,69.5z"/>
	<path class="st0" d="M211.1,122.7c0.1,0.4,0.3,0.7,0.3,1.1c0,1.4-0.1,2.9-0.2,4.3c0,0.3-0.3,0.7-0.6,1c-0.2,0.3-0.4,0.3-0.6,0.1
		c-0.1-0.1-0.1-0.2-0.1-0.3c0.1-0.5,0.2-0.9,0.4-1.4c-0.4-0.6-0.4-1.2-0.4-1.9c0-0.5-0.1-1-0.1-1.6c0-0.6,0.4-0.9,0.9-1.2
		C210.9,122.8,211,122.8,211.1,122.7z"/>
	<path class="st0" d="M276.1,112.5c-0.9-0.2-1.8-0.4-2.7-0.6c-0.7-0.1-1-0.7-0.9-1.5c0.1-0.4,0.5-0.8,0.8-0.7c1,0.4,1.9,0.8,3,1
		c0.1,0,0.2,0.2,0.3,0.2c0.3,0.2,0.4,0.7,0.1,1C276.5,112.2,276.3,112.4,276.1,112.5z"/>
	<path class="st0" d="M123.2,61.1c-0.7,0.4-1.3,0.8-2,1.1c-1,0.5-2.4,0.1-3.2-0.8c-0.2-0.3-0.3-0.8,0-1c0.2-0.1,0.5-0.3,0.7-0.2
		c1.2,0.7,2.4,0.9,3.8,0.7C122.7,60.8,122.9,61,123.2,61.1z"/>
	<path class="st0" d="M112.8,79.9c-0.1,0.2,0,0.5-0.2,0.7c-0.7,0.8-1.7,1.1-2.7,1.5c-0.4-0.3-0.8-0.7-1.2-1
		c-0.6-0.6-0.8-1.3-0.7-2.1c0-0.1,0.1-0.2,0.2-0.3c0.2-0.1,0.4-0.1,0.6,0.1c0.2,0.3,0.4,0.7,0.6,1c0.5,0.9,0.7,1,1.5,0.6
		C111.6,80.2,112.2,79.9,112.8,79.9L112.8,79.9z"/>
	<path class="st0" d="M100.8,82.4c-0.8,0-1.7,0.1-2.6,0.1c-0.2-0.2-0.3-0.4-0.5-0.6c0.2-0.1,0.4-0.3,0.6-0.4
		c0.6-0.1,1.3-0.1,2.1-0.2c0.9-0.8,1.9-1.7,2.9-2.5c0.1,0,0.2,0,0.3,0c0.1,0.1,0.1,0.2,0.1,0.4c-0.1,0.2-0.1,0.5-0.3,0.7
		C102.9,81,102,81.7,100.8,82.4z"/>
	<path class="st0" d="M108,87.1c-0.1,0.2-0.1,0.5-0.2,0.7c-0.7,0.8-1.7,1.2-2.6,1.7c-0.6,0.3-1.3,0.3-1.9,0.1
		c-0.7-0.1-1.3-0.8-1.4-1.6c0-0.3,0.1-0.5,0.4-0.5c0.5,0.4,1,0.7,1.6,1.1c1.1,0.1,2-0.5,2.9-1C107.1,87.3,107.6,87.2,108,87.1
		L108,87.1z"/>
	<path class="st0" d="M159.1,61.4c-0.7,0.7-1.4,1.5-2.2,2.2c-0.5,0.5-1.2,0.4-1.9,0.1c-0.3-0.1-0.4-0.4-0.3-0.7
		c0.1-0.2,0.2-0.6,0.3-0.6c1.3,0,2.3-0.5,3.2-1.4c0.1-0.1,0.2-0.1,0.4-0.1C158.9,60.9,159.1,61,159.1,61.4z"/>
	<path class="st0" d="M97.7,74.3c0.7,0,1.3,0.1,2,0.1c1.1,0.1,2.1-0.3,2.8-1.2c0.1-0.2,0.4-0.3,0.7-0.4c0.3-0.1,0.5-0.1,0.7,0.2
		c0,0.1,0,0.2-0.1,0.3c-0.5,0.6-1.1,1.1-1.6,1.6c-0.9,0.3-1.7,0.5-2.6,0.7c-0.4-0.1-1-0.3-1.6-0.6C97.8,74.9,97.8,74.6,97.7,74.3
		L97.7,74.3z"/>
	<path class="st0" d="M19.8,153.7c0,0.1,0,0.3-0.1,0.4c-0.5,0.4-1,0.9-1.5,1.3s-1.1,0.7-1.6,1.1c-0.5,0.4-0.8,1-1.5,1.2
		c-0.3,0.1-0.5,0-0.6-0.3c1.1-1.5,2.6-2.6,4.3-3.4c0.3-0.2,0.8-0.1,1.2-0.1L19.8,153.7z"/>
	<path class="st0" d="M153.7,57.5c0,0.4,0,0.8-0.1,1.2c-0.5,0.3-0.9,0.6-1.3,0.9c-0.6,0.4-1.3,0.3-1.8-0.1c-0.4-0.3-0.8-0.7-1.1-1.1
		c-0.1-0.1-0.2-0.3-0.1-0.4c0.2-0.2,0.3-0.4,0.6-0.4c0.2-0.1,0.5,0,0.8,0c0.6,0.1,1.1,0.8,1.8,0.6c0.5-0.1,1-0.4,1.4-0.6L153.7,57.5
		z"/>
	<path class="st0" d="M120.1,83.9c0,0.1,0,0.3,0,0.4c-0.3,0.6-0.9,1-1.5,1.1c-0.9,0.1-1.8,0.1-2.7,0.1c-0.6,0-1.2-0.9-1.3-1.7
		c0-0.1,0.2-0.2,0.3-0.3c0.4,0.3,0.8,0.6,1.2,0.9c0.7,0.5,1.5,0.6,2.2,0.2C118.9,84.3,119.4,83.9,120.1,83.9L120.1,83.9z"/>
	<path class="st0" d="M247.4,138.1c-0.6,0.5-1.2,0.4-1.8,0.2c-0.3-0.2-0.7-0.4-1-0.6c-0.4-0.3-0.5-1-0.2-1.3c0.2-0.2,0.8-0.4,1-0.3
		c0.8,0.2,1.4,0.7,1.8,1.3C247.5,137.5,247.4,137.8,247.4,138.1z"/>
	<path class="st0" d="M261.1,136.8c-1.2,0-1.6-0.6-1.4-1.6c0-0.1,0.1-0.2,0.2-0.3c0.1-0.3,0.4-0.4,0.6-0.3c0.7,0.1,1.5,0.6,2,1
		c0.1,0.1,0.1,0.5,0.1,0.7c0,0.1-0.2,0.2-0.3,0.3C261.8,136.7,261.3,136.8,261.1,136.8z"/>
	<path class="st0" d="M46.4,138.5c-0.1,0-0.8-0.1-1.4-0.2c-0.4-0.1-0.7-0.4-0.8-0.8c0-0.2,0.1-0.4,0.4-0.6c0.1,0,0.3,0,0.4,0
		c0.7,0,1.2,0.5,1.9,0.6c0.6,0.2,1.3,0.2,2,0.3c0.3,0.1,0.5,0.3,0.4,0.4c-0.1,0.1-0.2,0.2-0.3,0.2C48.2,138.5,47.6,138.5,46.4,138.5
		z"/>
	<path class="st0" d="M162.3,66.7c-0.2,0.7-0.7,1.1-1.4,1.3c-0.6,0.2-1.3,0.2-1.9-0.2c-0.2-0.1-0.3-0.4-0.4-0.6
		c-0.1-0.3,0-0.6,0.3-0.6c0.9-0.1,1.8-0.2,2.7-0.2C161.9,66.3,162.1,66.6,162.3,66.7z"/>
	<path class="st0" d="M222.3,141.9c0.9,0.6,1.7,1.1,2.6,1.8c0.1,0.1,0.1,0.5,0,0.7c-0.1,0.3-0.4,0.4-0.7,0.3c-0.5-0.2-1-0.3-1.5-0.5
		C221.8,143.7,221.7,143,222.3,141.9z"/>
	<path class="st0" d="M220.4,78.7c0.3-0.6,0.6-1.2,0.9-1.7c0.2-0.3,0.9-0.2,1,0.1c0.5,1.1,0.5,1.6-0.3,2.4c-0.3,0.3-0.8,0.3-1,0.1
		C220.8,79.3,220.6,79,220.4,78.7z"/>
	<path class="st0" d="M252.1,138.4c-0.5-0.2-0.8-0.6-1-1.1c0.5-0.5,1.1-0.7,1.7-0.9c0.6,0.3,1.1,0.6,1.7,0.9
		C253.8,137.9,253,138.3,252.1,138.4z"/>
	<path class="st0" d="M48.7,147.3c0,0.1,0,0.3-0.1,0.4c-0.9,0.9-1.7,2-2.8,2.6c-0.3,0.2-0.7,0.2-1.1,0.3l0,0c0-0.1,0-0.3,0-0.4
		c0.8-1.1,1.8-1.9,2.9-2.6C47.9,147.3,48.4,147.4,48.7,147.3L48.7,147.3z"/>
	<path class="st0" d="M286.5,128.6c-0.7,0.3-1.4,0.6-2.1,0.9c-0.3,0.1-0.7-0.3-0.7-0.7c0.1-0.6,0.4-1,0.8-1.2
		c0.2-0.1,0.5-0.2,0.7-0.2C286,127.4,286.4,127.8,286.5,128.6z"/>
	<path class="st0" d="M28.3,131.2c0.2,0.3,0.4,0.4,0.4,0.5c0,0.1,0,0.3-0.1,0.4c-0.5,0.9-1.3,1.2-2.2,1.4c-0.2,0-0.5-0.2-0.6-0.4
		c-0.1-0.2,0-0.5,0.2-0.7C26.6,131.7,27.8,132.3,28.3,131.2z"/>
	<path class="st0" d="M232.2,76.4c-0.1,0.1-0.2,0.2-0.3,0.3c-1,0.3-2,0.1-3.1,0c-0.1,0-0.3-0.1-0.3-0.3c-0.1-0.2-0.2-0.5-0.1-0.7
		c0.1-0.2,0.4-0.3,0.6-0.4c0.1,0,0.3-0.1,0.4,0c0.7,0.6,1.8,0.3,2.6,0.8C232,76.2,232.1,76.3,232.2,76.4z"/>
	<path class="st0" d="M252.1,132.8c-0.1,0.4-0.3,0.7-0.8,0.8c-0.6,0.1-1-0.1-1.3-0.6c-0.2-0.3-0.1-0.7,0.3-1.1
		c0.2-0.2,0.4-0.4,0.7-0.4C251.5,131.4,252.2,132.2,252.1,132.8z"/>
	<path class="st0" d="M209.6,84c-0.1,0.3-0.2,0.5-0.5,0.5c-0.7,0-1.2-0.3-1.6-0.9c-0.2-0.3,0-0.9,0.3-1c0.2-0.1,0.6-0.1,0.7,0
		c0.4,0.3,0.7,0.7,1.1,1.1C209.7,83.8,209.6,83.9,209.6,84z"/>
	<path class="st0" d="M231,84.5c0.1-0.5,0.5-0.9,1-1.1c0.3,0.2,0.6,0.4,0.9,0.7s0.4,0.6,0.7,1.1c-0.4,0.1-0.7,0.3-1.1,0.3
		C231.9,85.5,231.9,85.5,231,84.5z"/>
	<path class="st0" d="M263.4,61.6c-0.1,0.2-0.2,0.4-0.4,0.6c-0.1,0.2-0.9,0-1.1-0.2c-0.6-0.5-0.6-1.1,0-1.6c0.1-0.1,0.2-0.2,0.3-0.2
		c0.5-0.3,1.1,0,1.2,0.6C263.4,61,263.4,61.3,263.4,61.6z"/>
	<path class="st0" d="M257.8,61.1c-0.8,0.7-1.7,0.6-2.6,0.2c-0.3-0.1-0.2-0.4,0-0.6c0.4-0.6,1-0.8,1.7-0.7
		C257.6,60.1,257.8,60.5,257.8,61.1z"/>
	<path class="st0" d="M247.3,61.3c-1.1-0.2-1.4-1.1-1.9-1.9c0.2-0.3,0.5-0.5,0.7-0.8c0.9,0.2,1.3,0.8,1.4,1.6
		C247.6,60.6,247.4,61,247.3,61.3z"/>
	<path class="st0" d="M43.1,145.7c0,0.1,0,0.3,0,0.4c-0.7,0.6-1.3,1.3-2,1.8c-0.3,0.2-0.7,0.1-1.1,0.2l0.1,0.1c0-0.1-0.1-0.3,0-0.4
		c0.7-0.6,1.3-1.3,2.1-1.8C42.3,145.7,42.8,145.8,43.1,145.7L43.1,145.7z"/>
	<path class="st0" d="M166.3,102c-0.6,0.5-1.2,0.9-1.9,1.1c-0.3,0.1-0.7-0.3-0.8-0.7c-0.1-0.3,0-0.5,0.3-0.6
		c0.6-0.3,1.2-0.3,1.9-0.3C166,101.6,166.2,101.9,166.3,102z"/>
	<path class="st0" d="M243.2,145.5c-0.3-0.2-0.5-0.3-0.7-0.4c-0.3-0.3-0.4-0.7-0.1-1c0.2-0.2,0.4-0.4,0.6-0.5c0.3-0.2,0.8-0.1,1,0.2
		c0.2,0.3,0.2,0.8,0,1C243.8,145.1,243.5,145.3,243.2,145.5z"/>
	<path class="st0" d="M261,140.2c0,0.1,0,0.3-0.1,0.3c-0.5,0.6-1.6,0.4-1.9-0.4c-0.1-0.3-0.1-0.5,0.2-0.7c0.6-0.3,1.4-0.2,1.7,0.3
		C261,139.9,260.9,140,261,140.2z"/>
	<path class="st0" d="M116.7,130.4c0.1,0.3,0,0.5-0.3,0.7c-0.5,0.2-1,0.2-1.5-0.1c-0.3-0.2-0.4-0.8-0.2-1
		C115.4,129.4,116.4,129.7,116.7,130.4z"/>
	<path class="st0" d="M174.9,99.8c-0.3-0.3-0.7-0.5-0.9-0.8c-0.5-0.7-0.1-1.6,0.8-1.8c0.2-0.1,0.5,0.1,0.5,0.4
		C175.5,98.7,175.5,98.7,174.9,99.8z"/>
	<path class="st0" d="M238.7,77c-0.1,0.2-0.3,0.5-0.4,0.5c-0.5,0.1-1,0.2-1.5-0.1c-0.3-0.2-0.3-0.4-0.2-0.7c0.1-0.4,0.4-0.6,0.8-0.7
		c0.5,0,1,0,1.3,0.5C238.7,76.7,238.6,76.8,238.7,77z"/>
	<path class="st0" d="M77.4,127.7c-0.9,0.7-2,0.2-3,0.3c-0.5,0-1,0-1.4-0.4C74.1,127.1,75.1,127.1,77.4,127.7z"/>
	<path class="st0" d="M160.5,108.5c0.2-0.4,0.6-0.4,0.9-0.3c0.3,0.2,0.6,0.5,0.8,0.8c0.4,0.5,0.3,1.2-0.2,1.3
		c-0.4,0.1-0.9-0.1-1-0.4C160.9,109.4,160.7,109,160.5,108.5z"/>
	<path class="st0" d="M98.5,64.8c0-0.3-0.1-0.5,0-0.8c0.3-0.8,0.7-1.7,1.3-2.3c0.1-0.1,0.3-0.1,0.4-0.1c0.3,0.1,0.4,0.2,0.3,0.5
		c-0.3,0.9-0.7,1.6-1.4,2.3C98.9,64.6,98.6,64.6,98.5,64.8L98.5,64.8z"/>
	<path class="st0" d="M272.4,124.4c-0.1,0.2-0.2,0.6-0.4,0.9c-0.2,0.3-0.8,0.2-1-0.1c-0.3-0.5-0.3-1,0-1.4c0.2-0.2,0.4-0.4,0.7-0.3
		c0.2,0.1,0.4,0.2,0.6,0.4C272.4,123.9,272.4,124.1,272.4,124.4z"/>
	<path class="st0" d="M207.1,125.4c-0.5-0.2-0.9-0.5-1-1.1c0.2-0.2,0.5-0.6,0.7-0.8c0.3-0.2,0.8-0.2,1.1,0.1s0.3,0.7,0.1,1
		c-0.1,0.1-0.1,0.2-0.2,0.3C207.5,125.1,207.3,125.3,207.1,125.4z"/>
	<path class="st0" d="M127.3,78.3c-0.1,0-0.3,0-0.4-0.1c-0.3-0.6-0.5-1.2-0.9-1.7c-0.5-0.7-0.5-1.5-0.3-2.3l-0.1,0.1
		c0.6,0,0.9,0.3,1,0.8c0.1,0.4,0.3,0.7,0.7,0.7C127.3,76.7,127.3,77.6,127.3,78.3L127.3,78.3z"/>
	<path class="st0" d="M240.2,80.3c0,0.3,0,0.5-0.1,0.8s-0.3,0.4-0.6,0.4c-0.3,0-0.5,0-0.7-0.3c-0.3-0.5-0.3-1-0.1-1.5
		c0.1-0.3,0.7-0.6,1-0.4c0.2,0.1,0.3,0.4,0.5,0.6C240.2,80,240.2,80.2,240.2,80.3z"/>
	<path class="st0" d="M130.3,118.1c-0.2,0.5-0.5,1-0.7,1.4c-0.2,0.3-0.7,0.4-1,0.2s-0.4-0.7-0.2-1.1c0.4-0.6,0.9-0.9,1.6-0.8
		C130.1,117.8,130.2,118,130.3,118.1z"/>
	<path class="st0" d="M273.5,113.8c0.2,0.2,0.5,0.3,0.5,0.5c0.1,0.4,0.1,0.8,0,1.1c0,0.3-0.6,0.6-0.9,0.4c-0.7-0.3-1-1.4-0.3-1.9
		C272.9,113.8,273.2,113.8,273.5,113.8z"/>
	<path class="st0" d="M135.5,114.6c0.6,0.3,0.6,0.7,0.6,1.3c0,0.5-0.2,0.7-0.7,0.7c-0.3,0-0.5-0.1-0.7-0.3c-0.3-0.5-0.3-1,0-1.4
		C135,114.7,135.3,114.7,135.5,114.6z"/>
	<path class="st0" d="M27.6,128.5c-0.1,0.1-0.1,0.2-0.2,0.3c-0.6,0.8-0.9,0.7-1.5-0.1c-0.1-0.1-0.1-0.2-0.2-0.3
		c0.1-0.2,0.2-0.5,0.4-0.7c0.3-0.3,0.7-0.3,1,0.1C27.4,128,27.5,128.3,27.6,128.5z"/>
	<path class="st0" d="M63.9,125.7c1.1-0.1,2.2-0.2,3.3,0.1c0.4,0.1,0.6,0.3,0.7,0.8l0.1-0.1c-1.2,0.3-2.5,0.1-3.7-0.2
		c-0.2,0-0.2-0.4-0.3-0.6H63.9z"/>
	<path class="st0" d="M279.4,125.2c-0.5,0.7-1.1,0.5-1.7,0.3c-0.2,0-0.3-0.3-0.4-0.6c-0.1-0.3,0-0.5,0.3-0.6c0.4-0.2,0.7-0.3,1,0
		C279,124.6,279.2,125,279.4,125.2z"/>
	<path class="st0" d="M203.3,125.2c0,0.3,0,0.5-0.1,0.8c-0.1,0.3-0.3,0.4-0.6,0.4s-0.5,0-0.6-0.3c-0.1-0.4-0.1-0.8,0.2-1.1
		c0.2-0.3,0.8-0.6,0.9-0.4C203.2,124.7,203.2,125,203.3,125.2z"/>
	<path class="st0" d="M184.1,84.6c-0.4-0.1-0.5-0.3-0.6-0.6c-0.1-0.3,0-0.5,0.3-0.6c0.2-0.1,0.5-0.2,0.7-0.2c0.4,0,1,0.3,0.9,0.4
		c-0.1,0.2-0.3,0.5-0.5,0.6C184.7,84.4,184.3,84.5,184.1,84.6z"/>
	<path class="st0" d="M241.9,69.2c-0.8,0.5-0.8,0.5-2,0.1c0-0.6,0.4-0.8,0.8-1c0.5-0.2,0.9,0,1.1,0.6
		C241.8,68.9,241.8,69,241.9,69.2z"/>
	<path class="st0" d="M253.4,67.6c-0.6-0.1-1.1-0.8-1-1.4c0.1-0.3,0.7-0.6,0.9-0.4c0.2,0.1,0.4,0.4,0.4,0.6c0,0.4-0.1,0.8-0.1,1.1
		C253.6,67.5,253.5,67.5,253.4,67.6z"/>
	<path class="st0" d="M120.1,84c0.2-1,1-1.4,1.6-2.1c0.2-0.3,0.5-0.2,0.6,0.1c0,0.1,0.1,0.3,0,0.4C122,83.5,121.3,84.1,120.1,84
		L120.1,84z"/>
	<path class="st0" d="M221.6,63.5c-0.1,0.2-0.2,0.5-0.4,0.5c-0.5,0.1-1,0.1-1.4-0.3c-0.1-0.2-0.2-0.5-0.2-0.7c0-0.2,0.3-0.4,0.5-0.4
		C220.8,62.4,221.4,62.8,221.6,63.5z"/>
	<path class="st0" d="M143.2,122.3c-0.4-0.1-0.7-0.5-0.6-0.8c0.2-0.3,0.4-0.6,0.6-0.9c0.1-0.1,0.3-0.2,0.3-0.2
		c0.2,0.1,0.4,0.3,0.4,0.5c0,0.4-0.1,0.8-0.2,1.1C143.8,122.3,143.5,122.4,143.2,122.3z"/>
	<path class="st0" d="M153.8,57.6c0.9-1.4,1.3-1.9,2.4-2.4l-0.1-0.1c0.2,0.9-0.3,1.5-0.9,2.1c-0.4,0.4-1,0.3-1.5,0.3L153.8,57.6z"/>
	<path class="st0" d="M170.1,103.7c-0.5-0.5-0.2-0.9,0.2-1.3c0.7,0,1.3,0,2,0c0.1,0,0.2,0.1,0.3,0.2s0,0.4-0.3,0.5
		C171.6,103.3,170.9,103.5,170.1,103.7z"/>
	<path class="st0" d="M113.7,79.2c0.3-0.9,0.9-1.6,1.6-2.2c0.3-0.2,0.5-0.2,0.7,0.1c0,0.1,0.1,0.3,0,0.4
		C115.6,78.6,114.9,79.3,113.7,79.2L113.7,79.2z"/>
	<path class="st0" d="M154.1,113.8c-0.1,0.2,0.1,0.6,0.2,0.9c0.1,0.3-0.1,0.5-0.4,0.5c-0.6,0-0.9-0.4-1-0.9c0-0.4,0-0.8,0.4-1
		c0.2-0.1,0.5-0.2,0.7-0.1C154.3,113.1,154.3,113.3,154.1,113.8z"/>
	<path class="st0" d="M174.6,104.2c0-0.5,0.2-0.7,0.7-0.8c0.4-0.1,0.8,0.3,0.8,0.7s-0.3,0.7-0.6,1c-0.2,0.1-0.5,0.2-0.6,0.2
		c-0.3-0.1-0.3-0.4-0.3-0.7C174.6,104.4,174.6,104.3,174.6,104.2z"/>
	<path class="st0" d="M43.2,145.7c0-0.1,0-0.3,0-0.4c0.5-0.8,1.2-1.3,2.2-1.3c0.2,0,0.4,0.2,0.7,0.3c0,0.1-0.1,0.2-0.1,0.3
		c-0.6,0.3-1.1,0.6-1.7,0.9C43.9,145.6,43.5,145.6,43.2,145.7L43.2,145.7z"/>
	<path class="st0" d="M220.2,143.6c-0.2,0.2-0.4,0.5-0.6,0.7c-0.3,0.3-0.7,0.1-0.8-0.3c-0.1-0.4,0-0.8,0.2-1.1
		c0.2-0.2,0.4-0.3,0.7-0.3C220,142.8,220.3,143.2,220.2,143.6z"/>
	<path class="st0" d="M234.4,138.8c0.1,0.4,0.2,0.7,0.3,1.1c0.1,0.4-0.2,0.9-0.5,0.9c-0.2,0-0.5-0.1-0.7-0.2
		c-0.3-0.1-0.3-0.4-0.3-0.7C233.2,139.3,233.7,139,234.4,138.8z"/>
	<path class="st0" d="M231.6,138.5c-0.1,0.2-0.2,0.3-0.3,0.4c-0.2,0.2-0.4,0.2-0.6,0c-0.4-0.3-0.7-0.7-0.8-1.3
		c0-0.4,0.2-0.7,0.6-0.8c0.3-0.1,0.5,0,0.6,0.3C231.3,137.6,231.4,138.1,231.6,138.5z"/>
	<path class="st0" d="M147.9,110.2c-0.6-0.1-0.9-0.4-1.1-0.9c0.2-0.5,0.5-0.8,1-1C148.4,108.9,148.4,109.5,147.9,110.2z"/>
	<path class="st0" d="M155.3,108.1c0.3-0.1,0.5,0,0.6,0.2c0.2,0.6,0.1,1-0.5,1.1c-0.4,0.1-0.7-0.1-0.7-0.6
		C154.6,108.5,154.8,108.3,155.3,108.1z"/>
	<path class="st0" d="M243.4,86.1c0.1,0.6-0.1,1-0.5,1.4c-0.2,0.2-0.5,0.3-0.6,0.1c-0.1-0.2-0.2-0.5-0.2-0.7c0.2-0.5,0.5-0.9,1.1-1
		C243.2,85.8,243.3,86,243.4,86.1z"/>
	<path class="st0" d="M206,110c1-0.5,1.9-0.6,2.9,0C207.9,110.5,207,110.6,206,110z"/>
	<path class="st0" d="M187.8,97.4c-0.4-0.9-0.3-1.3,0.6-1.8c0.1,0,0.2,0,0.3,0c0.1,0.1,0.2,0.2,0.2,0.3
		C188.8,96.6,188.4,97,187.8,97.4z"/>
	<path class="st0" d="M82.5,153.9c0.5,0.1,0.7,0.3,0.6,0.8s-0.3,0.7-0.8,0.6c-0.5-0.1-0.7-0.4-0.6-0.8
		C81.8,153.9,82,153.8,82.5,153.9z"/>
	<path class="st0" d="M77.4,149.8c0.4-0.1,0.7,0.1,0.8,0.6c0.1,0.5-0.1,0.7-0.6,0.8c-0.4,0.1-0.7-0.1-0.8-0.6
		C76.7,150.3,77,149.9,77.4,149.8z"/>
	<path class="st0" d="M39.1,148.8c-0.1,0.9-0.9,1.2-1.6,1.5c-0.2,0.1-0.5,0.1-0.8,0.1l0.1,0.1c0-0.1,0-0.3,0-0.4
		C37.4,149.3,38.1,148.7,39.1,148.8L39.1,148.8z"/>
	<path class="st0" d="M69.5,145.8c0.6-0.2,0.9,0.2,1.2,0.6c0.1,0.1,0.1,0.2,0.1,0.4c0,0.2-0.3,0.4-0.5,0.4c-0.6,0-0.9-0.3-1.1-0.8
		C69.1,146.1,69.2,145.9,69.5,145.8z"/>
	<path class="st0" d="M100.1,144.2c0.5-0.1,0.6,0.1,0.7,0.6c0,0.3,0,0.5-0.3,0.7c-0.3,0.2-0.9,0.1-1-0.2c-0.1-0.2-0.1-0.5,0-0.7
		C99.6,144.5,99.8,144.4,100.1,144.2z"/>
	<path class="st0" d="M114.2,142.6c0.2,0.1,0.5,0,0.7,0.2c0.2,0.1,0.2,0.4,0.2,0.7c0,0.3-0.2,0.4-0.5,0.4s-0.5,0-0.7-0.3
		C113.7,143.2,113.8,142.7,114.2,142.6z"/>
	<path class="st0" d="M41.6,142.5c0-0.3,0-0.5,0-0.8c0-0.1,0-0.3,0.1-0.4c0.3-0.4,0.7-0.4,1-0.3c0.1,0,0.3,0.1,0.3,0.2
		c0.1,0.3-0.1,0.9-0.4,1c-0.1,0.1-0.2,0.1-0.4,0.1C42,142.4,41.8,142.4,41.6,142.5L41.6,142.5z"/>
	<path class="st0" d="M97.5,140.1c-0.1,0.2-0.2,0.3-0.4,0.5c-0.2-0.1-0.4-0.2-0.6-0.4c-0.3-0.4-0.3-0.6,0-1c0.2-0.2,0.4-0.3,0.6-0.4
		c0.1,0.2,0.3,0.4,0.3,0.5C97.6,139.5,97.5,139.8,97.5,140.1z"/>
	<path class="st0" d="M40.1,138.9c0.4-0.5,0.8-1,1.5-1.1c0.3-0.1,0.4,0.1,0.6,0.4c-0.2,0.3-0.4,0.6-0.7,0.8
		C41,139.3,40.5,139.3,40.1,138.9z"/>
	<path class="st0" d="M120.6,137.1c0,0.1,0.1,0.2,0,0.3c-0.3,0.4-0.7,0.8-1.2,0.9c-0.1,0-0.3,0-0.4-0.1c-0.3-0.1-0.3-0.3-0.1-0.6
		c0.3-0.4,0.7-0.8,1.3-0.7C120.4,136.9,120.5,137,120.6,137.1z"/>
	<path class="st0" d="M189.7,91.1c0.1,0.5-0.1,0.7-0.5,0.8c-0.3,0-0.5,0-0.6-0.3c-0.1-0.2-0.1-0.5-0.1-0.7c0-0.3,0.7-0.5,0.9-0.4
		c0.1,0,0.2,0.2,0.2,0.3C189.7,90.8,189.7,91,189.7,91.1z"/>
	<path class="st0" d="M160.5,111.5c0.1,0,0.3,0.1,0.4,0.1c0.4,0.2,0.7,0.5,0.7,0.9c0,0.4-0.4,0.6-0.8,0.8c-0.3,0.1-0.5,0-0.6-0.3
		C160,112.4,160.1,111.9,160.5,111.5z"/>
	<path class="st0" d="M111.5,136.2c0.4,0.1,0.6,0.3,0.6,0.8c0,0.4-0.3,0.6-0.8,0.5c-0.6-0.2-0.8-0.6-0.5-1.1
		C111,136.2,111.2,136.1,111.5,136.2z"/>
	<path class="st0" d="M89.8,135.2c0.1-0.4,0.4-0.6,0.8-0.6c0.4,0.1,0.6,0.4,0.5,0.8c-0.1,0.5-0.4,0.7-0.8,0.6
		C89.9,135.8,89.7,135.6,89.8,135.2z"/>
	<path class="st0" d="M70.1,135.1c-0.1-0.1-0.3-0.2-0.3-0.2c0.1-0.7,0.6-1.1,1.3-1.1c0.1,0,0.2,0,0.3,0.1c0.3,0.1,0.2,0.3,0,0.6
		C71.1,134.8,70.7,135.2,70.1,135.1z"/>
	<path class="st0" d="M267,134c0.2-0.5,0.5-0.9,1.1-1c0.1,0.2,0.3,0.4,0.3,0.7c0.1,0.4,0.1,0.9-0.3,1.1c-0.4,0.2-0.6-0.2-0.9-0.4
		C267.1,134.3,267,134.2,267,134z"/>
	<path class="st0" d="M264,130c-0.4,0.3-0.7,0.3-1-0.1c-0.3-0.3-0.4-0.6-0.3-1c0-0.2,0.2-0.4,0.3-0.7c0.2,0.1,0.4,0.2,0.5,0.3
		C263.7,129.1,263.9,129.6,264,130z"/>
	<path class="st0" d="M16,127.7c0.2-0.2,0.4-0.3,0.6-0.4c0.4-0.1,0.7,0.1,1,0.4c0.4,0.4,0.4,0.8,0.2,0.9c-0.4,0.2-0.7,0.2-1-0.1
		C16.5,128.3,16.3,128,16,127.7z"/>
	<path class="st0" d="M67.9,126.5c1,0,2.1-0.3,3.1,0.4c-0.2,0.1-0.4,0.4-0.7,0.3c-0.6,0-1.3-0.1-1.9-0.2
		C68.2,127,68.1,126.6,67.9,126.5L67.9,126.5z"/>
	<path class="st0" d="M64,125.6c-1,0-2.1,0.3-3.1-0.3c0.8-0.6,1.7-0.4,2.6-0.2c0.2,0,0.4,0.3,0.4,0.6L64,125.6z"/>
	<path class="st0" d="M129.1,124.1c0.4,0,0.6,0.3,0.5,0.8c-0.1,0.2-0.2,0.5-0.4,0.6c-0.3,0.2-1-0.1-1-0.3s0.1-0.5,0.2-0.7
		C128.6,124.2,128.8,124.1,129.1,124.1z"/>
	<path class="st0" d="M119.8,124.2c0.4-0.1,0.7,0.2,0.8,0.5c0.1,0.4,0,0.6-0.6,0.8c-0.3,0.1-0.7-0.1-0.8-0.5
		C119.2,124.7,119.5,124.3,119.8,124.2z"/>
	<path class="st0" d="M216.8,121.8c0.4,0.6,0.4,1.1,0.1,1.7c-0.1,0.3-0.3,0.3-0.6,0.1c-0.7-0.6-0.7-1-0.1-1.5
		C216.3,121.9,216.6,121.9,216.8,121.8z"/>
	<path class="st0" d="M281,121.7c-0.1,0.1-0.1,0.2-0.2,0.3c-0.2,0.3-0.7,0.4-1,0.2c-0.2-0.2-0.3-0.4-0.2-0.7
		c0.1-0.4,0.4-0.6,0.8-0.5C281,121,281.2,121.3,281,121.7z"/>
	<path class="st0" d="M156,119.3c0.5,0,0.6,0.1,0.8,0.7c0.1,0.3,0.1,0.6-0.2,0.7c-0.2,0.1-0.5,0.1-0.7,0c-0.2-0.1-0.3-0.4-0.4-0.6
		C155.3,119.7,155.5,119.3,156,119.3z"/>
	<path class="st0" d="M142.4,114c0,0.5-0.2,1-0.3,0.9c-0.3-0.2-0.6-0.4-0.9-0.7c-0.2-0.2-0.1-0.5,0.1-0.7c0.2-0.2,0.4-0.3,0.6-0.4
		C142.2,113.1,142.4,113.4,142.4,114z"/>
	<path class="st0" d="M282.7,114.5c0.4-0.1,0.6,0.1,0.8,0.6c0.1,0.5,0,0.7-0.6,0.8c-0.4,0.1-0.7-0.1-0.8-0.6
		C282,114.9,282.2,114.6,282.7,114.5z"/>
	<path class="st0" d="M188.1,73.7c0.4-0.1,0.6,0.1,0.8,0.7c0.1,0.5,0,0.7-0.6,0.8c-0.5,0-0.7-0.2-0.8-0.6
		C187.4,74,187.6,73.7,188.1,73.7z"/>
	<path class="st0" d="M182.3,79.1c-0.3-0.1-0.8-0.1-0.8-0.3c-0.1-0.5,0.4-0.5,0.6-0.7c0.2-0.1,0.5-0.3,0.7-0.3s0.4,0.2,0.4,0.5
		c0,0.1,0,0.4,0,0.4C183,78.9,182.6,79,182.3,79.1z"/>
	<path class="st0" d="M247,73.3c-0.7-0.1-1.1-0.9-0.7-1.4c0.3-0.4,0.8-0.6,0.9-0.4c0.2,0.2,0.3,0.4,0.3,0.7c0,0.2,0,0.5,0,0.8
		C247.5,73.2,247.2,73.3,247,73.3z"/>
	<path class="st0" d="M243.4,81.4c-0.2-0.1-0.4-0.2-0.5-0.4c-0.1-0.3,0.1-0.8,0.4-0.9c0.2-0.1,0.5,0,0.7,0c0.3,0.1,0.3,0.5,0,1
		C243.9,81.4,243.7,81.6,243.4,81.4z"/>
	<path class="st0" d="M219.2,66.6c0.1,0.4,0.2,0.8,0.2,1.1c0,0.2-0.2,0.5-0.4,0.6c-0.1,0.1-0.8-0.5-0.8-0.8c0-0.2,0.1-0.5,0.3-0.7
		C218.6,66.8,218.9,66.8,219.2,66.6z"/>
	<path class="st0" d="M212.7,72.4c-0.1-0.1-0.2-0.1-0.3-0.2c-0.2-0.5-0.1-1,0.2-1c0.2,0,0.5,0,0.7,0.1c0.2,0.1,0.2,0.4,0,0.6
		C213.2,72.2,212.9,72.3,212.7,72.4z"/>
	<path class="st0" d="M97.6,74.4c-0.5,0-1,0-1.4-0.5c-0.2-0.3-0.2-1,0-1s0.5,0,0.6,0.1c0.3,0.2,0.5,0.5,0.7,0.8
		c0.1,0.1,0,0.2,0.1,0.4V74.4z"/>
	<path class="st0" d="M213,75.8c-0.1-0.1-0.2-0.1-0.3-0.2c-0.2-0.2,0-0.5,0.4-0.9c0.1-0.1,0.2-0.1,0.3-0.1c0.2,0,0.4,0.2,0.3,0.5
		C213.6,75.7,213.4,75.9,213,75.8z"/>
	<path class="st0" d="M252.4,80.8c0,0.3,0,0.5-0.3,0.6c-0.4,0.2-1.1,0-1-0.3c0.1-0.2,0.2-0.5,0.4-0.7c0.2-0.2,0.5-0.4,0.6-0.3
		C252.3,80.2,252.4,80.5,252.4,80.8z"/>
	<path class="st0" d="M195.8,86.8c0.1,0,0.2,0,0.3,0.1c0.4,0.4,0.4,0.9,0.2,1.4c-0.1,0.3-0.3,0.3-0.5,0.2
		C195.3,88.1,195.3,87.1,195.8,86.8z"/>
	<path class="st0" d="M182.7,88.8c0.3,0.1,0.5,0.2,0.4,0.5c-0.1,0.2-0.2,0.5-0.4,0.6c-0.2,0.1-0.5,0.2-0.6,0.1
		c-0.3-0.1-0.3-0.4-0.2-0.7C182.1,88.9,182.3,88.8,182.7,88.8z"/>
	<path class="st0" d="M149.4,116.4c-0.2,0.3-0.3,0.6-0.5,0.8c-0.1,0.1-0.3,0.2-0.3,0.1c-0.1-0.1-0.3-0.3-0.4-0.5
		c-0.1-0.6,0.3-0.9,0.9-0.8C149.2,116.1,149.3,116.3,149.4,116.4z"/>
	<path class="st0" d="M185.7,126.4c0.2,0.4,0.3,0.7,0.5,1.1c0.1,0.3-0.1,0.4-0.4,0.4c-0.1,0-0.3,0-0.4-0.1c-0.1-0.2-0.3-0.4-0.3-0.7
		c0-0.4,0.2-0.7,0.7-0.7H185.7z"/>
	<path class="st0" d="M83.3,128c-0.6,0.1-1.2,0.2-1.8,0.1c-0.1,0-0.2-0.1-0.3-0.2c-0.1-0.2,0-0.4,0.3-0.4c0.5-0.1,1-0.2,1.4,0.1
		C83,127.6,83.1,127.9,83.3,128L83.3,128z"/>
	<path class="st0" d="M32,130.6c0.3,0,0.5,0,0.6,0.3c0.1,0.2,0,0.5-0.1,0.7c-0.1,0.3-0.5,0.1-0.8-0.3c-0.2-0.3-0.2-0.5,0-0.6
		C31.7,130.7,31.9,130.7,32,130.6z"/>
	<path class="st0" d="M121.6,132.6c0,0.1,0,0.3-0.1,0.4c-0.2,0.5-0.3,0.6-0.9,0.5c-0.1,0-0.3-0.2-0.3-0.2c0.1-0.5,0.7-1,1-0.9
		C121.5,132.4,121.6,132.5,121.6,132.6z"/>
	<path class="st0" d="M280.7,134.4c-0.1-0.1-0.2-0.2-0.3-0.3c-0.2-0.7,0-1,0.6-1.1c0.3-0.1,0.6-0.1,0.7,0.2c0.1,0.2,0,0.5-0.1,0.6
		C281.4,134,281,134.2,280.7,134.4z"/>
	<path class="st0" d="M129.3,134.3c-0.1-0.3,0-0.4,0.4-0.5c0.3-0.1,0.5-0.1,0.7,0.2c0.2,0.4,0,1.1-0.2,1c-0.2-0.1-0.4-0.2-0.6-0.4
		C129.4,134.6,129.4,134.4,129.3,134.3z"/>
	<path class="st0" d="M25,134.8c0.1,0,0.3,0,0.3,0.1c0.1,0.2,0.2,0.5,0.1,0.7c-0.1,0.4-0.5,0.4-0.9,0.4c-0.5,0-0.4-0.7,0.1-1.1
		C24.7,134.8,24.9,134.8,25,134.8z"/>
	<path class="st0" d="M106.5,139.3c0,0.5-0.2,0.7-0.6,0.8c-0.3,0.1-0.6,0-0.7-0.2c-0.1-0.2,0-0.4,0-0.7c0-0.1,0.1-0.2,0.2-0.3
		c0.2-0.1,0.5-0.3,0.6-0.2C106.3,138.7,106.4,139.1,106.5,139.3z"/>
	<path class="st0" d="M211.6,140.8c-0.2-0.1-0.5-0.1-0.6-0.3c-0.1-0.1,0.1-0.4,0.2-0.6c0.1-0.2,0.4-0.3,0.6-0.4
		c0.2-0.1,0.5,0.6,0.3,0.9C212,140.6,211.8,140.7,211.6,140.8z"/>
	<path class="st0" d="M87.2,142.4c0,0.3-0.1,0.6-0.3,0.6c-0.4,0.1-1-0.6-1-1.1c0-0.1,0.2-0.2,0.3-0.3
		C86.8,141.6,87.2,141.8,87.2,142.4z"/>
	<path class="st0" d="M120.4,144.1c-0.1-0.2-0.2-0.3-0.2-0.4c-0.1-0.7,0.1-1,0.7-1c0.1,0,0.2,0,0.3,0.1c0.2,0.1,0.2,0.4,0,0.6
		C121,143.6,120.7,143.8,120.4,144.1z"/>
	<path class="st0" d="M35.2,152.2c0-1.4,0.1-1.5,1.6-1.6l-0.1-0.1C36.5,151.3,36,151.9,35.2,152.2L35.2,152.2z"/>
	<path class="st0" d="M70.9,151.9c-0.2,0.2-0.5,0.5-0.8,0.7c-0.2,0.1-0.4,0-0.5-0.3c-0.1-0.5,0.1-0.9,0.4-0.9c0.2,0,0.5,0.1,0.7,0.2
		C70.8,151.6,70.8,151.8,70.9,151.9z"/>
	<path class="st0" d="M71.1,154.2c-0.5,0.6-1.1,0.5-1.7,0.2c-0.1-0.1-0.2-0.2-0.2-0.3s0.1-0.2,0.3-0.3
		C70,153.5,70.6,153.6,71.1,154.2z"/>
	<path class="st0" d="M31.9,154.5c-0.2,0.9-0.7,1.4-1.6,1.6l0.1,0.1c0-1.4,0.1-1.5,1.6-1.6L31.9,154.5z"/>
	<path class="st0" d="M77.5,154.7c0.2,0.1,0.4,0.2,0.6,0.3c0,0,0,0.2-0.1,0.3c-0.1,0.2-0.3,0.4-0.5,0.5c-0.1,0.1-0.3,0.1-0.3,0.1
		c-0.1-0.2-0.3-0.4-0.3-0.6c-0.1-0.3,0.1-0.5,0.3-0.6C77.2,154.7,77.4,154.7,77.5,154.7z"/>
	<path class="st0" d="M88.7,157.7c-0.2-0.1-0.4-0.3-0.5-0.4c0,0,0.1-0.3,0.1-0.4c0.2-0.2,0.4-0.3,0.6-0.5c0.1-0.1,0.3-0.1,0.4-0.1
		c0.3,0.1,0.4,0.4,0.3,0.7C89.4,157.5,89.2,157.7,88.7,157.7z"/>
	<path class="st0" d="M34.3,162.5c-0.1,1.4-0.2,1.5-1.6,1.6l0.1,0.1c0-0.3,0-0.6,0-0.9l-0.1,0.1c0.5-0.1,0.8-0.4,0.9-0.9l-0.1,0.1
		c0.3,0,0.6,0,0.9,0L34.3,162.5z"/>
	<path class="st0" d="M18.4,168.5c0-0.5,0.2-0.9,0.4-0.8c0.2,0.2,0.3,0.4,0.2,0.7c-0.1,0.2,0,0.5-0.1,0.8c0,0.1-0.1,0.2-0.2,0.3
		c-0.1-0.1-0.2-0.2-0.2-0.3C18.4,169,18.4,168.7,18.4,168.5z"/>
	<path class="st0" d="M193.1,7.9c0-0.4,0.2-0.7,0.6-0.8c0.6-0.1,1.2,0,1.8,0L195.4,7c0,0.4-0.3,0.7-0.6,0.7
		C194.2,7.8,193.6,7.8,193.1,7.9L193.1,7.9z"/>
	<path class="st0" d="M210.3,70c-0.4,0.4-0.9,0.4-1.4,0.4c-0.1,0-0.2-0.1-0.3-0.2c-0.1-0.2,0-0.4,0.3-0.5
		C209.4,69.6,209.9,69.5,210.3,70z"/>
	<path class="st0" d="M222.4,70.6c0,0.4-0.1,0.5-0.4,0.6c-0.6,0-0.9-0.4-0.9-1c0-0.3,0.3-0.4,0.5-0.3
		C221.9,70.1,222.2,70.4,222.4,70.6z"/>
	<path class="st0" d="M256.6,71.1c-0.2-0.1-0.5-0.1-0.6-0.3c-0.1-0.1,0.1-0.4,0.1-0.6c0-0.1,0.2-0.2,0.3-0.2
		c0.1-0.1,0.2-0.1,0.4-0.1s0.5,0.6,0.4,0.9c0,0.1-0.1,0.2-0.2,0.3C256.8,71.1,256.7,71.1,256.6,71.1z"/>
	<path class="st0" d="M146.5,126.4c-0.2,0.7-0.5,0.9-1,0.8c-0.1,0-0.2-0.1-0.3-0.2c-0.1-0.2,0-0.5,0.3-0.5c0.4-0.1,0.8,0,1.2,0
		L146.5,126.4z"/>
	<path class="st0" d="M237.6,143.6c0.1,0.2,0,0.4-0.3,0.5c-0.2,0-0.5-0.1-0.6-0.3c-0.1-0.1,0-0.3,0.3-0.4
		C237.3,143.2,237.5,143.3,237.6,143.6z"/>
	<path class="st0" d="M107.2,165.1c0.3,0,0.5,0.1,0.4,0.3c0,0.1-0.2,0.2-0.3,0.2c-0.2,0-0.4-0.1-0.7-0.2c0-0.1,0.1-0.2,0.2-0.2
		C107,165.1,107.1,165.1,107.2,165.1z"/>
	<path class="st0" d="M128.1,128.9c0.1,0.3,0,0.6-0.3,0.6c-0.1,0-0.4-0.2-0.4-0.4c-0.1-0.3,0-0.6,0.3-0.6
		C127.9,128.4,128,128.6,128.1,128.9z"/>
	<path class="st0" d="M24.8,155.4c0-0.4,0.3-0.6,0.6-0.7c0.3-0.1,0.5,0,0.6,0.3c0,0-0.2,0.2-0.3,0.2c-0.3,0.1-0.7,0.1-1.1,0.1
		L24.8,155.4z"/>
	<path class="st0" d="M58.3,145c0.3,0,0.5,0.1,0.5,0.3c0,0.1-0.2,0.2-0.3,0.2c-0.3,0.1-0.5,0-0.7-0.2l0.1-0.2
		C58.1,145,58.2,145,58.3,145z"/>
	<path class="st0" d="M36,146.5c0.1-0.4,0.3-0.6,0.7-0.7c0.3,0,0.5,0.1,0.5,0.3c0,0.1-0.2,0.2-0.3,0.2c-0.4,0-0.7,0-1.1,0.1
		L36,146.5z"/>
	<path class="st0" d="M23.8,156.1c0,0.4-0.2,0.6-0.6,0.8c-0.3,0.1-0.5,0-0.6-0.3c0,0,0.2-0.2,0.3-0.2c0.4-0.1,0.7-0.1,1.1-0.1
		L23.8,156.1z"/>
	<path class="st0" d="M28.8,157c0-0.4,0.2-0.7,0.6-0.8c0.3-0.1,0.7,0,1,0l-0.1-0.1c-0.1,0.5-0.4,0.8-0.9,0.8c-0.2,0-0.5,0-0.7,0
		L28.8,157z"/>
	<path class="st0" d="M21.3,132.8c-0.1,0-0.2-0.1-0.3-0.2c-0.1-0.2,0-0.4,0.3-0.4c0.3-0.1,0.5,0.1,0.6,0.3
		C21.8,132.6,21.6,132.7,21.3,132.8z"/>
	<path class="st0" d="M86.4,157.9c-0.1,0.2-0.3,0.3-0.4,0.5c-0.1-0.2-0.3-0.3-0.4-0.5c-0.1-0.3,0-0.5,0.3-0.6c0.1,0,0.2,0,0.3,0
		C86.4,157.4,86.5,157.6,86.4,157.9z"/>
	<path class="st0" d="M96.7,158.1c-0.2,0.1-0.4,0.3-0.6,0.3s-0.4-0.2-0.6-0.3c0.2-0.1,0.4-0.3,0.6-0.3
		C96.4,157.8,96.6,158,96.7,158.1z"/>
	<path class="st0" d="M54.3,148.1c-0.1,0.4-0.3,0.6-0.7,0.7c-0.3,0-0.5-0.1-0.5-0.3c0-0.1,0.2-0.2,0.3-0.2c0.4,0,0.7-0.1,1.1-0.1
		L54.3,148.1z"/>
	<path class="st0" d="M22.7,168.3c0.1,0.2,0.3,0.4,0.3,0.6s-0.2,0.4-0.3,0.6c-0.1-0.2-0.3-0.4-0.3-0.7
		C22.3,168.6,22.4,168.4,22.7,168.3z"/>
	<path class="st0" d="M82.1,136.8c-0.4-0.3-0.6-0.6-0.4-1c0.1-0.3,0.3-0.4,0.5-0.3c0.1,0.1,0.2,0.2,0.2,0.2
		C82.3,136.2,82.2,136.5,82.1,136.8z"/>
	<path class="st0" d="M270.7,135.8c-0.4,0.1-0.7,0.2-1.1,0.3c-0.1,0-0.3-0.2-0.3-0.3c0.1-0.2,0.2-0.5,0.3-0.5
		C270.1,135.1,270.4,135.3,270.7,135.8z"/>
	<path class="st0" d="M26.3,149.7c0,0.4-0.2,0.7-0.5,0.8c-0.3,0.1-0.7,0-1,0l0.1,0.1c0-0.4,0.2-0.7,0.6-0.8
		C25.7,149.7,26,149.8,26.3,149.7L26.3,149.7z"/>
	<path class="st0" d="M30.4,150.5c0.1-0.4,0.2-0.6,0.6-0.7c0.3-0.1,0.7,0,1-0.1l-0.1-0.1c-0.1,0.5-0.4,0.7-0.8,0.7
		C30.8,150.3,30.6,150.3,30.4,150.5L30.4,150.5z"/>
	<path class="st0" d="M23.2,151.4c0.2-0.9,0.9-0.9,1.6-0.8l-0.1-0.1c0,0.4-0.2,0.7-0.5,0.8C23.9,151.4,23.5,151.3,23.2,151.4
		L23.2,151.4z"/>
	<path class="st0" d="M128,137.8c-0.1,0.3-0.3,0.5-0.5,0.4c-0.2-0.1-0.3-0.4-0.2-0.7c0.1-0.3,0.3-0.4,0.5-0.4
		C128.1,137.2,128.1,137.5,128,137.8z"/>
	<path class="st0" d="M22.3,152.1c-0.2,0.9-0.9,0.9-1.6,0.8l0.1,0.1c0-0.4,0.2-0.7,0.6-0.7c0.3-0.1,0.7,0,1,0L22.3,152.1z"/>
	<path class="st0" d="M159.2,123.2c-0.2-0.1-0.3-0.2-0.5-0.4c0.2-0.1,0.4-0.3,0.6-0.3s0.4,0.2,0.6,0.4
		C159.6,123,159.4,123.1,159.2,123.2z"/>
	<path class="st0" d="M91.2,141.8c-0.1,0.2-0.3,0.3-0.4,0.5c-0.1-0.2-0.3-0.4-0.4-0.6c-0.1-0.3,0-0.5,0.3-0.6c0.1,0,0.2,0,0.3,0
		C91.2,141.3,91.3,141.5,91.2,141.8z"/>
	<path class="st0" d="M134.5,124.9c-0.1,0.3-0.3,0.4-0.4,0.4s-0.2-0.2-0.2-0.3c-0.1-0.3,0-0.5,0.2-0.7c0.1,0,0.2-0.1,0.2,0
		c0.1,0.1,0.2,0.2,0.3,0.3C134.6,124.6,134.5,124.8,134.5,124.9z"/>
	<path class="st0" d="M156.5,126.6c-0.2-0.6-0.4-1-0.3-1.3c0-0.3,0.3-0.4,0.5-0.3c0.1,0.1,0.3,0.2,0.2,0.3
		C156.8,125.6,156.7,126,156.5,126.6z"/>
	<path class="st0" d="M34.3,152.9c-0.1,0.5-0.4,0.7-0.9,0.8c-0.2,0-0.4,0-0.7,0l0.1,0.1C33,152.9,33.7,153,34.3,152.9L34.3,152.9z"
		/>
	<path class="st0" d="M33.4,187.5c-0.1,0.2-0.2,0.4-0.4,0.5c-0.1-0.2-0.3-0.4-0.3-0.6s0.1-0.5,0.2-0.6
		C33.2,186.7,33.5,187.1,33.4,187.5z"/>
	<path class="st0" d="M113.7,60c0.1-0.2,0.1-0.5,0.2-0.7c0.2-0.1,0.5-0.1,0.7-0.1c0.1,0,0.2,0.2,0.3,0.3c-0.2,0.2-0.3,0.4-0.5,0.4
		S113.9,59.9,113.7,60L113.7,60z"/>
	<path class="st0" d="M54.4,148.2c0-0.7,0-0.7,0.8-0.8l-0.1-0.1C55.1,147.9,54.8,148.1,54.4,148.2L54.4,148.2z"/>
	<path class="st0" d="M32.8,149c0-0.6,0.2-0.8,0.4-0.6c0.1,0,0.1,0.2,0.1,0.2c-0.1,0.2-0.3,0.3-0.6,0.3L32.8,149z"/>
	<path class="st0" d="M39.9,148.1c0,0.6-0.3,0.8-0.8,0.8l0.1,0.1C39.3,148.3,39.3,148.3,39.9,148.1L39.9,148.1z"/>
	<path class="st0" d="M26.4,149.8c-0.1-0.3,0-0.5,0.3-0.6c0.2-0.1,0.4,0,0.2,0.2C26.7,149.5,26.5,149.6,26.4,149.8L26.4,149.8z"/>
	<path class="st0" d="M32.7,148.8c-0.1,0.5-0.4,0.7-0.8,0.8l0.1,0.1c0-0.5,0.3-0.8,0.8-0.8L32.7,148.8z"/>
	<path class="st0" d="M65.4,149.3c0,0.1-0.1,0.2-0.2,0.2c-0.2,0.1-0.4,0-0.4-0.3c0-0.1,0.2-0.2,0.3-0.2S65.3,149.2,65.4,149.3z"/>
	<path class="st0" d="M30.3,150.4c-0.1,0.4-0.3,0.8-0.8,0.8l0.1,0.1C29.6,150.8,29.9,150.6,30.3,150.4L30.3,150.4z"/>
	<path class="st0" d="M22.4,152.2c0-0.7,0-0.7,0.8-0.8l-0.1-0.1C23,152,23,152,22.4,152.2L22.4,152.2z"/>
	<path class="st0" d="M28.8,152.2c0-0.6,0.3-0.8,0.8-0.8l-0.1-0.1c0,0.5-0.3,0.8-0.8,0.8L28.8,152.2z"/>
	<path class="st0" d="M49.6,152.2c0.1-0.7,0.1-0.7,0.8-0.8l-0.1-0.1C50.3,151.9,50,152.1,49.6,152.2L49.6,152.2z"/>
	<path class="st0" d="M28,153c0.1-0.6,0.1-0.6,0.8-0.8l-0.1-0.1c0,0.5-0.3,0.8-0.8,0.8L28,153z"/>
	<path class="st0" d="M35.1,152.1c-0.1,0.5-0.4,0.7-0.8,0.8l0.1,0.1C34.5,152.3,34.5,152.3,35.1,152.1L35.1,152.1z"/>
	<path class="st0" d="M48.8,153c0.1-0.7,0.1-0.7,0.8-0.8l-0.1-0.1c0,0.5-0.3,0.8-0.8,0.8L48.8,153z"/>
	<path class="st0" d="M20,153.8c0-0.6,0.3-0.7,0.8-0.8l-0.1-0.1c0,0.6-0.4,0.7-0.8,0.8L20,153.8z"/>
	<path class="st0" d="M27.9,152.9c-0.1,0.2-0.2,0.4-0.3,0.6c0,0-0.2,0-0.2-0.1c-0.2-0.2,0-0.3,0.6-0.4L27.9,152.9z"/>
	<path class="st0" d="M48,153.7c0-0.5,0.3-0.8,0.8-0.8l-0.1-0.1C48.6,153.3,48.5,153.7,48,153.7L48,153.7z"/>
	<path class="st0" d="M32.7,153.6c-0.1,0.7-0.1,0.7-0.8,0.8l0.1,0.1c0.1-0.6,0.1-0.6,0.8-0.8L32.7,153.6z"/>
	<path class="st0" d="M24,156.2c0-0.5,0.3-0.8,0.8-0.8l-0.1-0.1c-0.1,0.7-0.1,0.7-0.8,0.8L24,156.2z"/>
	<path class="st0" d="M45.5,155.3c-0.1,0.7-0.1,0.7-0.8,0.8l0.1,0.1C44.9,155.5,44.9,155.5,45.5,155.3L45.5,155.3z"/>
	<path class="st0" d="M28,157.8c0.1-0.5,0.3-0.8,0.8-0.8l-0.1-0.1c0,0.5-0.3,0.8-0.8,0.8L28,157.8z"/>
	<path class="st0" d="M27.2,158.6c0.1-0.4,0.3-0.7,0.8-0.8l-0.1-0.1c0,0.5-0.3,0.8-0.8,0.8L27.2,158.6z"/>
	<path class="st0" d="M26.4,159.4c0.1-0.5,0.4-0.7,0.8-0.8l-0.1-0.1C27.1,159,26.8,159.3,26.4,159.4L26.4,159.4z"/>
	<path class="st0" d="M26.2,159.2c0,0.3,0.1,0.6-0.4,0.6l-0.1-0.2c0.2-0.1,0.4-0.2,0.6-0.3L26.2,159.2z"/>
	<path class="st0" d="M34.3,161.8c0.3,0,0.6,0.1,0.6,0.4s-0.3,0.4-0.6,0.3l0.1,0.1c0-0.3,0-0.6,0-0.9L34.3,161.8z"/>
	<path class="st0" d="M32.7,164.1c-0.2,0.7-0.2,0.7-0.8,0.8L32,165c0-0.3,0-0.6,0-0.9l-0.1,0.1C32.2,164.2,32.5,164.2,32.7,164.1
		L32.7,164.1z"/>
	<path class="st0" d="M86.4,48.7c0.1,0.3,0,0.5-0.3,0.6c-0.1,0-0.2-0.2-0.2-0.2C85.9,48.8,86.1,48.7,86.4,48.7L86.4,48.7z"/>
	<path class="st0" d="M23.9,171.4c0.2,0.1,0.4,0.2,0.7,0.3c-0.6,0.4-0.5-0.1-0.6-0.4L23.9,171.4z"/>
	<path class="st0" d="M183.2,96.3c0.1,0.2,0,0.4-0.3,0.4c-0.1,0-0.2-0.2-0.2-0.3s0.1-0.2,0.3-0.3C183,96.1,183.1,96.2,183.2,96.3z"
		/>
	<path class="st0" d="M10.9,187c-0.1,0.1-0.2,0.2-0.2,0.2c-0.3-0.2-0.3-0.3,0-0.4C10.8,186.7,10.8,186.9,10.9,187z"/>
	<path class="st0" d="M156.2,55.2c0.1-0.2,0-0.7,0.4-0.6c0,0,0,0.2,0,0.3c-0.1,0.2-0.3,0.3-0.6,0.2L156.2,55.2z"/>
	<polygon class="st0" points="146,59.5 146.2,59.5 146.2,59.7 	"/>
	<path class="st0" d="M113.7,59.9c-0.2,0.7-0.2,0.7-0.8,0.8l0.1,0.1C113,60.1,113,60.1,113.7,59.9L113.7,59.9z"/>
	<path class="st0" d="M112.1,61.6c0.1-0.5,0.2-0.9,0.8-0.8l-0.1-0.1c-0.1,0.7-0.1,0.7-0.8,0.8L112.1,61.6z"/>
	<path class="st0" d="M280.9,125.2c0,0.1,0,0.2,0,0.2c-0.2,0.2-0.3,0.1-0.5-0.1c0,0,0.1-0.2,0.2-0.2
		C280.8,125.1,280.9,125.1,280.9,125.2z"/>
	<path class="st0" d="M116.1,68.8c-0.1-0.3,0-0.5,0.2-0.7c0.1,0,0.3,0.1,0.3,0.2C116.6,68.6,116.4,68.7,116.1,68.8L116.1,68.8z"/>
	<path class="st0" d="M115.3,69.6c0.2-0.8,0.2-0.8,0.8-0.8l-0.1-0.1c-0.2,0.7-0.2,0.7-0.8,0.8L115.3,69.6z"/>
	<path class="st0" d="M146.6,126.5c0-0.3,0.1-0.5,0.3-0.6s0.3,0,0.2,0.3C147,126.4,146.8,126.5,146.6,126.5L146.6,126.5z"/>
	<path class="st0" d="M225,125.7c0.3-0.1,0.5,0,0.6,0.3c0,0.1,0,0.2-0.1,0.3C225.3,126.4,225.2,126.3,225,125.7L225,125.7z"/>
	<path class="st0" d="M104.9,71.2c-0.1-0.3,0-0.5,0.2-0.6c0.2-0.1,0.3-0.1,0.2,0.2C105.3,71,105.1,71.1,104.9,71.2L104.9,71.2z"/>
	<path class="st0" d="M104.8,71.1c0.1,0.3,0,0.6-0.2,0.7c-0.2,0.1-0.4-0.1-0.3-0.4C104.4,71.2,104.6,71.1,104.8,71.1L104.8,71.1z"/>
	<path class="st0" d="M12.7,132.8c-0.2-0.1-0.4-0.2-0.6-0.3c0.1-0.1,0.1-0.1,0.2-0.2c0.1,0.2,0.2,0.4,0.2,0.6L12.7,132.8z"/>
	<path class="st0" d="M148.1,8.6c0.1-0.7,0.1-0.7,0.8-0.8l0,0C148.8,8.5,148.8,8.5,148.1,8.6L148.1,8.6z"/>
	<path class="st0" d="M112.9,80c0-0.6,0.3-0.8,0.8-0.8l-0.1-0.1C113.6,79.8,113.6,79.8,112.9,80L112.9,80z"/>
	<path class="st0" d="M37.6,140.9c0.1-0.2,0.2-0.4,0.3-0.6c0.1,0.1,0.1,0.2,0.2,0.3c-0.2,0.1-0.5,0.2-0.7,0.3H37.6z"/>
	<path class="st0" d="M192.1,83.5c0.1,0.2,0,0.4-0.3,0.4c-0.1,0-0.3-0.2-0.2-0.3s0.2-0.2,0.3-0.3C191.9,83.3,192,83.4,192.1,83.5z"
		/>
	<path class="st0" d="M37.5,140.8c-0.1,0.2-0.2,0.4-0.3,0.6c-0.1-0.1-0.1-0.1-0.2-0.2C37.2,141.1,37.4,141,37.5,140.8L37.5,140.8z"
		/>
	<polygon class="st0" points="34.8,142.7 34.9,143 34.6,143 	"/>
	<path class="st0" d="M41.5,142.4c0,0.3-0.1,0.5-0.3,0.6c-0.3,0.1-0.4,0-0.2-0.2C41.1,142.6,41.3,142.5,41.5,142.4L41.5,142.4z"/>
	<path class="st0" d="M108.1,87.2c0.1-0.7,0.3-0.8,0.5-0.6c0.1,0.1,0.1,0.2,0.1,0.3C108.5,87.1,108.3,87.2,108.1,87.2L108.1,87.2z"
		/>
	<path class="st0" d="M33.1,144.7c-0.1-0.1-0.2-0.2-0.2-0.2c0.1-0.1,0.2-0.2,0.3-0.2c0.1,0,0.2,0.1,0.2,0.2
		C33.3,144.6,33.2,144.6,33.1,144.7z"/>
	<path class="st0" d="M30.4,146.5c-0.1-0.3,0-0.5,0.3-0.6c0.3-0.1,0.4,0,0.2,0.2C30.8,146.3,30.5,146.3,30.4,146.5L30.4,146.5z"/>
	<path class="st0" d="M56,146.5c0-0.3,0.1-0.5,0.3-0.6c0.3-0.1,0.4,0,0.2,0.2c-0.1,0.2-0.4,0.3-0.6,0.3L56,146.5z"/>
	<path class="st0" d="M30.3,146.4c0,0.6-0.3,0.8-0.8,0.8l0.1,0.1C29.6,146.6,29.6,146.6,30.3,146.4L30.3,146.4z"/>
	<path class="st0" d="M35.9,146.4c0.1,0.3,0,0.5-0.3,0.6c0,0-0.2-0.1-0.2-0.2c0.2-0.1,0.4-0.2,0.7-0.3L35.9,146.4z"/>
	<path class="st0" d="M48.8,147.3c0.1-0.7,0.1-0.7,0.8-0.8l0,0C49.4,147.1,49.4,147.1,48.8,147.3L48.8,147.3z"/>
	<path class="st0" d="M55.9,146.4c0,0.5-0.3,0.8-0.8,0.8l0.1,0.1c0-0.6,0.3-0.8,0.8-0.8L55.9,146.4z"/>
	<path class="st0" d="M29.5,147.2c-0.1,0.2-0.2,0.4-0.4,0.6c-0.1-0.1-0.2-0.2-0.2-0.2c0.1-0.2,0.4-0.3,0.6-0.2L29.5,147.2z"/>
	<path class="st0" d="M135.5,33.9c-0.6,0.2-1,0.3-1.3,0.3c-0.1,0-0.2-0.1-0.3-0.2c-0.1-0.1,0-0.4,0.3-0.4
		C134.5,33.6,134.9,33.7,135.5,33.9z"/>
	<polygon class="st0" points="176,29.9 175.7,30 175.7,29.8 	"/>
	<path class="st0" d="M166.6,82.1c0.4,0.7,0.9,1.5,1.4,2.2c0.2,1-0.5,1.6-0.8,2.3c-0.8,0.8-1.6,1.4-2.8,1.4c-0.7,0-1.3,0-2.1,0
		c-0.2,0.1-0.6,0.3-0.9,0.5c-0.5,0.3-1,0.3-1.5,0.1c-0.6-0.2-1.2-0.6-1.7-0.8c-0.1-0.4-0.3-0.6-0.3-0.9c-0.1-1.1-0.2-2.1,0.1-3.3
		c0.7-0.9,1.5-1.8,2.1-2.6c0.9-0.4,1.6-0.7,2.4-1c0.5-0.2,1-0.3,1.5,0.1C164.8,80.9,165.6,81.4,166.6,82.1z M166.3,85.2
		c-0.4-1.5-1.2-2.7-2.5-3.5c-2.2-0.1-2.2-0.1-3.6,1.1c0.9,1.4,0.9,2.7,0,4.1c0.3,0.3,0.6,0.5,1,0.4c1.2-0.3,2.2-0.8,3.4-1
		C165.3,86.1,165.8,85.6,166.3,85.2z"/>
	<path class="st0" d="M125,104.9c-0.6-0.1-0.9,0.4-1.4,0.5c-0.7-1.5-1.3-3.1-1.7-4.9c1-1.1,2.1-2.3,3.1-3.3c1.2-0.4,2.3-0.8,3.5-1.2
		c1.8,1.4,2.7,3.3,3.4,5.3c-0.3,0.6-0.5,1-0.8,1.7c-0.3,0.2-0.7,0.5-1.2,0.7c-1.4,0.4-2.8,0.9-3.8,1.9c-0.1,0.1-0.5,0.1-0.7-0.1
		C125.2,105.4,125.1,105.1,125,104.9c1-0.1,1.4-1.2,2.3-1.5c0.9-0.3,1.7-0.8,2.5-1.3c0.1-0.1,0.2-0.2,0.3-0.3
		c0.1-0.2,0.4-0.5,0.3-0.7c-0.3-0.9-0.6-1.8-1-2.6c-0.2-0.3-0.5-0.6-0.8-0.9c-1.4-0.2-2.3,0.6-3.3,1.2c-0.5,1.3,0.1,2.7-0.8,3.9
		c-0.1,0.1,0.1,0.5,0.1,0.7C124.6,103.9,124.8,104.4,125,104.9z"/>
	<path class="st0" d="M116,107.2c0.4,0.1,0.8,0.1,1.1,0.3c0.4,0.2,0.6,1,0.4,1.4c-0.6,1.1-1.2,2-2.5,2.5c-1.2,0.5-2.4,1.2-3.4,2
		c-0.2,0.1-0.5,0.2-0.8,0.1c-0.7-0.3-1.4-0.7-2-1.1c0.1-1.6,0.1-3,0.2-4.6c0.3-0.3,0.6-0.8,1-1c1.3-0.7,2.6-1.4,3.7-2.3
		c0.2-0.2,0.5-0.2,0.7-0.3c0.5-0.2,1.5,0.3,1.5,0.9c0.1,0.8,0.1,1.6,0.1,2.4c-0.8,0-1-0.9-1.5-1.2c-0.2-0.1-0.6-0.2-0.7-0.1
		c-0.7,0.6-1.4,1.2-2.1,1.8c-0.1,0.1-0.2,0.2-0.2,0.3c-0.2,1-0.3,2.1-1,3c-0.1,0.1,0,0.3,0,0.4c0,0.3,0.1,0.4,0.3,0.3
		c1.7-0.8,3.4-1.5,4.9-2.5C115.9,108.5,116,107.8,116,107.2z"/>
	<path class="st0" d="M147.6,80.6c-0.4,0-0.9,0.1-1.2,0c-1.3-0.7-2.5-0.6-3.8,0.1c-0.3,0.1-0.6,0-0.7-0.2c-0.1-0.2-0.2-0.6-0.1-0.7
		c0.4-0.7,0.8-1.4,0.8-2.2c0.1-1.3,0.8-2.5,1.2-3.7c0-0.1,0.2-0.2,0.2-0.3c0.6-0.8,1.7-1,2.4-0.3c1.2,1.1,2.1,2.3,2.9,3.8
		c0.2,0.3,0.3,0.7,0.3,1.1c0.1,0.7-0.2,1.3-0.8,1.7C148.4,80,148,80.3,147.6,80.6z M146.6,76.8c0-0.3,0-0.6-0.1-0.8
		c-0.1-0.2-0.2-0.5-0.4-0.6c-0.2-0.2-0.9-0.1-1.1,0.1c-0.5,0.4-1,0.9-0.9,1.6c0.1,0.5,0.1,1,0.2,1.5c0,0.3,0.7,0.5,1,0.4
		c0.5-0.2,0.9-0.5,1.1-1.1C146.5,77.6,146.5,77.2,146.6,76.8z"/>
	<path class="st0" d="M129.7,80.8c0.3-2.3,1.1-4.6,1.9-6.1c0.1-0.2,0.4-0.3,0.6-0.4c0,0.8,0,1.5-0.4,2.2c-0.3,0.4-0.4,0.9-0.5,1.4
		c-0.1,0.6-0.4,1.2-0.5,1.8c0,0.2,0.2,0.5,0.3,0.7c0,0.2,0,0.5-0.1,0.7c-0.1,0.2-0.4,0.1-0.6-0.1C130.1,80.9,129.9,80.9,129.7,80.8z
		"/>
	<path class="st0" d="M127.2,76c0-0.9,0.1-1.7,0.1-2.6c0-0.4,0.4-0.6,0.7-0.7c0,0.8,0,1.5,0,2.3C128.1,75.5,127.8,75.9,127.2,76z"/>
	<path class="st0" d="M214.6,92.9c0.1-0.2,0.2-0.5,0.4-0.6c1-0.4,2.1-0.3,3.1-0.4c1.2,0,2.4,0.1,3.5-0.5c0.3-0.2,0.8-0.1,1.2,0
		c0.8,0.2,1.5,0.6,2.3,0.9c0.5,0.6,0.9,1.3,1.3,1.8c0.3,0.9,0.2,1.7,0.1,2.5c0,0.4-0.2,0.8-0.4,1.1c-0.6,0.7-1.2,1.4-2.1,1.8
		c-1.5,0.6-2.8,1.5-4.3,2c-1.6,0.5-3.2,1.3-5,1.1c-0.9-0.1-1.9,0-2.8,0c-1.3,0-2.7,0-4-0.2c-1.2-0.2-2.3-0.6-3.5-1
		c-0.5-0.5-1-1.1-1.5-1.7c-0.3-0.3-0.2-1.2,0-1.5c1-1.4,2.2-2.6,3.8-3.4c1.4-0.7,3-1,4.4-1.7c0.3-0.2,0.8-0.1,1.2-0.2
		C213.1,92.9,213.9,92.8,214.6,92.9c0,0.3-0.2,0.7-0.6,0.7c-1,0-1.7,0.6-2.6,0.8c-1.1,0.2-2,0.7-2.8,1.1c-0.6,0.8-1,1.4-1.5,2.1
		c-0.4,0.7-0.8,1.4-1.2,2.1c0.8,1.2,2.2,1.3,3.3,2c1.5,0,3,0,4.5,0c1.1,0,2.1,0,3.1-0.6c2.4-0.4,4.4-1.7,6.5-3
		c0.1-0.4,0.2-0.8,0.2-1.2c0-0.5,0.5-0.9,0.6-0.7c-0.4-1.3-0.6-2-0.8-2.6c-0.1-0.3-0.6-0.7-0.9-0.7s-0.5,0-0.8,0
		c-0.5,0.1-1,0.3-1.5,0.4c-0.7,0.1-1.2-0.4-1.9-0.4C217,92.9,215.8,92.9,214.6,92.9z"/>
</g>
</svg>
