<?xml version="1.0" encoding="utf-8"?>
<!DOCTYPE svg PUBLIC "-//W3C//DTD SVG 1.1//EN" "http://www.w3.org/Graphics/SVG/1.1/DTD/svg11.dtd">
<svg version="1.1" id="router_lakes" xmlns="http://www.w3.org/2000/svg" xmlns:xlink="http://www.w3.org/1999/xlink" x="0px" y="0px"
	 width="308.6px" height="176.5px" viewBox="0 0 308.6 176.5" style="enable-background:new 0 0 308.6 176.5;" xml:space="preserve"
	>
<style type="text/css">
<![CDATA[
	.st0{fill:#010101;}
]]>
</style>
<g>
	<path class="st0" d="M250.2,7.3c0.3,0.4,0.6,0.9,0.9,1.3c0.8,0.1,1.6,0.2,2.4,0.3c0.3,0,0.6,0.6,0.6,0.9c0,0.6-0.2,1-0.4,1.5
		c-0.3,0.8-0.3,1.5-0.2,2.3c0,0.4,0.5,0.8,0.8,0.7c1.2-0.5,2.5-0.8,3.8-0.7c0.1,0,0.3,0,0.4,0c0.8,0,1.4-0.7,2.3-0.5
		c0.6,0.2,1.2,0.5,1.9,0.6c0.4,0.1,0.8,0,1.2-0.1c0.2-0.1,0.5-0.3,0.6-0.5c0.2-0.8,0.3-1.5,0.4-2.3c0.1-0.3,0.4-0.4,0.7-0.3
		c0.1,0,0.3,0.1,0.3,0.1c0.1,0.2,0.3,0.5,0.3,0.7c0.1,0.5,0.1,1.1,0.3,1.6c0.1,0.2,0.4,0.5,0.6,0.5c1.6,0.1,3,0.8,4.5,1.5
		c0.1,0.1,0.3,0,0.4,0.1c1-0.4,2-0.7,2.9-1.3c0.3-0.2,0.7-0.4,1-0.7c0.3-0.4,0.6-0.9,1.1-1.1c1-0.5,1.9-0.9,2.9-1.4
		c0.9,0.3,1.8,0.4,2.7,0.8c2.1,0.8,2.1,0.9,4.2,0.5c0.5-0.4,1.1-0.8,1.6-1.1c0.9,0.2,1.7,0.5,2.2,1.4c-0.1,0-0.3,0-0.3,0
		c-0.2,0.2-0.6,0.5,0.1,0.2c0.1,0,0.1-0.2,0.1-0.3c0.5,0,1.1,0,1.6,0c0.7,0,1.3-0.1,1.9-0.5c0.5-0.3,1-0.3,1.5-0.3
		c0.6,0,0.9,0.6,1.2,1c0.2,0.4,0.6,0.6,1,0.6c1.3,0,2.7,0,4,0c1-0.4,1.9-0.9,3-1.3c0.7,1,0.3,2,0.2,3c-0.1,0.1-0.1,0.3-0.2,0.3
		c-2,1.3-3.8,2.9-5.7,4.3c-0.1,0.1-0.3,0-0.4,0l0.1,0.1c-0.1-0.7,0.1-1.3,0.6-1.8c0.5-0.6,1.1-1.1,1.7-1.7c0.2-0.3,0.4-0.6,0.6-1
		c-1.4-0.5-2.7,0-4,0.4c-0.7-0.3-1.4-0.7-2-1c-0.4-1-0.4-1-0.9-0.8c-1.8,0.6-3.7,0.5-5.5,0c-1-0.3-1.7-0.4-2.7,0
		c-2,0.8-3.9,0.6-5.5-0.9c-0.1-0.1-0.2-0.1-0.3-0.1c-0.6,0.3-1.3,0.5-1.8,0.9c-0.8,0.5-1.4,1.3-2.3,1.5c0,0,0,0.2-0.1,0.3
		c0.5,1,1.4,1.5,2.4,2c0.2,0.1,0.3,0.4,0.5,0.6c0.3,0.7,0,1.6,0.6,2.3c1,0.4,2.1-0.1,3.1,0.1c0.5,0.1,1,0.2,1.5,0.4
		c0.3,0.1,0.3,0.4,0.3,0.7c-0.1,0.7-0.6,1.2-1.2,1.4c-0.4,0.1-0.8,0.1-1.2,0.1c-1.2,0.1-1.3,0.2-1.4,1.4c0,0.4-0.1,0.8-0.4,1.1
		c-0.6,0.7-1.3,1.4-1.9,2.1c-0.1,0.9,0.6,1.4,1.2,1.8c0.4,0.3,1.3,0.1,1.8-0.5c0.4-0.4,0.7-0.8,1-1.2c0.8-1,2.2-0.9,3,0.2
		c0.2,0.2,0.3,0.4,0.5,0.6c0.3,0,0.5,0.1,0.8,0.1c0.2-0.3,0.4-0.7,0.5-1c0.7-1.4,1.8-2.3,3.5-2.6c-0.1,0,0.1,0,0.2,0
		c0.8,0.4,1.6,0.2,2.1-0.5c0.6-0.7,0.9-1.7,1.8-2.3c0.3,0,0.7,0,1.1,0l0,0c0,0.3,0.1,0.5,0,0.8c-0.2,0.5-0.5,0.9-0.7,1.3
		c0,0.7-0.1,1.4,0,2.1c0.1,1.1-0.4,1.8-1.3,2.2c-1.2-0.2-2.1-1.1-3.2-1.4c-0.8,0.6-1.7,1.3-2.5,2c-0.1,0.3-0.2,0.7-0.3,1.1
		c-0.1,0.4-0.4,0.6-0.8,0.7c-0.7,0.2-1.3,0.2-1.9-0.2c-0.3-0.2-0.7-0.4-0.9-0.5c-0.7-0.1-0.9,0.2-1.2,0.5c-0.4,0.4-0.8,0.8-1.3,0.9
		c-0.6,0.2-1.2,0.5-1.8,0.7c-1.3-0.3-1.8-1.6-2.9-2.2c-1.6-0.3-1.6-0.3-2.8-1.3c0-0.4,0-0.8,0.3-1.1c0.3-0.3,0.6-0.6,1-0.7
		c0.6-0.3,1.1-0.7,1.4-1.3c0.2-0.3,0.6-0.4,1-0.7c0.4-0.3,0.9-0.6,0.8-1.2c-0.1-0.4-0.7-0.4-1.1-0.4c-1.1,0-2.2-0.1-3.1,0.6
		c-1.8,0-3.3,1.1-5,1.2c-0.7,0-1.3,0.5-1.6,1c-0.9,1.4-2,2.5-2.9,3.8c-0.8,1.1-1.2,2.3-1.4,3.7c-1.1,9.2-0.5,7.7-0.6,14.3
		c0,0.3,0,0.6,0.1,0.8c0.9,1.2,0.5,2.6,0.7,3.9c0.1,0.4,0.2,0.8,0.3,1.1c0.4,1.1,0.9,2.2,1.1,3.4c0.2,1.1,0.9,1.9,1.1,3
		c0.1,0.5,0.3,1,0.4,1.5c-0.5,0.3-1,0.5-1.5,0.7c-0.6,0.3-1.3,0.4-1.9,0.1c-1-0.5-2-0.5-3,0s-1.8,0-2.5-0.6
		c-0.3-0.2-0.5-0.8-0.3-1.1c0.5-0.8,0.8-1.7,0.8-2.6c0-1,0.7-1.7,0.7-2.7c0-0.9,0.2-1.9,0.7-2.7c0.1-0.1,0.1-0.2,0.1-0.4
		c0.2-1.2,0-2.4,0.5-3.5c0.4-1.1,0.3-2.4,0.3-3.6c0.1-2.4,0.1-4.8,0.2-7.2c0-0.5,0.3-1,0.5-1.7c-0.2-0.6-0.4-1.4-0.6-2.1
		c-0.3-1.2-0.8-2.3-1.6-3.2c-0.9-1.1-1.8-2.3-2.8-3.3c-0.7-0.8-1.7-1.3-2.9-1.2l0.1,0.1c-0.4-0.7-0.7-1.4-1.6-1.6
		c-0.1,0-0.3-0.1-0.4-0.1c-0.1,0-0.2-0.1-0.4-0.2c-1-0.7-2-0.5-3,0c-0.8-0.6-2.1-0.5-2.4-1.8c0.4-0.8,1-1.2,1.9-1
		c0.5,0.1,1,0.3,1.5,0.5c0.6,0.2,1.1-0.3,1-0.9c-0.2-1.2-0.7-2.3-1.4-3.2c-0.1-0.2-0.4-0.3-0.7-0.4c-0.3,0.1-0.7,0.3-1,0.4
		c-0.8,0.4-1.6,0.2-2.3-0.1c-0.2-0.1-0.5-0.3-0.6-0.5c-0.5-0.6-1.1-0.7-1.7-0.8c-0.5-0.1-1-0.3-1.5-0.5c-0.8,0.7-1.7,0.7-2.7,0.5
		l0.1,0.1c0-0.1,0-0.3,0.1-0.4c1.2-0.9,2.5-1.5,4-1.3c0.8,0.1,1.6,0.1,2.4,0.1c0.5,0.6,0.9,1,1.3,1.5c0.7,0,1.3-0.1,1.9-0.5
		c0.8-0.4,1.7-0.1,2,0.6c0.5,0.9,0.8,1.9,1.2,2.9s1.1,1.8,2.4,1.8c0.3,0,0.5,0.2,0.4,0.4c0,0.1-0.2,0.2-0.3,0.2
		c-0.4,0.1-0.8,0.1-1.2,0.2c-0.3,0.1-0.4,0.3-0.4,0.5c0,0.1,0.1,0.3,0.2,0.4c1.4,1.1,3,1.6,4.9,1.7c0.7,0.6,1.5,1.4,2.3,2
		c0.7,0.5,1.6,0.9,2.4,1.4c0.1-0.2,0.4-0.3,0.4-0.5c0.2-0.9,0.1-1.9,0.6-2.7c0.2-0.3,0.3-0.8,0.3-1.1c0.1-1-0.3-2.2,0.4-3.1
		c0.6-0.9,0.3-2.1,0.9-3c0.3-0.5,0.3-1.3-0.1-1.9c-0.6-1-1.4-1.7-2.5-1.7c-1.5,0-2.9,0.1-4.4,0.1c-1.5,1-3.4,0.4-5,1.2
		c-0.4,0.2-0.7-0.2-1-0.5c-0.3-0.3-0.3-0.8-0.2-1.1c0.4-0.8,0.8-1.7,1.2-2.5c0.3-0.7-0.2-1.6-1.1-1.6c-0.3,0-0.5,0.2-0.8,0.1
		c-0.8-0.2-1.5-0.4-2.3-0.6c-0.3-0.1-0.4-0.8-0.3-1C248.4,7.7,249.1,7.1,250.2,7.3L250.2,7.3z M265.7,22.3c0.8-0.3,1.6-0.7,2.6-0.7
		c0.9,0,1.9,0.2,2.7-0.3c0.8-0.5,1.5,0,2.2,0.2c1.2-0.3,2.4-0.5,3.5-0.8c0.2-0.1,0.5-0.2,0.6-0.4c0.2-0.3,0.1-1.3-0.2-1.5
		c-0.6-0.4-1.5-0.6-1.9-1.3c-0.4-0.6-0.9-1.3-1.3-1.9c-1.9,0.8-3.8,0.9-5.7-0.1c-0.2-0.1-0.5-0.1-0.8-0.1c-0.5-0.1-1.1,0.4-1.2,0.8
		c-0.1,0.9-0.1,1.8-0.5,2.7c-0.4,1-0.4,2-0.3,3.1C265.4,22.1,265.6,22.1,265.7,22.3z"/>
	<path class="st0" d="M251,108.3c0-0.1,0-0.3,0.1-0.4c0.9-0.6,1.7-1.2,2.6-1.7c0.7-0.4,1.5-0.6,2.2-0.9c0.5-0.2,1-0.3,1.6-0.3
		c1.9,0,3.7,0,5.6,0c0.5,0,1.1,0.1,1.5,0.4c1.1,0.6,2.4,0.3,3.4,1.1c0.4,0.3,1,0.2,1.5,0.3c1.2,0.2,2.4-0.1,3.5,0.5
		c1.6,0.3,3.2,0.4,4.8,0c1-0.3,2.1-0.5,3.1-0.5c0.8,0,1.6-0.2,2.3-0.5c1.4-0.4,2.8-0.7,4.2-1.1c1.4-0.3,2.8-0.9,4.1-1.5
		c1.7-0.8,2.8-2,3.2-3.9c-0.3-0.7-0.5-1.4-0.1-2.2c-1-0.9-2.3-1.2-3.4-1.9c-1.8-0.2-3.7-0.3-5.6-0.2c-1.3,0.1-2.6,0-3.9-0.5
		c-0.7-0.3-1.6-0.2-2.4-0.3c-0.4-0.1-0.7-0.4-1-0.5c-0.5-2.2,0-4.4-0.2-6.5c0.5-1.3,0.9-2.5,1.4-3.8c0.4-1.1,0.3-2.1,0-3.1
		c-0.2-0.5-0.5-1-1-1.2c-0.3,0.4-0.5,0.8-0.8,1.2c-0.6-0.4-1-1-1.3-1.6c-0.2-0.2-0.4-0.4-0.6-0.5c-0.9-0.2-1.6-0.9-2.5-1.2
		c-0.8-1-2-1.2-3.1-1.6c-1.5-0.5-3-1-4.3-1.8c-1.5-0.4-3-0.1-4.4-0.5c0.1-0.4,0.2-0.7,0.3-1c-0.2-0.1-0.3-0.3-0.4-0.3
		c-1.3,0-2.7,0-4,0c-0.4,0-0.8,0-1.2,0.2c-1.5,0.7-3.1,0.7-4.7,0.6c-1.3,0-2.7,0.2-4-0.1c-0.1,0-0.3-0.1-0.3-0.2
		c-0.1-0.1,0-0.4,0.4-0.4c1.2-0.1,2.4-0.1,3.6-0.2c0.5,0,1.1,0.1,1.6-0.1c1.5-0.8,3.1-0.6,4.7-0.6c3.7,0,7.5-0.1,11.2,0
		c1.1,0,2.1,0.1,3.2,0.2c1,0.8,2.3,0.5,3.4,1.2c0.8,0.5,1.7,0.8,2.6,1c1,0.2,1.8,0.5,2.2,1.4c1,0.3,1.3,1.3,1.7,2.1
		c0.1,0.1,0.2,0.2,0.2,0.4c0.1,1.1,0.6,2,1.1,2.9c-0.2,0.5-0.2,0.9-0.4,1.3s-0.2,0.7-0.1,1.1c0.3,0.6,0.2,1.3,0,1.9
		s-0.4,1.3-0.6,1.9c-0.1,0.4-0.3,0.8-0.6,1c-1.2,1.1-1.2,2.3-0.2,3.5c0.1,0.1,0.1,0.2,0.2,0.4c-0.4,0-0.7,0-1.1,0
		c-0.3,0-0.6,0.4-0.5,0.8c0,0.1,0.1,0.2,0.1,0.3c0.2,0.2,0.4,0.2,0.6,0c0.3-0.4,0.5-0.8,0.8-1.3c0.7,0.1,1.3,0.1,2,0.3
		c0.6,0.2,1.2,0.5,1.9,0.5c2.4,0.1,4.6,1.3,6.9,1.8c0.4,0.1,0.7,0.3,1,0.6c0.6,0.6,1.3,0.8,2.1,0.9c0.7,0.1,1.1,0.7,1.2,1.4
		c0.2,1-0.6,2-0.2,3c-0.3,0.7-0.6,1.5-1.1,2.1c-1.1,1.2-2.3,2.2-3.8,2.9c-1.1,0.5-2.2,0.8-3.3,1.2c-1.2,0.4-2.4,0.3-3.5,0.5
		c-1,0.4-1.9,0.9-3,1.4c-0.3,0-0.7,0.1-1.1,0.1c-1.3,0-2.6,0-3.9,0.6c-0.6,0.3-1.3,0.2-2-0.1c-0.5-0.2-1-0.4-1.5-0.5
		c-1-0.1-2.1,0-3.2-0.3c-0.9-0.2-1.8-0.5-2.7-0.6c-1.3-0.2-2.5-0.6-3.8-1c-0.8-0.2-1.5-0.5-2.3-0.4c-1,0.1-2.1-0.2-3.1,0.3
		c-0.2,0.1-0.5,0.2-0.8,0.2c-0.8,0.1-1.6,0.2-2.6,0.3c-0.3,0.2-0.8,0.4-1.2,0.8C252.8,108.3,251.9,108.4,251,108.3L251,108.3z
		 M267.9,73.1c0.1-0.2,0.3-0.4,0.3-0.6c0,0-0.2-0.2-0.3-0.2c-0.9,0-1.8,0-2.7,0c-0.3,0-0.5,0.3-0.3,0.4c0.1,0.1,0.2,0.2,0.3,0.2
		C266.1,73,267,73,267.9,73.1z M278.4,75.5c-0.3,0-0.6,0.1-0.5,0.3c0,0.3,0.3,0.3,0.6,0.3c0.1,0,0.2-0.1,0.3-0.2
		C278.8,75.7,278.6,75.5,278.4,75.5z"/>
	<path class="st0" d="M192.5,79.4c0-0.1,0-0.3,0.1-0.4c0.7-0.6,1.4-1.2,2-1.7c1-0.3,2-0.2,2.8-0.8c0.1-0.1,0.2-0.1,0.4-0.2
		c0.9-0.2,1.8-0.6,2.6-0.8s1.5-0.3,2.3-0.7c0.5-0.2,1-0.2,1.6-0.3c1.2-0.1,2.4,0,3.5-0.6c0.6-0.3,1.3-0.2,2-0.2c2,0,4-0.1,6-0.1
		c0.9,0,1.9,0,2.7-0.4c0.3-0.2,0.8-0.2,1.2-0.2c1.3-0.1,2.7-0.2,4-0.2c1.1,0,2.1,0,3.1-0.5c0.5-0.2,1.1-0.2,1.6,0s1,0.1,1.5,0
		c1.6-0.4,3.2-0.3,4.8-0.3c0.8,0,1.6-0.1,2.3-0.4c0.9-0.4,1.9-0.5,2.7-0.2c1.9,0.7,3.9,0.5,5.9,0.7c0.2,0,0.4,0.3,0.7,0.5
		c-0.4,0.2-0.7,0.4-1.1,0.4c-1.3,0-2.7,0-4,0c-1.6,0-3.2,0-4.8,0.1c-0.4,0-0.8,0.1-1.2,0.2c-0.8,0.3-1.5,0.4-2.3,0.4
		c-1.3,0-2.7,0.1-4,0.2c-0.5,0-1.1,0-1.6,0.2c-1.3,0.4-2.6,0.5-3.9,0.5c-1.1,0-2.1,0.1-3.1,0.5c-0.7,0.3-1.6,0.2-2.4,0.3
		c-1.1,0-2.1,0.1-3.1,0.5c-0.5,0.2-1,0.3-1.6,0.3c-1.5-0.1-2.9,0.4-4.3,0.9c-1.8,0.5-3.4,1.4-5.3,1.7c-0.2,0-0.5,0.3-0.6,0.5
		c-0.2,0.4-0.4,0.7-0.8,0.8c-1.2,0.2-2.2,1-3.3,1.3c-0.9,0.7-1.6,1.8-2.8,2.3c-0.4,0.2-0.9,0.7-1.1,1.1c-0.4,1.4-1.6,2.1-2.4,3.3
		c0,0.3-0.1,0.7-0.2,1.1c-0.1,0.5-0.3,0.7-0.7,0.8c-0.5,0.1-1.1,0-1.5-0.3c-1-0.7-1.8-1.6-1.8-2.9c0-0.9,0-1.9,0-2.9
		c0.3-0.7,0.7-1.4,1-2.1c0.7-0.6,1.3-1.4,2.3-1.5l0,0c0,0.3,0,0.5,0,0.8c0,0.3,0.1,0.6,0.4,0.6c0.1,0,0.3-0.4,0.4-0.6
		c0.1-0.2,0-0.5,0.1-0.8l-0.1,0.1c0.4,0,0.7,0,1.1-0.1c0.3-0.1,0.4-0.3,0.3-0.4c0-0.1-0.2-0.2-0.3-0.2
		C193.2,79.4,192.9,79.4,192.5,79.4L192.5,79.4z M190.7,86.2c-0.1-0.1-0.2-0.2-0.2-0.3c-0.1,0.1-0.2,0.2-0.2,0.3
		c0,0.1,0.1,0.2,0.2,0.3C190.6,86.4,190.7,86.3,190.7,86.2z"/>
	<path class="st0" d="M251,108.2c0,0.3-0.1,0.6-0.3,0.6c-0.9,0.3-1.8,0.3-2.5,1.1c-1.5,0.6-2.9,1.4-4.5,1.4c-2,0-4,0.2-6,0.2
		c-0.4,0-0.8,0-1.2-0.2c-2.3-1.1-4.6-2.2-6.2-4.2c-0.3-0.4-0.7-0.9-0.8-1.4c-0.2-1.6-1.2-2.6-2.5-3.5c-0.1-0.1-0.2-0.1-0.3-0.2
		c-1.6,0.8-3.1,0.2-4.7-0.2c-1.1,0.5-2.1,1.1-3.2,1.4c-1.2,0.3-2.2,0.9-3.3,1.4c-0.9,0.4-1.9,0.3-2.6,0.9c-1.2,0.2-2.3,0.4-3.5,0.8
		c-1,0.4-2.1,0.3-3.1-0.3c-0.8-0.4-1.7-0.9-2.4-1.5c-0.6-0.5-1.2-1.1-1.5-1.8c-0.3-0.6-0.6-1.2-0.9-1.7c-0.6-2.6,0.4-5.1-0.3-7.7
		c-0.5-0.5-1-1.1-1.6-1.7c-1-0.3-2-0.5-3-0.8s-2-0.5-3.1-0.7c0.1-1,0.2-1.2,0.8-1c1,0.3,2,0.7,3.1,0.7c3.2,1.3,2.7,0.1,5.6,3.4
		c0.2,0.2,0.4,0.4,0.6,0.5c1.4,0.5,2,1.7,2.4,3c0.1,1.2,0.2,2.4,0.4,3.7c0.3,0.5,0.7,1,1.1,1.6c0.5,0.6,1.1,1.2,1.9,1.4
		c0.3,0.1,0.5,0.2,0.7,0.3c1.1,0.7,2.4,0.7,3.5,0.3s2.4-0.5,3.4-1.2c1.2-0.1,2.3-0.6,3.3-1.2c0.6-0.3,1.2-0.5,1.9-0.6
		c0.5-0.1,1.1-0.1,1.6-0.3c0.7-0.3,1.2-0.2,1.9,0c0.7,0.3,1.6,0.3,2.5,0.5c0.8,0.3,1.4,1.1,2,1.7c0,1,1,1.5,1.4,2.3
		c1.1,2,1.6,2.4,3.4,3.1c1.1,0.4,2.2,0.9,3.6,1.5c0.5,0,1.3,0.1,2.1,0c1.3,0,2.7,0,4-0.2c1.2-0.2,2.3-0.6,3.4-1.1
		C248.9,108.2,249.9,108.2,251,108.2L251,108.2z"/>
	<path class="st0" d="M250.2,7.3c0.1-0.2,0.1-0.5,0.2-0.7c0.7-0.8,1.4-1.6,2.5-1.9c1.6-1.1,3.3-2.2,5.1-3c1.2-0.5,2.4-1.1,3.8-1.4
		c0.3,0.3,0.7,0.6,1.2,1c0.3,0.3,0.8,0.4,1.1,0.2c0.9-0.6,2-0.6,3-1.1c1.2-0.6,2.5-0.6,3.8,0.1c1.2,0.6,2.4,1.2,3.5,1.7
		c1.7-0.4,3-1.4,4.4-2c0.3-0.1,0.8,0,1.1,0c0.6,0.5,0.8,1.2,1.1,1.7c0.3,0.5,0.1,1-0.2,1.5c-0.1,0.2-0.3,0.4-0.5,0.6
		c-0.6,0.5-0.4,1.2-0.7,1.8c-0.3,0.8-0.5,1.4-0.1,2.2c0.2,0.3,0.1,0.8,0,1.2c-0.1,0.3-0.3,0.4-0.6,0.3c-0.3,0-0.6-0.1-0.6-0.4
		c-0.2-1.3-0.4-2.6,0.4-3.9c0.3-0.5,0.4-1.2,0.7-1.9c0.3-0.8,0.3-0.8-0.8-1.4c-0.8,0.5-1.5,1.1-2.5,1.2c-0.8,0.1-1.5,0.4-2.3,0.7
		c-1.4-0.7-2.8-1.5-4.4-2.3c-0.4,0-0.9,0-1.4,0c-0.9,0-1.8,0.2-2.6,0.8c-0.8,0.6-1.7,0.7-2.6,0.8c-1,0.1-1.8-0.1-2.6-0.4
		c-0.6,0.2-1.1,0.4-1.6,0.5c-1,0.3-2,0.8-3.1,0.8c-1.1,1.2-2.8,1.6-3.9,2.7C251.3,7.2,250.8,7.4,250.2,7.3L250.2,7.3z"/>
	<path class="st0" d="M251.8,27.3c0,0.1,0,0.3-0.1,0.4c-0.7,0.5-1.5,0.9-1.9,1.8c-0.8,0.3-1.1,1.1-1.6,1.7c-0.4,0.5-0.9,1-1.4,1.4
		c-0.5,0.5-1.2,0.5-1.8,0.2c-0.2-0.1-0.5-0.2-0.8-0.4c-0.4,0.1-0.9,0.3-1.4,0.4c-0.4,0.1-0.8,0-1.2-0.1c-0.4-0.1-0.7-0.4-0.9-0.8
		c-0.2-0.4,0.1-0.7,0.3-1.1c-0.2-0.6-0.4-1.2-0.6-1.7c-0.8-0.7-1.6-0.2-2.3-0.4l0.1,0.1c0-0.1,0-0.3,0.1-0.4
		c0.8-0.5,1.6-0.9,2.4-1.1c0.5-0.2,1-0.1,1.5,0.4c0,0.9,0,1.8,0,2.7c0,0.3,0.4,0.7,0.8,0.7c0.5,0,1.1,0.1,1.6-0.1
		c1-0.3,2-0.7,2.7-0.9c0.8-0.9,1.4-1.6,2-2.3C250,27.3,250.8,27.1,251.8,27.3L251.8,27.3z"/>
	<path class="st0" d="M233.4,27.3c0-0.4,0.1-0.8,0.1-1.1c2.1-1.4,2.1-1.4,3.8-3.4c-0.1-0.2-0.1-0.5-0.2-0.7
		c-0.3-0.4-0.7-0.3-1.1-0.3c-0.3,0-0.5,0.1-0.7,0.2c-1.1,0.6-2.3,0.6-3.4,0.5c-0.2,0-0.4-0.2-0.7-0.3c0.2-0.5,0.6-0.9,1.1-1.1
		c0.6-0.3,1.1-0.7,1.4-1.3c0.3-0.5,0.9-0.5,1.4-0.5l-0.1-0.1c-0.2,0.5-0.3,0.9-0.5,1.4c0.4,0.1,0.8,0.2,1.1,0.2c1.2,0,2.4,0,3.5,0.1
		c0.2,0,0.5,0.3,0.6,0.5c0.1,0.2,0,0.5,0,0.8c0,0.1-0.1,0.3-0.2,0.3c-1.1,1.1-2.2,2.2-3.4,3.3C235.2,26.5,234.4,27,233.4,27.3
		L233.4,27.3z"/>
	<path class="st0" d="M236.5,29.7c0,0.1,0,0.3-0.1,0.4c-0.2,0.2-0.4,0.4-0.6,0.4c-1.1,0-1.9,0.9-3,0.9c-0.4,0-0.8,0-1.2,0
		c-0.3,0-0.6-0.5-0.7-0.8c-0.1-0.4,0-0.8,0.2-1.1c0.6-0.7,1.2-1.4,1.9-2c0.1-0.1,0.3,0,0.4,0l0,0c0.2,0.8-0.5,1.4-0.7,2.1
		c0,0.2,0.1,0.5,0.2,0.7C234.1,29.8,235.3,29.6,236.5,29.7L236.5,29.7z"/>
	<path class="st0" d="M274.7,60.7c-0.6-0.3-0.6-1.1-1-1.6c0.1-0.5,0.4-0.9,1-1.1c0.2,0.2,0.5,0.3,0.6,0.5c0.5,0.5,0.5,0.9,0.2,1.4
		c-0.1,0.2-0.3,0.4-0.5,0.6C275,60.6,274.8,60.6,274.7,60.7z"/>
	<path class="st0" d="M218.6,110.2c-0.1,0.3-0.1,0.5-0.3,0.7c-0.3,0.4-1,0.6-1.4,0.4s-0.5-0.6-0.5-1c0-0.2,0.1-0.5,0.2-0.7
		c0.2-0.5,0.9-0.6,1.3-0.3C218.2,109.5,218.4,109.9,218.6,110.2z"/>
	<path class="st0" d="M273,65c0.4,0.1,0.6,0.2,0.9,0.3c0.2,0.1-0.1,0.6-0.4,0.9c-0.5,0.5-1.2,0.5-1.8,0.2c-0.2-0.1-0.3-0.4-0.4-0.6
		c-0.1-0.3,0-0.5,0.3-0.6C272.1,65.1,272.6,65.1,273,65z"/>
	<path class="st0" d="M235,19.4c0-0.1,0-0.3,0-0.4c0.7-0.6,1.3-1.3,2-1.8c0.3-0.2,0.7-0.2,1.1-0.2l-0.1-0.1c0,0.1,0,0.3-0.1,0.4
		c-0.5,0.6-1.1,1.1-1.7,1.6c-0.4,0.4-0.9,0.4-1.5,0.4L235,19.4z"/>
	<path class="st0" d="M291.3,85c-0.2-0.1-0.5-0.2-0.7-0.3c0.1-0.2,0.1-0.5,0.3-0.6c0.6-0.5,1.2-0.8,2.1-0.6c0.3,0.1,0.4,0.3,0.2,0.6
		C292.8,84.8,292.1,85,291.3,85z"/>
	<path class="st0" d="M224.3,113.2c-0.1,0.5-0.3,0.7-0.8,0.7c-0.6,0.1-1-0.1-1.1-0.7c0-0.1-0.1-0.3,0-0.4c0.3-0.2,0.6-0.5,1-0.5
		c0.4-0.1,0.7,0.2,0.9,0.5C224.4,112.9,224.3,113,224.3,113.2z"/>
	<path class="st0" d="M281.3,58.8c0.5,0,0.7,0.2,0.7,0.7c0,0.4-0.1,0.7-0.4,1s-0.8,0.2-0.9-0.2c-0.1-0.2-0.1-0.5-0.1-0.7
		C280.6,59,280.8,58.8,281.3,58.8z"/>
	<path class="st0" d="M284.2,71.1c-0.4-0.5-0.6-1.1-0.2-1.7c0.1-0.2,0.7-0.4,1-0.2c0.3,0.1,0.4,0.3,0.3,0.6
		C285.3,70.5,285.3,70.5,284.2,71.1z"/>
	<path class="st0" d="M259.4,68c-0.3-0.2-0.6-0.4-0.9-0.7c-0.3-0.3-0.1-0.7,0-1.1c0.1-0.3,0.3-0.3,0.6-0.4c0.3,0,0.5,0,0.6,0.3
		C259.9,66.8,259.9,67.4,259.4,68z"/>
	<path class="st0" d="M298.3,19.3c-0.6,1.2-1.3,1.9-2.4,2.4l0,0c-0.2-1.2,0.3-1.9,1.3-2.3C297.6,19.3,298,19.4,298.3,19.3
		L298.3,19.3z"/>
	<path class="st0" d="M301.4,104.4c-0.1,0.2-0.2,0.5-0.4,0.6c-0.2,0.1-0.9-0.2-1-0.5c0-0.2,0-0.5,0-0.7c0.1-0.3,0.4-0.3,0.7-0.2
		C301.3,103.7,301.4,103.9,301.4,104.4z"/>
	<path class="st0" d="M308.5,106c-0.2,0.4-0.5,0.6-0.9,0.5c-0.3,0-0.5-0.6-0.4-0.9c0.1-0.3,0.6-0.4,1-0.3
		C308.5,105.5,308.6,105.7,308.5,106z"/>
	<path class="st0" d="M291.1,67.5c0.3,0,0.5,0.1,0.6,0.3c0.1,0.3-0.1,0.8-0.4,0.9c-0.3,0.2-0.9,0-1-0.3
		C290.2,68.1,290.6,67.5,291.1,67.5z"/>
	<path class="st0" d="M299.2,109c0-0.5,0.1-0.6,0.6-0.7c0.4,0,0.8,0.2,0.8,0.5c0.1,0.4-0.2,0.9-0.4,0.9
		C299.8,109.9,299.2,109.5,299.2,109z"/>
	<path class="st0" d="M259.2,110.9c0.1-0.2,0.1-0.5,0.3-0.7c0.2-0.1,0.5-0.2,0.7-0.1c0.3,0.1,0.3,0.4,0.4,0.6c0,0.3-0.1,0.5-0.4,0.6
		C259.7,111.5,259.3,111.2,259.2,110.9z"/>
	<path class="st0" d="M279.9,65.9c0.5,0.1,0.6,0.3,0.6,0.8s-0.3,0.7-0.7,0.6c-0.5-0.1-0.7-0.3-0.6-0.8
		C279.2,65.9,279.4,65.8,279.9,65.9z"/>
	<path class="st0" d="M266.9,66.6c-0.1,0.2-0.2,0.5-0.4,0.6c-0.2,0.2-0.9-0.1-1-0.3c0-0.2,0-0.5,0.1-0.7c0.1-0.3,0.5-0.4,1-0.2
		C267,66.1,267.1,66.3,266.9,66.6z"/>
	<path class="st0" d="M265.5,114.6c-0.4,0-0.6-0.1-0.8-0.6c-0.1-0.4,0.1-0.7,0.5-0.7c0.2,0,0.5,0.1,0.6,0.3c0.1,0.2,0.3,0.5,0.2,0.7
		C266,114.4,265.7,114.5,265.5,114.6z"/>
	<path class="st0" d="M285.9,63.9c-0.1-0.1-0.2-0.1-0.3-0.2c-0.4-0.4-0.3-0.9-0.2-1.4c0-0.1,0.3-0.3,0.5-0.3c0.1,0,0.2,0.1,0.3,0.2
		c0.2,0.5,0.2,0.9,0,1.4C286.2,63.8,286,63.8,285.9,63.9z"/>
	<path class="st0" d="M288.7,88.1c-0.1,0-0.2,0-0.3-0.1c-0.2-0.1-0.2-0.3,0-0.6c0.1-0.1,0.2-0.2,0.3-0.3c0.2-0.2,0.5-0.3,0.6-0.1
		c0.1,0.2,0.1,0.5,0,0.7C289.1,87.9,288.9,87.9,288.7,88.1z"/>
	<path class="st0" d="M306.3,96.5c0,0.1-0.2,0.3-0.3,0.3c-0.5,0-1-0.6-1-1c0-0.1,0.2-0.2,0.3-0.2C306,95.6,306.3,95.9,306.3,96.5z"
		/>
	<path class="st0" d="M303.5,99.8c0,0.5-0.4,1-0.8,1.1c-0.1,0-0.4-0.3-0.4-0.4c0-0.6,0.3-0.9,0.9-0.8
		C303.3,99.6,303.4,99.8,303.5,99.8z"/>
	<path class="st0" d="M223.5,109.1c-0.4-0.4-0.6-0.6-0.9-0.9c-0.1-0.1-0.1-0.3-0.1-0.3c0.2-0.1,0.4-0.3,0.6-0.3
		c0.3-0.1,0.5,0.1,0.6,0.3C223.7,108.2,223.5,108.6,223.5,109.1z"/>
	<path class="st0" d="M305.2,108.7c-0.1-0.1-0.2-0.1-0.2-0.2c0-0.2-0.1-0.5,0-0.7c0.1-0.3,0.3-0.4,0.6-0.3c0.1,0,0.2,0.1,0.3,0.1
		c0.2,0.2,0.1,0.4-0.1,0.6C305.6,108.4,305.4,108.6,305.2,108.7z"/>
	<path class="st0" d="M254.8,114.3c-0.1,0.5-0.8,1-1.1,0.7c-0.1-0.1-0.2-0.5-0.1-0.7c0.1-0.3,0.5-0.4,1-0.3
		C254.7,114.1,254.7,114.2,254.8,114.3z"/>
	<path class="st0" d="M274,114.6c0,0.3-0.1,0.5-0.3,0.5c-0.1,0-0.3,0-0.3-0.1c-0.2-0.1-0.3-0.3-0.5-0.5c-0.2-0.3-0.2-0.5,0.2-0.6
		C273.7,113.8,274,114,274,114.6z"/>
	<path class="st0" d="M219.7,116.3c-0.3-0.1-0.5-0.2-0.4-0.4c0-0.1,0.1-0.2,0.2-0.3c0.1-0.1,0.2-0.2,0.3-0.2c0.3-0.2,0.5-0.3,0.6,0
		c0.1,0.2,0.1,0.5,0,0.7C220.2,116.2,220,116.3,219.7,116.3z"/>
	<path class="st0" d="M253.4,26.5c-0.1,0.5-0.4,0.8-0.9,0.8c-0.2,0-0.5,0-0.7,0l0,0c0-0.4,0.2-0.7,0.6-0.7
		C252.7,26.5,253.1,26.6,253.4,26.5L253.4,26.5z"/>
	<path class="st0" d="M296,91.4c-0.2,0-0.4-0.2-0.6-0.3c0.2-0.1,0.4-0.3,0.6-0.3c0.2,0,0.4,0.2,0.6,0.3
		C296.4,91.2,296.2,91.4,296,91.4z"/>
	<path class="st0" d="M238.1,28.9c0,0.4-0.2,0.7-0.5,0.8c-0.3,0.1-0.7,0-1,0.1l0.1,0.1c0-0.4,0.1-0.7,0.5-0.7c0.4-0.1,0.7,0,1.1,0
		L238.1,28.9z"/>
	<path class="st0" d="M298.7,93.1c0.1,0.1,0.2,0.2,0.2,0.3c0,0.1-0.2,0.2-0.3,0.3c-0.1-0.1-0.2-0.2-0.2-0.3
		C298.4,93.3,298.6,93.2,298.7,93.1z"/>
	<path class="st0" d="M191.7,80.2c0.1-0.7,0.1-0.7,0.8-0.8l0,0c0,0.3,0,0.5-0.1,0.8l0.1-0.1C192.2,80.2,192,80.2,191.7,80.2
		L191.7,80.2z"/>
	<path class="st0" d="M266,118.3c-0.1,0.1-0.2,0.1-0.2,0.2c-0.1-0.1-0.2-0.2-0.2-0.2c0-0.1,0.1-0.1,0.2-0.2
		C265.9,118.1,266,118.2,266,118.3z"/>
</g>
<g>
	<path class="st0" d="M173.3,57.3c0-0.1,0-0.3,0.1-0.4c0.7-0.6,1.6-0.9,2.5-1c1-0.1,1.8-0.5,2.7-0.8c0.8-0.3,1.6-0.1,2.2,0.4
		c0.3,0.3,0.6,0.6,0.9,0.7c0.3,0.2,0.8,0.2,1.1,0.2c0.6-0.1,1.2-0.5,1.9-0.7c0.6-0.2,1.3-0.3,1.9-0.5c0.1,0.1,0.2,0.1,0.3,0.2
		c0.3,0.7,0.6,1.5,0.9,2.2c0.1,0.1,0.2,0.2,0.3,0.3c1.2,0.2,2.2,1,3.4,1c0.4,0,0.8,0.1,1.2,0.1c0.9,0,1.7,0.8,2.7,0.6
		c1.4-0.4,2.9-0.5,4.3-0.9c0.5-0.1,1.1,0.1,1.2,0.5c0.1,0.2,0.2,0.5,0.3,0.7c0,1.5,0.7,2.8,1.2,4.2c0.6,0.2,1.2,0.5,1.8,0.7
		c0.2,0.1,0.4,0.4,0.3,0.7c-0.1,0.2-0.3,0.4-0.5,0.5c-0.5,0.1-1.1,0.2-1.6,0c-1.7-0.7-3.4-0.6-5.1-0.6c-0.7,0-1.3,0-2.1,0
		c-1.4,0.6-2.9,1.1-4.3,1.9c-0.4,0.3-0.5,1-0.1,1.3c0.5,0.5,1,0.9,1.4,1.4c0.1,0.1,0.1,0.2,0.1,0.4c0,0.2-0.2,0.4-0.5,0.5
		c-0.5,0.1-1.1,0.1-1.6,0.1c-2.9,0-5.9-0.1-8.8-0.1c-2.3,0-4.1,0.9-5.2,3c-0.1,0.1-0.2,0.2-0.2,0.3c-0.4,0.6-1,0.8-1.7,0.7
		c-0.8-0.2-1.5-0.7-1.7-1.5c-0.3-1-0.2-2.2,0.1-3.2c0.2-0.7,0.8-1.3,1.2-2c0.3-0.5,0.3-1,0.1-1.5c-0.1-0.3-0.4-0.4-0.6-0.3
		c-0.4,0.2-0.7,0.4-1,0.6c-0.5,0.2-0.9,0.6-1.4,0.7c-2.3,0.2-4.3,1.3-6.5,1.9c-1,0.3-1.9,0.8-2.5,1.8c-0.4,0.7-1.4,0.7-1.9,1.4
		c-0.4,0.5-0.9,1-1.8,2c-0.1,0.3-0.5,1.3-1,2.2c-0.6,1.2-1.1,2.4-2.2,3.3c-0.6,0.5-0.9,1.3-1.2,2c-0.4,0.8-0.4,1.8-1,2.6
		c-0.7,1.1-1.4,2.3-1.7,3.6c-0.5,1.5-1,3-1.4,4.5c-0.5,1.7-0.6,3.4,0.1,5.1c0.4,1,0.5,1.7,0,2.6c-0.5,0.9-0.8,1.9-1.3,2.9
		c-0.2,0.3-0.5,0.8-0.8,0.8c-1.1,0.2-1.7,1.1-2.6,1.6c-0.8-0.6-1.3-1.4-1.2-2.4c0-0.7,0-1.3,0-2c-0.1-1.6,0.1-3.2,0.7-4.7
		c0.4-1,0.1-2.2,0.9-3c0.2-0.8,0.7-1.5,1.2-2.1c0.9-1,1.5-2.2,2.1-3.3c0.7-1.3,1-2.7,1.7-4c0.6-1.2,1.1-2.4,1.7-3.6
		c0.7-1.2,0.7-2.5,0.6-3.9c-0.1-0.9-0.6-1.6-1.4-1.8c-1.7-0.5-3.2-1.3-4.9-1.7c-1.5-0.4-3-1-4.5-1.4c-0.5-0.2-1-0.3-1.5-0.3
		c-1.2-0.1-2.4-0.1-3.6-0.1c-0.7,0-1.3,0-2-0.3c0.2-0.1,0.3-0.3,0.4-0.3c1.7-0.1,3.5-0.2,5.2-0.3c0.8,0,1.6,0.1,2.4,0.4
		c1.6,0.6,3.2,1.2,4.9,1.5c0.9,0.1,1.8,0.6,2.6,1c0.9,0.5,1.8,0.5,2.7,0.6c0.5,0.1,1.2-0.4,1.2-0.8c0.2-1.2,0.5-2.3,0.8-3.5
		c0.3-1,0.3-2.1,0.3-3.2c0-0.7,0.3-1.3,0.4-1.9c0-0.5-0.3-1-0.3-1.5c-0.1-1.6,0-3.2,0-4.8c0-0.1,0-0.3,0-0.4
		c0.1-1.5,0.7-2.8,0.6-4.3c-0.1-1.3,0-2.7,0.1-4c0-0.1,0.2-0.3,0.2-0.3c0.2,0,0.5,0.1,0.7,0.2c0.1,0.1,0.2,0.2,0.2,0.3
		c0.7,1.3,0.7,2.8,1.1,4.2c0.1,0.3,0,0.8-0.2,1.2c-0.5,1-0.3,2.1-0.4,3.1c0,0.6,0.4,1,0.4,1.5c0,0.6-0.5,1.3-0.1,1.9
		c0.3,0.5-0.2,1-0.1,1.5c0.1,0.4,0.2,0.7,0,1.1c-0.5,1.5-0.3,2.2,1.5,2.7c0.5-0.1,1.2-0.4,1.8-0.3c2.1,0.2,3.9-0.5,5.8-1.3
		c0.9-0.4,1.8-0.5,2.7-0.5c0,0.3,0,0.6,0,0.9c-0.4,0-0.8,0-1.1,0.1c-0.1,0-0.3,0.2-0.3,0.2c0.1,0.2,0.3,0.3,0.6,0.3
		c0.4-0.1,0.7-0.3,0.7-0.7c0.8,0,1.6,0.3,2.3-0.4c-0.8-0.5-1.6-0.3-2.3-0.3c0.2-0.2,0.3-0.5,0.5-0.6c1.8-0.5,3.5-1.4,5.4-1.3
		c2-1.1,4.2-0.6,6.3-0.7c0.2,0,0.4,0.2,0.7,0.4c-0.2,0.5-0.6,0.9-1.1,1.1c-1.5,0.4-3,1.1-4.6,1.2c-0.5,0-0.9,0.5-1.1,1
		c0.1,0.2,0.1,0.5,0.2,0.8c-0.3,0.9-0.7,1.9-1.1,2.9c-0.3,0.8-0.4,1.6-0.3,2.4c0,0.2,0.2,0.4,0.4,0.6c0.6-0.1,0.9-0.6,1.2-1
		c1.4-1.6,3.4-2,5.3-2.6c0.1,0,0.2,0.1,0.4,0.1c0.4,0.1,0.8,0.3,1.1,0.3c2.3,0,4.5,0,6.8,0c0.2,0,0.4-0.2,0.6-0.4
		c-0.2-0.6-0.4-1.3-0.6-1.9c-0.1-0.4,0.2-1.2,0.6-1.4c0.7-0.4,1.4-0.8,2.2-1c1.3-0.3,2.5-0.9,3.8-0.9c0.8,0,1.5-0.4,2.3-0.6
		c0.7-0.2,1.6,0.1,2.2-0.4c-0.2-0.7-0.4-1.3-0.6-2c-0.2-0.7-0.2-0.7-1.2-1.5c-1.4,0.5-2.9,0.6-4.3,0.5c-0.3,0-0.6,0-0.8-0.1
		c-1.6-0.8-3.3-0.9-4.8-0.7c-0.9-0.4-1.5-0.7-2.2-1c-0.2-0.3-0.3-0.6-0.5-1s-0.6-0.6-1-0.5c-0.5,0.1-1,0.3-1.5,0.5
		c-0.8,0.4-1.5,0.3-2.4,0.2c-0.6-0.5-1.3-0.9-2-1.4c-0.7,0.1-1.6,0-2.3,0.3C175.7,57.3,174.6,57.3,173.3,57.3L173.3,57.3z
		 M146.8,94.9c-0.1-0.2-0.2-0.4-0.3-0.6c-0.1,0.2-0.3,0.4-0.3,0.6c0,0.2,0.2,0.4,0.3,0.6C146.6,95.3,146.7,95.1,146.8,94.9z
		 M144.8,101.6c0,0.1-0.1,0.2-0.1,0.3c0,0.1,0.2,0.3,0.2,0.3c0.3-0.2,0.3-0.3,0.1-0.5C145,101.6,144.9,101.6,144.8,101.6z M158.4,70
		l0.1-0.2h-0.3L158.4,70z"/>
	<path class="st0" d="M117.3,126.2c-1.5,0-2.9,0.1-4.4,0.1c-0.5,0-1.2-0.1-1.6,0.2c-1.1,0.7-2.4,0.4-3.5,0.9
		c-0.8,0.4-1.8,0.5-2.6,0.9c-2.2,1-4.2,2.2-5.8,4.2c-0.2,0.3-0.6,0.5-0.9,0.7c-0.5-0.1-0.9-0.5-1.5-0.1c-1.3,0.7-2.6,1.4-4.1,1.3
		c-0.7,0.3-1.5,0.6-2.3,0.8c-0.6,0.2-1.1,0.8-1.8,0.7c-0.2-0.1-0.5-0.2-0.7-0.4c-0.7-0.6-1.6-0.6-2.2,0c-0.7,0.7-1.4,1.1-2.4,1.2
		c-1.6,0.2-3.1,0.8-4.6,1.1c-1.2,0.2-2.3,0.6-3.5,0.9c-0.4,0.1-0.8,0.2-1.2,0.1c-1.1-0.5-2.3-0.6-3.5-0.6c-1.3,0-2.3-0.7-3.5-0.8
		c-0.4,0-0.7-0.4-1-0.6c-0.5-0.4-1.1-0.8-1.8-1.2c-0.3-0.6-0.7-1.3-1-2c-0.3-0.8-0.2-1.6,0.3-2.3c0.7-1.1,1.8-2,2.7-2.9
		c0.4-0.4,0.7-0.8,0.9-1.3c0.1-0.2,0.1-0.5,0-0.8c-0.2-0.4-0.4-0.7-0.7-1c-0.6-0.7-1.4-1.3-1.9-2c-0.9-1.3-1.8-2.7-1.3-4.5
		c0.4-0.5,0.8-0.9,1.3-1.5c0.8-1,1.9-1.6,3-1.9c1.5-0.5,3.1-0.8,4.6-1.1c1.6-0.2,3.2-0.2,4.7-0.7c0.6-0.2,1.3-0.2,2-0.1
		c2.8,0.1,5.6-0.2,8.3-0.1c0.6-0.3,1-0.5,1.5-0.7c0.6-0.2,0.9-1,0.7-1.7c-0.1-0.4-0.3-0.7-0.4-1.1c-0.3-1.3,0-2.2,1.1-2.7
		c1.8-0.9,3.6-1.6,5.7-1.7c2.4-0.1,4.8-0.2,7.2-0.1c4.9,0.3,9.9,0,14.8-0.1c1,0,2.1-0.4,3.1-0.5c0.8-0.1,1.6-0.1,2.4-0.1
		c0.2,0,0.4,0.2,0.5,0.4c0,0.1,0,0.3-0.1,0.4c-0.3,0.2-0.6,0.6-1,0.6c-0.8,0.1-1.6,0.1-2.4,0.1c-0.7,0-1.3,0.1-1.9,0.4
		c-0.6,0.3-1.3,0.3-1.9,0.3c-2.1,0-4.3,0.1-6.4,0.1c-1.1,0-2.1,0.1-3.1,0.5c-0.5,0.2-1,0.2-1.6,0.2c-1.1,0-2.1,0-3.2,0.1
		c-0.8,0-1.6,0.1-2.3,0.5c-0.2,0.1-0.5,0.2-0.8,0.2c-1.3-0.1-2.3,0.5-3.4,0.9c-0.5,0.2-1,0.5-1.5,0.6c-1.7,0.3-2.4,1.5-3,2.9
		c-0.1,0.4-0.3,0.7-0.5,1.1c-0.5,0.1-1.1,0.1-1.6,0.2c-0.5,0.1-1.1,0-1.6,0.2c-0.9,0.4-1.8,0.4-2.7,0.4c-2.4,0-4.8,0.1-7.3,0.1
		c-1.1,0.6-2,1.7-3.4,2c-1.4,0.3-2.8,1-3.7,2.1c-0.2,0.3-0.6,0.5-1,0.6c-1.2,0.5-1.8,1.6-2.4,2.6c-0.2,0.4-0.2,0.8,0.1,1.1
		c1.3,1.5,2.4,3.1,3,5.2c-0.7,1-0.6,2.2-0.8,3.3c-0.6,0.7-1.5,1.1-1.6,2.2c0,0.5-0.3,0.9-0.5,1.3c0.5,0.5,1,1,1.7,1.1
		c2,0.1,3.9,0.9,5.9,0.7c0.7,0,1.3-0.1,2-0.1c1-0.8,2.4-0.3,3.5-0.8c1-0.5,2-0.5,3-1.1c1.1-0.7,2.4-1.2,3.5-1.7
		c0.2,0,0.4-0.1,0.5-0.1c2.7,0,5.2-0.9,7.7-1.7c1.1-0.4,2.2-0.9,3-1.8c1.2-1.3,2.8-2.1,4.1-3.2c0.5-0.4,2.8-1.2,4.1-1.4
		c1.4-0.2,2.8-0.9,4.3-0.8c1.5,0,2.9,0,4.4,0c0.3-0.2,0.7-0.4,1.1-0.5c1.1-0.3,1.9-0.9,2.6-1.7c1-1.1,1.9-2.2,3.3-2.8
		c0.3-0.1,0.6-0.5,0.9-0.8c1.5-2.5,3.2-4.9,4.8-7.3c0.3-0.4,0.3-1,0.4-1.4c-1-1.6-2.2-2.8-4-3.4c0.5-0.3,0.7-0.5,1-0.5
		c1.7-0.3,3.1,0.3,4.5,1.3c1,0.7,1.3,2.7,0.4,3.6c-1.9,2.1-3.3,4.5-4.8,7.3c-0.3,0.3-0.9,0.9-1.5,1.4c-0.3,0.3-0.5,0.7-0.9,0.8
		c-1.5,0.5-2.3,1.8-3.1,3c-0.1,0.1-0.2,0.2-0.3,0.3c-0.5,0.5-1,0.9-1.7,1c-0.2,0-0.5,0.2-0.7,0.3
		C117.4,125.5,117.3,125.9,117.3,126.2L117.3,126.2z M67.8,117.5c-0.1,0-0.3,0-0.4,0c-0.3,0.1-0.4,0.3-0.4,0.4
		c0.1,0.3,0.4,0.4,0.6,0.2c0.2-0.1,0.3-0.3,0.4-0.4C67.9,117.7,67.8,117.6,67.8,117.5z"/>
	<path class="st0" d="M38.7,146.3c-0.4,0-0.8,0-1.3,0.1c-0.1,0.4-0.3,0.7-0.3,1.1c-0.1,1.3,0.1,2.7-0.3,4c-0.6,1.1-1.7,2-2.9,2.8
		c-0.7,0-1.5,0.1-2.3,0.1c-0.7,0-1.3-0.2-1.9-0.5c-1.2-0.6-2.4-1.1-3.6-1.6c-0.9,0.9-1.7,1.8-2.6,2.6c-0.1,0.8-0.1,1.6-0.2,2.4
		c-0.1,0.8-0.4,1.5-0.5,2.3c-0.1,0.5,0,1.1,0,1.6c0,0.4,0,0.8,0.2,1.2c0.3,0.6-0.4,1-0.2,1.5c0.1,0.4,0.4,0.7,0.5,1.1
		c0,0.2-0.1,0.6-0.2,0.7c-0.5,0.4-1,0.9-1.8,0.5c-0.2-0.4-0.5-0.9-0.8-1.3c-0.3-0.5-0.6-0.9-0.9-1.3c-0.1-1.9-0.4-3.7,0.3-5.5
		c-0.5-1-0.6-2.2-1.9-2.5c-0.1,0-0.2,0-0.4,0c-0.8,0.1-1.5,0.6-2.3,0.4c-0.6-0.2-1.3-0.4-2.1-0.7c-0.5-0.5-1.1-1.2-1.6-1.7
		c-0.5-1.3-0.3-2.4-0.5-3.4c-0.2-0.2-0.4-0.4-0.6-0.5c-0.5-0.3-0.9-0.5-1.4-0.7c-1.1-0.4-1.8-1.1-2-2.2c-0.1-0.2-0.2-0.5-0.2-0.6
		c0.2-0.9,0.4-1.7,0.6-2.4c0.3-0.7,0.7-1.4,1.1-2.1c0.5-1.1,0.4-1.7-0.3-2.5c-0.8-0.8-1.5-1.5-2.7-1.5c-0.4,0-0.7-0.3-1.1-0.4
		c-1.1,0.8-2-0.1-3-0.5c-0.5-0.4-0.8-1-1.1-1.6c0.1-0.8,0.5-1.5,0.1-2.3c-0.8-1.8-0.6-3.6,0-5.5c0.2-0.6,0.4-1.3,0.7-2
		c1.2-1.8,2.9-3.3,4.5-4.9c0.9-0.9,2-1.3,3.3-1.1l-0.1-0.1c-0.7,1.5-0.8,2.3-0.7,3.4c0,0.2,0.3,0.4,0.4,0.6c0.2,0.2,0.5,0.3,1.1,0.6
		c-1.2,0.2-2.1,0.6-3,1c-0.2,0.1-0.5-0.1-0.7-0.2c-0.2-0.1-0.5-0.3-0.7-0.4c-0.6-0.3-1.5-0.1-1.7,0.4c-0.3,0.8-0.8,1.3-1.4,1.9
		c-0.2,0.2-0.4,0.4-0.4,0.7c0.1,1.1-0.8,2-0.9,3c-0.1,0.6,0.7,1.4,1.3,1.2c0.6-0.2,1.2-0.5,1.9-0.7c0.3-0.1,0.5,0,0.7,0.2
		c0.2,0.3,0,0.8-0.3,1c-0.4,0.2-0.8,0.3-1.1,0.5c-0.9,0.7-1,1.3-0.3,2.4c0.3,0.4,0.4,1,1,1.2c1.8,0.3,3.7-0.1,5.4,0.6
		c0.4-0.5,0.4-1,0.4-1.5s-0.1-1.1,0.1-1.6c0.5-0.9,0.8-2,1.6-2.7c0.2-0.2,0.5-0.2,0.7-0.3c-0.1,0.4-0.1,0.8-0.3,1.1
		c-0.7,1-1,2.1-1.2,3.3c0.6,0.9,1.2,1.7,1.8,2.6c0.1,0.2,0.5,0.3,0.7,0.3c0.3,0,0.5,0,0.8,0c0.9,0,1.8-0.4,2.7-0.6
		c0.9-0.2,1.7,0.7,2.7,0.6c0.4-0.1,0.8-0.1,1.3-0.1c0.5-0.5,1.1-1.1,1.7-1.7c1.1-1.2,2.3-2.2,3.8-2.8c0.5-0.2,0.9-0.5,1.4-0.8
		c0.6-0.4,1.3-0.4,1.9-0.1c0.6,0.3,1.2,0.6,1.7,1c0.4,0.3,0.9,0.6,1,1.2c0.2,1,1.1,1.5,1.5,2.4c0.1,1.1,0.1,2.3,0.2,3.5
		c0.3,0.2,0.6,0.4,1,0.7c0.8,0.6,1.3,1.3,1.2,2.3c-0.1,1.2,0.7,1.9,1.7,2.5C38.2,145.8,38.6,145.9,38.7,146.3L38.7,146.3z
		 M34.2,143.7c-1.2,0.3-1.9-0.2-2.3-1.2c-0.2-0.3-0.5-0.5-0.8-0.8c-1.4,0.8-2.1,0.6-2.6-0.7c0.4-0.4,0.9-0.4,1.5-0.5
		c0.8-0.1,1.6,0,2.4-0.1c0.2,0,0.4-0.3,0.5-0.5c0.1-0.2,0.2-0.5,0.1-0.8c-0.5-1.6-1-3.3-1.9-4.8c-0.3-0.5-0.7-0.8-1.2-0.9
		c-2-0.4-3.7,0.2-5.1,1.5c-1.1,1-2,2.1-2.6,3.5c-0.2,0.5-0.3,1-1,1.3c-1-0.5-2-1-3.1-1.5c-1,0.2-2.1-0.3-3.1,0.2
		c0.1,0.3,0.2,0.7,0.4,1.1c0.1,0.3,0.1,0.5-0.2,0.7c-0.1,0-0.2,0-0.3,0c-0.4-0.2-0.7-0.4-1.1-0.5c-0.4-0.2-0.8-0.1-1.1,0.1
		c-0.9,0.7-1.7,1.6-2.8,2.1c-0.2,0.1-0.4,0.4-0.5,0.6c-0.3,0.6-0.6,1.1-0.9,1.7c0.5,0.7,0.7,1.5,0.2,2.3c0.7,0.5,1.4,1.1,2.2,1.6
		c0.6,0.5,1.2,0.3,1.7-0.3c0.4-0.5,0.7-1.1,1.1-1.6c0.3-0.4,0.8-0.7,1.4-0.7c0.1,0,0.3,0.1,0.3,0.2c0.1,0.1,0.1,0.2,0,0.3
		c-0.4,0.5-0.8,1-1.3,1.6c-0.3,1.3-0.3,2.8-0.1,4.2c0,0.4,0.3,0.8,0.6,1c0.5,0.4,1.1,0.8,1.6,1.2c1.2-0.2,2.4-0.7,3.6-0.5
		c0.3,0,0.6,0,0.8-0.1c1.2-0.8,2.8-0.7,4-1.6c0.5-0.4,1-0.9,2-0.8c0.5,0.2,1.2,0.7,2,0.8c1,0.2,2.1,0.3,3.1,0.7
		c1.6,0.5,2.9,0.1,3.7-1.5c0.1-0.2,0.2-0.5,0.4-0.8c0-1.2,0-2.5,0-3.9c-0.1-0.3-0.3-0.7-0.5-1.1C34.8,144.9,34.6,144.5,34.2,143.7z"
		/>
	<path class="st0" d="M21,119.1c0.9-0.3,1.5,0.5,2.3,0.8c0.7-0.2,1.4-0.4,2.2-0.6c2.1,1.6,4.5,2.6,6.9,3.9c0.9,0,1.8-0.1,2.8-0.1
		c0.4,0,0.8,0,1.2,0.1c0.6,0.1,1.2,0.7,1.9,0.5c0.5-0.1,1-0.5,1.6-0.4c0.3,0.3,0.8,0.6,1.2,0.9c0.7,0.6,1.4,1.3,1.7,2.2
		c0.2,0.7,0.6,1.1,1.3,1.5c1.3,0.2,2.6-0.4,4,0.3c0.6,0.9,1.2,1.9,1.9,3c0,1.6,0.1,3.3,0,5.1c-0.1,1.2,0.3,2.1,1.1,2.9
		c0.1,0.1,0.2,0.2,0.2,0.3c-0.5,1-0.5,2-0.5,3c-0.4,0.7-0.8,1.4-1.1,2.2c-0.4,0.9-1,1.6-1.7,2.1c-0.3,0.2-0.5,0.6-0.8,1
		c-0.7,0.1-1.5,0.3-2.3,0.5c-1,1.1-1.3,2.5-1.9,3.8c-0.3,1.6,0.1,2.9,0.6,4.2c-0.3,0.5-0.8,0.8-0.9,1.4c-0.1,0.4-0.5,0.5-0.8,0.1
		c-0.2-0.2-0.4-0.4-0.4-0.6c-0.1-0.5-0.1-1-0.2-1.6c-0.2-1.2-0.9-2.2-0.8-3.4c0.1-1.2,0-2.4,0-3.3c-0.2-1-0.9-1.2-1.3-1.7
		c-0.2-0.2-0.1-0.5-0.2-0.7l-0.1,0.1c1.2-0.3,2.4,0,3.5,0.5c0.5,0.2,1.1,0.2,1.6,0.1c0.8-0.2,1.6-0.4,2.3-0.7c1-0.4,1.9-1,2.3-2.1
		c0.2-0.5,0.4-1,0.6-1.5c0.3-1.1,0.1-2.1-0.9-2.7c-0.3,0.1-0.5,0.2-0.8,0.4c-0.2-0.3-0.4-0.6-0.5-0.9c-0.3-0.5-1-0.4-1.4-0.7
		c-0.3-0.2-0.4-0.6-0.7-0.9c0.8-0.7,1.6-0.2,2.6-0.5c0.4-0.4,1-0.9,1.6-1.5c0.4-0.4,0.4-1,0.3-1.5c-0.2-0.9-0.4-1.8-0.8-2.7
		c-0.3-0.7-0.6-1.5-1.3-2c-0.8-0.3-1.6-0.2-2.3,0.1c-1.2,0.5-2.4,1.1-3.5,1.8c-0.2,0.1-0.5,0.2-0.7,0.2c-0.1,0-0.2-0.1-0.3-0.1
		c-0.1-0.1-0.1-0.2-0.1-0.3c0.2-0.5,0.6-0.9,1.1-1.1c0.7-0.3,1-0.9,0.9-1.6c-0.1-0.7-0.1-1.3-0.2-2c-0.7-0.7-1.2-1.8-2.6-1.8
		c-1.1,0.5-2.2,1.1-3.4,1.8c-0.7,0.4-1,1.2-1.9,1.3l0,0c-0.2-2-1-3.5-3-4.3c-0.9-0.3-1.7-0.7-2.5-1.1c-1,0-1.8,0.5-2.8,0.5
		c-1.5,0.1-2.4,1-2.9,2.4c-0.2,0.6-0.3,1.3-0.6,1.9c-0.3,0.6-0.4,1.2-0.6,1.9c-1-0.4-2-0.8-2.9-1.2c-0.8,0-1.6,0-2.4,0
		c0.1-0.2,0.1-0.5,0.3-0.7c0.5-0.6,1.1-1.2,2-1c0.6,0.1,1-0.2,1.4-0.6c0.9-1,1.8-2,2.6-2.9c0-0.3,0-0.6-0.1-0.8
		c-0.3-0.6-0.8-1.1-1-1.7C21.1,119.8,21.2,119.4,21,119.1L21,119.1z M43.2,148.4c-0.1-0.4-0.6-0.4-1-0.2c-0.4,0.2-0.4,0.7-0.3,1.1
		c0,0.2,0.2,0.5,0.3,0.7c0.2-0.2,0.4-0.3,0.5-0.5C42.9,149.1,43.2,148.7,43.2,148.4z"/>
	<path class="st0" d="M130.1,80.5c-1.2-0.1-2.3,0.4-3.2-0.4c-0.1-0.8-0.1-1.6-0.2-2.2c-0.8-0.7-1.6-0.4-2.5-0.7
		c-0.3-0.2-0.8-0.5-1.2-0.8c-1.1-0.9-1.2-1.8-0.1-2.5c0.7-0.4,1.4-0.8,2-1.3c1.1-0.7,1.1-1,0.7-2.7c0.2-0.2,0.3-0.4,0.6-0.5
		c1.2-0.6,2.3-1.3,3.4-2.1c0.3-0.2,0.7-0.3,1.1-0.3c0.8,0,1.6-0.3,2.3-0.6c0.7-0.3,1.2,0.4,1.9,0.2c1.1-0.3,2.4-0.4,3.5-0.7
		c1-0.3,1.9-0.8,2.9-1.2c0.3-0.1,0.8,0,1.2,0.1c0.9,0.2,1.2,1.4,2.3,1.4c1,0,1.7,0.8,2.5,1.1c0,0.7-0.5,1.2-1,1.5
		c-0.6,0.4-1.4,0.7-2.1,1.1c-0.1,0-0.3,0-0.3-0.1c0-0.2-0.1-0.6,0-0.7c0.3-0.4,0.8-0.6,1.2-0.9c-0.5-0.6-1.2-0.7-1.8-1
		c-0.3-0.1-0.8-0.2-1.2-0.1c-1.4,0.6-2.8,0.7-4.3,0.7c-0.5,0-1,0.1-1.5,0.3c-0.2,0.1-0.5,0-0.7-0.1c-1-0.4-2.1-0.2-3.2-0.1
		c-1.2,0.6-2.5,1.2-3.8,1.9c-0.5,0.3-0.7,1-0.5,1.7c0.1,0.2,0.1,0.5,0.2,0.7c-0.1,0.2-0.3,0.5-0.5,0.6c-0.9,0.5-1.9,1-2.8,1.5
		c-0.6,0.3-0.6,1.3,0.1,1.6c0.3,0.2,0.7,0.4,1.1,0.5c0.6,0.1,1.3,0.2,2,0.3c0.5,0.1,0.9,0.5,1.1,1c-0.1,0.3-0.6,0.6-0.2,1
		c0.1,0.2,0.5,0.2,0.7,0.2c0.5,0,1.1-0.1,1.6-0.3c0.5-0.2,1-0.4,1.7-0.7c1.1-0.7,1.8-2.3,3.5-3c1.4,0,2.8,0,4.3,0
		c0.5-0.4,1-0.8,1.6-1.2c0.1,0,0.2,0,0.3,0.1c0.1,0.1,0.2,0.3,0.1,0.3c-0.2,0.9-0.5,1.8-0.8,2.6c-0.1,0.3-0.8,0.6-1,0.5
		c-1-0.9-2.3-0.6-3.4-1c-0.6-0.2-1-0.2-1.2,0.4c-1.4,1-2.6,2.2-4.3,2.8C131.5,79.8,130.9,80.1,130.1,80.5z"/>
	<path class="st0" d="M163.8,51.8c0-0.1-0.1-0.3,0-0.4c0.4-0.7,1.1-1.1,1.9-1.3c0.8-0.2,1.6-0.1,2.4,0c0.5,0,1.2,0.1,1.5-0.2
		c1-0.7,2-0.4,3.1-0.6c0.2,0,0.4-0.3,0.6-0.4c0.2-0.2-0.2-0.9-0.4-1c-1.2-0.4-2.3-0.1-3.4,0.5c-1.2,0-2.4,0-3.6,0
		c-1.3-0.8-2.3-1.8-3.1-3.1c-0.8-1.2-1.8-2.2-2.1-3.7c0.3-0.3,0.8-0.4,1-0.1c0.9,0.9,1.9,1.9,2.4,3.1c0.2,0.5,0.4,1,0.8,1.4
		c0.3,0.4,0.8,0.7,1.3,0.8c0.9,0.2,1.8,0.2,2.8,0.1c1.7-0.1,3.5-0.2,5.4,0.3c0.4,0.3,1.1,0.8,1.7,1.3c0.5,0.1,1,0.2,1.5,0.3
		c0.3,0.1,0.4,0.3,0.4,0.6c0.1,0.8-0.3,1.4-1,1.4c-0.4,0-0.8,0.1-1.2,0.1c-2.5-0.2-5,0-7.6,0c-0.9,0-1.8,0.1-2.7,0.6
		c-0.6,0.3-1.3,0.2-2,0.2L163.8,51.8z"/>
	<path class="st0" d="M145.4,47.8c-0.2-0.9,0.4-1.5,0.6-2.2c0.1-0.2-0.1-0.6-0.3-0.7c-0.3-0.2-0.7-0.3-1.1-0.4
		c-0.7-0.1-1.2-0.5-1.5-1.2c0.5-0.7,1.4-0.4,2.1-0.9c0.7-0.4,1.4-0.6,2.4-1c0.8,0,1.9-0.2,2.9-0.1c1.1,0.1,1.9-0.8,3.1-0.7
		c0.7,0.6,1.5,1.3,2.3,2c0.9-0.3,1.9-0.9,3-0.5l-0.1-0.1c0,0.1,0,0.3-0.1,0.4c-0.7,0.4-1.3,0.8-2,1.1c-0.5,0.2-1,0.2-1.5-0.1
		c-0.4-0.3-0.8-0.6-1.3-0.9s-1-0.5-1.5-0.2c-1.2,0.6-2.5,0.6-3.8,0.7c-0.7,0-1.2,0.4-1.7,1c-0.3,0.5-0.1,1.2-0.1,1.8
		c-0.1,1.1-0.5,1.7-1.6,1.9L145.4,47.8z"/>
	<path class="st0" d="M142.8,49.3c-0.2,0.4-0.3,0.7-0.5,1.1c-0.4,0.8,0,1.6,0.8,1.9c0.3,0.1,0.5,0.2,0.8,0.2c1,0.2,2.1,0,3.1,0.5
		s2.1,0.3,3.1,0.5c0.8,0.1,1.5,0.5,2.1,1.1c0.1,0.1,0.2,0.5,0.1,0.7c-0.1,0.3-0.3,0.4-0.6,0.3c-0.1,0-0.3,0-0.4-0.1
		c-1.3-0.7-2.6-1.3-4.1-1.5c-1.3-0.2-2.5-0.8-3.9-0.7c-1,0-1.8-0.3-2.7-0.6c-0.6-0.2-1.3-0.1-2-0.3c-0.2,0-0.3-0.4-0.4-0.6
		c-0.1-0.3,0-0.6,0.3-0.7c1-0.3,2-0.7,2.8-1.5C141.8,49.3,142.4,49.4,142.8,49.3L142.8,49.3z"/>
	<path class="st0" d="M173.4,57.4c0,0.3-0.1,0.5-0.3,0.7c-0.6,0.5-1.4,0.8-2.1,1.2c-0.6,0.4-1,0.9-0.8,1.7c0.4,0.4,0.8,0.9,1.3,1.4
		c0.1,0.1,0.1,0.2,0.1,0.3c-0.2,0.2-0.4,0.3-0.7,0.2c-1.1-0.3-1.8-1.1-2.2-2.1c-0.2-0.5,0-1.5,0.4-1.8
		C170.3,57.9,171.6,57.1,173.4,57.4L173.4,57.4z"/>
	<path class="st0" d="M13.9,116.7c0.1-0.2,0.3-0.5,0.4-0.6c0.7-0.3,1.6-0.4,2.2-0.1c0.8,0.4,1.7,0.4,2.5,0.8
		c0.2,0.1,0.2,0.4,0.4,0.6l0.1-0.1c-1.6,0.1-3.1,0.3-4.5-0.7c-0.3-0.2-0.8-0.1-1.2-0.1L13.9,116.7z"/>
	<path class="st0" d="M24.9,171.3c-0.1,0.6-0.5,1-1.1,1.3c-0.1,0-0.3,0-0.4,0c-0.3-0.1-0.4-0.3-0.4-0.6c0-0.8,0.5-1.2,1.2-1.4
		c0.1,0,0.3,0,0.4,0C24.8,170.6,24.9,170.9,24.9,171.3z"/>
	<path class="st0" d="M129.5,118.7c0.2-0.3,0.5-0.6,0.7-0.8c0.3-0.3,0.8-0.3,1.1-0.1c0.2,0.2,0.3,0.4,0.3,0.7c0,0.1,0,0.3,0,0.4
		c0,0.3-0.1,0.5-0.3,0.7c-0.3,0.2-0.8,0.3-1.1,0.1c-0.1-0.1-0.2-0.1-0.3-0.2C129.8,119.2,129.6,119,129.5,118.7z"/>
	<path class="st0" d="M33.3,160.4c-0.3-0.3-0.6-0.5-0.8-0.8c-0.1-0.2-0.1-0.6,0-0.7c0.3-0.3,0.6-0.5,1-0.6c0.4-0.1,0.8,0.1,1,0.5
		c0.1,0.2,0.1,0.5,0,0.7C34.3,159.9,33.9,160.2,33.3,160.4z"/>
	<path class="st0" d="M57.4,146.5c-0.1,0.3-0.3,0.7-0.4,1c-0.1,0.3-0.4,0.3-0.6,0.3c-0.3,0-0.5-0.1-0.6-0.4c-0.3-0.4-0.3-1,0.1-1.4
		c0.4-0.4,0.8-0.5,1.4-0.4c0.3,0.1,0.4,0.2,0.4,0.5C57.5,146.2,57.5,146.3,57.4,146.5z"/>
	<path class="st0" d="M165.1,109.1c0,0.2,0,0.4,0,0.5c-0.2,0.4-0.6,0.6-1,0.6s-0.8-0.2-1-0.6c-0.1-0.1-0.1-0.3,0-0.4
		c0.2-0.4,0.6-0.6,0.9-0.5C164.5,108.7,164.8,109,165.1,109.1z"/>
	<path class="st0" d="M32,165.8c0,0.1,0,0.3-0.1,0.3c-0.3,0.5-0.7,0.8-1.2,0.9c-0.5,0-0.8-0.2-0.7-0.7c0-0.4,0.2-0.7,0.5-1
		C31,164.9,31.9,165.2,32,165.8z"/>
	<path class="st0" d="M173.7,99.2c0.1,0.2,0.3,0.3,0.3,0.4c-0.1,0.9-0.5,1.5-1.3,1.6c-0.3,0.1-0.6,0-0.7-0.3c-0.1-0.2,0-0.6,0.1-0.7
		C172.6,99.9,173.1,99.6,173.7,99.2z"/>
	<path class="st0" d="M52.8,151.8c-0.6-0.5-0.5-1.1-0.3-1.7c0.1-0.3,0.7-0.6,0.9-0.5c0.2,0.1,0.3,0.4,0.4,0.6c0.1,0.2,0,0.5,0,0.8
		c-0.1,0.2-0.1,0.5-0.3,0.7C53.3,151.7,53,151.7,52.8,151.8z"/>
	<path class="st0" d="M105,132.8c0.6-0.1,1.5,0.4,1.5,1c0,0.1-0.1,0.2-0.2,0.3c-0.5,0.3-1,0.3-1.5,0c-0.3-0.2-0.4-0.4-0.3-0.7
		C104.7,133.2,104.9,133,105,132.8z"/>
	<path class="st0" d="M34.5,171.6c-0.2,0.3-0.4,0.6-0.6,1c-0.2,0.3-0.8,0.3-1.1,0.1c-0.2-0.2-0.3-0.4-0.4-0.6
		c-0.1-0.3,0-0.5,0.3-0.7C33.4,170.9,33.9,171.1,34.5,171.6z"/>
	<path class="st0" d="M37.6,166.7c-0.2,0.7-0.5,1.2-1.3,1.1c-0.5,0-0.7-0.4-0.6-0.8c0.1-0.4,0.4-0.7,0.8-0.7c0.3,0,0.5,0,0.8,0.1
		C37.4,166.5,37.5,166.6,37.6,166.7z"/>
	<path class="st0" d="M28.1,162.4c0,0.4-0.3,0.7-0.7,0.6c-0.2-0.1-0.5-0.1-0.7-0.3c-0.3-0.2-0.6-0.8-0.4-0.9
		c0.2-0.1,0.5-0.2,0.7-0.2c0.2,0,0.5,0,0.7,0.1C28,161.8,28.1,162.1,28.1,162.4z"/>
	<path class="st0" d="M57.4,153.9c0.6,0.5,0.5,1.1,0.2,1.7c-0.1,0.3-0.4,0.3-0.6,0.2c-0.7-0.3-0.8-1-0.2-1.5
		C57,154.1,57.2,154,57.4,153.9z"/>
	<path class="st0" d="M163.8,99.4c-0.2-0.2-0.5-0.4-0.7-0.7s-0.2-0.8,0.2-1c0.2-0.1,0.5-0.2,0.7-0.2c0.3,0,0.6,0.4,0.6,0.8
		c0,0.3,0,0.5-0.1,0.7C164.4,99.4,164.2,99.5,163.8,99.4z"/>
	<path class="st0" d="M157.5,99.9c0.3,0,0.5,0.1,0.6,0.4c0.2,0.5,0.2,1-0.1,1.5c-0.2,0.2-0.4,0.3-0.6,0.1c-0.3-0.3-0.5-0.6-0.6-0.9
		C156.5,100.4,157,99.8,157.5,99.9z"/>
	<path class="st0" d="M150.7,105.8c0,0.2,0,0.5-0.1,0.7c-0.1,0.3-0.4,0.3-0.7,0.3c-0.3-0.1-0.4-0.2-0.5-0.5c-0.1-0.3,0-0.5,0.3-0.7
		C150.2,105.4,150.7,105.5,150.7,105.8z"/>
	<path class="st0" d="M160.9,106.8c-0.4-0.4-0.4-0.9-0.2-1.4c0.1-0.3,0.3-0.4,0.5-0.3c0.9,0.5,1,1,0.1,1.6
		C161.1,106.7,161,106.7,160.9,106.8z"/>
	<path class="st0" d="M169.2,103.7c0,0.5-0.1,0.6-0.6,0.7c-0.3,0.1-0.5,0-0.6-0.2c-0.2-0.3-0.1-0.8,0.2-1c0.1-0.1,0.2-0.1,0.3-0.1
		C169,103,169.2,103.2,169.2,103.7z"/>
	<path class="st0" d="M122.8,127.1c-0.1,0.1-0.2,0.3-0.4,0.5c-0.2-0.1-0.4-0.3-0.6-0.4c-0.4-0.4-0.4-0.6-0.1-0.9
		c0.2-0.2,0.4-0.4,0.6-0.4c0.1,0,0.3,0.3,0.4,0.5C122.9,126.5,122.8,126.8,122.8,127.1z"/>
	<path class="st0" d="M44.1,162c0.1,0.3-0.1,0.8-0.5,0.9c-0.4,0.2-0.7,0-0.8-0.5c-0.1-0.3,0-0.5,0.3-0.7
		C43.5,161.6,44,161.7,44.1,162z"/>
	<path class="st0" d="M145.2,47.7c-0.5,1.1-1.1,1.9-2.4,1.6l0.1,0.1c0.3-1,0.9-1.5,1.7-1.6c0.2,0,0.5,0,0.7,0L145.2,47.7z"/>
	<path class="st0" d="M37.9,160.5c0,0.5-0.2,0.9-0.5,0.8c-0.2-0.1-0.5-0.2-0.6-0.4c-0.5-0.6-0.3-1,0.5-1.4c0.3-0.1,0.5-0.1,0.6,0.3
		C37.9,160,37.9,160.2,37.9,160.5z"/>
	<path class="st0" d="M48.3,154.4c0.4-0.1,0.7,0.1,0.7,0.6c0,0.4-0.1,0.8-0.5,0.9c-0.3,0.1-0.9-0.1-1-0.4
		C47.4,155.1,47.8,154.5,48.3,154.4z"/>
	<path class="st0" d="M154.6,97.5c0.4-0.1,0.7,0.2,0.8,0.6c0.1,0.4-0.1,0.7-0.6,0.8c-0.4,0.1-0.8-0.2-0.8-0.5
		C154,98,154.3,97.6,154.6,97.5z"/>
	<path class="st0" d="M111,129.6c0.4,0.1,0.6,0.5,0.5,0.9c-0.1,0.3-0.7,0.6-0.9,0.4c-0.2-0.1-0.3-0.4-0.3-0.6
		C110.2,129.8,110.6,129.5,111,129.6z"/>
	<path class="st0" d="M134,112.8c-0.1,0.4-0.3,0.6-0.8,0.6s-0.8-0.6-0.7-1c0.1-0.3,0.6-0.5,0.9-0.4C133.9,112,134.1,112.4,134,112.8
		z"/>
	<path class="st0" d="M155.8,107.4c0.2-0.4,0.6-0.5,1-0.4c0.5,0.2,0.9,0.5,1,1.1c0,0.1-0.1,0.2-0.2,0.3c-0.1,0.1-0.2,0.1-0.3,0.1
		C156.7,108.3,156.7,108.3,155.8,107.4z"/>
	<path class="st0" d="M147.5,109c-0.2,0.3-0.4,0.6-0.7,0.9c-0.2,0.3-0.5,0.2-0.6-0.1c-0.1-0.2-0.1-0.5,0-0.7c0.2-0.4,0.6-0.5,1-0.4
		C147.3,108.7,147.4,108.9,147.5,109z"/>
	<path class="st0" d="M11.5,117.5c0-0.4,0.3-0.7,0.6-0.7c0.6-0.1,1.2,0,1.8,0l-0.1-0.1c0,0.4-0.2,0.7-0.6,0.8
		C12.6,117.4,12,117.4,11.5,117.5L11.5,117.5z"/>
	<path class="st0" d="M19.4,117.5c0.3,0,0.5,0,0.8,0.1c0.4,0.1,0.7,0.4,0.8,0.8c0.1,0.2,0,0.5,0.1,0.8h0.1c-0.8-0.1-1.2-0.6-1.6-1.3
		C19.4,117.7,19.5,117.5,19.4,117.5L19.4,117.5z"/>
	<path class="st0" d="M128.1,121.7c0.1,0.6-0.5,1.3-1,1.2c-0.1,0-0.2-0.2-0.2-0.3c-0.1-0.8,0.2-1.2,0.9-1.2
		C128,121.5,128,121.6,128.1,121.7z"/>
	<path class="st0" d="M29.5,175.7c-0.2,0.2-0.3,0.4-0.5,0.6c-0.1,0.1-0.3,0.2-0.3,0.2c-0.1-0.2-0.3-0.4-0.3-0.6
		c0-0.2,0.2-0.5,0.3-0.6c0.2-0.1,0.5,0.1,0.7,0.2C29.4,175.4,29.4,175.6,29.5,175.7z"/>
	<path class="st0" d="M9.1,119.1c0-0.4,0.2-0.7,0.6-0.8c0.3-0.1,0.7,0,1.1,0l-0.1-0.1C10.4,119,9.7,119.1,9.1,119.1L9.1,119.1z"/>
	<path class="st0" d="M162.2,52.6c0-0.6,0.4-0.8,0.9-0.8c0.2,0,0.5,0,0.7,0l-0.1-0.1C163.4,52.5,162.8,52.6,162.2,52.6L162.2,52.6z"
		/>
	<path class="st0" d="M159,42.2c-0.1-0.3,0-0.5,0.2-0.5c0.1,0,0.3,0,0.3,0C159.5,42.1,159.1,42,159,42.2L159,42.2z"/>
	<path class="st0" d="M126.1,129.5c-0.1-0.3,0-0.5,0.3-0.6c0.3-0.1,0.4,0,0.2,0.2C126.5,129.4,126.3,129.5,126.1,129.5L126.1,129.5z
		"/>
	<path class="st0" d="M117.2,126.3c0.3-0.1,0.5,0,0.6,0.3c0.1,0.2,0,0.3-0.2,0.2C117.4,126.7,117.2,126.5,117.2,126.3L117.2,126.3z"
		/>
	<path class="st0" d="M137.3,123.9c0-0.5,0.3-0.8,0.8-0.8L138,123C138,123.5,137.7,123.7,137.3,123.9L137.3,123.9z"/>
	<polygon class="st0" points="141,120.9 141.1,121.2 140.8,121.2 	"/>
	<path class="st0" d="M10.7,118.3c0-0.7,0-0.7,0.8-0.8l-0.1-0.1C11.3,118,11.3,118,10.7,118.3L10.7,118.3z"/>
	<path class="st0" d="M161.2,53.3c-0.1,0.2-0.2,0.4-0.3,0.6c-0.1-0.1-0.1-0.1-0.2-0.2c0.2-0.1,0.4-0.2,0.6-0.3L161.2,53.3z"/>
	<path class="st0" d="M162.1,52.5c0,0.6-0.4,0.7-0.8,0.8l0.1,0.1C161.4,52.9,161.7,52.6,162.1,52.5L162.1,52.5z"/>
	<path class="st0" d="M33.9,127.9c0.2,1.1-0.9,1.8-1,2.9c0,0.3-0.4,0.6-0.7,0.9c-0.1,0.1-0.2,0.2-0.3,0.2c-0.2,0-0.5-0.1-0.7-0.2
		c-0.3-0.1-0.3-0.4-0.2-0.7c0-0.1,0.1-0.3,0.1-0.4c0.6-0.9,1.2-1.7,1.8-2.6C33.1,128,33.5,127.9,33.9,127.9L33.9,127.9z"/>
	<path class="st0" d="M12.2,130.3c0.2-1,1-1.3,1.8-1.6c0.2-0.1,0.5-0.1,0.7-0.1c-0.1,0.2-0.1,0.5-0.3,0.7
		C13.8,129.9,13.1,130.4,12.2,130.3z"/>
	<path class="st0" d="M14.6,128.7c0.1-0.5,0.5-0.8,1-0.9c0.2,0,0.5,0,0.7,0c-0.1,0.4-0.3,0.7-0.7,0.8
		C15.3,128.7,14.9,128.7,14.6,128.7z"/>
</g>
</svg>
