<?xml version="1.0" encoding="utf-8"?>
<!-- Generator: Adobe Illustrator 16.0.0, SVG Export Plug-In . SVG Version: 6.00 Build 0)  -->
<!DOCTYPE svg PUBLIC "-//W3C//DTD SVG 1.1//EN" "http://www.w3.org/Graphics/SVG/1.1/DTD/svg11.dtd">
<svg version="1.1" id="Layer_1" xmlns="http://www.w3.org/2000/svg" xmlns:xlink="http://www.w3.org/1999/xlink" x="0px" y="0px"
	 width="48.6px" height="68.8px" viewBox="0 0 48.6 68.8" style="enable-background:new 0 0 48.6 68.8;" xml:space="preserve">
<style type="text/css">
<![CDATA[
	.st0{fill:#010101;}
]]>
</style>
<g>
	<path class="st0" d="M20.4,7.8c0.1,0,0.2,0,0.2,0.1c0.2,0.3,0.5,0.7,0.6,1c0.4,1.5,1.2,2.8,1.8,4.1c0.6,0.3,1.2,0.3,1.7-0.1
		c0.3-0.2,0.7-0.4,1-0.7c0.6,0,1.1,0,1.7,0c0.2-0.2,0.5-0.4,0.6-0.7c0.2-0.5,0.5-1,0.7-1.5c0.2-0.9,0.7-1.8,1.2-2.6
		c0,0,0.2,0,0.2-0.1L30,7.2c0.1,0.4,0,0.8-0.1,1.2c-0.1,0.2-0.1,0.3-0.2,0.4c-0.4,0.8-0.7,1.6-0.8,2.5c0,0.1-0.2,0.3-0.2,0.4
		c-0.1,0.2,0.2,0.5,0.4,0.5c0.5,0.3,1.1,0.1,1.7,0.3c0.6,0.3,1.2,0.3,1.9,0.4c0.8,0.7,1.6,1.4,2.3,2.1c0.5,0.8,0.9,1.7,1.2,2.6
		c0.3,0.8,0.1,1.6,0.6,2.3c0,0.3,0.1,0.6,0,1c-0.1,1.1,0.2,2.1,0.7,3c0.2,0.4,0.4,0.9,0.7,1.3c0,0.2-0.1,0.5-0.1,0.7
		c0.4,0.8,0.7,1.6,0.9,2.5c0.1,0.3,0.3,0.6,0.3,0.9c-0.1,0.8,0.4,1.4,0.9,1.9c0.1,0.6-0.2,1.1-0.3,1.6c-0.1,0-0.2,0-0.2-0.1
		c-0.6-1-1.1-2.2-1.3-3.3c-0.1-0.8-0.5-1.5-0.6-2.3c-0.1-0.6-0.4-1.2-0.8-1.8c-0.3-0.5-0.8-0.8-1.4-0.8c-0.4,0-0.8,0-1.2-0.3
		c-0.5-0.3-0.9-0.2-1.4,0c-0.5,0.3-1,0.6-1.5,0.9c-0.3,0.2-0.6,0.3-0.9,0.4c-1.5,0.2-2.8,0.8-4,1.3c-0.8,0.1-1.6,0.1-2.3,0.3
		c-0.6,0.2-1.1,0.3-1.7,0.3c-1.1,0-2.1,0.1-3.1,0.4c-0.4,0.1-0.8,0-1.2,0.3c-0.5,0.4-1.2,0.7-1.4,1.3c-0.2,0.7-1,1.1-1.2,1.9
		c0,0.7-0.1,1.5-0.1,2.3c0,0.6,0.1,1.3-0.3,1.9c-0.1,0.1-0.1,0.3-0.1,0.5c0.1,1.5-0.2,3.1,0,4.6c0.2,0.5,0.4,0.9,0.6,1.4
		c0.7,0.9,1.6,1.5,2.7,2c0.2,0.1,0.4,0.2,0.6,0.4c0.2,0.4,0.7,0.5,1,0.4c0.9-0.3,1.7-0.3,2.6-0.3c1.1,0,2.1-0.1,3.2-0.1
		c0.9,0,1.7-0.2,2.6-0.4c0.8-0.3,1.7-0.5,2.5-0.8c0.7-0.3,1.4-0.8,2.3-0.8c0.2,0,0.4-0.2,0.6-0.3c0.3-0.2,0.6-0.4,0.9-0.4
		c1.4-0.4,2.7-1.2,4-1.8c0.3-0.1,0.6-0.3,0.8-0.5c0.2-0.2,0.4-0.4,0.4-0.6c0.1-0.9,0.8-1.6,1-2.4c-0.2-0.6-0.4-1.2-0.9-1.7
		s-0.6-1.1-0.5-1.8c0.1,0,0.2,0,0.2,0c0.6,0.4,1,1,1.3,1.7c0.2,0.5,0.3,1.1,0.5,1.6c0,0.1,0.1,0.3,0.2,0.4c0.8,0.4,0.8,1.2,0.7,1.9
		c0,0.4-0.3,0.7-0.6,1c-0.2,0.1-0.4,0.3-0.6,0.4c-0.6,0.2-1.1,0.7-1.4,1.3c-1,0.9-1.5,2.1-2.4,3c-0.3,0.3-0.5,0.8-0.7,1.2
		c-0.1,0.2,0,0.6,0.2,0.6c1.1,0.3,1.6,1.3,2.1,2.2c0.1,0.3-0.1,0.9-0.4,1c-0.1,0-0.1,0.1-0.2,0.1c-0.6,0.2-1.2,0.3-1.8,0.5
		c-1.1-0.5-2.3-0.5-3.4-0.1c-0.7,0.2-1.4,0.5-2.1,0.7c-0.7,0.2-1.1,0.6-1.7,0.8c-0.5,0.2-0.9,0.4-1.3,0.6c-0.3,0.2-0.9-0.1-1-0.4
		c-0.2-0.7-0.6-1.3-0.7-2.1c-0.1-0.5-0.5-0.8-1-0.8c-0.6,0-1.1-0.3-1.6-0.4c-0.6,0.3-1.1-0.2-1.6-0.3c-0.5-0.1-1-0.4-1.6-0.6
		c-0.7-0.3-1.4-0.4-1.9-1c-0.2-0.2-0.6-0.3-0.9-0.2c-0.3,0.1-0.6,0.2-0.9,0.3c-0.6-0.1-1.1-0.2-1.7-0.4c-0.2,0-0.4-0.3-0.4-0.5
		c0-0.7,0.1-1.5-0.3-2.1c0-0.4-0.1-0.8,0-1.2c0-0.4,0.2-0.8,0.3-1.1c-0.1-0.3-0.2-0.5-0.4-0.7c-0.1-2.7-0.1-2.7,0.3-5.3
		c-0.6-0.4-1.4-0.2-2.1-0.6c-0.4,0.3-1,0.2-1.4,0.4c-0.5,0.3-1.1,0.3-1.6,0.5c-0.5,0.1-0.9,0.4-1.3,0.6c-0.4,0.4-0.6,1-1.1,1.2
		C6.5,37.4,6,38,5.6,38.8c-0.1,0.1-0.1,0.3-0.3,0.4c-0.2,0.2-0.4,0.3-0.6,0.4c-0.3,0.1-0.6,0.1-1,0.1c-0.5,0-0.9,0.1-1.4,0.3
		c-0.3,0.1-0.6,0-0.8-0.3c-0.2-0.2-0.1-0.7,0.2-0.8c0.1-0.1,0.3-0.2,0.4-0.2c0.4,0,0.8-0.1,1.2-0.1c0.3,0,0.6,0,0.9-0.3
		c0.3-0.4,0.4-0.5,0.4-1.4c-0.2-0.3-0.5-0.6-0.7-1c0-0.3,0.2-0.6,0-0.9c-0.2-0.3-0.5-0.4-0.8-0.4s-0.6,0-1,0c-0.1,0-0.2,0-0.2,0.1
		c-0.3,0.1-0.4,0.2-0.5,0.5c-0.3,0.5-0.6,0.6-1.2,0.3C0,35.4-0.1,35.3,0,35.1c0-0.1,0.1-0.3,0.2-0.4c0.7-1,1.7-1.4,2.9-1.4
		c0.2,0,0.5,0,0.7,0.1c0.4,0.2,0.7,0.4,1.1,0.7c0.6-0.2,1.3-0.4,2.2-0.3c0.5,0.3,1.2,0.6,1.9,0.9c0.2,0,0.3,0,0.5-0.1
		c1.2-0.5,2.3-1.1,3.5-1.6c0.3-0.2,0.8,0.1,1,0.4c0.1,0.3,0.1,0.6,0.5,0.8c0.2,0.1,0.3,0,0.4-0.1C15,34,15,33.8,15,33.7
		c0.1-0.7,0-1.5,0.2-2.2c0.2-0.6,0.2-1.3,0.6-1.8c0.1-0.6,0.2-1.3-0.2-1.9c-0.1-0.1-0.1-0.3-0.2-0.4c0.1-0.1,0.1-0.3,0.2-0.4
		c0.2-0.3,0.3-0.6,0-0.9c-0.2-0.3-0.3-0.7-0.3-1.2c0-0.6,0.1-1.3,0.1-1.9c0-0.7,0.4-1.2,0.4-1.9c0-0.2,0.1-0.5,0.2-0.7
		c0.8-1,1.1-2.4,2-3.3c0.2-0.7,0.8-1.2,1.4-1.6c0.8-0.5,1.4-1.2,2.1-1.7c0.2-0.1,0.3-0.4,0.4-0.6c-0.2-0.9-0.8-1.6-0.9-2.5
		c-0.1-0.8-0.6-1.5-0.8-2.3C20.4,8.5,20.4,8.1,20.4,7.8L20.4,7.8z M18.2,27.2c1.3,0,2.5,0.2,3.7-0.3c0.4-0.1,0.8-0.1,1.2-0.1
		c0.5,0,1-0.2,1.4-0.3c0.9-0.1,1.6-0.7,2.6-0.7c0.5,0,1-0.1,1.4-0.2c0.7-0.3,1.4-0.3,2-0.8c0.3-0.2,0.7-0.4,1.1-0.5
		c1.4-0.3,2.5-1.1,3.8-1.6c0.4-0.2,0.6-0.5,0.6-1s0-1-0.2-1.4c-0.1-0.5-0.3-0.9-0.5-1.4s-0.5-1-0.7-1.5c-0.5-1.3-1.5-2.1-2.5-2.9
		c-0.5-0.5-1.2-0.3-1.8-0.5c-1.1-0.4-2.2-0.4-3.4-0.3c-0.3,0-0.6,0.2-0.9,0.3c-0.3,0.2-0.6,0-1-0.2c-0.4,0.3-0.8,0.6-1.4,0.8
		c-0.5,0.2-0.9,0.4-1.3,0.5c-0.5,0.2-1,0.4-1.5,0.7c-0.6,0.6-1.1,1.2-1.7,1.7c-0.3,0.9-1.1,1.4-1.5,2.2c-0.4,0.7-0.7,1.4-1.1,2.2
		c0,0.8,0,1.6,0,2.5c0.3,0.7,0.7,1.4,1.1,2.1C17.7,26.8,18,27,18.2,27.2z M38.3,42.2c-0.2-0.1-0.4-0.2-0.5-0.2
		c-0.8,0.2-1.5,0.5-2.2,1c-0.3,0.2-0.5,0.3-0.9,0.4c-0.5,0.1-1.1,0.3-1.6,0.5c-0.6,0.1-1,0.5-1.6,0.6c-0.7,0.2-1.4,0.5-2,0.7
		c-0.8,0.3-1.6,0.2-2.3,0.6c-0.2,0.1-0.5,0.1-0.7,0.1c-0.8,0-1.6-0.1-2.4,0.3c-0.1,0-0.3-0.1-0.4-0.1c-0.4-0.1-0.8-0.2-1.2,0
		c-0.4,0.2-0.7,0.3-1.1,0.5c0.2,0.1,0.3,0.2,0.4,0.3c0.8,0.5,1.9,0.5,2.8,0.8c0.4,0.2,1,0.1,1.4,0.1c0.6,0,1.1-0.1,1.7,0.2
		c0.1,0,0.2,0.1,0.2,0.1c0.7-0.4,1.5-0.1,2.1-0.5c0.5-0.3,1.1-0.3,1.6-0.3c0.3,0,0.6,0,0.8,0c0.9-0.3,1.5-0.6,2.2-0.8
		c0.3-0.1,0.6-0.2,0.8-0.5c0.6-0.5,1.2-1.1,1.6-1.8c0.2-0.4,0.4-0.7,0.6-1.1C37.9,42.8,38.1,42.5,38.3,42.2z M27.9,49.5
		c0.2,0.4,0.4,0.8,1,0.8c0.6,0,1.1,0.1,1.6-0.2c0.4-0.3,0.9-0.3,1.4-0.3s0.9-0.1,1.4-0.3s1.1-0.4,1.6-0.6c0.3-0.1,0.6-0.1,0.9,0.1
		c0.4,0.3,0.9,0.3,1.4,0.2c0.1,0,0.2,0,0.2,0c0.1-0.1,0.3-0.2,0.3-0.3c0.1-0.1,0.1-0.3,0-0.4c-0.5-0.8-1.3-1.1-2.2-1.5
		c-0.7,0.5-1.6,0.6-2.4,1s-1.8,0.2-2.5,0.7c-0.4,0-0.8,0.1-1.2,0.1c-0.2,0-0.5,0-0.7,0C28.4,48.8,28.1,49.1,27.9,49.5z M16.5,44.6
		c0.2,0.2,0.4,0.4,0.5,0.5c0.1,0.1,0.3,0.1,0.4,0c0-0.1,0-0.1,0-0.2c0-0.2,0-0.3-0.2-0.3C17,44.5,16.8,44.5,16.5,44.6z M18.7,45.2
		l0.1-0.1h-0.2L18.7,45.2z M41.8,38.3c0,0-0.1-0.1-0.1-0.2c-0.1,0.1-0.2,0.1-0.2,0.2c0,0.1,0.1,0.1,0.1,0.2
		C41.7,38.4,41.7,38.4,41.8,38.3z"/>
	<path class="st0" d="M33.1,56.1C33,56,32.8,56,32.7,55.9c-0.2-0.5-0.1-1,0-1.4c0-0.2,0.2-0.3,0.4-0.2c0.1,0,0.2,0,0.2,0
		c0.5,0.5,1,1.1,1.4,1.7c0.6,0.8,1.4,1.3,2.3,1.7c0.1,0,0.2,0,0.2,0c0.3,0,0.7-0.4,0.6-0.6c-0.1-0.2-0.2-0.4-0.3-0.7
		c-0.5-0.8-0.7-1.8-0.9-2.7c0-0.1,0-0.2,0.1-0.2c0.1-0.1,0.2-0.1,0.4,0.1c0.1,0.1,0.1,0.1,0.2,0.2c0.5,1,1,2,1.5,3
		c0.3,0.7,0.2,1.3-0.4,1.8c-0.6,0.1-1.4,0.2-2-0.3c-0.3-0.2-0.7-0.4-1.1-0.6s-1,0-1.3,0.4c-0.4,0.6-0.8,1.2-0.9,2
		c0,0.1-0.1,0.3-0.2,0.4c-0.2,0-0.5,0-0.6-0.2c-0.2-0.4-0.6-0.6-0.9-0.8c-0.2-0.2-0.4-0.5-0.6-0.7c-0.9-0.9-1.3-1.3-1.5-1.8
		c-0.2-0.6-0.4-1.2-0.6-1.8c0.5-0.2,0.7-0.2,0.8,0c0.2,0.4,0.4,0.9,0.6,1.3c0.2,0.6,0.5,1.2,0.9,1.7c0.3,0,0.5,0.1,0.7,0.1
		c0.5,0,0.9-0.2,0.9-0.6C32.6,56.9,32.9,56.5,33.1,56.1c0.1,0,0.2-0.1,0.3-0.2c0.1-0.1,0-0.2-0.1-0.1C33.2,55.8,33.1,56,33.1,56.1z"
		/>
	<path class="st0" d="M33.2,3.8c-0.5,0-1.1,0.1-1.6,0.1C31.1,3.7,31,3.4,30.8,3c0-0.2,0-0.3,0-0.5c0.3-0.7,0.8-1.4,0.9-2.2
		c0.2-0.1,0.4-0.2,0.5-0.3c0.6,0.3,1.2,0.5,1.5,1.2c0,0.1,0.2,0.2,0.4,0.3s0.4,0.3,0.4,0.5c0,0.3,0,0.6-0.2,0.9
		C34.2,3,34.1,3.1,34,3.2C33.8,3.5,33.5,3.6,33.2,3.8z"/>
	<path class="st0" d="M19.2,5.3c-0.4,0.2-0.7,0.4-1.1,0.5c-0.5,0.2-0.9,0.1-1.3-0.3c-0.3-0.3-0.3-0.8,0-1.1C17,4.2,17.2,4.1,17.4,4
		c0.1-0.1,0.3-0.1,0.4-0.2c0.4-0.6,0.6-1.3,1.4-1.6c0.1,0,0.1,0.1,0.2,0.1c0.5,0.3,0.7,0.7,0.5,1.2C19.7,4.1,19.4,4.7,19.2,5.3z
		 M18.3,4.7c0-0.1-0.1-0.2-0.1-0.2C18,4.6,18,4.7,18.3,4.7L18.3,4.7z"/>
	<path class="st0" d="M48.1,22.9c0,0.2,0,0.4-0.2,0.4c-0.8,0-1.4,0.7-2.3,0.7c-0.7,0.3-1.3,0.6-2,0.9c-0.3,0.1-0.6,0.1-0.9,0
		c-0.1,0-0.2-0.2-0.3-0.3c-0.1-0.2,0-0.3,0.2-0.4c1.5-0.6,3.1-1.1,4.7-1.5c0.1,0,0.3,0,0.5,0C48,22.6,48.1,22.8,48.1,22.9z"/>
	<path class="st0" d="M47.6,27.8c0,0.1,0,0.2-0.1,0.2c-0.3,0.2-0.5,0.3-0.8,0.5c-0.2,0.1-0.4,0.3-0.6,0.3c-0.8-0.1-1.3,0.5-2.1,0.5
		c-0.2,0-0.6-0.2-0.5-0.3c0.1-0.1,0.2-0.3,0.3-0.4c0.1-0.1,0.3-0.2,0.4-0.2c0.7,0,1.2-0.6,1.8-0.5c0.5,0,0.9-0.2,1.4-0.3
		C47.5,27.5,47.6,27.6,47.6,27.8z"/>
	<path class="st0" d="M40,67.6c0,0.1,0,0.2-0.1,0.2c-0.1,0.4-0.6,0.5-0.9,0.2c-0.3-0.2-0.3-0.6-0.1-0.8c0.1-0.1,0.2-0.2,0.4-0.3
		c0.3-0.2,0.6,0,0.7,0.4C39.9,67.4,39.9,67.5,40,67.6z"/>
	<path class="st0" d="M37.1,64.9c-0.1,0-0.2,0-0.2,0c-0.2,0-0.4-0.3-0.3-0.5c0.1-0.1,0.1-0.3,0.3-0.4c0.3-0.1,0.6-0.1,0.9,0.1
		c0.2,0.1,0.2,0.4,0.1,0.6C37.6,64.9,37.3,64.9,37.1,64.9z"/>
	<path class="st0" d="M34,64.7c-0.2,0.2-0.4,0.4-0.6,0.6c-0.1,0.1-0.5,0-0.6-0.2c-0.1-0.2,0-0.5,0.2-0.6
		C33.2,64.3,33.6,64.3,34,64.7z"/>
	<path class="st0" d="M42.2,63.2c-0.1,0.4-0.3,0.6-0.7,0.7c-0.3,0-0.5-0.1-0.5-0.4c0-0.2,0.1-0.6,0.3-0.6s0.5,0,0.7,0
		C42.1,63,42.2,63.1,42.2,63.2z"/>
	<path class="st0" d="M20.4,7.8c-0.5,0-0.7-0.4-1-0.8c-0.1-0.2,0.1-0.5,0.3-0.5c0.2,0,0.5,0.1,0.6,0.3C20.4,7.1,20.5,7.5,20.4,7.8
		L20.4,7.8z"/>
	<path class="st0" d="M35.8,68.6c-0.1,0.1-0.3,0.2-0.4,0.2c-0.3,0.1-0.6,0-0.6-0.2c0-0.1,0.1-0.3,0.1-0.4c0.2-0.4,0.5-0.4,0.7-0.1
		C35.7,68.3,35.7,68.4,35.8,68.6z"/>
	<path class="st0" d="M46.8,31.7c0.1-0.1,0.1-0.3,0.2-0.4c0.6-0.2,0.6-0.1,1.6,0.1C48,31.7,47.3,31.7,46.8,31.7L46.8,31.7z"/>
	<path class="st0" d="M46.7,31.7c0,0.2,0,0.3-0.2,0.4c-0.3,0.1-0.6,0.3-0.9,0.4c-0.2,0.1-0.3,0-0.3-0.2c0-0.1,0-0.2,0-0.2
		c0.1-0.1,0.2-0.2,0.4-0.2C46.1,31.7,46.5,31.8,46.7,31.7L46.7,31.7z"/>
	<path class="st0" d="M42.6,66.6C42.6,66.6,42.5,66.6,42.6,66.6c-0.3-0.3-0.3-0.5-0.2-0.8c0-0.1,0.2-0.3,0.3-0.3
		c0.2,0,0.2,0.2,0.2,0.4C42.9,66.2,42.9,66.4,42.6,66.6z"/>
	<path class="st0" d="M31.1,5.4c0,0.2,0,0.4,0,0.6s-0.2,0.3-0.4,0.3l0.1,0.1c0-0.2,0-0.4,0-0.6S31,5.4,31.1,5.4L31.1,5.4z"/>
	<path class="st0" d="M30.2,7.4c0-0.2,0-0.4,0-0.6s0.2-0.3,0.5-0.3l-0.1-0.1c0,0.2,0,0.4,0,0.6C30.5,7.2,30.4,7.3,30.2,7.4L30.2,7.4
		z"/>
	<path class="st0" d="M31.2,5.4c0-0.2,0-0.4,0.2-0.4v0.1C31.4,5.3,31.3,5.4,31.2,5.4L31.2,5.4z"/>
	<path class="st0" d="M26.8,35.1c1.3-1,2.5-1.9,3.6-2.8c0.3,0,0.6,0.1,0.7,0.3c0.1,0.6,0.1,1.1,0.1,1.7c0,0.5-0.3,0.8-0.7,0.8
		c-0.4,0-0.8,0-1.3,0.1c-0.4,0.2-0.8,0.4-1.2,0.7c-0.3,0.6-0.8,0.9-1.3,1.3c-0.3,0.2-0.5,0.6-0.7,1c-0.3,0.4-0.6,0.7-1.1,0.9
		c-0.4,0.1-0.8,0.3-1.1,0.5c-0.3,0.2-0.6,0.3-0.8,0.6c-0.6,0.7-1.5,1.2-2.3,1.7c-0.1-0.2-0.2-0.4-0.1-0.5c0.6-0.9,1.2-1.7,1.8-2.5
		c0-0.5-0.2-0.8-0.4-1.2c-0.1-0.3-0.3-0.4-0.5-0.4c-0.7-0.1-1.4-0.1-2.2-0.2c-0.3,0-0.5-0.3-0.5-0.7c0.3-0.2,0.7-0.4,1-0.5
		c0.8-0.1,1.5,0,2.1,0.3c1-0.2,1.8-0.7,2.6-0.8C25.2,35,26,35.1,26.8,35.1z"/>
	<path class="st0" d="M36,31.5c0,0.4-0.1,0.6-0.2,0.5s-0.2-0.3-0.2-0.4c-0.1-0.3-0.4-0.6-0.4-0.8c0-0.8-0.4-1.5-0.5-2.3
		c0-0.2,0-0.5,0.1-0.7c0-0.2,0.2-0.2,0.4-0.2c0.2,0,0.3,0.1,0.4,0.2c0.1,0.3,0.1,0.6,0.1,0.9c0,0.4,0,0.8,0.2,1.2
		C36,30.4,36,30.9,36,31.5z"/>
	<path class="st0" d="M33.6,29.7c-0.4-0.2-0.6-0.3-0.5-0.6c0-0.2,0.2-0.2,0.3-0.2c0.1,0,0.2,0.1,0.2,0.2
		C33.6,29.3,33.6,29.5,33.6,29.7L33.6,29.7z"/>
	<path class="st0" d="M34,30.3c0.4,0,0.5,0.3,0.5,0.6c0,0.1-0.1,0.1-0.1,0.2c-0.1,0.1-0.2,0-0.3-0.2C34.1,30.7,34.1,30.4,34,30.3
		L34,30.3z"/>
	<path class="st0" d="M33.6,29.8c0.4,0.1,0.4,0.1,0.5,0.5l0.1-0.1C33.7,30.2,33.7,30.2,33.6,29.8L33.6,29.8z"/>
	<path class="st0" d="M27,20c0.4,0,0.8,0.2,1,0.5c0.1,0.1,0.1,0.3,0.1,0.4c0,0.6-0.5,1-1.1,1c-0.6,0-1.1-0.4-1.1-1
		c0-0.1,0-0.3,0.1-0.4C26.3,20.2,26.6,20,27,20z"/>
	<path class="st0" d="M21.6,20.5c0.5,0,0.7,0.3,0.8,0.7c0.1,0.6-0.1,1.1-0.7,1.3c-0.1,0.1-0.3,0.1-0.4,0.2c-0.9-0.4-0.9-0.4-0.7-1.5
		C20.9,21,21.2,20.8,21.6,20.5z"/>
	<path class="st0" d="M33.6,19.5c-0.1,0-0.2,0-0.2-0.1c-0.5-1.1-0.7-2.2-1.2-3.3c0-0.1,0-0.2,0.1-0.2c0.1-0.1,0.2-0.1,0.4,0.1
		c0.1,0.1,0.2,0.2,0.3,0.4c0.2,0.6,0.4,1.2,0.6,1.8C33.6,18.6,33.5,19.1,33.6,19.5L33.6,19.5z"/>
	<path class="st0" d="M31,17.7c0.1,0,0.2,0.1,0.2,0.1c0.1,0.1,0.3,0.2,0.3,0.4c0.1,0.7,0.9,1.1,1,1.9c0,0.1,0,0.2-0.1,0.2
		c0,0-0.1,0-0.2,0c-0.1-0.1-0.3-0.2-0.4-0.3c-0.2-0.2-0.4-0.4-0.4-0.6c-0.2-0.5-0.6-0.9-0.7-1.5c0-0.1,0.1-0.1,0.1-0.2
		C30.9,17.7,30.9,17.7,31,17.7z"/>
	<path class="st0" d="M33.5,19.6c0.3,0,0.4,0.2,0.5,0.4c0,0.2,0,0.3-0.2,0.4c0,0-0.1-0.1-0.2-0.2C33.6,20,33.6,19.7,33.5,19.6
		L33.5,19.6z"/>
</g>
</svg>
